# Created by Kenney (www.kenney.nl)

mtllib box-wide.mtl

g box-wide

v -0.2475 0.275 0.1 1 1 1
v -0.2475 0.25 0.075 1 1 1
v -0.2975 0.275 0.1 1 1 1
v -0.2975 0.25 0.075 1 1 1
v -0.2475 0.25 -0.075 1 1 1
v -0.2475 0.275 -0.1 1 1 1
v -0.2975 0.25 -0.075 1 1 1
v -0.2975 0.275 -0.1 1 1 1
v -0.2475 0.55 -0.1 1 1 1
v -0.2475 0.55 0.1 1 1 1
v -0.2975 0.5 -0.1 1 1 1
v -0.2975 0.5 0.1 1 1 1
v -0.2475 0.5 -0.1 1 1 1
v 0.2475 0.5 -0.1 1 1 1
v 0.2975 0.5 -0.1 1 1 1
v 0.2475 0.55 -0.1 1 1 1
v 0.2975 0.275 -0.1 1 1 1
v 0.2475 0.275 -0.1 1 1 1
v 0.2475 0.55 0.1 1 1 1
v 0.2975 0.275 0.1 1 1 1
v 0.2475 0.275 0.1 1 1 1
v 0.2975 0.5 0.1 1 1 1
v 0.2475 0.5 0.1 1 1 1
v -0.2475 0.5 0.1 1 1 1
v 0.2975 0.25 -0.075 1 1 1
v 0.2475 0.25 -0.075 1 1 1
v 0.2975 0.25 0.075 1 1 1
v 0.2475 0.25 0.075 1 1 1
v 0.2525 0.5 0 1 1 1
v 0.2297727 0.5 0.4545455 1 1 1
v 0.2297727 0.5 -0.4545455 1 1 1
v 0.0025 0.5 -0.5 1 1 1
v 0.0025 0.5 0.5 1 1 1
v -0.2247727 0.5 -0.4545455 1 1 1
v -0.2247727 0.5 0.4545455 1 1 1
v -0.2475 0.5 0 1 1 1
v 0.0025 0 0.5 1 1 1
v -0.2247727 0 0.4545455 1 1 1
v 0.2525 0 0 1 1 1
v 0.2297727 0 0.4545455 1 1 1
v -0.2247727 0 -0.4545455 1 1 1
v 0.0025 0 -0.5 1 1 1
v 0.2297727 0 -0.4545455 1 1 1
v -0.2475 0 0 1 1 1

vn 0 -0.3826834 0.9238795
vn 0 -0.9238795 0.3826834
vn 0 -0.9238795 -0.3826834
vn 0 -0.3826834 -0.9238795
vn -0.3826834 0.9238795 0
vn -0.9238795 0.3826834 0
vn -1 0 0
vn 0 0 -1
vn 0.3826834 0.9238795 0
vn 0 0 1
vn 0.9238795 0.3826834 0
vn 1 0 0
vn 0 1 0
vn -0.1961161 0 0.9805807
vn 0.9987524 0 0.04993761
vn -0.1961161 0 -0.9805807
vn 0 -1 0
vn 0.1961161 0 0.9805807
vn -0.9987524 0 -0.04993761
vn 0.1961161 0 -0.9805807
vn 0.9987524 0 -0.04993761
vn -0.9987524 0 0.04993761

vt 0.96875 0.2916667
vt 0.96875 0.275
vt 0.96875 0.475
vt 0.96875 0.4416667
vt 0.71875 0.475
vt 0.71875 0.275

usemtl colormap

f 3/1/1 2/2/2 1/1/1
f 2/2/2 3/1/1 4/2/2
f 7/2/3 6/1/4 5/2/3
f 6/1/4 7/2/3 8/1/4
f 11/4/6 10/3/5 9/3/5
f 10/3/5 11/4/6 12/4/6
f 7/2/7 11/4/6 8/1/7
f 11/4/6 7/2/7 12/4/6
f 12/4/6 7/2/7 4/2/7
f 12/4/6 4/2/7 3/1/7
f 4/2/2 5/2/3 2/2/2
f 5/2/3 4/2/2 7/2/3
f 11/4/8 6/1/4 8/1/4
f 6/1/4 11/4/8 13/4/8
f 13/4/8 11/4/8 9/3/8
f 13/4/8 9/3/8 14/4/8
f 14/4/8 9/3/8 15/4/8
f 15/4/8 9/3/8 16/3/8
f 17/1/4 14/4/8 15/4/8
f 14/4/8 17/1/4 18/1/4
f 9/3/5 19/3/9 16/3/9
f 19/3/9 9/3/5 10/3/5
f 22/4/10 21/1/1 20/1/1
f 21/1/1 22/4/10 23/4/10
f 23/4/10 22/4/10 19/3/10
f 23/4/10 19/3/10 24/4/10
f 24/4/10 19/3/10 12/4/10
f 12/4/10 19/3/10 10/3/10
f 3/1/1 24/4/10 12/4/10
f 24/4/10 3/1/1 1/1/1
f 16/3/9 22/4/11 15/4/11
f 22/4/11 16/3/9 19/3/9
f 26/2/3 17/1/4 25/2/3
f 17/1/4 26/2/3 18/1/4
f 22/4/11 17/1/12 15/4/11
f 17/1/12 22/4/11 25/2/12
f 25/2/12 22/4/11 27/2/12
f 27/2/12 22/4/11 20/1/12
f 21/1/1 27/2/2 20/1/1
f 27/2/2 21/1/1 28/2/2
f 28/2/2 25/2/3 27/2/2
f 25/2/3 28/2/2 26/2/3
f 31/5/13 30/5/13 29/5/13
f 30/5/13 31/5/13 32/5/13
f 30/5/13 32/5/13 33/5/13
f 33/5/13 32/5/13 34/5/13
f 33/5/13 34/5/13 35/5/13
f 35/5/13 34/5/13 36/5/13
f 33/5/10 38/6/14 37/6/10
f 38/6/14 33/5/10 35/5/14
f 30/5/15 39/6/12 29/5/12
f 39/6/12 30/5/15 40/6/15
f 34/5/16 42/6/8 41/6/16
f 42/6/8 34/5/16 32/5/8
f 40/6/17 43/6/17 39/6/17
f 43/6/17 40/6/17 37/6/17
f 43/6/17 37/6/17 42/6/17
f 42/6/17 37/6/17 38/6/17
f 42/6/17 38/6/17 41/6/17
f 41/6/17 38/6/17 44/6/17
f 30/5/18 37/6/10 40/6/18
f 37/6/10 30/5/18 33/5/10
f 44/6/7 34/5/19 41/6/19
f 34/5/19 44/6/7 36/5/7
f 32/5/8 43/6/20 42/6/8
f 43/6/20 32/5/8 31/5/20
f 29/5/12 43/6/21 31/5/21
f 43/6/21 29/5/12 39/6/12
f 38/6/22 36/5/7 44/6/7
f 36/5/7 38/6/22 35/5/22

g box-wide




usemtl colormap

f 3/1/1 2/2/2 1/1/1
f 2/2/2 3/1/1 4/2/2
f 7/2/3 6/1/4 5/2/3
f 6/1/4 7/2/3 8/1/4
f 11/4/6 10/3/5 9/3/5
f 10/3/5 11/4/6 12/4/6
f 7/2/7 11/4/6 8/1/7
f 11/4/6 7/2/7 12/4/6
f 12/4/6 7/2/7 4/2/7
f 12/4/6 4/2/7 3/1/7
f 4/2/2 5/2/3 2/2/2
f 5/2/3 4/2/2 7/2/3
f 11/4/8 6/1/4 8/1/4
f 6/1/4 11/4/8 13/4/8
f 13/4/8 11/4/8 9/3/8
f 13/4/8 9/3/8 14/4/8
f 14/4/8 9/3/8 15/4/8
f 15/4/8 9/3/8 16/3/8
f 17/1/4 14/4/8 15/4/8
f 14/4/8 17/1/4 18/1/4
f 9/3/5 19/3/9 16/3/9
f 19/3/9 9/3/5 10/3/5
f 22/4/10 21/1/1 20/1/1
f 21/1/1 22/4/10 23/4/10
f 23/4/10 22/4/10 19/3/10
f 23/4/10 19/3/10 24/4/10
f 24/4/10 19/3/10 12/4/10
f 12/4/10 19/3/10 10/3/10
f 3/1/1 24/4/10 12/4/10
f 24/4/10 3/1/1 1/1/1
f 16/3/9 22/4/11 15/4/11
f 22/4/11 16/3/9 19/3/9
f 26/2/3 17/1/4 25/2/3
f 17/1/4 26/2/3 18/1/4
f 22/4/11 17/1/12 15/4/11
f 17/1/12 22/4/11 25/2/12
f 25/2/12 22/4/11 27/2/12
f 27/2/12 22/4/11 20/1/12
f 21/1/1 27/2/2 20/1/1
f 27/2/2 21/1/1 28/2/2
f 28/2/2 25/2/3 27/2/2
f 25/2/3 28/2/2 26/2/3
f 31/5/13 30/5/13 29/5/13
f 30/5/13 31/5/13 32/5/13
f 30/5/13 32/5/13 33/5/13
f 33/5/13 32/5/13 34/5/13
f 33/5/13 34/5/13 35/5/13
f 35/5/13 34/5/13 36/5/13
f 33/5/10 38/6/14 37/6/10
f 38/6/14 33/5/10 35/5/14
f 30/5/15 39/6/12 29/5/12
f 39/6/12 30/5/15 40/6/15
f 34/5/16 42/6/8 41/6/16
f 42/6/8 34/5/16 32/5/8
f 40/6/17 43/6/17 39/6/17
f 43/6/17 40/6/17 37/6/17
f 43/6/17 37/6/17 42/6/17
f 42/6/17 37/6/17 38/6/17
f 42/6/17 38/6/17 41/6/17
f 41/6/17 38/6/17 44/6/17
f 30/5/18 37/6/10 40/6/18
f 37/6/10 30/5/18 33/5/10
f 44/6/7 34/5/19 41/6/19
f 34/5/19 44/6/7 36/5/7
f 32/5/8 43/6/20 42/6/8
f 43/6/20 32/5/8 31/5/20
f 29/5/12 43/6/21 31/5/21
f 43/6/21 29/5/12 39/6/12
f 38/6/22 36/5/7 44/6/7
f 36/5/7 38/6/22 35/5/22

