# Created by Kenney (www.kenney.nl)

mtllib cog-d.mtl

g cog-d

v 0.5 0.07499999 0.0616527 1 1 1
v 0.3876413 0.07499999 0.1187597 1 1 1
v 0.5 0.07499999 -0.05256131 1 1 1
v 0.3876413 0.07499999 -0.1096683 1 1 1
v 0.3535338 0.07499999 0.2011022 1 1 1
v 0.3535338 0.07499999 -0.1920108 1 1 1
v 0.3054127 0.07499999 0.3952655 1 1 1
v 0.3861741 0.07499999 0.314504 1 1 1
v 0.3118412 0.07499999 -0.3926027 1 1 1
v 0.3926027 0.07499999 -0.3118412 1 1 1
v 0.1920108 0.07499999 -0.3535339 1 1 1
v 0.1920108 0.07499999 0.3626252 1 1 1
v 0.1096683 0.07499999 0.3967326 1 1 1
v 0.1419529 0.07499999 0.004545696 1 1 1
v 0.1096683 0.07499999 -0.3876413 1 1 1
v 0.09904449 0.07499999 0.1081359 1 1 1
v 0.09904449 0.07499999 -0.09904449 1 1 1
v 0.05256131 0.07499999 0.5 1 1 1
v 0.05256131 0.07499999 -0.5 1 1 1
v -0.004545696 0.07499999 0.1510443 1 1 1
v -0.004545696 0.07499999 -0.1419529 1 1 1
v -0.0616527 0.07499999 0.5 1 1 1
v -0.0616527 0.07499999 -0.5 1 1 1
v -0.1081359 0.07499999 0.1081359 1 1 1
v -0.1081359 0.07499999 -0.09904449 1 1 1
v -0.1187597 0.07499999 0.3967326 1 1 1
v -0.1187597 0.07499999 -0.3876413 1 1 1
v -0.1510443 0.07499999 0.004545696 1 1 1
v -0.2011022 0.07499999 0.3626252 1 1 1
v -0.2011022 0.07499999 -0.3535338 1 1 1
v -0.314504 0.07499999 0.3952655 1 1 1
v -0.3209326 0.07499999 -0.3926027 1 1 1
v -0.3626252 0.07499999 0.2011022 1 1 1
v -0.3952655 0.07499999 0.3145041 1 1 1
v -0.3626252 0.07499999 -0.1920108 1 1 1
v -0.4016941 0.07499999 -0.3118412 1 1 1
v -0.3967326 0.07499999 0.1187597 1 1 1
v -0.3967326 0.07499999 -0.1096683 1 1 1
v -0.5 0.07499999 0.0616527 1 1 1
v -0.5 0.07499999 -0.05256131 1 1 1
v 0.3861741 -0.15 0.314504 1 1 1
v 0.3535338 -0.15 0.2011022 1 1 1
v 0.3054127 -0.15 0.3952655 1 1 1
v 0.3535338 -0.15 -0.1920108 1 1 1
v 0.3876413 -0.15 -0.1096683 1 1 1
v 0.3876413 -0.15 0.1187597 1 1 1
v 0.5 -0.15 -0.05256131 1 1 1
v 0.5 -0.15 0.0616527 1 1 1
v 0.3118412 -0.15 -0.3926027 1 1 1
v 0.3926027 -0.15 -0.3118412 1 1 1
v 0.1920108 -0.15 -0.3535339 1 1 1
v 0.1920108 -0.15 0.3626252 1 1 1
v 0.1096683 -0.15 0.3967326 1 1 1
v 0.1419529 -0.15 0.004545696 1 1 1
v 0.1096683 -0.15 -0.3876413 1 1 1
v 0.09904449 -0.15 0.1081359 1 1 1
v 0.09904449 -0.15 -0.09904449 1 1 1
v 0.05256131 -0.15 0.5 1 1 1
v 0.05256131 -0.15 -0.5 1 1 1
v -0.004545696 -0.15 0.1510443 1 1 1
v -0.004545696 -0.15 -0.1419529 1 1 1
v -0.0616527 -0.15 0.5 1 1 1
v -0.0616527 -0.15 -0.5 1 1 1
v -0.1081359 -0.15 0.1081359 1 1 1
v -0.1081359 -0.15 -0.09904449 1 1 1
v -0.1187597 -0.15 0.3967326 1 1 1
v -0.1187597 -0.15 -0.3876413 1 1 1
v -0.1510443 -0.15 0.004545696 1 1 1
v -0.2011022 -0.15 0.3626252 1 1 1
v -0.2011022 -0.15 -0.3535338 1 1 1
v -0.314504 -0.15 0.3952655 1 1 1
v -0.3209326 -0.15 -0.3926027 1 1 1
v -0.3626252 -0.15 0.2011022 1 1 1
v -0.3952655 -0.15 0.3145041 1 1 1
v -0.3626252 -0.15 -0.1920108 1 1 1
v -0.4016941 -0.15 -0.3118412 1 1 1
v -0.3967326 -0.15 0.1187597 1 1 1
v -0.3967326 -0.15 -0.1096683 1 1 1
v -0.5 -0.15 0.0616527 1 1 1
v -0.5 -0.15 -0.05256131 1 1 1

vn 0 1 0
vn 0 -1 0
vn -0.2498955 0 0.9682728
vn -0.9682728 0 0.2498955
vn -0.8613751 0 -0.5079694
vn -0.4839342 0 -0.8751045
vn -0.2329551 0 -0.9724875
vn 0.3099759 0 -0.9507445
vn 0.4530918 0 -0.8914639
vn 0.8523767 0 -0.5229284
vn 0.9682728 0 0.2498955
vn 0.2498955 0 0.9682728
vn -0.2765992 0 0.9609854
vn 0.5079694 0 0.8613751
vn -0.5079694 0 0.8613751
vn 0.2765992 0 0.9609853
vn -0.4839342 0 0.8751045
vn -0.8613751 0 0.5079694
vn -0.7071068 0 0.7071068
vn 0 0 1
vn 0.7071068 0 0.7071068
vn 1 0 0
vn 0.9238795 0 -0.3826834
vn -0.9609854 0 -0.2765992
vn -0.9238795 0 -0.3826834
vn 0.3826834 0 -0.9238795
vn 0.9724875 0 -0.2329551
vn 0.9507445 0 0.3099758
vn 0.9609854 0 -0.2765992
vn -0.3099759 0 -0.9507445
vn 0.2329551 0 -0.9724875
vn -0.3826834 0 0.9238795
vn -0.5229284 0 -0.8523767
vn -0.8914639 0 -0.4530918
vn 0.5229284 0 -0.8523767
vn 0.8914639 0 -0.4530918
vn -0.9724875 0 -0.2329551
vn -0.9507445 0 0.3099759
vn 0.8523767 0 0.5229284
vn 0.4530918 0 0.8914639
vn -1 0 0
vn 0.7071068 0 -0.7071068
vn 0.8751045 0 0.4839342
vn 0.9238795 0 0.3826834
vn 0 0 -1
vn -0.3826834 0 -0.9238795
vn -0.7071068 0 -0.7071068
vn -0.8751045 0 0.4839342
vn -0.9238795 0 0.3826834
vn 0.3826834 0 0.9238795

vt 0.34375 0.175
vt 0.34375 0.075
vt 0.09375 0.075
vt 0.09375 0.175

usemtl colormap

f 3/1/1 2/1/1 1/1/1
f 2/1/1 3/1/1 4/1/1
f 2/1/1 4/1/1 5/1/1
f 5/1/1 4/1/1 6/1/1
f 7/1/1 5/1/1 6/1/1
f 5/1/1 7/1/1 8/1/1
f 7/1/1 6/1/1 9/1/1
f 9/1/1 6/1/1 10/1/1
f 7/1/1 9/1/1 11/1/1
f 7/1/1 11/1/1 12/1/1
f 12/1/1 11/1/1 13/1/1
f 13/1/1 11/1/1 14/1/1
f 15/1/1 14/1/1 11/1/1
f 13/1/1 14/1/1 16/1/1
f 14/1/1 15/1/1 17/1/1
f 13/1/1 16/1/1 18/1/1
f 17/1/1 15/1/1 19/1/1
f 18/1/1 16/1/1 20/1/1
f 17/1/1 19/1/1 21/1/1
f 18/1/1 20/1/1 22/1/1
f 21/1/1 19/1/1 23/1/1
f 22/1/1 20/1/1 24/1/1
f 21/1/1 23/1/1 25/1/1
f 22/1/1 24/1/1 26/1/1
f 25/1/1 23/1/1 27/1/1
f 26/1/1 24/1/1 28/1/1
f 25/1/1 27/1/1 28/1/1
f 26/1/1 28/1/1 29/1/1
f 28/1/1 27/1/1 30/1/1
f 28/1/1 30/1/1 29/1/1
f 29/1/1 30/1/1 31/1/1
f 31/1/1 30/1/1 32/1/1
f 31/1/1 32/1/1 33/1/1
f 31/1/1 33/1/1 34/1/1
f 32/1/1 35/1/1 33/1/1
f 35/1/1 32/1/1 36/1/1
f 35/1/1 37/1/1 33/1/1
f 37/1/1 35/1/1 38/1/1
f 37/1/1 38/1/1 39/1/1
f 39/1/1 38/1/1 40/1/1
f 43/2/2 42/2/2 41/2/2
f 42/2/2 43/2/2 44/2/2
f 45/2/2 42/2/2 44/2/2
f 45/2/2 46/2/2 42/2/2
f 47/2/2 46/2/2 45/2/2
f 46/2/2 47/2/2 48/2/2
f 44/2/2 43/2/2 49/2/2
f 49/2/2 50/2/2 44/2/2
f 49/2/2 43/2/2 51/2/2
f 51/2/2 43/2/2 52/2/2
f 51/2/2 52/2/2 53/2/2
f 51/2/2 53/2/2 54/2/2
f 54/2/2 55/2/2 51/2/2
f 54/2/2 53/2/2 56/2/2
f 55/2/2 54/2/2 57/2/2
f 56/2/2 53/2/2 58/2/2
f 55/2/2 57/2/2 59/2/2
f 56/2/2 58/2/2 60/2/2
f 59/2/2 57/2/2 61/2/2
f 60/2/2 58/2/2 62/2/2
f 59/2/2 61/2/2 63/2/2
f 60/2/2 62/2/2 64/2/2
f 63/2/2 61/2/2 65/2/2
f 64/2/2 62/2/2 66/2/2
f 63/2/2 65/2/2 67/2/2
f 64/2/2 66/2/2 68/2/2
f 67/2/2 65/2/2 68/2/2
f 68/2/2 66/2/2 69/2/2
f 67/2/2 68/2/2 70/2/2
f 70/2/2 68/2/2 69/2/2
f 70/2/2 69/2/2 71/2/2
f 70/2/2 71/2/2 72/2/2
f 72/2/2 71/2/2 73/2/2
f 73/2/2 71/2/2 74/2/2
f 75/2/2 72/2/2 73/2/2
f 72/2/2 75/2/2 76/2/2
f 77/2/2 75/2/2 73/2/2
f 75/2/2 77/2/2 78/2/2
f 78/2/2 77/2/2 79/2/2
f 78/2/2 79/2/2 80/2/2
f 31/4/3 74/3/4 71/3/3
f 74/3/4 31/4/3 34/4/4
f 40/4/5 78/3/6 80/3/5
f 78/3/6 40/4/5 38/4/6
f 32/4/7 70/3/8 72/3/7
f 70/3/8 32/4/7 30/4/8
f 4/4/9 47/3/10 45/3/9
f 47/3/10 4/4/9 3/4/10
f 8/4/11 43/3/12 41/3/11
f 43/3/12 8/4/11 7/4/12
f 7/4/12 52/3/13 43/3/12
f 52/3/13 7/4/12 12/4/13
f 18/4/14 62/3/15 58/3/14
f 62/3/15 18/4/14 22/4/15
f 29/4/16 71/3/3 69/3/16
f 71/3/3 29/4/16 31/4/3
f 37/4/17 79/3/18 77/3/17
f 79/3/18 37/4/17 39/4/18
f 17/4/19 61/3/20 57/3/19
f 61/3/20 17/4/19 21/4/20
f 28/4/22 65/3/21 25/4/21
f 65/3/21 28/4/22 68/3/22
f 4/4/23 44/3/23 6/4/23
f 44/3/23 4/4/23 45/3/23
f 74/3/4 33/4/24 73/3/24
f 33/4/24 74/3/4 34/4/4
f 78/3/25 35/4/25 75/3/25
f 35/4/25 78/3/25 38/4/25
f 15/4/26 51/3/26 55/3/26
f 51/3/26 15/4/26 11/4/26
f 6/4/28 50/3/27 10/4/27
f 50/3/27 6/4/28 44/3/28
f 8/4/11 42/3/29 5/4/29
f 42/3/29 8/4/11 41/3/11
f 11/4/30 49/3/31 51/3/30
f 49/3/31 11/4/30 9/4/31
f 79/3/18 40/4/5 80/3/5
f 40/4/5 79/3/18 39/4/18
f 26/4/32 69/3/32 66/3/32
f 69/3/32 26/4/32 29/4/32
f 67/3/34 23/4/33 63/3/33
f 23/4/33 67/3/34 27/4/34
f 23/4/33 59/3/35 63/3/33
f 59/3/35 23/4/33 19/4/35
f 15/4/36 59/3/35 19/4/35
f 59/3/35 15/4/36 55/3/36
f 75/3/38 36/4/37 76/3/37
f 36/4/37 75/3/38 35/4/38
f 9/4/31 50/3/27 49/3/31
f 50/3/27 9/4/31 10/4/27
f 1/4/39 46/3/40 48/3/39
f 46/3/40 1/4/39 2/4/40
f 54/3/41 17/4/19 57/3/19
f 17/4/19 54/3/41 14/4/41
f 36/4/37 72/3/7 76/3/37
f 72/3/7 36/4/37 32/4/7
f 21/4/20 65/3/21 61/3/20
f 65/3/21 21/4/20 25/4/21
f 1/4/39 47/3/10 3/4/10
f 47/3/10 1/4/39 48/3/39
f 24/4/42 68/3/22 28/4/22
f 68/3/22 24/4/42 64/3/42
f 18/4/14 53/3/43 13/4/43
f 53/3/43 18/4/14 58/3/14
f 5/4/44 46/3/44 2/4/44
f 46/3/44 5/4/44 42/3/44
f 24/4/42 60/3/45 64/3/42
f 60/3/45 24/4/42 20/4/45
f 30/4/46 67/3/46 70/3/46
f 67/3/46 30/4/46 27/4/46
f 56/3/47 14/4/41 54/3/41
f 14/4/41 56/3/47 16/4/47
f 62/3/15 26/4/48 66/3/48
f 26/4/48 62/3/15 22/4/15
f 73/3/49 37/4/49 77/3/49
f 37/4/49 73/3/49 33/4/49
f 12/4/50 53/3/50 52/3/50
f 53/3/50 12/4/50 13/4/50
f 20/4/45 56/3/47 60/3/45
f 56/3/47 20/4/45 16/4/47

g cog-d




usemtl colormap

f 3/1/1 2/1/1 1/1/1
f 2/1/1 3/1/1 4/1/1
f 2/1/1 4/1/1 5/1/1
f 5/1/1 4/1/1 6/1/1
f 7/1/1 5/1/1 6/1/1
f 5/1/1 7/1/1 8/1/1
f 7/1/1 6/1/1 9/1/1
f 9/1/1 6/1/1 10/1/1
f 7/1/1 9/1/1 11/1/1
f 7/1/1 11/1/1 12/1/1
f 12/1/1 11/1/1 13/1/1
f 13/1/1 11/1/1 14/1/1
f 15/1/1 14/1/1 11/1/1
f 13/1/1 14/1/1 16/1/1
f 14/1/1 15/1/1 17/1/1
f 13/1/1 16/1/1 18/1/1
f 17/1/1 15/1/1 19/1/1
f 18/1/1 16/1/1 20/1/1
f 17/1/1 19/1/1 21/1/1
f 18/1/1 20/1/1 22/1/1
f 21/1/1 19/1/1 23/1/1
f 22/1/1 20/1/1 24/1/1
f 21/1/1 23/1/1 25/1/1
f 22/1/1 24/1/1 26/1/1
f 25/1/1 23/1/1 27/1/1
f 26/1/1 24/1/1 28/1/1
f 25/1/1 27/1/1 28/1/1
f 26/1/1 28/1/1 29/1/1
f 28/1/1 27/1/1 30/1/1
f 28/1/1 30/1/1 29/1/1
f 29/1/1 30/1/1 31/1/1
f 31/1/1 30/1/1 32/1/1
f 31/1/1 32/1/1 33/1/1
f 31/1/1 33/1/1 34/1/1
f 32/1/1 35/1/1 33/1/1
f 35/1/1 32/1/1 36/1/1
f 35/1/1 37/1/1 33/1/1
f 37/1/1 35/1/1 38/1/1
f 37/1/1 38/1/1 39/1/1
f 39/1/1 38/1/1 40/1/1
f 43/2/2 42/2/2 41/2/2
f 42/2/2 43/2/2 44/2/2
f 45/2/2 42/2/2 44/2/2
f 45/2/2 46/2/2 42/2/2
f 47/2/2 46/2/2 45/2/2
f 46/2/2 47/2/2 48/2/2
f 44/2/2 43/2/2 49/2/2
f 49/2/2 50/2/2 44/2/2
f 49/2/2 43/2/2 51/2/2
f 51/2/2 43/2/2 52/2/2
f 51/2/2 52/2/2 53/2/2
f 51/2/2 53/2/2 54/2/2
f 54/2/2 55/2/2 51/2/2
f 54/2/2 53/2/2 56/2/2
f 55/2/2 54/2/2 57/2/2
f 56/2/2 53/2/2 58/2/2
f 55/2/2 57/2/2 59/2/2
f 56/2/2 58/2/2 60/2/2
f 59/2/2 57/2/2 61/2/2
f 60/2/2 58/2/2 62/2/2
f 59/2/2 61/2/2 63/2/2
f 60/2/2 62/2/2 64/2/2
f 63/2/2 61/2/2 65/2/2
f 64/2/2 62/2/2 66/2/2
f 63/2/2 65/2/2 67/2/2
f 64/2/2 66/2/2 68/2/2
f 67/2/2 65/2/2 68/2/2
f 68/2/2 66/2/2 69/2/2
f 67/2/2 68/2/2 70/2/2
f 70/2/2 68/2/2 69/2/2
f 70/2/2 69/2/2 71/2/2
f 70/2/2 71/2/2 72/2/2
f 72/2/2 71/2/2 73/2/2
f 73/2/2 71/2/2 74/2/2
f 75/2/2 72/2/2 73/2/2
f 72/2/2 75/2/2 76/2/2
f 77/2/2 75/2/2 73/2/2
f 75/2/2 77/2/2 78/2/2
f 78/2/2 77/2/2 79/2/2
f 78/2/2 79/2/2 80/2/2
f 31/4/3 74/3/4 71/3/3
f 74/3/4 31/4/3 34/4/4
f 40/4/5 78/3/6 80/3/5
f 78/3/6 40/4/5 38/4/6
f 32/4/7 70/3/8 72/3/7
f 70/3/8 32/4/7 30/4/8
f 4/4/9 47/3/10 45/3/9
f 47/3/10 4/4/9 3/4/10
f 8/4/11 43/3/12 41/3/11
f 43/3/12 8/4/11 7/4/12
f 7/4/12 52/3/13 43/3/12
f 52/3/13 7/4/12 12/4/13
f 18/4/14 62/3/15 58/3/14
f 62/3/15 18/4/14 22/4/15
f 29/4/16 71/3/3 69/3/16
f 71/3/3 29/4/16 31/4/3
f 37/4/17 79/3/18 77/3/17
f 79/3/18 37/4/17 39/4/18
f 17/4/19 61/3/20 57/3/19
f 61/3/20 17/4/19 21/4/20
f 28/4/22 65/3/21 25/4/21
f 65/3/21 28/4/22 68/3/22
f 4/4/23 44/3/23 6/4/23
f 44/3/23 4/4/23 45/3/23
f 74/3/4 33/4/24 73/3/24
f 33/4/24 74/3/4 34/4/4
f 78/3/25 35/4/25 75/3/25
f 35/4/25 78/3/25 38/4/25
f 15/4/26 51/3/26 55/3/26
f 51/3/26 15/4/26 11/4/26
f 6/4/28 50/3/27 10/4/27
f 50/3/27 6/4/28 44/3/28
f 8/4/11 42/3/29 5/4/29
f 42/3/29 8/4/11 41/3/11
f 11/4/30 49/3/31 51/3/30
f 49/3/31 11/4/30 9/4/31
f 79/3/18 40/4/5 80/3/5
f 40/4/5 79/3/18 39/4/18
f 26/4/32 69/3/32 66/3/32
f 69/3/32 26/4/32 29/4/32
f 67/3/34 23/4/33 63/3/33
f 23/4/33 67/3/34 27/4/34
f 23/4/33 59/3/35 63/3/33
f 59/3/35 23/4/33 19/4/35
f 15/4/36 59/3/35 19/4/35
f 59/3/35 15/4/36 55/3/36
f 75/3/38 36/4/37 76/3/37
f 36/4/37 75/3/38 35/4/38
f 9/4/31 50/3/27 49/3/31
f 50/3/27 9/4/31 10/4/27
f 1/4/39 46/3/40 48/3/39
f 46/3/40 1/4/39 2/4/40
f 54/3/41 17/4/19 57/3/19
f 17/4/19 54/3/41 14/4/41
f 36/4/37 72/3/7 76/3/37
f 72/3/7 36/4/37 32/4/7
f 21/4/20 65/3/21 61/3/20
f 65/3/21 21/4/20 25/4/21
f 1/4/39 47/3/10 3/4/10
f 47/3/10 1/4/39 48/3/39
f 24/4/42 68/3/22 28/4/22
f 68/3/22 24/4/42 64/3/42
f 18/4/14 53/3/43 13/4/43
f 53/3/43 18/4/14 58/3/14
f 5/4/44 46/3/44 2/4/44
f 46/3/44 5/4/44 42/3/44
f 24/4/42 60/3/45 64/3/42
f 60/3/45 24/4/42 20/4/45
f 30/4/46 67/3/46 70/3/46
f 67/3/46 30/4/46 27/4/46
f 56/3/47 14/4/41 54/3/41
f 14/4/41 56/3/47 16/4/47
f 62/3/15 26/4/48 66/3/48
f 26/4/48 62/3/15 22/4/15
f 73/3/49 37/4/49 77/3/49
f 37/4/49 73/3/49 33/4/49
f 12/4/50 53/3/50 52/3/50
f 53/3/50 12/4/50 13/4/50
f 20/4/45 56/3/47 60/3/45
f 56/3/47 20/4/45 16/4/47

