# Created by Kenney (www.kenney.nl)

mtllib cog-a.mtl

g cog-a

v 0.5 0.07499999 0.08156779 1 1 1
v 0.3899423 0.07499999 0.08156779 1 1 1
v 0.5 0.07499999 -0.08156779 1 1 1
v 0.3899423 0.07499999 -0.08156779 1 1 1
v 0.333408 0.07499999 0.2180537 1 1 1
v 0.333408 0.07499999 -0.2180537 1 1 1
v 0.2958762 0.07499999 0.4112305 1 1 1
v 0.4112305 0.07499999 0.2958762 1 1 1
v 0.2958762 0.07499999 -0.4112305 1 1 1
v 0.4112305 0.07499999 -0.2958762 1 1 1
v 0.2180537 0.07499999 0.333408 1 1 1
v 0.2180537 0.07499999 -0.333408 1 1 1
v 0.08156779 0.07499999 0.3899423 1 1 1
v 0.1412429 0.07499999 -5.94855E-13 1 1 1
v 0.08156779 0.07499999 -0.3899423 1 1 1
v 0.09987384 0.07499999 0.09987384 1 1 1
v 0.09987384 0.07499999 -0.09987384 1 1 1
v 8.662937E-15 0.07499999 0.1412429 1 1 1
v 0.08156779 0.07499999 0.5 1 1 1
v -0.08156779 0.07499999 0.5 1 1 1
v -0.08156779 0.07499999 0.3899423 1 1 1
v -0.09987384 0.07499999 0.09987384 1 1 1
v -0.2180537 0.07499999 0.333408 1 1 1
v -0.1412429 0.07499999 -5.94855E-13 1 1 1
v 8.662937E-15 0.07499999 -0.1412429 1 1 1
v -0.2180537 0.07499999 -0.333408 1 1 1
v -0.09987384 0.07499999 -0.09987384 1 1 1
v -0.2958762 0.07499999 0.4112305 1 1 1
v -0.08156779 0.07499999 -0.3899423 1 1 1
v -0.08156779 0.07499999 -0.5 1 1 1
v 0.08156779 0.07499999 -0.5 1 1 1
v -0.2958762 0.07499999 -0.4112305 1 1 1
v -0.333408 0.07499999 0.2180537 1 1 1
v -0.4112305 0.07499999 0.2958762 1 1 1
v -0.333408 0.07499999 -0.2180537 1 1 1
v -0.4112305 0.07499999 -0.2958762 1 1 1
v -0.3899423 0.07499999 0.08156779 1 1 1
v -0.3899423 0.07499999 -0.08156779 1 1 1
v -0.5 0.07499999 0.08156779 1 1 1
v -0.5 0.07499999 -0.08156779 1 1 1
v 0.08156779 -0.15 0.5 1 1 1
v 0.08156779 -0.15 0.3899423 1 1 1
v -0.08156779 -0.15 0.5 1 1 1
v 8.662937E-15 -0.15 0.1412429 1 1 1
v -0.08156779 -0.15 0.3899423 1 1 1
v -0.09987384 -0.15 0.09987384 1 1 1
v 0.09987384 -0.15 0.09987384 1 1 1
v -0.2180537 -0.15 0.333408 1 1 1
v -0.1412429 -0.15 -5.94855E-13 1 1 1
v 0.1412429 -0.15 -5.94855E-13 1 1 1
v -0.2180537 -0.15 -0.333408 1 1 1
v -0.09987384 -0.15 -0.09987384 1 1 1
v -0.2958762 -0.15 0.4112305 1 1 1
v -0.08156779 -0.15 -0.3899423 1 1 1
v 8.662937E-15 -0.15 -0.1412429 1 1 1
v -0.08156779 -0.15 -0.5 1 1 1
v 0.08156779 -0.15 -0.5 1 1 1
v 0.08156779 -0.15 -0.3899423 1 1 1
v 0.09987384 -0.15 -0.09987384 1 1 1
v 0.2180537 -0.15 -0.333408 1 1 1
v 0.2180537 -0.15 0.333408 1 1 1
v 0.2958762 -0.15 -0.4112305 1 1 1
v -0.2958762 -0.15 -0.4112305 1 1 1
v 0.2958762 -0.15 0.4112305 1 1 1
v -0.333408 -0.15 0.2180537 1 1 1
v -0.4112305 -0.15 0.2958762 1 1 1
v -0.333408 -0.15 -0.2180537 1 1 1
v -0.4112305 -0.15 -0.2958762 1 1 1
v -0.3899423 -0.15 0.08156779 1 1 1
v -0.3899423 -0.15 -0.08156779 1 1 1
v -0.5 -0.15 0.08156779 1 1 1
v -0.5 -0.15 -0.08156779 1 1 1
v 0.333408 -0.15 -0.2180537 1 1 1
v 0.4112305 -0.15 -0.2958762 1 1 1
v 0.333408 -0.15 0.2180537 1 1 1
v 0.4112305 -0.15 0.2958762 1 1 1
v 0.3899423 -0.15 -0.08156779 1 1 1
v 0.3899423 -0.15 0.08156779 1 1 1
v 0.5 -0.15 -0.08156779 1 1 1
v 0.5 -0.15 0.08156779 1 1 1

vn 0 1 0
vn 0 -1 0
vn 1 0 0
vn 0.7071068 0 0.7071068
vn 0.7071068 0 -0.7071068
vn 0 0 -1
vn -1 0 0
vn -0.7071068 0 0.7071068
vn 0.9238795 0 -0.3826834
vn -0.9238795 0 -0.3826834
vn -0.7071068 0 -0.7071068
vn -0.9238795 0 0.3826834
vn 0 0 1
vn 0.3826834 0 0.9238795
vn -0.3826834 0 0.9238795
vn 0.3826834 0 -0.9238795
vn 0.9238795 0 0.3826834
vn -0.3826834 0 -0.9238795

vt 0.34375 0.175
vt 0.34375 0.075
vt 0.09375 0.175
vt 0.09375 0.075

usemtl colormap

f 3/1/1 2/1/1 1/1/1
f 2/1/1 3/1/1 4/1/1
f 2/1/1 4/1/1 5/1/1
f 5/1/1 4/1/1 6/1/1
f 7/1/1 5/1/1 6/1/1
f 5/1/1 7/1/1 8/1/1
f 6/1/1 9/1/1 7/1/1
f 9/1/1 6/1/1 10/1/1
f 7/1/1 9/1/1 11/1/1
f 11/1/1 9/1/1 12/1/1
f 11/1/1 12/1/1 13/1/1
f 13/1/1 12/1/1 14/1/1
f 15/1/1 14/1/1 12/1/1
f 13/1/1 14/1/1 16/1/1
f 14/1/1 15/1/1 17/1/1
f 13/1/1 16/1/1 18/1/1
f 13/1/1 18/1/1 19/1/1
f 19/1/1 18/1/1 20/1/1
f 20/1/1 18/1/1 21/1/1
f 22/1/1 21/1/1 18/1/1
f 21/1/1 22/1/1 23/1/1
f 23/1/1 22/1/1 24/1/1
f 17/1/1 15/1/1 25/1/1
f 24/1/1 26/1/1 23/1/1
f 27/1/1 26/1/1 24/1/1
f 23/1/1 26/1/1 28/1/1
f 27/1/1 29/1/1 26/1/1
f 25/1/1 29/1/1 27/1/1
f 25/1/1 30/1/1 29/1/1
f 15/1/1 30/1/1 25/1/1
f 30/1/1 15/1/1 31/1/1
f 28/1/1 26/1/1 32/1/1
f 28/1/1 32/1/1 33/1/1
f 28/1/1 33/1/1 34/1/1
f 32/1/1 35/1/1 33/1/1
f 35/1/1 32/1/1 36/1/1
f 35/1/1 37/1/1 33/1/1
f 37/1/1 35/1/1 38/1/1
f 37/1/1 38/1/1 39/1/1
f 39/1/1 38/1/1 40/1/1
f 43/2/2 42/2/2 41/2/2
f 42/2/2 43/2/2 44/2/2
f 44/2/2 43/2/2 45/2/2
f 44/2/2 45/2/2 46/2/2
f 47/2/2 42/2/2 44/2/2
f 46/2/2 45/2/2 48/2/2
f 46/2/2 48/2/2 49/2/2
f 50/2/2 42/2/2 47/2/2
f 51/2/2 49/2/2 48/2/2
f 51/2/2 52/2/2 49/2/2
f 51/2/2 48/2/2 53/2/2
f 54/2/2 52/2/2 51/2/2
f 52/2/2 54/2/2 55/2/2
f 56/2/2 55/2/2 54/2/2
f 57/2/2 55/2/2 56/2/2
f 58/2/2 55/2/2 57/2/2
f 58/2/2 59/2/2 55/2/2
f 58/2/2 50/2/2 59/2/2
f 50/2/2 58/2/2 60/2/2
f 60/2/2 42/2/2 50/2/2
f 60/2/2 61/2/2 42/2/2
f 62/2/2 61/2/2 60/2/2
f 51/2/2 53/2/2 63/2/2
f 62/2/2 64/2/2 61/2/2
f 63/2/2 53/2/2 65/2/2
f 65/2/2 53/2/2 66/2/2
f 67/2/2 63/2/2 65/2/2
f 63/2/2 67/2/2 68/2/2
f 69/2/2 67/2/2 65/2/2
f 67/2/2 69/2/2 70/2/2
f 70/2/2 69/2/2 71/2/2
f 70/2/2 71/2/2 72/2/2
f 62/2/2 73/2/2 64/2/2
f 73/2/2 62/2/2 74/2/2
f 75/2/2 64/2/2 73/2/2
f 64/2/2 75/2/2 76/2/2
f 77/2/2 75/2/2 73/2/2
f 77/2/2 78/2/2 75/2/2
f 79/2/2 78/2/2 77/2/2
f 78/2/2 79/2/2 80/2/2
f 19/3/4 42/4/3 13/3/3
f 42/4/3 19/3/4 41/4/4
f 22/3/5 44/4/6 46/4/5
f 44/4/6 22/3/5 18/3/6
f 67/4/8 36/3/7 68/4/7
f 36/3/7 67/4/8 35/3/8
f 9/3/6 74/4/3 62/4/6
f 74/4/3 9/3/6 10/3/3
f 4/3/9 73/4/9 6/3/9
f 73/4/9 4/3/9 77/4/9
f 70/4/10 35/3/10 67/4/10
f 35/3/10 70/4/10 38/3/10
f 36/3/7 63/4/6 68/4/7
f 63/4/6 36/3/7 32/3/6
f 43/4/8 21/3/7 45/4/7
f 21/3/7 43/4/8 20/3/8
f 30/3/11 57/4/5 56/4/11
f 57/4/5 30/3/11 31/3/5
f 60/4/11 9/3/6 62/4/6
f 9/3/6 60/4/11 12/3/11
f 18/3/6 47/4/11 44/4/6
f 47/4/11 18/3/6 16/3/11
f 8/3/3 75/4/5 5/3/5
f 75/4/5 8/3/3 76/4/3
f 65/4/12 37/3/12 69/4/12
f 37/3/12 65/4/12 33/3/12
f 50/4/7 17/3/8 59/4/8
f 17/3/8 50/4/7 14/3/7
f 17/3/8 55/4/13 59/4/8
f 55/4/13 17/3/8 25/3/13
f 22/3/5 49/4/3 24/3/3
f 49/4/3 22/3/5 46/4/5
f 26/3/5 63/4/6 32/3/6
f 63/4/6 26/3/5 51/4/5
f 1/3/4 79/4/5 3/3/5
f 79/4/5 1/3/4 80/4/4
f 28/3/13 66/4/7 53/4/13
f 66/4/7 28/3/13 34/3/7
f 66/4/7 33/3/11 65/4/11
f 33/3/11 66/4/7 34/3/7
f 37/3/13 71/4/8 69/4/13
f 71/4/8 37/3/13 39/3/8
f 4/3/6 79/4/5 77/4/6
f 79/4/5 4/3/6 3/3/5
f 11/3/14 42/4/14 61/4/14
f 42/4/14 11/3/14 13/3/14
f 24/3/3 52/4/4 27/3/4
f 52/4/4 24/3/3 49/4/3
f 19/3/4 43/4/8 41/4/4
f 43/4/8 19/3/4 20/3/8
f 40/3/11 70/4/6 72/4/11
f 70/4/6 40/3/11 38/3/6
f 1/3/4 78/4/13 80/4/4
f 78/4/13 1/3/4 2/3/13
f 64/4/13 11/3/8 61/4/8
f 11/3/8 64/4/13 7/3/13
f 21/3/15 48/4/15 45/4/15
f 48/4/15 21/3/15 23/3/15
f 15/3/16 60/4/16 58/4/16
f 60/4/16 15/3/16 12/3/16
f 71/4/8 40/3/11 72/4/11
f 40/3/11 71/4/8 39/3/8
f 6/3/4 74/4/3 10/3/3
f 74/4/3 6/3/4 73/4/4
f 5/3/17 78/4/17 2/3/17
f 78/4/17 5/3/17 75/4/17
f 8/3/3 64/4/13 76/4/3
f 64/4/13 8/3/3 7/3/13
f 47/4/11 14/3/7 50/4/7
f 14/3/7 47/4/11 16/3/11
f 15/3/3 57/4/5 31/3/5
f 57/4/5 15/3/3 58/4/3
f 28/3/13 48/4/4 23/3/4
f 48/4/4 28/3/13 53/4/13
f 26/3/18 54/4/18 51/4/18
f 54/4/18 26/3/18 29/3/18
f 54/4/7 30/3/11 56/4/11
f 30/3/11 54/4/7 29/3/7
f 25/3/13 52/4/4 55/4/13
f 52/4/4 25/3/13 27/3/4

g cog-a




usemtl colormap

f 3/1/1 2/1/1 1/1/1
f 2/1/1 3/1/1 4/1/1
f 2/1/1 4/1/1 5/1/1
f 5/1/1 4/1/1 6/1/1
f 7/1/1 5/1/1 6/1/1
f 5/1/1 7/1/1 8/1/1
f 6/1/1 9/1/1 7/1/1
f 9/1/1 6/1/1 10/1/1
f 7/1/1 9/1/1 11/1/1
f 11/1/1 9/1/1 12/1/1
f 11/1/1 12/1/1 13/1/1
f 13/1/1 12/1/1 14/1/1
f 15/1/1 14/1/1 12/1/1
f 13/1/1 14/1/1 16/1/1
f 14/1/1 15/1/1 17/1/1
f 13/1/1 16/1/1 18/1/1
f 13/1/1 18/1/1 19/1/1
f 19/1/1 18/1/1 20/1/1
f 20/1/1 18/1/1 21/1/1
f 22/1/1 21/1/1 18/1/1
f 21/1/1 22/1/1 23/1/1
f 23/1/1 22/1/1 24/1/1
f 17/1/1 15/1/1 25/1/1
f 24/1/1 26/1/1 23/1/1
f 27/1/1 26/1/1 24/1/1
f 23/1/1 26/1/1 28/1/1
f 27/1/1 29/1/1 26/1/1
f 25/1/1 29/1/1 27/1/1
f 25/1/1 30/1/1 29/1/1
f 15/1/1 30/1/1 25/1/1
f 30/1/1 15/1/1 31/1/1
f 28/1/1 26/1/1 32/1/1
f 28/1/1 32/1/1 33/1/1
f 28/1/1 33/1/1 34/1/1
f 32/1/1 35/1/1 33/1/1
f 35/1/1 32/1/1 36/1/1
f 35/1/1 37/1/1 33/1/1
f 37/1/1 35/1/1 38/1/1
f 37/1/1 38/1/1 39/1/1
f 39/1/1 38/1/1 40/1/1
f 43/2/2 42/2/2 41/2/2
f 42/2/2 43/2/2 44/2/2
f 44/2/2 43/2/2 45/2/2
f 44/2/2 45/2/2 46/2/2
f 47/2/2 42/2/2 44/2/2
f 46/2/2 45/2/2 48/2/2
f 46/2/2 48/2/2 49/2/2
f 50/2/2 42/2/2 47/2/2
f 51/2/2 49/2/2 48/2/2
f 51/2/2 52/2/2 49/2/2
f 51/2/2 48/2/2 53/2/2
f 54/2/2 52/2/2 51/2/2
f 52/2/2 54/2/2 55/2/2
f 56/2/2 55/2/2 54/2/2
f 57/2/2 55/2/2 56/2/2
f 58/2/2 55/2/2 57/2/2
f 58/2/2 59/2/2 55/2/2
f 58/2/2 50/2/2 59/2/2
f 50/2/2 58/2/2 60/2/2
f 60/2/2 42/2/2 50/2/2
f 60/2/2 61/2/2 42/2/2
f 62/2/2 61/2/2 60/2/2
f 51/2/2 53/2/2 63/2/2
f 62/2/2 64/2/2 61/2/2
f 63/2/2 53/2/2 65/2/2
f 65/2/2 53/2/2 66/2/2
f 67/2/2 63/2/2 65/2/2
f 63/2/2 67/2/2 68/2/2
f 69/2/2 67/2/2 65/2/2
f 67/2/2 69/2/2 70/2/2
f 70/2/2 69/2/2 71/2/2
f 70/2/2 71/2/2 72/2/2
f 62/2/2 73/2/2 64/2/2
f 73/2/2 62/2/2 74/2/2
f 75/2/2 64/2/2 73/2/2
f 64/2/2 75/2/2 76/2/2
f 77/2/2 75/2/2 73/2/2
f 77/2/2 78/2/2 75/2/2
f 79/2/2 78/2/2 77/2/2
f 78/2/2 79/2/2 80/2/2
f 19/3/4 42/4/3 13/3/3
f 42/4/3 19/3/4 41/4/4
f 22/3/5 44/4/6 46/4/5
f 44/4/6 22/3/5 18/3/6
f 67/4/8 36/3/7 68/4/7
f 36/3/7 67/4/8 35/3/8
f 9/3/6 74/4/3 62/4/6
f 74/4/3 9/3/6 10/3/3
f 4/3/9 73/4/9 6/3/9
f 73/4/9 4/3/9 77/4/9
f 70/4/10 35/3/10 67/4/10
f 35/3/10 70/4/10 38/3/10
f 36/3/7 63/4/6 68/4/7
f 63/4/6 36/3/7 32/3/6
f 43/4/8 21/3/7 45/4/7
f 21/3/7 43/4/8 20/3/8
f 30/3/11 57/4/5 56/4/11
f 57/4/5 30/3/11 31/3/5
f 60/4/11 9/3/6 62/4/6
f 9/3/6 60/4/11 12/3/11
f 18/3/6 47/4/11 44/4/6
f 47/4/11 18/3/6 16/3/11
f 8/3/3 75/4/5 5/3/5
f 75/4/5 8/3/3 76/4/3
f 65/4/12 37/3/12 69/4/12
f 37/3/12 65/4/12 33/3/12
f 50/4/7 17/3/8 59/4/8
f 17/3/8 50/4/7 14/3/7
f 17/3/8 55/4/13 59/4/8
f 55/4/13 17/3/8 25/3/13
f 22/3/5 49/4/3 24/3/3
f 49/4/3 22/3/5 46/4/5
f 26/3/5 63/4/6 32/3/6
f 63/4/6 26/3/5 51/4/5
f 1/3/4 79/4/5 3/3/5
f 79/4/5 1/3/4 80/4/4
f 28/3/13 66/4/7 53/4/13
f 66/4/7 28/3/13 34/3/7
f 66/4/7 33/3/11 65/4/11
f 33/3/11 66/4/7 34/3/7
f 37/3/13 71/4/8 69/4/13
f 71/4/8 37/3/13 39/3/8
f 4/3/6 79/4/5 77/4/6
f 79/4/5 4/3/6 3/3/5
f 11/3/14 42/4/14 61/4/14
f 42/4/14 11/3/14 13/3/14
f 24/3/3 52/4/4 27/3/4
f 52/4/4 24/3/3 49/4/3
f 19/3/4 43/4/8 41/4/4
f 43/4/8 19/3/4 20/3/8
f 40/3/11 70/4/6 72/4/11
f 70/4/6 40/3/11 38/3/6
f 1/3/4 78/4/13 80/4/4
f 78/4/13 1/3/4 2/3/13
f 64/4/13 11/3/8 61/4/8
f 11/3/8 64/4/13 7/3/13
f 21/3/15 48/4/15 45/4/15
f 48/4/15 21/3/15 23/3/15
f 15/3/16 60/4/16 58/4/16
f 60/4/16 15/3/16 12/3/16
f 71/4/8 40/3/11 72/4/11
f 40/3/11 71/4/8 39/3/8
f 6/3/4 74/4/3 10/3/3
f 74/4/3 6/3/4 73/4/4
f 5/3/17 78/4/17 2/3/17
f 78/4/17 5/3/17 75/4/17
f 8/3/3 64/4/13 76/4/3
f 64/4/13 8/3/3 7/3/13
f 47/4/11 14/3/7 50/4/7
f 14/3/7 47/4/11 16/3/11
f 15/3/3 57/4/5 31/3/5
f 57/4/5 15/3/3 58/4/3
f 28/3/13 48/4/4 23/3/4
f 48/4/4 28/3/13 53/4/13
f 26/3/18 54/4/18 51/4/18
f 54/4/18 26/3/18 29/3/18
f 54/4/7 30/3/11 56/4/11
f 30/3/11 54/4/7 29/3/7
f 25/3/13 52/4/4 55/4/13
f 52/4/4 25/3/13 27/3/4

