# Created by Kenney (www.kenney.nl)

mtllib cog-b.mtl

g cog-b

v 0.5 0.07499999 0.004718756 1 1 1
v 0.461981 0.07499999 0.09254266 1 1 1
v 0.461981 0.07499999 -0.08310515 1 1 1
v 0.4151315 0.07499999 0.09254266 1 1 1
v 0.4151315 0.07499999 -0.08310515 1 1 1
v 0.3542611 0.07499999 0.2394968 1 1 1
v 0.3542611 0.07499999 -0.2300593 1 1 1
v 0.345498 0.07499999 0.3549355 1 1 1
v 0.3807153 0.07499999 0.2659511 1 1 1
v 0.3521713 0.07499999 -0.3521713 1 1 1
v 0.3873887 0.07499999 -0.2631869 1 1 1
v 0.2631869 0.07499999 -0.3873887 1 1 1
v 0.2565136 0.07499999 0.3901528 1 1 1
v 0.2300593 0.07499999 -0.3542611 1 1 1
v 0.2300593 0.07499999 0.3636986 1 1 1
v 0.2233953 0.07499999 0.004718756 1 1 1
v 0.08310515 0.07499999 -0.4151315 1 1 1
v 0.08310515 0.07499999 0.424569 1 1 1
v 0.1565822 0.07499999 0.1660198 1 1 1
v 0.1565822 0.07499999 -0.1565822 1 1 1
v -0.004718756 0.07499999 0.2328328 1 1 1
v 0.08310515 0.07499999 0.461981 1 1 1
v -0.004718756 0.07499999 0.5 1 1 1
v -0.004718756 0.07499999 -0.2233953 1 1 1
v -0.1660198 0.07499999 0.1660198 1 1 1
v -0.09254266 0.07499999 0.424569 1 1 1
v -0.09254266 0.07499999 0.461981 1 1 1
v -0.2394968 0.07499999 0.3636986 1 1 1
v -0.2328328 0.07499999 0.004718756 1 1 1
v -0.2394968 0.07499999 -0.3542611 1 1 1
v -0.2659511 0.07499999 0.3901529 1 1 1
v -0.1660198 0.07499999 -0.1565822 1 1 1
v -0.2726244 0.07499999 -0.3873887 1 1 1
v -0.09254266 0.07499999 -0.4151315 1 1 1
v -0.09254266 0.07499999 -0.461981 1 1 1
v -0.004718756 0.07499999 -0.5 1 1 1
v 0.08310515 0.07499999 -0.461981 1 1 1
v -0.3549355 0.07499999 0.3549355 1 1 1
v -0.3616088 0.07499999 -0.3521713 1 1 1
v -0.3636986 0.07499999 0.2394968 1 1 1
v -0.3901528 0.07499999 0.2659511 1 1 1
v -0.3636986 0.07499999 -0.2300593 1 1 1
v -0.3968262 0.07499999 -0.2631869 1 1 1
v -0.424569 0.07499999 0.09254266 1 1 1
v -0.424569 0.07499999 -0.08310515 1 1 1
v -0.461981 0.07499999 0.09254266 1 1 1
v -0.461981 0.07499999 -0.08310515 1 1 1
v -0.5 0.07499999 0.004718756 1 1 1
v 0.08310515 -0.15 0.461981 1 1 1
v 0.08310515 -0.15 0.424569 1 1 1
v -0.004718756 -0.15 0.5 1 1 1
v -0.004718756 -0.15 0.2328328 1 1 1
v -0.09254266 -0.15 0.461981 1 1 1
v -0.09254266 -0.15 0.424569 1 1 1
v 0.1565822 -0.15 0.1660198 1 1 1
v -0.1660198 -0.15 0.1660198 1 1 1
v 0.2233953 -0.15 0.004718756 1 1 1
v -0.2394968 -0.15 0.3636986 1 1 1
v -0.2328328 -0.15 0.004718756 1 1 1
v 0.2300593 -0.15 0.3636986 1 1 1
v -0.2394968 -0.15 -0.3542611 1 1 1
v -0.2659511 -0.15 0.3901529 1 1 1
v -0.1660198 -0.15 -0.1565822 1 1 1
v -0.2726244 -0.15 -0.3873887 1 1 1
v -0.3549355 -0.15 0.3549355 1 1 1
v -0.09254266 -0.15 -0.4151315 1 1 1
v -0.3616088 -0.15 -0.3521713 1 1 1
v -0.004718756 -0.15 -0.5 1 1 1
v -0.09254266 -0.15 -0.461981 1 1 1
v -0.004718756 -0.15 -0.2233953 1 1 1
v 0.08310515 -0.15 -0.461981 1 1 1
v 0.08310515 -0.15 -0.4151315 1 1 1
v 0.1565822 -0.15 -0.1565822 1 1 1
v 0.2300593 -0.15 -0.3542611 1 1 1
v 0.2565136 -0.15 0.3901528 1 1 1
v 0.2631869 -0.15 -0.3873887 1 1 1
v 0.345498 -0.15 0.3549355 1 1 1
v 0.3521713 -0.15 -0.3521713 1 1 1
v 0.3542611 -0.15 -0.2300593 1 1 1
v 0.3873887 -0.15 -0.2631869 1 1 1
v 0.3542611 -0.15 0.2394968 1 1 1
v 0.3807153 -0.15 0.2659511 1 1 1
v 0.4151315 -0.15 -0.08310515 1 1 1
v 0.4151315 -0.15 0.09254266 1 1 1
v 0.461981 -0.15 -0.08310515 1 1 1
v 0.461981 -0.15 0.09254266 1 1 1
v 0.5 -0.15 0.004718756 1 1 1
v -0.3901528 -0.15 0.2659511 1 1 1
v -0.3636986 -0.15 0.2394968 1 1 1
v -0.3636986 -0.15 -0.2300593 1 1 1
v -0.3968262 -0.15 -0.2631869 1 1 1
v -0.424569 -0.15 0.09254266 1 1 1
v -0.424569 -0.15 -0.08310515 1 1 1
v -0.461981 -0.15 0.09254266 1 1 1
v -0.461981 -0.15 -0.08310515 1 1 1
v -0.5 -0.15 0.004718756 1 1 1

vn 0 1 0
vn 0 -1 0
vn 0.7071068 0 -0.7071068
vn 0.9792089 0 0.202854
vn -0.202854 0 -0.9792089
vn -0.7071068 0 -0.7071068
vn 0.7071068 0 0.7071068
vn 0.9238795 0 -0.3826834
vn 0 0 -1
vn 0.5489659 0 -0.8358448
vn -0.8358448 0 -0.5489659
vn 1 0 0
vn 0.5489659 0 0.8358448
vn 0.202854 0 -0.9792089
vn -0.3826834 0 -0.9238795
vn 0.8358448 0 -0.5489659
vn 0.3826834 0 -0.9238795
vn -1 0 0
vn 0.202854 0 0.9792089
vn 0 0 1
vn -0.5489659 0 0.8358448
vn 0.9238795 0 0.3826834
vn -0.202854 0 0.9792089
vn 0.3826834 0 0.9238795
vn -0.9792089 0 0.202854
vn -0.9792089 0 -0.202854
vn -0.7071068 0 0.7071068
vn -0.8358448 0 0.5489659
vn -0.9238795 0 -0.3826834
vn 0.8358448 0 0.5489659
vn -0.5489659 0 -0.8358448
vn -0.3826834 0 0.9238795
vn 0.9792089 0 -0.202854
vn -0.9238795 0 0.3826834

vt 0.34375 0.175
vt 0.34375 0.075
vt 0.09375 0.175
vt 0.09375 0.075

usemtl colormap

f 3/1/1 2/1/1 1/1/1
f 2/1/1 3/1/1 4/1/1
f 4/1/1 3/1/1 5/1/1
f 4/1/1 5/1/1 6/1/1
f 6/1/1 5/1/1 7/1/1
f 8/1/1 6/1/1 7/1/1
f 6/1/1 8/1/1 9/1/1
f 8/1/1 7/1/1 10/1/1
f 10/1/1 7/1/1 11/1/1
f 8/1/1 10/1/1 12/1/1
f 8/1/1 12/1/1 13/1/1
f 13/1/1 12/1/1 14/1/1
f 13/1/1 14/1/1 15/1/1
f 15/1/1 14/1/1 16/1/1
f 17/1/1 16/1/1 14/1/1
f 15/1/1 16/1/1 18/1/1
f 18/1/1 16/1/1 19/1/1
f 16/1/1 17/1/1 20/1/1
f 18/1/1 19/1/1 21/1/1
f 18/1/1 21/1/1 22/1/1
f 22/1/1 21/1/1 23/1/1
f 20/1/1 17/1/1 24/1/1
f 23/1/1 21/1/1 25/1/1
f 23/1/1 25/1/1 26/1/1
f 27/1/1 23/1/1 26/1/1
f 26/1/1 25/1/1 28/1/1
f 28/1/1 25/1/1 29/1/1
f 29/1/1 30/1/1 28/1/1
f 28/1/1 30/1/1 31/1/1
f 32/1/1 30/1/1 29/1/1
f 31/1/1 30/1/1 33/1/1
f 32/1/1 34/1/1 30/1/1
f 24/1/1 34/1/1 32/1/1
f 24/1/1 35/1/1 34/1/1
f 24/1/1 36/1/1 35/1/1
f 24/1/1 17/1/1 36/1/1
f 36/1/1 17/1/1 37/1/1
f 31/1/1 33/1/1 38/1/1
f 38/1/1 33/1/1 39/1/1
f 38/1/1 39/1/1 40/1/1
f 38/1/1 40/1/1 41/1/1
f 39/1/1 42/1/1 40/1/1
f 42/1/1 39/1/1 43/1/1
f 42/1/1 44/1/1 40/1/1
f 44/1/1 42/1/1 45/1/1
f 44/1/1 45/1/1 46/1/1
f 46/1/1 45/1/1 47/1/1
f 46/1/1 47/1/1 48/1/1
f 51/2/2 50/2/2 49/2/2
f 52/2/2 50/2/2 51/2/2
f 52/2/2 51/2/2 53/2/2
f 52/2/2 53/2/2 54/2/2
f 55/2/2 50/2/2 52/2/2
f 52/2/2 54/2/2 56/2/2
f 57/2/2 50/2/2 55/2/2
f 56/2/2 54/2/2 58/2/2
f 56/2/2 58/2/2 59/2/2
f 57/2/2 60/2/2 50/2/2
f 61/2/2 59/2/2 58/2/2
f 61/2/2 58/2/2 62/2/2
f 61/2/2 63/2/2 59/2/2
f 61/2/2 62/2/2 64/2/2
f 64/2/2 62/2/2 65/2/2
f 66/2/2 63/2/2 61/2/2
f 64/2/2 65/2/2 67/2/2
f 68/2/2 63/2/2 66/2/2
f 69/2/2 68/2/2 66/2/2
f 68/2/2 70/2/2 63/2/2
f 71/2/2 70/2/2 68/2/2
f 72/2/2 70/2/2 71/2/2
f 72/2/2 73/2/2 70/2/2
f 72/2/2 57/2/2 73/2/2
f 57/2/2 72/2/2 74/2/2
f 74/2/2 60/2/2 57/2/2
f 74/2/2 75/2/2 60/2/2
f 76/2/2 75/2/2 74/2/2
f 76/2/2 77/2/2 75/2/2
f 78/2/2 77/2/2 76/2/2
f 79/2/2 77/2/2 78/2/2
f 78/2/2 80/2/2 79/2/2
f 81/2/2 77/2/2 79/2/2
f 77/2/2 81/2/2 82/2/2
f 83/2/2 81/2/2 79/2/2
f 83/2/2 84/2/2 81/2/2
f 85/2/2 84/2/2 83/2/2
f 85/2/2 86/2/2 84/2/2
f 86/2/2 85/2/2 87/2/2
f 89/2/2 65/2/2 88/2/2
f 67/2/2 65/2/2 89/2/2
f 90/2/2 67/2/2 89/2/2
f 67/2/2 90/2/2 91/2/2
f 92/2/2 90/2/2 89/2/2
f 90/2/2 92/2/2 93/2/2
f 93/2/2 92/2/2 94/2/2
f 93/2/2 94/2/2 95/2/2
f 95/2/2 94/2/2 96/2/2
f 11/3/4 78/4/3 10/3/3
f 78/4/3 11/3/4 80/4/4
f 74/4/6 12/3/5 76/4/5
f 12/3/5 74/4/6 14/3/6
f 7/3/7 80/4/4 11/3/4
f 80/4/4 7/3/7 79/4/7
f 5/3/8 79/4/8 7/3/8
f 79/4/8 5/3/8 83/4/8
f 5/3/9 85/4/10 83/4/9
f 85/4/10 5/3/9 3/3/10
f 35/3/11 68/4/9 69/4/11
f 68/4/9 35/3/11 36/3/9
f 1/3/12 85/4/10 3/3/10
f 85/4/10 1/3/12 87/4/12
f 2/3/13 87/4/12 1/3/12
f 87/4/12 2/3/13 86/4/13
f 30/3/3 64/4/14 33/3/14
f 64/4/14 30/3/3 61/4/3
f 30/3/15 66/4/15 61/4/15
f 66/4/15 30/3/15 34/3/15
f 36/3/9 71/4/16 68/4/9
f 71/4/16 36/3/9 37/3/16
f 17/3/12 71/4/16 37/3/16
f 71/4/16 17/3/12 72/4/12
f 17/3/17 74/4/17 72/4/17
f 74/4/17 17/3/17 14/3/17
f 12/3/5 78/4/3 76/4/5
f 78/4/3 12/3/5 10/3/3
f 66/4/18 35/3/11 69/4/11
f 35/3/11 66/4/18 34/3/18
f 31/3/19 58/4/7 28/3/7
f 58/4/7 31/3/19 62/4/19
f 44/3/20 94/4/21 92/4/20
f 94/4/21 44/3/20 46/3/21
f 6/3/22 84/4/22 4/3/22
f 84/4/22 6/3/22 81/4/22
f 8/3/7 75/4/23 77/4/7
f 75/4/23 8/3/7 13/3/23
f 15/3/24 50/4/24 60/4/24
f 50/4/24 15/3/24 18/3/24
f 91/4/25 39/3/6 67/4/6
f 39/3/6 91/4/25 43/3/25
f 2/3/13 84/4/20 86/4/13
f 84/4/20 2/3/13 4/3/20
f 65/4/27 41/3/26 88/4/26
f 41/3/26 65/4/27 38/3/27
f 20/3/27 70/4/20 73/4/27
f 70/4/20 20/3/27 24/3/20
f 53/4/28 26/3/18 54/4/18
f 26/3/18 53/4/28 27/3/28
f 93/4/29 42/3/29 90/4/29
f 42/3/29 93/4/29 45/3/29
f 21/3/9 55/4/6 52/4/9
f 55/4/6 21/3/9 19/3/6
f 22/3/30 50/4/12 18/3/12
f 50/4/12 22/3/30 49/4/30
f 88/4/26 40/3/6 89/4/6
f 40/3/6 88/4/26 41/3/26
f 75/4/23 15/3/27 60/4/27
f 15/3/27 75/4/23 13/3/23
f 55/4/6 16/3/18 57/4/18
f 16/3/18 55/4/6 19/3/6
f 23/3/20 53/4/28 51/4/20
f 53/4/28 23/3/20 27/3/28
f 47/3/31 93/4/9 95/4/31
f 93/4/9 47/3/31 45/3/9
f 26/3/32 58/4/32 54/4/32
f 58/4/32 26/3/32 28/3/32
f 90/4/27 43/3/25 91/4/25
f 43/3/25 90/4/27 42/3/27
f 24/3/20 63/4/7 70/4/20
f 63/4/7 24/3/20 32/3/7
f 29/3/12 63/4/7 32/3/7
f 63/4/7 29/3/12 59/4/12
f 8/3/7 82/4/33 9/3/33
f 82/4/33 8/3/7 77/4/7
f 9/3/33 81/4/3 6/3/3
f 81/4/3 9/3/33 82/4/33
f 22/3/30 51/4/20 49/4/30
f 51/4/20 22/3/30 23/3/20
f 31/3/19 65/4/27 62/4/19
f 65/4/27 31/3/19 38/3/27
f 96/4/18 47/3/31 95/4/31
f 47/3/31 96/4/18 48/3/18
f 89/4/34 44/3/34 92/4/34
f 44/3/34 89/4/34 40/3/34
f 39/3/6 64/4/14 67/4/6
f 64/4/14 39/3/6 33/3/14
f 25/3/3 52/4/9 56/4/3
f 52/4/9 25/3/3 21/3/9
f 94/4/21 48/3/18 96/4/18
f 48/3/18 94/4/21 46/3/21
f 25/3/3 59/4/12 29/3/12
f 59/4/12 25/3/3 56/4/3
f 57/4/18 20/3/27 73/4/27
f 20/3/27 57/4/18 16/3/18

g cog-b




usemtl colormap

f 3/1/1 2/1/1 1/1/1
f 2/1/1 3/1/1 4/1/1
f 4/1/1 3/1/1 5/1/1
f 4/1/1 5/1/1 6/1/1
f 6/1/1 5/1/1 7/1/1
f 8/1/1 6/1/1 7/1/1
f 6/1/1 8/1/1 9/1/1
f 8/1/1 7/1/1 10/1/1
f 10/1/1 7/1/1 11/1/1
f 8/1/1 10/1/1 12/1/1
f 8/1/1 12/1/1 13/1/1
f 13/1/1 12/1/1 14/1/1
f 13/1/1 14/1/1 15/1/1
f 15/1/1 14/1/1 16/1/1
f 17/1/1 16/1/1 14/1/1
f 15/1/1 16/1/1 18/1/1
f 18/1/1 16/1/1 19/1/1
f 16/1/1 17/1/1 20/1/1
f 18/1/1 19/1/1 21/1/1
f 18/1/1 21/1/1 22/1/1
f 22/1/1 21/1/1 23/1/1
f 20/1/1 17/1/1 24/1/1
f 23/1/1 21/1/1 25/1/1
f 23/1/1 25/1/1 26/1/1
f 27/1/1 23/1/1 26/1/1
f 26/1/1 25/1/1 28/1/1
f 28/1/1 25/1/1 29/1/1
f 29/1/1 30/1/1 28/1/1
f 28/1/1 30/1/1 31/1/1
f 32/1/1 30/1/1 29/1/1
f 31/1/1 30/1/1 33/1/1
f 32/1/1 34/1/1 30/1/1
f 24/1/1 34/1/1 32/1/1
f 24/1/1 35/1/1 34/1/1
f 24/1/1 36/1/1 35/1/1
f 24/1/1 17/1/1 36/1/1
f 36/1/1 17/1/1 37/1/1
f 31/1/1 33/1/1 38/1/1
f 38/1/1 33/1/1 39/1/1
f 38/1/1 39/1/1 40/1/1
f 38/1/1 40/1/1 41/1/1
f 39/1/1 42/1/1 40/1/1
f 42/1/1 39/1/1 43/1/1
f 42/1/1 44/1/1 40/1/1
f 44/1/1 42/1/1 45/1/1
f 44/1/1 45/1/1 46/1/1
f 46/1/1 45/1/1 47/1/1
f 46/1/1 47/1/1 48/1/1
f 51/2/2 50/2/2 49/2/2
f 52/2/2 50/2/2 51/2/2
f 52/2/2 51/2/2 53/2/2
f 52/2/2 53/2/2 54/2/2
f 55/2/2 50/2/2 52/2/2
f 52/2/2 54/2/2 56/2/2
f 57/2/2 50/2/2 55/2/2
f 56/2/2 54/2/2 58/2/2
f 56/2/2 58/2/2 59/2/2
f 57/2/2 60/2/2 50/2/2
f 61/2/2 59/2/2 58/2/2
f 61/2/2 58/2/2 62/2/2
f 61/2/2 63/2/2 59/2/2
f 61/2/2 62/2/2 64/2/2
f 64/2/2 62/2/2 65/2/2
f 66/2/2 63/2/2 61/2/2
f 64/2/2 65/2/2 67/2/2
f 68/2/2 63/2/2 66/2/2
f 69/2/2 68/2/2 66/2/2
f 68/2/2 70/2/2 63/2/2
f 71/2/2 70/2/2 68/2/2
f 72/2/2 70/2/2 71/2/2
f 72/2/2 73/2/2 70/2/2
f 72/2/2 57/2/2 73/2/2
f 57/2/2 72/2/2 74/2/2
f 74/2/2 60/2/2 57/2/2
f 74/2/2 75/2/2 60/2/2
f 76/2/2 75/2/2 74/2/2
f 76/2/2 77/2/2 75/2/2
f 78/2/2 77/2/2 76/2/2
f 79/2/2 77/2/2 78/2/2
f 78/2/2 80/2/2 79/2/2
f 81/2/2 77/2/2 79/2/2
f 77/2/2 81/2/2 82/2/2
f 83/2/2 81/2/2 79/2/2
f 83/2/2 84/2/2 81/2/2
f 85/2/2 84/2/2 83/2/2
f 85/2/2 86/2/2 84/2/2
f 86/2/2 85/2/2 87/2/2
f 89/2/2 65/2/2 88/2/2
f 67/2/2 65/2/2 89/2/2
f 90/2/2 67/2/2 89/2/2
f 67/2/2 90/2/2 91/2/2
f 92/2/2 90/2/2 89/2/2
f 90/2/2 92/2/2 93/2/2
f 93/2/2 92/2/2 94/2/2
f 93/2/2 94/2/2 95/2/2
f 95/2/2 94/2/2 96/2/2
f 11/3/4 78/4/3 10/3/3
f 78/4/3 11/3/4 80/4/4
f 74/4/6 12/3/5 76/4/5
f 12/3/5 74/4/6 14/3/6
f 7/3/7 80/4/4 11/3/4
f 80/4/4 7/3/7 79/4/7
f 5/3/8 79/4/8 7/3/8
f 79/4/8 5/3/8 83/4/8
f 5/3/9 85/4/10 83/4/9
f 85/4/10 5/3/9 3/3/10
f 35/3/11 68/4/9 69/4/11
f 68/4/9 35/3/11 36/3/9
f 1/3/12 85/4/10 3/3/10
f 85/4/10 1/3/12 87/4/12
f 2/3/13 87/4/12 1/3/12
f 87/4/12 2/3/13 86/4/13
f 30/3/3 64/4/14 33/3/14
f 64/4/14 30/3/3 61/4/3
f 30/3/15 66/4/15 61/4/15
f 66/4/15 30/3/15 34/3/15
f 36/3/9 71/4/16 68/4/9
f 71/4/16 36/3/9 37/3/16
f 17/3/12 71/4/16 37/3/16
f 71/4/16 17/3/12 72/4/12
f 17/3/17 74/4/17 72/4/17
f 74/4/17 17/3/17 14/3/17
f 12/3/5 78/4/3 76/4/5
f 78/4/3 12/3/5 10/3/3
f 66/4/18 35/3/11 69/4/11
f 35/3/11 66/4/18 34/3/18
f 31/3/19 58/4/7 28/3/7
f 58/4/7 31/3/19 62/4/19
f 44/3/20 94/4/21 92/4/20
f 94/4/21 44/3/20 46/3/21
f 6/3/22 84/4/22 4/3/22
f 84/4/22 6/3/22 81/4/22
f 8/3/7 75/4/23 77/4/7
f 75/4/23 8/3/7 13/3/23
f 15/3/24 50/4/24 60/4/24
f 50/4/24 15/3/24 18/3/24
f 91/4/25 39/3/6 67/4/6
f 39/3/6 91/4/25 43/3/25
f 2/3/13 84/4/20 86/4/13
f 84/4/20 2/3/13 4/3/20
f 65/4/27 41/3/26 88/4/26
f 41/3/26 65/4/27 38/3/27
f 20/3/27 70/4/20 73/4/27
f 70/4/20 20/3/27 24/3/20
f 53/4/28 26/3/18 54/4/18
f 26/3/18 53/4/28 27/3/28
f 93/4/29 42/3/29 90/4/29
f 42/3/29 93/4/29 45/3/29
f 21/3/9 55/4/6 52/4/9
f 55/4/6 21/3/9 19/3/6
f 22/3/30 50/4/12 18/3/12
f 50/4/12 22/3/30 49/4/30
f 88/4/26 40/3/6 89/4/6
f 40/3/6 88/4/26 41/3/26
f 75/4/23 15/3/27 60/4/27
f 15/3/27 75/4/23 13/3/23
f 55/4/6 16/3/18 57/4/18
f 16/3/18 55/4/6 19/3/6
f 23/3/20 53/4/28 51/4/20
f 53/4/28 23/3/20 27/3/28
f 47/3/31 93/4/9 95/4/31
f 93/4/9 47/3/31 45/3/9
f 26/3/32 58/4/32 54/4/32
f 58/4/32 26/3/32 28/3/32
f 90/4/27 43/3/25 91/4/25
f 43/3/25 90/4/27 42/3/27
f 24/3/20 63/4/7 70/4/20
f 63/4/7 24/3/20 32/3/7
f 29/3/12 63/4/7 32/3/7
f 63/4/7 29/3/12 59/4/12
f 8/3/7 82/4/33 9/3/33
f 82/4/33 8/3/7 77/4/7
f 9/3/33 81/4/3 6/3/3
f 81/4/3 9/3/33 82/4/33
f 22/3/30 51/4/20 49/4/30
f 51/4/20 22/3/30 23/3/20
f 31/3/19 65/4/27 62/4/19
f 65/4/27 31/3/19 38/3/27
f 96/4/18 47/3/31 95/4/31
f 47/3/31 96/4/18 48/3/18
f 89/4/34 44/3/34 92/4/34
f 44/3/34 89/4/34 40/3/34
f 39/3/6 64/4/14 67/4/6
f 64/4/14 39/3/6 33/3/14
f 25/3/3 52/4/9 56/4/3
f 52/4/9 25/3/3 21/3/9
f 94/4/21 48/3/18 96/4/18
f 48/3/18 94/4/21 46/3/21
f 25/3/3 59/4/12 29/3/12
f 59/4/12 25/3/3 56/4/3
f 57/4/18 20/3/27 73/4/27
f 20/3/27 57/4/18 16/3/18

