# Created by Kenney (www.kenney.nl)

mtllib cog-c.mtl

g cog-c

v 0.2016114 -0.15 0.3807565 1 1 1
v 0.1151517 -0.15 0.4165693 1 1 1
v 0.2016114 0.07499999 0.3807565 1 1 1
v 0.1151517 0.07499999 0.4165693 1 1 1
v 0.2606058 -0.15 0.4397509 1 1 1
v 0.2606058 0.07499999 0.4397509 1 1 1
v 0.3712105 0.07499999 0.2111574 1 1 1
v 0.3712105 -0.15 0.2111574 1 1 1
v 0.430205 0.07499999 0.2701518 1 1 1
v 0.430205 -0.15 0.2701518 1 1 1
v 0.5 0.07499999 -0.1151517 1 1 1
v 0.5 -0.15 -0.1151517 1 1 1
v 0.5 0.07499999 0.1246977 1 1 1
v 0.5 -0.15 0.1246977 1 1 1
v -0.1246977 -0.15 0.4165693 1 1 1
v -0.1246977 0.07499999 0.4165693 1 1 1
v -0.1246977 -0.15 0.5 1 1 1
v -0.1246977 0.07499999 0.5 1 1 1
v -0.2111574 -0.15 0.3807565 1 1 1
v -0.2111574 0.07499999 0.3807565 1 1 1
v 0.4070233 -0.15 0.1246977 1 1 1
v 0.4070233 0.07499999 0.1246977 1 1 1
v 0.1151517 0.07499999 0.5 1 1 1
v 0.1151517 -0.15 0.5 1 1 1
v -0.2701518 0.07499999 0.4397509 1 1 1
v -0.2701518 -0.15 0.4397509 1 1 1
v -0.4397509 -0.15 0.2701518 1 1 1
v -0.4397509 0.07499999 0.2701518 1 1 1
v -0.3807565 -0.15 0.2111574 1 1 1
v -0.3807565 0.07499999 0.2111574 1 1 1
v -0.4165693 -0.15 0.1246977 1 1 1
v -0.4165693 0.07499999 0.1246977 1 1 1
v -0.4465009 -0.15 -0.2673558 1 1 1
v -0.4465009 0.07499999 -0.2673558 1 1 1
v -0.3807565 -0.15 -0.2016114 1 1 1
v -0.3807565 0.07499999 -0.2016114 1 1 1
v -0.5 -0.15 0.1246977 1 1 1
v -0.5 0.07499999 0.1246977 1 1 1
v -0.5 -0.15 -0.1151517 1 1 1
v -0.5 0.07499999 -0.1151517 1 1 1
v -0.4165693 -0.15 -0.1151517 1 1 1
v -0.4165693 0.07499999 -0.1151517 1 1 1
v 0.2673558 -0.15 -0.436955 1 1 1
v 0.436955 -0.15 -0.2673558 1 1 1
v 0.2673558 0.07499999 -0.436955 1 1 1
v 0.436955 0.07499999 -0.2673558 1 1 1
v -0.2769018 0.07499999 -0.436955 1 1 1
v -0.2769018 -0.15 -0.436955 1 1 1
v -0.2111574 0.07499999 -0.3712105 1 1 1
v -0.2111574 -0.15 -0.3712105 1 1 1
v -0.00477298 -0.15 -0.1490506 1 1 1
v -0.1135427 -0.15 -0.1039967 1 1 1
v -0.00477298 0.07499999 -0.1490506 1 1 1
v -0.1135427 0.07499999 -0.1039967 1 1 1
v -0.1246977 -0.15 -0.5 1 1 1
v -0.1246977 0.07499999 -0.5 1 1 1
v -0.1246977 -0.15 -0.4070233 1 1 1
v -0.1246977 0.07499999 -0.4070233 1 1 1
v 0.3712105 0.07499999 -0.2016114 1 1 1
v 0.3712105 -0.15 -0.2016114 1 1 1
v 0.1039967 -0.15 -0.1039967 1 1 1
v 0.1039967 0.07499999 -0.1039967 1 1 1
v 0.1490506 -0.15 0.00477298 1 1 1
v 0.1490506 0.07499999 0.00477298 1 1 1
v -0.1135427 -0.15 0.1135427 1 1 1
v -0.00477298 -0.15 0.1585966 1 1 1
v -0.1135427 0.07499999 0.1135427 1 1 1
v -0.00477298 0.07499999 0.1585966 1 1 1
v 0.1151517 0.07499999 -0.5 1 1 1
v 0.1151517 -0.15 -0.5 1 1 1
v 0.1151517 0.07499999 -0.4070233 1 1 1
v 0.1151517 -0.15 -0.4070233 1 1 1
v 0.1039967 -0.15 0.1135427 1 1 1
v 0.1039967 0.07499999 0.1135427 1 1 1
v 0.2016114 -0.15 -0.3712105 1 1 1
v 0.2016114 0.07499999 -0.3712105 1 1 1
v 0.4070233 -0.15 -0.1151517 1 1 1
v 0.4070233 0.07499999 -0.1151517 1 1 1
v -0.1585966 0.07499999 0.00477298 1 1 1
v -0.1585966 -0.15 0.00477298 1 1 1

vn 0.3826834 0 0.9238795
vn -0.7071068 0 0.7071068
vn 0 0 1
vn 0.7071068 0 -0.7071068
vn 1 0 0
vn 0.7071068 0 0.7071068
vn -1 0 0
vn -0.3826834 0 0.9238795
vn 0.9238795 0 0.3826834
vn -0.7071068 0 -0.7071068
vn -0.9238795 0 0.3826834
vn 0 0 -1
vn -0.9238795 0 -0.3826834
vn 0.3826834 0 -0.9238795
vn -0.3826834 0 -0.9238795
vn 0.9238795 0 -0.3826834
vn 0 1 0
vn 0 -1 0

vt 0.09375 0.075
vt 0.09375 0.175
vt 0.34375 0.175
vt 0.34375 0.075

usemtl colormap

f 3/2/1 2/1/1 1/1/1
f 2/1/1 3/2/1 4/2/1
f 5/1/3 3/2/2 1/1/2
f 3/2/2 5/1/3 6/2/3
f 9/2/5 8/1/4 7/2/4
f 8/1/4 9/2/5 10/1/5
f 13/2/6 12/1/4 11/2/4
f 12/1/4 13/2/6 14/1/6
f 17/1/2 16/2/7 15/1/7
f 16/2/7 17/1/2 18/2/2
f 16/2/8 19/1/8 15/1/8
f 19/1/8 16/2/8 20/2/8
f 13/2/6 21/1/3 14/1/6
f 21/1/3 13/2/6 22/2/3
f 23/2/6 2/1/5 4/2/5
f 2/1/5 23/2/6 24/1/6
f 25/2/3 19/1/6 20/2/6
f 19/1/6 25/2/3 26/1/3
f 23/2/6 17/1/2 24/1/6
f 17/1/2 23/2/6 18/2/2
f 25/2/3 27/1/7 26/1/3
f 27/1/7 25/2/3 28/2/7
f 7/2/9 21/1/9 22/2/9
f 21/1/9 7/2/9 8/1/9
f 27/1/7 30/2/10 29/1/10
f 30/2/10 27/1/7 28/2/7
f 9/2/5 5/1/3 10/1/5
f 5/1/3 9/2/5 6/2/3
f 29/1/11 32/2/11 31/1/11
f 32/2/11 29/1/11 30/2/11
f 35/1/2 34/2/7 33/1/7
f 34/2/7 35/1/2 36/2/2
f 32/2/3 37/1/2 31/1/3
f 37/1/2 32/2/3 38/2/2
f 37/1/2 40/2/10 39/1/10
f 40/2/10 37/1/2 38/2/2
f 40/2/10 41/1/12 39/1/10
f 41/1/12 40/2/10 42/2/12
f 41/1/13 36/2/13 35/1/13
f 36/2/13 41/1/13 42/2/13
f 45/2/12 44/1/5 43/1/12
f 44/1/5 45/2/12 46/2/5
f 49/2/4 48/1/12 47/2/12
f 48/1/12 49/2/4 50/1/4
f 53/2/3 52/1/6 51/1/3
f 52/1/6 53/2/3 54/2/6
f 57/1/7 56/2/10 55/1/10
f 56/2/10 57/1/7 58/2/7
f 59/2/6 44/1/5 46/2/5
f 44/1/5 59/2/6 60/1/6
f 63/1/7 62/2/2 61/1/2
f 62/2/2 63/1/7 64/2/7
f 67/2/4 66/1/12 65/1/4
f 66/1/12 67/2/4 68/2/12
f 71/2/5 70/1/4 69/2/4
f 70/1/4 71/2/5 72/1/5
f 68/2/12 73/1/10 66/1/12
f 73/1/10 68/2/12 74/2/10
f 71/2/14 75/1/14 72/1/14
f 75/1/14 71/2/14 76/2/14
f 34/2/7 48/1/12 33/1/7
f 48/1/12 34/2/7 47/2/12
f 49/2/15 57/1/15 50/1/15
f 57/1/15 49/2/15 58/2/15
f 56/2/10 70/1/4 55/1/10
f 70/1/4 56/2/10 69/2/4
f 78/2/12 12/1/4 77/1/12
f 12/1/4 78/2/12 11/2/4
f 79/2/5 52/1/6 54/2/6
f 52/1/6 79/2/5 80/1/5
f 73/1/10 64/2/7 63/1/7
f 64/2/7 73/1/10 74/2/10
f 75/1/10 45/2/12 43/1/12
f 45/2/12 75/1/10 76/2/10
f 62/2/2 51/1/3 61/1/2
f 51/1/3 62/2/2 53/2/3
f 78/2/16 60/1/16 59/2/16
f 60/1/16 78/2/16 77/1/16
f 67/2/4 80/1/5 79/2/5
f 80/1/5 67/2/4 65/1/4
f 11/3/17 22/3/17 13/3/17
f 22/3/17 11/3/17 78/3/17
f 22/3/17 78/3/17 7/3/17
f 7/3/17 78/3/17 59/3/17
f 6/3/17 7/3/17 59/3/17
f 7/3/17 6/3/17 9/3/17
f 6/3/17 59/3/17 45/3/17
f 45/3/17 59/3/17 46/3/17
f 6/3/17 45/3/17 76/3/17
f 6/3/17 76/3/17 3/3/17
f 3/3/17 76/3/17 4/3/17
f 4/3/17 76/3/17 64/3/17
f 71/3/17 64/3/17 76/3/17
f 4/3/17 64/3/17 74/3/17
f 4/3/17 74/3/17 23/3/17
f 23/3/17 74/3/17 18/3/17
f 18/3/17 74/3/17 68/3/17
f 18/3/17 68/3/17 67/3/17
f 18/3/17 67/3/17 16/3/17
f 79/3/17 16/3/17 67/3/17
f 64/3/17 71/3/17 62/3/17
f 16/3/17 79/3/17 20/3/17
f 71/3/17 56/3/17 62/3/17
f 56/3/17 71/3/17 69/3/17
f 62/3/17 56/3/17 53/3/17
f 53/3/17 56/3/17 54/3/17
f 54/3/17 56/3/17 58/3/17
f 54/3/17 58/3/17 79/3/17
f 79/3/17 58/3/17 49/3/17
f 79/3/17 49/3/17 20/3/17
f 20/3/17 49/3/17 25/3/17
f 25/3/17 49/3/17 47/3/17
f 25/3/17 47/3/17 30/3/17
f 25/3/17 30/3/17 28/3/17
f 47/3/17 36/3/17 30/3/17
f 36/3/17 47/3/17 34/3/17
f 36/3/17 32/3/17 30/3/17
f 32/3/17 36/3/17 42/3/17
f 32/3/17 42/3/17 38/3/17
f 38/3/17 42/3/17 40/3/17
f 17/4/18 2/4/18 24/4/18
f 2/4/18 17/4/18 73/4/18
f 73/4/18 17/4/18 66/4/18
f 66/4/18 17/4/18 65/4/18
f 65/4/18 17/4/18 15/4/18
f 65/4/18 15/4/18 80/4/18
f 63/4/18 2/4/18 73/4/18
f 80/4/18 15/4/18 19/4/18
f 75/4/18 2/4/18 63/4/18
f 75/4/18 1/4/18 2/4/18
f 75/4/18 5/4/18 1/4/18
f 63/4/18 72/4/18 75/4/18
f 72/4/18 63/4/18 61/4/18
f 72/4/18 61/4/18 70/4/18
f 70/4/18 61/4/18 55/4/18
f 55/4/18 61/4/18 51/4/18
f 55/4/18 51/4/18 52/4/18
f 55/4/18 52/4/18 57/4/18
f 80/4/18 57/4/18 52/4/18
f 57/4/18 80/4/18 50/4/18
f 50/4/18 80/4/18 19/4/18
f 50/4/18 19/4/18 26/4/18
f 43/4/18 5/4/18 75/4/18
f 50/4/18 26/4/18 48/4/18
f 60/4/18 5/4/18 43/4/18
f 43/4/18 44/4/18 60/4/18
f 8/4/18 5/4/18 60/4/18
f 5/4/18 8/4/18 10/4/18
f 77/4/18 8/4/18 60/4/18
f 77/4/18 21/4/18 8/4/18
f 12/4/18 21/4/18 77/4/18
f 21/4/18 12/4/18 14/4/18
f 48/4/18 26/4/18 29/4/18
f 29/4/18 26/4/18 27/4/18
f 35/4/18 48/4/18 29/4/18
f 48/4/18 35/4/18 33/4/18
f 31/4/18 35/4/18 29/4/18
f 35/4/18 31/4/18 41/4/18
f 41/4/18 31/4/18 37/4/18
f 41/4/18 37/4/18 39/4/18

g cog-c




usemtl colormap

f 3/2/1 2/1/1 1/1/1
f 2/1/1 3/2/1 4/2/1
f 5/1/3 3/2/2 1/1/2
f 3/2/2 5/1/3 6/2/3
f 9/2/5 8/1/4 7/2/4
f 8/1/4 9/2/5 10/1/5
f 13/2/6 12/1/4 11/2/4
f 12/1/4 13/2/6 14/1/6
f 17/1/2 16/2/7 15/1/7
f 16/2/7 17/1/2 18/2/2
f 16/2/8 19/1/8 15/1/8
f 19/1/8 16/2/8 20/2/8
f 13/2/6 21/1/3 14/1/6
f 21/1/3 13/2/6 22/2/3
f 23/2/6 2/1/5 4/2/5
f 2/1/5 23/2/6 24/1/6
f 25/2/3 19/1/6 20/2/6
f 19/1/6 25/2/3 26/1/3
f 23/2/6 17/1/2 24/1/6
f 17/1/2 23/2/6 18/2/2
f 25/2/3 27/1/7 26/1/3
f 27/1/7 25/2/3 28/2/7
f 7/2/9 21/1/9 22/2/9
f 21/1/9 7/2/9 8/1/9
f 27/1/7 30/2/10 29/1/10
f 30/2/10 27/1/7 28/2/7
f 9/2/5 5/1/3 10/1/5
f 5/1/3 9/2/5 6/2/3
f 29/1/11 32/2/11 31/1/11
f 32/2/11 29/1/11 30/2/11
f 35/1/2 34/2/7 33/1/7
f 34/2/7 35/1/2 36/2/2
f 32/2/3 37/1/2 31/1/3
f 37/1/2 32/2/3 38/2/2
f 37/1/2 40/2/10 39/1/10
f 40/2/10 37/1/2 38/2/2
f 40/2/10 41/1/12 39/1/10
f 41/1/12 40/2/10 42/2/12
f 41/1/13 36/2/13 35/1/13
f 36/2/13 41/1/13 42/2/13
f 45/2/12 44/1/5 43/1/12
f 44/1/5 45/2/12 46/2/5
f 49/2/4 48/1/12 47/2/12
f 48/1/12 49/2/4 50/1/4
f 53/2/3 52/1/6 51/1/3
f 52/1/6 53/2/3 54/2/6
f 57/1/7 56/2/10 55/1/10
f 56/2/10 57/1/7 58/2/7
f 59/2/6 44/1/5 46/2/5
f 44/1/5 59/2/6 60/1/6
f 63/1/7 62/2/2 61/1/2
f 62/2/2 63/1/7 64/2/7
f 67/2/4 66/1/12 65/1/4
f 66/1/12 67/2/4 68/2/12
f 71/2/5 70/1/4 69/2/4
f 70/1/4 71/2/5 72/1/5
f 68/2/12 73/1/10 66/1/12
f 73/1/10 68/2/12 74/2/10
f 71/2/14 75/1/14 72/1/14
f 75/1/14 71/2/14 76/2/14
f 34/2/7 48/1/12 33/1/7
f 48/1/12 34/2/7 47/2/12
f 49/2/15 57/1/15 50/1/15
f 57/1/15 49/2/15 58/2/15
f 56/2/10 70/1/4 55/1/10
f 70/1/4 56/2/10 69/2/4
f 78/2/12 12/1/4 77/1/12
f 12/1/4 78/2/12 11/2/4
f 79/2/5 52/1/6 54/2/6
f 52/1/6 79/2/5 80/1/5
f 73/1/10 64/2/7 63/1/7
f 64/2/7 73/1/10 74/2/10
f 75/1/10 45/2/12 43/1/12
f 45/2/12 75/1/10 76/2/10
f 62/2/2 51/1/3 61/1/2
f 51/1/3 62/2/2 53/2/3
f 78/2/16 60/1/16 59/2/16
f 60/1/16 78/2/16 77/1/16
f 67/2/4 80/1/5 79/2/5
f 80/1/5 67/2/4 65/1/4
f 11/3/17 22/3/17 13/3/17
f 22/3/17 11/3/17 78/3/17
f 22/3/17 78/3/17 7/3/17
f 7/3/17 78/3/17 59/3/17
f 6/3/17 7/3/17 59/3/17
f 7/3/17 6/3/17 9/3/17
f 6/3/17 59/3/17 45/3/17
f 45/3/17 59/3/17 46/3/17
f 6/3/17 45/3/17 76/3/17
f 6/3/17 76/3/17 3/3/17
f 3/3/17 76/3/17 4/3/17
f 4/3/17 76/3/17 64/3/17
f 71/3/17 64/3/17 76/3/17
f 4/3/17 64/3/17 74/3/17
f 4/3/17 74/3/17 23/3/17
f 23/3/17 74/3/17 18/3/17
f 18/3/17 74/3/17 68/3/17
f 18/3/17 68/3/17 67/3/17
f 18/3/17 67/3/17 16/3/17
f 79/3/17 16/3/17 67/3/17
f 64/3/17 71/3/17 62/3/17
f 16/3/17 79/3/17 20/3/17
f 71/3/17 56/3/17 62/3/17
f 56/3/17 71/3/17 69/3/17
f 62/3/17 56/3/17 53/3/17
f 53/3/17 56/3/17 54/3/17
f 54/3/17 56/3/17 58/3/17
f 54/3/17 58/3/17 79/3/17
f 79/3/17 58/3/17 49/3/17
f 79/3/17 49/3/17 20/3/17
f 20/3/17 49/3/17 25/3/17
f 25/3/17 49/3/17 47/3/17
f 25/3/17 47/3/17 30/3/17
f 25/3/17 30/3/17 28/3/17
f 47/3/17 36/3/17 30/3/17
f 36/3/17 47/3/17 34/3/17
f 36/3/17 32/3/17 30/3/17
f 32/3/17 36/3/17 42/3/17
f 32/3/17 42/3/17 38/3/17
f 38/3/17 42/3/17 40/3/17
f 17/4/18 2/4/18 24/4/18
f 2/4/18 17/4/18 73/4/18
f 73/4/18 17/4/18 66/4/18
f 66/4/18 17/4/18 65/4/18
f 65/4/18 17/4/18 15/4/18
f 65/4/18 15/4/18 80/4/18
f 63/4/18 2/4/18 73/4/18
f 80/4/18 15/4/18 19/4/18
f 75/4/18 2/4/18 63/4/18
f 75/4/18 1/4/18 2/4/18
f 75/4/18 5/4/18 1/4/18
f 63/4/18 72/4/18 75/4/18
f 72/4/18 63/4/18 61/4/18
f 72/4/18 61/4/18 70/4/18
f 70/4/18 61/4/18 55/4/18
f 55/4/18 61/4/18 51/4/18
f 55/4/18 51/4/18 52/4/18
f 55/4/18 52/4/18 57/4/18
f 80/4/18 57/4/18 52/4/18
f 57/4/18 80/4/18 50/4/18
f 50/4/18 80/4/18 19/4/18
f 50/4/18 19/4/18 26/4/18
f 43/4/18 5/4/18 75/4/18
f 50/4/18 26/4/18 48/4/18
f 60/4/18 5/4/18 43/4/18
f 43/4/18 44/4/18 60/4/18
f 8/4/18 5/4/18 60/4/18
f 5/4/18 8/4/18 10/4/18
f 77/4/18 8/4/18 60/4/18
f 77/4/18 21/4/18 8/4/18
f 12/4/18 21/4/18 77/4/18
f 21/4/18 12/4/18 14/4/18
f 48/4/18 26/4/18 29/4/18
f 29/4/18 26/4/18 27/4/18
f 35/4/18 48/4/18 29/4/18
f 48/4/18 35/4/18 33/4/18
f 31/4/18 35/4/18 29/4/18
f 35/4/18 31/4/18 41/4/18
f 41/4/18 31/4/18 37/4/18
f 41/4/18 37/4/18 39/4/18

