# Created by Kenney (www.kenney.nl)

mtllib cone.mtl

g cone

v -0.050625 0.3064628 1.443823E-15 1 1 1
v -0.03579728 0.3064628 0.03579728 1 1 1
v -0.07593749 0.1844814 3.248601E-15 1 1 1
v -0.05369592 0.1844814 0.05369592 1 1 1
v 0.050625 0.3064628 1.443823E-15 1 1 1
v 0.03579728 0.3064628 0.03579728 1 1 1
v 0.03579728 0.3064628 -0.03579728 1 1 1
v 0 0.3064628 -0.050625 1 1 1
v 0 0.3064628 0.050625 1 1 1
v -0.03579728 0.3064628 -0.03579728 1 1 1
v 0.07593749 0.1844814 3.248601E-15 1 1 1
v 0.05369592 0.1844814 0.05369592 1 1 1
v 0.05369592 0.1844814 -0.05369592 1 1 1
v 4.511947E-16 0.1844814 -0.07593749 1 1 1
v -0.05369592 0.1844814 -0.05369592 1 1 1
v -4.511947E-16 0.1844814 0.07593749 1 1 1
v -0.15 0 -0.1125 1 1 1
v -0.15 0.0625 -0.1125 1 1 1
v -0.15 0 0.1125 1 1 1
v -0.15 0.0625 0.1125 1 1 1
v 0.1125 0 0.15 1 1 1
v -0.1125 0 0.15 1 1 1
v 0.1125 0.0625 0.15 1 1 1
v -0.1125 0.0625 0.15 1 1 1
v -0.1125 0 -0.15 1 1 1
v 0.1125 0 -0.15 1 1 1
v -0.1125 0.0625 -0.15 1 1 1
v 0.1125 0.0625 -0.15 1 1 1
v 0.15 0.0625 -0.1125 1 1 1
v 0.15 0 -0.1125 1 1 1
v 0.15 0.0625 0.1125 1 1 1
v 0.15 0 0.1125 1 1 1
v -0.07159456 0.0625 0.07159456 1 1 1
v 0 0.0625 0.10125 1 1 1
v -0.10125 0.0625 3.248601E-15 1 1 1
v 0.07159456 0.0625 0.07159456 1 1 1
v -0.07159456 0.0625 -0.07159456 1 1 1
v 0 0.0625 -0.10125 1 1 1
v 0.07159456 0.0625 -0.07159456 1 1 1
v 0.10125 0.0625 3.248601E-15 1 1 1

vn -0.9791408 0.2031826 0
vn -0.6923571 0.2031826 0.6923571
vn 0 1 0
vn 0.9791408 0.2031826 0
vn 0.6923571 0.2031826 0.6923571
vn 0.6923571 0.2031826 -0.6923571
vn 0 0.2031826 -0.9791408
vn -0.6923571 0.2031826 -0.6923571
vn 0 0.2031826 0.9791408
vn -0.9238795 0 -0.3826834
vn -0.9238795 0 0.3826834
vn 0.3826834 0 0.9238795
vn -0.3826834 0 0.9238795
vn -0.3826834 0 -0.9238795
vn 0.3826834 0 -0.9238795
vn 0.9238795 0 -0.3826834
vn 0.9238795 0 0.3826834
vn 0 -1 0

vt 0.46875 0.725
vt 0.46875 0.625
vt 0.46875 0.525
vt 0.59375 0.375
vt 0.59375 0.275

usemtl colormap

f 3/2/1 2/1/2 1/1/1
f 2/1/2 3/2/1 4/2/2
f 7/1/3 6/1/3 5/1/3
f 6/1/3 7/1/3 8/1/3
f 6/1/3 8/1/3 9/1/3
f 9/1/3 8/1/3 10/1/3
f 9/1/3 10/1/3 2/1/3
f 2/1/3 10/1/3 1/1/3
f 6/1/5 11/2/4 5/1/4
f 11/2/4 6/1/5 12/2/5
f 7/1/6 11/2/4 13/2/6
f 11/2/4 7/1/6 5/1/4
f 15/2/8 8/1/7 14/2/7
f 8/1/7 15/2/8 10/1/8
f 8/1/7 13/2/6 14/2/7
f 13/2/6 8/1/7 7/1/6
f 3/2/1 10/1/8 15/2/8
f 10/1/8 3/2/1 1/1/1
f 6/1/5 16/2/9 12/2/5
f 16/2/9 6/1/5 9/1/9
f 9/1/9 4/2/2 16/2/9
f 4/2/2 9/1/9 2/1/2
f 19/3/11 18/1/10 17/3/10
f 18/1/10 19/3/11 20/1/11
f 23/1/12 22/3/13 21/3/12
f 22/3/13 23/1/12 24/1/13
f 27/1/14 26/3/15 25/3/14
f 26/3/15 27/1/14 28/1/15
f 31/1/17 30/3/16 29/1/16
f 30/3/16 31/1/17 32/3/17
f 22/3/13 20/1/11 19/3/11
f 20/1/11 22/3/13 24/1/13
f 23/1/12 32/3/17 31/1/17
f 32/3/17 23/1/12 21/3/12
f 17/3/10 27/1/14 25/3/14
f 27/1/14 17/3/10 18/1/10
f 29/1/16 26/3/15 28/1/15
f 26/3/15 29/1/16 30/3/16
f 21/3/18 30/3/18 32/3/18
f 30/3/18 21/3/18 26/3/18
f 26/3/18 21/3/18 22/3/18
f 26/3/18 22/3/18 25/3/18
f 25/3/18 22/3/18 19/3/18
f 25/3/18 19/3/18 17/3/18
f 28/1/3 31/1/3 29/1/3
f 31/1/3 28/1/3 23/1/3
f 23/1/3 28/1/3 27/1/3
f 23/1/3 27/1/3 24/1/3
f 24/1/3 27/1/3 18/1/3
f 24/1/3 18/1/3 20/1/3
f 33/5/2 16/4/9 4/4/2
f 3/4/1 33/5/2 4/4/2
f 16/4/9 33/5/2 34/5/9
f 33/5/2 3/4/1 35/5/1
f 34/5/9 12/4/5 16/4/9
f 12/4/5 34/5/9 36/5/5
f 15/4/8 35/5/1 3/4/1
f 35/5/1 15/4/8 37/5/8
f 15/4/8 38/5/7 37/5/8
f 38/5/7 15/4/8 14/4/7
f 14/4/7 39/5/6 38/5/7
f 39/5/6 14/4/7 13/4/6
f 40/5/4 12/4/5 36/5/5
f 13/4/6 40/5/4 39/5/6
f 12/4/5 40/5/4 11/4/4
f 40/5/4 13/4/6 11/4/4

g cone




usemtl colormap

f 3/2/1 2/1/2 1/1/1
f 2/1/2 3/2/1 4/2/2
f 7/1/3 6/1/3 5/1/3
f 6/1/3 7/1/3 8/1/3
f 6/1/3 8/1/3 9/1/3
f 9/1/3 8/1/3 10/1/3
f 9/1/3 10/1/3 2/1/3
f 2/1/3 10/1/3 1/1/3
f 6/1/5 11/2/4 5/1/4
f 11/2/4 6/1/5 12/2/5
f 7/1/6 11/2/4 13/2/6
f 11/2/4 7/1/6 5/1/4
f 15/2/8 8/1/7 14/2/7
f 8/1/7 15/2/8 10/1/8
f 8/1/7 13/2/6 14/2/7
f 13/2/6 8/1/7 7/1/6
f 3/2/1 10/1/8 15/2/8
f 10/1/8 3/2/1 1/1/1
f 6/1/5 16/2/9 12/2/5
f 16/2/9 6/1/5 9/1/9
f 9/1/9 4/2/2 16/2/9
f 4/2/2 9/1/9 2/1/2
f 19/3/11 18/1/10 17/3/10
f 18/1/10 19/3/11 20/1/11
f 23/1/12 22/3/13 21/3/12
f 22/3/13 23/1/12 24/1/13
f 27/1/14 26/3/15 25/3/14
f 26/3/15 27/1/14 28/1/15
f 31/1/17 30/3/16 29/1/16
f 30/3/16 31/1/17 32/3/17
f 22/3/13 20/1/11 19/3/11
f 20/1/11 22/3/13 24/1/13
f 23/1/12 32/3/17 31/1/17
f 32/3/17 23/1/12 21/3/12
f 17/3/10 27/1/14 25/3/14
f 27/1/14 17/3/10 18/1/10
f 29/1/16 26/3/15 28/1/15
f 26/3/15 29/1/16 30/3/16
f 21/3/18 30/3/18 32/3/18
f 30/3/18 21/3/18 26/3/18
f 26/3/18 21/3/18 22/3/18
f 26/3/18 22/3/18 25/3/18
f 25/3/18 22/3/18 19/3/18
f 25/3/18 19/3/18 17/3/18
f 28/1/3 31/1/3 29/1/3
f 31/1/3 28/1/3 23/1/3
f 23/1/3 28/1/3 27/1/3
f 23/1/3 27/1/3 24/1/3
f 24/1/3 27/1/3 18/1/3
f 24/1/3 18/1/3 20/1/3
f 33/5/2 16/4/9 4/4/2
f 3/4/1 33/5/2 4/4/2
f 16/4/9 33/5/2 34/5/9
f 33/5/2 3/4/1 35/5/1
f 34/5/9 12/4/5 16/4/9
f 12/4/5 34/5/9 36/5/5
f 15/4/8 35/5/1 3/4/1
f 35/5/1 15/4/8 37/5/8
f 15/4/8 38/5/7 37/5/8
f 38/5/7 15/4/8 14/4/7
f 14/4/7 39/5/6 38/5/7
f 39/5/6 14/4/7 13/4/6
f 40/5/4 12/4/5 36/5/5
f 13/4/6 40/5/4 39/5/6
f 12/4/5 40/5/4 11/4/4
f 40/5/4 13/4/6 11/4/4

