# Created by Kenney (www.kenney.nl)

mtllib conveyor-long-sides-part-end.mtl

g conveyor-long-sides-part-end

v 0.15 0.2801088 -0.3 1 1 1
v 0.15 0.2801088 -0.4 1 1 1
v 0.1301088 0.3 -0.3 1 1 1
v 0.1301088 0.3 -0.4 1 1 1
v 0.15 0.1198912 -0.4 1 1 1
v 0.15 0.1198912 -0.3 1 1 1
v 0.15 0.2 -0.3 1 1 1
v 0.05 0.3 -0.3 1 1 1
v -0.25 0.3 -0.4 1 1 1
v -0.25 0.3 -0.3 1 1 1
v 0.1301088 0.1 -0.4 1 1 1
v 0.1301088 0.1 -0.3 1 1 1
v 0.1301088 0.3 0.3 1 1 1
v 0.05 0.3 0.3 1 1 1
v 0.1301088 0.3 0.4 1 1 1
v -0.25 0.3 0.4 1 1 1
v -0.25 0.3 0.3 1 1 1
v 0.15 0.1198912 0.3 1 1 1
v 0.15 0.1198912 0.4 1 1 1
v 0.1301088 0.1 0.3 1 1 1
v 0.1301088 0.1 0.4 1 1 1
v 0.15 0.2801088 0.3 1 1 1
v 0.15 0.2801088 0.4 1 1 1
v 0.15 0.2 0.3 1 1 1
v 0.1207107 0.2707107 0.3 1 1 1
v -0.02071068 0.2707107 0.3 1 1 1
v -0.05 0.2 0.3 1 1 1
v -0.02071068 0.1292893 0.3 1 1 1
v -0.25 0.1 0.3 1 1 1
v 0.05 0.1 0.3 1 1 1
v -0.25 0.1 -0.4 1 1 1
v 0.05 0.1 -0.3 1 1 1
v -0.25 0.1 -0.3 1 1 1
v -0.25 0.1 0.4 1 1 1
v -0.02071068 0.1292893 -0.3 1 1 1
v -0.05 0.2 -0.3 1 1 1
v -0.02071068 0.2707107 -0.3 1 1 1
v 0.1207107 0.1292893 0.3 1 1 1
v 0.1207107 0.2707107 -0.3 1 1 1
v 0.1207107 0.1292893 -0.3 1 1 1
v -0.25 0 -0.4 1 1 1
v 0.15 0 -0.4 1 1 1
v 0.2207107 0.02928932 -0.4 1 1 1
v 0.25 0.1 -0.4 1 1 1
v 0.25 0.3 -0.4 1 1 1
v -0.25 0.4 -0.4 1 1 1
v 0.2207107 0.3707107 -0.4 1 1 1
v 0.15 0.4 -0.4 1 1 1
v 0.15 0 0.4 1 1 1
v -0.25 0 0.4 1 1 1
v 0.2207107 0.02928932 0.4 1 1 1
v 0.25 0.1 0.4 1 1 1
v 0.25 0.3 0.4 1 1 1
v -0.25 0.4 0.4 1 1 1
v 0.2207107 0.3707107 0.4 1 1 1
v 0.15 0.4 0.4 1 1 1
v 0.1065685 0.2565686 -0.35 1 1 1
v 0.13 0.2 -0.35 1 1 1
v 0.1207107 0.2707107 -0.3 1 1 1
v 0.15 0.2 -0.3 1 1 1
v -0.03 0.2 -0.35 1 1 1
v -0.006568544 0.2565686 -0.35 1 1 1
v -0.05 0.2 -0.3 1 1 1
v -0.02071068 0.2707107 -0.3 1 1 1
v -0.006568544 0.1434315 -0.35 1 1 1
v -0.02071068 0.1292893 -0.3 1 1 1
v 0.1207107 0.1292893 -0.3 1 1 1
v 0.1065685 0.1434315 -0.35 1 1 1
v 0.05 0.1 -0.3 1 1 1
v 0.05 0.12 -0.35 1 1 1
v 0.05 0.28 -0.35 1 1 1
v 0.05 0.3 -0.3 1 1 1
v -0.006568544 0.2565686 0.35 1 1 1
v -0.03 0.2 0.35 1 1 1
v -0.02071068 0.2707107 0.3 1 1 1
v -0.05 0.2 0.3 1 1 1
v 0.13 0.2 0.35 1 1 1
v 0.1065685 0.2565686 0.35 1 1 1
v 0.15 0.2 0.3 1 1 1
v 0.1207107 0.2707107 0.3 1 1 1
v 0.1065685 0.1434315 0.35 1 1 1
v 0.1207107 0.1292893 0.3 1 1 1
v -0.02071068 0.1292893 0.3 1 1 1
v -0.006568544 0.1434315 0.35 1 1 1
v 0.05 0.1 0.3 1 1 1
v 0.05 0.12 0.35 1 1 1
v 0.05 0.28 0.35 1 1 1
v 0.05 0.3 0.3 1 1 1
v 0.25 0.2 -0.45 1 1 1
v 0.25 0.2 -0.4 1 1 1
v -0.25 0.2 -0.45 1 1 1
v -0.25 0.2 -0.4 1 1 1
v 0.25 5.86553E-16 0.5 1 1 1
v 0.25 5.86553E-16 0.4 1 1 1
v -0.25 5.86553E-16 0.5 1 1 1
v -0.25 5.86553E-16 0.4 1 1 1
v -0.25 0.2 0.4 1 1 1
v 0.25 0.2 0.4 1 1 1
v 0.25 0.15 0.5 1 1 1
v -0.25 0.15 0.5 1 1 1
v 0.25 0 -0.4 1 1 1
v 0.25 0 -0.5 1 1 1
v -0.25 0 -0.5 1 1 1
v 0.25 0.15 -0.5 1 1 1
v -0.25 0.15 -0.5 1 1 1
v 0.25 0.2 0.45 1 1 1
v -0.25 0.2 0.45 1 1 1

vn -0.9238795 -0.3826834 0
vn -0.3826834 -0.9238795 0
vn -0.9238795 0.3826834 0
vn -1 0 0
vn 0 -1 0
vn -0.3826834 0.9238795 0
vn 0 0 1
vn 0 1 0
vn 0 0 -1
vn 0.1950903 0.9807853 0
vn 0.7071068 -0.7071068 0
vn 0.1950903 -0.9807853 0
vn 0.7071068 0.7071068 0
vn 0.9807853 -0.1950903 0
vn 0.9807853 0.1950903 0
vn 0.4541464 0.4541464 -0.7664868
vn 0.6422601 0 -0.7664868
vn 0.6565321 0.6565321 -0.3713907
vn 0.9284768 0 -0.3713907
vn -0.6422601 0 -0.7664868
vn -0.4541464 0.4541464 -0.7664868
vn -0.9284768 0 -0.3713907
vn -0.6565321 0.6565321 -0.3713907
vn -0.4541464 -0.4541464 -0.7664868
vn -0.6565321 -0.6565321 -0.3713907
vn 0.6565321 -0.6565321 -0.3713907
vn 0.4541464 -0.4541464 -0.7664868
vn 0 -0.9284768 -0.3713907
vn 0 -0.6422601 -0.7664868
vn 0 0.6422601 -0.7664868
vn 0 0.9284768 -0.3713907
vn -0.4541465 0.4541464 0.7664868
vn -0.6422601 0 0.7664868
vn -0.6565321 0.6565321 0.3713906
vn -0.9284768 0 0.3713907
vn 0.6422601 0 0.7664868
vn 0.4541464 0.4541464 0.7664868
vn 0.9284768 0 0.3713907
vn 0.6565321 0.6565321 0.3713907
vn 0.4541464 -0.4541464 0.7664868
vn 0.6565321 -0.6565321 0.3713907
vn -0.6565321 -0.6565321 0.3713906
vn -0.4541465 -0.4541464 0.7664868
vn -1.106804E-08 -0.9284768 0.3713907
vn -2.284254E-08 -0.6422601 0.7664868
vn -2.284254E-08 0.6422601 0.7664868
vn -1.106804E-08 0.9284768 0.3713907
vn 0 0.9238796 -0.3826835
vn 0 0.3826835 0.9238796
vn 1 0 0
vn 0 0.9238796 0.3826835
vn 0 0.3826835 -0.9238796

vt 0.46875 0.1650544
vt 0.46875 0.175
vt 0.46875 0.08494562
vt 0.46875 0.125
vt 0.46875 0.075
vt 0.09375 0.125
vt 0.09375 0.1603553
vt 0.09375 0.175
vt 0.09375 0.08964465
vt 0.09375 0.075
vt 0.09375 0.08494562
vt 0.09375 0.1650544
vt 0.09375 0.025
vt 0.09375 0.03964466
vt 0.09375 0.225
vt 0.09375 0.2103553
vt 0.34375 0.1815685
vt 0.34375 0.125
vt 0.34375 0.1957107
vt 0.34375 0.06843146
vt 0.34375 0.05428932
vt 0.34375 0.025
vt 0.34375 0.045
vt 0.34375 0.205
vt 0.34375 0.225
vt 0.34375 0.175

usemtl colormap

f 3/2/2 2/1/1 1/1/1
f 2/1/1 3/2/2 4/2/2
f 6/3/3 2/1/1 5/3/3
f 2/1/1 6/3/3 1/1/1
f 1/1/1 6/3/3 7/4/4
f 8/2/5 4/2/2 3/2/2
f 4/2/2 8/2/5 9/2/5
f 9/2/5 8/2/5 10/2/5
f 11/5/6 6/3/3 5/3/3
f 6/3/3 11/5/6 12/5/6
f 15/2/2 14/2/5 13/2/2
f 14/2/5 15/2/2 16/2/5
f 14/2/5 16/2/5 17/2/5
f 20/5/6 19/3/3 18/3/3
f 19/3/3 20/5/6 21/5/6
f 23/1/1 13/2/2 22/1/1
f 13/2/2 23/1/1 15/2/2
f 18/3/3 22/1/1 24/4/4
f 22/1/1 18/3/3 19/3/3
f 22/1/1 19/3/3 23/1/1
f 22/1/7 25/7/7 24/6/7
f 25/7/7 22/1/7 14/8/7
f 14/8/7 22/1/7 13/2/7
f 17/2/7 26/7/7 14/8/7
f 17/2/7 27/6/7 26/7/7
f 17/2/7 28/9/7 27/6/7
f 29/5/7 28/9/7 17/2/7
f 28/9/7 29/5/7 30/10/7
f 31/5/8 12/5/6 11/5/6
f 12/5/6 31/5/8 32/5/8
f 32/5/8 31/5/8 33/5/8
f 30/5/8 21/5/6 20/5/6
f 21/5/6 30/5/8 34/5/8
f 34/5/8 30/5/8 29/5/8
f 33/5/9 35/9/9 32/10/9
f 35/9/9 33/5/9 10/2/9
f 35/9/9 10/2/9 36/6/9
f 36/6/9 10/2/9 37/7/9
f 37/7/9 10/2/9 8/8/9
f 26/7/7 25/7/7 14/8/7
f 27/6/7 25/7/7 26/7/7
f 27/6/7 24/6/7 25/7/7
f 28/9/7 24/6/7 27/6/7
f 28/9/7 38/9/7 24/6/7
f 38/9/7 18/11/7 24/6/7
f 38/9/7 28/9/7 30/10/7
f 30/10/7 18/11/7 38/9/7
f 18/11/7 30/10/7 20/10/7
f 1/12/9 8/8/9 3/8/9
f 1/12/9 39/7/9 8/8/9
f 39/7/9 37/7/9 8/8/9
f 39/7/9 1/12/9 7/6/9
f 39/7/9 36/6/9 37/7/9
f 7/6/9 36/6/9 39/7/9
f 40/9/9 36/6/9 7/6/9
f 40/9/9 35/9/9 36/6/9
f 6/11/9 40/9/9 7/6/9
f 35/9/9 40/9/9 32/10/9
f 6/11/9 32/10/9 40/9/9
f 32/10/9 6/11/9 12/10/9
f 31/10/9 42/13/9 41/13/9
f 42/13/9 31/10/9 43/14/9
f 43/14/9 31/10/9 44/10/9
f 44/10/9 31/10/9 11/10/9
f 5/11/9 44/10/9 11/10/9
f 44/10/9 5/11/9 45/8/9
f 45/8/9 5/11/9 2/12/9
f 45/8/9 2/12/9 4/8/9
f 45/8/9 4/8/9 9/8/9
f 45/8/9 9/8/9 46/15/9
f 45/8/9 46/15/9 47/16/9
f 47/16/9 46/15/9 48/15/9
f 51/14/7 50/13/7 49/13/7
f 50/13/7 51/14/7 34/10/7
f 34/10/7 51/14/7 52/10/7
f 34/10/7 52/10/7 21/10/7
f 21/10/7 52/10/7 19/11/7
f 19/11/7 52/10/7 53/8/7
f 19/11/7 53/8/7 23/12/7
f 23/12/7 53/8/7 15/8/7
f 54/15/7 15/8/7 53/8/7
f 15/8/7 54/15/7 16/8/7
f 54/15/7 53/8/7 55/16/7
f 54/15/7 55/16/7 56/15/7
f 46/15/8 56/15/10 48/15/10
f 56/15/10 46/15/8 54/15/8
f 49/13/12 43/14/11 51/14/11
f 43/14/11 49/13/12 42/13/12
f 48/15/10 55/16/13 47/16/13
f 55/16/13 48/15/10 56/15/10
f 50/13/5 42/13/12 49/13/12
f 42/13/12 50/13/5 41/13/5
f 52/10/14 43/14/11 44/10/14
f 43/14/11 52/10/14 51/14/11
f 53/8/15 44/10/14 45/8/15
f 44/10/14 53/8/15 52/10/14
f 50/13/4 31/10/4 41/13/4
f 31/10/4 50/13/4 33/10/4
f 33/10/4 50/13/4 10/8/4
f 10/8/4 50/13/4 29/10/4
f 29/10/4 50/13/4 34/10/4
f 17/8/4 10/8/4 29/10/4
f 54/15/4 10/8/4 17/8/4
f 54/15/4 17/8/4 16/8/4
f 46/15/4 10/8/4 54/15/4
f 10/8/4 46/15/4 9/8/4
f 55/16/13 45/8/15 47/16/13
f 45/8/15 55/16/13 53/8/15
f 59/19/18 58/18/17 57/17/16
f 58/18/17 59/19/18 60/18/19
f 63/18/22 62/17/21 61/18/20
f 62/17/21 63/18/22 64/19/23
f 66/21/25 61/18/20 65/20/24
f 61/18/20 66/21/25 63/18/22
f 69/22/28 68/20/27 67/21/26
f 68/20/27 69/22/28 70/23/29
f 62/17/21 72/25/31 71/24/30
f 72/25/31 62/17/21 64/19/23
f 60/18/19 68/20/27 58/18/17
f 68/20/27 60/18/19 67/21/26
f 65/20/24 68/20/27 70/23/29
f 68/20/27 65/20/24 61/18/20
f 68/20/27 61/18/20 58/18/17
f 58/18/17 61/18/20 57/17/16
f 57/17/16 61/18/20 62/17/21
f 57/17/16 62/17/21 71/24/30
f 57/17/16 72/25/31 59/19/18
f 72/25/31 57/17/16 71/24/30
f 69/22/28 65/20/24 70/23/29
f 65/20/24 69/22/28 66/21/25
f 75/19/34 74/18/33 73/17/32
f 74/18/33 75/19/34 76/18/35
f 79/18/38 78/17/37 77/18/36
f 78/17/37 79/18/38 80/19/39
f 82/21/41 77/18/36 81/20/40
f 77/18/36 82/21/41 79/18/38
f 85/22/44 84/20/43 83/21/42
f 84/20/43 85/22/44 86/23/45
f 78/17/37 88/25/47 87/24/46
f 88/25/47 78/17/37 80/19/39
f 76/18/35 84/20/43 74/18/33
f 84/20/43 76/18/35 83/21/42
f 81/20/40 84/20/43 86/23/45
f 84/20/43 81/20/40 77/18/36
f 84/20/43 77/18/36 74/18/33
f 74/18/33 77/18/36 73/17/32
f 73/17/32 77/18/36 78/17/37
f 73/17/32 78/17/37 87/24/46
f 73/17/32 88/25/47 75/19/34
f 88/25/47 73/17/32 87/24/46
f 85/22/44 81/20/40 86/23/45
f 81/20/40 85/22/44 82/21/41
f 91/25/48 90/25/8 89/25/48
f 90/25/8 91/25/48 92/25/8
f 95/22/5 94/22/5 93/22/5
f 94/22/5 95/22/5 96/22/5
f 97/25/9 94/22/9 96/22/9
f 94/22/9 97/25/9 98/25/9
f 99/26/49 95/22/7 93/22/7
f 95/22/7 99/26/49 100/26/49
f 41/22/5 102/22/5 101/22/5
f 102/22/5 41/22/5 103/22/5
f 89/25/50 102/22/50 104/26/50
f 102/22/50 89/25/50 101/22/50
f 101/22/50 89/25/50 90/25/50
f 41/22/4 105/26/4 103/22/4
f 105/26/4 41/22/4 91/25/4
f 91/25/4 41/22/4 92/25/4
f 98/25/8 107/25/51 106/25/51
f 107/25/51 98/25/8 97/25/8
f 105/26/52 89/25/48 104/26/52
f 89/25/48 105/26/52 91/25/48
f 107/25/51 99/26/49 106/25/51
f 99/26/49 107/25/51 100/26/49
f 105/26/52 102/22/9 103/22/9
f 102/22/9 105/26/52 104/26/52
f 95/22/4 97/25/4 96/22/4
f 97/25/4 95/22/4 107/25/4
f 107/25/4 95/22/4 100/26/4
f 106/25/50 94/22/50 98/25/50
f 94/22/50 106/25/50 93/22/50
f 93/22/50 106/25/50 99/26/50
f 90/25/7 41/22/7 101/22/7
f 41/22/7 90/25/7 92/25/7

g conveyor-long-sides-part-end




usemtl colormap

f 3/2/2 2/1/1 1/1/1
f 2/1/1 3/2/2 4/2/2
f 6/3/3 2/1/1 5/3/3
f 2/1/1 6/3/3 1/1/1
f 1/1/1 6/3/3 7/4/4
f 8/2/5 4/2/2 3/2/2
f 4/2/2 8/2/5 9/2/5
f 9/2/5 8/2/5 10/2/5
f 11/5/6 6/3/3 5/3/3
f 6/3/3 11/5/6 12/5/6
f 15/2/2 14/2/5 13/2/2
f 14/2/5 15/2/2 16/2/5
f 14/2/5 16/2/5 17/2/5
f 20/5/6 19/3/3 18/3/3
f 19/3/3 20/5/6 21/5/6
f 23/1/1 13/2/2 22/1/1
f 13/2/2 23/1/1 15/2/2
f 18/3/3 22/1/1 24/4/4
f 22/1/1 18/3/3 19/3/3
f 22/1/1 19/3/3 23/1/1
f 22/1/7 25/7/7 24/6/7
f 25/7/7 22/1/7 14/8/7
f 14/8/7 22/1/7 13/2/7
f 17/2/7 26/7/7 14/8/7
f 17/2/7 27/6/7 26/7/7
f 17/2/7 28/9/7 27/6/7
f 29/5/7 28/9/7 17/2/7
f 28/9/7 29/5/7 30/10/7
f 31/5/8 12/5/6 11/5/6
f 12/5/6 31/5/8 32/5/8
f 32/5/8 31/5/8 33/5/8
f 30/5/8 21/5/6 20/5/6
f 21/5/6 30/5/8 34/5/8
f 34/5/8 30/5/8 29/5/8
f 33/5/9 35/9/9 32/10/9
f 35/9/9 33/5/9 10/2/9
f 35/9/9 10/2/9 36/6/9
f 36/6/9 10/2/9 37/7/9
f 37/7/9 10/2/9 8/8/9
f 26/7/7 25/7/7 14/8/7
f 27/6/7 25/7/7 26/7/7
f 27/6/7 24/6/7 25/7/7
f 28/9/7 24/6/7 27/6/7
f 28/9/7 38/9/7 24/6/7
f 38/9/7 18/11/7 24/6/7
f 38/9/7 28/9/7 30/10/7
f 30/10/7 18/11/7 38/9/7
f 18/11/7 30/10/7 20/10/7
f 1/12/9 8/8/9 3/8/9
f 1/12/9 39/7/9 8/8/9
f 39/7/9 37/7/9 8/8/9
f 39/7/9 1/12/9 7/6/9
f 39/7/9 36/6/9 37/7/9
f 7/6/9 36/6/9 39/7/9
f 40/9/9 36/6/9 7/6/9
f 40/9/9 35/9/9 36/6/9
f 6/11/9 40/9/9 7/6/9
f 35/9/9 40/9/9 32/10/9
f 6/11/9 32/10/9 40/9/9
f 32/10/9 6/11/9 12/10/9
f 31/10/9 42/13/9 41/13/9
f 42/13/9 31/10/9 43/14/9
f 43/14/9 31/10/9 44/10/9
f 44/10/9 31/10/9 11/10/9
f 5/11/9 44/10/9 11/10/9
f 44/10/9 5/11/9 45/8/9
f 45/8/9 5/11/9 2/12/9
f 45/8/9 2/12/9 4/8/9
f 45/8/9 4/8/9 9/8/9
f 45/8/9 9/8/9 46/15/9
f 45/8/9 46/15/9 47/16/9
f 47/16/9 46/15/9 48/15/9
f 51/14/7 50/13/7 49/13/7
f 50/13/7 51/14/7 34/10/7
f 34/10/7 51/14/7 52/10/7
f 34/10/7 52/10/7 21/10/7
f 21/10/7 52/10/7 19/11/7
f 19/11/7 52/10/7 53/8/7
f 19/11/7 53/8/7 23/12/7
f 23/12/7 53/8/7 15/8/7
f 54/15/7 15/8/7 53/8/7
f 15/8/7 54/15/7 16/8/7
f 54/15/7 53/8/7 55/16/7
f 54/15/7 55/16/7 56/15/7
f 46/15/8 56/15/10 48/15/10
f 56/15/10 46/15/8 54/15/8
f 49/13/12 43/14/11 51/14/11
f 43/14/11 49/13/12 42/13/12
f 48/15/10 55/16/13 47/16/13
f 55/16/13 48/15/10 56/15/10
f 50/13/5 42/13/12 49/13/12
f 42/13/12 50/13/5 41/13/5
f 52/10/14 43/14/11 44/10/14
f 43/14/11 52/10/14 51/14/11
f 53/8/15 44/10/14 45/8/15
f 44/10/14 53/8/15 52/10/14
f 50/13/4 31/10/4 41/13/4
f 31/10/4 50/13/4 33/10/4
f 33/10/4 50/13/4 10/8/4
f 10/8/4 50/13/4 29/10/4
f 29/10/4 50/13/4 34/10/4
f 17/8/4 10/8/4 29/10/4
f 54/15/4 10/8/4 17/8/4
f 54/15/4 17/8/4 16/8/4
f 46/15/4 10/8/4 54/15/4
f 10/8/4 46/15/4 9/8/4
f 55/16/13 45/8/15 47/16/13
f 45/8/15 55/16/13 53/8/15
f 59/19/18 58/18/17 57/17/16
f 58/18/17 59/19/18 60/18/19
f 63/18/22 62/17/21 61/18/20
f 62/17/21 63/18/22 64/19/23
f 66/21/25 61/18/20 65/20/24
f 61/18/20 66/21/25 63/18/22
f 69/22/28 68/20/27 67/21/26
f 68/20/27 69/22/28 70/23/29
f 62/17/21 72/25/31 71/24/30
f 72/25/31 62/17/21 64/19/23
f 60/18/19 68/20/27 58/18/17
f 68/20/27 60/18/19 67/21/26
f 65/20/24 68/20/27 70/23/29
f 68/20/27 65/20/24 61/18/20
f 68/20/27 61/18/20 58/18/17
f 58/18/17 61/18/20 57/17/16
f 57/17/16 61/18/20 62/17/21
f 57/17/16 62/17/21 71/24/30
f 57/17/16 72/25/31 59/19/18
f 72/25/31 57/17/16 71/24/30
f 69/22/28 65/20/24 70/23/29
f 65/20/24 69/22/28 66/21/25
f 75/19/34 74/18/33 73/17/32
f 74/18/33 75/19/34 76/18/35
f 79/18/38 78/17/37 77/18/36
f 78/17/37 79/18/38 80/19/39
f 82/21/41 77/18/36 81/20/40
f 77/18/36 82/21/41 79/18/38
f 85/22/44 84/20/43 83/21/42
f 84/20/43 85/22/44 86/23/45
f 78/17/37 88/25/47 87/24/46
f 88/25/47 78/17/37 80/19/39
f 76/18/35 84/20/43 74/18/33
f 84/20/43 76/18/35 83/21/42
f 81/20/40 84/20/43 86/23/45
f 84/20/43 81/20/40 77/18/36
f 84/20/43 77/18/36 74/18/33
f 74/18/33 77/18/36 73/17/32
f 73/17/32 77/18/36 78/17/37
f 73/17/32 78/17/37 87/24/46
f 73/17/32 88/25/47 75/19/34
f 88/25/47 73/17/32 87/24/46
f 85/22/44 81/20/40 86/23/45
f 81/20/40 85/22/44 82/21/41
f 91/25/48 90/25/8 89/25/48
f 90/25/8 91/25/48 92/25/8
f 95/22/5 94/22/5 93/22/5
f 94/22/5 95/22/5 96/22/5
f 97/25/9 94/22/9 96/22/9
f 94/22/9 97/25/9 98/25/9
f 99/26/49 95/22/7 93/22/7
f 95/22/7 99/26/49 100/26/49
f 41/22/5 102/22/5 101/22/5
f 102/22/5 41/22/5 103/22/5
f 89/25/50 102/22/50 104/26/50
f 102/22/50 89/25/50 101/22/50
f 101/22/50 89/25/50 90/25/50
f 41/22/4 105/26/4 103/22/4
f 105/26/4 41/22/4 91/25/4
f 91/25/4 41/22/4 92/25/4
f 98/25/8 107/25/51 106/25/51
f 107/25/51 98/25/8 97/25/8
f 105/26/52 89/25/48 104/26/52
f 89/25/48 105/26/52 91/25/48
f 107/25/51 99/26/49 106/25/51
f 99/26/49 107/25/51 100/26/49
f 105/26/52 102/22/9 103/22/9
f 102/22/9 105/26/52 104/26/52
f 95/22/4 97/25/4 96/22/4
f 97/25/4 95/22/4 107/25/4
f 107/25/4 95/22/4 100/26/4
f 106/25/50 94/22/50 98/25/50
f 94/22/50 106/25/50 93/22/50
f 93/22/50 106/25/50 99/26/50
f 90/25/7 41/22/7 101/22/7
f 41/22/7 90/25/7 92/25/7

