# Created by Kenney (www.kenney.nl)

mtllib conveyor-stripe-part-end.mtl

g conveyor-stripe-part-end

v 0.15 0 -0.3 1 1 1
v 0.15 0 -0.5 1 1 1
v -0.25 0 -0.3 1 1 1
v -0.25 0 -0.5 1 1 1
v 0.2207107 0.3707107 0.3 1 1 1
v 0.25 0.3 0.3 1 1 1
v 0.2207107 0.3707107 0.5 1 1 1
v 0.25 0.3 0.5 1 1 1
v 0.2207107 0.3707107 -0.5 1 1 1
v 0.25 0.3 -0.5 1 1 1
v 0.2207107 0.3707107 -0.3 1 1 1
v 0.25 0.3 -0.3 1 1 1
v 0.15 0.4 -0.5 1 1 1
v 0.15 0.4 -0.3 1 1 1
v 0.15 0 0.5 1 1 1
v 0.15 0 0.3 1 1 1
v -0.25 0 0.5 1 1 1
v -0.25 0 0.3 1 1 1
v 0.15 0.4 0.3 1 1 1
v 0.15 0.4 0.5 1 1 1
v -0.25 0.4 0.3 1 1 1
v -0.25 0.4 0.5 1 1 1
v 0.25 0.1 0.3 1 1 1
v 0.2207107 0.02928932 0.3 1 1 1
v 0.25 0.1 0.5 1 1 1
v 0.2207107 0.02928932 0.5 1 1 1
v 0.25 0.1 -0.5 1 1 1
v 0.2207107 0.02928932 -0.5 1 1 1
v 0.25 0.1 -0.3 1 1 1
v 0.2207107 0.02928932 -0.3 1 1 1
v -0.25 0.4 -0.5 1 1 1
v -0.25 0.4 -0.3 1 1 1
v -0.25 0.1 -0.5 1 1 1
v 0.1301088 0.1 -0.5 1 1 1
v 0.15 0.1198912 -0.5 1 1 1
v 0.15 0.2801088 -0.5 1 1 1
v 0.1301088 0.3 -0.5 1 1 1
v -0.25 0.3 -0.5 1 1 1
v -0.25 0.1 0.5 1 1 1
v 0.1301088 0.1 0.5 1 1 1
v 0.15 0.1198912 0.5 1 1 1
v 0.15 0.2801088 0.5 1 1 1
v 0.1301088 0.3 0.5 1 1 1
v -0.25 0.3 0.5 1 1 1
v -0.25 0.1 -0.4 1 1 1
v -0.25 0.3 -0.4 1 1 1
v -0.25 0.1 0.4 1 1 1
v -0.25 0.3 0.4 1 1 1
v 0.15 0.2801088 -0.4 1 1 1
v 0.1301088 0.3 -0.4 1 1 1
v 0.15 0.1198912 -0.4 1 1 1
v 0.15 0.2 -0.4 1 1 1
v 0.05 0.3 -0.4 1 1 1
v 0.1301088 0.1 -0.4 1 1 1
v 0.1301088 0.3 0.4 1 1 1
v 0.05 0.3 0.4 1 1 1
v 0.15 0.1198912 0.4 1 1 1
v 0.1301088 0.1 0.4 1 1 1
v 0.15 0.2801088 0.4 1 1 1
v 0.15 0.2 0.4 1 1 1
v 0.05 0.1 0.4 1 1 1
v 0.1207107 0.1292893 0.4 1 1 1
v -0.02071068 0.1292893 0.4 1 1 1
v -0.05 0.2 0.4 1 1 1
v 0.1207107 0.2707107 0.4 1 1 1
v -0.02071068 0.2707107 0.4 1 1 1
v 0.05 0.1 -0.4 1 1 1
v 0.1207107 0.2707107 -0.4 1 1 1
v -0.02071068 0.2707107 -0.4 1 1 1
v -0.05 0.2 -0.4 1 1 1
v 0.1207107 0.1292893 -0.4 1 1 1
v -0.02071068 0.1292893 -0.4 1 1 1
v 0.2207107 0.02928932 0.3 1 1 1
v 0.2207107 0.02928932 -0.3 1 1 1
v 0.15 0 0.3 1 1 1
v 0.2207107 0.3707107 -0.3 1 1 1
v 0.2207107 0.3707107 0.3 1 1 1
v 0.25 0.3 0.3 1 1 1
v 0.15 0.4 0.3 1 1 1
v -0.25 0.4 0.3 1 1 1
v -0.25 0 0.3 1 1 1
v 0.25 0.1 0.3 1 1 1
v 0.1065685 0.2565686 -0.45 1 1 1
v 0.13 0.2 -0.45 1 1 1
v 0.1207107 0.2707107 -0.4 1 1 1
v -0.03 0.2 -0.45 1 1 1
v -0.006568544 0.2565686 -0.45 1 1 1
v -0.02071068 0.2707107 -0.4 1 1 1
v -0.006568544 0.1434315 -0.45 1 1 1
v -0.02071068 0.1292893 -0.4 1 1 1
v 0.1207107 0.1292893 -0.4 1 1 1
v 0.1065685 0.1434315 -0.45 1 1 1
v 0.05 0.12 -0.45 1 1 1
v 0.05 0.28 -0.45 1 1 1
v -0.006568544 0.2565686 0.45 1 1 1
v -0.03 0.2 0.45 1 1 1
v -0.02071068 0.2707107 0.4 1 1 1
v 0.13 0.2 0.45 1 1 1
v 0.1065685 0.2565686 0.45 1 1 1
v 0.1207107 0.2707107 0.4 1 1 1
v 0.1065685 0.1434315 0.45 1 1 1
v 0.1207107 0.1292893 0.4 1 1 1
v -0.02071068 0.1292893 0.4 1 1 1
v -0.006568544 0.1434315 0.45 1 1 1
v 0.05 0.12 0.45 1 1 1
v 0.05 0.28 0.45 1 1 1

vn 0.1950903 -0.9807853 0
vn 0 -1 0
vn 0.7071068 0.7071068 0
vn 0.9807853 0.1950903 0
vn 0.1950903 0.9807853 0
vn 0 1 0
vn 0.9807853 -0.1950903 0
vn 0.7071068 -0.7071068 0
vn 0 0 -1
vn 0 0 1
vn -1 0 0
vn -0.9238795 -0.3826834 0
vn -0.3826834 -0.9238795 0
vn -0.9238795 0.3826834 0
vn -0.3826834 0.9238795 0
vn 0.4541464 0.4541464 -0.7664868
vn 0.6422601 0 -0.7664868
vn 0.6565321 0.6565321 -0.3713907
vn 0.9284768 0 -0.3713907
vn -0.6422601 0 -0.7664868
vn -0.4541464 0.4541464 -0.7664868
vn -0.9284768 0 -0.3713907
vn -0.6565321 0.6565321 -0.3713907
vn -0.4541464 -0.4541464 -0.7664868
vn -0.6565321 -0.6565321 -0.3713907
vn 0.6565321 -0.6565321 -0.3713907
vn 0.4541464 -0.4541464 -0.7664868
vn 0 -0.9284768 -0.3713907
vn 0 -0.6422601 -0.7664868
vn 0 0.6422601 -0.7664868
vn 0 0.9284768 -0.3713907
vn -0.4541465 0.4541464 0.7664868
vn -0.6422601 0 0.7664868
vn -0.6565321 0.6565321 0.3713906
vn -0.9284768 0 0.3713907
vn 0.6422601 0 0.7664868
vn 0.4541464 0.4541464 0.7664868
vn 0.9284768 0 0.3713907
vn 0.6565321 0.6565321 0.3713907
vn 0.4541464 -0.4541464 0.7664868
vn 0.6565321 -0.6565321 0.3713907
vn -0.6565321 -0.6565321 0.3713906
vn -0.4541465 -0.4541464 0.7664868
vn -1.106804E-08 -0.9284768 0.3713907
vn -2.284254E-08 -0.6422601 0.7664868
vn -2.284254E-08 0.6422601 0.7664868
vn -1.106804E-08 0.9284768 0.3713907

vt 0.46875 0.025
vt 0.46875 0.2103553
vt 0.46875 0.175
vt 0.46875 0.225
vt 0.46875 0.075
vt 0.46875 0.03964466
vt 0.46875 0.08494562
vt 0.46875 0.1650544
vt 0.09375 0.1650544
vt 0.09375 0.175
vt 0.09375 0.08494562
vt 0.09375 0.125
vt 0.09375 0.075
vt 0.09375 0.08964465
vt 0.09375 0.1603553
vt 0.09375 0.03964466
vt 0.09375 0.025
vt 0.09375 0.2103553
vt 0.09375 0.225
vt 0.34375 0.1815685
vt 0.34375 0.125
vt 0.34375 0.1957107
vt 0.34375 0.06843146
vt 0.34375 0.05428932
vt 0.34375 0.025
vt 0.34375 0.045
vt 0.34375 0.205
vt 0.34375 0.225

usemtl colormap

f 3/1/2 2/1/1 1/1/1
f 2/1/1 3/1/2 4/1/2
f 7/2/3 6/3/4 5/2/3
f 6/3/4 7/2/3 8/3/4
f 11/2/3 10/3/4 9/2/3
f 10/3/4 11/2/3 12/3/4
f 13/4/5 11/2/3 9/2/3
f 11/2/3 13/4/5 14/4/5
f 17/1/2 16/1/1 15/1/1
f 16/1/1 17/1/2 18/1/2
f 21/4/6 20/4/5 19/4/5
f 20/4/5 21/4/6 22/4/6
f 25/5/7 24/6/8 23/5/7
f 24/6/8 25/5/7 26/6/8
f 8/3/4 23/5/7 6/3/4
f 23/5/7 8/3/4 25/5/7
f 29/5/7 28/6/8 27/5/7
f 28/6/8 29/5/7 30/6/8
f 1/1/1 28/6/8 30/6/8
f 28/6/8 1/1/1 2/1/1
f 19/4/5 7/2/3 5/2/3
f 7/2/3 19/4/5 20/4/5
f 12/3/4 27/5/7 10/3/4
f 27/5/7 12/3/4 29/5/7
f 15/1/1 24/6/8 26/6/8
f 24/6/8 15/1/1 16/1/1
f 31/4/6 14/4/5 13/4/5
f 14/4/5 31/4/6 32/4/6
f 33/5/9 2/1/9 4/1/9
f 2/1/9 33/5/9 28/6/9
f 28/6/9 33/5/9 27/5/9
f 27/5/9 33/5/9 34/5/9
f 35/7/9 27/5/9 34/5/9
f 27/5/9 35/7/9 10/3/9
f 10/3/9 35/7/9 36/8/9
f 10/3/9 36/8/9 37/3/9
f 10/3/9 37/3/9 38/3/9
f 10/3/9 38/3/9 31/4/9
f 10/3/9 31/4/9 9/2/9
f 9/2/9 31/4/9 13/4/9
f 26/6/10 17/1/10 15/1/10
f 17/1/10 26/6/10 39/5/10
f 39/5/10 26/6/10 25/5/10
f 39/5/10 25/5/10 40/5/10
f 40/5/10 25/5/10 41/7/10
f 41/7/10 25/5/10 8/3/10
f 41/7/10 8/3/10 42/8/10
f 42/8/10 8/3/10 43/3/10
f 22/4/10 43/3/10 8/3/10
f 43/3/10 22/4/10 44/3/10
f 22/4/10 8/3/10 7/2/10
f 22/4/10 7/2/10 20/4/10
f 3/1/11 33/5/11 4/1/11
f 33/5/11 3/1/11 45/5/11
f 45/5/11 3/1/11 46/3/11
f 32/4/11 46/3/11 3/1/11
f 31/4/11 46/3/11 32/4/11
f 46/3/11 31/4/11 38/3/11
f 47/5/11 17/1/11 39/5/11
f 47/5/11 18/1/11 17/1/11
f 18/1/11 47/5/11 21/4/11
f 48/3/11 21/4/11 47/5/11
f 21/4/11 48/3/11 22/4/11
f 22/4/11 48/3/11 44/3/11
f 50/10/13 36/9/12 49/9/12
f 36/9/12 50/10/13 37/10/13
f 51/11/14 36/9/12 35/11/14
f 36/9/12 51/11/14 49/9/12
f 49/9/12 51/11/14 52/12/11
f 53/10/2 37/10/13 50/10/13
f 37/10/13 53/10/2 38/10/2
f 38/10/2 53/10/2 46/10/2
f 34/13/15 51/11/14 35/11/14
f 51/11/14 34/13/15 54/13/15
f 43/10/13 56/10/2 55/10/13
f 56/10/2 43/10/13 44/10/2
f 56/10/2 44/10/2 48/10/2
f 58/13/15 41/11/14 57/11/14
f 41/11/14 58/13/15 40/13/15
f 42/9/12 55/10/13 59/9/12
f 55/10/13 42/9/12 43/10/13
f 57/11/14 59/9/12 60/12/11
f 59/9/12 57/11/14 41/11/14
f 59/9/12 41/11/14 42/9/12
f 57/11/10 61/13/10 58/13/10
f 61/13/10 57/11/10 62/14/10
f 62/14/10 57/11/10 60/12/10
f 62/14/10 63/14/10 61/13/10
f 63/14/10 62/14/10 60/12/10
f 63/14/10 47/13/10 61/13/10
f 47/13/10 63/14/10 48/10/10
f 63/14/10 60/12/10 64/12/10
f 48/10/10 63/14/10 64/12/10
f 64/12/10 60/12/10 65/15/10
f 59/9/10 65/15/10 60/12/10
f 48/10/10 64/12/10 66/15/10
f 64/12/10 65/15/10 66/15/10
f 48/10/10 66/15/10 56/10/10
f 66/15/10 65/15/10 56/10/10
f 65/15/10 59/9/10 56/10/10
f 56/10/10 59/9/10 55/10/10
f 33/13/6 54/13/15 34/13/15
f 54/13/15 33/13/6 67/13/6
f 67/13/6 33/13/6 45/13/6
f 61/13/6 40/13/15 58/13/15
f 40/13/15 61/13/6 39/13/6
f 39/13/6 61/13/6 47/13/6
f 49/9/9 53/10/9 50/10/9
f 49/9/9 68/15/9 53/10/9
f 68/15/9 49/9/9 52/12/9
f 68/15/9 69/15/9 53/10/9
f 69/15/9 46/10/9 53/10/9
f 68/15/9 70/12/9 69/15/9
f 52/12/9 70/12/9 68/15/9
f 70/12/9 46/10/9 69/15/9
f 71/14/9 70/12/9 52/12/9
f 51/11/9 71/14/9 52/12/9
f 72/14/9 46/10/9 70/12/9
f 71/14/9 72/14/9 70/12/9
f 72/14/9 45/13/9 46/10/9
f 45/13/9 72/14/9 67/13/9
f 72/14/9 71/14/9 67/13/9
f 51/11/9 67/13/9 71/14/9
f 67/13/9 51/11/9 54/13/9
f 75/17/1 74/16/8 73/16/8
f 74/16/8 75/17/1 1/17/1
f 77/18/3 12/10/4 76/18/3
f 12/10/4 77/18/3 78/10/4
f 14/19/5 77/18/3 76/18/3
f 77/18/3 14/19/5 79/19/5
f 32/19/6 79/19/5 14/19/5
f 79/19/5 32/19/6 80/19/6
f 81/17/2 1/17/1 75/17/1
f 1/17/1 81/17/2 3/17/2
f 78/10/4 29/13/7 12/10/4
f 29/13/7 78/10/4 82/13/7
f 82/13/7 74/16/8 29/13/7
f 74/16/8 82/13/7 73/16/8
f 81/17/11 32/19/11 3/17/11
f 32/19/11 81/17/11 80/19/11
f 85/22/18 84/21/17 83/20/16
f 84/21/17 85/22/18 52/21/19
f 70/21/22 87/20/21 86/21/20
f 87/20/21 70/21/22 88/22/23
f 90/24/25 86/21/20 89/23/24
f 86/21/20 90/24/25 70/21/22
f 67/25/28 92/23/27 91/24/26
f 92/23/27 67/25/28 93/26/29
f 87/20/21 53/28/31 94/27/30
f 53/28/31 87/20/21 88/22/23
f 52/21/19 92/23/27 84/21/17
f 92/23/27 52/21/19 91/24/26
f 89/23/24 92/23/27 93/26/29
f 92/23/27 89/23/24 86/21/20
f 92/23/27 86/21/20 84/21/17
f 84/21/17 86/21/20 83/20/16
f 83/20/16 86/21/20 87/20/21
f 83/20/16 87/20/21 94/27/30
f 83/20/16 53/28/31 85/22/18
f 53/28/31 83/20/16 94/27/30
f 67/25/28 89/23/24 93/26/29
f 89/23/24 67/25/28 90/24/25
f 97/22/34 96/21/33 95/20/32
f 96/21/33 97/22/34 64/21/35
f 60/21/38 99/20/37 98/21/36
f 99/20/37 60/21/38 100/22/39
f 102/24/41 98/21/36 101/23/40
f 98/21/36 102/24/41 60/21/38
f 61/25/44 104/23/43 103/24/42
f 104/23/43 61/25/44 105/26/45
f 99/20/37 56/28/47 106/27/46
f 56/28/47 99/20/37 100/22/39
f 64/21/35 104/23/43 96/21/33
f 104/23/43 64/21/35 103/24/42
f 101/23/40 104/23/43 105/26/45
f 104/23/43 101/23/40 98/21/36
f 104/23/43 98/21/36 96/21/33
f 96/21/33 98/21/36 95/20/32
f 95/20/32 98/21/36 99/20/37
f 95/20/32 99/20/37 106/27/46
f 95/20/32 56/28/47 97/22/34
f 56/28/47 95/20/32 106/27/46
f 61/25/44 101/23/40 105/26/45
f 101/23/40 61/25/44 102/24/41

g conveyor-stripe-part-end




usemtl colormap

f 3/1/2 2/1/1 1/1/1
f 2/1/1 3/1/2 4/1/2
f 7/2/3 6/3/4 5/2/3
f 6/3/4 7/2/3 8/3/4
f 11/2/3 10/3/4 9/2/3
f 10/3/4 11/2/3 12/3/4
f 13/4/5 11/2/3 9/2/3
f 11/2/3 13/4/5 14/4/5
f 17/1/2 16/1/1 15/1/1
f 16/1/1 17/1/2 18/1/2
f 21/4/6 20/4/5 19/4/5
f 20/4/5 21/4/6 22/4/6
f 25/5/7 24/6/8 23/5/7
f 24/6/8 25/5/7 26/6/8
f 8/3/4 23/5/7 6/3/4
f 23/5/7 8/3/4 25/5/7
f 29/5/7 28/6/8 27/5/7
f 28/6/8 29/5/7 30/6/8
f 1/1/1 28/6/8 30/6/8
f 28/6/8 1/1/1 2/1/1
f 19/4/5 7/2/3 5/2/3
f 7/2/3 19/4/5 20/4/5
f 12/3/4 27/5/7 10/3/4
f 27/5/7 12/3/4 29/5/7
f 15/1/1 24/6/8 26/6/8
f 24/6/8 15/1/1 16/1/1
f 31/4/6 14/4/5 13/4/5
f 14/4/5 31/4/6 32/4/6
f 33/5/9 2/1/9 4/1/9
f 2/1/9 33/5/9 28/6/9
f 28/6/9 33/5/9 27/5/9
f 27/5/9 33/5/9 34/5/9
f 35/7/9 27/5/9 34/5/9
f 27/5/9 35/7/9 10/3/9
f 10/3/9 35/7/9 36/8/9
f 10/3/9 36/8/9 37/3/9
f 10/3/9 37/3/9 38/3/9
f 10/3/9 38/3/9 31/4/9
f 10/3/9 31/4/9 9/2/9
f 9/2/9 31/4/9 13/4/9
f 26/6/10 17/1/10 15/1/10
f 17/1/10 26/6/10 39/5/10
f 39/5/10 26/6/10 25/5/10
f 39/5/10 25/5/10 40/5/10
f 40/5/10 25/5/10 41/7/10
f 41/7/10 25/5/10 8/3/10
f 41/7/10 8/3/10 42/8/10
f 42/8/10 8/3/10 43/3/10
f 22/4/10 43/3/10 8/3/10
f 43/3/10 22/4/10 44/3/10
f 22/4/10 8/3/10 7/2/10
f 22/4/10 7/2/10 20/4/10
f 3/1/11 33/5/11 4/1/11
f 33/5/11 3/1/11 45/5/11
f 45/5/11 3/1/11 46/3/11
f 32/4/11 46/3/11 3/1/11
f 31/4/11 46/3/11 32/4/11
f 46/3/11 31/4/11 38/3/11
f 47/5/11 17/1/11 39/5/11
f 47/5/11 18/1/11 17/1/11
f 18/1/11 47/5/11 21/4/11
f 48/3/11 21/4/11 47/5/11
f 21/4/11 48/3/11 22/4/11
f 22/4/11 48/3/11 44/3/11
f 50/10/13 36/9/12 49/9/12
f 36/9/12 50/10/13 37/10/13
f 51/11/14 36/9/12 35/11/14
f 36/9/12 51/11/14 49/9/12
f 49/9/12 51/11/14 52/12/11
f 53/10/2 37/10/13 50/10/13
f 37/10/13 53/10/2 38/10/2
f 38/10/2 53/10/2 46/10/2
f 34/13/15 51/11/14 35/11/14
f 51/11/14 34/13/15 54/13/15
f 43/10/13 56/10/2 55/10/13
f 56/10/2 43/10/13 44/10/2
f 56/10/2 44/10/2 48/10/2
f 58/13/15 41/11/14 57/11/14
f 41/11/14 58/13/15 40/13/15
f 42/9/12 55/10/13 59/9/12
f 55/10/13 42/9/12 43/10/13
f 57/11/14 59/9/12 60/12/11
f 59/9/12 57/11/14 41/11/14
f 59/9/12 41/11/14 42/9/12
f 57/11/10 61/13/10 58/13/10
f 61/13/10 57/11/10 62/14/10
f 62/14/10 57/11/10 60/12/10
f 62/14/10 63/14/10 61/13/10
f 63/14/10 62/14/10 60/12/10
f 63/14/10 47/13/10 61/13/10
f 47/13/10 63/14/10 48/10/10
f 63/14/10 60/12/10 64/12/10
f 48/10/10 63/14/10 64/12/10
f 64/12/10 60/12/10 65/15/10
f 59/9/10 65/15/10 60/12/10
f 48/10/10 64/12/10 66/15/10
f 64/12/10 65/15/10 66/15/10
f 48/10/10 66/15/10 56/10/10
f 66/15/10 65/15/10 56/10/10
f 65/15/10 59/9/10 56/10/10
f 56/10/10 59/9/10 55/10/10
f 33/13/6 54/13/15 34/13/15
f 54/13/15 33/13/6 67/13/6
f 67/13/6 33/13/6 45/13/6
f 61/13/6 40/13/15 58/13/15
f 40/13/15 61/13/6 39/13/6
f 39/13/6 61/13/6 47/13/6
f 49/9/9 53/10/9 50/10/9
f 49/9/9 68/15/9 53/10/9
f 68/15/9 49/9/9 52/12/9
f 68/15/9 69/15/9 53/10/9
f 69/15/9 46/10/9 53/10/9
f 68/15/9 70/12/9 69/15/9
f 52/12/9 70/12/9 68/15/9
f 70/12/9 46/10/9 69/15/9
f 71/14/9 70/12/9 52/12/9
f 51/11/9 71/14/9 52/12/9
f 72/14/9 46/10/9 70/12/9
f 71/14/9 72/14/9 70/12/9
f 72/14/9 45/13/9 46/10/9
f 45/13/9 72/14/9 67/13/9
f 72/14/9 71/14/9 67/13/9
f 51/11/9 67/13/9 71/14/9
f 67/13/9 51/11/9 54/13/9
f 75/17/1 74/16/8 73/16/8
f 74/16/8 75/17/1 1/17/1
f 77/18/3 12/10/4 76/18/3
f 12/10/4 77/18/3 78/10/4
f 14/19/5 77/18/3 76/18/3
f 77/18/3 14/19/5 79/19/5
f 32/19/6 79/19/5 14/19/5
f 79/19/5 32/19/6 80/19/6
f 81/17/2 1/17/1 75/17/1
f 1/17/1 81/17/2 3/17/2
f 78/10/4 29/13/7 12/10/4
f 29/13/7 78/10/4 82/13/7
f 82/13/7 74/16/8 29/13/7
f 74/16/8 82/13/7 73/16/8
f 81/17/11 32/19/11 3/17/11
f 32/19/11 81/17/11 80/19/11
f 85/22/18 84/21/17 83/20/16
f 84/21/17 85/22/18 52/21/19
f 70/21/22 87/20/21 86/21/20
f 87/20/21 70/21/22 88/22/23
f 90/24/25 86/21/20 89/23/24
f 86/21/20 90/24/25 70/21/22
f 67/25/28 92/23/27 91/24/26
f 92/23/27 67/25/28 93/26/29
f 87/20/21 53/28/31 94/27/30
f 53/28/31 87/20/21 88/22/23
f 52/21/19 92/23/27 84/21/17
f 92/23/27 52/21/19 91/24/26
f 89/23/24 92/23/27 93/26/29
f 92/23/27 89/23/24 86/21/20
f 92/23/27 86/21/20 84/21/17
f 84/21/17 86/21/20 83/20/16
f 83/20/16 86/21/20 87/20/21
f 83/20/16 87/20/21 94/27/30
f 83/20/16 53/28/31 85/22/18
f 53/28/31 83/20/16 94/27/30
f 67/25/28 89/23/24 93/26/29
f 89/23/24 67/25/28 90/24/25
f 97/22/34 96/21/33 95/20/32
f 96/21/33 97/22/34 64/21/35
f 60/21/38 99/20/37 98/21/36
f 99/20/37 60/21/38 100/22/39
f 102/24/41 98/21/36 101/23/40
f 98/21/36 102/24/41 60/21/38
f 61/25/44 104/23/43 103/24/42
f 104/23/43 61/25/44 105/26/45
f 99/20/37 56/28/47 106/27/46
f 56/28/47 99/20/37 100/22/39
f 64/21/35 104/23/43 96/21/33
f 104/23/43 64/21/35 103/24/42
f 101/23/40 104/23/43 105/26/45
f 104/23/43 101/23/40 98/21/36
f 104/23/43 98/21/36 96/21/33
f 96/21/33 98/21/36 95/20/32
f 95/20/32 98/21/36 99/20/37
f 95/20/32 99/20/37 106/27/46
f 95/20/32 56/28/47 97/22/34
f 56/28/47 95/20/32 106/27/46
f 61/25/44 101/23/40 105/26/45
f 101/23/40 61/25/44 102/24/41

