# Created by Kenney (www.kenney.nl)

mtllib conveyor-stripe-cross.mtl

g conveyor-stripe-cross

v 0.4 0.4 -0.3000001 1 1 1
v 0.4707107 0.3707107 -0.3000002 1 1 1
v 0.4000002 0.4 0.3 1 1 1
v 0.4707109 0.3707107 0.3 1 1 1
v 0.5000002 0.3 0.3 1 1 1
v 0.5 0.3 -0.3000002 1 1 1
v -0.4707107 0.3707107 0.3000002 1 1 1
v -0.4707109 0.3707107 -0.3 1 1 1
v -0.4 0.4 0.3000002 1 1 1
v -0.4000002 0.4 -0.3 1 1 1
v -0.5000001 0.3 0.3000002 1 1 1
v -0.5000002 0.3 -0.3 1 1 1
v 0.3000002 0.3 0.5000001 1 1 1
v -0.3 0.3 0.5000002 1 1 1
v 0.3000002 0.3707107 0.4707107 1 1 1
v -0.3 0.3707107 0.4707108 1 1 1
v -0.3 0.4 0.4000002 1 1 1
v 0.3000002 0.4 0.4 1 1 1
v 0.3000002 0.1 0.5000001 1 1 1
v -0.3 0.1 0.5000002 1 1 1
v -0.5000001 0.1 0.3000002 1 1 1
v -0.5000002 0.1 -0.3 1 1 1
v 0.5000002 0.1 0.3 1 1 1
v 0.5 0.1 -0.3000002 1 1 1
v 0.3000002 0.02928932 0.4707107 1 1 1
v -0.3 0.02928932 0.4707108 1 1 1
v -0.4707107 0.02928932 0.3000002 1 1 1
v -0.4 -9.023893E-17 0.3000002 1 1 1
v -0.4707109 0.02928932 -0.3 1 1 1
v -0.4000002 -9.023893E-17 -0.3 1 1 1
v -0.3 -9.023893E-17 0.4000002 1 1 1
v 0.3000002 -9.023893E-17 0.4 1 1 1
v 0.4707109 0.02928932 0.3 1 1 1
v 0.4707107 0.02928932 -0.3000002 1 1 1
v 0.4 -9.023893E-17 -0.3000001 1 1 1
v 0.4000002 -9.023893E-17 0.3 1 1 1
v -0.3000002 0.1 -0.5000001 1 1 1
v 0.3 0.1 -0.5000002 1 1 1
v -0.3000002 0.3 -0.5000001 1 1 1
v 0.3 0.3 -0.5000002 1 1 1
v -0.3000002 0.02928932 -0.4707107 1 1 1
v -0.3000002 -9.023893E-17 -0.4 1 1 1
v 0.3 0.02928932 -0.4707108 1 1 1
v 0.3 -9.023893E-17 -0.4000002 1 1 1
v -0.3000002 0.3707107 -0.4707107 1 1 1
v 0.3 0.3707107 -0.4707108 1 1 1
v -0.3000002 0.4 -0.4 1 1 1
v 0.3 0.4 -0.4000002 1 1 1
v 0.3000002 -9.023893E-17 0.3 1 1 1
v 0.3 -9.023893E-17 -0.3000001 1 1 1
v 2.607589E-09 -9.023893E-17 7.450581E-09 1 1 1
v -0.3 -9.023893E-17 0.3000002 1 1 1
v -0.3000001 -9.023893E-17 -0.3 1 1 1
v -0.35 0.4 0.3000002 1 1 1
v -0.3500001 0.4 -0.3 1 1 1
v -0.3250002 0.4 -0.3249999 1 1 1
v -0.325 0.4 0.3250002 1 1 1
v 2.607587E-09 0.4 7.450581E-09 1 1 1
v -0.3 0.4 0.3500001 1 1 1
v -0.3000002 0.4 -0.35 1 1 1
v 0.3000002 0.4 0.35 1 1 1
v 0.3 0.4 -0.3500001 1 1 1
v 0.325 0.4 -0.3250002 1 1 1
v 0.3250002 0.4 0.325 1 1 1
v 0.35 0.4 -0.3000002 1 1 1
v 0.3500002 0.4 0.3 1 1 1
v -0.3 0.1 0.5000002 1 1 1
v -0.5000001 0.1 0.5000002 1 1 1
v -0.3 0.3 0.5000002 1 1 1
v -0.5000001 0.3 0.5000002 1 1 1
v 0.5000002 0.1 0.5 1 1 1
v 0.5000002 0.3 0.5 1 1 1
v 0.5000002 0.1 0.2999999 1 1 1
v 0.5000002 0.3 0.2999999 1 1 1
v 0.3000001 -9.023893E-17 0.3 1 1 1
v 0.3000001 -9.023893E-17 0.4 1 1 1
v 0.4000001 -9.023893E-17 0.3 1 1 1
v 0.4000002 -9.023893E-17 0.4 1 1 1
v 0.3000002 0.1 0.5 1 1 1
v 0.3000002 0.3 0.5 1 1 1
v -0.4707107 0.02928932 0.4707109 1 1 1
v -0.3 0.02928932 0.4707108 1 1 1
v -0.4 -9.023893E-17 0.4000002 1 1 1
v -0.3 -9.023893E-17 0.4000002 1 1 1
v -0.5000001 0.1 0.3000002 1 1 1
v -0.5000001 0.3 0.3000002 1 1 1
v 0.3000002 0.3707107 0.4707107 1 1 1
v 0.3000001 0.4 0.4 1 1 1
v 0.4707109 0.3707107 0.4707106 1 1 1
v 0.4000002 0.4 0.4 1 1 1
v -0.4707108 0.02928932 0.3000002 1 1 1
v -0.4000001 0.4 0.3000002 1 1 1
v -0.3500001 0.4 0.3000002 1 1 1
v -0.4 0.4 0.4000002 1 1 1
v -0.3 0.4 0.4000001 1 1 1
v -0.3 0.4 0.3500001 1 1 1
v 0.4707109 0.02928932 0.4707106 1 1 1
v 0.4707108 0.02928932 0.2999999 1 1 1
v -0.3 0.3707107 0.4707108 1 1 1
v -0.4707107 0.3707107 0.4707109 1 1 1
v -0.4707108 0.3707107 0.3000002 1 1 1
v 0.3000002 0.02928932 0.4707107 1 1 1
v 0.4707108 0.3707107 0.2999999 1 1 1
v -0.4000001 -9.023893E-17 0.3000002 1 1 1
v -0.3 -9.023893E-17 0.3000002 1 1 1
v 0.4000001 0.4 0.3 1 1 1
v 0.3000001 0.4 0.35 1 1 1
v 0.3500001 0.4 0.3 1 1 1
v 0.3 0.1 -0.5000001 1 1 1
v 0.5000001 0.1 -0.5000001 1 1 1
v 0.3 0.3 -0.5000001 1 1 1
v 0.5000001 0.3 -0.5000001 1 1 1
v -0.5000002 0.1 -0.5000001 1 1 1
v -0.5000002 0.3 -0.5000001 1 1 1
v -0.5000002 0.1 -0.3 1 1 1
v -0.5000002 0.3 -0.3 1 1 1
v -0.3000001 -9.023893E-17 -0.3 1 1 1
v -0.3000001 -9.023893E-17 -0.4 1 1 1
v -0.4000002 -9.023893E-17 -0.3 1 1 1
v -0.4000002 -9.023893E-17 -0.4 1 1 1
v -0.3000001 0.1 -0.5000001 1 1 1
v -0.3000001 0.3 -0.5000001 1 1 1
v 0.4707108 0.02928932 -0.4707107 1 1 1
v 0.3 0.02928932 -0.4707107 1 1 1
v 0.4 -9.023893E-17 -0.4 1 1 1
v 0.3 -9.023893E-17 -0.4 1 1 1
v 0.5000001 0.1 -0.3 1 1 1
v 0.5000001 0.3 -0.3 1 1 1
v -0.3000001 0.3707107 -0.4707107 1 1 1
v -0.3000001 0.4 -0.4 1 1 1
v -0.4707108 0.3707107 -0.4707107 1 1 1
v -0.4000002 0.4 -0.4 1 1 1
v 0.4707108 0.02928932 -0.3 1 1 1
v 0.4 0.4 -0.3 1 1 1
v 0.35 0.4 -0.3 1 1 1
v 0.4 0.4 -0.4 1 1 1
v 0.3 0.4 -0.4 1 1 1
v 0.3 0.4 -0.3500001 1 1 1
v -0.4707108 0.02928932 -0.4707107 1 1 1
v -0.4707108 0.02928932 -0.3 1 1 1
v 0.3 0.3707107 -0.4707107 1 1 1
v 0.4707108 0.3707107 -0.4707107 1 1 1
v 0.4707108 0.3707107 -0.3 1 1 1
v -0.3000001 0.02928932 -0.4707107 1 1 1
v -0.4707108 0.3707107 -0.3 1 1 1
v 0.4 -9.023893E-17 -0.3 1 1 1
v 0.3 -9.023893E-17 -0.3 1 1 1
v -0.4000002 0.4 -0.3 1 1 1
v -0.3000001 0.4 -0.35 1 1 1
v -0.3500001 0.4 -0.3 1 1 1

vn 0.1950903 0.9807853 -4.651315E-08
vn 0.7071069 0.7071068 -1.685874E-07
vn 0.1950903 0.9807853 -4.651316E-08
vn 0.9807855 0.1950904 -2.338375E-07
vn -0.7071069 0.7071068 1.685874E-07
vn -0.1950904 0.9807853 4.651316E-08
vn -0.1950904 0.9807853 4.651316E-08
vn -0.9807855 0.1950903 2.338375E-07
vn 2.338375E-07 0.1950903 0.9807855
vn 1.685874E-07 0.7071068 0.7071069
vn 1.685874E-07 0.7071068 0.7071069
vn 4.651316E-08 0.9807853 0.1950903
vn 4.651316E-08 0.9807853 0.1950904
vn 2.338375E-07 -0.1950903 0.9807855
vn -0.9807855 -0.1950903 2.338375E-07
vn 0.9807855 -0.1950903 -2.338375E-07
vn 1.685874E-07 -0.7071068 0.7071069
vn -0.7071069 -0.7071068 1.685874E-07
vn -0.1950904 -0.9807853 4.651316E-08
vn 4.651316E-08 -0.9807853 0.1950904
vn 4.651316E-08 -0.9807853 0.1950904
vn 0.7071069 -0.7071068 -1.685874E-07
vn 0.1950903 -0.9807853 -4.651316E-08
vn 0.1950904 -0.9807853 -4.651316E-08
vn -2.338375E-07 -0.1950903 -0.9807855
vn -2.338375E-07 0.1950903 -0.9807855
vn -1.685874E-07 -0.7071068 -0.7071069
vn -4.651316E-08 -0.9807853 -0.1950904
vn -4.651316E-08 -0.9807853 -0.1950904
vn -1.685874E-07 0.7071068 -0.7071069
vn -1.685874E-07 0.7071068 -0.7071069
vn -4.651316E-08 0.9807853 -0.1950904
vn -4.651316E-08 0.9807853 -0.1950903
vn 0 -1 0
vn 0 1 0
vn -0.6871106 -0.2361315 0.6871109
vn 2.338375E-07 0.1950904 0.9807855
vn -0.6871106 0.2361315 0.6871109
vn 0.6871109 -0.2361315 0.6871106
vn 0.6871109 0.2361315 0.6871106
vn 0.1481469 -0.9778062 0.1481469
vn 2.338375E-07 0.1950903 0.9807855
vn -0.4974923 -0.7106354 0.4974925
vn -0.1481469 -0.9778062 0.1481469
vn 0.4974926 0.7106355 0.4974923
vn 0.1481469 0.9778062 0.1481469
vn -0.1481469 0.9778062 0.1481469
vn 0.4974925 -0.7106354 0.4974923
vn -0.4974923 0.7106355 0.4974925
vn 0.7071069 0.7071068 -1.685874E-07
vn 0.1950904 0.9807853 -4.651316E-08
vn 0 -0.1950903 -0.9807855
vn 0.6871108 -0.2361315 -0.6871107
vn 0 0.1950904 -0.9807855
vn 0.6871108 0.2361315 -0.6871107
vn -0.6871107 -0.2361315 -0.6871108
vn -0.6871107 0.2361315 -0.6871108
vn -0.9807855 -0.1950903 0
vn -0.9807855 0.1950904 0
vn 0 -0.9807853 -0.1950904
vn -0.1950904 -0.9807853 0
vn -0.1481469 -0.9778062 -0.1481469
vn 0 0.1950903 -0.9807855
vn 0.4974924 -0.7106354 -0.4974924
vn 0 -0.7071068 -0.7071069
vn 0.1481469 -0.9778062 -0.1481469
vn 0 -0.9807853 -0.1950904
vn 0.9807855 -0.1950903 0
vn 0.9807855 0.1950903 0
vn 0 0.7071068 -0.7071069
vn 0 0.9807853 -0.1950904
vn -0.4974924 0.7106355 -0.4974924
vn -0.1481469 0.9778062 -0.1481469
vn 0.7071069 -0.7071068 0
vn 0.1950904 0.9807853 0
vn 0.1481469 0.9778062 -0.1481469
vn -0.4974924 -0.7106354 -0.4974924
vn -0.7071069 -0.7071068 0
vn 0.4974924 0.7106355 -0.4974924
vn 0.7071069 0.7071068 0
vn -0.7071069 0.7071068 0
vn 0.1950904 -0.9807853 0
vn -0.1950904 0.9807853 0

vt 0.09375 0.225
vt 0.09375 0.2103553
vt 0.09375 0.175
vt 0.09375 0.075
vt 0.09375 0.03964466
vt 0.09375 0.025
vt 0.46875 0.1
vt 0.46875 0.15
vt 0.46875 0.075
vt 0.46875 0.08232233
vt 0.46875 0.1676777
vt 0.46875 0.175

usemtl colormap

f 3/1/3 2/2/2 1/1/1
f 2/2/2 3/1/3 4/2/2
f 6/3/4 4/2/2 5/3/4
f 4/2/2 6/3/4 2/2/2
f 9/1/6 8/2/5 7/2/5
f 8/2/5 9/1/6 10/1/7
f 7/2/5 12/3/8 11/3/8
f 12/3/8 7/2/5 8/2/5
f 15/2/10 14/3/9 13/3/9
f 14/3/9 15/2/10 16/2/11
f 16/2/11 18/1/13 17/1/12
f 18/1/13 16/2/11 15/2/10
f 13/3/9 20/4/14 19/4/14
f 20/4/14 13/3/9 14/3/9
f 11/3/8 22/4/15 21/4/15
f 22/4/15 11/3/8 12/3/8
f 24/4/16 5/3/4 23/4/16
f 5/3/4 24/4/16 6/3/4
f 19/4/14 26/5/17 25/5/17
f 26/5/17 19/4/14 20/4/14
f 29/5/18 28/6/19 27/5/18
f 28/6/19 29/5/18 30/6/19
f 22/4/15 27/5/18 21/4/15
f 27/5/18 22/4/15 29/5/18
f 32/6/21 26/5/17 31/6/20
f 26/5/17 32/6/21 25/5/17
f 33/5/22 24/4/16 23/4/16
f 24/4/16 33/5/22 34/5/22
f 34/5/22 36/6/24 35/6/23
f 36/6/24 34/5/22 33/5/22
f 39/3/26 38/4/25 37/4/25
f 38/4/25 39/3/26 40/3/26
f 43/5/27 42/6/28 41/5/27
f 42/6/28 43/5/27 44/6/29
f 45/2/30 40/3/26 39/3/26
f 40/3/26 45/2/30 46/2/31
f 37/4/25 43/5/27 41/5/27
f 43/5/27 37/4/25 38/4/25
f 48/1/33 45/2/30 47/1/32
f 45/2/30 48/1/33 46/2/31
f 49/6/34 35/6/23 36/6/24
f 49/6/34 50/6/34 35/6/23
f 50/6/34 49/6/34 51/6/34
f 32/6/21 51/6/34 49/6/34
f 31/6/20 51/6/34 32/6/21
f 51/6/34 44/6/29 50/6/34
f 51/6/34 31/6/20 52/6/34
f 53/6/34 44/6/29 51/6/34
f 52/6/34 53/6/34 51/6/34
f 44/6/29 53/6/34 42/6/28
f 52/6/34 30/6/19 53/6/34
f 30/6/19 52/6/34 28/6/19
f 54/1/35 10/1/7 9/1/6
f 10/1/7 54/1/35 55/1/35
f 55/1/35 54/1/35 56/1/35
f 56/1/35 54/1/35 57/1/35
f 56/1/35 57/1/35 58/1/35
f 59/1/35 58/1/35 57/1/35
f 58/1/35 60/1/35 56/1/35
f 58/1/35 59/1/35 17/1/12
f 60/1/35 58/1/35 47/1/32
f 58/1/35 17/1/12 18/1/13
f 47/1/32 58/1/35 48/1/33
f 58/1/35 18/1/13 61/1/35
f 48/1/33 58/1/35 62/1/35
f 63/1/35 62/1/35 58/1/35
f 58/1/35 61/1/35 64/1/35
f 64/1/35 63/1/35 58/1/35
f 63/1/35 64/1/35 65/1/35
f 65/1/35 64/1/35 66/1/35
f 65/1/35 66/1/35 1/1/1
f 1/1/1 66/1/35 3/1/3
f 69/8/37 68/7/36 67/7/14
f 68/7/36 69/8/37 70/8/38
f 73/7/16 72/8/40 71/7/39
f 72/8/40 73/7/16 74/8/4
f 77/9/24 76/9/21 75/9/34
f 76/9/21 77/9/24 78/9/41
f 72/8/40 79/7/14 71/7/39
f 79/7/14 72/8/40 80/8/42
f 83/9/44 82/10/17 81/10/43
f 82/10/17 83/9/44 84/9/20
f 70/8/38 85/7/15 68/7/36
f 85/7/15 70/8/38 86/8/8
f 82/10/17 68/7/36 81/10/43
f 68/7/36 82/10/17 67/7/14
f 89/11/45 88/12/13 87/11/10
f 88/12/13 89/11/45 90/12/46
f 85/7/15 81/10/43 68/7/36
f 81/10/43 85/7/15 91/10/18
f 94/12/47 93/12/35 92/12/6
f 93/12/35 94/12/47 95/12/13
f 93/12/35 95/12/13 96/12/35
f 97/10/48 73/7/16 71/7/39
f 73/7/16 97/10/48 98/10/22
f 99/11/10 70/8/38 69/8/37
f 70/8/38 99/11/10 100/11/49
f 99/11/10 94/12/47 100/11/49
f 94/12/47 99/11/10 95/12/13
f 100/11/49 92/12/6 101/11/5
f 92/12/6 100/11/49 94/12/47
f 78/9/41 102/10/17 76/9/21
f 102/10/17 78/9/41 97/10/48
f 74/8/4 89/11/45 72/8/40
f 89/11/45 74/8/4 103/11/50
f 89/11/45 80/8/42 72/8/40
f 80/8/42 89/11/45 87/11/10
f 105/9/34 83/9/44 104/9/19
f 83/9/44 105/9/34 84/9/20
f 104/9/19 81/10/43 91/10/18
f 81/10/43 104/9/19 83/9/44
f 71/7/39 102/10/17 97/10/48
f 102/10/17 71/7/39 79/7/14
f 89/11/45 106/12/51 90/12/46
f 106/12/51 89/11/45 103/11/50
f 77/9/24 97/10/48 78/9/41
f 97/10/48 77/9/24 98/10/22
f 100/11/49 86/8/8 70/8/38
f 86/8/8 100/11/49 101/11/5
f 90/12/46 107/12/35 88/12/13
f 107/12/35 90/12/46 108/12/35
f 108/12/35 90/12/46 106/12/51
f 111/8/54 110/7/53 109/7/52
f 110/7/53 111/8/54 112/8/55
f 115/7/58 114/8/57 113/7/56
f 114/8/57 115/7/58 116/8/59
f 119/9/61 118/9/60 117/9/34
f 118/9/60 119/9/61 120/9/62
f 114/8/57 121/7/52 113/7/56
f 121/7/52 114/8/57 122/8/63
f 125/9/66 124/10/65 123/10/64
f 124/10/65 125/9/66 126/9/67
f 112/8/55 127/7/68 110/7/53
f 127/7/68 112/8/55 128/8/69
f 124/10/65 110/7/53 123/10/64
f 110/7/53 124/10/65 109/7/52
f 131/11/72 130/12/71 129/11/70
f 130/12/71 131/11/72 132/12/73
f 127/7/68 123/10/64 110/7/53
f 123/10/64 127/7/68 133/10/74
f 136/12/76 135/12/35 134/12/75
f 135/12/35 136/12/76 137/12/71
f 135/12/35 137/12/71 138/12/35
f 139/10/77 115/7/58 113/7/56
f 115/7/58 139/10/77 140/10/78
f 141/11/70 112/8/55 111/8/54
f 112/8/55 141/11/70 142/11/79
f 141/11/70 136/12/76 142/11/79
f 136/12/76 141/11/70 137/12/71
f 142/11/79 134/12/75 143/11/80
f 134/12/75 142/11/79 136/12/76
f 120/9/62 144/10/65 118/9/60
f 144/10/65 120/9/62 139/10/77
f 116/8/59 131/11/72 114/8/57
f 131/11/72 116/8/59 145/11/81
f 131/11/72 122/8/63 114/8/57
f 122/8/63 131/11/72 129/11/70
f 147/9/34 125/9/66 146/9/82
f 125/9/66 147/9/34 126/9/67
f 146/9/82 123/10/64 133/10/74
f 123/10/64 146/9/82 125/9/66
f 113/7/56 144/10/65 139/10/77
f 144/10/65 113/7/56 121/7/52
f 131/11/72 148/12/83 132/12/73
f 148/12/83 131/11/72 145/11/81
f 119/9/61 139/10/77 120/9/62
f 139/10/77 119/9/61 140/10/78
f 142/11/79 128/8/69 112/8/55
f 128/8/69 142/11/79 143/11/80
f 132/12/73 149/12/35 130/12/71
f 149/12/35 132/12/73 150/12/35
f 150/12/35 132/12/73 148/12/83

g conveyor-stripe-cross




usemtl colormap

f 3/1/3 2/2/2 1/1/1
f 2/2/2 3/1/3 4/2/2
f 6/3/4 4/2/2 5/3/4
f 4/2/2 6/3/4 2/2/2
f 9/1/6 8/2/5 7/2/5
f 8/2/5 9/1/6 10/1/7
f 7/2/5 12/3/8 11/3/8
f 12/3/8 7/2/5 8/2/5
f 15/2/10 14/3/9 13/3/9
f 14/3/9 15/2/10 16/2/11
f 16/2/11 18/1/13 17/1/12
f 18/1/13 16/2/11 15/2/10
f 13/3/9 20/4/14 19/4/14
f 20/4/14 13/3/9 14/3/9
f 11/3/8 22/4/15 21/4/15
f 22/4/15 11/3/8 12/3/8
f 24/4/16 5/3/4 23/4/16
f 5/3/4 24/4/16 6/3/4
f 19/4/14 26/5/17 25/5/17
f 26/5/17 19/4/14 20/4/14
f 29/5/18 28/6/19 27/5/18
f 28/6/19 29/5/18 30/6/19
f 22/4/15 27/5/18 21/4/15
f 27/5/18 22/4/15 29/5/18
f 32/6/21 26/5/17 31/6/20
f 26/5/17 32/6/21 25/5/17
f 33/5/22 24/4/16 23/4/16
f 24/4/16 33/5/22 34/5/22
f 34/5/22 36/6/24 35/6/23
f 36/6/24 34/5/22 33/5/22
f 39/3/26 38/4/25 37/4/25
f 38/4/25 39/3/26 40/3/26
f 43/5/27 42/6/28 41/5/27
f 42/6/28 43/5/27 44/6/29
f 45/2/30 40/3/26 39/3/26
f 40/3/26 45/2/30 46/2/31
f 37/4/25 43/5/27 41/5/27
f 43/5/27 37/4/25 38/4/25
f 48/1/33 45/2/30 47/1/32
f 45/2/30 48/1/33 46/2/31
f 49/6/34 35/6/23 36/6/24
f 49/6/34 50/6/34 35/6/23
f 50/6/34 49/6/34 51/6/34
f 32/6/21 51/6/34 49/6/34
f 31/6/20 51/6/34 32/6/21
f 51/6/34 44/6/29 50/6/34
f 51/6/34 31/6/20 52/6/34
f 53/6/34 44/6/29 51/6/34
f 52/6/34 53/6/34 51/6/34
f 44/6/29 53/6/34 42/6/28
f 52/6/34 30/6/19 53/6/34
f 30/6/19 52/6/34 28/6/19
f 54/1/35 10/1/7 9/1/6
f 10/1/7 54/1/35 55/1/35
f 55/1/35 54/1/35 56/1/35
f 56/1/35 54/1/35 57/1/35
f 56/1/35 57/1/35 58/1/35
f 59/1/35 58/1/35 57/1/35
f 58/1/35 60/1/35 56/1/35
f 58/1/35 59/1/35 17/1/12
f 60/1/35 58/1/35 47/1/32
f 58/1/35 17/1/12 18/1/13
f 47/1/32 58/1/35 48/1/33
f 58/1/35 18/1/13 61/1/35
f 48/1/33 58/1/35 62/1/35
f 63/1/35 62/1/35 58/1/35
f 58/1/35 61/1/35 64/1/35
f 64/1/35 63/1/35 58/1/35
f 63/1/35 64/1/35 65/1/35
f 65/1/35 64/1/35 66/1/35
f 65/1/35 66/1/35 1/1/1
f 1/1/1 66/1/35 3/1/3
f 69/8/37 68/7/36 67/7/14
f 68/7/36 69/8/37 70/8/38
f 73/7/16 72/8/40 71/7/39
f 72/8/40 73/7/16 74/8/4
f 77/9/24 76/9/21 75/9/34
f 76/9/21 77/9/24 78/9/41
f 72/8/40 79/7/14 71/7/39
f 79/7/14 72/8/40 80/8/42
f 83/9/44 82/10/17 81/10/43
f 82/10/17 83/9/44 84/9/20
f 70/8/38 85/7/15 68/7/36
f 85/7/15 70/8/38 86/8/8
f 82/10/17 68/7/36 81/10/43
f 68/7/36 82/10/17 67/7/14
f 89/11/45 88/12/13 87/11/10
f 88/12/13 89/11/45 90/12/46
f 85/7/15 81/10/43 68/7/36
f 81/10/43 85/7/15 91/10/18
f 94/12/47 93/12/35 92/12/6
f 93/12/35 94/12/47 95/12/13
f 93/12/35 95/12/13 96/12/35
f 97/10/48 73/7/16 71/7/39
f 73/7/16 97/10/48 98/10/22
f 99/11/10 70/8/38 69/8/37
f 70/8/38 99/11/10 100/11/49
f 99/11/10 94/12/47 100/11/49
f 94/12/47 99/11/10 95/12/13
f 100/11/49 92/12/6 101/11/5
f 92/12/6 100/11/49 94/12/47
f 78/9/41 102/10/17 76/9/21
f 102/10/17 78/9/41 97/10/48
f 74/8/4 89/11/45 72/8/40
f 89/11/45 74/8/4 103/11/50
f 89/11/45 80/8/42 72/8/40
f 80/8/42 89/11/45 87/11/10
f 105/9/34 83/9/44 104/9/19
f 83/9/44 105/9/34 84/9/20
f 104/9/19 81/10/43 91/10/18
f 81/10/43 104/9/19 83/9/44
f 71/7/39 102/10/17 97/10/48
f 102/10/17 71/7/39 79/7/14
f 89/11/45 106/12/51 90/12/46
f 106/12/51 89/11/45 103/11/50
f 77/9/24 97/10/48 78/9/41
f 97/10/48 77/9/24 98/10/22
f 100/11/49 86/8/8 70/8/38
f 86/8/8 100/11/49 101/11/5
f 90/12/46 107/12/35 88/12/13
f 107/12/35 90/12/46 108/12/35
f 108/12/35 90/12/46 106/12/51
f 111/8/54 110/7/53 109/7/52
f 110/7/53 111/8/54 112/8/55
f 115/7/58 114/8/57 113/7/56
f 114/8/57 115/7/58 116/8/59
f 119/9/61 118/9/60 117/9/34
f 118/9/60 119/9/61 120/9/62
f 114/8/57 121/7/52 113/7/56
f 121/7/52 114/8/57 122/8/63
f 125/9/66 124/10/65 123/10/64
f 124/10/65 125/9/66 126/9/67
f 112/8/55 127/7/68 110/7/53
f 127/7/68 112/8/55 128/8/69
f 124/10/65 110/7/53 123/10/64
f 110/7/53 124/10/65 109/7/52
f 131/11/72 130/12/71 129/11/70
f 130/12/71 131/11/72 132/12/73
f 127/7/68 123/10/64 110/7/53
f 123/10/64 127/7/68 133/10/74
f 136/12/76 135/12/35 134/12/75
f 135/12/35 136/12/76 137/12/71
f 135/12/35 137/12/71 138/12/35
f 139/10/77 115/7/58 113/7/56
f 115/7/58 139/10/77 140/10/78
f 141/11/70 112/8/55 111/8/54
f 112/8/55 141/11/70 142/11/79
f 141/11/70 136/12/76 142/11/79
f 136/12/76 141/11/70 137/12/71
f 142/11/79 134/12/75 143/11/80
f 134/12/75 142/11/79 136/12/76
f 120/9/62 144/10/65 118/9/60
f 144/10/65 120/9/62 139/10/77
f 116/8/59 131/11/72 114/8/57
f 131/11/72 116/8/59 145/11/81
f 131/11/72 122/8/63 114/8/57
f 122/8/63 131/11/72 129/11/70
f 147/9/34 125/9/66 146/9/82
f 125/9/66 147/9/34 126/9/67
f 146/9/82 123/10/64 133/10/74
f 123/10/64 146/9/82 125/9/66
f 113/7/56 144/10/65 139/10/77
f 144/10/65 113/7/56 121/7/52
f 131/11/72 148/12/83 132/12/73
f 148/12/83 131/11/72 145/11/81
f 119/9/61 139/10/77 120/9/62
f 139/10/77 119/9/61 140/10/78
f 142/11/79 128/8/69 112/8/55
f 128/8/69 142/11/79 143/11/80
f 132/12/73 149/12/35 130/12/71
f 149/12/35 132/12/73 150/12/35
f 150/12/35 132/12/73 148/12/83

