# Created by Kenney (www.kenney.nl)

mtllib conveyor-stripe-junction-t.mtl

g conveyor-stripe-junction-t

v 0.3565685 0.2565686 -0.4500001 1 1 1
v 0.38 0.2 -0.4500001 1 1 1
v 0.3707107 0.2707107 -0.4000001 1 1 1
v 0.4 0.2 -0.4000001 1 1 1
v 0.22 0.2 -0.4500001 1 1 1
v 0.2434314 0.2565686 -0.4500001 1 1 1
v 0.2 0.2 -0.4000001 1 1 1
v 0.2292893 0.2707107 -0.4000001 1 1 1
v 0.2434314 0.1434315 -0.4500001 1 1 1
v 0.2292893 0.1292893 -0.4000001 1 1 1
v 0.3707107 0.1292893 -0.4000001 1 1 1
v 0.3565685 0.1434315 -0.4500001 1 1 1
v 0.3 0.1 -0.4000001 1 1 1
v 0.3 0.12 -0.4500001 1 1 1
v 0.3 0.28 -0.4500001 1 1 1
v 0.3 0.3 -0.4000001 1 1 1
v -0.2434315 0.2565686 -0.45 1 1 1
v -0.2200001 0.2 -0.45 1 1 1
v -0.2292894 0.2707107 -0.4 1 1 1
v -0.2000001 0.2 -0.4 1 1 1
v -0.3800001 0.2 -0.45 1 1 1
v -0.3565687 0.2565686 -0.45 1 1 1
v -0.4000001 0.2 -0.4 1 1 1
v -0.3707108 0.2707107 -0.4 1 1 1
v -0.3565687 0.1434315 -0.45 1 1 1
v -0.3707108 0.1292893 -0.4 1 1 1
v -0.2292894 0.1292893 -0.4 1 1 1
v -0.2434315 0.1434315 -0.45 1 1 1
v -0.3000001 0.1 -0.4 1 1 1
v -0.3000001 0.12 -0.45 1 1 1
v -0.3000001 0.28 -0.45 1 1 1
v -0.3000001 0.3 -0.4 1 1 1
v 0.4 0.4 -0.3000001 1 1 1
v 0.4707107 0.3707107 -0.3000002 1 1 1
v 0.4000002 0.4 0.3 1 1 1
v 0.4707109 0.3707107 0.3 1 1 1
v 0.5000002 0.3 0.3 1 1 1
v 0.5 0.3 -0.3000002 1 1 1
v -0.4707107 0.3707107 0.3000002 1 1 1
v -0.4707109 0.3707107 -0.3 1 1 1
v -0.4 0.4 0.3000002 1 1 1
v -0.4000002 0.4 -0.3 1 1 1
v -0.5000001 0.3 0.3000002 1 1 1
v -0.5000002 0.3 -0.3 1 1 1
v 0.3000002 0.3 0.5000001 1 1 1
v -0.3 0.3 0.5000002 1 1 1
v 0.3000002 0.3707107 0.4707107 1 1 1
v -0.3 0.3707107 0.4707108 1 1 1
v -0.3 0.4 0.4000002 1 1 1
v 1.057982E-07 0.4 0.4000001 1 1 1
v 0.3000002 0.4 0.4 1 1 1
v 0.3500002 0.4 0.3 1 1 1
v -7.674112E-08 0.4 -0.3000001 1 1 1
v 0.3000002 0.4 0.35 1 1 1
v -0.3 0.4 0.3500001 1 1 1
v -0.35 0.4 0.3000002 1 1 1
v 0.3000002 0.1 0.5000001 1 1 1
v -0.3 0.1 0.5000002 1 1 1
v -0.5000001 0.1 0.3000002 1 1 1
v -0.5000002 0.1 -0.3 1 1 1
v 0.5000002 0.1 0.3 1 1 1
v 0.5 0.1 -0.3000002 1 1 1
v 0.3000002 0.02928932 0.4707107 1 1 1
v -0.3 0.02928932 0.4707108 1 1 1
v -0.4707107 0.02928932 0.3000002 1 1 1
v -0.4 -9.023893E-17 0.3000002 1 1 1
v -0.4707109 0.02928932 -0.3 1 1 1
v -0.4000002 -9.023893E-17 -0.3 1 1 1
v -0.3 -9.023893E-17 0.4000002 1 1 1
v 0.3000002 -9.023893E-17 0.4 1 1 1
v 0.4707109 0.02928932 0.3 1 1 1
v 0.4707107 0.02928932 -0.3000002 1 1 1
v 0.4 -9.023893E-17 -0.3000001 1 1 1
v 0.4000002 -9.023893E-17 0.3 1 1 1
v -0.3 -9.023893E-17 0.3000002 1 1 1
v 0.3000002 -9.023893E-17 0.3 1 1 1
v -0.4000002 0.1198912 -0.4 1 1 1
v -0.4000002 0.2801088 -0.4 1 1 1
v -0.4000002 0.1198912 -0.5 1 1 1
v -0.4000002 0.2801088 -0.5 1 1 1
v -0.380109 0.1 -0.4 1 1 1
v -0.380109 0.1 -0.5 1 1 1
v 0.3801087 0.1 -0.4000001 1 1 1
v 0.3801087 0.1 -0.5000002 1 1 1
v -0.380109 0.3 -0.4 1 1 1
v 0.3801087 0.3 -0.4000001 1 1 1
v -0.380109 0.3 -0.5 1 1 1
v 0.3801087 0.3 -0.5000002 1 1 1
v 0.4 0.1198912 -0.4000001 1 1 1
v 0.4 0.1198912 -0.5000002 1 1 1
v 0.4 0.2801088 -0.4000001 1 1 1
v 0.4 0.2801088 -0.5000002 1 1 1
v 0.4707107 0.02928932 -0.3000001 1 1 1
v 0.5000001 0.1 -0.3000001 1 1 1
v 0.4707107 0.02928932 -0.5000002 1 1 1
v 0.5 0.1 -0.5000002 1 1 1
v 0.4 0 -0.3000001 1 1 1
v 0.4 0 -0.5000002 1 1 1
v -0.4707108 0.3707107 -0.2999999 1 1 1
v -0.4707109 0.3707107 -0.5 1 1 1
v -0.4000002 0.4 -0.2999999 1 1 1
v -0.4000002 0.4 -0.5 1 1 1
v -0.5000002 0.3 -0.2999999 1 1 1
v -0.5000002 0.3 -0.5 1 1 1
v -0.4000002 0 -0.2999999 1 1 1
v -0.4000002 0 -0.5 1 1 1
v 0.4 0.4 -0.3000001 1 1 1
v 0.4 0.4 -0.5000002 1 1 1
v -0.5000002 0.1 -0.2999999 1 1 1
v -0.4707108 0.02928932 -0.2999999 1 1 1
v -0.5000002 0.1 -0.5 1 1 1
v -0.4707109 0.02928932 -0.5 1 1 1
v 0.5000001 0.3 -0.3000001 1 1 1
v 0.5 0.3 -0.5000002 1 1 1
v 0.4707107 0.3707107 -0.3000001 1 1 1
v 0.4707107 0.3707107 -0.5000002 1 1 1
v -0.3 0.1 0.5000002 1 1 1
v -0.5000001 0.1 0.5000002 1 1 1
v -0.3 0.3 0.5000002 1 1 1
v -0.5000001 0.3 0.5000002 1 1 1
v 0.5000002 0.1 0.5 1 1 1
v 0.5000002 0.3 0.5 1 1 1
v 0.5000002 0.1 0.2999999 1 1 1
v 0.5000002 0.3 0.2999999 1 1 1
v 0.3000001 -9.023893E-17 0.3 1 1 1
v 0.3000001 -9.023893E-17 0.4 1 1 1
v 0.4000001 -9.023893E-17 0.3 1 1 1
v 0.4000002 -9.023893E-17 0.4 1 1 1
v 0.3000002 0.1 0.5 1 1 1
v 0.3000002 0.3 0.5 1 1 1
v -0.4707107 0.02928932 0.4707109 1 1 1
v -0.3 0.02928932 0.4707108 1 1 1
v -0.4 -9.023893E-17 0.4000002 1 1 1
v -0.3 -9.023893E-17 0.4000002 1 1 1
v -0.5000001 0.1 0.3000002 1 1 1
v -0.5000001 0.3 0.3000002 1 1 1
v 0.3000002 0.3707107 0.4707107 1 1 1
v 0.3000001 0.4 0.4 1 1 1
v 0.4707109 0.3707107 0.4707106 1 1 1
v 0.4000002 0.4 0.4 1 1 1
v -0.4707108 0.02928932 0.3000002 1 1 1
v -0.4000001 0.4 0.3000002 1 1 1
v -0.3500001 0.4 0.3000002 1 1 1
v -0.4 0.4 0.4000002 1 1 1
v -0.3 0.4 0.4000001 1 1 1
v -0.3 0.4 0.3500001 1 1 1
v 0.4707109 0.02928932 0.4707106 1 1 1
v 0.4707108 0.02928932 0.2999999 1 1 1
v -0.3 0.3707107 0.4707108 1 1 1
v -0.4707107 0.3707107 0.4707109 1 1 1
v -0.4707108 0.3707107 0.3000002 1 1 1
v 0.3000002 0.02928932 0.4707107 1 1 1
v 0.4707108 0.3707107 0.2999999 1 1 1
v -0.4000001 -9.023893E-17 0.3000002 1 1 1
v -0.3 -9.023893E-17 0.3000002 1 1 1
v 0.4000001 0.4 0.3 1 1 1
v 0.3000001 0.4 0.35 1 1 1
v 0.3500001 0.4 0.3 1 1 1

vn 0.4541466 0.4541464 -0.7664869
vn 0.6422603 0 -0.766487
vn 0.6565323 0.6565321 -0.3713908
vn 0.928477 0 -0.3713908
vn -0.6422603 0 -0.766487
vn -0.4541466 0.4541464 -0.7664869
vn -0.928477 0 -0.3713908
vn -0.6565323 0.6565321 -0.3713908
vn -0.4541466 -0.4541464 -0.7664869
vn -0.6565323 -0.6565321 -0.3713908
vn 0.6565323 -0.6565321 -0.3713908
vn 0.4541466 -0.4541464 -0.7664869
vn 0 -0.9284768 -0.3713908
vn 0 -0.6422601 -0.766487
vn 0 0.6422601 -0.766487
vn 0 0.9284768 -0.3713908
vn 0.1950904 0.9807853 -4.651316E-08
vn 0.7071069 0.7071068 -1.685874E-07
vn 0.1950903 0.9807853 -4.651316E-08
vn 0.7071069 0.7071068 -1.685874E-07
vn 0.9807855 0.1950903 -2.338375E-07
vn -0.7071069 0.7071068 1.685874E-07
vn -0.1950904 0.9807853 4.651316E-08
vn -0.9807855 0.1950903 2.338375E-07
vn 2.338375E-07 0.1950903 0.9807855
vn 1.685874E-07 0.7071068 0.7071069
vn 1.685874E-07 0.7071068 0.7071069
vn 4.651316E-08 0.9807853 0.1950903
vn 4.651316E-08 0.9807853 0.1950904
vn 0 1 0
vn 2.338375E-07 -0.1950903 0.9807855
vn -0.9807855 -0.1950903 2.338375E-07
vn 0.9807855 -0.1950903 -2.338375E-07
vn 1.685874E-07 -0.7071068 0.7071069
vn -0.7071069 -0.7071068 1.685874E-07
vn -0.1950904 -0.9807853 4.651316E-08
vn 4.651316E-08 -0.9807853 0.1950904
vn 4.651316E-08 -0.9807853 0.1950904
vn 0.7071069 -0.7071068 -1.685874E-07
vn 0.1950904 -0.9807853 -4.651316E-08
vn 0.1950904 -0.9807853 -4.651316E-08
vn 0 -1 0
vn 0.9238797 0.3826834 -2.202701E-07
vn 0.9238797 -0.3826834 -2.202701E-07
vn 0.3826835 0.9238795 -9.123885E-08
vn -0.3826835 0.9238795 9.123885E-08
vn 0.3826835 -0.9238795 -9.123885E-08
vn -0.3826835 -0.9238795 9.123885E-08
vn -0.9238797 0.3826834 2.202701E-07
vn -2.384186E-07 0 -1
vn -0.9238797 -0.3826834 2.202701E-07
vn 0.9807855 0.1950903 -2.338375E-07
vn -0.6871106 -0.2361315 0.6871109
vn 2.338375E-07 0.1950904 0.9807855
vn -0.6871106 0.2361315 0.6871109
vn 0.6871109 -0.2361315 0.6871106
vn 0.6871109 0.2361315 0.6871106
vn 0.9807855 0.1950904 -2.338375E-07
vn 0.1481469 -0.9778062 0.1481469
vn 2.338375E-07 0.1950903 0.9807855
vn -0.4974923 -0.7106354 0.4974925
vn -0.1481469 -0.9778062 0.1481469
vn 0.4974926 0.7106355 0.4974923
vn 0.1481469 0.9778062 0.1481469
vn -0.1481469 0.9778062 0.1481469
vn 0.4974925 -0.7106354 0.4974923
vn -0.4974923 0.7106355 0.4974925

vt 0.34375 0.1815685
vt 0.34375 0.125
vt 0.34375 0.1957107
vt 0.34375 0.06843146
vt 0.34375 0.05428932
vt 0.34375 0.025
vt 0.34375 0.045
vt 0.34375 0.205
vt 0.34375 0.225
vt 0.09375 0.225
vt 0.09375 0.2103553
vt 0.09375 0.175
vt 0.09375 0.075
vt 0.09375 0.03964466
vt 0.09375 0.025
vt 0.09375 0.1049728
vt 0.09375 0.1450272
vt 0.09375 0.1
vt 0.09375 0.15
vt 0.46875 0.08232233
vt 0.46875 0.1
vt 0.46875 0.075
vt 0.46875 0.1676777
vt 0.46875 0.175
vt 0.46875 0.15
vt 0.46875 0.1049728
vt 0.46875 0.1450272

usemtl colormap

f 3/3/3 2/2/2 1/1/1
f 2/2/2 3/3/3 4/2/4
f 7/2/7 6/1/6 5/2/5
f 6/1/6 7/2/7 8/3/8
f 10/5/10 5/2/5 9/4/9
f 5/2/5 10/5/10 7/2/7
f 13/6/13 12/4/12 11/5/11
f 12/4/12 13/6/13 14/7/14
f 6/1/6 16/9/16 15/8/15
f 16/9/16 6/1/6 8/3/8
f 4/2/4 12/4/12 2/2/2
f 12/4/12 4/2/4 11/5/11
f 9/4/9 12/4/12 14/7/14
f 12/4/12 9/4/9 5/2/5
f 12/4/12 5/2/5 2/2/2
f 2/2/2 5/2/5 1/1/1
f 1/1/1 5/2/5 6/1/6
f 1/1/1 6/1/6 15/8/15
f 1/1/1 16/9/16 3/3/3
f 16/9/16 1/1/1 15/8/15
f 13/6/13 9/4/9 14/7/14
f 9/4/9 13/6/13 10/5/10
f 19/3/3 18/2/2 17/1/1
f 18/2/2 19/3/3 20/2/4
f 23/2/7 22/1/6 21/2/5
f 22/1/6 23/2/7 24/3/8
f 26/5/10 21/2/5 25/4/9
f 21/2/5 26/5/10 23/2/7
f 29/6/13 28/4/12 27/5/11
f 28/4/12 29/6/13 30/7/14
f 22/1/6 32/9/16 31/8/15
f 32/9/16 22/1/6 24/3/8
f 20/2/4 28/4/12 18/2/2
f 28/4/12 20/2/4 27/5/11
f 25/4/9 28/4/12 30/7/14
f 28/4/12 25/4/9 21/2/5
f 28/4/12 21/2/5 18/2/2
f 18/2/2 21/2/5 17/1/1
f 17/1/1 21/2/5 22/1/6
f 17/1/1 22/1/6 31/8/15
f 17/1/1 32/9/16 19/3/3
f 32/9/16 17/1/1 31/8/15
f 29/6/13 25/4/9 30/7/14
f 25/4/9 29/6/13 26/5/10
f 35/10/19 34/11/18 33/10/17
f 34/11/18 35/10/19 36/11/20
f 38/12/21 36/11/20 37/12/21
f 36/11/20 38/12/21 34/11/18
f 41/10/23 40/11/22 39/11/22
f 40/11/22 41/10/23 42/10/23
f 40/11/22 43/12/24 39/11/22
f 43/12/24 40/11/22 44/12/24
f 47/11/26 46/12/25 45/12/25
f 46/12/25 47/11/26 48/11/27
f 48/11/27 50/10/29 49/10/28
f 50/10/29 48/11/27 47/11/26
f 50/10/29 47/11/26 51/10/29
f 33/10/17 52/10/30 35/10/19
f 52/10/30 33/10/17 53/10/30
f 50/10/29 52/10/30 53/10/30
f 52/10/30 50/10/29 54/10/30
f 54/10/30 50/10/29 51/10/29
f 55/10/30 50/10/29 53/10/30
f 50/10/29 55/10/30 49/10/28
f 53/10/30 56/10/30 55/10/30
f 42/10/23 56/10/30 53/10/30
f 56/10/30 42/10/23 41/10/23
f 45/12/25 58/13/31 57/13/31
f 58/13/31 45/12/25 46/12/25
f 43/12/24 60/13/32 59/13/32
f 60/13/32 43/12/24 44/12/24
f 62/13/33 37/12/21 61/13/33
f 37/12/21 62/13/33 38/12/21
f 57/13/31 64/14/34 63/14/34
f 64/14/34 57/13/31 58/13/31
f 67/14/35 66/15/36 65/14/35
f 66/15/36 67/14/35 68/15/36
f 60/13/32 65/14/35 59/13/32
f 65/14/35 60/13/32 67/14/35
f 70/15/38 64/14/34 69/15/37
f 64/14/34 70/15/38 63/14/34
f 71/14/39 62/13/33 61/13/33
f 62/13/33 71/14/39 72/14/39
f 72/14/39 74/15/41 73/15/40
f 74/15/41 72/14/39 71/14/39
f 68/15/36 75/15/42 66/15/36
f 75/15/42 68/15/36 73/15/40
f 75/15/42 73/15/40 69/15/37
f 69/15/37 73/15/40 76/15/42
f 76/15/42 73/15/40 74/15/41
f 70/15/38 69/15/37 76/15/42
f 79/16/43 78/17/44 77/16/43
f 78/17/44 79/16/43 80/17/44
f 83/18/46 82/18/45 81/18/45
f 82/18/45 83/18/46 84/18/46
f 87/19/47 86/19/48 85/19/47
f 86/19/48 87/19/47 88/19/48
f 81/18/45 79/16/43 77/16/43
f 79/16/43 81/18/45 82/18/45
f 80/17/44 85/19/47 78/17/44
f 85/19/47 80/17/44 87/19/47
f 89/16/49 84/18/46 83/18/46
f 84/18/46 89/16/49 90/16/49
f 81/18/50 89/16/50 83/18/50
f 89/16/50 81/18/50 77/16/50
f 89/16/50 77/16/50 78/17/50
f 89/16/50 78/17/50 91/17/50
f 91/17/50 78/17/50 85/19/50
f 91/17/50 85/19/50 86/19/50
f 88/19/48 91/17/51 86/19/48
f 91/17/51 88/19/48 92/17/51
f 92/17/51 89/16/49 91/17/51
f 89/16/49 92/17/51 90/16/49
f 95/20/39 94/21/33 93/20/39
f 94/21/33 95/20/39 96/21/33
f 98/22/41 93/20/39 97/22/41
f 93/20/39 98/22/41 95/20/39
f 101/24/23 100/23/22 99/23/22
f 100/23/22 101/24/23 102/24/23
f 100/23/22 103/25/24 99/23/22
f 103/25/24 100/23/22 104/25/24
f 106/22/36 97/22/41 105/22/36
f 97/22/41 106/22/36 98/22/41
f 107/24/17 102/24/23 101/24/23
f 102/24/23 107/24/17 108/24/17
f 111/21/32 110/20/35 109/21/32
f 110/20/35 111/21/32 112/20/35
f 96/21/33 113/25/52 94/21/33
f 113/25/52 96/21/33 114/25/52
f 112/20/35 105/22/36 110/20/35
f 105/22/36 112/20/35 106/22/36
f 104/25/24 109/21/32 103/25/24
f 109/21/32 104/25/24 111/21/32
f 115/23/18 108/24/17 107/24/17
f 108/24/17 115/23/18 116/23/18
f 114/25/52 115/23/18 113/25/52
f 115/23/18 114/25/52 116/23/18
f 112/20/50 98/22/50 106/22/50
f 98/22/50 112/20/50 95/20/50
f 95/20/50 112/20/50 96/21/50
f 96/21/50 112/20/50 111/21/50
f 96/21/50 111/21/50 84/21/50
f 111/21/50 82/21/50 84/21/50
f 96/21/50 84/21/50 90/26/50
f 82/21/50 111/21/50 79/26/50
f 96/21/50 90/26/50 114/25/50
f 79/26/50 111/21/50 104/25/50
f 114/25/50 90/26/50 92/27/50
f 79/26/50 104/25/50 80/27/50
f 114/25/50 92/27/50 88/25/50
f 80/27/50 104/25/50 87/25/50
f 114/25/50 88/25/50 87/25/50
f 114/25/50 87/25/50 104/25/50
f 114/25/50 104/25/50 100/23/50
f 114/25/50 100/23/50 116/23/50
f 116/23/50 100/23/50 102/24/50
f 116/23/50 102/24/50 108/24/50
f 119/25/54 118/21/53 117/21/31
f 118/21/53 119/25/54 120/25/55
f 123/21/33 122/25/57 121/21/56
f 122/25/57 123/21/33 124/25/58
f 127/22/41 126/22/38 125/22/42
f 126/22/38 127/22/41 128/22/59
f 122/25/57 129/21/31 121/21/56
f 129/21/31 122/25/57 130/25/60
f 133/22/62 132/20/34 131/20/61
f 132/20/34 133/22/62 134/22/37
f 120/25/55 135/21/32 118/21/53
f 135/21/32 120/25/55 136/25/24
f 132/20/34 118/21/53 131/20/61
f 118/21/53 132/20/34 117/21/31
f 139/23/63 138/24/29 137/23/26
f 138/24/29 139/23/63 140/24/64
f 135/21/32 131/20/61 118/21/53
f 131/20/61 135/21/32 141/20/35
f 144/24/65 143/24/30 142/24/23
f 143/24/30 144/24/65 145/24/29
f 143/24/30 145/24/29 146/24/30
f 147/20/66 123/21/33 121/21/56
f 123/21/33 147/20/66 148/20/39
f 149/23/26 120/25/55 119/25/54
f 120/25/55 149/23/26 150/23/67
f 149/23/26 144/24/65 150/23/67
f 144/24/65 149/23/26 145/24/29
f 150/23/67 142/24/23 151/23/22
f 142/24/23 150/23/67 144/24/65
f 128/22/59 152/20/34 126/22/38
f 152/20/34 128/22/59 147/20/66
f 124/25/58 139/23/63 122/25/57
f 139/23/63 124/25/58 153/23/18
f 139/23/63 130/25/60 122/25/57
f 130/25/60 139/23/63 137/23/26
f 155/22/42 133/22/62 154/22/36
f 133/22/62 155/22/42 134/22/37
f 154/22/36 131/20/61 141/20/35
f 131/20/61 154/22/36 133/22/62
f 121/21/56 152/20/34 147/20/66
f 152/20/34 121/21/56 129/21/31
f 139/23/63 156/24/17 140/24/64
f 156/24/17 139/23/63 153/23/18
f 127/22/41 147/20/66 128/22/59
f 147/20/66 127/22/41 148/20/39
f 150/23/67 136/25/24 120/25/55
f 136/25/24 150/23/67 151/23/22
f 140/24/64 157/24/30 138/24/29
f 157/24/30 140/24/64 158/24/30
f 158/24/30 140/24/64 156/24/17

g conveyor-stripe-junction-t




usemtl colormap

f 3/3/3 2/2/2 1/1/1
f 2/2/2 3/3/3 4/2/4
f 7/2/7 6/1/6 5/2/5
f 6/1/6 7/2/7 8/3/8
f 10/5/10 5/2/5 9/4/9
f 5/2/5 10/5/10 7/2/7
f 13/6/13 12/4/12 11/5/11
f 12/4/12 13/6/13 14/7/14
f 6/1/6 16/9/16 15/8/15
f 16/9/16 6/1/6 8/3/8
f 4/2/4 12/4/12 2/2/2
f 12/4/12 4/2/4 11/5/11
f 9/4/9 12/4/12 14/7/14
f 12/4/12 9/4/9 5/2/5
f 12/4/12 5/2/5 2/2/2
f 2/2/2 5/2/5 1/1/1
f 1/1/1 5/2/5 6/1/6
f 1/1/1 6/1/6 15/8/15
f 1/1/1 16/9/16 3/3/3
f 16/9/16 1/1/1 15/8/15
f 13/6/13 9/4/9 14/7/14
f 9/4/9 13/6/13 10/5/10
f 19/3/3 18/2/2 17/1/1
f 18/2/2 19/3/3 20/2/4
f 23/2/7 22/1/6 21/2/5
f 22/1/6 23/2/7 24/3/8
f 26/5/10 21/2/5 25/4/9
f 21/2/5 26/5/10 23/2/7
f 29/6/13 28/4/12 27/5/11
f 28/4/12 29/6/13 30/7/14
f 22/1/6 32/9/16 31/8/15
f 32/9/16 22/1/6 24/3/8
f 20/2/4 28/4/12 18/2/2
f 28/4/12 20/2/4 27/5/11
f 25/4/9 28/4/12 30/7/14
f 28/4/12 25/4/9 21/2/5
f 28/4/12 21/2/5 18/2/2
f 18/2/2 21/2/5 17/1/1
f 17/1/1 21/2/5 22/1/6
f 17/1/1 22/1/6 31/8/15
f 17/1/1 32/9/16 19/3/3
f 32/9/16 17/1/1 31/8/15
f 29/6/13 25/4/9 30/7/14
f 25/4/9 29/6/13 26/5/10
f 35/10/19 34/11/18 33/10/17
f 34/11/18 35/10/19 36/11/20
f 38/12/21 36/11/20 37/12/21
f 36/11/20 38/12/21 34/11/18
f 41/10/23 40/11/22 39/11/22
f 40/11/22 41/10/23 42/10/23
f 40/11/22 43/12/24 39/11/22
f 43/12/24 40/11/22 44/12/24
f 47/11/26 46/12/25 45/12/25
f 46/12/25 47/11/26 48/11/27
f 48/11/27 50/10/29 49/10/28
f 50/10/29 48/11/27 47/11/26
f 50/10/29 47/11/26 51/10/29
f 33/10/17 52/10/30 35/10/19
f 52/10/30 33/10/17 53/10/30
f 50/10/29 52/10/30 53/10/30
f 52/10/30 50/10/29 54/10/30
f 54/10/30 50/10/29 51/10/29
f 55/10/30 50/10/29 53/10/30
f 50/10/29 55/10/30 49/10/28
f 53/10/30 56/10/30 55/10/30
f 42/10/23 56/10/30 53/10/30
f 56/10/30 42/10/23 41/10/23
f 45/12/25 58/13/31 57/13/31
f 58/13/31 45/12/25 46/12/25
f 43/12/24 60/13/32 59/13/32
f 60/13/32 43/12/24 44/12/24
f 62/13/33 37/12/21 61/13/33
f 37/12/21 62/13/33 38/12/21
f 57/13/31 64/14/34 63/14/34
f 64/14/34 57/13/31 58/13/31
f 67/14/35 66/15/36 65/14/35
f 66/15/36 67/14/35 68/15/36
f 60/13/32 65/14/35 59/13/32
f 65/14/35 60/13/32 67/14/35
f 70/15/38 64/14/34 69/15/37
f 64/14/34 70/15/38 63/14/34
f 71/14/39 62/13/33 61/13/33
f 62/13/33 71/14/39 72/14/39
f 72/14/39 74/15/41 73/15/40
f 74/15/41 72/14/39 71/14/39
f 68/15/36 75/15/42 66/15/36
f 75/15/42 68/15/36 73/15/40
f 75/15/42 73/15/40 69/15/37
f 69/15/37 73/15/40 76/15/42
f 76/15/42 73/15/40 74/15/41
f 70/15/38 69/15/37 76/15/42
f 79/16/43 78/17/44 77/16/43
f 78/17/44 79/16/43 80/17/44
f 83/18/46 82/18/45 81/18/45
f 82/18/45 83/18/46 84/18/46
f 87/19/47 86/19/48 85/19/47
f 86/19/48 87/19/47 88/19/48
f 81/18/45 79/16/43 77/16/43
f 79/16/43 81/18/45 82/18/45
f 80/17/44 85/19/47 78/17/44
f 85/19/47 80/17/44 87/19/47
f 89/16/49 84/18/46 83/18/46
f 84/18/46 89/16/49 90/16/49
f 81/18/50 89/16/50 83/18/50
f 89/16/50 81/18/50 77/16/50
f 89/16/50 77/16/50 78/17/50
f 89/16/50 78/17/50 91/17/50
f 91/17/50 78/17/50 85/19/50
f 91/17/50 85/19/50 86/19/50
f 88/19/48 91/17/51 86/19/48
f 91/17/51 88/19/48 92/17/51
f 92/17/51 89/16/49 91/17/51
f 89/16/49 92/17/51 90/16/49
f 95/20/39 94/21/33 93/20/39
f 94/21/33 95/20/39 96/21/33
f 98/22/41 93/20/39 97/22/41
f 93/20/39 98/22/41 95/20/39
f 101/24/23 100/23/22 99/23/22
f 100/23/22 101/24/23 102/24/23
f 100/23/22 103/25/24 99/23/22
f 103/25/24 100/23/22 104/25/24
f 106/22/36 97/22/41 105/22/36
f 97/22/41 106/22/36 98/22/41
f 107/24/17 102/24/23 101/24/23
f 102/24/23 107/24/17 108/24/17
f 111/21/32 110/20/35 109/21/32
f 110/20/35 111/21/32 112/20/35
f 96/21/33 113/25/52 94/21/33
f 113/25/52 96/21/33 114/25/52
f 112/20/35 105/22/36 110/20/35
f 105/22/36 112/20/35 106/22/36
f 104/25/24 109/21/32 103/25/24
f 109/21/32 104/25/24 111/21/32
f 115/23/18 108/24/17 107/24/17
f 108/24/17 115/23/18 116/23/18
f 114/25/52 115/23/18 113/25/52
f 115/23/18 114/25/52 116/23/18
f 112/20/50 98/22/50 106/22/50
f 98/22/50 112/20/50 95/20/50
f 95/20/50 112/20/50 96/21/50
f 96/21/50 112/20/50 111/21/50
f 96/21/50 111/21/50 84/21/50
f 111/21/50 82/21/50 84/21/50
f 96/21/50 84/21/50 90/26/50
f 82/21/50 111/21/50 79/26/50
f 96/21/50 90/26/50 114/25/50
f 79/26/50 111/21/50 104/25/50
f 114/25/50 90/26/50 92/27/50
f 79/26/50 104/25/50 80/27/50
f 114/25/50 92/27/50 88/25/50
f 80/27/50 104/25/50 87/25/50
f 114/25/50 88/25/50 87/25/50
f 114/25/50 87/25/50 104/25/50
f 114/25/50 104/25/50 100/23/50
f 114/25/50 100/23/50 116/23/50
f 116/23/50 100/23/50 102/24/50
f 116/23/50 102/24/50 108/24/50
f 119/25/54 118/21/53 117/21/31
f 118/21/53 119/25/54 120/25/55
f 123/21/33 122/25/57 121/21/56
f 122/25/57 123/21/33 124/25/58
f 127/22/41 126/22/38 125/22/42
f 126/22/38 127/22/41 128/22/59
f 122/25/57 129/21/31 121/21/56
f 129/21/31 122/25/57 130/25/60
f 133/22/62 132/20/34 131/20/61
f 132/20/34 133/22/62 134/22/37
f 120/25/55 135/21/32 118/21/53
f 135/21/32 120/25/55 136/25/24
f 132/20/34 118/21/53 131/20/61
f 118/21/53 132/20/34 117/21/31
f 139/23/63 138/24/29 137/23/26
f 138/24/29 139/23/63 140/24/64
f 135/21/32 131/20/61 118/21/53
f 131/20/61 135/21/32 141/20/35
f 144/24/65 143/24/30 142/24/23
f 143/24/30 144/24/65 145/24/29
f 143/24/30 145/24/29 146/24/30
f 147/20/66 123/21/33 121/21/56
f 123/21/33 147/20/66 148/20/39
f 149/23/26 120/25/55 119/25/54
f 120/25/55 149/23/26 150/23/67
f 149/23/26 144/24/65 150/23/67
f 144/24/65 149/23/26 145/24/29
f 150/23/67 142/24/23 151/23/22
f 142/24/23 150/23/67 144/24/65
f 128/22/59 152/20/34 126/22/38
f 152/20/34 128/22/59 147/20/66
f 124/25/58 139/23/63 122/25/57
f 139/23/63 124/25/58 153/23/18
f 139/23/63 130/25/60 122/25/57
f 130/25/60 139/23/63 137/23/26
f 155/22/42 133/22/62 154/22/36
f 133/22/62 155/22/42 134/22/37
f 154/22/36 131/20/61 141/20/35
f 131/20/61 154/22/36 133/22/62
f 121/21/56 152/20/34 147/20/66
f 152/20/34 121/21/56 129/21/31
f 139/23/63 156/24/17 140/24/64
f 156/24/17 139/23/63 153/23/18
f 127/22/41 147/20/66 128/22/59
f 147/20/66 127/22/41 148/20/39
f 150/23/67 136/25/24 120/25/55
f 136/25/24 150/23/67 151/23/22
f 140/24/64 157/24/30 138/24/29
f 157/24/30 140/24/64 158/24/30
f 158/24/30 140/24/64 156/24/17

