# Created by Kenney (www.kenney.nl)

mtllib conveyor-bars.mtl

g conveyor-bars

v -0.375 0.25 -0.5 1 1 1
v -0.4785534 0.2285534 -0.5 1 1 1
v -0.2714466 0.2285534 -0.5 1 1 1
v -0.375 0.1989389 -0.5 1 1 1
v -0.313747 0.186253 -0.5 1 1 1
v -0.436253 0.186253 -0.5 1 1 1
v -0.3010611 0.125 -0.5 1 1 1
v -0.25 0.125 -0.5 1 1 1
v -0.5 0.125 -0.5 1 1 1
v -0.4489389 0.125 -0.5 1 1 1
v -0.436253 0.06374699 -0.5 1 1 1
v -0.313747 0.06374699 -0.5 1 1 1
v -0.4785534 0.02144661 -0.5 1 1 1
v -0.375 0.05106107 -0.5 1 1 1
v -0.2714466 0.02144661 -0.5 1 1 1
v -0.375 -7.710263E-29 -0.5 1 1 1
v -0.375 -7.710263E-29 0.5 1 1 1
v -0.4785534 0.02144661 0.5 1 1 1
v -0.2714466 0.02144661 0.5 1 1 1
v -0.313747 0.06374699 0.5 1 1 1
v -0.25 0.125 0.5 1 1 1
v -0.375 0.05106107 0.5 1 1 1
v -0.3010611 0.125 0.5 1 1 1
v -0.436253 0.06374699 0.5 1 1 1
v -0.2714466 0.2285534 0.5 1 1 1
v -0.5 0.125 0.5 1 1 1
v -0.4489389 0.125 0.5 1 1 1
v -0.436253 0.186253 0.5 1 1 1
v -0.313747 0.186253 0.5 1 1 1
v -0.4785534 0.2285534 0.5 1 1 1
v -0.375 0.1989389 0.5 1 1 1
v -0.375 0.25 0.5 1 1 1
v 0.375 0.25 -0.5 1 1 1
v 0.2714466 0.2285534 -0.5 1 1 1
v 0.4785534 0.2285534 -0.5 1 1 1
v 0.375 0.1989389 -0.5 1 1 1
v 0.436253 0.186253 -0.5 1 1 1
v 0.313747 0.186253 -0.5 1 1 1
v 0.4489389 0.125 -0.5 1 1 1
v 0.5 0.125 -0.5 1 1 1
v 0.25 0.125 -0.5 1 1 1
v 0.3010611 0.125 -0.5 1 1 1
v 0.313747 0.06374699 -0.5 1 1 1
v 0.436253 0.06374699 -0.5 1 1 1
v 0.2714466 0.02144661 -0.5 1 1 1
v 0.375 0.05106107 -0.5 1 1 1
v 0.4785534 0.02144661 -0.5 1 1 1
v 0.375 -1.353584E-15 -0.5 1 1 1
v 0.375 -1.353584E-15 0.5 1 1 1
v 0.2714466 0.02144661 0.5 1 1 1
v 0.4785534 0.02144661 0.5 1 1 1
v 0.436253 0.06374699 0.5 1 1 1
v 0.5 0.125 0.5 1 1 1
v 0.375 0.05106107 0.5 1 1 1
v 0.4489389 0.125 0.5 1 1 1
v 0.313747 0.06374699 0.5 1 1 1
v 0.4785534 0.2285534 0.5 1 1 1
v 0.25 0.125 0.5 1 1 1
v 0.3010611 0.125 0.5 1 1 1
v 0.313747 0.186253 0.5 1 1 1
v 0.436253 0.186253 0.5 1 1 1
v 0.2714466 0.2285534 0.5 1 1 1
v 0.375 0.1989389 0.5 1 1 1
v 0.375 0.25 0.5 1 1 1
v -0.125 0.25 -0.5 1 1 1
v -0.2285534 0.2285534 -0.5 1 1 1
v -0.02144661 0.2285534 -0.5 1 1 1
v -0.125 0.1989389 -0.5 1 1 1
v -0.06374699 0.186253 -0.5 1 1 1
v -0.186253 0.186253 -0.5 1 1 1
v -0.05106107 0.125 -0.5 1 1 1
v 0 0.125 -0.5 1 1 1
v -0.1989389 0.125 -0.5 1 1 1
v -0.186253 0.06374699 -0.5 1 1 1
v -0.06374699 0.06374699 -0.5 1 1 1
v -0.2285534 0.02144661 -0.5 1 1 1
v -0.125 0.05106107 -0.5 1 1 1
v -0.02144661 0.02144661 -0.5 1 1 1
v -0.125 -4.511947E-16 -0.5 1 1 1
v -0.125 -4.511947E-16 0.5 1 1 1
v -0.2285534 0.02144661 0.5 1 1 1
v -0.02144661 0.02144661 0.5 1 1 1
v -0.06374699 0.06374699 0.5 1 1 1
v 0 0.125 0.5 1 1 1
v -0.125 0.05106107 0.5 1 1 1
v -0.05106107 0.125 0.5 1 1 1
v -0.186253 0.06374699 0.5 1 1 1
v -0.02144661 0.2285534 0.5 1 1 1
v -0.1989389 0.125 0.5 1 1 1
v -0.186253 0.186253 0.5 1 1 1
v -0.06374699 0.186253 0.5 1 1 1
v -0.2285534 0.2285534 0.5 1 1 1
v -0.125 0.1989389 0.5 1 1 1
v -0.125 0.25 0.5 1 1 1
v 0.125 0.25 -0.5 1 1 1
v 0.02144661 0.2285534 -0.5 1 1 1
v 0.2285534 0.2285534 -0.5 1 1 1
v 0.125 0.1989389 -0.5 1 1 1
v 0.186253 0.186253 -0.5 1 1 1
v 0.06374699 0.186253 -0.5 1 1 1
v 0.1989389 0.125 -0.5 1 1 1
v 0.05106107 0.125 -0.5 1 1 1
v 0.06374699 0.06374699 -0.5 1 1 1
v 0.186253 0.06374699 -0.5 1 1 1
v 0.02144661 0.02144661 -0.5 1 1 1
v 0.125 0.05106107 -0.5 1 1 1
v 0.2285534 0.02144661 -0.5 1 1 1
v 0.125 -9.023893E-16 -0.5 1 1 1
v 0.125 -9.023893E-16 0.5 1 1 1
v 0.02144661 0.02144661 0.5 1 1 1
v 0.2285534 0.02144661 0.5 1 1 1
v 0.186253 0.06374699 0.5 1 1 1
v 0.125 0.05106107 0.5 1 1 1
v 0.1989389 0.125 0.5 1 1 1
v 0.06374699 0.06374699 0.5 1 1 1
v 0.2285534 0.2285534 0.5 1 1 1
v 0.05106107 0.125 0.5 1 1 1
v 0.06374699 0.186253 0.5 1 1 1
v 0.186253 0.186253 0.5 1 1 1
v 0.02144661 0.2285534 0.5 1 1 1
v 0.125 0.1989389 0.5 1 1 1
v 0.125 0.25 0.5 1 1 1
v 0.125 0.1989389 0.5 1 1 1
v 0.125 0.1989389 -0.5 1 1 1
v -0.125 0.1989389 0.5 1 1 1
v -0.125 0.1989389 -0.5 1 1 1
v -0.375 0.1989389 0.5 1 1 1
v -0.375 0.1989389 -0.5 1 1 1
v 0.375 0.1989389 0.5 1 1 1
v 0.375 0.1989389 -0.5 1 1 1

vn 0 0 -1
vn 0 0 1
vn 0 -1 0
vn -0.7071068 -0.7071068 0
vn -1 0 0
vn -0.7071068 0.7071068 0
vn 0.7071068 0.7071068 0
vn 0 1 0
vn 1 0 0
vn 0.7071068 -0.7071068 0

vt 0.09375 0.225
vt 0.09375 0.2078427
vt 0.09375 0.1841511
vt 0.09375 0.1740024
vt 0.09375 0.125
vt 0.09375 0.07599759
vt 0.09375 0.04215728
vt 0.09375 0.06584886
vt 0.09375 0.025
vt 0.46875 0.175
vt 0.46875 0.1664214
vt 0.46875 0.125
vt 0.46875 0.08357865
vt 0.46875 0.075

usemtl colormap

f 3/2/1 2/2/1 1/1/1
f 4/3/1 2/2/1 3/2/1
f 3/2/1 5/4/1 4/3/1
f 6/4/1 2/2/1 4/3/1
f 3/2/1 7/5/1 5/4/1
f 8/5/1 7/5/1 3/2/1
f 6/4/1 9/5/1 2/2/1
f 10/5/1 9/5/1 6/4/1
f 11/6/1 9/5/1 10/5/1
f 8/5/1 12/6/1 7/5/1
f 11/6/1 13/7/1 9/5/1
f 13/7/1 11/6/1 14/8/1
f 12/6/1 13/7/1 14/8/1
f 15/7/1 12/6/1 8/5/1
f 15/7/1 13/7/1 12/6/1
f 13/7/1 15/7/1 16/9/1
f 19/7/2 18/7/2 17/9/2
f 18/7/2 19/7/2 20/6/2
f 20/6/2 19/7/2 21/5/2
f 18/7/2 20/6/2 22/8/2
f 20/6/2 21/5/2 23/5/2
f 24/6/2 18/7/2 22/8/2
f 23/5/2 21/5/2 25/2/2
f 18/7/2 24/6/2 26/5/2
f 26/5/2 24/6/2 27/5/2
f 26/5/2 27/5/2 28/4/2
f 23/5/2 25/2/2 29/4/2
f 26/5/2 28/4/2 30/2/2
f 29/4/2 25/2/2 31/3/2
f 30/2/2 28/4/2 31/3/2
f 30/2/2 31/3/2 25/2/2
f 30/2/2 25/2/2 32/1/2
f 18/7/4 16/9/3 17/9/3
f 16/9/3 18/7/4 13/7/4
f 26/5/5 2/2/6 9/5/5
f 2/2/6 26/5/5 30/2/6
f 1/1/8 25/2/7 3/2/7
f 25/2/7 1/1/8 32/1/8
f 21/5/9 15/7/10 8/5/9
f 15/7/10 21/5/9 19/7/10
f 17/9/3 15/7/10 19/7/10
f 15/7/10 17/9/3 16/9/3
f 2/2/6 32/1/8 1/1/8
f 32/1/8 2/2/6 30/2/6
f 18/7/4 9/5/5 13/7/4
f 9/5/5 18/7/4 26/5/5
f 25/2/7 8/5/9 3/2/7
f 8/5/9 25/2/7 21/5/9
f 35/2/1 34/2/1 33/1/1
f 36/3/1 34/2/1 35/2/1
f 35/2/1 37/4/1 36/3/1
f 38/4/1 34/2/1 36/3/1
f 35/2/1 39/5/1 37/4/1
f 40/5/1 39/5/1 35/2/1
f 38/4/1 41/5/1 34/2/1
f 42/5/1 41/5/1 38/4/1
f 43/6/1 41/5/1 42/5/1
f 40/5/1 44/6/1 39/5/1
f 43/6/1 45/7/1 41/5/1
f 45/7/1 43/6/1 46/8/1
f 44/6/1 45/7/1 46/8/1
f 47/7/1 44/6/1 40/5/1
f 47/7/1 45/7/1 44/6/1
f 45/7/1 47/7/1 48/9/1
f 51/7/2 50/7/2 49/9/2
f 50/7/2 51/7/2 52/6/2
f 52/6/2 51/7/2 53/5/2
f 50/7/2 52/6/2 54/8/2
f 52/6/2 53/5/2 55/5/2
f 56/6/2 50/7/2 54/8/2
f 55/5/2 53/5/2 57/2/2
f 50/7/2 56/6/2 58/5/2
f 58/5/2 56/6/2 59/5/2
f 58/5/2 59/5/2 60/4/2
f 55/5/2 57/2/2 61/4/2
f 58/5/2 60/4/2 62/2/2
f 61/4/2 57/2/2 63/3/2
f 62/2/2 60/4/2 63/3/2
f 62/2/2 63/3/2 57/2/2
f 62/2/2 57/2/2 64/1/2
f 50/7/4 48/9/3 49/9/3
f 48/9/3 50/7/4 45/7/4
f 58/5/5 34/2/6 41/5/5
f 34/2/6 58/5/5 62/2/6
f 33/1/8 57/2/7 35/2/7
f 57/2/7 33/1/8 64/1/8
f 53/5/9 47/7/10 40/5/9
f 47/7/10 53/5/9 51/7/10
f 49/9/3 47/7/10 51/7/10
f 47/7/10 49/9/3 48/9/3
f 34/2/6 64/1/8 33/1/8
f 64/1/8 34/2/6 62/2/6
f 50/7/4 41/5/5 45/7/4
f 41/5/5 50/7/4 58/5/5
f 57/2/7 40/5/9 35/2/7
f 40/5/9 57/2/7 53/5/9
f 67/2/1 66/2/1 65/1/1
f 68/3/1 66/2/1 67/2/1
f 67/2/1 69/4/1 68/3/1
f 70/4/1 66/2/1 68/3/1
f 67/2/1 71/5/1 69/4/1
f 72/5/1 71/5/1 67/2/1
f 70/4/1 8/5/1 66/2/1
f 73/5/1 8/5/1 70/4/1
f 74/6/1 8/5/1 73/5/1
f 72/5/1 75/6/1 71/5/1
f 74/6/1 76/7/1 8/5/1
f 76/7/1 74/6/1 77/8/1
f 75/6/1 76/7/1 77/8/1
f 78/7/1 75/6/1 72/5/1
f 78/7/1 76/7/1 75/6/1
f 76/7/1 78/7/1 79/9/1
f 82/7/2 81/7/2 80/9/2
f 81/7/2 82/7/2 83/6/2
f 83/6/2 82/7/2 84/5/2
f 81/7/2 83/6/2 85/8/2
f 83/6/2 84/5/2 86/5/2
f 87/6/2 81/7/2 85/8/2
f 86/5/2 84/5/2 88/2/2
f 81/7/2 87/6/2 21/5/2
f 21/5/2 87/6/2 89/5/2
f 21/5/2 89/5/2 90/4/2
f 86/5/2 88/2/2 91/4/2
f 21/5/2 90/4/2 92/2/2
f 91/4/2 88/2/2 93/3/2
f 92/2/2 90/4/2 93/3/2
f 92/2/2 93/3/2 88/2/2
f 92/2/2 88/2/2 94/1/2
f 81/7/4 79/9/3 80/9/3
f 79/9/3 81/7/4 76/7/4
f 21/5/5 66/2/6 8/5/5
f 66/2/6 21/5/5 92/2/6
f 65/1/8 88/2/7 67/2/7
f 88/2/7 65/1/8 94/1/8
f 84/5/9 78/7/10 72/5/9
f 78/7/10 84/5/9 82/7/10
f 80/9/3 78/7/10 82/7/10
f 78/7/10 80/9/3 79/9/3
f 66/2/6 94/1/8 65/1/8
f 94/1/8 66/2/6 92/2/6
f 81/7/4 8/5/5 76/7/4
f 8/5/5 81/7/4 21/5/5
f 88/2/7 72/5/9 67/2/7
f 72/5/9 88/2/7 84/5/9
f 97/2/1 96/2/1 95/1/1
f 98/3/1 96/2/1 97/2/1
f 97/2/1 99/4/1 98/3/1
f 100/4/1 96/2/1 98/3/1
f 97/2/1 101/5/1 99/4/1
f 41/5/1 101/5/1 97/2/1
f 100/4/1 72/5/1 96/2/1
f 102/5/1 72/5/1 100/4/1
f 103/6/1 72/5/1 102/5/1
f 41/5/1 104/6/1 101/5/1
f 103/6/1 105/7/1 72/5/1
f 105/7/1 103/6/1 106/8/1
f 104/6/1 105/7/1 106/8/1
f 107/7/1 104/6/1 41/5/1
f 107/7/1 105/7/1 104/6/1
f 105/7/1 107/7/1 108/9/1
f 111/7/2 110/7/2 109/9/2
f 110/7/2 111/7/2 112/6/2
f 112/6/2 111/7/2 58/5/2
f 110/7/2 112/6/2 113/8/2
f 112/6/2 58/5/2 114/5/2
f 115/6/2 110/7/2 113/8/2
f 114/5/2 58/5/2 116/2/2
f 110/7/2 115/6/2 84/5/2
f 84/5/2 115/6/2 117/5/2
f 84/5/2 117/5/2 118/4/2
f 114/5/2 116/2/2 119/4/2
f 84/5/2 118/4/2 120/2/2
f 119/4/2 116/2/2 121/3/2
f 120/2/2 118/4/2 121/3/2
f 120/2/2 121/3/2 116/2/2
f 120/2/2 116/2/2 122/1/2
f 110/7/4 108/9/3 109/9/3
f 108/9/3 110/7/4 105/7/4
f 84/5/5 96/2/6 72/5/5
f 96/2/6 84/5/5 120/2/6
f 95/1/8 116/2/7 97/2/7
f 116/2/7 95/1/8 122/1/8
f 58/5/9 107/7/10 41/5/9
f 107/7/10 58/5/9 111/7/10
f 109/9/3 107/7/10 111/7/10
f 107/7/10 109/9/3 108/9/3
f 96/2/6 122/1/8 95/1/8
f 122/1/8 96/2/6 120/2/6
f 110/7/4 72/5/5 105/7/4
f 72/5/5 110/7/4 84/5/5
f 116/2/7 41/5/9 97/2/7
f 41/5/9 116/2/7 58/5/9
f 112/11/2 115/11/2 113/10/2
f 115/11/2 112/11/2 114/12/2
f 115/11/2 114/12/2 117/12/2
f 117/12/2 114/12/2 118/13/2
f 118/13/2 114/12/2 119/13/2
f 118/13/2 119/13/2 123/14/2
f 103/11/1 104/11/1 106/10/1
f 104/11/1 103/11/1 101/12/1
f 101/12/1 103/11/1 102/12/1
f 101/12/1 102/12/1 99/13/1
f 99/13/1 102/12/1 100/13/1
f 99/13/1 100/13/1 124/14/1
f 83/11/2 87/11/2 85/10/2
f 87/11/2 83/11/2 86/12/2
f 87/11/2 86/12/2 89/12/2
f 89/12/2 86/12/2 90/13/2
f 90/13/2 86/12/2 91/13/2
f 90/13/2 91/13/2 125/14/2
f 74/11/1 75/11/1 77/10/1
f 75/11/1 74/11/1 71/12/1
f 71/12/1 74/11/1 73/12/1
f 71/12/1 73/12/1 69/13/1
f 69/13/1 73/12/1 70/13/1
f 69/13/1 70/13/1 126/14/1
f 20/11/2 24/11/2 22/10/2
f 24/11/2 20/11/2 23/12/2
f 24/11/2 23/12/2 27/12/2
f 27/12/2 23/12/2 28/13/2
f 28/13/2 23/12/2 29/13/2
f 28/13/2 29/13/2 127/14/2
f 11/11/1 12/11/1 14/10/1
f 12/11/1 11/11/1 7/12/1
f 7/12/1 11/11/1 10/12/1
f 7/12/1 10/12/1 5/13/1
f 5/13/1 10/12/1 6/13/1
f 5/13/1 6/13/1 128/14/1
f 52/11/2 56/11/2 54/10/2
f 56/11/2 52/11/2 55/12/2
f 56/11/2 55/12/2 59/12/2
f 59/12/2 55/12/2 60/13/2
f 60/13/2 55/12/2 61/13/2
f 60/13/2 61/13/2 129/14/2
f 43/11/1 44/11/1 46/10/1
f 44/11/1 43/11/1 39/12/1
f 39/12/1 43/11/1 42/12/1
f 39/12/1 42/12/1 37/13/1
f 37/13/1 42/12/1 38/13/1
f 37/13/1 38/13/1 130/14/1

g conveyor-bars




usemtl colormap

f 3/2/1 2/2/1 1/1/1
f 4/3/1 2/2/1 3/2/1
f 3/2/1 5/4/1 4/3/1
f 6/4/1 2/2/1 4/3/1
f 3/2/1 7/5/1 5/4/1
f 8/5/1 7/5/1 3/2/1
f 6/4/1 9/5/1 2/2/1
f 10/5/1 9/5/1 6/4/1
f 11/6/1 9/5/1 10/5/1
f 8/5/1 12/6/1 7/5/1
f 11/6/1 13/7/1 9/5/1
f 13/7/1 11/6/1 14/8/1
f 12/6/1 13/7/1 14/8/1
f 15/7/1 12/6/1 8/5/1
f 15/7/1 13/7/1 12/6/1
f 13/7/1 15/7/1 16/9/1
f 19/7/2 18/7/2 17/9/2
f 18/7/2 19/7/2 20/6/2
f 20/6/2 19/7/2 21/5/2
f 18/7/2 20/6/2 22/8/2
f 20/6/2 21/5/2 23/5/2
f 24/6/2 18/7/2 22/8/2
f 23/5/2 21/5/2 25/2/2
f 18/7/2 24/6/2 26/5/2
f 26/5/2 24/6/2 27/5/2
f 26/5/2 27/5/2 28/4/2
f 23/5/2 25/2/2 29/4/2
f 26/5/2 28/4/2 30/2/2
f 29/4/2 25/2/2 31/3/2
f 30/2/2 28/4/2 31/3/2
f 30/2/2 31/3/2 25/2/2
f 30/2/2 25/2/2 32/1/2
f 18/7/4 16/9/3 17/9/3
f 16/9/3 18/7/4 13/7/4
f 26/5/5 2/2/6 9/5/5
f 2/2/6 26/5/5 30/2/6
f 1/1/8 25/2/7 3/2/7
f 25/2/7 1/1/8 32/1/8
f 21/5/9 15/7/10 8/5/9
f 15/7/10 21/5/9 19/7/10
f 17/9/3 15/7/10 19/7/10
f 15/7/10 17/9/3 16/9/3
f 2/2/6 32/1/8 1/1/8
f 32/1/8 2/2/6 30/2/6
f 18/7/4 9/5/5 13/7/4
f 9/5/5 18/7/4 26/5/5
f 25/2/7 8/5/9 3/2/7
f 8/5/9 25/2/7 21/5/9
f 35/2/1 34/2/1 33/1/1
f 36/3/1 34/2/1 35/2/1
f 35/2/1 37/4/1 36/3/1
f 38/4/1 34/2/1 36/3/1
f 35/2/1 39/5/1 37/4/1
f 40/5/1 39/5/1 35/2/1
f 38/4/1 41/5/1 34/2/1
f 42/5/1 41/5/1 38/4/1
f 43/6/1 41/5/1 42/5/1
f 40/5/1 44/6/1 39/5/1
f 43/6/1 45/7/1 41/5/1
f 45/7/1 43/6/1 46/8/1
f 44/6/1 45/7/1 46/8/1
f 47/7/1 44/6/1 40/5/1
f 47/7/1 45/7/1 44/6/1
f 45/7/1 47/7/1 48/9/1
f 51/7/2 50/7/2 49/9/2
f 50/7/2 51/7/2 52/6/2
f 52/6/2 51/7/2 53/5/2
f 50/7/2 52/6/2 54/8/2
f 52/6/2 53/5/2 55/5/2
f 56/6/2 50/7/2 54/8/2
f 55/5/2 53/5/2 57/2/2
f 50/7/2 56/6/2 58/5/2
f 58/5/2 56/6/2 59/5/2
f 58/5/2 59/5/2 60/4/2
f 55/5/2 57/2/2 61/4/2
f 58/5/2 60/4/2 62/2/2
f 61/4/2 57/2/2 63/3/2
f 62/2/2 60/4/2 63/3/2
f 62/2/2 63/3/2 57/2/2
f 62/2/2 57/2/2 64/1/2
f 50/7/4 48/9/3 49/9/3
f 48/9/3 50/7/4 45/7/4
f 58/5/5 34/2/6 41/5/5
f 34/2/6 58/5/5 62/2/6
f 33/1/8 57/2/7 35/2/7
f 57/2/7 33/1/8 64/1/8
f 53/5/9 47/7/10 40/5/9
f 47/7/10 53/5/9 51/7/10
f 49/9/3 47/7/10 51/7/10
f 47/7/10 49/9/3 48/9/3
f 34/2/6 64/1/8 33/1/8
f 64/1/8 34/2/6 62/2/6
f 50/7/4 41/5/5 45/7/4
f 41/5/5 50/7/4 58/5/5
f 57/2/7 40/5/9 35/2/7
f 40/5/9 57/2/7 53/5/9
f 67/2/1 66/2/1 65/1/1
f 68/3/1 66/2/1 67/2/1
f 67/2/1 69/4/1 68/3/1
f 70/4/1 66/2/1 68/3/1
f 67/2/1 71/5/1 69/4/1
f 72/5/1 71/5/1 67/2/1
f 70/4/1 8/5/1 66/2/1
f 73/5/1 8/5/1 70/4/1
f 74/6/1 8/5/1 73/5/1
f 72/5/1 75/6/1 71/5/1
f 74/6/1 76/7/1 8/5/1
f 76/7/1 74/6/1 77/8/1
f 75/6/1 76/7/1 77/8/1
f 78/7/1 75/6/1 72/5/1
f 78/7/1 76/7/1 75/6/1
f 76/7/1 78/7/1 79/9/1
f 82/7/2 81/7/2 80/9/2
f 81/7/2 82/7/2 83/6/2
f 83/6/2 82/7/2 84/5/2
f 81/7/2 83/6/2 85/8/2
f 83/6/2 84/5/2 86/5/2
f 87/6/2 81/7/2 85/8/2
f 86/5/2 84/5/2 88/2/2
f 81/7/2 87/6/2 21/5/2
f 21/5/2 87/6/2 89/5/2
f 21/5/2 89/5/2 90/4/2
f 86/5/2 88/2/2 91/4/2
f 21/5/2 90/4/2 92/2/2
f 91/4/2 88/2/2 93/3/2
f 92/2/2 90/4/2 93/3/2
f 92/2/2 93/3/2 88/2/2
f 92/2/2 88/2/2 94/1/2
f 81/7/4 79/9/3 80/9/3
f 79/9/3 81/7/4 76/7/4
f 21/5/5 66/2/6 8/5/5
f 66/2/6 21/5/5 92/2/6
f 65/1/8 88/2/7 67/2/7
f 88/2/7 65/1/8 94/1/8
f 84/5/9 78/7/10 72/5/9
f 78/7/10 84/5/9 82/7/10
f 80/9/3 78/7/10 82/7/10
f 78/7/10 80/9/3 79/9/3
f 66/2/6 94/1/8 65/1/8
f 94/1/8 66/2/6 92/2/6
f 81/7/4 8/5/5 76/7/4
f 8/5/5 81/7/4 21/5/5
f 88/2/7 72/5/9 67/2/7
f 72/5/9 88/2/7 84/5/9
f 97/2/1 96/2/1 95/1/1
f 98/3/1 96/2/1 97/2/1
f 97/2/1 99/4/1 98/3/1
f 100/4/1 96/2/1 98/3/1
f 97/2/1 101/5/1 99/4/1
f 41/5/1 101/5/1 97/2/1
f 100/4/1 72/5/1 96/2/1
f 102/5/1 72/5/1 100/4/1
f 103/6/1 72/5/1 102/5/1
f 41/5/1 104/6/1 101/5/1
f 103/6/1 105/7/1 72/5/1
f 105/7/1 103/6/1 106/8/1
f 104/6/1 105/7/1 106/8/1
f 107/7/1 104/6/1 41/5/1
f 107/7/1 105/7/1 104/6/1
f 105/7/1 107/7/1 108/9/1
f 111/7/2 110/7/2 109/9/2
f 110/7/2 111/7/2 112/6/2
f 112/6/2 111/7/2 58/5/2
f 110/7/2 112/6/2 113/8/2
f 112/6/2 58/5/2 114/5/2
f 115/6/2 110/7/2 113/8/2
f 114/5/2 58/5/2 116/2/2
f 110/7/2 115/6/2 84/5/2
f 84/5/2 115/6/2 117/5/2
f 84/5/2 117/5/2 118/4/2
f 114/5/2 116/2/2 119/4/2
f 84/5/2 118/4/2 120/2/2
f 119/4/2 116/2/2 121/3/2
f 120/2/2 118/4/2 121/3/2
f 120/2/2 121/3/2 116/2/2
f 120/2/2 116/2/2 122/1/2
f 110/7/4 108/9/3 109/9/3
f 108/9/3 110/7/4 105/7/4
f 84/5/5 96/2/6 72/5/5
f 96/2/6 84/5/5 120/2/6
f 95/1/8 116/2/7 97/2/7
f 116/2/7 95/1/8 122/1/8
f 58/5/9 107/7/10 41/5/9
f 107/7/10 58/5/9 111/7/10
f 109/9/3 107/7/10 111/7/10
f 107/7/10 109/9/3 108/9/3
f 96/2/6 122/1/8 95/1/8
f 122/1/8 96/2/6 120/2/6
f 110/7/4 72/5/5 105/7/4
f 72/5/5 110/7/4 84/5/5
f 116/2/7 41/5/9 97/2/7
f 41/5/9 116/2/7 58/5/9
f 112/11/2 115/11/2 113/10/2
f 115/11/2 112/11/2 114/12/2
f 115/11/2 114/12/2 117/12/2
f 117/12/2 114/12/2 118/13/2
f 118/13/2 114/12/2 119/13/2
f 118/13/2 119/13/2 123/14/2
f 103/11/1 104/11/1 106/10/1
f 104/11/1 103/11/1 101/12/1
f 101/12/1 103/11/1 102/12/1
f 101/12/1 102/12/1 99/13/1
f 99/13/1 102/12/1 100/13/1
f 99/13/1 100/13/1 124/14/1
f 83/11/2 87/11/2 85/10/2
f 87/11/2 83/11/2 86/12/2
f 87/11/2 86/12/2 89/12/2
f 89/12/2 86/12/2 90/13/2
f 90/13/2 86/12/2 91/13/2
f 90/13/2 91/13/2 125/14/2
f 74/11/1 75/11/1 77/10/1
f 75/11/1 74/11/1 71/12/1
f 71/12/1 74/11/1 73/12/1
f 71/12/1 73/12/1 69/13/1
f 69/13/1 73/12/1 70/13/1
f 69/13/1 70/13/1 126/14/1
f 20/11/2 24/11/2 22/10/2
f 24/11/2 20/11/2 23/12/2
f 24/11/2 23/12/2 27/12/2
f 27/12/2 23/12/2 28/13/2
f 28/13/2 23/12/2 29/13/2
f 28/13/2 29/13/2 127/14/2
f 11/11/1 12/11/1 14/10/1
f 12/11/1 11/11/1 7/12/1
f 7/12/1 11/11/1 10/12/1
f 7/12/1 10/12/1 5/13/1
f 5/13/1 10/12/1 6/13/1
f 5/13/1 6/13/1 128/14/1
f 52/11/2 56/11/2 54/10/2
f 56/11/2 52/11/2 55/12/2
f 56/11/2 55/12/2 59/12/2
f 59/12/2 55/12/2 60/13/2
f 60/13/2 55/12/2 61/13/2
f 60/13/2 61/13/2 129/14/2
f 43/11/1 44/11/1 46/10/1
f 44/11/1 43/11/1 39/12/1
f 39/12/1 43/11/1 42/12/1
f 39/12/1 42/12/1 37/13/1
f 37/13/1 42/12/1 38/13/1
f 37/13/1 38/13/1 130/14/1

