# Created by Kenney (www.kenney.nl)

mtllib conveyor-bars-high.mtl

g conveyor-bars-high

v -0.375 0.1 0.4 1 1 1
v -0.375 0.1 -0.4 1 1 1
v -0.4785534 0.1214466 0.4 1 1 1
v -0.4785534 0.1214466 -0.4 1 1 1
v -0.5 0.225 -0.4 1 1 1
v -0.4785534 0.3285534 -0.4 1 1 1
v -0.5 0.225 0.4 1 1 1
v -0.4785534 0.3285534 0.4 1 1 1
v -0.2714466 0.3285534 -0.4 1 1 1
v -0.2714466 0.3285534 0.4 1 1 1
v -0.375 0.35 -0.4 1 1 1
v -0.375 0.35 0.4 1 1 1
v -0.25 0.225 -0.4 1 1 1
v -0.2714466 0.1214466 -0.4 1 1 1
v -0.25 0.225 0.4 1 1 1
v -0.2714466 0.1214466 0.4 1 1 1
v -0.125 0.1 0.4 1 1 1
v -0.125 0.1 -0.4 1 1 1
v -0.2285534 0.1214466 0.4 1 1 1
v -0.2285534 0.1214466 -0.4 1 1 1
v -0.2285534 0.3285534 -0.4 1 1 1
v -0.2285534 0.3285534 0.4 1 1 1
v -0.02144661 0.3285534 -0.4 1 1 1
v -0.02144661 0.3285534 0.4 1 1 1
v -0.125 0.35 -0.4 1 1 1
v -0.125 0.35 0.4 1 1 1
v 0 0.225 -0.4 1 1 1
v -0.02144661 0.1214466 -0.4 1 1 1
v 0 0.225 0.4 1 1 1
v -0.02144661 0.1214466 0.4 1 1 1
v 0.375 0.1 0.4 1 1 1
v 0.375 0.1 -0.4 1 1 1
v 0.2714466 0.1214466 0.4 1 1 1
v 0.2714466 0.1214466 -0.4 1 1 1
v 0.25 0.225 -0.4 1 1 1
v 0.2714466 0.3285534 -0.4 1 1 1
v 0.25 0.225 0.4 1 1 1
v 0.2714466 0.3285534 0.4 1 1 1
v 0.4785534 0.3285534 -0.4 1 1 1
v 0.4785534 0.3285534 0.4 1 1 1
v 0.375 0.35 -0.4 1 1 1
v 0.375 0.35 0.4 1 1 1
v 0.5 0.225 -0.4 1 1 1
v 0.4785534 0.1214466 -0.4 1 1 1
v 0.5 0.225 0.4 1 1 1
v 0.4785534 0.1214466 0.4 1 1 1
v 0.125 0.1 0.4 1 1 1
v 0.125 0.1 -0.4 1 1 1
v 0.02144661 0.1214466 0.4 1 1 1
v 0.02144661 0.1214466 -0.4 1 1 1
v 0.02144661 0.3285534 -0.4 1 1 1
v 0.02144661 0.3285534 0.4 1 1 1
v 0.2285534 0.3285534 -0.4 1 1 1
v 0.2285534 0.3285534 0.4 1 1 1
v 0.125 0.35 -0.4 1 1 1
v 0.125 0.35 0.4 1 1 1
v 0.2285534 0.1214466 -0.4 1 1 1
v 0.2285534 0.1214466 0.4 1 1 1
v 0.5 0.1 0.5 1 1 1
v -0.5 0.1 0.5 1 1 1
v 0.5 0.1633975 0.4633974 1 1 1
v -0.5 0.1633975 0.4633974 1 1 1
v 0.5 0.2366025 0.4633974 1 1 1
v -0.5 0.2366025 0.4633974 1 1 1
v 0.5 0.3 0.5 1 1 1
v -0.5 0.3 0.5 1 1 1
v -0.5 0.1 -0.5 1 1 1
v 0.5 0.1 -0.5 1 1 1
v -0.5 0.1633975 -0.4633974 1 1 1
v 0.5 0.1633975 -0.4633974 1 1 1
v -0.5 0.2366025 -0.4633974 1 1 1
v 0.5 0.2366025 -0.4633974 1 1 1
v -0.5 0.3 -0.5 1 1 1
v 0.5 0.3 -0.5 1 1 1
v 0.06236263 0.1497954 0.4633974 1 1 1
v 0.01215804 0.129 0.4633974 1 1 1
v 0.05232171 0.1598363 0.5061474 1 1 1
v 0.01215804 0.1432 0.5061474 1 1 1
v 0.08315805 0.2 0.4633974 1 1 1
v 0.06895805 0.2 0.5061474 1 1 1
v 0.05232171 0.2401637 0.5061474 1 1 1
v 0.06236263 0.2502046 0.4633974 1 1 1
v 0.01215804 0.271 0.4633974 1 1 1
v 0.01215804 0.2568 0.5061474 1 1 1
v -0.04464198 0.2 0.5061474 1 1 1
v -0.05884198 0.2 0.4633974 1 1 1
v -0.02800564 0.2401637 0.5061474 1 1 1
v -0.03804656 0.2502046 0.4633974 1 1 1
v -0.03804656 0.1497954 0.4633974 1 1 1
v -0.02800564 0.1598363 0.5061474 1 1 1
v -0.06236262 0.1497954 -0.4633974 1 1 1
v -0.01215804 0.129 -0.4633974 1 1 1
v -0.0523217 0.1598363 -0.5061474 1 1 1
v -0.01215804 0.1432 -0.5061474 1 1 1
v -0.08315804 0.2 -0.4633974 1 1 1
v -0.06895804 0.2 -0.5061474 1 1 1
v -0.0523217 0.2401637 -0.5061474 1 1 1
v -0.06236262 0.2502046 -0.4633974 1 1 1
v -0.01215804 0.271 -0.4633974 1 1 1
v -0.01215804 0.2568 -0.5061474 1 1 1
v 0.04464196 0.2 -0.5061474 1 1 1
v 0.05884196 0.2 -0.4633974 1 1 1
v 0.02800562 0.2401637 -0.5061474 1 1 1
v 0.03804654 0.2502046 -0.4633974 1 1 1
v 0.03804654 0.1497954 -0.4633974 1 1 1
v 0.02800562 0.1598363 -0.5061474 1 1 1
v -0.5 0.2633975 0.3633974 1 1 1
v -0.5 0.3267949 0.4 1 1 1
v -0.5 0.1366025 0.3633974 1 1 1
v -0.5 0.07320508 0.4 1 1 1
v -0.5 8.468255E-14 0.5 1 1 1
v -0.5 8.468255E-14 0.4 1 1 1
v -0.5 0.4 0.4 1 1 1
v -0.5 0.4 0.5 1 1 1
v 0.5 0.2633975 0.3633974 1 1 1
v 0.5 0.1366025 0.3633974 1 1 1
v 0.5 0.3267949 0.4 1 1 1
v 0.5 0.07320508 0.4 1 1 1
v 0.5 0.4 0.5 1 1 1
v 0.5 0.4 0.4 1 1 1
v 0.5 0 0.4 1 1 1
v 0.5 0 0.5 1 1 1
v 0 0.42 0.5 1 1 1
v 0 0.42 0.4 1 1 1
v 0.5 0.2633975 -0.3633974 1 1 1
v 0.5 0.3267949 -0.4 1 1 1
v 0.5 0.1366025 -0.3633974 1 1 1
v 0.5 0.07320508 -0.4 1 1 1
v 0.5 1.6932E-13 -0.5 1 1 1
v 0.5 1.6932E-13 -0.4 1 1 1
v 0.5 0.4 -0.4 1 1 1
v 0.5 0.4 -0.5 1 1 1
v -0.5 0.2633975 -0.3633974 1 1 1
v -0.5 0.1366025 -0.3633974 1 1 1
v -0.5 0.3267949 -0.4 1 1 1
v -0.5 0.07320508 -0.4 1 1 1
v -0.5 0.4 -0.5 1 1 1
v -0.5 0.4 -0.4 1 1 1
v -0.5 8.463744E-14 -0.4 1 1 1
v -0.5 8.463744E-14 -0.5 1 1 1
v 0 0.42 -0.5 1 1 1
v 0 0.42 -0.4 1 1 1

vn 0 -1 0
vn -0.7071068 -0.7071068 0
vn -1 0 0
vn -0.7071068 0.7071068 0
vn 0.7071068 0.7071068 0
vn 0 1 0
vn 1 0 0
vn 0.7071068 -0.7071068 0
vn 0 0.5 0.8660254
vn 0 0.258819 0.9659258
vn 0 -0.258819 0.9659258
vn 0 -0.5 0.8660254
vn -1.290443E-08 0.5 -0.8660254
vn -1.439302E-08 0.258819 -0.9659258
vn -1.439302E-08 -0.258819 -0.9659258
vn -1.290443E-08 -0.5 -0.8660254
vn 0.6710556 -0.6710556 0.3152287
vn -4.654657E-15 -0.949016 0.3152288
vn 0.4707984 -0.4707984 0.746122
vn -1.101721E-14 -0.6658095 0.746122
vn 0.949016 -3.757819E-08 0.3152287
vn 0.6658096 -8.894466E-08 0.7461219
vn 0.4707984 0.4707983 0.7461219
vn 0.6710556 0.6710554 0.3152286
vn -4.654657E-15 0.9490159 0.3152286
vn -1.101721E-14 0.6658094 0.7461219
vn -0.6658096 -8.894466E-08 0.7461219
vn -0.949016 -3.757819E-08 0.3152287
vn -0.4707984 0.4707983 0.7461219
vn -0.6710556 0.6710554 0.3152286
vn -0.6710556 -0.6710556 0.3152287
vn -0.4707984 -0.4707984 0.746122
vn -0.6710554 -0.6710556 -0.3152286
vn 0 -0.949016 -0.3152286
vn -0.4707983 -0.4707984 -0.7461219
vn 0 -0.6658095 -0.7461219
vn -0.9490158 -3.757819E-08 -0.3152287
vn -0.6658094 -8.894466E-08 -0.7461219
vn -0.4707983 0.4707983 -0.746122
vn -0.6710554 0.6710554 -0.3152287
vn 0 0.9490159 -0.3152288
vn 0 0.6658094 -0.746122
vn 0.6658094 -8.894466E-08 -0.7461219
vn 0.9490158 -3.757819E-08 -0.3152287
vn 0.4707983 0.4707983 -0.746122
vn 0.6710554 0.6710554 -0.3152287
vn 0.6710554 -0.6710556 -0.3152286
vn 0.4707983 -0.4707984 -0.7461219
vn 0 -0.258819 -0.9659258
vn 0 0 -1
vn 0 0 1
vn 0.03996804 0.999201 0
vn 0 0.258819 -0.9659258
vn -0.03996804 0.999201 0
vn 1 0 -1.490075E-08
vn -1 0 1.490075E-08
vn 1.439302E-08 -0.258819 0.9659258
vn 1.490075E-08 0 1
vn -1.490075E-08 0 -1
vn -0.03996804 0.999201 5.955537E-10
vn 1.439302E-08 0.258819 0.9659258
vn 0.03996804 0.999201 -5.955537E-10

vt 0.09375 0.025
vt 0.09375 0.04215728
vt 0.09375 0.125
vt 0.09375 0.2078427
vt 0.09375 0.225
vt 0.09375 0.1640476
vt 0.09375 0.1761233
vt 0.09375 0.1900672
vt 0.09375 0.2021428
vt 0.34375 0.025
vt 0.34375 0.225
vt 0.34375 0.1951709
vt 0.34375 0.2072467
vt 0.34375 0.1710195
vt 0.34375 0.1589438
vt 0.34375 0.145
vt 0.34375 0.2211905
vt 0.34375 0.1761233
vt 0.34375 0.1640476
vt 0.34375 0.1900672
vt 0.34375 0.2021428

usemtl colormap

f 3/2/2 2/1/1 1/1/1
f 2/1/1 3/2/2 4/2/2
f 7/3/3 6/4/4 5/3/3
f 6/4/4 7/3/3 8/4/4
f 11/5/6 10/4/5 9/4/5
f 10/4/5 11/5/6 12/5/6
f 15/3/7 14/2/8 13/3/7
f 14/2/8 15/3/7 16/2/8
f 1/1/1 14/2/8 16/2/8
f 14/2/8 1/1/1 2/1/1
f 6/4/4 12/5/6 11/5/6
f 12/5/6 6/4/4 8/4/4
f 3/2/2 5/3/3 4/2/2
f 5/3/3 3/2/2 7/3/3
f 10/4/5 13/3/7 9/4/5
f 13/3/7 10/4/5 15/3/7
f 19/2/2 18/1/1 17/1/1
f 18/1/1 19/2/2 20/2/2
f 15/3/3 21/4/4 13/3/3
f 21/4/4 15/3/3 22/4/4
f 25/5/6 24/4/5 23/4/5
f 24/4/5 25/5/6 26/5/6
f 29/3/7 28/2/8 27/3/7
f 28/2/8 29/3/7 30/2/8
f 17/1/1 28/2/8 30/2/8
f 28/2/8 17/1/1 18/1/1
f 21/4/4 26/5/6 25/5/6
f 26/5/6 21/4/4 22/4/4
f 19/2/2 13/3/3 20/2/2
f 13/3/3 19/2/2 15/3/3
f 24/4/5 27/3/7 23/4/5
f 27/3/7 24/4/5 29/3/7
f 33/2/2 32/1/1 31/1/1
f 32/1/1 33/2/2 34/2/2
f 37/3/3 36/4/4 35/3/3
f 36/4/4 37/3/3 38/4/4
f 41/5/6 40/4/5 39/4/5
f 40/4/5 41/5/6 42/5/6
f 45/3/7 44/2/8 43/3/7
f 44/2/8 45/3/7 46/2/8
f 31/1/1 44/2/8 46/2/8
f 44/2/8 31/1/1 32/1/1
f 36/4/4 42/5/6 41/5/6
f 42/5/6 36/4/4 38/4/4
f 33/2/2 35/3/3 34/2/2
f 35/3/3 33/2/2 37/3/3
f 40/4/5 43/3/7 39/4/5
f 43/3/7 40/4/5 45/3/7
f 49/2/2 48/1/1 47/1/1
f 48/1/1 49/2/2 50/2/2
f 29/3/3 51/4/4 27/3/3
f 51/4/4 29/3/3 52/4/4
f 55/5/6 54/4/5 53/4/5
f 54/4/5 55/5/6 56/5/6
f 37/3/7 57/2/8 35/3/7
f 57/2/8 37/3/7 58/2/8
f 47/1/1 57/2/8 58/2/8
f 57/2/8 47/1/1 48/1/1
f 51/4/4 56/5/6 55/5/6
f 56/5/6 51/4/4 52/4/4
f 49/2/2 27/3/3 50/2/2
f 27/3/3 49/2/2 29/3/3
f 54/4/5 35/3/7 53/4/5
f 35/3/7 54/4/5 37/3/7
f 61/7/10 60/6/9 59/6/9
f 60/6/9 61/7/10 62/7/10
f 63/8/11 62/7/10 61/7/10
f 62/7/10 63/8/11 64/8/11
f 65/9/12 64/8/11 63/8/11
f 64/8/11 65/9/12 66/9/12
f 69/7/14 68/6/13 67/6/13
f 68/6/13 69/7/14 70/7/14
f 71/8/15 70/7/14 69/7/14
f 70/7/14 71/8/15 72/8/15
f 73/9/16 72/8/15 71/8/15
f 72/8/15 73/9/16 74/9/16
f 77/11/19 76/10/18 75/10/17
f 76/10/18 77/11/19 78/11/20
f 79/10/21 77/11/19 75/10/17
f 77/11/19 79/10/21 80/11/22
f 79/10/21 81/11/23 80/11/22
f 81/11/23 79/10/21 82/10/24
f 84/11/26 82/10/24 83/10/25
f 82/10/24 84/11/26 81/11/23
f 87/11/29 86/10/28 85/11/27
f 86/10/28 87/11/29 88/10/30
f 90/11/32 86/10/28 89/10/31
f 86/10/28 90/11/32 85/11/27
f 88/10/30 84/11/26 83/10/25
f 84/11/26 88/10/30 87/11/29
f 90/11/32 87/11/29 85/11/27
f 87/11/29 90/11/32 78/11/20
f 87/11/29 78/11/20 84/11/26
f 84/11/26 78/11/20 77/11/19
f 84/11/26 77/11/19 81/11/23
f 81/11/23 77/11/19 80/11/22
f 76/10/18 90/11/32 89/10/31
f 90/11/32 76/10/18 78/11/20
f 93/11/35 92/10/34 91/10/33
f 92/10/34 93/11/35 94/11/36
f 95/10/37 93/11/35 91/10/33
f 93/11/35 95/10/37 96/11/38
f 95/10/37 97/11/39 96/11/38
f 97/11/39 95/10/37 98/10/40
f 100/11/42 98/10/40 99/10/41
f 98/10/40 100/11/42 97/11/39
f 103/11/45 102/10/44 101/11/43
f 102/10/44 103/11/45 104/10/46
f 106/11/48 102/10/44 105/10/47
f 102/10/44 106/11/48 101/11/43
f 104/10/46 100/11/42 99/10/41
f 100/11/42 104/10/46 103/11/45
f 106/11/48 103/11/45 101/11/43
f 103/11/45 106/11/48 94/11/36
f 103/11/45 94/11/36 100/11/42
f 100/11/42 94/11/36 93/11/35
f 100/11/42 93/11/35 97/11/39
f 97/11/39 93/11/35 96/11/38
f 92/10/34 106/11/48 105/10/47
f 106/11/48 92/10/34 94/11/36
f 109/14/3 108/13/3 107/12/3
f 108/13/3 109/14/3 110/15/3
f 110/15/3 111/16/3 108/13/3
f 111/16/3 110/15/3 112/16/3
f 108/13/3 111/16/3 113/17/3
f 113/17/3 111/16/3 62/18/3
f 62/18/3 111/16/3 60/19/3
f 64/20/3 113/17/3 62/18/3
f 113/17/3 64/20/3 114/17/3
f 114/17/3 64/20/3 66/21/3
f 117/13/7 116/14/7 115/12/7
f 116/14/7 117/13/7 118/15/7
f 117/13/7 119/17/7 118/15/7
f 119/17/7 117/13/7 120/17/7
f 118/15/7 119/17/7 121/16/7
f 121/16/7 119/17/7 63/20/7
f 63/20/7 119/17/7 65/21/7
f 61/18/7 121/16/7 63/20/7
f 121/16/7 61/18/7 122/16/7
f 122/16/7 61/18/7 59/19/7
f 110/15/49 116/14/49 118/15/49
f 116/14/49 110/15/49 109/14/49
f 112/16/50 118/15/49 121/16/50
f 118/15/49 112/16/50 110/15/49
f 111/16/1 121/16/1 122/16/1
f 121/16/1 111/16/1 112/16/1
f 59/19/51 111/16/51 122/16/51
f 111/16/51 59/19/51 60/19/51
f 119/17/51 66/21/51 65/21/51
f 66/21/51 119/17/51 114/17/51
f 114/17/51 119/17/51 123/11/51
f 120/17/52 123/11/6 119/17/52
f 123/11/6 120/17/52 124/11/6
f 108/13/53 120/17/50 117/13/53
f 120/17/50 108/13/53 113/17/50
f 120/17/50 113/17/50 124/11/50
f 107/12/53 117/13/53 115/12/53
f 117/13/53 107/12/53 108/13/53
f 109/14/49 115/12/53 116/14/49
f 115/12/53 109/14/49 107/12/53
f 124/11/6 114/17/54 123/11/6
f 114/17/54 124/11/6 113/17/54
f 127/14/55 126/13/55 125/12/55
f 126/13/55 127/14/55 128/15/55
f 128/15/55 129/16/55 126/13/55
f 129/16/55 128/15/55 130/16/55
f 126/13/55 129/16/55 131/17/55
f 131/17/55 129/16/55 70/18/55
f 70/18/55 129/16/55 68/19/55
f 72/20/55 131/17/55 70/18/55
f 131/17/55 72/20/55 132/17/55
f 132/17/55 72/20/55 74/21/55
f 135/13/56 134/14/56 133/12/56
f 134/14/56 135/13/56 136/15/56
f 135/13/56 137/17/56 136/15/56
f 137/17/56 135/13/56 138/17/56
f 136/15/56 137/17/56 139/16/56
f 139/16/56 137/17/56 71/20/56
f 71/20/56 137/17/56 73/21/56
f 69/18/56 139/16/56 71/20/56
f 139/16/56 69/18/56 140/16/56
f 140/16/56 69/18/56 67/19/56
f 128/15/57 134/14/57 136/15/57
f 134/14/57 128/15/57 127/14/57
f 130/16/58 136/15/57 139/16/58
f 136/15/57 130/16/58 128/15/57
f 129/16/1 139/16/1 140/16/1
f 139/16/1 129/16/1 130/16/1
f 67/19/59 129/16/59 140/16/59
f 129/16/59 67/19/59 68/19/59
f 137/17/59 74/21/59 73/21/59
f 74/21/59 137/17/59 132/17/59
f 132/17/59 137/17/59 141/11/59
f 138/17/60 141/11/6 137/17/60
f 141/11/6 138/17/60 142/11/6
f 126/13/61 138/17/58 135/13/61
f 138/17/58 126/13/61 131/17/58
f 138/17/58 131/17/58 142/11/58
f 125/12/61 135/13/61 133/12/61
f 135/13/61 125/12/61 126/13/61
f 127/14/57 133/12/61 134/14/57
f 133/12/61 127/14/57 125/12/61
f 142/11/6 132/17/62 141/11/6
f 132/17/62 142/11/6 131/17/62

g conveyor-bars-high




usemtl colormap

f 3/2/2 2/1/1 1/1/1
f 2/1/1 3/2/2 4/2/2
f 7/3/3 6/4/4 5/3/3
f 6/4/4 7/3/3 8/4/4
f 11/5/6 10/4/5 9/4/5
f 10/4/5 11/5/6 12/5/6
f 15/3/7 14/2/8 13/3/7
f 14/2/8 15/3/7 16/2/8
f 1/1/1 14/2/8 16/2/8
f 14/2/8 1/1/1 2/1/1
f 6/4/4 12/5/6 11/5/6
f 12/5/6 6/4/4 8/4/4
f 3/2/2 5/3/3 4/2/2
f 5/3/3 3/2/2 7/3/3
f 10/4/5 13/3/7 9/4/5
f 13/3/7 10/4/5 15/3/7
f 19/2/2 18/1/1 17/1/1
f 18/1/1 19/2/2 20/2/2
f 15/3/3 21/4/4 13/3/3
f 21/4/4 15/3/3 22/4/4
f 25/5/6 24/4/5 23/4/5
f 24/4/5 25/5/6 26/5/6
f 29/3/7 28/2/8 27/3/7
f 28/2/8 29/3/7 30/2/8
f 17/1/1 28/2/8 30/2/8
f 28/2/8 17/1/1 18/1/1
f 21/4/4 26/5/6 25/5/6
f 26/5/6 21/4/4 22/4/4
f 19/2/2 13/3/3 20/2/2
f 13/3/3 19/2/2 15/3/3
f 24/4/5 27/3/7 23/4/5
f 27/3/7 24/4/5 29/3/7
f 33/2/2 32/1/1 31/1/1
f 32/1/1 33/2/2 34/2/2
f 37/3/3 36/4/4 35/3/3
f 36/4/4 37/3/3 38/4/4
f 41/5/6 40/4/5 39/4/5
f 40/4/5 41/5/6 42/5/6
f 45/3/7 44/2/8 43/3/7
f 44/2/8 45/3/7 46/2/8
f 31/1/1 44/2/8 46/2/8
f 44/2/8 31/1/1 32/1/1
f 36/4/4 42/5/6 41/5/6
f 42/5/6 36/4/4 38/4/4
f 33/2/2 35/3/3 34/2/2
f 35/3/3 33/2/2 37/3/3
f 40/4/5 43/3/7 39/4/5
f 43/3/7 40/4/5 45/3/7
f 49/2/2 48/1/1 47/1/1
f 48/1/1 49/2/2 50/2/2
f 29/3/3 51/4/4 27/3/3
f 51/4/4 29/3/3 52/4/4
f 55/5/6 54/4/5 53/4/5
f 54/4/5 55/5/6 56/5/6
f 37/3/7 57/2/8 35/3/7
f 57/2/8 37/3/7 58/2/8
f 47/1/1 57/2/8 58/2/8
f 57/2/8 47/1/1 48/1/1
f 51/4/4 56/5/6 55/5/6
f 56/5/6 51/4/4 52/4/4
f 49/2/2 27/3/3 50/2/2
f 27/3/3 49/2/2 29/3/3
f 54/4/5 35/3/7 53/4/5
f 35/3/7 54/4/5 37/3/7
f 61/7/10 60/6/9 59/6/9
f 60/6/9 61/7/10 62/7/10
f 63/8/11 62/7/10 61/7/10
f 62/7/10 63/8/11 64/8/11
f 65/9/12 64/8/11 63/8/11
f 64/8/11 65/9/12 66/9/12
f 69/7/14 68/6/13 67/6/13
f 68/6/13 69/7/14 70/7/14
f 71/8/15 70/7/14 69/7/14
f 70/7/14 71/8/15 72/8/15
f 73/9/16 72/8/15 71/8/15
f 72/8/15 73/9/16 74/9/16
f 77/11/19 76/10/18 75/10/17
f 76/10/18 77/11/19 78/11/20
f 79/10/21 77/11/19 75/10/17
f 77/11/19 79/10/21 80/11/22
f 79/10/21 81/11/23 80/11/22
f 81/11/23 79/10/21 82/10/24
f 84/11/26 82/10/24 83/10/25
f 82/10/24 84/11/26 81/11/23
f 87/11/29 86/10/28 85/11/27
f 86/10/28 87/11/29 88/10/30
f 90/11/32 86/10/28 89/10/31
f 86/10/28 90/11/32 85/11/27
f 88/10/30 84/11/26 83/10/25
f 84/11/26 88/10/30 87/11/29
f 90/11/32 87/11/29 85/11/27
f 87/11/29 90/11/32 78/11/20
f 87/11/29 78/11/20 84/11/26
f 84/11/26 78/11/20 77/11/19
f 84/11/26 77/11/19 81/11/23
f 81/11/23 77/11/19 80/11/22
f 76/10/18 90/11/32 89/10/31
f 90/11/32 76/10/18 78/11/20
f 93/11/35 92/10/34 91/10/33
f 92/10/34 93/11/35 94/11/36
f 95/10/37 93/11/35 91/10/33
f 93/11/35 95/10/37 96/11/38
f 95/10/37 97/11/39 96/11/38
f 97/11/39 95/10/37 98/10/40
f 100/11/42 98/10/40 99/10/41
f 98/10/40 100/11/42 97/11/39
f 103/11/45 102/10/44 101/11/43
f 102/10/44 103/11/45 104/10/46
f 106/11/48 102/10/44 105/10/47
f 102/10/44 106/11/48 101/11/43
f 104/10/46 100/11/42 99/10/41
f 100/11/42 104/10/46 103/11/45
f 106/11/48 103/11/45 101/11/43
f 103/11/45 106/11/48 94/11/36
f 103/11/45 94/11/36 100/11/42
f 100/11/42 94/11/36 93/11/35
f 100/11/42 93/11/35 97/11/39
f 97/11/39 93/11/35 96/11/38
f 92/10/34 106/11/48 105/10/47
f 106/11/48 92/10/34 94/11/36
f 109/14/3 108/13/3 107/12/3
f 108/13/3 109/14/3 110/15/3
f 110/15/3 111/16/3 108/13/3
f 111/16/3 110/15/3 112/16/3
f 108/13/3 111/16/3 113/17/3
f 113/17/3 111/16/3 62/18/3
f 62/18/3 111/16/3 60/19/3
f 64/20/3 113/17/3 62/18/3
f 113/17/3 64/20/3 114/17/3
f 114/17/3 64/20/3 66/21/3
f 117/13/7 116/14/7 115/12/7
f 116/14/7 117/13/7 118/15/7
f 117/13/7 119/17/7 118/15/7
f 119/17/7 117/13/7 120/17/7
f 118/15/7 119/17/7 121/16/7
f 121/16/7 119/17/7 63/20/7
f 63/20/7 119/17/7 65/21/7
f 61/18/7 121/16/7 63/20/7
f 121/16/7 61/18/7 122/16/7
f 122/16/7 61/18/7 59/19/7
f 110/15/49 116/14/49 118/15/49
f 116/14/49 110/15/49 109/14/49
f 112/16/50 118/15/49 121/16/50
f 118/15/49 112/16/50 110/15/49
f 111/16/1 121/16/1 122/16/1
f 121/16/1 111/16/1 112/16/1
f 59/19/51 111/16/51 122/16/51
f 111/16/51 59/19/51 60/19/51
f 119/17/51 66/21/51 65/21/51
f 66/21/51 119/17/51 114/17/51
f 114/17/51 119/17/51 123/11/51
f 120/17/52 123/11/6 119/17/52
f 123/11/6 120/17/52 124/11/6
f 108/13/53 120/17/50 117/13/53
f 120/17/50 108/13/53 113/17/50
f 120/17/50 113/17/50 124/11/50
f 107/12/53 117/13/53 115/12/53
f 117/13/53 107/12/53 108/13/53
f 109/14/49 115/12/53 116/14/49
f 115/12/53 109/14/49 107/12/53
f 124/11/6 114/17/54 123/11/6
f 114/17/54 124/11/6 113/17/54
f 127/14/55 126/13/55 125/12/55
f 126/13/55 127/14/55 128/15/55
f 128/15/55 129/16/55 126/13/55
f 129/16/55 128/15/55 130/16/55
f 126/13/55 129/16/55 131/17/55
f 131/17/55 129/16/55 70/18/55
f 70/18/55 129/16/55 68/19/55
f 72/20/55 131/17/55 70/18/55
f 131/17/55 72/20/55 132/17/55
f 132/17/55 72/20/55 74/21/55
f 135/13/56 134/14/56 133/12/56
f 134/14/56 135/13/56 136/15/56
f 135/13/56 137/17/56 136/15/56
f 137/17/56 135/13/56 138/17/56
f 136/15/56 137/17/56 139/16/56
f 139/16/56 137/17/56 71/20/56
f 71/20/56 137/17/56 73/21/56
f 69/18/56 139/16/56 71/20/56
f 139/16/56 69/18/56 140/16/56
f 140/16/56 69/18/56 67/19/56
f 128/15/57 134/14/57 136/15/57
f 134/14/57 128/15/57 127/14/57
f 130/16/58 136/15/57 139/16/58
f 136/15/57 130/16/58 128/15/57
f 129/16/1 139/16/1 140/16/1
f 139/16/1 129/16/1 130/16/1
f 67/19/59 129/16/59 140/16/59
f 129/16/59 67/19/59 68/19/59
f 137/17/59 74/21/59 73/21/59
f 74/21/59 137/17/59 132/17/59
f 132/17/59 137/17/59 141/11/59
f 138/17/60 141/11/6 137/17/60
f 141/11/6 138/17/60 142/11/6
f 126/13/61 138/17/58 135/13/61
f 138/17/58 126/13/61 131/17/58
f 138/17/58 131/17/58 142/11/58
f 125/12/61 135/13/61 133/12/61
f 135/13/61 125/12/61 126/13/61
f 127/14/57 133/12/61 134/14/57
f 133/12/61 127/14/57 125/12/61
f 142/11/6 132/17/62 141/11/6
f 132/17/62 142/11/6 131/17/62

