# Created by Kenney (www.kenney.nl)

mtllib conveyor-long-stripe.mtl

g conveyor-long-stripe

v 0.9707106 0.02928932 0.3 1 1 1
v 0.9707106 0.02928932 -0.3 1 1 1
v 0.9 0 0.3 1 1 1
v 0.9 0 -0.3 1 1 1
v -0.9 0.4 -0.3 1 1 1
v -0.9 0.4 0.3 1 1 1
v -0.9707108 0.3707107 -0.3 1 1 1
v -0.9707108 0.3707107 0.3 1 1 1
v 0.9707106 0.3707107 -0.3 1 1 1
v 1 0.3 -0.3 1 1 1
v 0.9707106 0.3707107 0.3 1 1 1
v 1 0.3 0.3 1 1 1
v 0.9 0.4 -0.3 1 1 1
v 0.9 0.4 0.3 1 1 1
v -1 0.3 -0.3 1 1 1
v -1 0.3 0.3 1 1 1
v -0.9 0 0.3 1 1 1
v -0.9 0 -0.3 1 1 1
v -0.9707108 0.02928932 0.3 1 1 1
v -0.9707108 0.02928932 -0.3 1 1 1
v -1 0.1 -0.3 1 1 1
v -1 0.1 0.3 1 1 1
v 1 0.1 -0.3 1 1 1
v 1 0.1 0.3 1 1 1
v 0.9 0.1198912 -0.5 1 1 1
v 0.9 0.2801088 -0.5 1 1 1
v 0.9 0.1198912 -0.4 1 1 1
v 0.9 0.2801088 -0.4 1 1 1
v 0.8801088 0.1 -0.5 1 1 1
v 0.8801088 0.1 -0.4 1 1 1
v -0.8801087 0.1 -0.5 1 1 1
v -0.8801087 0.1 -0.4 1 1 1
v -0.9 0.2801088 -0.5 1 1 1
v -0.9 0.1198912 -0.5 1 1 1
v -0.9 0.2801088 -0.4 1 1 1
v -0.9 0.1198912 -0.4 1 1 1
v 0.8801088 0.3 -0.4 1 1 1
v 0.8801088 0.3 -0.5 1 1 1
v -0.8801087 0.3 -0.4 1 1 1
v -0.8801087 0.3 -0.5 1 1 1
v 0.9 0.1198912 0.4 1 1 1
v 0.9 0.2801088 0.4 1 1 1
v 0.9 0.1198912 0.5 1 1 1
v 0.9 0.2801088 0.5 1 1 1
v 0.8801088 0.1 0.4 1 1 1
v 0.8801088 0.1 0.5 1 1 1
v -0.8801087 0.1 0.4 1 1 1
v -0.8801087 0.1 0.5 1 1 1
v 0.8801088 0.3 0.4 1 1 1
v -0.8801087 0.3 0.4 1 1 1
v 0.8801088 0.3 0.5 1 1 1
v -0.8801087 0.3 0.5 1 1 1
v -0.9 0.1198912 0.4 1 1 1
v -0.9 0.1198912 0.5 1 1 1
v -0.9 0.2801088 0.4 1 1 1
v -0.9 0.2801088 0.5 1 1 1
v 0.8565686 0.2565686 -0.45 1 1 1
v 0.88 0.2 -0.45 1 1 1
v 0.8707107 0.2707107 -0.4 1 1 1
v 0.9 0.2 -0.4 1 1 1
v 0.72 0.2 -0.45 1 1 1
v 0.7434314 0.2565686 -0.45 1 1 1
v 0.7 0.2 -0.4 1 1 1
v 0.7292894 0.2707107 -0.4 1 1 1
v 0.7434314 0.1434315 -0.45 1 1 1
v 0.7292894 0.1292893 -0.4 1 1 1
v 0.8707107 0.1292893 -0.4 1 1 1
v 0.8565686 0.1434315 -0.45 1 1 1
v 0.8 0.1 -0.4 1 1 1
v 0.8 0.12 -0.45 1 1 1
v 0.8 0.28 -0.45 1 1 1
v 0.8 0.3 -0.4 1 1 1
v -0.7434314 0.2565686 -0.45 1 1 1
v -0.72 0.2 -0.45 1 1 1
v -0.7292894 0.2707107 -0.4 1 1 1
v -0.7 0.2 -0.4 1 1 1
v -0.88 0.2 -0.45 1 1 1
v -0.8565686 0.2565686 -0.45 1 1 1
v -0.9 0.2 -0.4 1 1 1
v -0.8707107 0.2707107 -0.4 1 1 1
v -0.8565686 0.1434315 -0.45 1 1 1
v -0.8707107 0.1292893 -0.4 1 1 1
v -0.7292894 0.1292893 -0.4 1 1 1
v -0.7434314 0.1434315 -0.45 1 1 1
v -0.8 0.1 -0.4 1 1 1
v -0.8 0.12 -0.45 1 1 1
v -0.8 0.28 -0.45 1 1 1
v -0.8 0.3 -0.4 1 1 1
v 0.7434314 0.2565686 0.45 1 1 1
v 0.72 0.2 0.45 1 1 1
v 0.7292894 0.2707107 0.4 1 1 1
v 0.7 0.2 0.4 1 1 1
v 0.88 0.2 0.45 1 1 1
v 0.8565686 0.2565686 0.45 1 1 1
v 0.9 0.2 0.4 1 1 1
v 0.8707107 0.2707107 0.4 1 1 1
v 0.8565686 0.1434315 0.45 1 1 1
v 0.8707107 0.1292893 0.4 1 1 1
v 0.7292894 0.1292893 0.4 1 1 1
v 0.7434314 0.1434315 0.45 1 1 1
v 0.8 0.1 0.4 1 1 1
v 0.8 0.12 0.45 1 1 1
v 0.8 0.28 0.45 1 1 1
v 0.8 0.3 0.4 1 1 1
v -0.8565686 0.2565686 0.45 1 1 1
v -0.88 0.2 0.45 1 1 1
v -0.8707107 0.2707107 0.4 1 1 1
v -0.9 0.2 0.4 1 1 1
v -0.72 0.2 0.45 1 1 1
v -0.7434314 0.2565686 0.45 1 1 1
v -0.7 0.2 0.4 1 1 1
v -0.7292894 0.2707107 0.4 1 1 1
v -0.7434314 0.1434315 0.45 1 1 1
v -0.7292894 0.1292893 0.4 1 1 1
v -0.8707107 0.1292893 0.4 1 1 1
v -0.8565686 0.1434315 0.45 1 1 1
v -0.8 0.1 0.4 1 1 1
v -0.8 0.12 0.45 1 1 1
v -0.8 0.28 0.45 1 1 1
v -0.8 0.3 0.4 1 1 1
v -0.9707108 0.02928932 0.3 1 1 1
v -1 0.1 0.3 1 1 1
v -0.9707108 0.02928932 0.5 1 1 1
v -1 0.1 0.5 1 1 1
v -0.9 0 -0.5 1 1 1
v 0.9 0 -0.5 1 1 1
v -0.9707108 0.02928932 -0.5 1 1 1
v 0.9707106 0.02928932 -0.5 1 1 1
v -1 0.1 -0.5 1 1 1
v 1 0.1 -0.5 1 1 1
v -1 0.3 -0.5 1 1 1
v 1 0.3 -0.5 1 1 1
v -0.9707108 0.3707107 -0.5 1 1 1
v 0.9707106 0.3707107 -0.5 1 1 1
v -0.9 0.4 -0.5 1 1 1
v 0.9 0.4 -0.5 1 1 1
v -0.9 0 0.5 1 1 1
v -0.9 0 0.3 1 1 1
v 0.9707106 0.3707107 0.3 1 1 1
v 0.9707106 0.3707107 0.5 1 1 1
v 0.9 0.4 0.3 1 1 1
v 0.9 0.4 0.5 1 1 1
v 1 0.3 0.3 1 1 1
v 1 0.3 0.5 1 1 1
v 0.9 0 0.5 1 1 1
v 0.9 0 0.3 1 1 1
v -0.9 0.4 0.3 1 1 1
v -0.9 0.4 0.5 1 1 1
v 1 0.1 0.3 1 1 1
v 0.9707106 0.02928932 0.3 1 1 1
v 1 0.1 0.5 1 1 1
v 0.9707106 0.02928932 0.5 1 1 1
v -1 0.3 0.3 1 1 1
v -1 0.3 0.5 1 1 1
v -0.9707108 0.3707107 0.3 1 1 1
v -0.9707108 0.3707107 0.5 1 1 1

vn 0.7071068 -0.7071068 0
vn 0.1950903 -0.9807853 0
vn -0.1950903 0.9807853 0
vn -0.7071068 0.7071068 0
vn 0.7071068 0.7071068 0
vn 0.9807853 0.1950903 0
vn 0.1950903 0.9807853 0
vn -0.9807853 0.1950903 0
vn -0.1950903 -0.9807853 0
vn -0.7071068 -0.7071068 0
vn -0.9807853 -0.1950903 0
vn 0.9807853 -0.1950903 0
vn -0.9238795 0.3826834 0
vn -0.9238795 -0.3826834 0
vn -0.3826834 0.9238795 0
vn 0.3826834 0.9238795 0
vn 0.9238795 -0.3826834 0
vn 0.9238795 0.3826834 0
vn -0.3826834 -0.9238795 0
vn 0.3826834 -0.9238795 0
vn 0 0 1
vn 0 0 -1
vn 0.4541464 0.4541464 -0.7664868
vn 0.6422601 0 -0.7664868
vn 0.6565321 0.6565321 -0.3713907
vn 0.9284768 0 -0.3713907
vn -0.6422601 0 -0.7664868
vn -0.4541464 0.4541464 -0.7664868
vn -0.9284768 0 -0.3713907
vn -0.6565321 0.6565321 -0.3713907
vn -0.4541464 -0.4541464 -0.7664868
vn -0.6565321 -0.6565321 -0.3713907
vn 0.6565321 -0.6565321 -0.3713907
vn 0.4541464 -0.4541464 -0.7664868
vn 0 -0.9284768 -0.3713907
vn 0 -0.6422601 -0.7664868
vn 0 0.6422601 -0.7664868
vn 0 0.9284768 -0.3713907
vn -0.4541465 0.4541464 0.7664868
vn -0.6422601 0 0.7664868
vn -0.6565321 0.6565321 0.3713906
vn -0.9284768 0 0.3713907
vn 0.6422601 0 0.7664868
vn 0.4541464 0.4541464 0.7664868
vn 0.9284768 0 0.3713907
vn 0.6565321 0.6565321 0.3713907
vn 0.4541464 -0.4541464 0.7664868
vn 0.6565321 -0.6565321 0.3713907
vn -0.6565321 -0.6565321 0.3713906
vn -0.4541465 -0.4541464 0.7664868
vn -1.106804E-08 -0.9284768 0.3713907
vn -2.284254E-08 -0.6422601 0.7664868
vn -2.284254E-08 0.6422601 0.7664868
vn -1.106804E-08 0.9284768 0.3713907

vt 0.09375 0.03964466
vt 0.09375 0.025
vt 0.09375 0.225
vt 0.09375 0.2103553
vt 0.09375 0.175
vt 0.09375 0.075
vt 0.09375 0.1049728
vt 0.09375 0.1450272
vt 0.09375 0.1
vt 0.09375 0.15
vt 0.34375 0.1815685
vt 0.34375 0.125
vt 0.34375 0.1957107
vt 0.34375 0.06843146
vt 0.34375 0.05428932
vt 0.34375 0.025
vt 0.34375 0.045
vt 0.34375 0.205
vt 0.34375 0.225
vt 0.46875 0.08232233
vt 0.46875 0.1
vt 0.46875 0.075
vt 0.46875 0.1049728
vt 0.46875 0.15
vt 0.46875 0.1450272
vt 0.46875 0.1676777
vt 0.46875 0.175

usemtl colormap

f 3/2/2 2/1/1 1/1/1
f 2/1/1 3/2/2 4/2/2
f 7/4/4 6/3/3 5/3/3
f 6/3/3 7/4/4 8/4/4
f 11/4/5 10/5/6 9/4/5
f 10/5/6 11/4/5 12/5/6
f 13/3/7 11/4/5 9/4/5
f 11/4/5 13/3/7 14/3/7
f 16/5/8 7/4/4 15/5/8
f 7/4/4 16/5/8 8/4/4
f 19/1/10 18/2/9 17/2/9
f 18/2/9 19/1/10 20/1/10
f 19/1/10 21/6/11 20/1/10
f 21/6/11 19/1/10 22/6/11
f 5/3/3 14/3/7 13/3/7
f 14/3/7 5/3/3 6/3/3
f 17/2/9 4/2/2 3/2/2
f 4/2/2 17/2/9 18/2/9
f 12/5/6 23/6/12 10/5/6
f 23/6/12 12/5/6 24/6/12
f 22/6/11 15/5/8 21/6/11
f 15/5/8 22/6/11 16/5/8
f 24/6/12 2/1/1 23/6/12
f 2/1/1 24/6/12 1/1/1
f 27/7/13 26/8/14 25/7/13
f 26/8/14 27/7/13 28/8/14
f 31/9/16 30/9/15 29/9/15
f 30/9/15 31/9/16 32/9/16
f 35/8/17 34/7/18 33/8/17
f 34/7/18 35/8/17 36/7/18
f 39/10/20 38/10/19 37/10/19
f 38/10/19 39/10/20 40/10/20
f 37/10/19 26/8/14 28/8/14
f 26/8/14 37/10/19 38/10/19
f 35/8/17 40/10/20 39/10/20
f 40/10/20 35/8/17 33/8/17
f 29/9/15 27/7/13 25/7/13
f 27/7/13 29/9/15 30/9/15
f 43/7/13 42/8/14 41/7/13
f 42/8/14 43/7/13 44/8/14
f 47/9/16 46/9/15 45/9/15
f 46/9/15 47/9/16 48/9/16
f 51/10/19 50/10/20 49/10/19
f 50/10/20 51/10/19 52/10/20
f 45/9/15 43/7/13 41/7/13
f 43/7/13 45/9/15 46/9/15
f 44/8/14 49/10/19 42/8/14
f 49/10/19 44/8/14 51/10/19
f 53/7/18 48/9/16 47/9/16
f 48/9/16 53/7/18 54/7/18
f 45/9/21 53/7/21 47/9/21
f 53/7/21 45/9/21 41/7/21
f 53/7/21 41/7/21 42/8/21
f 53/7/21 42/8/21 55/8/21
f 55/8/21 42/8/21 49/10/21
f 55/8/21 49/10/21 50/10/21
f 52/10/20 55/8/17 50/10/20
f 55/8/17 52/10/20 56/8/17
f 56/8/17 53/7/18 55/8/17
f 53/7/18 56/8/17 54/7/18
f 34/7/18 32/9/16 31/9/16
f 32/9/16 34/7/18 36/7/18
f 32/9/22 27/7/22 30/9/22
f 27/7/22 32/9/22 36/7/22
f 27/7/22 36/7/22 35/8/22
f 27/7/22 35/8/22 28/8/22
f 28/8/22 35/8/22 39/10/22
f 28/8/22 39/10/22 37/10/22
f 59/13/25 58/12/24 57/11/23
f 58/12/24 59/13/25 60/12/26
f 63/12/29 62/11/28 61/12/27
f 62/11/28 63/12/29 64/13/30
f 66/15/32 61/12/27 65/14/31
f 61/12/27 66/15/32 63/12/29
f 69/16/35 68/14/34 67/15/33
f 68/14/34 69/16/35 70/17/36
f 62/11/28 72/19/38 71/18/37
f 72/19/38 62/11/28 64/13/30
f 60/12/26 68/14/34 58/12/24
f 68/14/34 60/12/26 67/15/33
f 65/14/31 68/14/34 70/17/36
f 68/14/34 65/14/31 61/12/27
f 68/14/34 61/12/27 58/12/24
f 58/12/24 61/12/27 57/11/23
f 57/11/23 61/12/27 62/11/28
f 57/11/23 62/11/28 71/18/37
f 57/11/23 72/19/38 59/13/25
f 72/19/38 57/11/23 71/18/37
f 69/16/35 65/14/31 70/17/36
f 65/14/31 69/16/35 66/15/32
f 75/13/25 74/12/24 73/11/23
f 74/12/24 75/13/25 76/12/26
f 79/12/29 78/11/28 77/12/27
f 78/11/28 79/12/29 80/13/30
f 82/15/32 77/12/27 81/14/31
f 77/12/27 82/15/32 79/12/29
f 85/16/35 84/14/34 83/15/33
f 84/14/34 85/16/35 86/17/36
f 78/11/28 88/19/38 87/18/37
f 88/19/38 78/11/28 80/13/30
f 76/12/26 84/14/34 74/12/24
f 84/14/34 76/12/26 83/15/33
f 81/14/31 84/14/34 86/17/36
f 84/14/34 81/14/31 77/12/27
f 84/14/34 77/12/27 74/12/24
f 74/12/24 77/12/27 73/11/23
f 73/11/23 77/12/27 78/11/28
f 73/11/23 78/11/28 87/18/37
f 73/11/23 88/19/38 75/13/25
f 88/19/38 73/11/23 87/18/37
f 85/16/35 81/14/31 86/17/36
f 81/14/31 85/16/35 82/15/32
f 91/13/41 90/12/40 89/11/39
f 90/12/40 91/13/41 92/12/42
f 95/12/45 94/11/44 93/12/43
f 94/11/44 95/12/45 96/13/46
f 98/15/48 93/12/43 97/14/47
f 93/12/43 98/15/48 95/12/45
f 101/16/51 100/14/50 99/15/49
f 100/14/50 101/16/51 102/17/52
f 94/11/44 104/19/54 103/18/53
f 104/19/54 94/11/44 96/13/46
f 92/12/42 100/14/50 90/12/40
f 100/14/50 92/12/42 99/15/49
f 97/14/47 100/14/50 102/17/52
f 100/14/50 97/14/47 93/12/43
f 100/14/50 93/12/43 90/12/40
f 90/12/40 93/12/43 89/11/39
f 89/11/39 93/12/43 94/11/44
f 89/11/39 94/11/44 103/18/53
f 89/11/39 104/19/54 91/13/41
f 104/19/54 89/11/39 103/18/53
f 101/16/51 97/14/47 102/17/52
f 97/14/47 101/16/51 98/15/48
f 107/13/41 106/12/40 105/11/39
f 106/12/40 107/13/41 108/12/42
f 111/12/45 110/11/44 109/12/43
f 110/11/44 111/12/45 112/13/46
f 114/15/48 109/12/43 113/14/47
f 109/12/43 114/15/48 111/12/45
f 117/16/51 116/14/50 115/15/49
f 116/14/50 117/16/51 118/17/52
f 110/11/44 120/19/54 119/18/53
f 120/19/54 110/11/44 112/13/46
f 108/12/42 116/14/50 106/12/40
f 116/14/50 108/12/42 115/15/49
f 113/14/47 116/14/50 118/17/52
f 116/14/50 113/14/47 109/12/43
f 116/14/50 109/12/43 106/12/40
f 106/12/40 109/12/43 105/11/39
f 105/11/39 109/12/43 110/11/44
f 105/11/39 110/11/44 119/18/53
f 105/11/39 120/19/54 107/13/41
f 120/19/54 105/11/39 119/18/53
f 117/16/51 113/14/47 118/17/52
f 113/14/47 117/16/51 114/15/48
f 123/20/10 122/21/11 121/20/10
f 122/21/11 123/20/10 124/21/11
f 127/20/22 126/22/22 125/22/22
f 126/22/22 127/20/22 128/20/22
f 128/20/22 127/20/22 129/21/22
f 128/20/22 129/21/22 130/21/22
f 130/21/22 129/21/22 31/21/22
f 31/21/22 129/21/22 34/23/22
f 130/21/22 31/21/22 29/21/22
f 25/23/22 130/21/22 29/21/22
f 34/23/22 129/21/22 131/24/22
f 130/21/22 25/23/22 132/24/22
f 34/23/22 131/24/22 33/25/22
f 132/24/22 25/23/22 26/25/22
f 132/24/22 26/25/22 38/24/22
f 33/25/22 131/24/22 40/24/22
f 132/24/22 38/24/22 40/24/22
f 132/24/22 40/24/22 131/24/22
f 132/24/22 131/24/22 133/26/22
f 132/24/22 133/26/22 134/26/22
f 134/26/22 133/26/22 135/27/22
f 134/26/22 135/27/22 136/27/22
f 23/21/12 128/20/1 130/21/12
f 128/20/1 23/21/12 2/20/1
f 4/22/2 128/20/1 2/20/1
f 128/20/1 4/22/2 126/22/2
f 123/20/10 138/22/9 137/22/9
f 138/22/9 123/20/10 121/20/10
f 141/27/7 140/26/5 139/26/5
f 140/26/5 141/27/7 142/27/7
f 140/26/5 143/24/6 139/26/5
f 143/24/6 140/26/5 144/24/6
f 20/20/10 125/22/9 18/22/9
f 125/22/9 20/20/10 127/20/10
f 136/27/7 9/26/5 134/26/5
f 9/26/5 136/27/7 13/27/7
f 15/24/8 133/26/4 131/24/8
f 133/26/4 15/24/8 7/26/4
f 137/22/9 146/22/2 145/22/2
f 146/22/2 137/22/9 138/22/9
f 147/27/3 142/27/7 141/27/7
f 142/27/7 147/27/3 148/27/3
f 151/21/12 150/20/1 149/21/12
f 150/20/1 151/21/12 152/20/1
f 124/21/11 153/24/8 122/21/11
f 153/24/8 124/21/11 154/24/8
f 145/22/2 150/20/1 152/20/1
f 150/20/1 145/22/2 146/22/2
f 144/24/6 149/21/12 143/24/6
f 149/21/12 144/24/6 151/21/12
f 10/24/6 130/21/12 132/24/6
f 130/21/12 10/24/6 23/21/12
f 18/22/9 126/22/2 4/22/2
f 126/22/2 18/22/9 125/22/9
f 20/20/10 129/21/11 127/20/10
f 129/21/11 20/20/10 21/21/11
f 155/26/4 148/27/3 147/27/3
f 148/27/3 155/26/4 156/26/4
f 9/26/5 132/24/6 134/26/5
f 132/24/6 9/26/5 10/24/6
f 133/26/4 5/27/3 135/27/3
f 5/27/3 133/26/4 7/26/4
f 21/21/11 131/24/8 129/21/11
f 131/24/8 21/21/11 15/24/8
f 135/27/3 13/27/7 136/27/7
f 13/27/7 135/27/3 5/27/3
f 154/24/8 155/26/4 153/24/8
f 155/26/4 154/24/8 156/26/4
f 152/20/21 137/22/21 145/22/21
f 137/22/21 152/20/21 123/20/21
f 123/20/21 152/20/21 151/21/21
f 123/20/21 151/21/21 124/21/21
f 124/21/21 151/21/21 48/21/21
f 151/21/21 46/21/21 48/21/21
f 124/21/21 48/21/21 54/23/21
f 46/21/21 151/21/21 43/23/21
f 124/21/21 54/23/21 154/24/21
f 43/23/21 151/21/21 144/24/21
f 154/24/21 54/23/21 56/25/21
f 43/23/21 144/24/21 44/25/21
f 154/24/21 56/25/21 52/24/21
f 44/25/21 144/24/21 51/24/21
f 154/24/21 52/24/21 51/24/21
f 154/24/21 51/24/21 144/24/21
f 154/24/21 144/24/21 140/26/21
f 154/24/21 140/26/21 156/26/21
f 156/26/21 140/26/21 148/27/21
f 148/27/21 140/26/21 142/27/21

g conveyor-long-stripe




usemtl colormap

f 3/2/2 2/1/1 1/1/1
f 2/1/1 3/2/2 4/2/2
f 7/4/4 6/3/3 5/3/3
f 6/3/3 7/4/4 8/4/4
f 11/4/5 10/5/6 9/4/5
f 10/5/6 11/4/5 12/5/6
f 13/3/7 11/4/5 9/4/5
f 11/4/5 13/3/7 14/3/7
f 16/5/8 7/4/4 15/5/8
f 7/4/4 16/5/8 8/4/4
f 19/1/10 18/2/9 17/2/9
f 18/2/9 19/1/10 20/1/10
f 19/1/10 21/6/11 20/1/10
f 21/6/11 19/1/10 22/6/11
f 5/3/3 14/3/7 13/3/7
f 14/3/7 5/3/3 6/3/3
f 17/2/9 4/2/2 3/2/2
f 4/2/2 17/2/9 18/2/9
f 12/5/6 23/6/12 10/5/6
f 23/6/12 12/5/6 24/6/12
f 22/6/11 15/5/8 21/6/11
f 15/5/8 22/6/11 16/5/8
f 24/6/12 2/1/1 23/6/12
f 2/1/1 24/6/12 1/1/1
f 27/7/13 26/8/14 25/7/13
f 26/8/14 27/7/13 28/8/14
f 31/9/16 30/9/15 29/9/15
f 30/9/15 31/9/16 32/9/16
f 35/8/17 34/7/18 33/8/17
f 34/7/18 35/8/17 36/7/18
f 39/10/20 38/10/19 37/10/19
f 38/10/19 39/10/20 40/10/20
f 37/10/19 26/8/14 28/8/14
f 26/8/14 37/10/19 38/10/19
f 35/8/17 40/10/20 39/10/20
f 40/10/20 35/8/17 33/8/17
f 29/9/15 27/7/13 25/7/13
f 27/7/13 29/9/15 30/9/15
f 43/7/13 42/8/14 41/7/13
f 42/8/14 43/7/13 44/8/14
f 47/9/16 46/9/15 45/9/15
f 46/9/15 47/9/16 48/9/16
f 51/10/19 50/10/20 49/10/19
f 50/10/20 51/10/19 52/10/20
f 45/9/15 43/7/13 41/7/13
f 43/7/13 45/9/15 46/9/15
f 44/8/14 49/10/19 42/8/14
f 49/10/19 44/8/14 51/10/19
f 53/7/18 48/9/16 47/9/16
f 48/9/16 53/7/18 54/7/18
f 45/9/21 53/7/21 47/9/21
f 53/7/21 45/9/21 41/7/21
f 53/7/21 41/7/21 42/8/21
f 53/7/21 42/8/21 55/8/21
f 55/8/21 42/8/21 49/10/21
f 55/8/21 49/10/21 50/10/21
f 52/10/20 55/8/17 50/10/20
f 55/8/17 52/10/20 56/8/17
f 56/8/17 53/7/18 55/8/17
f 53/7/18 56/8/17 54/7/18
f 34/7/18 32/9/16 31/9/16
f 32/9/16 34/7/18 36/7/18
f 32/9/22 27/7/22 30/9/22
f 27/7/22 32/9/22 36/7/22
f 27/7/22 36/7/22 35/8/22
f 27/7/22 35/8/22 28/8/22
f 28/8/22 35/8/22 39/10/22
f 28/8/22 39/10/22 37/10/22
f 59/13/25 58/12/24 57/11/23
f 58/12/24 59/13/25 60/12/26
f 63/12/29 62/11/28 61/12/27
f 62/11/28 63/12/29 64/13/30
f 66/15/32 61/12/27 65/14/31
f 61/12/27 66/15/32 63/12/29
f 69/16/35 68/14/34 67/15/33
f 68/14/34 69/16/35 70/17/36
f 62/11/28 72/19/38 71/18/37
f 72/19/38 62/11/28 64/13/30
f 60/12/26 68/14/34 58/12/24
f 68/14/34 60/12/26 67/15/33
f 65/14/31 68/14/34 70/17/36
f 68/14/34 65/14/31 61/12/27
f 68/14/34 61/12/27 58/12/24
f 58/12/24 61/12/27 57/11/23
f 57/11/23 61/12/27 62/11/28
f 57/11/23 62/11/28 71/18/37
f 57/11/23 72/19/38 59/13/25
f 72/19/38 57/11/23 71/18/37
f 69/16/35 65/14/31 70/17/36
f 65/14/31 69/16/35 66/15/32
f 75/13/25 74/12/24 73/11/23
f 74/12/24 75/13/25 76/12/26
f 79/12/29 78/11/28 77/12/27
f 78/11/28 79/12/29 80/13/30
f 82/15/32 77/12/27 81/14/31
f 77/12/27 82/15/32 79/12/29
f 85/16/35 84/14/34 83/15/33
f 84/14/34 85/16/35 86/17/36
f 78/11/28 88/19/38 87/18/37
f 88/19/38 78/11/28 80/13/30
f 76/12/26 84/14/34 74/12/24
f 84/14/34 76/12/26 83/15/33
f 81/14/31 84/14/34 86/17/36
f 84/14/34 81/14/31 77/12/27
f 84/14/34 77/12/27 74/12/24
f 74/12/24 77/12/27 73/11/23
f 73/11/23 77/12/27 78/11/28
f 73/11/23 78/11/28 87/18/37
f 73/11/23 88/19/38 75/13/25
f 88/19/38 73/11/23 87/18/37
f 85/16/35 81/14/31 86/17/36
f 81/14/31 85/16/35 82/15/32
f 91/13/41 90/12/40 89/11/39
f 90/12/40 91/13/41 92/12/42
f 95/12/45 94/11/44 93/12/43
f 94/11/44 95/12/45 96/13/46
f 98/15/48 93/12/43 97/14/47
f 93/12/43 98/15/48 95/12/45
f 101/16/51 100/14/50 99/15/49
f 100/14/50 101/16/51 102/17/52
f 94/11/44 104/19/54 103/18/53
f 104/19/54 94/11/44 96/13/46
f 92/12/42 100/14/50 90/12/40
f 100/14/50 92/12/42 99/15/49
f 97/14/47 100/14/50 102/17/52
f 100/14/50 97/14/47 93/12/43
f 100/14/50 93/12/43 90/12/40
f 90/12/40 93/12/43 89/11/39
f 89/11/39 93/12/43 94/11/44
f 89/11/39 94/11/44 103/18/53
f 89/11/39 104/19/54 91/13/41
f 104/19/54 89/11/39 103/18/53
f 101/16/51 97/14/47 102/17/52
f 97/14/47 101/16/51 98/15/48
f 107/13/41 106/12/40 105/11/39
f 106/12/40 107/13/41 108/12/42
f 111/12/45 110/11/44 109/12/43
f 110/11/44 111/12/45 112/13/46
f 114/15/48 109/12/43 113/14/47
f 109/12/43 114/15/48 111/12/45
f 117/16/51 116/14/50 115/15/49
f 116/14/50 117/16/51 118/17/52
f 110/11/44 120/19/54 119/18/53
f 120/19/54 110/11/44 112/13/46
f 108/12/42 116/14/50 106/12/40
f 116/14/50 108/12/42 115/15/49
f 113/14/47 116/14/50 118/17/52
f 116/14/50 113/14/47 109/12/43
f 116/14/50 109/12/43 106/12/40
f 106/12/40 109/12/43 105/11/39
f 105/11/39 109/12/43 110/11/44
f 105/11/39 110/11/44 119/18/53
f 105/11/39 120/19/54 107/13/41
f 120/19/54 105/11/39 119/18/53
f 117/16/51 113/14/47 118/17/52
f 113/14/47 117/16/51 114/15/48
f 123/20/10 122/21/11 121/20/10
f 122/21/11 123/20/10 124/21/11
f 127/20/22 126/22/22 125/22/22
f 126/22/22 127/20/22 128/20/22
f 128/20/22 127/20/22 129/21/22
f 128/20/22 129/21/22 130/21/22
f 130/21/22 129/21/22 31/21/22
f 31/21/22 129/21/22 34/23/22
f 130/21/22 31/21/22 29/21/22
f 25/23/22 130/21/22 29/21/22
f 34/23/22 129/21/22 131/24/22
f 130/21/22 25/23/22 132/24/22
f 34/23/22 131/24/22 33/25/22
f 132/24/22 25/23/22 26/25/22
f 132/24/22 26/25/22 38/24/22
f 33/25/22 131/24/22 40/24/22
f 132/24/22 38/24/22 40/24/22
f 132/24/22 40/24/22 131/24/22
f 132/24/22 131/24/22 133/26/22
f 132/24/22 133/26/22 134/26/22
f 134/26/22 133/26/22 135/27/22
f 134/26/22 135/27/22 136/27/22
f 23/21/12 128/20/1 130/21/12
f 128/20/1 23/21/12 2/20/1
f 4/22/2 128/20/1 2/20/1
f 128/20/1 4/22/2 126/22/2
f 123/20/10 138/22/9 137/22/9
f 138/22/9 123/20/10 121/20/10
f 141/27/7 140/26/5 139/26/5
f 140/26/5 141/27/7 142/27/7
f 140/26/5 143/24/6 139/26/5
f 143/24/6 140/26/5 144/24/6
f 20/20/10 125/22/9 18/22/9
f 125/22/9 20/20/10 127/20/10
f 136/27/7 9/26/5 134/26/5
f 9/26/5 136/27/7 13/27/7
f 15/24/8 133/26/4 131/24/8
f 133/26/4 15/24/8 7/26/4
f 137/22/9 146/22/2 145/22/2
f 146/22/2 137/22/9 138/22/9
f 147/27/3 142/27/7 141/27/7
f 142/27/7 147/27/3 148/27/3
f 151/21/12 150/20/1 149/21/12
f 150/20/1 151/21/12 152/20/1
f 124/21/11 153/24/8 122/21/11
f 153/24/8 124/21/11 154/24/8
f 145/22/2 150/20/1 152/20/1
f 150/20/1 145/22/2 146/22/2
f 144/24/6 149/21/12 143/24/6
f 149/21/12 144/24/6 151/21/12
f 10/24/6 130/21/12 132/24/6
f 130/21/12 10/24/6 23/21/12
f 18/22/9 126/22/2 4/22/2
f 126/22/2 18/22/9 125/22/9
f 20/20/10 129/21/11 127/20/10
f 129/21/11 20/20/10 21/21/11
f 155/26/4 148/27/3 147/27/3
f 148/27/3 155/26/4 156/26/4
f 9/26/5 132/24/6 134/26/5
f 132/24/6 9/26/5 10/24/6
f 133/26/4 5/27/3 135/27/3
f 5/27/3 133/26/4 7/26/4
f 21/21/11 131/24/8 129/21/11
f 131/24/8 21/21/11 15/24/8
f 135/27/3 13/27/7 136/27/7
f 13/27/7 135/27/3 5/27/3
f 154/24/8 155/26/4 153/24/8
f 155/26/4 154/24/8 156/26/4
f 152/20/21 137/22/21 145/22/21
f 137/22/21 152/20/21 123/20/21
f 123/20/21 152/20/21 151/21/21
f 123/20/21 151/21/21 124/21/21
f 124/21/21 151/21/21 48/21/21
f 151/21/21 46/21/21 48/21/21
f 124/21/21 48/21/21 54/23/21
f 46/21/21 151/21/21 43/23/21
f 124/21/21 54/23/21 154/24/21
f 43/23/21 151/21/21 144/24/21
f 154/24/21 54/23/21 56/25/21
f 43/23/21 144/24/21 44/25/21
f 154/24/21 56/25/21 52/24/21
f 44/25/21 144/24/21 51/24/21
f 154/24/21 52/24/21 51/24/21
f 154/24/21 51/24/21 144/24/21
f 154/24/21 144/24/21 140/26/21
f 154/24/21 140/26/21 156/26/21
f 156/26/21 140/26/21 148/27/21
f 148/27/21 140/26/21 142/27/21

