# Created by Kenney (www.kenney.nl)

mtllib conveyor-corner.mtl

g conveyor-corner

v 0.3198711 0.45 0.2911804 1 1 1
v 0.3677181 0.45 0.2766661 1 1 1
v 0.3301342 0.4353553 0.3250133 1 1 1
v 0.3779813 0.4353553 0.3104991 1 1 1
v 0.3822324 0.4 0.3245131 1 1 1
v 0.3343854 0.4 0.3390274 1 1 1
v -0.3250134 0.4353553 -0.330134 1 1 1
v -0.3104992 0.4353553 -0.377981 1 1 1
v -0.2911804 0.45 -0.3198709 1 1 1
v -0.2766662 0.45 -0.367718 1 1 1
v -0.3390275 0.4 -0.3343851 1 1 1
v -0.3245133 0.4 -0.3822322 1 1 1
v -0.1749969 0.45 -0.284627 1 1 1
v -0.1557702 0.45 -0.3310446 1 1 1
v -0.02816856 0.45 -0.2061457 1 1 1
v -0.0002556443 0.45 -0.2479204 1 1 1
v 0.1005276 0.45 -0.1005276 1 1 1
v 0.136054 0.45 -0.136054 1 1 1
v 0.2061458 0.45 0.02816852 1 1 1
v 0.2479204 0.45 0.0002555884 1 1 1
v 0.2846272 0.45 0.1749968 1 1 1
v 0.3310447 0.45 0.1557701 1 1 1
v 0.3822324 0.34 0.3245131 1 1 1
v 0.3343854 0.34 0.3390274 1 1 1
v -0.1749969 0.34 -0.284627 1 1 1
v -0.3390275 0.34 -0.3343851 1 1 1
v 0.2846272 0.34 0.1749968 1 1 1
v 0.2061458 0.34 0.02816852 1 1 1
v -0.3245133 0.34 -0.3822322 1 1 1
v 0.1005276 0.34 -0.1005276 1 1 1
v -0.02816856 0.34 -0.2061457 1 1 1
v 0.3310447 0.34 0.1557701 1 1 1
v 0.2479204 0.34 0.0002555884 1 1 1
v 0.136054 0.34 -0.136054 1 1 1
v -0.0002556443 0.34 -0.2479204 1 1 1
v -0.1557702 0.34 -0.3310446 1 1 1
v -0.3999999 0.34 0.5000002 1 1 1
v -0.4 0.34 0.4500002 1 1 1
v 0.4000002 0.34 0.5000001 1 1 1
v -0.4 0.34 0.4000002 1 1 1
v -0.4000002 0.34 -0.389667 1 1 1
v -0.4146446 0.34 0.4146449 1 1 1
v -0.45 0.34 0.4000002 1 1 1
v -0.5000002 0.34 -0.3999999 1 1 1
v -0.5 0.34 0.4000002 1 1 1
v -0.3245132 0.34 -0.3822322 1 1 1
v -0.1557702 0.34 -0.3310446 1 1 1
v -0.000255648 0.34 -0.2479203 1 1 1
v 0.136054 0.34 -0.136054 1 1 1
v 0.2479204 0.34 0.0002555698 1 1 1
v 0.3310447 0.34 0.15577 1 1 1
v 0.3896672 0.34 0.4 1 1 1
v 0.3822324 0.34 0.3245131 1 1 1
v 0.1812249 0.1633975 -0.1812249 1 1 1
v 0.1812249 0.2366025 -0.1812249 1 1 1
v 0.03523491 0.1633975 -0.3010357 1 1 1
v 0.03523491 0.2366025 -0.3010357 1 1 1
v 0.3900633 0.1633975 0.1313237 1 1 1
v 0.3900633 0.2366025 0.1313237 1 1 1
v 0.3010358 0.1633975 -0.035235 1 1 1
v 0.3010358 0.2366025 -0.035235 1 1 1
v -0.1313239 0.1633975 -0.3900632 1 1 1
v -0.1313239 0.2366025 -0.3900632 1 1 1
v 0.4448863 0.1633975 0.3120504 1 1 1
v 0.4448863 0.2366025 0.3120504 1 1 1
v -0.3120506 0.1633975 -0.4448861 1 1 1
v -0.3120506 0.2366025 -0.4448861 1 1 1
v -0.5000002 0.1633975 -0.4633974 1 1 1
v -0.5000002 0.2366025 -0.4633974 1 1 1
v 0.4633977 0.1633975 0.5000001 1 1 1
v 0.4633977 0.2366025 0.5000001 1 1 1
v -0.1173167 0.3 -0.4238796 1 1 1
v -0.3049098 0.3 -0.4807853 1 1 1
v -0.5000002 0.1 -0.5 1 1 1
v -0.3049098 0.1 -0.4807853 1 1 1
v 0.5000002 0.1 0.5000001 1 1 1
v 0.4807855 0.1 0.3049096 1 1 1
v 0.05557019 0.3 -0.3314697 1 1 1
v 0.4238797 0.3 0.1173165 1 1 1
v 0.3314697 0.3 -0.05557029 1 1 1
v 0.5000002 0.3 0.5000001 1 1 1
v 0.4807855 0.3 0.3049096 1 1 1
v 0.2071068 0.3 -0.2071068 1 1 1
v -0.5000002 0.3 -0.5 1 1 1
v 0.05557019 0.1 -0.3314697 1 1 1
v 0.2071068 0.1 -0.2071068 1 1 1
v -0.1173167 0.1 -0.4238796 1 1 1
v 0.3314697 0.1 -0.05557029 1 1 1
v 0.4238797 0.1 0.1173165 1 1 1
v -0.5000002 0.4 -0.3999999 1 1 1
v -0.5000002 0.4 -0.5 1 1 1
v -0.5000002 8.468255E-14 -0.5 1 1 1
v -0.5000002 0.34 -0.1999999 1 1 1
v -0.5000001 0.34 0.2000002 1 1 1
v -0.5 0.34 0.4000002 1 1 1
v -0.5 -8.468255E-14 0.5000003 1 1 1
v -0.5 0.4 0.4000002 1 1 1
v -0.5 0.4 0.5000003 1 1 1
v 0.4000002 0.4 0.5000001 1 1 1
v 0.5000002 0.4 0.5000001 1 1 1
v -0.3999999 0.34 0.5000003 1 1 1
v 0.5000002 0 0.5000001 1 1 1
v -0.3999999 0.4 0.5000003 1 1 1
v -0.1999999 0.34 0.5000002 1 1 1
v 0.2000002 0.34 0.5000001 1 1 1
v 0.2071068 0.4 -0.2071068 1 1 1
v 0.05557019 0.4 -0.3314697 1 1 1
v -0.1173167 0.4 -0.4238796 1 1 1
v 0.4238797 0.4 0.1173165 1 1 1
v 0.3314697 0.4 -0.05557029 1 1 1
v 0.4807855 0.4 0.3049096 1 1 1
v -0.3049098 0.4 -0.4807853 1 1 1
v 0.3310447 0.4 0.1557701 1 1 1
v 0.3310447 0.34 0.1557701 1 1 1
v 0.2479204 0.4 0.0002555807 1 1 1
v 0.2479204 0.34 0.0002555807 1 1 1
v 0.3822324 0.4 0.3245131 1 1 1
v 0.3822324 0.34 0.3245131 1 1 1
v -0.4000002 0.34 -0.389667 1 1 1
v -0.4000002 0.4 -0.389667 1 1 1
v -0.1557702 0.34 -0.3310446 1 1 1
v -0.1557702 0.4 -0.3310446 1 1 1
v -0.3245132 0.4 -0.3822322 1 1 1
v 0.3896672 0.4 0.4 1 1 1
v 0.3896672 0.34 0.4 1 1 1
v 0.136054 0.4 -0.136054 1 1 1
v 0.136054 0.34 -0.136054 1 1 1
v -0.45 0.4 0.4000002 1 1 1
v -0.4146446 0.4 0.4146449 1 1 1
v -0.3999999 0.4 0.4500002 1 1 1
v -0.0002556453 0.4 -0.2479204 1 1 1
v -0.45 0.34 0.4000002 1 1 1
v -0.0002556453 0.34 -0.2479204 1 1 1
v -0.3999999 0.34 0.4500002 1 1 1
v -0.3049098 1.511809E-13 -0.4807853 1 1 1
v -0.1173167 1.304846E-13 -0.4238796 1 1 1
v 0.05557019 1.080264E-13 -0.3314697 1 1 1
v 0.2071068 8.466933E-14 -0.2071068 1 1 1
v 0.3314697 6.131108E-14 -0.05557029 1 1 1
v 0.4238797 3.884925E-14 0.1173165 1 1 1
v 0.4807855 1.814703E-14 0.3049096 1 1 1

vn 0.05663179 0.9807853 0.1866898
vn 0.2052625 0.7071068 0.6766591
vn 0.2847072 0.1950903 0.9385532
vn -0.6766592 0.7071068 -0.2052621
vn -0.1866899 0.9807853 -0.0566317
vn -0.9385533 0.1950903 -0.2847068
vn 0 1 0
vn 0.290285 0 0.9569405
vn -0.3826833 0 0.9238799
vn -0.2902845 0 0.9569407
vn -0.9238796 0 0.3826837
vn -0.8314697 0 0.5555705
vn -0.9569407 0 -0.2902845
vn -0.7071068 0 0.7071071
vn -0.5555702 0 0.8314699
vn -0.9569405 0 0.290285
vn 0.9238796 0 -0.3826837
vn 0.8314697 0 -0.5555705
vn 0.9569405 0 -0.290285
vn 0.7071068 0 -0.7071071
vn 0.5555702 0 -0.8314699
vn 0.3826833 0 -0.9238799
vn 0.2902845 0 -0.9569407
vn 0.6822234 0.2629493 -0.6822238
vn 0.6822234 -0.2629493 -0.6822238
vn 0.5360194 0.2629493 -0.8022102
vn 0.5360194 -0.2629493 -0.8022102
vn 0.8913681 0.2629493 -0.369217
vn 0.8913681 -0.2629493 -0.369217
vn 0.80221 0.2629493 -0.5360198
vn 0.80221 -0.2629493 -0.5360198
vn 0.3692166 0.2629493 -0.8913682
vn 0.3692166 -0.2629493 -0.8913682
vn 0.9462712 0.2629493 -0.1882253
vn 0.9462712 -0.2629493 -0.1882253
vn 0.1882248 0.2629493 -0.9462714
vn 0.1882248 -0.2629493 -0.9462714
vn 0.09459902 0.2617701 -0.9604831
vn 0.09459902 -0.2617701 -0.9604831
vn 0.9604831 0.2617701 -0.09459955
vn 0.9604831 -0.2617701 -0.09459955
vn 0.3314135 -0.5 -0.8001034
vn 0.168953 -0.5000001 -0.8493853
vn 0.08498721 0.498191 -0.8628923
vn 0.168953 0.5000001 -0.8493853
vn 0.8628923 0.498191 -0.08498768
vn 0.8493851 0.5000001 -0.1689534
vn 0.4811379 -0.5 -0.7200741
vn 0.8001033 -0.5 -0.3314138
vn 0.7200739 -0.5 -0.4811382
vn 0.8628923 -0.498191 -0.08498768
vn 0.8493851 -0.5000001 -0.1689534
vn 0.6123725 -0.5 -0.6123727
vn 0.08498721 -0.498191 -0.8628923
vn 0.4811379 0.5 -0.7200741
vn 0.6123725 0.5 -0.6123727
vn 0.3314135 0.5 -0.8001034
vn 0.7200739 0.5 -0.4811382
vn 0.8001033 0.5 -0.3314138
vn -1 0 2.384186E-07
vn 2.384186E-07 0 1
vn 0.9807854 0 -0.1950906
vn 0.09801686 0 -0.995185
vn 0.1950901 0 -0.9807855
vn 0.995185 0 -0.09801739
vn -0.9807854 0 0.1950906
vn -0.1003999 0 0.9949474
vn -0.1027824 0 0.9947041
vn -0.1950901 0 0.9807855
vn -0.9949474 0 0.1004005
vn -0.9947041 0 0.102783
vn 0.1950903 0 -0.9807855
vn -2.384186E-07 0 -1
vn 0.7071068 0 -0.7071071
vn 1 0 -2.384186E-07
vn 0 -1 0

vt 0.84375 0.225
vt 0.84375 0.1983733
vt 0.84375 0.1340909
vt 0.84375 0.025
vt 0.09375 0.145
vt 0.09375 0.1776795
vt 0.09375 0.1923205
vt 0.09375 0.205
vt 0.09375 0.165
vt 0.34375 0.225
vt 0.34375 0.213
vt 0.34375 0.1923205
vt 0.34375 0.205
vt 0.34375 0.1776795
vt 0.34375 0.145
vt 0.34375 0.165

usemtl colormap

f 3/2/2 2/1/1 1/1/1
f 2/1/1 3/2/2 4/2/2
f 4/2/2 6/3/3 5/3/3
f 6/3/3 4/2/2 3/2/2
f 9/1/5 8/2/4 7/2/4
f 8/2/4 9/1/5 10/1/5
f 8/2/4 11/3/6 7/2/4
f 11/3/6 8/2/4 12/3/6
f 13/1/7 10/1/5 9/1/5
f 10/1/5 13/1/7 14/1/7
f 14/1/7 13/1/7 15/1/7
f 14/1/7 15/1/7 16/1/7
f 16/1/7 15/1/7 17/1/7
f 16/1/7 17/1/7 18/1/7
f 18/1/7 17/1/7 19/1/7
f 18/1/7 19/1/7 20/1/7
f 20/1/7 19/1/7 21/1/7
f 20/1/7 21/1/7 22/1/7
f 22/1/7 21/1/7 1/1/1
f 22/1/7 1/1/1 2/1/1
f 5/3/3 24/4/8 23/4/8
f 24/4/8 5/3/3 6/3/3
f 13/1/9 26/4/10 25/4/9
f 26/4/10 13/1/9 11/3/10
f 11/3/10 13/1/9 7/2/10
f 7/2/10 13/1/9 9/1/10
f 19/1/12 27/4/11 21/1/11
f 27/4/11 19/1/12 28/4/12
f 12/3/6 26/4/13 11/3/6
f 26/4/13 12/3/6 29/4/13
f 17/1/14 31/4/15 30/4/14
f 31/4/15 17/1/14 15/1/15
f 15/1/15 25/4/9 31/4/15
f 25/4/9 15/1/15 13/1/9
f 3/2/16 24/4/16 6/3/16
f 24/4/16 3/2/16 27/4/11
f 27/4/11 3/2/16 1/1/16
f 27/4/11 1/1/16 21/1/11
f 17/1/14 28/4/12 19/1/12
f 28/4/12 17/1/14 30/4/14
f 32/4/17 20/1/18 22/1/17
f 20/1/18 32/4/17 33/4/18
f 23/4/19 4/2/19 5/3/19
f 4/2/19 23/4/19 32/4/17
f 4/2/19 32/4/17 2/1/19
f 2/1/19 32/4/17 22/1/17
f 35/4/21 18/1/20 34/4/20
f 18/1/20 35/4/21 16/1/21
f 33/4/18 18/1/20 20/1/18
f 18/1/20 33/4/18 34/4/20
f 29/4/23 14/1/22 36/4/22
f 14/1/22 29/4/23 12/3/23
f 14/1/22 12/3/23 8/2/23
f 14/1/22 8/2/23 10/1/23
f 36/4/22 16/1/21 35/4/21
f 16/1/21 36/4/22 14/1/22
f 39/5/7 38/5/7 37/5/7
f 38/5/7 39/5/7 40/5/7
f 40/5/7 39/5/7 41/5/7
f 40/5/7 42/5/7 38/5/7
f 42/5/7 40/5/7 43/5/7
f 41/5/7 43/5/7 40/5/7
f 44/5/7 43/5/7 41/5/7
f 43/5/7 44/5/7 45/5/7
f 41/5/7 39/5/7 46/5/7
f 46/5/7 39/5/7 47/5/7
f 47/5/7 39/5/7 48/5/7
f 48/5/7 39/5/7 49/5/7
f 49/5/7 39/5/7 50/5/7
f 50/5/7 39/5/7 51/5/7
f 51/5/7 39/5/7 52/5/7
f 51/5/7 52/5/7 53/5/7
f 56/6/26 55/7/25 54/6/24
f 55/7/25 56/6/26 57/7/27
f 60/6/30 59/7/29 58/6/28
f 59/7/29 60/6/30 61/7/31
f 62/6/32 57/7/27 56/6/26
f 57/7/27 62/6/32 63/7/33
f 58/6/28 65/7/35 64/6/34
f 65/7/35 58/6/28 59/7/29
f 66/6/36 63/7/33 62/6/32
f 63/7/33 66/6/36 67/7/37
f 69/7/39 66/6/36 68/6/38
f 66/6/36 69/7/39 67/7/37
f 54/6/24 61/7/31 60/6/30
f 61/7/31 54/6/24 55/7/25
f 64/6/34 71/7/41 70/6/40
f 71/7/41 64/6/34 65/7/35
f 72/8/42 63/7/33 67/7/37
f 73/8/43 72/8/42 67/7/37
f 68/6/38 75/9/45 74/9/44
f 66/6/36 75/9/45 68/6/38
f 77/9/47 70/6/40 76/9/46
f 77/9/47 64/6/34 70/6/40
f 72/8/42 78/8/48 63/7/33
f 78/8/48 57/7/27 63/7/33
f 80/8/50 79/8/49 61/7/31
f 61/7/31 79/8/49 59/7/29
f 65/7/35 81/8/51 71/7/41
f 82/8/52 81/8/51 65/7/35
f 78/8/48 83/8/53 57/7/27
f 83/8/53 55/7/25 57/7/27
f 59/7/29 82/8/52 65/7/35
f 79/8/49 82/8/52 59/7/29
f 84/8/54 67/7/37 69/7/39
f 73/8/43 67/7/37 84/8/54
f 55/7/25 80/8/50 61/7/31
f 83/8/53 80/8/50 55/7/25
f 54/6/24 86/9/56 85/9/55
f 56/6/26 54/6/24 85/9/55
f 62/6/32 87/9/57 75/9/45
f 66/6/36 62/6/32 75/9/45
f 86/9/56 54/6/24 60/6/30
f 86/9/56 60/6/30 88/9/58
f 89/9/59 64/6/34 77/9/47
f 89/9/59 58/6/28 64/6/34
f 88/9/58 60/6/30 58/6/28
f 88/9/58 58/6/28 89/9/59
f 62/6/32 56/6/26 87/9/57
f 56/6/26 85/9/55 87/9/57
f 91/10/60 44/11/60 90/10/60
f 44/11/60 91/10/60 69/12/60
f 69/12/60 91/10/60 84/13/60
f 68/14/60 44/11/60 69/12/60
f 92/15/60 44/11/60 68/14/60
f 92/15/60 68/14/60 74/16/60
f 92/15/60 93/11/60 44/11/60
f 92/15/60 94/11/60 93/11/60
f 92/15/60 95/11/60 94/11/60
f 96/15/60 95/11/60 92/15/60
f 96/15/60 97/10/60 95/11/60
f 97/10/60 96/15/60 98/10/60
f 39/11/61 100/10/61 99/10/61
f 100/10/61 39/11/61 81/13/61
f 101/11/61 81/13/61 39/11/61
f 101/11/61 71/12/61 81/13/61
f 101/11/61 70/14/61 71/12/61
f 101/11/61 76/16/61 70/14/61
f 101/11/61 102/15/61 76/16/61
f 101/11/61 96/15/61 102/15/61
f 96/15/61 101/11/61 98/10/61
f 98/10/61 101/11/61 103/10/61
f 101/11/61 39/11/61 104/11/61
f 104/11/61 39/11/61 105/11/61
f 78/13/21 106/10/20 83/13/20
f 106/10/20 78/13/21 107/10/21
f 72/13/22 107/10/21 78/13/21
f 107/10/21 72/13/22 108/10/22
f 79/13/17 110/10/18 109/10/17
f 110/10/18 79/13/17 80/13/18
f 82/13/62 109/10/17 111/10/62
f 109/10/17 82/13/62 79/13/17
f 91/10/63 73/13/64 84/13/63
f 73/13/64 91/10/63 112/10/64
f 81/13/65 111/10/62 100/10/65
f 111/10/62 81/13/65 82/13/62
f 80/13/18 106/10/20 110/10/18
f 106/10/20 80/13/18 83/13/20
f 73/13/64 108/10/22 72/13/22
f 108/10/22 73/13/64 112/10/64
f 115/10/12 114/11/11 113/10/11
f 114/11/11 115/10/12 116/11/12
f 113/10/11 118/11/66 117/10/66
f 118/11/66 113/10/11 114/11/11
f 120/10/67 44/11/68 119/11/67
f 44/11/68 120/10/67 90/10/68
f 122/10/9 46/11/69 121/11/9
f 46/11/69 122/10/9 123/10/69
f 117/10/66 125/11/70 124/10/70
f 125/11/70 117/10/66 118/11/66
f 126/10/14 116/11/12 115/10/12
f 116/11/12 126/10/14 127/11/14
f 124/10/70 39/11/71 99/10/71
f 39/11/71 124/10/70 125/11/70
f 98/10/7 128/10/7 97/10/7
f 128/10/7 98/10/7 103/10/7
f 128/10/7 103/10/7 129/10/7
f 129/10/7 103/10/7 130/10/7
f 46/11/69 120/10/67 119/11/67
f 120/10/67 46/11/69 123/10/69
f 90/10/7 112/10/7 91/10/7
f 112/10/7 90/10/7 120/10/7
f 112/10/7 120/10/7 123/10/7
f 112/10/7 123/10/7 122/10/7
f 112/10/7 122/10/7 108/10/7
f 108/10/7 122/10/7 131/10/7
f 108/10/7 131/10/7 107/10/7
f 107/10/7 131/10/7 126/10/7
f 107/10/7 126/10/7 106/10/7
f 106/10/7 126/10/7 115/10/7
f 106/10/7 115/10/7 110/10/7
f 110/10/7 115/10/7 113/10/7
f 110/10/7 113/10/7 117/10/7
f 110/10/7 117/10/7 109/10/7
f 109/10/7 117/10/7 124/10/7
f 109/10/7 124/10/7 99/10/7
f 109/10/7 99/10/7 100/10/7
f 109/10/7 100/10/7 111/10/7
f 95/11/73 128/10/72 132/11/72
f 128/10/72 95/11/73 97/10/73
f 126/10/14 133/11/15 127/11/14
f 133/11/15 126/10/14 131/10/15
f 131/10/15 121/11/9 133/11/15
f 121/11/9 131/10/15 122/10/9
f 134/11/62 129/10/74 130/10/62
f 129/10/74 134/11/62 42/11/74
f 101/11/75 130/10/62 103/10/75
f 130/10/62 101/11/75 134/11/62
f 132/11/72 129/10/74 42/11/74
f 129/10/74 132/11/72 128/10/72
f 135/15/76 96/15/76 92/15/76
f 96/15/76 135/15/76 102/15/76
f 102/15/76 135/15/76 136/15/76
f 102/15/76 136/15/76 137/15/76
f 102/15/76 137/15/76 138/15/76
f 102/15/76 138/15/76 139/15/76
f 102/15/76 139/15/76 140/15/76
f 102/15/76 140/15/76 141/15/76
f 140/15/17 88/16/18 89/16/17
f 88/16/18 140/15/17 139/15/18
f 137/15/21 86/16/20 138/15/20
f 86/16/20 137/15/21 85/16/21
f 135/15/64 87/16/22 136/15/22
f 87/16/22 135/15/64 75/16/64
f 136/15/22 85/16/21 137/15/21
f 85/16/21 136/15/22 87/16/22
f 139/15/18 86/16/20 88/16/18
f 86/16/20 139/15/18 138/15/20
f 141/15/62 89/16/17 77/16/62
f 89/16/17 141/15/62 140/15/17
f 74/16/63 135/15/64 92/15/63
f 135/15/64 74/16/63 75/16/64
f 102/15/65 77/16/62 76/16/65
f 77/16/62 102/15/65 141/15/62

g conveyor-corner




usemtl colormap

f 3/2/2 2/1/1 1/1/1
f 2/1/1 3/2/2 4/2/2
f 4/2/2 6/3/3 5/3/3
f 6/3/3 4/2/2 3/2/2
f 9/1/5 8/2/4 7/2/4
f 8/2/4 9/1/5 10/1/5
f 8/2/4 11/3/6 7/2/4
f 11/3/6 8/2/4 12/3/6
f 13/1/7 10/1/5 9/1/5
f 10/1/5 13/1/7 14/1/7
f 14/1/7 13/1/7 15/1/7
f 14/1/7 15/1/7 16/1/7
f 16/1/7 15/1/7 17/1/7
f 16/1/7 17/1/7 18/1/7
f 18/1/7 17/1/7 19/1/7
f 18/1/7 19/1/7 20/1/7
f 20/1/7 19/1/7 21/1/7
f 20/1/7 21/1/7 22/1/7
f 22/1/7 21/1/7 1/1/1
f 22/1/7 1/1/1 2/1/1
f 5/3/3 24/4/8 23/4/8
f 24/4/8 5/3/3 6/3/3
f 13/1/9 26/4/10 25/4/9
f 26/4/10 13/1/9 11/3/10
f 11/3/10 13/1/9 7/2/10
f 7/2/10 13/1/9 9/1/10
f 19/1/12 27/4/11 21/1/11
f 27/4/11 19/1/12 28/4/12
f 12/3/6 26/4/13 11/3/6
f 26/4/13 12/3/6 29/4/13
f 17/1/14 31/4/15 30/4/14
f 31/4/15 17/1/14 15/1/15
f 15/1/15 25/4/9 31/4/15
f 25/4/9 15/1/15 13/1/9
f 3/2/16 24/4/16 6/3/16
f 24/4/16 3/2/16 27/4/11
f 27/4/11 3/2/16 1/1/16
f 27/4/11 1/1/16 21/1/11
f 17/1/14 28/4/12 19/1/12
f 28/4/12 17/1/14 30/4/14
f 32/4/17 20/1/18 22/1/17
f 20/1/18 32/4/17 33/4/18
f 23/4/19 4/2/19 5/3/19
f 4/2/19 23/4/19 32/4/17
f 4/2/19 32/4/17 2/1/19
f 2/1/19 32/4/17 22/1/17
f 35/4/21 18/1/20 34/4/20
f 18/1/20 35/4/21 16/1/21
f 33/4/18 18/1/20 20/1/18
f 18/1/20 33/4/18 34/4/20
f 29/4/23 14/1/22 36/4/22
f 14/1/22 29/4/23 12/3/23
f 14/1/22 12/3/23 8/2/23
f 14/1/22 8/2/23 10/1/23
f 36/4/22 16/1/21 35/4/21
f 16/1/21 36/4/22 14/1/22
f 39/5/7 38/5/7 37/5/7
f 38/5/7 39/5/7 40/5/7
f 40/5/7 39/5/7 41/5/7
f 40/5/7 42/5/7 38/5/7
f 42/5/7 40/5/7 43/5/7
f 41/5/7 43/5/7 40/5/7
f 44/5/7 43/5/7 41/5/7
f 43/5/7 44/5/7 45/5/7
f 41/5/7 39/5/7 46/5/7
f 46/5/7 39/5/7 47/5/7
f 47/5/7 39/5/7 48/5/7
f 48/5/7 39/5/7 49/5/7
f 49/5/7 39/5/7 50/5/7
f 50/5/7 39/5/7 51/5/7
f 51/5/7 39/5/7 52/5/7
f 51/5/7 52/5/7 53/5/7
f 56/6/26 55/7/25 54/6/24
f 55/7/25 56/6/26 57/7/27
f 60/6/30 59/7/29 58/6/28
f 59/7/29 60/6/30 61/7/31
f 62/6/32 57/7/27 56/6/26
f 57/7/27 62/6/32 63/7/33
f 58/6/28 65/7/35 64/6/34
f 65/7/35 58/6/28 59/7/29
f 66/6/36 63/7/33 62/6/32
f 63/7/33 66/6/36 67/7/37
f 69/7/39 66/6/36 68/6/38
f 66/6/36 69/7/39 67/7/37
f 54/6/24 61/7/31 60/6/30
f 61/7/31 54/6/24 55/7/25
f 64/6/34 71/7/41 70/6/40
f 71/7/41 64/6/34 65/7/35
f 72/8/42 63/7/33 67/7/37
f 73/8/43 72/8/42 67/7/37
f 68/6/38 75/9/45 74/9/44
f 66/6/36 75/9/45 68/6/38
f 77/9/47 70/6/40 76/9/46
f 77/9/47 64/6/34 70/6/40
f 72/8/42 78/8/48 63/7/33
f 78/8/48 57/7/27 63/7/33
f 80/8/50 79/8/49 61/7/31
f 61/7/31 79/8/49 59/7/29
f 65/7/35 81/8/51 71/7/41
f 82/8/52 81/8/51 65/7/35
f 78/8/48 83/8/53 57/7/27
f 83/8/53 55/7/25 57/7/27
f 59/7/29 82/8/52 65/7/35
f 79/8/49 82/8/52 59/7/29
f 84/8/54 67/7/37 69/7/39
f 73/8/43 67/7/37 84/8/54
f 55/7/25 80/8/50 61/7/31
f 83/8/53 80/8/50 55/7/25
f 54/6/24 86/9/56 85/9/55
f 56/6/26 54/6/24 85/9/55
f 62/6/32 87/9/57 75/9/45
f 66/6/36 62/6/32 75/9/45
f 86/9/56 54/6/24 60/6/30
f 86/9/56 60/6/30 88/9/58
f 89/9/59 64/6/34 77/9/47
f 89/9/59 58/6/28 64/6/34
f 88/9/58 60/6/30 58/6/28
f 88/9/58 58/6/28 89/9/59
f 62/6/32 56/6/26 87/9/57
f 56/6/26 85/9/55 87/9/57
f 91/10/60 44/11/60 90/10/60
f 44/11/60 91/10/60 69/12/60
f 69/12/60 91/10/60 84/13/60
f 68/14/60 44/11/60 69/12/60
f 92/15/60 44/11/60 68/14/60
f 92/15/60 68/14/60 74/16/60
f 92/15/60 93/11/60 44/11/60
f 92/15/60 94/11/60 93/11/60
f 92/15/60 95/11/60 94/11/60
f 96/15/60 95/11/60 92/15/60
f 96/15/60 97/10/60 95/11/60
f 97/10/60 96/15/60 98/10/60
f 39/11/61 100/10/61 99/10/61
f 100/10/61 39/11/61 81/13/61
f 101/11/61 81/13/61 39/11/61
f 101/11/61 71/12/61 81/13/61
f 101/11/61 70/14/61 71/12/61
f 101/11/61 76/16/61 70/14/61
f 101/11/61 102/15/61 76/16/61
f 101/11/61 96/15/61 102/15/61
f 96/15/61 101/11/61 98/10/61
f 98/10/61 101/11/61 103/10/61
f 101/11/61 39/11/61 104/11/61
f 104/11/61 39/11/61 105/11/61
f 78/13/21 106/10/20 83/13/20
f 106/10/20 78/13/21 107/10/21
f 72/13/22 107/10/21 78/13/21
f 107/10/21 72/13/22 108/10/22
f 79/13/17 110/10/18 109/10/17
f 110/10/18 79/13/17 80/13/18
f 82/13/62 109/10/17 111/10/62
f 109/10/17 82/13/62 79/13/17
f 91/10/63 73/13/64 84/13/63
f 73/13/64 91/10/63 112/10/64
f 81/13/65 111/10/62 100/10/65
f 111/10/62 81/13/65 82/13/62
f 80/13/18 106/10/20 110/10/18
f 106/10/20 80/13/18 83/13/20
f 73/13/64 108/10/22 72/13/22
f 108/10/22 73/13/64 112/10/64
f 115/10/12 114/11/11 113/10/11
f 114/11/11 115/10/12 116/11/12
f 113/10/11 118/11/66 117/10/66
f 118/11/66 113/10/11 114/11/11
f 120/10/67 44/11/68 119/11/67
f 44/11/68 120/10/67 90/10/68
f 122/10/9 46/11/69 121/11/9
f 46/11/69 122/10/9 123/10/69
f 117/10/66 125/11/70 124/10/70
f 125/11/70 117/10/66 118/11/66
f 126/10/14 116/11/12 115/10/12
f 116/11/12 126/10/14 127/11/14
f 124/10/70 39/11/71 99/10/71
f 39/11/71 124/10/70 125/11/70
f 98/10/7 128/10/7 97/10/7
f 128/10/7 98/10/7 103/10/7
f 128/10/7 103/10/7 129/10/7
f 129/10/7 103/10/7 130/10/7
f 46/11/69 120/10/67 119/11/67
f 120/10/67 46/11/69 123/10/69
f 90/10/7 112/10/7 91/10/7
f 112/10/7 90/10/7 120/10/7
f 112/10/7 120/10/7 123/10/7
f 112/10/7 123/10/7 122/10/7
f 112/10/7 122/10/7 108/10/7
f 108/10/7 122/10/7 131/10/7
f 108/10/7 131/10/7 107/10/7
f 107/10/7 131/10/7 126/10/7
f 107/10/7 126/10/7 106/10/7
f 106/10/7 126/10/7 115/10/7
f 106/10/7 115/10/7 110/10/7
f 110/10/7 115/10/7 113/10/7
f 110/10/7 113/10/7 117/10/7
f 110/10/7 117/10/7 109/10/7
f 109/10/7 117/10/7 124/10/7
f 109/10/7 124/10/7 99/10/7
f 109/10/7 99/10/7 100/10/7
f 109/10/7 100/10/7 111/10/7
f 95/11/73 128/10/72 132/11/72
f 128/10/72 95/11/73 97/10/73
f 126/10/14 133/11/15 127/11/14
f 133/11/15 126/10/14 131/10/15
f 131/10/15 121/11/9 133/11/15
f 121/11/9 131/10/15 122/10/9
f 134/11/62 129/10/74 130/10/62
f 129/10/74 134/11/62 42/11/74
f 101/11/75 130/10/62 103/10/75
f 130/10/62 101/11/75 134/11/62
f 132/11/72 129/10/74 42/11/74
f 129/10/74 132/11/72 128/10/72
f 135/15/76 96/15/76 92/15/76
f 96/15/76 135/15/76 102/15/76
f 102/15/76 135/15/76 136/15/76
f 102/15/76 136/15/76 137/15/76
f 102/15/76 137/15/76 138/15/76
f 102/15/76 138/15/76 139/15/76
f 102/15/76 139/15/76 140/15/76
f 102/15/76 140/15/76 141/15/76
f 140/15/17 88/16/18 89/16/17
f 88/16/18 140/15/17 139/15/18
f 137/15/21 86/16/20 138/15/20
f 86/16/20 137/15/21 85/16/21
f 135/15/64 87/16/22 136/15/22
f 87/16/22 135/15/64 75/16/64
f 136/15/22 85/16/21 137/15/21
f 85/16/21 136/15/22 87/16/22
f 139/15/18 86/16/20 88/16/18
f 86/16/20 139/15/18 138/15/20
f 141/15/62 89/16/17 77/16/62
f 89/16/17 141/15/62 140/15/17
f 74/16/63 135/15/64 92/15/63
f 135/15/64 74/16/63 75/16/64
f 102/15/65 77/16/62 76/16/65
f 77/16/62 102/15/65 141/15/62

