# Created by Kenney (www.kenney.nl)

mtllib conveyor-long-stripe-sides-part-middle.mtl

g conveyor-long-stripe-sides-part-middle

v 0.25 0 0.4 1 1 1
v 0.25 0 0.2 1 1 1
v -0.25 0 0.4 1 1 1
v -0.25 0 0.2 1 1 1
v 0.25 0.4 -0.4 1 1 1
v 0.25 0.3 -0.4 1 1 1
v 0.25 0.4 -0.2 1 1 1
v 0.25 0.3 -0.3 1 1 1
v 0.25 0.1 -0.3 1 1 1
v 0.25 0 -0.2 1 1 1
v 0.25 0 -0.4 1 1 1
v 0.25 0.1 -0.4 1 1 1
v -0.25 0 -0.2 1 1 1
v -0.25 0 -0.4 1 1 1
v -0.25 0.1 -0.4 1 1 1
v 0.25 0.3 0.4 1 1 1
v -0.25 0.3 0.4 1 1 1
v 0.25 0.4 0.4 1 1 1
v -0.25 0.4 0.4 1 1 1
v 0.25 0.4 0.2 1 1 1
v -0.25 0.4 0.2 1 1 1
v -0.25 0.3 -0.4 1 1 1
v -0.25 0.4 -0.4 1 1 1
v -0.25 0.1 0.4 1 1 1
v -0.25 0.1 0.3 1 1 1
v -0.25 0.3 0.3 1 1 1
v 0.25 0.1 0.4 1 1 1
v -0.25 0.4 -0.2 1 1 1
v -0.25 0.1 -0.3 1 1 1
v -0.25 0.3 -0.3 1 1 1
v 0.25 0.3 0.3 1 1 1
v 0.25 0.1 0.3 1 1 1
v 0.25 0 0.2 1 1 1
v -0.25 0 0.2 1 1 1
v -0.25 0.4 0.2 1 1 1
v 0.25 0.4 0.2 1 1 1
v 0.25 0.2 -0.45 1 1 1
v 0.25 0.2 -0.4 1 1 1
v -0.25 0.2 -0.45 1 1 1
v -0.25 0.2 -0.4 1 1 1
v 0.25 5.855207E-16 0.5 1 1 1
v 0.25 5.855207E-16 0.4 1 1 1
v -0.25 5.855207E-16 0.5 1 1 1
v -0.25 5.855207E-16 0.4 1 1 1
v -0.25 0.2 0.4 1 1 1
v 0.25 0.2 0.4 1 1 1
v 0.25 0.15 0.5 1 1 1
v -0.25 0.15 0.5 1 1 1
v 0.25 -1.032339E-18 -0.4 1 1 1
v 0.25 -1.032339E-18 -0.5 1 1 1
v -0.25 -1.032339E-18 -0.4 1 1 1
v -0.25 -1.032339E-18 -0.5 1 1 1
v 0.25 0.15 -0.5 1 1 1
v -0.25 0.15 -0.5 1 1 1
v 0.25 0.2 0.45 1 1 1
v -0.25 0.2 0.45 1 1 1

vn 0 -1 0
vn 1 0 0
vn 0 0 -1
vn 0 0 1
vn 0 1 0
vn -1 0 0
vn 0 0.9238796 -0.3826835
vn 0 0.3826835 0.9238796
vn 0 0.9238796 0.3826835
vn 0 0.3826835 -0.9238796

vt 0.09375 0.025
vt 0.09375 0.225
vt 0.09375 0.175
vt 0.09375 0.075
vt 0.46875 0.075
vt 0.46875 0.175
vt 0.34375 0.025
vt 0.34375 0.225
vt 0.34375 0.175

usemtl colormap

f 3/1/1 2/1/1 1/1/1
f 2/1/1 3/1/1 4/1/1
f 7/2/2 6/3/2 5/2/2
f 6/3/2 7/2/2 8/3/2
f 8/3/2 7/2/2 9/4/2
f 10/1/2 9/4/2 7/2/2
f 11/1/2 9/4/2 10/1/2
f 9/4/2 11/1/2 12/4/2
f 13/1/1 11/1/1 10/1/1
f 11/1/1 13/1/1 14/1/1
f 15/4/3 11/1/3 14/1/3
f 11/1/3 15/4/3 12/4/3
f 18/2/4 17/3/4 16/3/4
f 17/3/4 18/2/4 19/2/4
f 21/2/5 18/2/5 20/2/5
f 18/2/5 21/2/5 19/2/5
f 23/2/3 6/3/3 22/3/3
f 6/3/3 23/2/3 5/2/3
f 25/4/6 3/1/6 24/4/6
f 25/4/6 4/1/6 3/1/6
f 4/1/6 25/4/6 21/2/6
f 26/3/6 21/2/6 25/4/6
f 21/2/6 26/3/6 19/2/6
f 19/2/6 26/3/6 17/3/6
f 27/4/4 3/1/4 1/1/4
f 3/1/4 27/4/4 24/4/4
f 23/2/5 7/2/5 5/2/5
f 7/2/5 23/2/5 28/2/5
f 13/1/6 15/4/6 14/1/6
f 15/4/6 13/1/6 29/4/6
f 29/4/6 13/1/6 30/3/6
f 28/2/6 30/3/6 13/1/6
f 23/2/6 30/3/6 28/2/6
f 30/3/6 23/2/6 22/3/6
f 31/3/2 18/2/2 16/3/2
f 31/3/2 20/2/2 18/2/2
f 20/2/2 31/3/2 2/1/2
f 32/4/2 2/1/2 31/3/2
f 2/1/2 32/4/2 1/1/2
f 1/1/2 32/4/2 27/4/2
f 30/6/3 9/5/3 29/5/3
f 9/5/3 30/6/3 8/6/3
f 31/6/4 25/5/4 32/5/4
f 25/5/4 31/6/4 26/6/4
f 15/5/5 9/5/5 12/5/5
f 9/5/5 15/5/5 29/5/5
f 25/5/5 27/5/5 32/5/5
f 27/5/5 25/5/5 24/5/5
f 17/6/1 31/6/1 16/6/1
f 31/6/1 17/6/1 26/6/1
f 30/6/1 6/6/1 8/6/1
f 6/6/1 30/6/1 22/6/1
f 34/7/1 10/7/1 33/7/1
f 10/7/1 34/7/1 13/7/1
f 34/7/6 28/8/6 13/7/6
f 28/8/6 34/7/6 35/8/6
f 36/8/2 10/7/2 7/8/2
f 10/7/2 36/8/2 33/7/2
f 28/8/5 36/8/5 7/8/5
f 36/8/5 28/8/5 35/8/5
f 39/8/7 38/8/5 37/8/7
f 38/8/5 39/8/7 40/8/5
f 43/7/1 42/7/1 41/7/1
f 42/7/1 43/7/1 44/7/1
f 45/8/3 42/7/3 44/7/3
f 42/7/3 45/8/3 46/8/3
f 47/9/8 43/7/4 41/7/4
f 43/7/4 47/9/8 48/9/8
f 51/7/1 50/7/1 49/7/1
f 50/7/1 51/7/1 52/7/1
f 37/8/2 50/7/2 53/9/2
f 50/7/2 37/8/2 49/7/2
f 49/7/2 37/8/2 38/8/2
f 51/7/6 54/9/6 52/7/6
f 54/9/6 51/7/6 39/8/6
f 39/8/6 51/7/6 40/8/6
f 46/8/5 56/8/9 55/8/9
f 56/8/9 46/8/5 45/8/5
f 54/9/10 37/8/7 53/9/10
f 37/8/7 54/9/10 39/8/7
f 56/8/9 47/9/8 55/8/9
f 47/9/8 56/8/9 48/9/8
f 54/9/10 50/7/3 52/7/3
f 50/7/3 54/9/10 53/9/10
f 43/7/6 45/8/6 44/7/6
f 45/8/6 43/7/6 56/8/6
f 56/8/6 43/7/6 48/9/6
f 55/8/2 42/7/2 46/8/2
f 42/7/2 55/8/2 41/7/2
f 41/7/2 55/8/2 47/9/2
f 38/8/4 51/7/4 49/7/4
f 51/7/4 38/8/4 40/8/4

g conveyor-long-stripe-sides-part-middle




usemtl colormap

f 3/1/1 2/1/1 1/1/1
f 2/1/1 3/1/1 4/1/1
f 7/2/2 6/3/2 5/2/2
f 6/3/2 7/2/2 8/3/2
f 8/3/2 7/2/2 9/4/2
f 10/1/2 9/4/2 7/2/2
f 11/1/2 9/4/2 10/1/2
f 9/4/2 11/1/2 12/4/2
f 13/1/1 11/1/1 10/1/1
f 11/1/1 13/1/1 14/1/1
f 15/4/3 11/1/3 14/1/3
f 11/1/3 15/4/3 12/4/3
f 18/2/4 17/3/4 16/3/4
f 17/3/4 18/2/4 19/2/4
f 21/2/5 18/2/5 20/2/5
f 18/2/5 21/2/5 19/2/5
f 23/2/3 6/3/3 22/3/3
f 6/3/3 23/2/3 5/2/3
f 25/4/6 3/1/6 24/4/6
f 25/4/6 4/1/6 3/1/6
f 4/1/6 25/4/6 21/2/6
f 26/3/6 21/2/6 25/4/6
f 21/2/6 26/3/6 19/2/6
f 19/2/6 26/3/6 17/3/6
f 27/4/4 3/1/4 1/1/4
f 3/1/4 27/4/4 24/4/4
f 23/2/5 7/2/5 5/2/5
f 7/2/5 23/2/5 28/2/5
f 13/1/6 15/4/6 14/1/6
f 15/4/6 13/1/6 29/4/6
f 29/4/6 13/1/6 30/3/6
f 28/2/6 30/3/6 13/1/6
f 23/2/6 30/3/6 28/2/6
f 30/3/6 23/2/6 22/3/6
f 31/3/2 18/2/2 16/3/2
f 31/3/2 20/2/2 18/2/2
f 20/2/2 31/3/2 2/1/2
f 32/4/2 2/1/2 31/3/2
f 2/1/2 32/4/2 1/1/2
f 1/1/2 32/4/2 27/4/2
f 30/6/3 9/5/3 29/5/3
f 9/5/3 30/6/3 8/6/3
f 31/6/4 25/5/4 32/5/4
f 25/5/4 31/6/4 26/6/4
f 15/5/5 9/5/5 12/5/5
f 9/5/5 15/5/5 29/5/5
f 25/5/5 27/5/5 32/5/5
f 27/5/5 25/5/5 24/5/5
f 17/6/1 31/6/1 16/6/1
f 31/6/1 17/6/1 26/6/1
f 30/6/1 6/6/1 8/6/1
f 6/6/1 30/6/1 22/6/1
f 34/7/1 10/7/1 33/7/1
f 10/7/1 34/7/1 13/7/1
f 34/7/6 28/8/6 13/7/6
f 28/8/6 34/7/6 35/8/6
f 36/8/2 10/7/2 7/8/2
f 10/7/2 36/8/2 33/7/2
f 28/8/5 36/8/5 7/8/5
f 36/8/5 28/8/5 35/8/5
f 39/8/7 38/8/5 37/8/7
f 38/8/5 39/8/7 40/8/5
f 43/7/1 42/7/1 41/7/1
f 42/7/1 43/7/1 44/7/1
f 45/8/3 42/7/3 44/7/3
f 42/7/3 45/8/3 46/8/3
f 47/9/8 43/7/4 41/7/4
f 43/7/4 47/9/8 48/9/8
f 51/7/1 50/7/1 49/7/1
f 50/7/1 51/7/1 52/7/1
f 37/8/2 50/7/2 53/9/2
f 50/7/2 37/8/2 49/7/2
f 49/7/2 37/8/2 38/8/2
f 51/7/6 54/9/6 52/7/6
f 54/9/6 51/7/6 39/8/6
f 39/8/6 51/7/6 40/8/6
f 46/8/5 56/8/9 55/8/9
f 56/8/9 46/8/5 45/8/5
f 54/9/10 37/8/7 53/9/10
f 37/8/7 54/9/10 39/8/7
f 56/8/9 47/9/8 55/8/9
f 47/9/8 56/8/9 48/9/8
f 54/9/10 50/7/3 52/7/3
f 50/7/3 54/9/10 53/9/10
f 43/7/6 45/8/6 44/7/6
f 45/8/6 43/7/6 56/8/6
f 56/8/6 43/7/6 48/9/6
f 55/8/2 42/7/2 46/8/2
f 42/7/2 55/8/2 41/7/2
f 41/7/2 55/8/2 47/9/2
f 38/8/4 51/7/4 49/7/4
f 51/7/4 38/8/4 40/8/4

