# Created by Kenney (www.kenney.nl)

mtllib conveyor-sides-junction-t.mtl

g conveyor-sides-junction-t

v 0.3565685 0.2565686 -0.35 1 1 1
v 0.38 0.2 -0.35 1 1 1
v 0.3707107 0.2707107 -0.3 1 1 1
v 0.4 0.2 -0.3 1 1 1
v 0.22 0.2 -0.35 1 1 1
v 0.2434315 0.2565686 -0.35 1 1 1
v 0.2 0.2 -0.3 1 1 1
v 0.2292893 0.2707107 -0.3 1 1 1
v 0.2434315 0.1434315 -0.35 1 1 1
v 0.2292893 0.1292893 -0.3 1 1 1
v 0.3707107 0.1292893 -0.3 1 1 1
v 0.3565685 0.1434315 -0.35 1 1 1
v 0.3 0.1 -0.3 1 1 1
v 0.3 0.12 -0.35 1 1 1
v 0.3 0.28 -0.35 1 1 1
v 0.3 0.3 -0.3 1 1 1
v -0.2434315 0.2565686 -0.35 1 1 1
v -0.22 0.2 -0.35 1 1 1
v -0.2292893 0.2707107 -0.3 1 1 1
v -0.2 0.2 -0.3 1 1 1
v -0.38 0.2 -0.35 1 1 1
v -0.3565685 0.2565686 -0.35 1 1 1
v -0.4 0.2 -0.3 1 1 1
v -0.3707107 0.2707107 -0.3 1 1 1
v -0.3565685 0.1434315 -0.35 1 1 1
v -0.3707107 0.1292893 -0.3 1 1 1
v -0.2292893 0.1292893 -0.3 1 1 1
v -0.2434315 0.1434315 -0.35 1 1 1
v -0.3 0.1 -0.3 1 1 1
v -0.3 0.12 -0.35 1 1 1
v -0.3 0.28 -0.35 1 1 1
v -0.3 0.3 -0.3 1 1 1
v -0.5 5.86553E-16 -0.5 1 1 1
v -0.5 5.86553E-16 -0.4 1 1 1
v 0.5 5.86553E-16 -0.5 1 1 1
v 0.5 5.86553E-16 -0.4 1 1 1
v 0.5 0.2 -0.4 1 1 1
v -0.5 0.2 -0.4 1 1 1
v -0.5 0.15 -0.5 1 1 1
v 0.5 0.15 -0.5 1 1 1
v -0.5 0.2 -0.45 1 1 1
v 0.5 0.2 -0.45 1 1 1
v 0.5 0.1 0.5 1 1 1
v -0.5 0.1 0.5 1 1 1
v 0.5 0.3 0.5 1 1 1
v -0.5 0.3 0.5 1 1 1
v -0.4707107 0.02928932 0.4707106 1 1 1
v 0.4707107 0.02928932 0.4707106 1 1 1
v -0.4 -6.767919E-16 0.4 1 1 1
v 0.4 -6.767919E-16 0.4 1 1 1
v -0.5 0.1 -0.4 1 1 1
v -0.5 0.3 -0.4 1 1 1
v -0.4707107 0.3707107 0.4707106 1 1 1
v -0.4 0.4 0.4 1 1 1
v 0.4707107 0.3707107 0.4707106 1 1 1
v 0.4 0.4 0.4 1 1 1
v -0.4707107 0.02928932 -0.4 1 1 1
v -0.4707107 0.3707107 -0.4 1 1 1
v -0.4 0.4 -0.4 1 1 1
v -0.4 -5.86553E-16 -0.4 1 1 1
v 0.4 -5.86553E-16 -0.4 1 1 1
v 0.4 0.4 -0.4 1 1 1
v 0.4707107 0.3707107 -0.4 1 1 1
v 0.5 0.1 -0.4 1 1 1
v 0.4707107 0.02928932 -0.4 1 1 1
v 0.5 0.3 -0.4 1 1 1
v 0.3801087 0.1 -0.4 1 1 1
v -0.3801088 0.1 -0.4 1 1 1
v 0.4 0.1198912 -0.4 1 1 1
v -0.4 0.1198912 -0.4 1 1 1
v 0.4 0.2801088 -0.4 1 1 1
v -0.4 0.2801088 -0.4 1 1 1
v 0.3801087 0.3 -0.4 1 1 1
v -0.3801088 0.3 -0.4 1 1 1
v -0.4 0.1198912 -0.3 1 1 1
v -0.3801088 0.1 -0.3 1 1 1
v -0.3801088 0.3 -0.3 1 1 1
v 0.3801087 0.3 -0.3 1 1 1
v -0.4 0.2801088 -0.3 1 1 1
v 0.3801087 0.1 -0.3 1 1 1
v 0.4 0.1198912 -0.3 1 1 1
v 0.4 0.2801088 -0.3 1 1 1

vn 0.4541464 0.4541464 -0.7664868
vn 0.6422601 0 -0.7664868
vn 0.6565321 0.6565321 -0.3713907
vn 0.9284768 0 -0.3713907
vn -0.6422601 0 -0.7664868
vn -0.4541464 0.4541464 -0.7664868
vn -0.9284768 0 -0.3713907
vn -0.6565321 0.6565321 -0.3713907
vn -0.4541464 -0.4541464 -0.7664868
vn -0.6565321 -0.6565321 -0.3713907
vn 0.6565321 -0.6565321 -0.3713907
vn 0.4541464 -0.4541464 -0.7664868
vn 0 -0.9284768 -0.3713907
vn 0 -0.6422601 -0.7664868
vn 0 0.6422601 -0.7664868
vn 0 0.9284768 -0.3713907
vn 0 -1 0
vn -1.387779E-15 0 1
vn 1.387779E-15 0 -1
vn 1.28214E-15 0.3826834 -0.9238795
vn 5.310799E-16 0.9238795 -0.3826834
vn 0 1 0
vn 1 0 1.387779E-15
vn -1 0 -1.387779E-15
vn 0.6871106 -0.2361315 0.6871106
vn -0.6871106 -0.2361315 0.6871106
vn 0.6871106 0.2361315 0.6871106
vn -0.6871106 0.2361315 0.6871106
vn -0.4974923 -0.7106355 0.4974923
vn 0.4974923 -0.7106355 0.4974923
vn -0.1481469 -0.9778062 0.1481469
vn 0.1481469 -0.9778062 0.1481469
vn -0.9807853 -0.1950903 -1.361113E-15
vn -0.9807853 0.1950903 -1.361113E-15
vn -0.4974923 0.7106355 0.4974923
vn -0.1481469 0.9778062 0.1481469
vn 0.4974923 0.7106355 0.4974923
vn 0.1481469 0.9778062 0.1481469
vn -0.7071068 -0.7071068 -9.813078E-16
vn -0.7071068 0.7071068 -9.813078E-16
vn -0.1950903 0.9807853 -2.707422E-16
vn -0.1950903 -0.9807853 -2.707422E-16
vn 0.1950903 -0.9807853 2.707422E-16
vn 0.1950903 0.9807853 2.707422E-16
vn 0.7071068 0.7071068 9.813078E-16
vn 0.9807853 -0.1950903 1.361113E-15
vn 0.7071068 -0.7071068 9.813078E-16
vn 0.9807853 0.1950903 1.361113E-15
vn 0.9238795 0.3826834 1.28214E-15
vn 0.3826834 0.9238795 5.310799E-16
vn 0.3826834 -0.9238795 5.310799E-16
vn -0.3826834 -0.9238795 -5.310799E-16
vn 0.9238795 -0.3826834 1.28214E-15
vn -0.3826834 0.9238795 -5.310799E-16
vn -0.9238795 0.3826834 -1.28214E-15
vn -0.9238795 -0.3826834 -1.28214E-15

vt 0.34375 0.1815685
vt 0.34375 0.125
vt 0.34375 0.1957107
vt 0.34375 0.06843146
vt 0.34375 0.05428932
vt 0.34375 0.025
vt 0.34375 0.045
vt 0.34375 0.205
vt 0.34375 0.225
vt 0.34375 0.175
vt 0.09375 0.1
vt 0.09375 0.15
vt 0.09375 0.08232233
vt 0.09375 0.075
vt 0.09375 0.1676777
vt 0.09375 0.175
vt 0.09375 0.1049728
vt 0.09375 0.1450272
vt 0.46875 0.1049728
vt 0.46875 0.1
vt 0.46875 0.15
vt 0.46875 0.1450272

usemtl colormap

f 3/3/3 2/2/2 1/1/1
f 2/2/2 3/3/3 4/2/4
f 7/2/7 6/1/6 5/2/5
f 6/1/6 7/2/7 8/3/8
f 10/5/10 5/2/5 9/4/9
f 5/2/5 10/5/10 7/2/7
f 13/6/13 12/4/12 11/5/11
f 12/4/12 13/6/13 14/7/14
f 6/1/6 16/9/16 15/8/15
f 16/9/16 6/1/6 8/3/8
f 4/2/4 12/4/12 2/2/2
f 12/4/12 4/2/4 11/5/11
f 9/4/9 12/4/12 14/7/14
f 12/4/12 9/4/9 5/2/5
f 12/4/12 5/2/5 2/2/2
f 2/2/2 5/2/5 1/1/1
f 1/1/1 5/2/5 6/1/6
f 1/1/1 6/1/6 15/8/15
f 1/1/1 16/9/16 3/3/3
f 16/9/16 1/1/1 15/8/15
f 13/6/13 9/4/9 14/7/14
f 9/4/9 13/6/13 10/5/10
f 19/3/3 18/2/2 17/1/1
f 18/2/2 19/3/3 20/2/4
f 23/2/7 22/1/6 21/2/5
f 22/1/6 23/2/7 24/3/8
f 26/5/10 21/2/5 25/4/9
f 21/2/5 26/5/10 23/2/7
f 29/6/13 28/4/12 27/5/11
f 28/4/12 29/6/13 30/7/14
f 22/1/6 32/9/16 31/8/15
f 32/9/16 22/1/6 24/3/8
f 20/2/4 28/4/12 18/2/2
f 28/4/12 20/2/4 27/5/11
f 25/4/9 28/4/12 30/7/14
f 28/4/12 25/4/9 21/2/5
f 28/4/12 21/2/5 18/2/2
f 18/2/2 21/2/5 17/1/1
f 17/1/1 21/2/5 22/1/6
f 17/1/1 22/1/6 31/8/15
f 17/1/1 32/9/16 19/3/3
f 32/9/16 17/1/1 31/8/15
f 29/6/13 25/4/9 30/7/14
f 25/4/9 29/6/13 26/5/10
f 35/6/17 34/6/17 33/6/17
f 34/6/17 35/6/17 36/6/17
f 37/9/18 34/6/18 36/6/18
f 34/6/18 37/9/18 38/9/18
f 39/10/20 35/6/19 33/6/19
f 35/6/19 39/10/20 40/10/20
f 38/9/22 42/9/21 41/9/21
f 42/9/21 38/9/22 37/9/22
f 41/9/21 40/10/20 39/10/20
f 40/10/20 41/9/21 42/9/21
f 35/6/23 37/9/23 36/6/23
f 37/9/23 35/6/23 42/9/23
f 42/9/23 35/6/23 40/10/23
f 41/9/24 34/6/24 38/9/24
f 34/6/24 41/9/24 33/6/24
f 33/6/24 41/9/24 39/10/24
f 45/12/27 44/11/26 43/11/25
f 44/11/26 45/12/27 46/12/28
f 49/14/31 48/13/30 47/13/29
f 48/13/30 49/14/31 50/14/32
f 46/12/28 51/11/33 44/11/26
f 51/11/33 46/12/28 52/12/34
f 48/13/30 44/11/26 47/13/29
f 44/11/26 48/13/30 43/11/25
f 55/15/37 54/16/36 53/15/35
f 54/16/36 55/15/37 56/16/38
f 51/11/33 47/13/29 44/11/26
f 47/13/29 51/11/33 57/13/39
f 55/15/37 46/12/28 45/12/27
f 46/12/28 55/15/37 53/15/35
f 54/16/36 58/15/40 53/15/35
f 58/15/40 54/16/36 59/16/41
f 60/14/42 50/14/32 49/14/31
f 50/14/32 60/14/42 61/14/43
f 53/15/35 52/12/34 46/12/28
f 52/12/34 53/15/35 58/15/40
f 56/16/38 63/15/45 62/16/44
f 63/15/45 56/16/38 55/15/37
f 48/13/30 64/11/46 43/11/25
f 64/11/46 48/13/30 65/13/47
f 65/13/47 50/14/32 61/14/43
f 50/14/32 65/13/47 48/13/30
f 56/16/38 59/16/41 54/16/36
f 59/16/41 56/16/38 62/16/44
f 66/12/48 55/15/37 45/12/27
f 55/15/37 66/12/48 63/15/45
f 57/13/19 61/14/19 60/14/19
f 61/14/19 57/13/19 65/13/19
f 65/13/19 57/13/19 64/11/19
f 64/11/19 57/13/19 51/11/19
f 64/11/19 51/11/19 67/11/19
f 51/11/19 68/11/19 67/11/19
f 64/11/19 67/11/19 69/17/19
f 68/11/19 51/11/19 70/17/19
f 64/11/19 69/17/19 66/12/19
f 70/17/19 51/11/19 52/12/19
f 66/12/19 69/17/19 71/18/19
f 70/17/19 52/12/19 72/18/19
f 66/12/19 71/18/19 73/12/19
f 72/18/19 52/12/19 74/12/19
f 66/12/19 73/12/19 74/12/19
f 66/12/19 74/12/19 52/12/19
f 66/12/19 52/12/19 58/15/19
f 66/12/19 58/15/19 63/15/19
f 63/15/19 58/15/19 59/16/19
f 63/15/19 59/16/19 62/16/19
f 57/13/39 49/14/31 47/13/29
f 49/14/31 57/13/39 60/14/42
f 64/11/46 45/12/27 43/11/25
f 45/12/27 64/11/46 66/12/48
f 76/20/50 70/19/49 75/19/49
f 70/19/49 76/20/50 68/20/50
f 74/21/51 78/21/52 77/21/51
f 78/21/52 74/21/51 73/21/52
f 72/22/53 77/21/51 79/22/53
f 77/21/51 72/22/53 74/21/51
f 80/20/54 68/20/50 76/20/50
f 68/20/50 80/20/54 67/20/54
f 70/19/49 79/22/53 75/19/49
f 79/22/53 70/19/49 72/22/53
f 76/20/19 81/19/19 80/20/19
f 81/19/19 76/20/19 75/19/19
f 81/19/19 75/19/19 79/22/19
f 81/19/19 79/22/19 82/22/19
f 82/22/19 79/22/19 77/21/19
f 82/22/19 77/21/19 78/21/19
f 81/19/55 67/20/54 80/20/54
f 67/20/54 81/19/55 69/19/55
f 71/22/56 81/19/55 82/22/56
f 81/19/55 71/22/56 69/19/55
f 73/21/52 82/22/56 78/21/52
f 82/22/56 73/21/52 71/22/56

g conveyor-sides-junction-t




usemtl colormap

f 3/3/3 2/2/2 1/1/1
f 2/2/2 3/3/3 4/2/4
f 7/2/7 6/1/6 5/2/5
f 6/1/6 7/2/7 8/3/8
f 10/5/10 5/2/5 9/4/9
f 5/2/5 10/5/10 7/2/7
f 13/6/13 12/4/12 11/5/11
f 12/4/12 13/6/13 14/7/14
f 6/1/6 16/9/16 15/8/15
f 16/9/16 6/1/6 8/3/8
f 4/2/4 12/4/12 2/2/2
f 12/4/12 4/2/4 11/5/11
f 9/4/9 12/4/12 14/7/14
f 12/4/12 9/4/9 5/2/5
f 12/4/12 5/2/5 2/2/2
f 2/2/2 5/2/5 1/1/1
f 1/1/1 5/2/5 6/1/6
f 1/1/1 6/1/6 15/8/15
f 1/1/1 16/9/16 3/3/3
f 16/9/16 1/1/1 15/8/15
f 13/6/13 9/4/9 14/7/14
f 9/4/9 13/6/13 10/5/10
f 19/3/3 18/2/2 17/1/1
f 18/2/2 19/3/3 20/2/4
f 23/2/7 22/1/6 21/2/5
f 22/1/6 23/2/7 24/3/8
f 26/5/10 21/2/5 25/4/9
f 21/2/5 26/5/10 23/2/7
f 29/6/13 28/4/12 27/5/11
f 28/4/12 29/6/13 30/7/14
f 22/1/6 32/9/16 31/8/15
f 32/9/16 22/1/6 24/3/8
f 20/2/4 28/4/12 18/2/2
f 28/4/12 20/2/4 27/5/11
f 25/4/9 28/4/12 30/7/14
f 28/4/12 25/4/9 21/2/5
f 28/4/12 21/2/5 18/2/2
f 18/2/2 21/2/5 17/1/1
f 17/1/1 21/2/5 22/1/6
f 17/1/1 22/1/6 31/8/15
f 17/1/1 32/9/16 19/3/3
f 32/9/16 17/1/1 31/8/15
f 29/6/13 25/4/9 30/7/14
f 25/4/9 29/6/13 26/5/10
f 35/6/17 34/6/17 33/6/17
f 34/6/17 35/6/17 36/6/17
f 37/9/18 34/6/18 36/6/18
f 34/6/18 37/9/18 38/9/18
f 39/10/20 35/6/19 33/6/19
f 35/6/19 39/10/20 40/10/20
f 38/9/22 42/9/21 41/9/21
f 42/9/21 38/9/22 37/9/22
f 41/9/21 40/10/20 39/10/20
f 40/10/20 41/9/21 42/9/21
f 35/6/23 37/9/23 36/6/23
f 37/9/23 35/6/23 42/9/23
f 42/9/23 35/6/23 40/10/23
f 41/9/24 34/6/24 38/9/24
f 34/6/24 41/9/24 33/6/24
f 33/6/24 41/9/24 39/10/24
f 45/12/27 44/11/26 43/11/25
f 44/11/26 45/12/27 46/12/28
f 49/14/31 48/13/30 47/13/29
f 48/13/30 49/14/31 50/14/32
f 46/12/28 51/11/33 44/11/26
f 51/11/33 46/12/28 52/12/34
f 48/13/30 44/11/26 47/13/29
f 44/11/26 48/13/30 43/11/25
f 55/15/37 54/16/36 53/15/35
f 54/16/36 55/15/37 56/16/38
f 51/11/33 47/13/29 44/11/26
f 47/13/29 51/11/33 57/13/39
f 55/15/37 46/12/28 45/12/27
f 46/12/28 55/15/37 53/15/35
f 54/16/36 58/15/40 53/15/35
f 58/15/40 54/16/36 59/16/41
f 60/14/42 50/14/32 49/14/31
f 50/14/32 60/14/42 61/14/43
f 53/15/35 52/12/34 46/12/28
f 52/12/34 53/15/35 58/15/40
f 56/16/38 63/15/45 62/16/44
f 63/15/45 56/16/38 55/15/37
f 48/13/30 64/11/46 43/11/25
f 64/11/46 48/13/30 65/13/47
f 65/13/47 50/14/32 61/14/43
f 50/14/32 65/13/47 48/13/30
f 56/16/38 59/16/41 54/16/36
f 59/16/41 56/16/38 62/16/44
f 66/12/48 55/15/37 45/12/27
f 55/15/37 66/12/48 63/15/45
f 57/13/19 61/14/19 60/14/19
f 61/14/19 57/13/19 65/13/19
f 65/13/19 57/13/19 64/11/19
f 64/11/19 57/13/19 51/11/19
f 64/11/19 51/11/19 67/11/19
f 51/11/19 68/11/19 67/11/19
f 64/11/19 67/11/19 69/17/19
f 68/11/19 51/11/19 70/17/19
f 64/11/19 69/17/19 66/12/19
f 70/17/19 51/11/19 52/12/19
f 66/12/19 69/17/19 71/18/19
f 70/17/19 52/12/19 72/18/19
f 66/12/19 71/18/19 73/12/19
f 72/18/19 52/12/19 74/12/19
f 66/12/19 73/12/19 74/12/19
f 66/12/19 74/12/19 52/12/19
f 66/12/19 52/12/19 58/15/19
f 66/12/19 58/15/19 63/15/19
f 63/15/19 58/15/19 59/16/19
f 63/15/19 59/16/19 62/16/19
f 57/13/39 49/14/31 47/13/29
f 49/14/31 57/13/39 60/14/42
f 64/11/46 45/12/27 43/11/25
f 45/12/27 64/11/46 66/12/48
f 76/20/50 70/19/49 75/19/49
f 70/19/49 76/20/50 68/20/50
f 74/21/51 78/21/52 77/21/51
f 78/21/52 74/21/51 73/21/52
f 72/22/53 77/21/51 79/22/53
f 77/21/51 72/22/53 74/21/51
f 80/20/54 68/20/50 76/20/50
f 68/20/50 80/20/54 67/20/54
f 70/19/49 79/22/53 75/19/49
f 79/22/53 70/19/49 72/22/53
f 76/20/19 81/19/19 80/20/19
f 81/19/19 76/20/19 75/19/19
f 81/19/19 75/19/19 79/22/19
f 81/19/19 79/22/19 82/22/19
f 82/22/19 79/22/19 77/21/19
f 82/22/19 77/21/19 78/21/19
f 81/19/55 67/20/54 80/20/54
f 67/20/54 81/19/55 69/19/55
f 71/22/56 81/19/55 82/22/56
f 81/19/55 71/22/56 69/19/55
f 73/21/52 82/22/56 78/21/52
f 82/22/56 73/21/52 71/22/56

