# Created by Kenney (www.kenney.nl)

mtllib conveyor-long-part-middle.mtl

g conveyor-long-part-middle

v 0.25 0 0.5 1 1 1
v 0.25 0 -0.5 1 1 1
v -0.25 0 0.5 1 1 1
v -0.25 0 -0.5 1 1 1
v -0.25 0.1 -0.5 1 1 1
v 0.25 0.1 -0.5 1 1 1
v 0.25 0.3 0.5 1 1 1
v -0.25 0.3 0.5 1 1 1
v 0.25 0.4 0.5 1 1 1
v -0.25 0.4 0.5 1 1 1
v -0.25 0.3 -0.5 1 1 1
v 0.25 0.3 -0.5 1 1 1
v -0.25 0.4 -0.5 1 1 1
v 0.25 0.4 -0.5 1 1 1
v -0.25 0.1 -0.4 1 1 1
v -0.25 0.3 -0.4 1 1 1
v -0.25 0.1 0.4 1 1 1
v -0.25 0.1 0.5 1 1 1
v -0.25 0.3 0.4 1 1 1
v 0.25 0.1 0.5 1 1 1
v 0.25 0.3 -0.4 1 1 1
v 0.25 0.1 -0.4 1 1 1
v 0.25 0.3 0.4 1 1 1
v 0.25 0.1 0.4 1 1 1

vn 0 -1 0
vn 0 0 -1
vn 0 0 1
vn -1 0 0
vn 0 1 0
vn 1 0 0

vt 0.46875 0.025
vt 0.46875 0.075
vt 0.46875 0.175
vt 0.46875 0.225
vt 0.09375 0.075
vt 0.09375 0.175

usemtl colormap

f 3/1/1 2/1/1 1/1/1
f 2/1/1 3/1/1 4/1/1
f 5/2/2 2/1/2 4/1/2
f 2/1/2 5/2/2 6/2/2
f 9/4/3 8/3/3 7/3/3
f 8/3/3 9/4/3 10/4/3
f 13/4/2 12/3/2 11/3/2
f 12/3/2 13/4/2 14/4/2
f 3/1/4 5/2/4 4/1/4
f 5/2/4 3/1/4 15/2/4
f 15/2/4 3/1/4 16/3/4
f 16/3/4 3/1/4 17/2/4
f 17/2/4 3/1/4 18/2/4
f 19/3/4 16/3/4 17/2/4
f 10/4/4 16/3/4 19/3/4
f 10/4/4 19/3/4 8/3/4
f 13/4/4 16/3/4 10/4/4
f 16/3/4 13/4/4 11/3/4
f 20/2/3 3/1/3 1/1/3
f 3/1/3 20/2/3 18/2/3
f 13/4/5 9/4/5 14/4/5
f 9/4/5 13/4/5 10/4/5
f 9/4/6 12/3/6 14/4/6
f 12/3/6 9/4/6 21/3/6
f 21/3/6 9/4/6 22/2/6
f 22/2/6 9/4/6 23/3/6
f 23/3/6 9/4/6 7/3/6
f 24/2/6 22/2/6 23/3/6
f 1/1/6 22/2/6 24/2/6
f 1/1/6 24/2/6 20/2/6
f 2/1/6 22/2/6 1/1/6
f 22/2/6 2/1/6 6/2/6
f 16/6/2 22/5/2 15/5/2
f 22/5/2 16/6/2 21/6/2
f 23/6/3 17/5/3 24/5/3
f 17/5/3 23/6/3 19/6/3
f 5/5/5 22/5/5 6/5/5
f 22/5/5 5/5/5 15/5/5
f 17/5/5 20/5/5 24/5/5
f 20/5/5 17/5/5 18/5/5
f 8/6/1 23/6/1 7/6/1
f 23/6/1 8/6/1 19/6/1
f 16/6/1 12/6/1 21/6/1
f 12/6/1 16/6/1 11/6/1

g conveyor-long-part-middle




usemtl colormap

f 3/1/1 2/1/1 1/1/1
f 2/1/1 3/1/1 4/1/1
f 5/2/2 2/1/2 4/1/2
f 2/1/2 5/2/2 6/2/2
f 9/4/3 8/3/3 7/3/3
f 8/3/3 9/4/3 10/4/3
f 13/4/2 12/3/2 11/3/2
f 12/3/2 13/4/2 14/4/2
f 3/1/4 5/2/4 4/1/4
f 5/2/4 3/1/4 15/2/4
f 15/2/4 3/1/4 16/3/4
f 16/3/4 3/1/4 17/2/4
f 17/2/4 3/1/4 18/2/4
f 19/3/4 16/3/4 17/2/4
f 10/4/4 16/3/4 19/3/4
f 10/4/4 19/3/4 8/3/4
f 13/4/4 16/3/4 10/4/4
f 16/3/4 13/4/4 11/3/4
f 20/2/3 3/1/3 1/1/3
f 3/1/3 20/2/3 18/2/3
f 13/4/5 9/4/5 14/4/5
f 9/4/5 13/4/5 10/4/5
f 9/4/6 12/3/6 14/4/6
f 12/3/6 9/4/6 21/3/6
f 21/3/6 9/4/6 22/2/6
f 22/2/6 9/4/6 23/3/6
f 23/3/6 9/4/6 7/3/6
f 24/2/6 22/2/6 23/3/6
f 1/1/6 22/2/6 24/2/6
f 1/1/6 24/2/6 20/2/6
f 2/1/6 22/2/6 1/1/6
f 22/2/6 2/1/6 6/2/6
f 16/6/2 22/5/2 15/5/2
f 22/5/2 16/6/2 21/6/2
f 23/6/3 17/5/3 24/5/3
f 17/5/3 23/6/3 19/6/3
f 5/5/5 22/5/5 6/5/5
f 22/5/5 5/5/5 15/5/5
f 17/5/5 20/5/5 24/5/5
f 20/5/5 17/5/5 18/5/5
f 8/6/1 23/6/1 7/6/1
f 23/6/1 8/6/1 19/6/1
f 16/6/1 12/6/1 21/6/1
f 12/6/1 16/6/1 11/6/1

