# Created by Kenney (www.kenney.nl)

mtllib door.mtl

g door

v 0.3 0.65 0.05 1 1 1
v -0.3 0.65 0.05 1 1 1
v 0.3 0.75 0.05 1 1 1
v -0.3 0.75 0.05 1 1 1
v -0.3 0.75 4.620233E-14 1 1 1
v 0.3 0.75 6.35282E-14 1 1 1
v -0.3 0.75 -0.05 1 1 1
v 0.3 0.75 -0.05 1 1 1
v 0.3 0.65 -0.05 1 1 1
v -0.3 0.65 -0.05 1 1 1
v 0.3 0.65 6.35282E-14 1 1 1
v -0.3 0.65 4.620233E-14 1 1 1
v -0.2500001 0.675 -0.1250001 1 1 1
v -0.2500001 0.725 -0.1250001 1 1 1
v -0.2500001 0.675 0.1249999 1 1 1
v -0.2500001 0.725 0.1249999 1 1 1
v -0.2000001 0.725 -0.1000001 1 1 1
v -0.2000001 0.675 -0.1000001 1 1 1
v -0.2000001 0.725 0.0999999 1 1 1
v -0.2000001 0.675 0.0999999 1 1 1
v -0.2426778 0.675 0.1426776 1 1 1
v -0.2426778 0.725 0.1426776 1 1 1
v -0.2426778 0.675 -0.1426778 1 1 1
v -0.2426778 0.725 -0.1426778 1 1 1
v -0.2250001 0.675 0.1499999 1 1 1
v -0.2250001 0.725 0.1499999 1 1 1
v -0.2250001 0.675 -0.1500001 1 1 1
v -0.2250001 0.725 -0.1500001 1 1 1
v 0.2249999 0.675 0.1499999 1 1 1
v 0.2249999 0.725 0.1499999 1 1 1
v 0.1999999 0.675 -0.1000001 1 1 1
v 0.1999999 0.725 -0.1000001 1 1 1
v 0.1999999 0.675 0.0999999 1 1 1
v 0.1999999 0.725 0.0999999 1 1 1
v 0.2426776 0.725 -0.1426778 1 1 1
v 0.2426776 0.675 -0.1426778 1 1 1
v 0.2499999 0.725 -0.1250001 1 1 1
v 0.2499999 0.675 -0.1250001 1 1 1
v 0.2499999 0.725 0.1249999 1 1 1
v 0.2499999 0.675 0.1249999 1 1 1
v 0.2426776 0.725 0.1426776 1 1 1
v 0.2426776 0.675 0.1426776 1 1 1
v 0.2249999 0.675 -0.1500001 1 1 1
v 0.2249999 0.725 -0.1500001 1 1 1
v -0.3 1.5 0.1 1 1 1
v 0.3 1.5 0.1 1 1 1
v -0.3 1.5 4.620233E-14 1 1 1
v 0.3 1.5 6.35282E-14 1 1 1
v 0.3 1.5 -0.1 1 1 1
v -0.3 1.5 -0.1 1 1 1
v 0.4 1.6 -0.1 1 1 1
v 0.4 3.289961E-17 -0.1 1 1 1
v 0.4 1.6 0.1 1 1 1
v 0.4 0 0.1 1 1 1
v -0.3 0.1 0.1 1 1 1
v -0.3 0.1 4.620233E-14 1 1 1
v 0.3 0.1 0.1 1 1 1
v 0.3 0.1 6.35282E-14 1 1 1
v 0.3 0.1 -0.1 1 1 1
v -0.3 0.1 -0.1 1 1 1
v -0.4 1.6 -0.1 1 1 1
v -0.4 1.6 0.1 1 1 1
v -0.4 0 0.1 1 1 1
v -0.4 0 -0.1 1 1 1
v -0.225 0.8324999 4.81098E-14 1 1 1
v -0.225 1.4175 4.811048E-14 1 1 1
v 0.225 1.4175 6.234265E-14 1 1 1
v 0.225 0.8324999 6.234197E-14 1 1 1
v 0.2249999 0.8325 3.486872E-08 1 1 1
v 0.2249999 1.4175 -3.486871E-08 1 1 1
v -0.2250001 0.8325 3.486871E-08 1 1 1
v -0.2250001 1.4175 -3.486872E-08 1 1 1

vn 0 -0.7071068 0.7071068
vn 0 0.7071068 0.7071068
vn 0 1 0
vn 0 0.7071068 -0.7071068
vn 0 -0.7071068 -0.7071068
vn 0 -1 0
vn -0.9807853 0 -0.1950904
vn -0.9807853 0 0.1950903
vn 1 0 0
vn -0.7071068 0 0.7071067
vn -0.7071067 0 -0.7071068
vn -0.1950903 0 0.9807853
vn -0.1950903 0 -0.9807853
vn 0.1950903 0 0.9807853
vn 0 0 1
vn 0 0 -1
vn 0.7071067 0 -0.7071068
vn 0.9807853 0 -0.1950904
vn 0.9807853 0 0.1950903
vn 0.7071068 0 0.7071067
vn 0.1950903 0 -0.9807853
vn -1 0 0
vn 3.002279E-14 -1.192093E-07 -1
vn -3.002279E-14 1.192093E-07 1

vt 0.34375 0.10625
vt 0.34375 0.11875
vt 0.34375 0.075
vt 0.34375 0.175
vt 0.09375 0.2125
vt 0.09375 0.225
vt 0.09375 0.025
vt 0.09375 0.0375
vt 0.09375 0.11875
vt 0.09375 0.10625
vt 0.09375 0.1290625
vt 0.09375 0.2021875
vt 0.84375 0.0375
vt 0.84375 0.10625
vt 0.59375 0.275

usemtl colormap

f 3/2/2 2/1/1 1/1/1
f 2/1/1 3/2/2 4/2/2
f 3/2/2 5/2/3 4/2/2
f 5/2/3 3/2/2 6/2/3
f 6/2/3 7/2/4 5/2/3
f 7/2/4 6/2/3 8/2/4
f 11/1/6 10/1/5 9/1/5
f 10/1/5 11/1/6 12/1/6
f 1/1/1 12/1/6 11/1/6
f 12/1/6 1/1/1 2/1/1
f 7/2/4 9/1/5 10/1/5
f 9/1/5 7/2/4 8/2/4
f 15/3/8 14/4/7 13/3/7
f 14/4/7 15/3/8 16/4/8
f 19/4/9 18/3/9 17/4/9
f 18/3/9 19/4/9 20/3/9
f 21/3/10 16/4/8 15/3/8
f 16/4/8 21/3/10 22/4/10
f 13/3/7 24/4/11 23/3/11
f 24/4/11 13/3/7 14/4/7
f 26/4/12 21/3/10 25/3/12
f 21/3/10 26/4/12 22/4/10
f 24/4/11 27/3/13 23/3/11
f 27/3/13 24/4/11 28/4/13
f 30/4/14 25/3/12 29/3/14
f 25/3/12 30/4/14 26/4/12
f 32/4/15 18/3/15 31/3/15
f 18/3/15 32/4/15 17/4/15
f 20/3/16 34/4/16 33/3/16
f 34/4/16 20/3/16 19/4/16
f 37/4/18 36/3/17 35/4/17
f 36/3/17 37/4/18 38/3/18
f 41/4/20 40/3/19 39/4/19
f 40/3/19 41/4/20 42/3/20
f 27/3/13 44/4/21 43/3/21
f 44/4/21 27/3/13 28/4/13
f 43/3/21 35/4/17 36/3/17
f 35/4/17 43/3/21 44/4/21
f 39/4/19 38/3/18 37/4/18
f 38/3/18 39/4/19 40/3/19
f 37/4/3 41/4/3 39/4/3
f 41/4/3 37/4/3 35/4/3
f 41/4/3 35/4/3 30/4/3
f 30/4/3 35/4/3 44/4/3
f 30/4/3 44/4/3 34/4/3
f 30/4/3 34/4/3 26/4/3
f 44/4/3 32/4/3 34/4/3
f 32/4/3 44/4/3 28/4/3
f 32/4/3 28/4/3 17/4/3
f 17/4/3 28/4/3 19/4/3
f 26/4/3 34/4/3 19/4/3
f 26/4/3 19/4/3 28/4/3
f 26/4/3 28/4/3 24/4/3
f 26/4/3 24/4/3 22/4/3
f 22/4/3 24/4/3 14/4/3
f 22/4/3 14/4/3 16/4/3
f 33/3/22 32/4/22 31/3/22
f 32/4/22 33/3/22 34/4/22
f 41/4/20 29/3/14 42/3/20
f 29/3/14 41/4/20 30/4/14
f 42/3/6 38/3/6 40/3/6
f 38/3/6 42/3/6 36/3/6
f 36/3/6 42/3/6 29/3/6
f 36/3/6 29/3/6 43/3/6
f 43/3/6 29/3/6 33/3/6
f 33/3/6 29/3/6 25/3/6
f 31/3/6 43/3/6 33/3/6
f 43/3/6 31/3/6 27/3/6
f 27/3/6 31/3/6 18/3/6
f 27/3/6 18/3/6 20/3/6
f 33/3/6 25/3/6 20/3/6
f 20/3/6 25/3/6 27/3/6
f 27/3/6 25/3/6 23/3/6
f 23/3/6 25/3/6 21/3/6
f 23/3/6 21/3/6 13/3/6
f 13/3/6 21/3/6 15/3/6
f 47/5/6 46/5/6 45/5/6
f 46/5/6 47/5/6 48/5/6
f 47/5/6 49/5/6 48/5/6
f 49/5/6 47/5/6 50/5/6
f 53/6/9 52/7/9 51/6/9
f 52/7/9 53/6/9 54/7/9
f 57/8/3 56/8/3 55/8/3
f 56/8/3 57/8/3 58/8/3
f 59/8/3 56/8/3 58/8/3
f 56/8/3 59/8/3 60/8/3
f 47/5/9 60/8/9 50/5/9
f 60/8/9 47/5/9 7/9/9
f 7/9/9 47/5/9 5/9/9
f 10/10/9 60/8/9 7/9/9
f 45/5/9 5/9/9 47/5/9
f 5/9/9 45/5/9 4/9/9
f 60/8/9 10/10/9 56/8/9
f 56/8/9 10/10/9 12/10/9
f 4/9/9 45/5/9 2/10/9
f 2/10/9 56/8/9 12/10/9
f 55/8/9 2/10/9 45/5/9
f 56/8/9 2/10/9 55/8/9
f 61/6/3 53/6/3 51/6/3
f 53/6/3 61/6/3 62/6/3
f 63/7/6 52/7/6 54/7/6
f 52/7/6 63/7/6 64/7/6
f 63/7/22 61/6/22 64/7/22
f 61/6/22 63/7/22 62/6/22
f 66/12/15 47/5/15 65/11/15
f 67/12/15 47/5/15 66/12/15
f 47/5/15 5/9/15 65/11/15
f 47/5/15 67/12/15 48/5/15
f 6/9/15 65/11/15 5/9/15
f 67/12/15 68/11/15 48/5/15
f 65/11/15 6/9/15 68/11/15
f 48/5/15 68/11/15 6/9/15
f 5/9/16 65/11/16 6/9/16
f 65/11/16 5/9/16 47/5/16
f 68/11/16 6/9/16 65/11/16
f 65/11/16 47/5/16 66/12/16
f 6/9/16 68/11/16 48/5/16
f 66/12/16 47/5/16 67/12/16
f 48/5/16 68/11/16 67/12/16
f 48/5/16 67/12/16 47/5/16
f 59/8/22 9/10/22 49/5/22
f 9/10/22 59/8/22 58/8/22
f 8/9/22 49/5/22 9/10/22
f 9/10/22 58/8/22 11/10/22
f 49/5/22 8/9/22 48/5/22
f 48/5/22 8/9/22 6/9/22
f 57/8/22 11/10/22 58/8/22
f 11/10/22 57/8/22 1/10/22
f 3/9/22 48/5/22 6/9/22
f 1/10/22 57/8/22 3/9/22
f 48/5/22 3/9/22 46/5/22
f 46/5/22 3/9/22 57/8/22
f 60/8/16 61/6/16 50/5/16
f 50/5/16 61/6/16 49/5/16
f 60/8/16 64/7/16 61/6/16
f 51/6/16 49/5/16 61/6/16
f 64/7/16 60/8/16 52/7/16
f 51/6/16 59/8/16 49/5/16
f 52/7/16 59/8/16 51/6/16
f 59/8/16 52/7/16 60/8/16
f 57/8/15 53/6/15 46/5/15
f 46/5/15 53/6/15 45/5/15
f 57/8/15 54/7/15 53/6/15
f 62/6/15 45/5/15 53/6/15
f 54/7/15 57/8/15 63/7/15
f 62/6/15 55/8/15 45/5/15
f 63/7/15 55/8/15 62/6/15
f 55/8/15 63/7/15 57/8/15
f 56/13/16 11/14/16 58/13/16
f 11/14/16 56/13/16 12/14/16
f 58/13/15 11/14/15 56/13/15
f 12/14/15 56/13/15 11/14/15
f 71/15/23 70/15/23 69/15/23
f 70/15/23 71/15/23 72/15/23
f 69/15/24 70/15/24 71/15/24
f 72/15/24 71/15/24 70/15/24

