# Created by Kenney (www.kenney.nl)

mtllib door-wide-open.mtl

g door-wide-open

v -0.9 1.283376 0.4 1 1 1
v 0.9 1.283376 0.4 1 1 1
v -0.9 1.484107 0.5098076 1 1 1
v 0.9 1.484107 0.5098076 1 1 1
v -0.1178871 0.9830117 0.4 1 1 1
v -0.9 1.051591 0.4 1 1 1
v -0.1178871 0.8883849 0.4 1 1 1
v 0.1178871 0.9830117 0.4 1 1 1
v -0.9 0.8198057 0.4 1 1 1
v 0.9 1.051591 0.4 1 1 1
v 0.9 0.8198057 0.4 1 1 1
v 0.1178871 0.8883849 0.4 1 1 1
v 0.9 1.6 0.7 1 1 1
v -0.9 1.6 0.7 1 1 1
v -0.9 1.283376 0.4 1 1 1
v 0.9 1.283376 0.4 1 1 1
v 0.1178871 0.9830117 0.4 1 1 1
v -0.1178871 0.9830117 0.4 1 1 1

vn 0 0.4799216 -0.8773113
vn 0 0 -1
vn 0 0.8539527 -0.5203506
vn 0 -1.192093E-07 -1

vt 0.84375 0.1979492
vt 0.84375 0.225
vt 0.84375 0.1574717
vt 0.84375 0.1667136
vt 0.84375 0.1447197
vt 0.84375 0.1354779
vt 0.84375 0.088094
vt 0.84375 0.105
vt 0.84375 0.025
vt 0.84375 0.05881198
vt 0.34375 0.025

usemtl colormap

f 3/2/1 2/1/1 1/1/1
f 2/1/1 3/2/1 4/2/1
f 7/5/2 6/4/2 5/3/2
f 5/3/2 6/4/2 8/3/2
f 7/5/2 9/6/2 6/4/2
f 10/4/2 8/3/2 6/4/2
f 9/6/2 7/5/2 11/6/2
f 10/4/2 12/5/2 8/3/2
f 11/6/2 12/5/2 10/4/2
f 12/5/2 11/6/2 7/5/2
f 3/7/3 13/8/3 4/7/3
f 13/8/3 3/7/3 14/8/3
f 15/10/2 10/9/2 6/9/2
f 10/9/2 15/10/2 16/10/2
f 7/11/4 17/11/4 12/11/4
f 17/11/4 7/11/4 18/11/4

g door-wide-open




usemtl colormap

f 3/2/1 2/1/1 1/1/1
f 2/1/1 3/2/1 4/2/1
f 7/5/2 6/4/2 5/3/2
f 5/3/2 6/4/2 8/3/2
f 7/5/2 9/6/2 6/4/2
f 10/4/2 8/3/2 6/4/2
f 9/6/2 7/5/2 11/6/2
f 10/4/2 12/5/2 8/3/2
f 11/6/2 12/5/2 10/4/2
f 12/5/2 11/6/2 7/5/2
f 3/7/3 13/8/3 4/7/3
f 13/8/3 3/7/3 14/8/3
f 15/10/2 10/9/2 6/9/2
f 10/9/2 15/10/2 16/10/2
f 7/11/4 17/11/4 12/11/4
f 17/11/4 7/11/4 18/11/4

