# Created by Kenney (www.kenney.nl)

mtllib hopper-high-round.mtl

g hopper-high-round

v -0.3535534 1 -0.3535534 1 1 1
v -5.775291E-15 1 -0.5 1 1 1
v -0.3535534 1.5 -0.3535534 1 1 1
v -5.775291E-15 1.5 -0.5 1 1 1
v -0.5 1 -7.219114E-16 1 1 1
v -0.1767767 0.5 -0.1767767 1 1 1
v -0.25 0.5 -2.165734E-15 1 1 1
v 0.3535534 1.5 -0.3535534 1 1 1
v 0.3535534 1 -0.3535534 1 1 1
v 0.5 1.5 -7.219114E-16 1 1 1
v 0.5 1 -7.219114E-16 1 1 1
v -5.775291E-15 1 0.5 1 1 1
v -0.3535534 1 0.3535534 1 1 1
v -5.775291E-15 1.5 0.5 1 1 1
v -0.3535534 1.5 0.3535534 1 1 1
v -0.5 1.5 -7.219114E-16 1 1 1
v -5.775291E-15 0.5 -0.25 1 1 1
v 0.1767767 0.5 -0.1767767 1 1 1
v -0.1767767 0.5 0.1767767 1 1 1
v 0.1767767 0.5 0.1767767 1 1 1
v -5.775291E-15 0.5 0.25 1 1 1
v 0.3535534 1 0.3535534 1 1 1
v 0.3535534 1.5 0.3535534 1 1 1
v 0.25 0.5 -2.165734E-15 1 1 1
v -0.1767767 0 -0.1767767 1 1 1
v -5.775291E-15 0 -0.25 1 1 1
v 0.1767767 0 0.1767767 1 1 1
v -5.775291E-15 0 0.25 1 1 1
v -0.1767767 0 0.1767767 1 1 1
v -0.25 0 -2.165734E-15 1 1 1
v 0.1767767 0 -0.1767767 1 1 1
v 0.25 0 -2.165734E-15 1 1 1
v 0.1417608 0 -2.165734E-15 1 1 1
v 0.10024 0 0.10024 1 1 1
v 0.10024 0 -0.10024 1 1 1
v -5.775291E-15 0 0.1417608 1 1 1
v -5.775291E-15 0 -0.1417608 1 1 1
v -0.10024 0 -0.10024 1 1 1
v -0.10024 0 0.10024 1 1 1
v -0.1417608 0 -2.165734E-15 1 1 1
v -5.775291E-15 1.5 0.3917608 1 1 1
v 0.2770167 1.5 0.2770167 1 1 1
v -0.2770167 1.5 0.2770167 1 1 1
v 0.3917608 1.5 -5.414336E-16 1 1 1
v 0.2770167 1.5 -0.2770167 1 1 1
v -5.775291E-15 1.5 -0.3917608 1 1 1
v -0.3917608 1.5 -5.414336E-16 1 1 1
v -0.2770167 1.5 -0.2770167 1 1 1
v -5.775291E-15 1.021981 -0.3917608 1 1 1
v -0.2770167 1.021981 -0.2770167 1 1 1
v 0.2770167 1.021981 -0.2770167 1 1 1
v 0.3917608 1.021981 -5.414336E-16 1 1 1
v -1.155058E-14 0.521981 -0.1417608 1 1 1
v -0.10024 0.521981 -0.10024 1 1 1
v 0.10024 0.521981 -0.10024 1 1 1
v -0.1417608 0.521981 -9.023893E-16 1 1 1
v -0.10024 0.521981 0.10024 1 1 1
v -0.3917608 1.021981 -5.414336E-16 1 1 1
v -0.2770167 1.021981 0.2770167 1 1 1
v -5.775291E-15 1.021981 0.3917608 1 1 1
v -5.775291E-15 0.521981 0.1417608 1 1 1
v 0.10024 0.521981 0.10024 1 1 1
v 0.2770167 1.021981 0.2770167 1 1 1
v 0.1417608 0.521981 -3.248601E-15 1 1 1
v -0.5590988 1.0375 -7.219114E-16 1 1 1
v -0.5590988 1.2625 -7.219114E-16 1 1 1
v -0.3953425 1.0375 0.3953425 1 1 1
v -0.3953425 1.2625 0.3953425 1 1 1
v 0 1.0375 0.5590988 1 1 1
v 0 1.2625 0.5590988 1 1 1
v 0.3953425 1.0375 0.3953425 1 1 1
v 0.3953425 1.2625 0.3953425 1 1 1
v 0.5590988 1.2625 -7.219114E-16 1 1 1
v 0.5590988 1.0375 -7.219114E-16 1 1 1
v 0.3953425 1.2625 -0.3953425 1 1 1
v 0.3953425 1.0375 -0.3953425 1 1 1
v 0 1.0375 -0.5590988 1 1 1
v 0 1.2625 -0.5590988 1 1 1
v -0.3953425 1.0375 -0.3953425 1 1 1
v -0.3953425 1.2625 -0.3953425 1 1 1
v -0.5 1.0375 -7.219114E-16 1 1 1
v -0.3535534 1.0375 0.3535534 1 1 1
v -0.3535534 1.0375 -0.3535534 1 1 1
v -7.219114E-15 1.0375 0.5 1 1 1
v -7.219114E-15 1.0375 -0.5 1 1 1
v 0.3535534 1.0375 0.3535534 1 1 1
v 0.3535534 1.0375 -0.3535534 1 1 1
v 0.5 1.0375 -7.219114E-16 1 1 1
v -0.5 1.2625 -7.219114E-16 1 1 1
v -0.3535534 1.2625 -0.3535534 1 1 1
v -0.3535534 1.2625 0.3535534 1 1 1
v -7.219114E-15 1.2625 -0.5 1 1 1
v -7.219114E-15 1.2625 0.5 1 1 1
v 0.3535534 1.2625 -0.3535534 1 1 1
v 0.3535534 1.2625 0.3535534 1 1 1
v 0.5 1.2625 -7.219114E-16 1 1 1

vn -0.6900789 -0.2181335 -0.6900789
vn 0 -0.2181335 -0.9759189
vn -0.7071068 0 -0.7071068
vn 0 0 -1
vn -0.9759189 -0.2181335 0
vn -0.685849 -0.2433563 -0.685849
vn -0.9699369 -0.2433563 0
vn 0.7071068 0 -0.7071068
vn 0.6900789 -0.2181335 -0.6900789
vn 1 0 0
vn 0.9759189 -0.2181335 0
vn 0 -0.2181335 0.9759189
vn -0.6900789 -0.2181335 0.6900789
vn 0 0 1
vn -0.7071068 0 0.7071068
vn -1 0 0
vn 0 -0.2433563 -0.9699369
vn 0.685849 -0.2433563 -0.685849
vn -0.685849 -0.2433563 0.685849
vn 0.685849 -0.2433563 0.685849
vn 0 -0.2433563 0.9699369
vn 0.6900789 -0.2181335 0.6900789
vn 0.7071068 0 0.7071068
vn 0.9699369 -0.2433563 0
vn 0 -1 0
vn 0 1 0
vn 0 0.2181335 0.9759189
vn 0.6900789 0.2181335 0.6900789
vn -0.6900789 0.2181335 0.6900789
vn -0.9759189 0.2181335 0
vn 0 0.2433563 0.9699369
vn 0.685849 0.2433563 0.685849
vn -0.685849 0.2433563 0.685849
vn 0.9699369 0.2433563 0
vn 0.685849 0.2433563 -0.685849
vn 0.9759189 0.2181335 0
vn 0.6900789 0.2181335 -0.6900789
vn 0 0.2181335 -0.9759189
vn 0 0.2433563 -0.9699369
vn -0.685849 0.2433563 -0.685849
vn -0.6900789 0.2181335 -0.6900789
vn -0.9699369 0.2433563 0

vt 0.59375 0.1583333
vt 0.59375 0.225
vt 0.59375 0.09166666
vt 0.59375 0.025
vt 0.21875 0.1612641
vt 0.21875 0.225
vt 0.21875 0.09459747
vt 0.21875 0.025
vt 0.71875 0.08928571
vt 0.71875 0.175

usemtl colormap

f 3/2/3 2/1/2 1/1/1
f 2/1/2 3/2/3 4/2/4
f 6/3/6 5/1/5 1/1/1
f 5/1/5 6/3/6 7/3/7
f 10/2/10 9/1/9 8/2/8
f 9/1/9 10/2/10 11/1/11
f 14/2/14 13/1/13 12/1/12
f 13/1/13 14/2/14 15/2/15
f 13/1/13 16/2/16 5/1/5
f 16/2/16 13/1/13 15/2/15
f 1/1/1 17/3/17 6/3/6
f 17/3/17 1/1/1 2/1/2
f 2/1/2 18/3/18 17/3/17
f 18/3/18 2/1/2 9/1/9
f 19/3/19 5/1/5 7/3/7
f 5/1/5 19/3/19 13/1/13
f 22/1/22 21/3/21 20/3/20
f 21/3/21 22/1/22 12/1/12
f 23/2/23 12/1/12 22/1/22
f 12/1/12 23/2/23 14/2/14
f 23/2/23 11/1/11 10/2/10
f 11/1/11 23/2/23 22/1/22
f 12/1/12 19/3/19 21/3/21
f 19/3/19 12/1/12 13/1/13
f 4/2/4 9/1/9 2/1/2
f 9/1/9 4/2/4 8/2/8
f 5/1/5 3/2/3 1/1/1
f 3/2/3 5/1/5 16/2/16
f 11/1/11 20/3/20 24/3/24
f 20/3/20 11/1/11 22/1/22
f 11/1/11 18/3/18 9/1/9
f 18/3/18 11/1/11 24/3/24
f 6/3/6 26/4/4 25/4/3
f 26/4/4 6/3/6 17/3/17
f 20/3/20 28/4/14 27/4/23
f 28/4/14 20/3/20 21/3/21
f 21/3/21 29/4/15 28/4/14
f 29/4/15 21/3/21 19/3/19
f 30/4/16 6/3/6 25/4/3
f 6/3/6 30/4/16 7/3/7
f 24/3/24 31/4/8 18/3/18
f 31/4/8 24/3/24 32/4/10
f 20/3/20 32/4/10 24/3/24
f 32/4/10 20/3/20 27/4/23
f 29/4/15 7/3/7 30/4/16
f 7/3/7 29/4/15 19/3/19
f 17/3/17 31/4/8 26/4/4
f 31/4/8 17/3/17 18/3/18
f 27/4/25 31/4/25 32/4/25
f 31/4/25 27/4/25 33/4/25
f 33/4/25 27/4/25 34/4/25
f 35/4/25 31/4/25 33/4/25
f 34/4/25 27/4/25 28/4/25
f 34/4/25 28/4/25 36/4/25
f 31/4/25 35/4/25 26/4/25
f 26/4/25 35/4/25 37/4/25
f 26/4/25 37/4/25 38/4/25
f 36/4/25 28/4/25 29/4/25
f 26/4/25 38/4/25 25/4/25
f 36/4/25 29/4/25 39/4/25
f 25/4/25 38/4/25 40/4/25
f 39/4/25 29/4/25 40/4/25
f 25/4/25 40/4/25 29/4/25
f 25/4/25 29/4/25 30/4/25
f 14/2/26 42/2/26 41/2/26
f 14/2/26 41/2/26 43/2/26
f 23/2/26 42/2/26 14/2/26
f 14/2/26 43/2/26 15/2/26
f 23/2/26 44/2/26 42/2/26
f 44/2/26 23/2/26 10/2/26
f 8/2/26 44/2/26 10/2/26
f 44/2/26 8/2/26 45/2/26
f 45/2/26 8/2/26 4/2/26
f 45/2/26 4/2/26 46/2/26
f 15/2/26 43/2/26 47/2/26
f 15/2/26 47/2/26 16/2/26
f 46/2/26 4/2/26 3/2/26
f 47/2/26 3/2/26 16/2/26
f 46/2/26 3/2/26 48/2/26
f 48/2/26 3/2/26 47/2/26
f 46/6/14 50/5/28 49/5/27
f 50/5/28 46/6/14 48/6/23
f 52/5/30 45/6/15 51/5/29
f 45/6/15 52/5/30 44/6/16
f 49/5/27 54/7/32 53/7/31
f 54/7/32 49/5/27 50/5/28
f 55/7/33 49/5/27 53/7/31
f 49/5/27 55/7/33 51/5/29
f 58/5/36 57/7/35 56/7/34
f 57/7/35 58/5/36 59/5/37
f 43/6/8 60/5/38 59/5/37
f 60/5/38 43/6/8 41/6/4
f 60/5/38 62/7/40 61/7/39
f 62/7/40 60/5/38 63/5/41
f 63/5/41 44/6/16 52/5/30
f 44/6/16 63/5/41 42/6/3
f 51/5/29 46/6/14 49/5/27
f 46/6/14 51/5/29 45/6/15
f 57/7/35 60/5/38 61/7/39
f 60/5/38 57/7/35 59/5/37
f 47/6/10 50/5/28 48/6/23
f 50/5/28 47/6/10 58/5/36
f 43/6/8 58/5/36 47/6/10
f 58/5/36 43/6/8 59/5/37
f 41/6/4 63/5/41 60/5/38
f 63/5/41 41/6/4 42/6/3
f 58/5/36 54/7/32 50/5/28
f 54/7/32 58/5/36 56/7/34
f 57/7/35 36/8/4 39/8/8
f 36/8/4 57/7/35 61/7/39
f 53/7/31 38/8/23 37/8/14
f 38/8/23 53/7/31 54/7/32
f 56/7/34 39/8/8 40/8/10
f 39/8/8 56/7/34 57/7/35
f 55/7/33 37/8/14 35/8/15
f 37/8/14 55/7/33 53/7/31
f 55/7/33 52/5/30 51/5/29
f 52/5/30 55/7/33 64/7/42
f 33/8/16 62/7/40 64/7/42
f 62/7/40 33/8/16 34/8/3
f 62/7/40 52/5/30 64/7/42
f 52/5/30 62/7/40 63/5/41
f 56/7/34 38/8/23 54/7/32
f 38/8/23 56/7/34 40/8/10
f 33/8/16 55/7/33 35/8/15
f 55/7/33 33/8/16 64/7/42
f 61/7/39 34/8/3 36/8/4
f 34/8/3 61/7/39 62/7/40
f 67/9/15 66/10/16 65/9/16
f 66/10/16 67/9/15 68/10/15
f 70/10/14 67/9/15 69/9/14
f 67/9/15 70/10/14 68/10/15
f 72/10/23 69/9/14 71/9/23
f 69/9/14 72/10/23 70/10/14
f 72/10/23 74/9/10 73/10/10
f 74/9/10 72/10/23 71/9/23
f 73/10/10 76/9/8 75/10/8
f 76/9/8 73/10/10 74/9/10
f 78/10/4 76/9/8 77/9/4
f 76/9/8 78/10/4 75/10/8
f 80/10/3 77/9/4 79/9/3
f 77/9/4 80/10/3 78/10/4
f 65/9/16 80/10/3 79/9/3
f 80/10/3 65/9/16 66/10/16
f 81/9/25 67/9/25 65/9/25
f 79/9/25 81/9/25 65/9/25
f 82/9/25 67/9/25 81/9/25
f 79/9/25 83/9/25 81/9/25
f 84/9/25 67/9/25 82/9/25
f 79/9/25 85/9/25 83/9/25
f 84/9/25 69/9/25 67/9/25
f 77/9/25 85/9/25 79/9/25
f 86/9/25 69/9/25 84/9/25
f 77/9/25 87/9/25 85/9/25
f 86/9/25 71/9/25 69/9/25
f 76/9/25 87/9/25 77/9/25
f 88/9/25 71/9/25 86/9/25
f 76/9/25 88/9/25 87/9/25
f 71/9/25 88/9/25 74/9/25
f 88/9/25 76/9/25 74/9/25
f 89/10/26 80/10/26 66/10/26
f 68/10/26 89/10/26 66/10/26
f 90/10/26 80/10/26 89/10/26
f 68/10/26 91/10/26 89/10/26
f 92/10/26 80/10/26 90/10/26
f 68/10/26 93/10/26 91/10/26
f 92/10/26 78/10/26 80/10/26
f 70/10/26 93/10/26 68/10/26
f 94/10/26 78/10/26 92/10/26
f 70/10/26 95/10/26 93/10/26
f 94/10/26 75/10/26 78/10/26
f 72/10/26 95/10/26 70/10/26
f 96/10/26 75/10/26 94/10/26
f 72/10/26 96/10/26 95/10/26
f 75/10/26 96/10/26 73/10/26
f 96/10/26 72/10/26 73/10/26

g hopper-high-round




usemtl colormap

f 3/2/3 2/1/2 1/1/1
f 2/1/2 3/2/3 4/2/4
f 6/3/6 5/1/5 1/1/1
f 5/1/5 6/3/6 7/3/7
f 10/2/10 9/1/9 8/2/8
f 9/1/9 10/2/10 11/1/11
f 14/2/14 13/1/13 12/1/12
f 13/1/13 14/2/14 15/2/15
f 13/1/13 16/2/16 5/1/5
f 16/2/16 13/1/13 15/2/15
f 1/1/1 17/3/17 6/3/6
f 17/3/17 1/1/1 2/1/2
f 2/1/2 18/3/18 17/3/17
f 18/3/18 2/1/2 9/1/9
f 19/3/19 5/1/5 7/3/7
f 5/1/5 19/3/19 13/1/13
f 22/1/22 21/3/21 20/3/20
f 21/3/21 22/1/22 12/1/12
f 23/2/23 12/1/12 22/1/22
f 12/1/12 23/2/23 14/2/14
f 23/2/23 11/1/11 10/2/10
f 11/1/11 23/2/23 22/1/22
f 12/1/12 19/3/19 21/3/21
f 19/3/19 12/1/12 13/1/13
f 4/2/4 9/1/9 2/1/2
f 9/1/9 4/2/4 8/2/8
f 5/1/5 3/2/3 1/1/1
f 3/2/3 5/1/5 16/2/16
f 11/1/11 20/3/20 24/3/24
f 20/3/20 11/1/11 22/1/22
f 11/1/11 18/3/18 9/1/9
f 18/3/18 11/1/11 24/3/24
f 6/3/6 26/4/4 25/4/3
f 26/4/4 6/3/6 17/3/17
f 20/3/20 28/4/14 27/4/23
f 28/4/14 20/3/20 21/3/21
f 21/3/21 29/4/15 28/4/14
f 29/4/15 21/3/21 19/3/19
f 30/4/16 6/3/6 25/4/3
f 6/3/6 30/4/16 7/3/7
f 24/3/24 31/4/8 18/3/18
f 31/4/8 24/3/24 32/4/10
f 20/3/20 32/4/10 24/3/24
f 32/4/10 20/3/20 27/4/23
f 29/4/15 7/3/7 30/4/16
f 7/3/7 29/4/15 19/3/19
f 17/3/17 31/4/8 26/4/4
f 31/4/8 17/3/17 18/3/18
f 27/4/25 31/4/25 32/4/25
f 31/4/25 27/4/25 33/4/25
f 33/4/25 27/4/25 34/4/25
f 35/4/25 31/4/25 33/4/25
f 34/4/25 27/4/25 28/4/25
f 34/4/25 28/4/25 36/4/25
f 31/4/25 35/4/25 26/4/25
f 26/4/25 35/4/25 37/4/25
f 26/4/25 37/4/25 38/4/25
f 36/4/25 28/4/25 29/4/25
f 26/4/25 38/4/25 25/4/25
f 36/4/25 29/4/25 39/4/25
f 25/4/25 38/4/25 40/4/25
f 39/4/25 29/4/25 40/4/25
f 25/4/25 40/4/25 29/4/25
f 25/4/25 29/4/25 30/4/25
f 14/2/26 42/2/26 41/2/26
f 14/2/26 41/2/26 43/2/26
f 23/2/26 42/2/26 14/2/26
f 14/2/26 43/2/26 15/2/26
f 23/2/26 44/2/26 42/2/26
f 44/2/26 23/2/26 10/2/26
f 8/2/26 44/2/26 10/2/26
f 44/2/26 8/2/26 45/2/26
f 45/2/26 8/2/26 4/2/26
f 45/2/26 4/2/26 46/2/26
f 15/2/26 43/2/26 47/2/26
f 15/2/26 47/2/26 16/2/26
f 46/2/26 4/2/26 3/2/26
f 47/2/26 3/2/26 16/2/26
f 46/2/26 3/2/26 48/2/26
f 48/2/26 3/2/26 47/2/26
f 46/6/14 50/5/28 49/5/27
f 50/5/28 46/6/14 48/6/23
f 52/5/30 45/6/15 51/5/29
f 45/6/15 52/5/30 44/6/16
f 49/5/27 54/7/32 53/7/31
f 54/7/32 49/5/27 50/5/28
f 55/7/33 49/5/27 53/7/31
f 49/5/27 55/7/33 51/5/29
f 58/5/36 57/7/35 56/7/34
f 57/7/35 58/5/36 59/5/37
f 43/6/8 60/5/38 59/5/37
f 60/5/38 43/6/8 41/6/4
f 60/5/38 62/7/40 61/7/39
f 62/7/40 60/5/38 63/5/41
f 63/5/41 44/6/16 52/5/30
f 44/6/16 63/5/41 42/6/3
f 51/5/29 46/6/14 49/5/27
f 46/6/14 51/5/29 45/6/15
f 57/7/35 60/5/38 61/7/39
f 60/5/38 57/7/35 59/5/37
f 47/6/10 50/5/28 48/6/23
f 50/5/28 47/6/10 58/5/36
f 43/6/8 58/5/36 47/6/10
f 58/5/36 43/6/8 59/5/37
f 41/6/4 63/5/41 60/5/38
f 63/5/41 41/6/4 42/6/3
f 58/5/36 54/7/32 50/5/28
f 54/7/32 58/5/36 56/7/34
f 57/7/35 36/8/4 39/8/8
f 36/8/4 57/7/35 61/7/39
f 53/7/31 38/8/23 37/8/14
f 38/8/23 53/7/31 54/7/32
f 56/7/34 39/8/8 40/8/10
f 39/8/8 56/7/34 57/7/35
f 55/7/33 37/8/14 35/8/15
f 37/8/14 55/7/33 53/7/31
f 55/7/33 52/5/30 51/5/29
f 52/5/30 55/7/33 64/7/42
f 33/8/16 62/7/40 64/7/42
f 62/7/40 33/8/16 34/8/3
f 62/7/40 52/5/30 64/7/42
f 52/5/30 62/7/40 63/5/41
f 56/7/34 38/8/23 54/7/32
f 38/8/23 56/7/34 40/8/10
f 33/8/16 55/7/33 35/8/15
f 55/7/33 33/8/16 64/7/42
f 61/7/39 34/8/3 36/8/4
f 34/8/3 61/7/39 62/7/40
f 67/9/15 66/10/16 65/9/16
f 66/10/16 67/9/15 68/10/15
f 70/10/14 67/9/15 69/9/14
f 67/9/15 70/10/14 68/10/15
f 72/10/23 69/9/14 71/9/23
f 69/9/14 72/10/23 70/10/14
f 72/10/23 74/9/10 73/10/10
f 74/9/10 72/10/23 71/9/23
f 73/10/10 76/9/8 75/10/8
f 76/9/8 73/10/10 74/9/10
f 78/10/4 76/9/8 77/9/4
f 76/9/8 78/10/4 75/10/8
f 80/10/3 77/9/4 79/9/3
f 77/9/4 80/10/3 78/10/4
f 65/9/16 80/10/3 79/9/3
f 80/10/3 65/9/16 66/10/16
f 81/9/25 67/9/25 65/9/25
f 79/9/25 81/9/25 65/9/25
f 82/9/25 67/9/25 81/9/25
f 79/9/25 83/9/25 81/9/25
f 84/9/25 67/9/25 82/9/25
f 79/9/25 85/9/25 83/9/25
f 84/9/25 69/9/25 67/9/25
f 77/9/25 85/9/25 79/9/25
f 86/9/25 69/9/25 84/9/25
f 77/9/25 87/9/25 85/9/25
f 86/9/25 71/9/25 69/9/25
f 76/9/25 87/9/25 77/9/25
f 88/9/25 71/9/25 86/9/25
f 76/9/25 88/9/25 87/9/25
f 71/9/25 88/9/25 74/9/25
f 88/9/25 76/9/25 74/9/25
f 89/10/26 80/10/26 66/10/26
f 68/10/26 89/10/26 66/10/26
f 90/10/26 80/10/26 89/10/26
f 68/10/26 91/10/26 89/10/26
f 92/10/26 80/10/26 90/10/26
f 68/10/26 93/10/26 91/10/26
f 92/10/26 78/10/26 80/10/26
f 70/10/26 93/10/26 68/10/26
f 94/10/26 78/10/26 92/10/26
f 70/10/26 95/10/26 93/10/26
f 94/10/26 75/10/26 78/10/26
f 72/10/26 95/10/26 70/10/26
f 96/10/26 75/10/26 94/10/26
f 72/10/26 96/10/26 95/10/26
f 75/10/26 96/10/26 73/10/26
f 96/10/26 72/10/26 73/10/26

