# Created by Kenney (www.kenney.nl)

mtllib hopper-high-square.mtl

g hopper-high-square

v 0.5 1 -0.5 1 1 1
v 0.25 0.5 -0.25 1 1 1
v 0.5 1 0.5 1 1 1
v 0.25 0.5 0.25 1 1 1
v -0.5 1 -0.5 1 1 1
v -0.5 1.5 -0.5 1 1 1
v 0.5 1.5 -0.5 1 1 1
v -0.25 0.5 -0.25 1 1 1
v -0.5 1 0.5 1 1 1
v 0.5 1.5 0.5 1 1 1
v -0.5 1.5 0.5 1 1 1
v -0.25 0.5 0.25 1 1 1
v -0.25 0 -0.25 1 1 1
v 0.25 0 -0.25 1 1 1
v 0.25 0 0.25 1 1 1
v -0.25 0 0.25 1 1 1
v -0.15 0 0.15 1 1 1
v 0.15 0 0.15 1 1 1
v -0.15 0 -0.15 1 1 1
v 0.15 0 -0.15 1 1 1
v 0.4 1.5 -0.4 1 1 1
v 0.4 1.5 0.4 1 1 1
v -0.4 1.5 -0.4 1 1 1
v -0.4 1.5 0.4 1 1 1
v -0.4 1.023607 0.4 1 1 1
v 0.4 1.023607 0.4 1 1 1
v -0.15 0.5236068 -0.15 1 1 1
v -0.4 1.023607 -0.4 1 1 1
v 0.15 0.5236068 -0.15 1 1 1
v 0.4 1.023607 -0.4 1 1 1
v 0.15 0.5236068 0.15 1 1 1
v -0.15 0.5236068 0.15 1 1 1
v 0.5586 1.2625 -0.508725 1 1 1
v 0.5586 1.0375 -0.508725 1 1 1
v 0.5586 1.2625 0.508725 1 1 1
v 0.5586 1.0375 0.508725 1 1 1
v 0.508725 1.0375 0.5586 1 1 1
v -0.508725 1.0375 0.5586 1 1 1
v 0.508725 1.2625 0.5586 1 1 1
v -0.508725 1.2625 0.5586 1 1 1
v 0.5439919 1.0375 0.5439919 1 1 1
v 0.5439919 1.2625 0.5439919 1 1 1
v -0.5586 1.0375 0.508725 1 1 1
v -0.5586 1.2625 0.508725 1 1 1
v -0.5439919 1.0375 0.5439919 1 1 1
v -0.5439919 1.2625 0.5439919 1 1 1
v -0.508725 1.0375 -0.5586 1 1 1
v 0.508725 1.0375 -0.5586 1 1 1
v -0.508725 1.2625 -0.5586 1 1 1
v 0.508725 1.2625 -0.5586 1 1 1
v -0.5586 1.0375 -0.508725 1 1 1
v -0.5586 1.2625 -0.508725 1 1 1
v 0.5439919 1.0375 -0.5439919 1 1 1
v 0.5439919 1.2625 -0.5439919 1 1 1
v -0.5439919 1.0375 -0.5439919 1 1 1
v -0.5439919 1.2625 -0.5439919 1 1 1
v 0.5 1.2625 -0.5 1 1 1
v 0.5 1.2625 0.5 1 1 1
v -0.5 1.2625 -0.5 1 1 1
v -0.5 1.2625 0.5 1 1 1
v 0.5 1.0375 0.5 1 1 1
v 0.5 1.0375 -0.5 1 1 1
v -0.5 1.0375 0.5 1 1 1
v -0.5 1.0375 -0.5 1 1 1

vn 0.8944272 -0.4472136 0
vn 0 0 -1
vn 0 -0.4472136 -0.8944272
vn 0 0 1
vn 1 0 0
vn 0 -0.4472136 0.8944272
vn -1 0 0
vn -0.8944272 -0.4472136 0
vn 0 -1 0
vn 0 1 0
vn 0 0.4472136 0.8944272
vn -0.8944272 0.4472136 0
vn 0 0.4472136 -0.8944272
vn 0.8944272 0.4472136 0
vn 0.9807853 0 -0.1950903
vn 0.9807853 0 0.1950903
vn 0.1950903 0 0.9807853
vn -0.1950903 0 0.9807853
vn 0.7071068 0 0.7071068
vn -0.9807853 0 0.1950903
vn -0.7071068 0 0.7071068
vn -0.1950903 0 -0.9807853
vn 0.1950903 0 -0.9807853
vn -0.9807853 0 -0.1950903
vn 0.7071068 0 -0.7071068
vn -0.7071068 0 -0.7071068

vt 0.59375 0.1583333
vt 0.59375 0.09166666
vt 0.59375 0.225
vt 0.59375 0.025
vt 0.21875 0.1614809
vt 0.21875 0.225
vt 0.21875 0.09481424
vt 0.21875 0.025
vt 0.71875 0.175
vt 0.71875 0.08928571

usemtl colormap

f 3/1/1 2/2/1 1/1/1
f 2/2/1 3/1/1 4/2/1
f 6/3/2 1/1/2 5/1/2
f 1/1/2 6/3/2 7/3/2
f 5/1/3 2/2/3 8/2/3
f 2/2/3 5/1/3 1/1/3
f 10/3/4 9/1/4 3/1/4
f 9/1/4 10/3/4 11/3/4
f 10/3/5 1/1/5 7/3/5
f 1/1/5 10/3/5 3/1/5
f 3/1/6 12/2/6 4/2/6
f 12/2/6 3/1/6 9/1/6
f 9/1/7 6/3/7 5/1/7
f 6/3/7 9/1/7 11/3/7
f 8/2/8 9/1/8 5/1/8
f 9/1/8 8/2/8 12/2/8
f 8/2/2 14/4/2 13/4/2
f 14/4/2 8/2/2 2/2/2
f 4/2/4 16/4/4 15/4/4
f 16/4/4 4/2/4 12/2/4
f 4/2/5 14/4/5 2/2/5
f 14/4/5 4/2/5 15/4/5
f 16/4/7 8/2/7 13/4/7
f 8/2/7 16/4/7 12/2/7
f 18/4/9 16/4/9 17/4/9
f 17/4/9 16/4/9 19/4/9
f 18/4/9 15/4/9 16/4/9
f 13/4/9 19/4/9 16/4/9
f 15/4/9 18/4/9 14/4/9
f 13/4/9 20/4/9 19/4/9
f 14/4/9 20/4/9 13/4/9
f 20/4/9 14/4/9 18/4/9
f 7/3/10 21/3/10 10/3/10
f 21/3/10 7/3/10 6/3/10
f 22/3/10 10/3/10 21/3/10
f 21/3/10 6/3/10 23/3/10
f 10/3/10 22/3/10 11/3/10
f 23/3/10 6/3/10 24/3/10
f 11/3/10 22/3/10 24/3/10
f 11/3/10 24/3/10 6/3/10
f 24/6/2 26/5/2 25/5/2
f 26/5/2 24/6/2 22/6/2
f 29/7/11 28/5/11 27/7/11
f 28/5/11 29/7/11 30/5/11
f 29/7/12 26/5/12 30/5/12
f 26/5/12 29/7/12 31/7/12
f 24/6/5 28/5/5 23/6/5
f 28/5/5 24/6/5 25/5/5
f 25/5/13 31/7/13 32/7/13
f 31/7/13 25/5/13 26/5/13
f 26/5/7 21/6/7 30/5/7
f 21/6/7 26/5/7 22/6/7
f 21/6/4 28/5/4 30/5/4
f 28/5/4 21/6/4 23/6/4
f 20/8/7 31/7/7 29/7/7
f 31/7/7 20/8/7 18/8/7
f 32/7/2 18/8/2 17/8/2
f 18/8/2 32/7/2 31/7/2
f 32/7/5 19/8/5 27/7/5
f 19/8/5 32/7/5 17/8/5
f 29/7/4 19/8/4 20/8/4
f 19/8/4 29/7/4 27/7/4
f 25/5/14 27/7/14 28/5/14
f 27/7/14 25/5/14 32/7/14
f 35/9/16 34/10/15 33/9/15
f 34/10/15 35/9/16 36/10/16
f 39/9/17 38/10/18 37/10/17
f 38/10/18 39/9/17 40/9/18
f 42/9/19 37/10/17 41/10/19
f 37/10/17 42/9/19 39/9/17
f 45/10/21 44/9/20 43/10/20
f 44/9/20 45/10/21 46/9/21
f 42/9/19 36/10/16 35/9/16
f 36/10/16 42/9/19 41/10/19
f 40/9/18 45/10/21 38/10/18
f 45/10/21 40/9/18 46/9/21
f 49/9/22 48/10/23 47/10/22
f 48/10/23 49/9/22 50/9/23
f 43/10/20 52/9/24 51/10/24
f 52/9/24 43/10/20 44/9/20
f 50/9/23 53/10/25 48/10/23
f 53/10/25 50/9/23 54/9/25
f 56/9/26 47/10/22 55/10/26
f 47/10/22 56/9/26 49/9/22
f 33/9/15 53/10/25 54/9/25
f 53/10/25 33/9/15 34/10/15
f 51/10/24 56/9/26 55/10/26
f 56/9/26 51/10/24 52/9/24
f 54/9/10 35/9/10 33/9/10
f 35/9/10 54/9/10 42/9/10
f 42/9/10 54/9/10 50/9/10
f 42/9/10 50/9/10 39/9/10
f 39/9/10 50/9/10 57/9/10
f 57/9/10 50/9/10 49/9/10
f 58/9/10 39/9/10 57/9/10
f 57/9/10 49/9/10 59/9/10
f 39/9/10 58/9/10 40/9/10
f 59/9/10 49/9/10 60/9/10
f 40/9/10 58/9/10 60/9/10
f 40/9/10 60/9/10 49/9/10
f 40/9/10 49/9/10 56/9/10
f 40/9/10 56/9/10 46/9/10
f 46/9/10 56/9/10 52/9/10
f 46/9/10 52/9/10 44/9/10
f 41/10/9 34/10/9 36/10/9
f 34/10/9 41/10/9 53/10/9
f 53/10/9 41/10/9 37/10/9
f 53/10/9 37/10/9 48/10/9
f 48/10/9 37/10/9 61/10/9
f 61/10/9 37/10/9 38/10/9
f 62/10/9 48/10/9 61/10/9
f 61/10/9 38/10/9 63/10/9
f 48/10/9 62/10/9 47/10/9
f 63/10/9 38/10/9 64/10/9
f 47/10/9 62/10/9 64/10/9
f 47/10/9 64/10/9 38/10/9
f 47/10/9 38/10/9 45/10/9
f 47/10/9 45/10/9 55/10/9
f 55/10/9 45/10/9 43/10/9
f 55/10/9 43/10/9 51/10/9

g hopper-high-square




usemtl colormap

f 3/1/1 2/2/1 1/1/1
f 2/2/1 3/1/1 4/2/1
f 6/3/2 1/1/2 5/1/2
f 1/1/2 6/3/2 7/3/2
f 5/1/3 2/2/3 8/2/3
f 2/2/3 5/1/3 1/1/3
f 10/3/4 9/1/4 3/1/4
f 9/1/4 10/3/4 11/3/4
f 10/3/5 1/1/5 7/3/5
f 1/1/5 10/3/5 3/1/5
f 3/1/6 12/2/6 4/2/6
f 12/2/6 3/1/6 9/1/6
f 9/1/7 6/3/7 5/1/7
f 6/3/7 9/1/7 11/3/7
f 8/2/8 9/1/8 5/1/8
f 9/1/8 8/2/8 12/2/8
f 8/2/2 14/4/2 13/4/2
f 14/4/2 8/2/2 2/2/2
f 4/2/4 16/4/4 15/4/4
f 16/4/4 4/2/4 12/2/4
f 4/2/5 14/4/5 2/2/5
f 14/4/5 4/2/5 15/4/5
f 16/4/7 8/2/7 13/4/7
f 8/2/7 16/4/7 12/2/7
f 18/4/9 16/4/9 17/4/9
f 17/4/9 16/4/9 19/4/9
f 18/4/9 15/4/9 16/4/9
f 13/4/9 19/4/9 16/4/9
f 15/4/9 18/4/9 14/4/9
f 13/4/9 20/4/9 19/4/9
f 14/4/9 20/4/9 13/4/9
f 20/4/9 14/4/9 18/4/9
f 7/3/10 21/3/10 10/3/10
f 21/3/10 7/3/10 6/3/10
f 22/3/10 10/3/10 21/3/10
f 21/3/10 6/3/10 23/3/10
f 10/3/10 22/3/10 11/3/10
f 23/3/10 6/3/10 24/3/10
f 11/3/10 22/3/10 24/3/10
f 11/3/10 24/3/10 6/3/10
f 24/6/2 26/5/2 25/5/2
f 26/5/2 24/6/2 22/6/2
f 29/7/11 28/5/11 27/7/11
f 28/5/11 29/7/11 30/5/11
f 29/7/12 26/5/12 30/5/12
f 26/5/12 29/7/12 31/7/12
f 24/6/5 28/5/5 23/6/5
f 28/5/5 24/6/5 25/5/5
f 25/5/13 31/7/13 32/7/13
f 31/7/13 25/5/13 26/5/13
f 26/5/7 21/6/7 30/5/7
f 21/6/7 26/5/7 22/6/7
f 21/6/4 28/5/4 30/5/4
f 28/5/4 21/6/4 23/6/4
f 20/8/7 31/7/7 29/7/7
f 31/7/7 20/8/7 18/8/7
f 32/7/2 18/8/2 17/8/2
f 18/8/2 32/7/2 31/7/2
f 32/7/5 19/8/5 27/7/5
f 19/8/5 32/7/5 17/8/5
f 29/7/4 19/8/4 20/8/4
f 19/8/4 29/7/4 27/7/4
f 25/5/14 27/7/14 28/5/14
f 27/7/14 25/5/14 32/7/14
f 35/9/16 34/10/15 33/9/15
f 34/10/15 35/9/16 36/10/16
f 39/9/17 38/10/18 37/10/17
f 38/10/18 39/9/17 40/9/18
f 42/9/19 37/10/17 41/10/19
f 37/10/17 42/9/19 39/9/17
f 45/10/21 44/9/20 43/10/20
f 44/9/20 45/10/21 46/9/21
f 42/9/19 36/10/16 35/9/16
f 36/10/16 42/9/19 41/10/19
f 40/9/18 45/10/21 38/10/18
f 45/10/21 40/9/18 46/9/21
f 49/9/22 48/10/23 47/10/22
f 48/10/23 49/9/22 50/9/23
f 43/10/20 52/9/24 51/10/24
f 52/9/24 43/10/20 44/9/20
f 50/9/23 53/10/25 48/10/23
f 53/10/25 50/9/23 54/9/25
f 56/9/26 47/10/22 55/10/26
f 47/10/22 56/9/26 49/9/22
f 33/9/15 53/10/25 54/9/25
f 53/10/25 33/9/15 34/10/15
f 51/10/24 56/9/26 55/10/26
f 56/9/26 51/10/24 52/9/24
f 54/9/10 35/9/10 33/9/10
f 35/9/10 54/9/10 42/9/10
f 42/9/10 54/9/10 50/9/10
f 42/9/10 50/9/10 39/9/10
f 39/9/10 50/9/10 57/9/10
f 57/9/10 50/9/10 49/9/10
f 58/9/10 39/9/10 57/9/10
f 57/9/10 49/9/10 59/9/10
f 39/9/10 58/9/10 40/9/10
f 59/9/10 49/9/10 60/9/10
f 40/9/10 58/9/10 60/9/10
f 40/9/10 60/9/10 49/9/10
f 40/9/10 49/9/10 56/9/10
f 40/9/10 56/9/10 46/9/10
f 46/9/10 56/9/10 52/9/10
f 46/9/10 52/9/10 44/9/10
f 41/10/9 34/10/9 36/10/9
f 34/10/9 41/10/9 53/10/9
f 53/10/9 41/10/9 37/10/9
f 53/10/9 37/10/9 48/10/9
f 48/10/9 37/10/9 61/10/9
f 61/10/9 37/10/9 38/10/9
f 62/10/9 48/10/9 61/10/9
f 61/10/9 38/10/9 63/10/9
f 48/10/9 62/10/9 47/10/9
f 63/10/9 38/10/9 64/10/9
f 47/10/9 62/10/9 64/10/9
f 47/10/9 64/10/9 38/10/9
f 47/10/9 38/10/9 45/10/9
f 47/10/9 45/10/9 55/10/9
f 55/10/9 45/10/9 43/10/9
f 55/10/9 43/10/9 51/10/9

