# Created by Kenney (www.kenney.nl)

mtllib indicator-special-arrow.mtl

g indicator-special-arrow

v 0.2 0 0.075 1 1 1
v 0.025 0 0.075 1 1 1
v 0.2 0 -0.075 1 1 1
v 0.025 0 -0.075 1 1 1
v -0.05 0 0.15 1 1 1
v 0.025 0 0.15 1 1 1
v 0.025 0 -0.15 1 1 1
v -0.05 0 -0.15 1 1 1
v -0.2 0 7.219114E-15 1 1 1
v -0.4 0 0.4 1 1 1
v 0.4 0 0.4 1 1 1
v -0.5 0 0.5 1 1 1
v -0.4 0 -0.4 1 1 1
v 0.5 0 0.5 1 1 1
v -0.5 0 -0.5 1 1 1
v 0.5 0 -0.5 1 1 1
v 0.4 0 -0.4 1 1 1

vn 0 1 0

vt 0.78125 0.125

usemtl colormap

f 3/1/1 2/1/1 1/1/1
f 2/1/1 3/1/1 4/1/1
f 5/1/1 2/1/1 4/1/1
f 2/1/1 5/1/1 6/1/1
f 5/1/1 4/1/1 7/1/1
f 5/1/1 7/1/1 8/1/1
f 5/1/1 8/1/1 9/1/1
f 12/1/1 11/1/1 10/1/1
f 12/1/1 10/1/1 13/1/1
f 14/1/1 11/1/1 12/1/1
f 13/1/1 15/1/1 12/1/1
f 11/1/1 14/1/1 16/1/1
f 17/1/1 15/1/1 13/1/1
f 16/1/1 17/1/1 11/1/1
f 17/1/1 16/1/1 15/1/1

g indicator-special-arrow




usemtl colormap

f 3/1/1 2/1/1 1/1/1
f 2/1/1 3/1/1 4/1/1
f 5/1/1 2/1/1 4/1/1
f 2/1/1 5/1/1 6/1/1
f 5/1/1 4/1/1 7/1/1
f 5/1/1 7/1/1 8/1/1
f 5/1/1 8/1/1 9/1/1
f 12/1/1 11/1/1 10/1/1
f 12/1/1 10/1/1 13/1/1
f 14/1/1 11/1/1 12/1/1
f 13/1/1 15/1/1 12/1/1
f 11/1/1 14/1/1 16/1/1
f 17/1/1 15/1/1 13/1/1
f 16/1/1 17/1/1 11/1/1
f 17/1/1 16/1/1 15/1/1

