# Created by Kenney (www.kenney.nl)

mtllib pipe-glass-large-junction.mtl

g pipe-glass-large-junction

v -0.9999999 0.5 -0.5 1 1 1
v -0.9999999 0.8535534 -0.3535534 1 1 1
v -0.9999999 0.1464466 -0.3535534 1 1 1
v -0.9999999 0.5 -0.3376411 1 1 1
v -0.9999999 0.2612516 -0.2387484 1 1 1
v -0.9999999 0.7387484 -0.2387484 1 1 1
v -0.9999999 1.519623E-13 1.443823E-15 1 1 1
v -0.9999999 0.1623588 1.443823E-15 1 1 1
v -0.9999999 1 1.443823E-15 1 1 1
v -0.9999999 0.8376412 1.443823E-15 1 1 1
v -0.9999999 0.7387484 0.2387484 1 1 1
v -0.9999999 0.1464466 0.3535534 1 1 1
v -0.9999999 0.8535534 0.3535534 1 1 1
v -0.9999999 0.2612516 0.2387484 1 1 1
v -0.9999999 0.5 0.3376411 1 1 1
v -0.9999999 0.5 0.5 1 1 1
v -0.8999999 0.5 -0.5 1 1 1
v -0.8999999 0.8535534 -0.3535534 1 1 1
v -0.8999999 0.1464466 0.3535534 1 1 1
v -0.8999999 0.5 0.5 1 1 1
v -0.8999999 0.1464466 -0.3535534 1 1 1
v -0.8999999 0.5 -0.3376411 1 1 1
v -0.8999999 0.7387484 -0.2387484 1 1 1
v -0.8999999 0.2612516 -0.2387484 1 1 1
v -0.8999999 1 1.443823E-15 1 1 1
v -0.8999999 0.8376412 1.443823E-15 1 1 1
v -0.8999999 1.365315E-13 1.443823E-15 1 1 1
v -0.8999999 0.1623588 1.443823E-15 1 1 1
v -0.8999999 0.2612516 0.2387484 1 1 1
v -0.8999999 0.8535534 0.3535534 1 1 1
v -0.8999999 0.7387484 0.2387484 1 1 1
v -0.8999999 0.5 0.3376411 1 1 1
v 0.8999999 0.5 -0.5 1 1 1
v 0.8999999 0.8535534 -0.3535534 1 1 1
v 0.8999999 0.1464466 -0.3535534 1 1 1
v 0.8999999 0.5 -0.3376411 1 1 1
v 0.8999999 0.2612516 -0.2387484 1 1 1
v 0.8999999 0.7387484 -0.2387484 1 1 1
v 0.8999999 1.543086E-14 1.443823E-15 1 1 1
v 0.8999999 0.1623588 1.443823E-15 1 1 1
v 0.8999999 1 1.443823E-15 1 1 1
v 0.8999999 0.8376412 1.443823E-15 1 1 1
v 0.8999999 0.7387484 0.2387484 1 1 1
v 0.8999999 0.1464466 0.3535534 1 1 1
v 0.8999999 0.8535534 0.3535534 1 1 1
v 0.8999999 0.2612516 0.2387484 1 1 1
v 0.8999999 0.5 0.3376411 1 1 1
v 0.8999999 0.5 0.5 1 1 1
v 0.9999999 0.5 -0.5 1 1 1
v 0.9999999 0.8535534 -0.3535534 1 1 1
v 0.9999999 0.1464466 0.3535534 1 1 1
v 0.9999999 0.5 0.5 1 1 1
v 0.9999999 0.1464466 -0.3535534 1 1 1
v 0.9999999 0.5 -0.3376411 1 1 1
v 0.9999999 0.7387484 -0.2387484 1 1 1
v 0.9999999 0.2612516 -0.2387484 1 1 1
v 0.9999999 1 1.443823E-15 1 1 1
v 0.9999999 0.8376412 1.443823E-15 1 1 1
v 0.9999999 0 1.443823E-15 1 1 1
v 0.9999999 0.1623588 1.443823E-15 1 1 1
v 0.9999999 0.2612516 0.2387484 1 1 1
v 0.9999999 0.8535534 0.3535534 1 1 1
v 0.9999999 0.7387484 0.2387484 1 1 1
v 0.9999999 0.5 0.3376411 1 1 1
v -0.7020814 1.702081 -0.5 1 1 1
v -0.4520814 1.952081 -0.3535534 1 1 1
v -0.9520814 1.452082 -0.3535534 1 1 1
v -0.7020814 1.702081 -0.3376412 1 1 1
v -0.8709021 1.533261 -0.2387484 1 1 1
v -0.5332609 1.870902 -0.2387484 1 1 1
v -1.055635 1.348528 -1.626133E-08 1 1 1
v -0.9408299 1.463333 -1.626133E-08 1 1 1
v -0.3485281 2.055635 -1.626133E-08 1 1 1
v -0.4633331 1.94083 -1.626133E-08 1 1 1
v -0.5332609 1.870902 0.2387483 1 1 1
v -0.9520814 1.452082 0.3535534 1 1 1
v -0.4520814 1.952081 0.3535534 1 1 1
v -0.8709021 1.533261 0.2387483 1 1 1
v -0.7020814 1.702081 0.3376411 1 1 1
v -0.7020814 1.702081 0.5 1 1 1
v -0.6313708 1.631371 -0.5 1 1 1
v -0.3813708 1.881371 -0.3535534 1 1 1
v -0.8813708 1.381371 0.3535534 1 1 1
v -0.6313708 1.631371 0.5 1 1 1
v -0.8813708 1.381371 -0.3535534 1 1 1
v -0.6313708 1.631371 -0.3376412 1 1 1
v -0.4625502 1.800191 -0.2387484 1 1 1
v -0.8001914 1.46255 -0.2387484 1 1 1
v -0.2778174 1.984924 -1.626133E-08 1 1 1
v -0.3926225 1.870119 -1.626133E-08 1 1 1
v -0.9849242 1.277817 -1.626133E-08 1 1 1
v -0.8701192 1.392622 -1.626133E-08 1 1 1
v -0.8001914 1.46255 0.2387483 1 1 1
v -0.3813708 1.881371 0.3535534 1 1 1
v -0.4625502 1.800191 0.2387483 1 1 1
v -0.6313708 1.631371 0.3376411 1 1 1
v -0.4457942 0.8917608 -1.353624E-08 1 1 1
v -0.9083875 1.354354 2.499654E-10 1 1 1
v -0.1687775 0.7770166 0.2770167 1 1 1
v -0.8272512 1.43549 0.2770167 1 1 1
v 0.9 0.4999999 0.3917607 1 1 1
v 0.5 0.4999999 0.3917607 1 1 1
v 0.9 0.7770166 0.2770166 1 1 1
v 0.6147441 0.7770166 0.2770167 1 1 1
v -0.9 0.5 0.3917608 1 1 1
v -0.9 0.7770166 0.2770167 1 1 1
v -0.6313708 1.631371 0.3917608 1 1 1
v 0.5 0.4999999 -0.3917608 1 1 1
v -0.6313708 1.631371 -0.3917608 1 1 1
v -0.1687775 0.7770166 -0.2770167 1 1 1
v -0.8272512 1.43549 -0.2770167 1 1 1
v 0.9 0.2229833 0.2770166 1 1 1
v 0.9 0.1082392 -5.364357E-08 1 1 1
v -0.9 0.2229833 0.2770167 1 1 1
v -0.9 0.1082392 0 1 1 1
v 0.9 0.8917607 -5.364357E-08 1 1 1
v 0.6622726 0.8917607 -4.655883E-08 1 1 1
v 0.9 0.2229833 -0.2770168 1 1 1
v 0.9 0.4999999 -0.3917608 1 1 1
v -0.9 0.2229833 -0.2770167 1 1 1
v -0.9 0.5 -0.3917608 1 1 1
v 0.6147441 0.7770166 -0.2770167 1 1 1
v -0.4354904 1.827251 -0.2770167 1 1 1
v -0.3543541 1.908388 -1.626133E-08 1 1 1
v -0.9 0.7770166 -0.2770167 1 1 1
v -0.9 0.8917608 0 1 1 1
v 0.9 0.7770166 -0.2770168 1 1 1
v -0.4354904 1.827251 0.2770167 1 1 1

vn -1 0 0
vn 0 0 -1
vn 0 0.7071068 -0.7071068
vn 0 -0.7071068 0.7071068
vn 0 0 1
vn 1 0 0
vn 0 1 0
vn 0 -1 0
vn 0 0.7071068 0.7071068
vn 0 -0.7071068 -0.7071068
vn -0.7071066 0.7071068 0
vn 0.5 0.4999999 -0.7071068
vn -0.5 -0.4999999 0.7071068
vn 0.7071066 -0.7071068 0
vn 0.7071068 0.7071066 0
vn -0.7071068 -0.7071066 0
vn 0.5 0.4999999 0.7071068
vn -0.5 -0.4999999 -0.7071068
vn -0.7071068 -0.7071067 0
vn -0.3800748 -0.3800748 0.8432594
vn -0.5 -0.5 0.7071068
vn 0.3800748 0.3800748 -0.8432594
vn 0.7071068 0.7071067 0
vn 0.5 0.5 -0.7071068
vn 0 -0.1304623 0.9914533
vn 0 0.6600284 0.7512407
vn 0 0.5375069 0.8432594
vn 0 0.1304623 -0.9914533
vn 0 -0.6600284 -0.7512407
vn 0 -0.5375069 -0.8432594
vn 0.1383956 0.1383955 0.9806597
vn -0.1383956 -0.1383955 -0.9806597
vn 0.1383955 0.1383955 -0.9806597
vn -0.3800748 -0.3800747 -0.8432593
vn -0.5 -0.5 -0.7071068
vn 0.3800748 0.3800747 0.8432593
vn -0.1383955 -0.1383955 0.9806597
vn 0.5 0.5 0.7071068
vn 0.4667106 0.4667106 -0.7512407
vn -0.4667106 -0.4667106 0.7512407
vn 0 0.5375069 -0.8432594
vn 0 -0.5375069 0.8432594
vn 0 0.6600284 -0.7512407
vn 0 -0.6600284 0.7512407
vn 0.4667106 0.4667105 0.7512406
vn -0.4667106 -0.4667105 -0.7512406
vn 0 0.3826834 -0.9238795
vn 0 -0.3826834 0.9238795

vt 0.09375 0.125
vt 0.09375 0.1603553
vt 0.09375 0.08964466
vt 0.09375 0.1011252
vt 0.09375 0.1488748
vt 0.09375 0.075
vt 0.09375 0.09123588
vt 0.09375 0.175
vt 0.09375 0.1587641
vt 0 0

usemtl colormap

f 3/3/1 2/2/1 1/1/1
f 2/2/1 3/3/1 4/1/1
f 4/1/1 3/3/1 5/4/1
f 6/5/1 2/2/1 4/1/1
f 5/4/1 3/3/1 7/6/1
f 5/4/1 7/6/1 8/7/1
f 2/2/1 6/5/1 9/8/1
f 9/8/1 6/5/1 10/9/1
f 9/8/1 10/9/1 11/5/1
f 8/7/1 7/6/1 12/3/1
f 9/8/1 11/5/1 13/2/1
f 8/7/1 12/3/1 14/4/1
f 13/2/1 11/5/1 15/1/1
f 14/4/1 12/3/1 15/1/1
f 13/2/1 15/1/1 12/3/1
f 13/2/1 12/3/1 16/1/1
f 1/1/2 18/2/3 17/1/2
f 18/2/3 1/1/2 2/2/3
f 20/1/5 12/3/4 19/3/4
f 12/3/4 20/1/5 16/1/5
f 18/2/6 21/3/6 17/1/6
f 21/3/6 18/2/6 22/1/6
f 22/1/6 18/2/6 23/5/6
f 24/4/6 21/3/6 22/1/6
f 23/5/6 18/2/6 25/8/6
f 23/5/6 25/8/6 26/9/6
f 21/3/6 24/4/6 27/6/6
f 27/6/6 24/4/6 28/7/6
f 27/6/6 28/7/6 29/4/6
f 26/9/6 25/8/6 30/2/6
f 27/6/6 29/4/6 19/3/6
f 26/9/6 30/2/6 31/5/6
f 19/3/6 29/4/6 32/1/6
f 31/5/6 30/2/6 32/1/6
f 19/3/6 32/1/6 30/2/6
f 19/3/6 30/2/6 20/1/6
f 18/2/3 9/8/7 25/8/7
f 9/8/7 18/2/3 2/2/3
f 12/3/4 27/6/8 19/3/4
f 27/6/8 12/3/4 7/6/8
f 9/8/7 30/2/9 25/8/7
f 30/2/9 9/8/7 13/2/9
f 27/6/8 3/3/10 21/3/10
f 3/3/10 27/6/8 7/6/8
f 30/2/9 16/1/5 20/1/5
f 16/1/5 30/2/9 13/2/9
f 3/3/10 17/1/2 21/3/10
f 17/1/2 3/3/10 1/1/2
f 10/9/8 23/5/4 26/9/8
f 23/5/4 10/9/8 6/5/4
f 23/5/4 4/1/5 22/1/5
f 4/1/5 23/5/4 6/5/4
f 22/1/5 5/4/9 24/4/9
f 5/4/9 22/1/5 4/1/5
f 5/4/9 28/7/7 24/4/9
f 28/7/7 5/4/9 8/7/7
f 28/7/7 14/4/3 29/4/3
f 14/4/3 28/7/7 8/7/7
f 14/4/3 32/1/2 29/4/3
f 32/1/2 14/4/3 15/1/2
f 15/1/2 31/5/10 32/1/2
f 31/5/10 15/1/2 11/5/10
f 31/5/10 10/9/8 26/9/8
f 10/9/8 31/5/10 11/5/10
f 35/3/1 34/2/1 33/1/1
f 34/2/1 35/3/1 36/1/1
f 36/1/1 35/3/1 37/4/1
f 38/5/1 34/2/1 36/1/1
f 37/4/1 35/3/1 39/6/1
f 37/4/1 39/6/1 40/7/1
f 34/2/1 38/5/1 41/8/1
f 41/8/1 38/5/1 42/9/1
f 41/8/1 42/9/1 43/5/1
f 40/7/1 39/6/1 44/3/1
f 41/8/1 43/5/1 45/2/1
f 40/7/1 44/3/1 46/4/1
f 45/2/1 43/5/1 47/1/1
f 46/4/1 44/3/1 47/1/1
f 45/2/1 47/1/1 44/3/1
f 45/2/1 44/3/1 48/1/1
f 33/1/2 50/2/3 49/1/2
f 50/2/3 33/1/2 34/2/3
f 52/1/5 44/3/4 51/3/4
f 44/3/4 52/1/5 48/1/5
f 50/2/6 53/3/6 49/1/6
f 53/3/6 50/2/6 54/1/6
f 54/1/6 50/2/6 55/5/6
f 56/4/6 53/3/6 54/1/6
f 55/5/6 50/2/6 57/8/6
f 55/5/6 57/8/6 58/9/6
f 53/3/6 56/4/6 59/6/6
f 59/6/6 56/4/6 60/7/6
f 59/6/6 60/7/6 61/4/6
f 58/9/6 57/8/6 62/2/6
f 59/6/6 61/4/6 51/3/6
f 58/9/6 62/2/6 63/5/6
f 51/3/6 61/4/6 64/1/6
f 63/5/6 62/2/6 64/1/6
f 51/3/6 64/1/6 62/2/6
f 51/3/6 62/2/6 52/1/6
f 50/2/3 41/8/7 57/8/7
f 41/8/7 50/2/3 34/2/3
f 44/3/4 59/6/8 51/3/4
f 59/6/8 44/3/4 39/6/8
f 41/8/7 62/2/9 57/8/7
f 62/2/9 41/8/7 45/2/9
f 59/6/8 35/3/10 53/3/10
f 35/3/10 59/6/8 39/6/8
f 62/2/9 48/1/5 52/1/5
f 48/1/5 62/2/9 45/2/9
f 35/3/10 49/1/2 53/3/10
f 49/1/2 35/3/10 33/1/2
f 42/9/8 55/5/4 58/9/8
f 55/5/4 42/9/8 38/5/4
f 55/5/4 36/1/5 54/1/5
f 36/1/5 55/5/4 38/5/4
f 54/1/5 37/4/9 56/4/9
f 37/4/9 54/1/5 36/1/5
f 37/4/9 60/7/7 56/4/9
f 60/7/7 37/4/9 40/7/7
f 60/7/7 46/4/3 61/4/3
f 46/4/3 60/7/7 40/7/7
f 46/4/3 64/1/2 61/4/3
f 64/1/2 46/4/3 47/1/2
f 47/1/2 63/5/10 64/1/2
f 63/5/10 47/1/2 43/5/10
f 63/5/10 42/9/8 58/9/8
f 42/9/8 63/5/10 43/5/10
f 67/3/11 66/2/11 65/1/11
f 66/2/11 67/3/11 68/1/11
f 68/1/11 67/3/11 69/4/11
f 70/5/11 66/2/11 68/1/11
f 69/4/11 67/3/11 71/6/11
f 69/4/11 71/6/11 72/7/11
f 66/2/11 70/5/11 73/8/11
f 73/8/11 70/5/11 74/9/11
f 73/8/11 74/9/11 75/5/11
f 72/7/11 71/6/11 76/3/11
f 73/8/11 75/5/11 77/2/11
f 72/7/11 76/3/11 78/4/11
f 77/2/11 75/5/11 79/1/11
f 78/4/11 76/3/11 79/1/11
f 77/2/11 79/1/11 76/3/11
f 77/2/11 76/3/11 80/1/11
f 65/1/2 82/2/12 81/1/2
f 82/2/12 65/1/2 66/2/12
f 84/1/5 76/3/13 83/3/13
f 76/3/13 84/1/5 80/1/5
f 82/2/14 85/3/14 81/1/14
f 85/3/14 82/2/14 86/1/14
f 86/1/14 82/2/14 87/5/14
f 88/4/14 85/3/14 86/1/14
f 87/5/14 82/2/14 89/8/14
f 87/5/14 89/8/14 90/9/14
f 85/3/14 88/4/14 91/6/14
f 91/6/14 88/4/14 92/7/14
f 91/6/14 92/7/14 93/4/14
f 90/9/14 89/8/14 94/2/14
f 91/6/14 93/4/14 83/3/14
f 90/9/14 94/2/14 95/5/14
f 83/3/14 93/4/14 96/1/14
f 95/5/14 94/2/14 96/1/14
f 83/3/14 96/1/14 94/2/14
f 83/3/14 94/2/14 84/1/14
f 82/2/12 73/8/15 89/8/15
f 73/8/15 82/2/12 66/2/12
f 76/3/13 91/6/16 83/3/13
f 91/6/16 76/3/13 71/6/16
f 73/8/15 94/2/17 89/8/15
f 94/2/17 73/8/15 77/2/17
f 91/6/16 67/3/18 85/3/18
f 67/3/18 91/6/16 71/6/16
f 94/2/17 80/1/5 84/1/5
f 80/1/5 94/2/17 77/2/17
f 67/3/18 81/1/2 85/3/18
f 81/1/2 67/3/18 65/1/2
f 74/9/16 87/5/13 90/9/16
f 87/5/13 74/9/16 70/5/13
f 87/5/13 68/1/5 86/1/5
f 68/1/5 87/5/13 70/5/13
f 86/1/5 69/4/17 88/4/17
f 69/4/17 86/1/5 68/1/5
f 69/4/17 92/7/15 88/4/17
f 92/7/15 69/4/17 72/7/15
f 92/7/15 78/4/12 93/4/12
f 78/4/12 92/7/15 72/7/15
f 78/4/12 96/1/2 93/4/12
f 96/1/2 78/4/12 79/1/2
f 79/1/2 95/5/18 96/1/2
f 95/5/18 79/1/2 75/5/18
f 95/5/18 74/9/16 90/9/16
f 74/9/16 95/5/18 75/5/18

usemtl material-glass

f 99/10/20 98/10/19 97/10/19
f 98/10/19 99/10/20 100/10/21
f 97/10/23 98/10/23 99/10/22
f 100/10/24 99/10/22 98/10/23
f 103/10/9 102/10/25 101/10/5
f 102/10/25 103/10/9 104/10/26
f 99/10/27 105/10/5 102/10/25
f 105/10/5 99/10/27 106/10/9
f 101/10/2 102/10/28 103/10/10
f 104/10/29 103/10/10 102/10/28
f 102/10/28 105/10/2 99/10/30
f 106/10/10 99/10/30 105/10/2
f 107/10/5 99/10/20 102/10/31
f 99/10/20 107/10/5 100/10/21
f 102/10/32 99/10/22 107/10/2
f 100/10/24 107/10/2 99/10/22
f 110/10/34 109/10/2 108/10/33
f 109/10/2 110/10/34 111/10/35
f 108/10/37 109/10/5 110/10/36
f 111/10/38 110/10/36 109/10/5
f 114/10/4 113/10/8 112/10/4
f 113/10/8 114/10/4 115/10/8
f 112/10/3 113/10/7 114/10/3
f 115/10/7 114/10/3 113/10/7
f 116/10/7 104/10/26 103/10/9
f 104/10/26 116/10/7 117/10/7
f 103/10/10 104/10/29 116/10/8
f 117/10/8 116/10/8 104/10/29
f 120/10/10 119/10/2 118/10/10
f 119/10/2 120/10/10 121/10/2
f 119/10/2 121/10/2 108/10/2
f 118/10/9 119/10/5 120/10/9
f 121/10/5 120/10/9 119/10/5
f 108/10/5 121/10/5 119/10/5
f 115/10/8 118/10/10 113/10/8
f 118/10/10 115/10/8 120/10/10
f 113/10/7 118/10/9 115/10/7
f 120/10/9 115/10/7 118/10/9
f 123/10/24 117/10/23 122/10/39
f 117/10/23 123/10/24 124/10/23
f 122/10/40 117/10/19 123/10/21
f 124/10/19 123/10/21 117/10/19
f 97/10/19 111/10/35 110/10/34
f 111/10/35 97/10/19 98/10/19
f 110/10/36 111/10/38 97/10/23
f 98/10/23 97/10/23 111/10/38
f 101/10/5 114/10/4 112/10/4
f 114/10/4 101/10/5 105/10/5
f 105/10/5 101/10/5 102/10/25
f 112/10/3 114/10/3 101/10/2
f 105/10/2 101/10/2 114/10/3
f 102/10/28 101/10/2 105/10/2
f 109/10/2 122/10/39 108/10/33
f 122/10/39 109/10/2 123/10/24
f 108/10/37 122/10/40 109/10/5
f 123/10/21 109/10/5 122/10/40
f 125/10/3 97/10/7 110/10/41
f 97/10/7 125/10/3 126/10/7
f 110/10/42 97/10/8 125/10/4
f 126/10/8 125/10/4 97/10/8
f 127/10/3 117/10/7 116/10/7
f 117/10/7 127/10/3 122/10/43
f 116/10/8 117/10/8 127/10/4
f 122/10/44 127/10/4 117/10/8
f 104/10/45 107/10/5 102/10/31
f 107/10/5 104/10/45 128/10/38
f 102/10/32 107/10/2 104/10/46
f 128/10/35 104/10/46 107/10/2
f 97/10/7 106/10/9 99/10/27
f 106/10/9 97/10/7 126/10/7
f 99/10/30 106/10/10 97/10/8
f 126/10/8 97/10/8 106/10/10
f 110/10/41 121/10/2 125/10/3
f 121/10/2 110/10/41 108/10/47
f 108/10/47 127/10/3 119/10/2
f 127/10/3 108/10/47 122/10/43
f 125/10/4 121/10/5 110/10/42
f 108/10/48 110/10/42 121/10/5
f 119/10/5 127/10/4 108/10/48
f 122/10/44 108/10/48 127/10/4
f 124/10/23 104/10/45 117/10/23
f 104/10/45 124/10/23 128/10/38
f 117/10/19 104/10/46 124/10/19
f 128/10/35 124/10/19 104/10/46

g pipe-glass-large-junction




usemtl colormap

f 3/3/1 2/2/1 1/1/1
f 2/2/1 3/3/1 4/1/1
f 4/1/1 3/3/1 5/4/1
f 6/5/1 2/2/1 4/1/1
f 5/4/1 3/3/1 7/6/1
f 5/4/1 7/6/1 8/7/1
f 2/2/1 6/5/1 9/8/1
f 9/8/1 6/5/1 10/9/1
f 9/8/1 10/9/1 11/5/1
f 8/7/1 7/6/1 12/3/1
f 9/8/1 11/5/1 13/2/1
f 8/7/1 12/3/1 14/4/1
f 13/2/1 11/5/1 15/1/1
f 14/4/1 12/3/1 15/1/1
f 13/2/1 15/1/1 12/3/1
f 13/2/1 12/3/1 16/1/1
f 1/1/2 18/2/3 17/1/2
f 18/2/3 1/1/2 2/2/3
f 20/1/5 12/3/4 19/3/4
f 12/3/4 20/1/5 16/1/5
f 18/2/6 21/3/6 17/1/6
f 21/3/6 18/2/6 22/1/6
f 22/1/6 18/2/6 23/5/6
f 24/4/6 21/3/6 22/1/6
f 23/5/6 18/2/6 25/8/6
f 23/5/6 25/8/6 26/9/6
f 21/3/6 24/4/6 27/6/6
f 27/6/6 24/4/6 28/7/6
f 27/6/6 28/7/6 29/4/6
f 26/9/6 25/8/6 30/2/6
f 27/6/6 29/4/6 19/3/6
f 26/9/6 30/2/6 31/5/6
f 19/3/6 29/4/6 32/1/6
f 31/5/6 30/2/6 32/1/6
f 19/3/6 32/1/6 30/2/6
f 19/3/6 30/2/6 20/1/6
f 18/2/3 9/8/7 25/8/7
f 9/8/7 18/2/3 2/2/3
f 12/3/4 27/6/8 19/3/4
f 27/6/8 12/3/4 7/6/8
f 9/8/7 30/2/9 25/8/7
f 30/2/9 9/8/7 13/2/9
f 27/6/8 3/3/10 21/3/10
f 3/3/10 27/6/8 7/6/8
f 30/2/9 16/1/5 20/1/5
f 16/1/5 30/2/9 13/2/9
f 3/3/10 17/1/2 21/3/10
f 17/1/2 3/3/10 1/1/2
f 10/9/8 23/5/4 26/9/8
f 23/5/4 10/9/8 6/5/4
f 23/5/4 4/1/5 22/1/5
f 4/1/5 23/5/4 6/5/4
f 22/1/5 5/4/9 24/4/9
f 5/4/9 22/1/5 4/1/5
f 5/4/9 28/7/7 24/4/9
f 28/7/7 5/4/9 8/7/7
f 28/7/7 14/4/3 29/4/3
f 14/4/3 28/7/7 8/7/7
f 14/4/3 32/1/2 29/4/3
f 32/1/2 14/4/3 15/1/2
f 15/1/2 31/5/10 32/1/2
f 31/5/10 15/1/2 11/5/10
f 31/5/10 10/9/8 26/9/8
f 10/9/8 31/5/10 11/5/10
f 35/3/1 34/2/1 33/1/1
f 34/2/1 35/3/1 36/1/1
f 36/1/1 35/3/1 37/4/1
f 38/5/1 34/2/1 36/1/1
f 37/4/1 35/3/1 39/6/1
f 37/4/1 39/6/1 40/7/1
f 34/2/1 38/5/1 41/8/1
f 41/8/1 38/5/1 42/9/1
f 41/8/1 42/9/1 43/5/1
f 40/7/1 39/6/1 44/3/1
f 41/8/1 43/5/1 45/2/1
f 40/7/1 44/3/1 46/4/1
f 45/2/1 43/5/1 47/1/1
f 46/4/1 44/3/1 47/1/1
f 45/2/1 47/1/1 44/3/1
f 45/2/1 44/3/1 48/1/1
f 33/1/2 50/2/3 49/1/2
f 50/2/3 33/1/2 34/2/3
f 52/1/5 44/3/4 51/3/4
f 44/3/4 52/1/5 48/1/5
f 50/2/6 53/3/6 49/1/6
f 53/3/6 50/2/6 54/1/6
f 54/1/6 50/2/6 55/5/6
f 56/4/6 53/3/6 54/1/6
f 55/5/6 50/2/6 57/8/6
f 55/5/6 57/8/6 58/9/6
f 53/3/6 56/4/6 59/6/6
f 59/6/6 56/4/6 60/7/6
f 59/6/6 60/7/6 61/4/6
f 58/9/6 57/8/6 62/2/6
f 59/6/6 61/4/6 51/3/6
f 58/9/6 62/2/6 63/5/6
f 51/3/6 61/4/6 64/1/6
f 63/5/6 62/2/6 64/1/6
f 51/3/6 64/1/6 62/2/6
f 51/3/6 62/2/6 52/1/6
f 50/2/3 41/8/7 57/8/7
f 41/8/7 50/2/3 34/2/3
f 44/3/4 59/6/8 51/3/4
f 59/6/8 44/3/4 39/6/8
f 41/8/7 62/2/9 57/8/7
f 62/2/9 41/8/7 45/2/9
f 59/6/8 35/3/10 53/3/10
f 35/3/10 59/6/8 39/6/8
f 62/2/9 48/1/5 52/1/5
f 48/1/5 62/2/9 45/2/9
f 35/3/10 49/1/2 53/3/10
f 49/1/2 35/3/10 33/1/2
f 42/9/8 55/5/4 58/9/8
f 55/5/4 42/9/8 38/5/4
f 55/5/4 36/1/5 54/1/5
f 36/1/5 55/5/4 38/5/4
f 54/1/5 37/4/9 56/4/9
f 37/4/9 54/1/5 36/1/5
f 37/4/9 60/7/7 56/4/9
f 60/7/7 37/4/9 40/7/7
f 60/7/7 46/4/3 61/4/3
f 46/4/3 60/7/7 40/7/7
f 46/4/3 64/1/2 61/4/3
f 64/1/2 46/4/3 47/1/2
f 47/1/2 63/5/10 64/1/2
f 63/5/10 47/1/2 43/5/10
f 63/5/10 42/9/8 58/9/8
f 42/9/8 63/5/10 43/5/10
f 67/3/11 66/2/11 65/1/11
f 66/2/11 67/3/11 68/1/11
f 68/1/11 67/3/11 69/4/11
f 70/5/11 66/2/11 68/1/11
f 69/4/11 67/3/11 71/6/11
f 69/4/11 71/6/11 72/7/11
f 66/2/11 70/5/11 73/8/11
f 73/8/11 70/5/11 74/9/11
f 73/8/11 74/9/11 75/5/11
f 72/7/11 71/6/11 76/3/11
f 73/8/11 75/5/11 77/2/11
f 72/7/11 76/3/11 78/4/11
f 77/2/11 75/5/11 79/1/11
f 78/4/11 76/3/11 79/1/11
f 77/2/11 79/1/11 76/3/11
f 77/2/11 76/3/11 80/1/11
f 65/1/2 82/2/12 81/1/2
f 82/2/12 65/1/2 66/2/12
f 84/1/5 76/3/13 83/3/13
f 76/3/13 84/1/5 80/1/5
f 82/2/14 85/3/14 81/1/14
f 85/3/14 82/2/14 86/1/14
f 86/1/14 82/2/14 87/5/14
f 88/4/14 85/3/14 86/1/14
f 87/5/14 82/2/14 89/8/14
f 87/5/14 89/8/14 90/9/14
f 85/3/14 88/4/14 91/6/14
f 91/6/14 88/4/14 92/7/14
f 91/6/14 92/7/14 93/4/14
f 90/9/14 89/8/14 94/2/14
f 91/6/14 93/4/14 83/3/14
f 90/9/14 94/2/14 95/5/14
f 83/3/14 93/4/14 96/1/14
f 95/5/14 94/2/14 96/1/14
f 83/3/14 96/1/14 94/2/14
f 83/3/14 94/2/14 84/1/14
f 82/2/12 73/8/15 89/8/15
f 73/8/15 82/2/12 66/2/12
f 76/3/13 91/6/16 83/3/13
f 91/6/16 76/3/13 71/6/16
f 73/8/15 94/2/17 89/8/15
f 94/2/17 73/8/15 77/2/17
f 91/6/16 67/3/18 85/3/18
f 67/3/18 91/6/16 71/6/16
f 94/2/17 80/1/5 84/1/5
f 80/1/5 94/2/17 77/2/17
f 67/3/18 81/1/2 85/3/18
f 81/1/2 67/3/18 65/1/2
f 74/9/16 87/5/13 90/9/16
f 87/5/13 74/9/16 70/5/13
f 87/5/13 68/1/5 86/1/5
f 68/1/5 87/5/13 70/5/13
f 86/1/5 69/4/17 88/4/17
f 69/4/17 86/1/5 68/1/5
f 69/4/17 92/7/15 88/4/17
f 92/7/15 69/4/17 72/7/15
f 92/7/15 78/4/12 93/4/12
f 78/4/12 92/7/15 72/7/15
f 78/4/12 96/1/2 93/4/12
f 96/1/2 78/4/12 79/1/2
f 79/1/2 95/5/18 96/1/2
f 95/5/18 79/1/2 75/5/18
f 95/5/18 74/9/16 90/9/16
f 74/9/16 95/5/18 75/5/18

usemtl material-glass

f 99/10/20 98/10/19 97/10/19
f 98/10/19 99/10/20 100/10/21
f 97/10/23 98/10/23 99/10/22
f 100/10/24 99/10/22 98/10/23
f 103/10/9 102/10/25 101/10/5
f 102/10/25 103/10/9 104/10/26
f 99/10/27 105/10/5 102/10/25
f 105/10/5 99/10/27 106/10/9
f 101/10/2 102/10/28 103/10/10
f 104/10/29 103/10/10 102/10/28
f 102/10/28 105/10/2 99/10/30
f 106/10/10 99/10/30 105/10/2
f 107/10/5 99/10/20 102/10/31
f 99/10/20 107/10/5 100/10/21
f 102/10/32 99/10/22 107/10/2
f 100/10/24 107/10/2 99/10/22
f 110/10/34 109/10/2 108/10/33
f 109/10/2 110/10/34 111/10/35
f 108/10/37 109/10/5 110/10/36
f 111/10/38 110/10/36 109/10/5
f 114/10/4 113/10/8 112/10/4
f 113/10/8 114/10/4 115/10/8
f 112/10/3 113/10/7 114/10/3
f 115/10/7 114/10/3 113/10/7
f 116/10/7 104/10/26 103/10/9
f 104/10/26 116/10/7 117/10/7
f 103/10/10 104/10/29 116/10/8
f 117/10/8 116/10/8 104/10/29
f 120/10/10 119/10/2 118/10/10
f 119/10/2 120/10/10 121/10/2
f 119/10/2 121/10/2 108/10/2
f 118/10/9 119/10/5 120/10/9
f 121/10/5 120/10/9 119/10/5
f 108/10/5 121/10/5 119/10/5
f 115/10/8 118/10/10 113/10/8
f 118/10/10 115/10/8 120/10/10
f 113/10/7 118/10/9 115/10/7
f 120/10/9 115/10/7 118/10/9
f 123/10/24 117/10/23 122/10/39
f 117/10/23 123/10/24 124/10/23
f 122/10/40 117/10/19 123/10/21
f 124/10/19 123/10/21 117/10/19
f 97/10/19 111/10/35 110/10/34
f 111/10/35 97/10/19 98/10/19
f 110/10/36 111/10/38 97/10/23
f 98/10/23 97/10/23 111/10/38
f 101/10/5 114/10/4 112/10/4
f 114/10/4 101/10/5 105/10/5
f 105/10/5 101/10/5 102/10/25
f 112/10/3 114/10/3 101/10/2
f 105/10/2 101/10/2 114/10/3
f 102/10/28 101/10/2 105/10/2
f 109/10/2 122/10/39 108/10/33
f 122/10/39 109/10/2 123/10/24
f 108/10/37 122/10/40 109/10/5
f 123/10/21 109/10/5 122/10/40
f 125/10/3 97/10/7 110/10/41
f 97/10/7 125/10/3 126/10/7
f 110/10/42 97/10/8 125/10/4
f 126/10/8 125/10/4 97/10/8
f 127/10/3 117/10/7 116/10/7
f 117/10/7 127/10/3 122/10/43
f 116/10/8 117/10/8 127/10/4
f 122/10/44 127/10/4 117/10/8
f 104/10/45 107/10/5 102/10/31
f 107/10/5 104/10/45 128/10/38
f 102/10/32 107/10/2 104/10/46
f 128/10/35 104/10/46 107/10/2
f 97/10/7 106/10/9 99/10/27
f 106/10/9 97/10/7 126/10/7
f 99/10/30 106/10/10 97/10/8
f 126/10/8 97/10/8 106/10/10
f 110/10/41 121/10/2 125/10/3
f 121/10/2 110/10/41 108/10/47
f 108/10/47 127/10/3 119/10/2
f 127/10/3 108/10/47 122/10/43
f 125/10/4 121/10/5 110/10/42
f 108/10/48 110/10/42 121/10/5
f 119/10/5 127/10/4 108/10/48
f 122/10/44 108/10/48 127/10/4
f 124/10/23 104/10/45 117/10/23
f 104/10/45 124/10/23 128/10/38
f 117/10/19 104/10/46 124/10/19
f 128/10/35 124/10/19 104/10/46

