# Created by Kenney (www.kenney.nl)

mtllib pipe-glass-large-curve.mtl

g pipe-glass-large-curve

v 0.4 0.5 -0.5 1 1 1
v 0.4 0.8535534 -0.3535534 1 1 1
v 0.4 0.1464466 -0.3535534 1 1 1
v 0.4 0.5 -0.3376411 1 1 1
v 0.4 0.2612516 -0.2387484 1 1 1
v 0.4 0.7387484 -0.2387484 1 1 1
v 0.4 1.461871E-14 1.443823E-15 1 1 1
v 0.4 0.1623588 1.443823E-15 1 1 1
v 0.4 1 1.443823E-15 1 1 1
v 0.4 0.8376412 1.443823E-15 1 1 1
v 0.4 0.7387484 0.2387484 1 1 1
v 0.4 0.1464466 0.3535534 1 1 1
v 0.4 0.8535534 0.3535534 1 1 1
v 0.4 0.2612516 0.2387484 1 1 1
v 0.4 0.5 0.3376411 1 1 1
v 0.4 0.5 0.5 1 1 1
v 0.5 0.5 -0.5 1 1 1
v 0.5 0.8535534 -0.3535534 1 1 1
v 0.5 0.1464466 0.3535534 1 1 1
v 0.5 0.5 0.5 1 1 1
v 0.5 0.1464466 -0.3535534 1 1 1
v 0.5 0.5 -0.3376411 1 1 1
v 0.5 0.7387484 -0.2387484 1 1 1
v 0.5 0.2612516 -0.2387484 1 1 1
v 0.5 1 1.443823E-15 1 1 1
v 0.5 0.8376412 1.443823E-15 1 1 1
v 0.5 -8.121503E-16 1.443823E-15 1 1 1
v 0.5 0.1623588 1.443823E-15 1 1 1
v 0.5 0.2612516 0.2387484 1 1 1
v 0.5 0.8535534 0.3535534 1 1 1
v 0.5 0.7387484 0.2387484 1 1 1
v 0.5 0.5 0.3376411 1 1 1
v -0.2949747 0.4997608 -0.7464466 1 1 1
v -0.3985281 0.8533142 -0.6428932 1 1 1
v -0.3985281 0.1462074 -0.6428932 1 1 1
v -0.4097798 0.4997608 -0.6316416 1 1 1
v -0.4797075 0.2610124 -0.5617138 1 1 1
v -0.4797075 0.7385092 -0.5617138 1 1 1
v -0.6485281 -0.0002392196 -0.3928932 1 1 1
v -0.6485281 0.1621196 -0.3928932 1 1 1
v -0.8173487 0.2610124 -0.2240726 1 1 1
v -0.6485281 0.9997608 -0.3928932 1 1 1
v -0.6485281 0.837402 -0.3928932 1 1 1
v -0.8173487 0.7385092 -0.2240726 1 1 1
v -0.8985281 0.1462074 -0.1428932 1 1 1
v -0.8985281 0.8533142 -0.1428932 1 1 1
v -0.8872764 0.4997608 -0.1541449 1 1 1
v -1.002082 0.4997608 -0.03933978 1 1 1
v -0.224264 0.4997608 -0.675736 1 1 1
v -0.3278174 0.8533142 -0.5721825 1 1 1
v -0.8278174 0.1462074 -0.07218254 1 1 1
v -0.9313708 0.4997608 0.03137088 1 1 1
v -0.8278174 0.8533142 -0.07218254 1 1 1
v -0.8165658 0.4997608 -0.08343416 1 1 1
v -0.746638 0.2610124 -0.1533619 1 1 1
v -0.746638 0.7385092 -0.1533619 1 1 1
v -0.5778174 -0.00023922 -0.3221825 1 1 1
v -0.5778174 0.1621196 -0.3221825 1 1 1
v -0.4089969 0.2610124 -0.4910031 1 1 1
v -0.5778174 0.9997608 -0.3221825 1 1 1
v -0.5778174 0.837402 -0.3221825 1 1 1
v -0.4089969 0.7385092 -0.4910031 1 1 1
v -0.3278174 0.1462074 -0.5721825 1 1 1
v -0.3390691 0.4997608 -0.5609308 1 1 1
v 0.1863827 0.2228141 0.2771859 1 1 1
v -0.06893729 0.2228141 0.252039 1 1 1
v 0.1807423 0.5 0.392 1 1 1
v -0.09144479 0.5 0.3651919 1 1 1
v -0.1922899 0.5 -0.5128965 1 1 1
v -0.2563859 0.7771858 -0.4169702 1 1 1
v -0.2992904 0.5 -0.6007096 1 1 1
v -0.3808691 0.7771858 -0.5191309 1 1 1
v 0.2192577 0.5 -0.392 1 1 1
v 0.2136173 0.7771858 -0.2771859 1 1 1
v 0.06224608 0.5 -0.4074643 1 1 1
v 0.0397386 0.7771858 -0.2943114 1 1 1
v 0.2 0.108 0 1 1 1
v -0.01459935 0.108 -0.02113619 1 1 1
v -0.01459935 0.892 -0.02113619 1 1 1
v -0.06893729 0.7771858 0.252039 1 1 1
v -0.2209518 0.892 -0.08373251 1 1 1
v -0.3275394 0.7771858 0.1735929 1 1 1
v -0.2563859 0.2228141 -0.4169702 1 1 1
v -0.3808691 0.2228141 -0.5191309 1 1 1
v -0.07021402 0.5 -0.4476456 1 1 1
v -0.1143641 0.7771858 -0.341058 1 1 1
v -0.3716895 0.5 0.2801806 1 1 1
v 0.4 0.5 0.392 1 1 1
v 0.4 0.7771858 0.2771859 1 1 1
v 0.1863827 0.7771858 0.2771859 1 1 1
v 0.2136173 0.2228141 -0.2771859 1 1 1
v 0.0397386 0.2228141 -0.2943114 1 1 1
v -0.4111272 0.892 -0.1853834 1 1 1
v -0.5658686 0.7771858 0.04620335 1 1 1
v -0.5778174 0.892 -0.3221825 1 1 1
v -0.7747658 0.7771858 -0.1252342 1 1 1
v -0.5658686 0.2228141 0.04620335 1 1 1
v -0.7747658 0.2228141 -0.1252342 1 1 1
v -0.6299645 0.5 0.1421297 1 1 1
v -0.8563445 0.5 -0.04365549 1 1 1
v 0.4 0.5 -0.392 1 1 1
v 0.4 0.7771858 -0.2771859 1 1 1
v 0.4 0.892 0 1 1 1
v 0.2 0.892 0 1 1 1
v -0.4111272 0.108 -0.1853834 1 1 1
v -0.5778174 0.108 -0.3221825 1 1 1
v -0.3275394 0.2228141 0.1735929 1 1 1
v -0.2209518 0.108 -0.08373251 1 1 1
v 0.4 0.108 0 1 1 1
v 0.4 0.2228141 -0.2771859 1 1 1
v -0.1143641 0.2228141 -0.341058 1 1 1
v 0.4 0.2228141 0.2771859 1 1 1

vn -1 0 0
vn 0 0 -1
vn 0 0.7071068 -0.7071068
vn 0 -0.7071068 0.7071068
vn 0 0 1
vn 1 0 0
vn 0 1 0
vn 0 -1 0
vn 0 0.7071068 0.7071068
vn 0 -0.7071068 -0.7071068
vn -0.7071068 4.363713E-09 -0.7071068
vn 0.7071068 -1.053561E-08 -0.7071068
vn 0.5 0.7071068 -0.5
vn -0.5 -0.7071068 0.5
vn -0.7071068 1.053561E-08 0.7071068
vn 0.7071068 -4.363713E-09 0.7071068
vn 1.053541E-08 1 -4.36419E-09
vn -1.053541E-08 -1 4.36419E-09
vn -0.5 0.7071068 0.5
vn 0.5 -0.7071068 -0.5
vn -0.03497006 -0.7014787 0.7118319
vn -0.1399773 -0.6965584 0.7037136
vn -0.04906768 0 0.9987955
vn -0.1950903 0 0.9807853
vn 0.04906768 0 -0.9987955
vn 0.1399773 0.6965584 -0.7037136
vn 0.03497006 0.7014787 -0.7118319
vn 0.1950903 0 -0.9807853
vn 0.5555702 0 -0.8314696
vn 0.3852886 0.7204555 -0.5766252
vn 0.6343933 0 -0.7730104
vn 0.4410536 0.7187808 -0.5374253
vn -0.6343933 0 0.7730104
vn -0.3852886 -0.7204555 0.5766252
vn -0.5555702 0 0.8314696
vn -0.4410536 -0.7187808 0.5374253
vn 0.03438276 0.713435 -0.6998773
vn 0.1352954 0.7204555 -0.6801758
vn -0.03438276 -0.713435 0.6998773
vn -0.1352954 -0.7204555 0.6801758
vn -0.0005861136 -0.9999287 0.01193062
vn -0.004644512 -0.9997166 0.02334953
vn 0.004644512 0.9997166 -0.02334953
vn 0.0005861136 0.9999287 -0.01193062
vn -0.004644512 0.9997166 0.02334953
vn -0.1399773 0.6965584 0.7037136
vn -0.009110537 0.9997166 0.02199478
vn -0.2745754 0.6965583 0.6628836
vn 0.009110537 -0.9997166 -0.02199478
vn 0.1399773 -0.6965584 -0.7037136
vn 0.004644512 -0.9997166 -0.02334953
vn 0.2745754 -0.6965583 -0.6628836
vn 0.3852886 -0.7204555 -0.5766252
vn 0.4410536 -0.7187808 -0.5374253
vn -0.4410536 0.7187808 0.5374253
vn -0.3852886 0.7204555 0.5766252
vn 0.3826834 0 -0.9238795
vn 0.2653914 0.7204555 -0.6407115
vn -0.2653914 -0.7204555 0.6407115
vn -0.3826834 0 0.9238795
vn -0.03497006 0.7014787 0.7118319
vn 0.03497006 -0.7014787 -0.7118319
vn 0.03438276 -0.713435 -0.6998773
vn 0.1352954 -0.7204555 -0.6801758
vn -0.1352954 0.7204555 0.6801758
vn -0.03438276 0.713435 0.6998773
vn -0.01322645 0.9997166 0.01979478
vn -0.3986217 0.6965583 0.5965796
vn -0.01517602 0.9997138 0.01849204
vn -0.4562419 0.6948255 0.5559323
vn 0.01517602 -0.9997138 -0.01849204
vn 0.3986217 -0.6965583 -0.5965796
vn 0.01322645 -0.9997166 -0.01979478
vn 0.4562419 -0.6948255 -0.5559323
vn -0.3986217 -0.6965583 0.5965796
vn -0.4562419 -0.6948255 0.5559323
vn 0.4562419 0.6948255 -0.5559323
vn 0.3986217 0.6965583 -0.5965796
vn -0.0005861136 0.9999287 0.01193062
vn 0.0005861136 -0.9999287 -0.01193062
vn -0.01322645 -0.9997166 0.01979478
vn -0.01517602 -0.9997138 0.01849204
vn 0.01322645 0.9997166 -0.01979478
vn 0.01517602 0.9997138 -0.01849204
vn -0.2745754 -0.6965583 0.6628836
vn 0.2745754 0.6965583 -0.6628836
vn -0.009110537 -0.9997166 0.02199478
vn 0.009110537 0.9997166 -0.02199478
vn 0.2653914 -0.7204555 -0.6407115
vn -0.2653914 0.7204555 0.6407115

vt 0.09375 0.125
vt 0.09375 0.1603553
vt 0.09375 0.08964466
vt 0.09375 0.1011252
vt 0.09375 0.1488748
vt 0.09375 0.075
vt 0.09375 0.09123588
vt 0.09375 0.175
vt 0.09375 0.1587641
vt 0 0

usemtl colormap

f 3/3/1 2/2/1 1/1/1
f 2/2/1 3/3/1 4/1/1
f 4/1/1 3/3/1 5/4/1
f 6/5/1 2/2/1 4/1/1
f 5/4/1 3/3/1 7/6/1
f 5/4/1 7/6/1 8/7/1
f 2/2/1 6/5/1 9/8/1
f 9/8/1 6/5/1 10/9/1
f 9/8/1 10/9/1 11/5/1
f 8/7/1 7/6/1 12/3/1
f 9/8/1 11/5/1 13/2/1
f 8/7/1 12/3/1 14/4/1
f 13/2/1 11/5/1 15/1/1
f 14/4/1 12/3/1 15/1/1
f 13/2/1 15/1/1 12/3/1
f 13/2/1 12/3/1 16/1/1
f 1/1/2 18/2/3 17/1/2
f 18/2/3 1/1/2 2/2/3
f 20/1/5 12/3/4 19/3/4
f 12/3/4 20/1/5 16/1/5
f 18/2/6 21/3/6 17/1/6
f 21/3/6 18/2/6 22/1/6
f 22/1/6 18/2/6 23/5/6
f 24/4/6 21/3/6 22/1/6
f 23/5/6 18/2/6 25/8/6
f 23/5/6 25/8/6 26/9/6
f 21/3/6 24/4/6 27/6/6
f 27/6/6 24/4/6 28/7/6
f 27/6/6 28/7/6 29/4/6
f 26/9/6 25/8/6 30/2/6
f 27/6/6 29/4/6 19/3/6
f 26/9/6 30/2/6 31/5/6
f 19/3/6 29/4/6 32/1/6
f 31/5/6 30/2/6 32/1/6
f 19/3/6 32/1/6 30/2/6
f 19/3/6 30/2/6 20/1/6
f 18/2/3 9/8/7 25/8/7
f 9/8/7 18/2/3 2/2/3
f 12/3/4 27/6/8 19/3/4
f 27/6/8 12/3/4 7/6/8
f 9/8/7 30/2/9 25/8/7
f 30/2/9 9/8/7 13/2/9
f 27/6/8 3/3/10 21/3/10
f 3/3/10 27/6/8 7/6/8
f 30/2/9 16/1/5 20/1/5
f 16/1/5 30/2/9 13/2/9
f 3/3/10 17/1/2 21/3/10
f 17/1/2 3/3/10 1/1/2
f 10/9/8 23/5/4 26/9/8
f 23/5/4 10/9/8 6/5/4
f 23/5/4 4/1/5 22/1/5
f 4/1/5 23/5/4 6/5/4
f 22/1/5 5/4/9 24/4/9
f 5/4/9 22/1/5 4/1/5
f 5/4/9 28/7/7 24/4/9
f 28/7/7 5/4/9 8/7/7
f 28/7/7 14/4/3 29/4/3
f 14/4/3 28/7/7 8/7/7
f 14/4/3 32/1/2 29/4/3
f 32/1/2 14/4/3 15/1/2
f 15/1/2 31/5/10 32/1/2
f 31/5/10 15/1/2 11/5/10
f 31/5/10 10/9/8 26/9/8
f 10/9/8 31/5/10 11/5/10
f 35/3/11 34/2/11 33/1/11
f 34/2/11 35/3/11 36/1/11
f 36/1/11 35/3/11 37/4/11
f 38/5/11 34/2/11 36/1/11
f 37/4/11 35/3/11 39/6/11
f 37/4/11 39/6/11 40/7/11
f 40/7/11 39/6/11 41/4/11
f 34/2/11 38/5/11 42/8/11
f 42/8/11 38/5/11 43/9/11
f 42/8/11 43/9/11 44/5/11
f 41/4/11 39/6/11 45/3/11
f 42/8/11 44/5/11 46/2/11
f 41/4/11 45/3/11 47/1/11
f 46/2/11 44/5/11 47/1/11
f 46/2/11 47/1/11 45/3/11
f 46/2/11 45/3/11 48/1/11
f 33/1/12 50/2/13 49/1/12
f 50/2/13 33/1/12 34/2/13
f 52/1/15 45/3/14 51/3/14
f 45/3/14 52/1/15 48/1/15
f 51/3/16 53/2/16 52/1/16
f 54/1/16 53/2/16 51/3/16
f 51/3/16 55/4/16 54/1/16
f 56/5/16 53/2/16 54/1/16
f 57/6/16 55/4/16 51/3/16
f 57/6/16 58/7/16 55/4/16
f 57/6/16 59/4/16 58/7/16
f 56/5/16 60/8/16 53/2/16
f 61/9/16 60/8/16 56/5/16
f 62/5/16 60/8/16 61/9/16
f 63/3/16 59/4/16 57/6/16
f 62/5/16 50/2/16 60/8/16
f 63/3/16 64/1/16 59/4/16
f 50/2/16 62/5/16 64/1/16
f 63/3/16 50/2/16 64/1/16
f 50/2/16 63/3/16 49/1/16
f 50/2/13 42/8/17 60/8/17
f 42/8/17 50/2/13 34/2/13
f 45/3/14 57/6/18 51/3/14
f 57/6/18 45/3/14 39/6/18
f 42/8/17 53/2/19 60/8/17
f 53/2/19 42/8/17 46/2/19
f 57/6/18 35/3/20 63/3/20
f 35/3/20 57/6/18 39/6/18
f 53/2/19 48/1/15 52/1/15
f 48/1/15 53/2/19 46/2/19
f 35/3/20 49/1/12 63/3/20
f 49/1/12 35/3/20 33/1/12
f 43/9/18 62/5/14 61/9/18
f 62/5/14 43/9/18 38/5/14
f 62/5/14 36/1/15 64/1/15
f 36/1/15 62/5/14 38/5/14
f 64/1/15 37/4/19 59/4/19
f 37/4/19 64/1/15 36/1/15
f 37/4/19 58/7/17 59/4/19
f 58/7/17 37/4/19 40/7/17
f 58/7/17 41/4/13 55/4/13
f 41/4/13 58/7/17 40/7/17
f 41/4/13 54/1/12 55/4/13
f 54/1/12 41/4/13 47/1/12
f 47/1/12 56/5/20 54/1/12
f 56/5/20 47/1/12 44/5/20
f 56/5/20 43/9/18 61/9/18
f 43/9/18 56/5/20 44/5/20

usemtl material-glass

f 67/10/23 66/10/22 65/10/21
f 66/10/22 67/10/23 68/10/24
f 65/10/27 66/10/26 67/10/25
f 68/10/28 67/10/25 66/10/26
f 71/10/31 70/10/30 69/10/29
f 70/10/30 71/10/31 72/10/32
f 69/10/35 70/10/34 71/10/33
f 72/10/36 71/10/33 70/10/34
f 75/10/28 74/10/37 73/10/25
f 74/10/37 75/10/28 76/10/38
f 73/10/23 74/10/39 75/10/24
f 76/10/40 75/10/24 74/10/39
f 65/10/21 78/10/42 77/10/41
f 78/10/42 65/10/21 66/10/22
f 77/10/44 78/10/43 65/10/27
f 66/10/26 65/10/27 78/10/43
f 81/10/47 80/10/46 79/10/45
f 80/10/46 81/10/47 82/10/48
f 79/10/51 80/10/50 81/10/49
f 82/10/52 81/10/49 80/10/50
f 84/10/54 69/10/29 83/10/53
f 69/10/29 84/10/54 71/10/31
f 83/10/56 69/10/35 84/10/55
f 71/10/33 84/10/55 69/10/35
f 69/10/29 86/10/58 85/10/57
f 86/10/58 69/10/29 70/10/30
f 85/10/60 86/10/59 69/10/35
f 70/10/34 69/10/35 86/10/59
f 80/10/46 87/10/60 68/10/24
f 87/10/60 80/10/46 82/10/48
f 68/10/28 87/10/57 80/10/50
f 82/10/52 80/10/50 87/10/57
f 89/10/9 67/10/23 88/10/5
f 67/10/23 89/10/9 90/10/61
f 88/10/2 67/10/25 89/10/10
f 90/10/62 89/10/10 67/10/25
f 86/10/58 79/10/45 76/10/38
f 79/10/45 86/10/58 81/10/47
f 76/10/40 79/10/51 86/10/59
f 81/10/49 86/10/59 79/10/51
f 85/10/57 76/10/38 75/10/28
f 76/10/38 85/10/57 86/10/58
f 75/10/24 76/10/40 85/10/60
f 86/10/59 85/10/60 76/10/40
f 92/10/64 73/10/25 91/10/63
f 73/10/25 92/10/64 75/10/28
f 91/10/66 73/10/23 92/10/65
f 75/10/24 92/10/65 73/10/23
f 95/10/69 94/10/68 93/10/67
f 94/10/68 95/10/69 96/10/70
f 93/10/73 94/10/72 95/10/71
f 96/10/74 95/10/71 94/10/72
f 99/10/35 98/10/76 97/10/75
f 98/10/76 99/10/35 100/10/33
f 97/10/78 98/10/77 99/10/29
f 100/10/31 99/10/29 98/10/77
f 74/10/37 101/10/2 73/10/25
f 101/10/2 74/10/37 102/10/3
f 73/10/23 101/10/5 74/10/39
f 102/10/4 74/10/39 101/10/5
f 103/10/7 90/10/61 89/10/9
f 90/10/61 103/10/7 104/10/79
f 89/10/10 90/10/62 103/10/8
f 104/10/80 103/10/8 90/10/62
f 105/10/81 84/10/54 83/10/53
f 84/10/54 105/10/81 106/10/82
f 83/10/56 84/10/55 105/10/83
f 106/10/84 105/10/83 84/10/55
f 68/10/24 107/10/85 66/10/22
f 107/10/85 68/10/24 87/10/60
f 66/10/26 107/10/86 68/10/28
f 87/10/57 68/10/28 107/10/86
f 66/10/22 108/10/87 78/10/42
f 108/10/87 66/10/22 107/10/85
f 78/10/43 108/10/88 66/10/26
f 107/10/86 66/10/26 108/10/88
f 77/10/41 110/10/10 109/10/8
f 110/10/10 77/10/41 91/10/63
f 109/10/7 110/10/9 77/10/44
f 91/10/66 77/10/44 110/10/9
f 93/10/67 82/10/48 81/10/47
f 82/10/48 93/10/67 94/10/68
f 81/10/49 82/10/52 93/10/73
f 94/10/72 93/10/73 82/10/52
f 108/10/87 83/10/53 111/10/89
f 83/10/53 108/10/87 105/10/81
f 111/10/90 83/10/56 108/10/88
f 105/10/83 108/10/88 83/10/56
f 73/10/25 110/10/10 91/10/63
f 110/10/10 73/10/25 101/10/2
f 91/10/66 110/10/9 73/10/23
f 101/10/5 73/10/23 110/10/9
f 72/10/32 93/10/67 70/10/30
f 93/10/67 72/10/32 95/10/69
f 70/10/34 93/10/73 72/10/36
f 95/10/71 72/10/36 93/10/73
f 76/10/38 104/10/79 74/10/37
f 104/10/79 76/10/38 79/10/45
f 74/10/39 104/10/80 76/10/40
f 79/10/51 76/10/40 104/10/80
f 94/10/68 100/10/33 99/10/35
f 100/10/33 94/10/68 96/10/70
f 99/10/29 100/10/31 94/10/72
f 96/10/74 94/10/72 100/10/31
f 88/10/5 65/10/21 112/10/4
f 65/10/21 88/10/5 67/10/23
f 112/10/3 65/10/27 88/10/2
f 67/10/25 88/10/2 65/10/27
f 79/10/45 90/10/61 104/10/79
f 90/10/61 79/10/45 80/10/46
f 104/10/80 90/10/62 79/10/51
f 80/10/50 79/10/51 90/10/62
f 87/10/60 97/10/75 107/10/85
f 97/10/75 87/10/60 99/10/35
f 107/10/86 97/10/78 87/10/57
f 99/10/29 87/10/57 97/10/78
f 83/10/53 85/10/57 111/10/89
f 85/10/57 83/10/53 69/10/29
f 111/10/90 85/10/60 83/10/56
f 69/10/35 83/10/56 85/10/60
f 78/10/42 111/10/89 92/10/64
f 111/10/89 78/10/42 108/10/87
f 92/10/65 111/10/90 78/10/43
f 108/10/88 78/10/43 111/10/90
f 70/10/30 81/10/47 86/10/58
f 81/10/47 70/10/30 93/10/67
f 86/10/59 81/10/49 70/10/34
f 93/10/73 70/10/34 81/10/49
f 65/10/21 109/10/8 112/10/4
f 109/10/8 65/10/21 77/10/41
f 112/10/3 109/10/7 65/10/27
f 77/10/44 65/10/27 109/10/7
f 107/10/85 105/10/81 108/10/87
f 105/10/81 107/10/85 97/10/75
f 108/10/88 105/10/83 107/10/86
f 97/10/78 107/10/86 105/10/83
f 77/10/41 92/10/64 91/10/63
f 92/10/64 77/10/41 78/10/42
f 91/10/66 92/10/65 77/10/44
f 78/10/43 77/10/44 92/10/65
f 82/10/48 99/10/35 87/10/60
f 99/10/35 82/10/48 94/10/68
f 87/10/57 99/10/29 82/10/52
f 94/10/72 82/10/52 99/10/29
f 90/10/61 68/10/24 67/10/23
f 68/10/24 90/10/61 80/10/46
f 67/10/25 68/10/28 90/10/62
f 80/10/50 90/10/62 68/10/28
f 102/10/3 104/10/79 103/10/7
f 104/10/79 102/10/3 74/10/37
f 103/10/8 104/10/80 102/10/4
f 74/10/39 102/10/4 104/10/80
f 111/10/89 75/10/28 92/10/64
f 75/10/28 111/10/89 85/10/57
f 92/10/65 75/10/24 111/10/90
f 85/10/60 111/10/90 75/10/24
f 97/10/75 106/10/82 105/10/81
f 106/10/82 97/10/75 98/10/76
f 105/10/83 106/10/84 97/10/78
f 98/10/77 97/10/78 106/10/84

g pipe-glass-large-curve




usemtl colormap

f 3/3/1 2/2/1 1/1/1
f 2/2/1 3/3/1 4/1/1
f 4/1/1 3/3/1 5/4/1
f 6/5/1 2/2/1 4/1/1
f 5/4/1 3/3/1 7/6/1
f 5/4/1 7/6/1 8/7/1
f 2/2/1 6/5/1 9/8/1
f 9/8/1 6/5/1 10/9/1
f 9/8/1 10/9/1 11/5/1
f 8/7/1 7/6/1 12/3/1
f 9/8/1 11/5/1 13/2/1
f 8/7/1 12/3/1 14/4/1
f 13/2/1 11/5/1 15/1/1
f 14/4/1 12/3/1 15/1/1
f 13/2/1 15/1/1 12/3/1
f 13/2/1 12/3/1 16/1/1
f 1/1/2 18/2/3 17/1/2
f 18/2/3 1/1/2 2/2/3
f 20/1/5 12/3/4 19/3/4
f 12/3/4 20/1/5 16/1/5
f 18/2/6 21/3/6 17/1/6
f 21/3/6 18/2/6 22/1/6
f 22/1/6 18/2/6 23/5/6
f 24/4/6 21/3/6 22/1/6
f 23/5/6 18/2/6 25/8/6
f 23/5/6 25/8/6 26/9/6
f 21/3/6 24/4/6 27/6/6
f 27/6/6 24/4/6 28/7/6
f 27/6/6 28/7/6 29/4/6
f 26/9/6 25/8/6 30/2/6
f 27/6/6 29/4/6 19/3/6
f 26/9/6 30/2/6 31/5/6
f 19/3/6 29/4/6 32/1/6
f 31/5/6 30/2/6 32/1/6
f 19/3/6 32/1/6 30/2/6
f 19/3/6 30/2/6 20/1/6
f 18/2/3 9/8/7 25/8/7
f 9/8/7 18/2/3 2/2/3
f 12/3/4 27/6/8 19/3/4
f 27/6/8 12/3/4 7/6/8
f 9/8/7 30/2/9 25/8/7
f 30/2/9 9/8/7 13/2/9
f 27/6/8 3/3/10 21/3/10
f 3/3/10 27/6/8 7/6/8
f 30/2/9 16/1/5 20/1/5
f 16/1/5 30/2/9 13/2/9
f 3/3/10 17/1/2 21/3/10
f 17/1/2 3/3/10 1/1/2
f 10/9/8 23/5/4 26/9/8
f 23/5/4 10/9/8 6/5/4
f 23/5/4 4/1/5 22/1/5
f 4/1/5 23/5/4 6/5/4
f 22/1/5 5/4/9 24/4/9
f 5/4/9 22/1/5 4/1/5
f 5/4/9 28/7/7 24/4/9
f 28/7/7 5/4/9 8/7/7
f 28/7/7 14/4/3 29/4/3
f 14/4/3 28/7/7 8/7/7
f 14/4/3 32/1/2 29/4/3
f 32/1/2 14/4/3 15/1/2
f 15/1/2 31/5/10 32/1/2
f 31/5/10 15/1/2 11/5/10
f 31/5/10 10/9/8 26/9/8
f 10/9/8 31/5/10 11/5/10
f 35/3/11 34/2/11 33/1/11
f 34/2/11 35/3/11 36/1/11
f 36/1/11 35/3/11 37/4/11
f 38/5/11 34/2/11 36/1/11
f 37/4/11 35/3/11 39/6/11
f 37/4/11 39/6/11 40/7/11
f 40/7/11 39/6/11 41/4/11
f 34/2/11 38/5/11 42/8/11
f 42/8/11 38/5/11 43/9/11
f 42/8/11 43/9/11 44/5/11
f 41/4/11 39/6/11 45/3/11
f 42/8/11 44/5/11 46/2/11
f 41/4/11 45/3/11 47/1/11
f 46/2/11 44/5/11 47/1/11
f 46/2/11 47/1/11 45/3/11
f 46/2/11 45/3/11 48/1/11
f 33/1/12 50/2/13 49/1/12
f 50/2/13 33/1/12 34/2/13
f 52/1/15 45/3/14 51/3/14
f 45/3/14 52/1/15 48/1/15
f 51/3/16 53/2/16 52/1/16
f 54/1/16 53/2/16 51/3/16
f 51/3/16 55/4/16 54/1/16
f 56/5/16 53/2/16 54/1/16
f 57/6/16 55/4/16 51/3/16
f 57/6/16 58/7/16 55/4/16
f 57/6/16 59/4/16 58/7/16
f 56/5/16 60/8/16 53/2/16
f 61/9/16 60/8/16 56/5/16
f 62/5/16 60/8/16 61/9/16
f 63/3/16 59/4/16 57/6/16
f 62/5/16 50/2/16 60/8/16
f 63/3/16 64/1/16 59/4/16
f 50/2/16 62/5/16 64/1/16
f 63/3/16 50/2/16 64/1/16
f 50/2/16 63/3/16 49/1/16
f 50/2/13 42/8/17 60/8/17
f 42/8/17 50/2/13 34/2/13
f 45/3/14 57/6/18 51/3/14
f 57/6/18 45/3/14 39/6/18
f 42/8/17 53/2/19 60/8/17
f 53/2/19 42/8/17 46/2/19
f 57/6/18 35/3/20 63/3/20
f 35/3/20 57/6/18 39/6/18
f 53/2/19 48/1/15 52/1/15
f 48/1/15 53/2/19 46/2/19
f 35/3/20 49/1/12 63/3/20
f 49/1/12 35/3/20 33/1/12
f 43/9/18 62/5/14 61/9/18
f 62/5/14 43/9/18 38/5/14
f 62/5/14 36/1/15 64/1/15
f 36/1/15 62/5/14 38/5/14
f 64/1/15 37/4/19 59/4/19
f 37/4/19 64/1/15 36/1/15
f 37/4/19 58/7/17 59/4/19
f 58/7/17 37/4/19 40/7/17
f 58/7/17 41/4/13 55/4/13
f 41/4/13 58/7/17 40/7/17
f 41/4/13 54/1/12 55/4/13
f 54/1/12 41/4/13 47/1/12
f 47/1/12 56/5/20 54/1/12
f 56/5/20 47/1/12 44/5/20
f 56/5/20 43/9/18 61/9/18
f 43/9/18 56/5/20 44/5/20

usemtl material-glass

f 67/10/23 66/10/22 65/10/21
f 66/10/22 67/10/23 68/10/24
f 65/10/27 66/10/26 67/10/25
f 68/10/28 67/10/25 66/10/26
f 71/10/31 70/10/30 69/10/29
f 70/10/30 71/10/31 72/10/32
f 69/10/35 70/10/34 71/10/33
f 72/10/36 71/10/33 70/10/34
f 75/10/28 74/10/37 73/10/25
f 74/10/37 75/10/28 76/10/38
f 73/10/23 74/10/39 75/10/24
f 76/10/40 75/10/24 74/10/39
f 65/10/21 78/10/42 77/10/41
f 78/10/42 65/10/21 66/10/22
f 77/10/44 78/10/43 65/10/27
f 66/10/26 65/10/27 78/10/43
f 81/10/47 80/10/46 79/10/45
f 80/10/46 81/10/47 82/10/48
f 79/10/51 80/10/50 81/10/49
f 82/10/52 81/10/49 80/10/50
f 84/10/54 69/10/29 83/10/53
f 69/10/29 84/10/54 71/10/31
f 83/10/56 69/10/35 84/10/55
f 71/10/33 84/10/55 69/10/35
f 69/10/29 86/10/58 85/10/57
f 86/10/58 69/10/29 70/10/30
f 85/10/60 86/10/59 69/10/35
f 70/10/34 69/10/35 86/10/59
f 80/10/46 87/10/60 68/10/24
f 87/10/60 80/10/46 82/10/48
f 68/10/28 87/10/57 80/10/50
f 82/10/52 80/10/50 87/10/57
f 89/10/9 67/10/23 88/10/5
f 67/10/23 89/10/9 90/10/61
f 88/10/2 67/10/25 89/10/10
f 90/10/62 89/10/10 67/10/25
f 86/10/58 79/10/45 76/10/38
f 79/10/45 86/10/58 81/10/47
f 76/10/40 79/10/51 86/10/59
f 81/10/49 86/10/59 79/10/51
f 85/10/57 76/10/38 75/10/28
f 76/10/38 85/10/57 86/10/58
f 75/10/24 76/10/40 85/10/60
f 86/10/59 85/10/60 76/10/40
f 92/10/64 73/10/25 91/10/63
f 73/10/25 92/10/64 75/10/28
f 91/10/66 73/10/23 92/10/65
f 75/10/24 92/10/65 73/10/23
f 95/10/69 94/10/68 93/10/67
f 94/10/68 95/10/69 96/10/70
f 93/10/73 94/10/72 95/10/71
f 96/10/74 95/10/71 94/10/72
f 99/10/35 98/10/76 97/10/75
f 98/10/76 99/10/35 100/10/33
f 97/10/78 98/10/77 99/10/29
f 100/10/31 99/10/29 98/10/77
f 74/10/37 101/10/2 73/10/25
f 101/10/2 74/10/37 102/10/3
f 73/10/23 101/10/5 74/10/39
f 102/10/4 74/10/39 101/10/5
f 103/10/7 90/10/61 89/10/9
f 90/10/61 103/10/7 104/10/79
f 89/10/10 90/10/62 103/10/8
f 104/10/80 103/10/8 90/10/62
f 105/10/81 84/10/54 83/10/53
f 84/10/54 105/10/81 106/10/82
f 83/10/56 84/10/55 105/10/83
f 106/10/84 105/10/83 84/10/55
f 68/10/24 107/10/85 66/10/22
f 107/10/85 68/10/24 87/10/60
f 66/10/26 107/10/86 68/10/28
f 87/10/57 68/10/28 107/10/86
f 66/10/22 108/10/87 78/10/42
f 108/10/87 66/10/22 107/10/85
f 78/10/43 108/10/88 66/10/26
f 107/10/86 66/10/26 108/10/88
f 77/10/41 110/10/10 109/10/8
f 110/10/10 77/10/41 91/10/63
f 109/10/7 110/10/9 77/10/44
f 91/10/66 77/10/44 110/10/9
f 93/10/67 82/10/48 81/10/47
f 82/10/48 93/10/67 94/10/68
f 81/10/49 82/10/52 93/10/73
f 94/10/72 93/10/73 82/10/52
f 108/10/87 83/10/53 111/10/89
f 83/10/53 108/10/87 105/10/81
f 111/10/90 83/10/56 108/10/88
f 105/10/83 108/10/88 83/10/56
f 73/10/25 110/10/10 91/10/63
f 110/10/10 73/10/25 101/10/2
f 91/10/66 110/10/9 73/10/23
f 101/10/5 73/10/23 110/10/9
f 72/10/32 93/10/67 70/10/30
f 93/10/67 72/10/32 95/10/69
f 70/10/34 93/10/73 72/10/36
f 95/10/71 72/10/36 93/10/73
f 76/10/38 104/10/79 74/10/37
f 104/10/79 76/10/38 79/10/45
f 74/10/39 104/10/80 76/10/40
f 79/10/51 76/10/40 104/10/80
f 94/10/68 100/10/33 99/10/35
f 100/10/33 94/10/68 96/10/70
f 99/10/29 100/10/31 94/10/72
f 96/10/74 94/10/72 100/10/31
f 88/10/5 65/10/21 112/10/4
f 65/10/21 88/10/5 67/10/23
f 112/10/3 65/10/27 88/10/2
f 67/10/25 88/10/2 65/10/27
f 79/10/45 90/10/61 104/10/79
f 90/10/61 79/10/45 80/10/46
f 104/10/80 90/10/62 79/10/51
f 80/10/50 79/10/51 90/10/62
f 87/10/60 97/10/75 107/10/85
f 97/10/75 87/10/60 99/10/35
f 107/10/86 97/10/78 87/10/57
f 99/10/29 87/10/57 97/10/78
f 83/10/53 85/10/57 111/10/89
f 85/10/57 83/10/53 69/10/29
f 111/10/90 85/10/60 83/10/56
f 69/10/35 83/10/56 85/10/60
f 78/10/42 111/10/89 92/10/64
f 111/10/89 78/10/42 108/10/87
f 92/10/65 111/10/90 78/10/43
f 108/10/88 78/10/43 111/10/90
f 70/10/30 81/10/47 86/10/58
f 81/10/47 70/10/30 93/10/67
f 86/10/59 81/10/49 70/10/34
f 93/10/73 70/10/34 81/10/49
f 65/10/21 109/10/8 112/10/4
f 109/10/8 65/10/21 77/10/41
f 112/10/3 109/10/7 65/10/27
f 77/10/44 65/10/27 109/10/7
f 107/10/85 105/10/81 108/10/87
f 105/10/81 107/10/85 97/10/75
f 108/10/88 105/10/83 107/10/86
f 97/10/78 107/10/86 105/10/83
f 77/10/41 92/10/64 91/10/63
f 92/10/64 77/10/41 78/10/42
f 91/10/66 92/10/65 77/10/44
f 78/10/43 77/10/44 92/10/65
f 82/10/48 99/10/35 87/10/60
f 99/10/35 82/10/48 94/10/68
f 87/10/57 99/10/29 82/10/52
f 94/10/72 82/10/52 99/10/29
f 90/10/61 68/10/24 67/10/23
f 68/10/24 90/10/61 80/10/46
f 67/10/25 68/10/28 90/10/62
f 80/10/50 90/10/62 68/10/28
f 102/10/3 104/10/79 103/10/7
f 104/10/79 102/10/3 74/10/37
f 103/10/8 104/10/80 102/10/4
f 74/10/39 102/10/4 104/10/80
f 111/10/89 75/10/28 92/10/64
f 75/10/28 111/10/89 85/10/57
f 92/10/65 75/10/24 111/10/90
f 85/10/60 111/10/90 75/10/24
f 97/10/75 106/10/82 105/10/81
f 106/10/82 97/10/75 98/10/76
f 105/10/83 106/10/84 97/10/78
f 98/10/77 97/10/78 106/10/84

