# Created by Kenney (www.kenney.nl)

mtllib pipe-glass-large.mtl

g pipe-glass-large

v -0.5 0.5 -0.5 1 1 1
v -0.5 0.8535534 -0.3535534 1 1 1
v -0.5 0.1464466 -0.3535534 1 1 1
v -0.5 0.5 -0.3376411 1 1 1
v -0.5 0.2612516 -0.2387484 1 1 1
v -0.5 0.7387484 -0.2387484 1 1 1
v -0.5 1.5106E-13 1.443823E-15 1 1 1
v -0.5 0.1623588 1.443823E-15 1 1 1
v -0.5 1 1.443823E-15 1 1 1
v -0.5 0.8376412 1.443823E-15 1 1 1
v -0.5 0.7387484 0.2387484 1 1 1
v -0.5 0.1464466 0.3535534 1 1 1
v -0.5 0.8535534 0.3535534 1 1 1
v -0.5 0.2612516 0.2387484 1 1 1
v -0.5 0.5 0.3376411 1 1 1
v -0.5 0.5 0.5 1 1 1
v -0.4 0.5 -0.5 1 1 1
v -0.4 0.8535534 -0.3535534 1 1 1
v -0.4 0.1464466 0.3535534 1 1 1
v -0.4 0.5 0.5 1 1 1
v -0.4 0.1464466 -0.3535534 1 1 1
v -0.4 0.5 -0.3376411 1 1 1
v -0.4 0.7387484 -0.2387484 1 1 1
v -0.4 0.2612516 -0.2387484 1 1 1
v -0.4 1 1.443823E-15 1 1 1
v -0.4 0.8376412 1.443823E-15 1 1 1
v -0.4 1.356291E-13 1.443823E-15 1 1 1
v -0.4 0.1623588 1.443823E-15 1 1 1
v -0.4 0.2612516 0.2387484 1 1 1
v -0.4 0.8535534 0.3535534 1 1 1
v -0.4 0.7387484 0.2387484 1 1 1
v -0.4 0.5 0.3376411 1 1 1
v 0.4 0.5 -0.5 1 1 1
v 0.4 0.8535534 -0.3535534 1 1 1
v 0.4 0.1464466 -0.3535534 1 1 1
v 0.4 0.5 -0.3376411 1 1 1
v 0.4 0.2612516 -0.2387484 1 1 1
v 0.4 0.7387484 -0.2387484 1 1 1
v 0.4 1.452847E-14 1.443823E-15 1 1 1
v 0.4 0.1623588 1.443823E-15 1 1 1
v 0.4 1 1.443823E-15 1 1 1
v 0.4 0.8376412 1.443823E-15 1 1 1
v 0.4 0.7387484 0.2387484 1 1 1
v 0.4 0.1464466 0.3535534 1 1 1
v 0.4 0.8535534 0.3535534 1 1 1
v 0.4 0.2612516 0.2387484 1 1 1
v 0.4 0.5 0.3376411 1 1 1
v 0.4 0.5 0.5 1 1 1
v 0.5 0.5 -0.5 1 1 1
v 0.5 0.8535534 -0.3535534 1 1 1
v 0.5 0.1464466 0.3535534 1 1 1
v 0.5 0.5 0.5 1 1 1
v 0.5 0.1464466 -0.3535534 1 1 1
v 0.5 0.5 -0.3376411 1 1 1
v 0.5 0.7387484 -0.2387484 1 1 1
v 0.5 0.2612516 -0.2387484 1 1 1
v 0.5 1 1.443823E-15 1 1 1
v 0.5 0.8376412 1.443823E-15 1 1 1
v 0.5 -9.023893E-16 1.443823E-15 1 1 1
v 0.5 0.1623588 1.443823E-15 1 1 1
v 0.5 0.2612516 0.2387484 1 1 1
v 0.5 0.8535534 0.3535534 1 1 1
v 0.5 0.7387484 0.2387484 1 1 1
v 0.5 0.5 0.3376411 1 1 1
v 0.4 0.8917608 -1.443823E-15 1 1 1
v -0.4 0.8917608 -1.443823E-15 1 1 1
v 0.4 0.7770167 0.2770167 1 1 1
v -0.4 0.7770167 0.2770167 1 1 1
v 0.4 0.2229833 -0.2770167 1 1 1
v 0.4 0.1082392 -1.443823E-15 1 1 1
v -0.4 0.2229833 -0.2770167 1 1 1
v -0.4 0.1082392 -1.443823E-15 1 1 1
v 0.4 0.2229833 0.2770167 1 1 1
v 0.4 0.5 0.3917608 1 1 1
v -0.4 0.2229833 0.2770167 1 1 1
v -0.4 0.5 0.3917608 1 1 1
v 0.4 0.5 -0.3917608 1 1 1
v -0.4 0.5 -0.3917608 1 1 1
v 0.4 0.7770167 -0.2770167 1 1 1
v -0.4 0.7770167 -0.2770167 1 1 1

vn -1 0 0
vn 0 0 -1
vn 0 0.7071068 -0.7071068
vn 0 -0.7071068 0.7071068
vn 0 0 1
vn 1 0 0
vn 0 1 0
vn 0 -1 0
vn 0 0.7071068 0.7071068
vn 0 -0.7071068 -0.7071068

vt 0.09375 0.125
vt 0.09375 0.1603553
vt 0.09375 0.08964466
vt 0.09375 0.1011252
vt 0.09375 0.1488748
vt 0.09375 0.075
vt 0.09375 0.09123588
vt 0.09375 0.175
vt 0.09375 0.1587641
vt 0 0

usemtl colormap

f 3/3/1 2/2/1 1/1/1
f 2/2/1 3/3/1 4/1/1
f 4/1/1 3/3/1 5/4/1
f 6/5/1 2/2/1 4/1/1
f 5/4/1 3/3/1 7/6/1
f 5/4/1 7/6/1 8/7/1
f 2/2/1 6/5/1 9/8/1
f 9/8/1 6/5/1 10/9/1
f 9/8/1 10/9/1 11/5/1
f 8/7/1 7/6/1 12/3/1
f 9/8/1 11/5/1 13/2/1
f 8/7/1 12/3/1 14/4/1
f 13/2/1 11/5/1 15/1/1
f 14/4/1 12/3/1 15/1/1
f 13/2/1 15/1/1 12/3/1
f 13/2/1 12/3/1 16/1/1
f 1/1/2 18/2/3 17/1/2
f 18/2/3 1/1/2 2/2/3
f 20/1/5 12/3/4 19/3/4
f 12/3/4 20/1/5 16/1/5
f 18/2/6 21/3/6 17/1/6
f 21/3/6 18/2/6 22/1/6
f 22/1/6 18/2/6 23/5/6
f 24/4/6 21/3/6 22/1/6
f 23/5/6 18/2/6 25/8/6
f 23/5/6 25/8/6 26/9/6
f 21/3/6 24/4/6 27/6/6
f 27/6/6 24/4/6 28/7/6
f 27/6/6 28/7/6 29/4/6
f 26/9/6 25/8/6 30/2/6
f 27/6/6 29/4/6 19/3/6
f 26/9/6 30/2/6 31/5/6
f 19/3/6 29/4/6 32/1/6
f 31/5/6 30/2/6 32/1/6
f 19/3/6 32/1/6 30/2/6
f 19/3/6 30/2/6 20/1/6
f 18/2/3 9/8/7 25/8/7
f 9/8/7 18/2/3 2/2/3
f 12/3/4 27/6/8 19/3/4
f 27/6/8 12/3/4 7/6/8
f 9/8/7 30/2/9 25/8/7
f 30/2/9 9/8/7 13/2/9
f 27/6/8 3/3/10 21/3/10
f 3/3/10 27/6/8 7/6/8
f 30/2/9 16/1/5 20/1/5
f 16/1/5 30/2/9 13/2/9
f 3/3/10 17/1/2 21/3/10
f 17/1/2 3/3/10 1/1/2
f 10/9/8 23/5/4 26/9/8
f 23/5/4 10/9/8 6/5/4
f 23/5/4 4/1/5 22/1/5
f 4/1/5 23/5/4 6/5/4
f 22/1/5 5/4/9 24/4/9
f 5/4/9 22/1/5 4/1/5
f 5/4/9 28/7/7 24/4/9
f 28/7/7 5/4/9 8/7/7
f 28/7/7 14/4/3 29/4/3
f 14/4/3 28/7/7 8/7/7
f 14/4/3 32/1/2 29/4/3
f 32/1/2 14/4/3 15/1/2
f 15/1/2 31/5/10 32/1/2
f 31/5/10 15/1/2 11/5/10
f 31/5/10 10/9/8 26/9/8
f 10/9/8 31/5/10 11/5/10
f 35/3/1 34/2/1 33/1/1
f 34/2/1 35/3/1 36/1/1
f 36/1/1 35/3/1 37/4/1
f 38/5/1 34/2/1 36/1/1
f 37/4/1 35/3/1 39/6/1
f 37/4/1 39/6/1 40/7/1
f 34/2/1 38/5/1 41/8/1
f 41/8/1 38/5/1 42/9/1
f 41/8/1 42/9/1 43/5/1
f 40/7/1 39/6/1 44/3/1
f 41/8/1 43/5/1 45/2/1
f 40/7/1 44/3/1 46/4/1
f 45/2/1 43/5/1 47/1/1
f 46/4/1 44/3/1 47/1/1
f 45/2/1 47/1/1 44/3/1
f 45/2/1 44/3/1 48/1/1
f 33/1/2 50/2/3 49/1/2
f 50/2/3 33/1/2 34/2/3
f 52/1/5 44/3/4 51/3/4
f 44/3/4 52/1/5 48/1/5
f 50/2/6 53/3/6 49/1/6
f 53/3/6 50/2/6 54/1/6
f 54/1/6 50/2/6 55/5/6
f 56/4/6 53/3/6 54/1/6
f 55/5/6 50/2/6 57/8/6
f 55/5/6 57/8/6 58/9/6
f 53/3/6 56/4/6 59/6/6
f 59/6/6 56/4/6 60/7/6
f 59/6/6 60/7/6 61/4/6
f 58/9/6 57/8/6 62/2/6
f 59/6/6 61/4/6 51/3/6
f 58/9/6 62/2/6 63/5/6
f 51/3/6 61/4/6 64/1/6
f 63/5/6 62/2/6 64/1/6
f 51/3/6 64/1/6 62/2/6
f 51/3/6 62/2/6 52/1/6
f 50/2/3 41/8/7 57/8/7
f 41/8/7 50/2/3 34/2/3
f 44/3/4 59/6/8 51/3/4
f 59/6/8 44/3/4 39/6/8
f 41/8/7 62/2/9 57/8/7
f 62/2/9 41/8/7 45/2/9
f 59/6/8 35/3/10 53/3/10
f 35/3/10 59/6/8 39/6/8
f 62/2/9 48/1/5 52/1/5
f 48/1/5 62/2/9 45/2/9
f 35/3/10 49/1/2 53/3/10
f 49/1/2 35/3/10 33/1/2
f 42/9/8 55/5/4 58/9/8
f 55/5/4 42/9/8 38/5/4
f 55/5/4 36/1/5 54/1/5
f 36/1/5 55/5/4 38/5/4
f 54/1/5 37/4/9 56/4/9
f 37/4/9 54/1/5 36/1/5
f 37/4/9 60/7/7 56/4/9
f 60/7/7 37/4/9 40/7/7
f 60/7/7 46/4/3 61/4/3
f 46/4/3 60/7/7 40/7/7
f 46/4/3 64/1/2 61/4/3
f 64/1/2 46/4/3 47/1/2
f 47/1/2 63/5/10 64/1/2
f 63/5/10 47/1/2 43/5/10
f 63/5/10 42/9/8 58/9/8
f 42/9/8 63/5/10 43/5/10

usemtl material-glass

f 75/10/3 70/10/7 72/10/7
f 70/10/7 75/10/3 73/10/3
f 72/10/8 70/10/8 75/10/4
f 73/10/4 75/10/4 70/10/8
f 71/10/9 77/10/5 78/10/5
f 77/10/5 71/10/9 69/10/9
f 78/10/2 77/10/2 71/10/10
f 69/10/10 71/10/10 77/10/2
f 79/10/4 66/10/8 80/10/4
f 66/10/8 79/10/4 65/10/8
f 80/10/3 66/10/7 79/10/3
f 65/10/7 79/10/3 66/10/7
f 67/10/10 76/10/2 68/10/10
f 76/10/2 67/10/10 74/10/2
f 68/10/9 76/10/5 67/10/9
f 74/10/5 67/10/9 76/10/5
f 78/10/5 79/10/4 80/10/4
f 79/10/4 78/10/5 77/10/5
f 80/10/3 79/10/3 78/10/2
f 77/10/2 78/10/2 79/10/3
f 74/10/2 75/10/3 76/10/2
f 75/10/3 74/10/2 73/10/3
f 76/10/5 75/10/4 74/10/5
f 73/10/4 74/10/5 75/10/4
f 70/10/7 71/10/9 72/10/7
f 71/10/9 70/10/7 69/10/9
f 72/10/8 71/10/10 70/10/8
f 69/10/10 70/10/8 71/10/10
f 66/10/8 67/10/10 68/10/10
f 67/10/10 66/10/8 65/10/8
f 68/10/9 67/10/9 66/10/7
f 65/10/7 66/10/7 67/10/9

g pipe-glass-large




usemtl colormap

f 3/3/1 2/2/1 1/1/1
f 2/2/1 3/3/1 4/1/1
f 4/1/1 3/3/1 5/4/1
f 6/5/1 2/2/1 4/1/1
f 5/4/1 3/3/1 7/6/1
f 5/4/1 7/6/1 8/7/1
f 2/2/1 6/5/1 9/8/1
f 9/8/1 6/5/1 10/9/1
f 9/8/1 10/9/1 11/5/1
f 8/7/1 7/6/1 12/3/1
f 9/8/1 11/5/1 13/2/1
f 8/7/1 12/3/1 14/4/1
f 13/2/1 11/5/1 15/1/1
f 14/4/1 12/3/1 15/1/1
f 13/2/1 15/1/1 12/3/1
f 13/2/1 12/3/1 16/1/1
f 1/1/2 18/2/3 17/1/2
f 18/2/3 1/1/2 2/2/3
f 20/1/5 12/3/4 19/3/4
f 12/3/4 20/1/5 16/1/5
f 18/2/6 21/3/6 17/1/6
f 21/3/6 18/2/6 22/1/6
f 22/1/6 18/2/6 23/5/6
f 24/4/6 21/3/6 22/1/6
f 23/5/6 18/2/6 25/8/6
f 23/5/6 25/8/6 26/9/6
f 21/3/6 24/4/6 27/6/6
f 27/6/6 24/4/6 28/7/6
f 27/6/6 28/7/6 29/4/6
f 26/9/6 25/8/6 30/2/6
f 27/6/6 29/4/6 19/3/6
f 26/9/6 30/2/6 31/5/6
f 19/3/6 29/4/6 32/1/6
f 31/5/6 30/2/6 32/1/6
f 19/3/6 32/1/6 30/2/6
f 19/3/6 30/2/6 20/1/6
f 18/2/3 9/8/7 25/8/7
f 9/8/7 18/2/3 2/2/3
f 12/3/4 27/6/8 19/3/4
f 27/6/8 12/3/4 7/6/8
f 9/8/7 30/2/9 25/8/7
f 30/2/9 9/8/7 13/2/9
f 27/6/8 3/3/10 21/3/10
f 3/3/10 27/6/8 7/6/8
f 30/2/9 16/1/5 20/1/5
f 16/1/5 30/2/9 13/2/9
f 3/3/10 17/1/2 21/3/10
f 17/1/2 3/3/10 1/1/2
f 10/9/8 23/5/4 26/9/8
f 23/5/4 10/9/8 6/5/4
f 23/5/4 4/1/5 22/1/5
f 4/1/5 23/5/4 6/5/4
f 22/1/5 5/4/9 24/4/9
f 5/4/9 22/1/5 4/1/5
f 5/4/9 28/7/7 24/4/9
f 28/7/7 5/4/9 8/7/7
f 28/7/7 14/4/3 29/4/3
f 14/4/3 28/7/7 8/7/7
f 14/4/3 32/1/2 29/4/3
f 32/1/2 14/4/3 15/1/2
f 15/1/2 31/5/10 32/1/2
f 31/5/10 15/1/2 11/5/10
f 31/5/10 10/9/8 26/9/8
f 10/9/8 31/5/10 11/5/10
f 35/3/1 34/2/1 33/1/1
f 34/2/1 35/3/1 36/1/1
f 36/1/1 35/3/1 37/4/1
f 38/5/1 34/2/1 36/1/1
f 37/4/1 35/3/1 39/6/1
f 37/4/1 39/6/1 40/7/1
f 34/2/1 38/5/1 41/8/1
f 41/8/1 38/5/1 42/9/1
f 41/8/1 42/9/1 43/5/1
f 40/7/1 39/6/1 44/3/1
f 41/8/1 43/5/1 45/2/1
f 40/7/1 44/3/1 46/4/1
f 45/2/1 43/5/1 47/1/1
f 46/4/1 44/3/1 47/1/1
f 45/2/1 47/1/1 44/3/1
f 45/2/1 44/3/1 48/1/1
f 33/1/2 50/2/3 49/1/2
f 50/2/3 33/1/2 34/2/3
f 52/1/5 44/3/4 51/3/4
f 44/3/4 52/1/5 48/1/5
f 50/2/6 53/3/6 49/1/6
f 53/3/6 50/2/6 54/1/6
f 54/1/6 50/2/6 55/5/6
f 56/4/6 53/3/6 54/1/6
f 55/5/6 50/2/6 57/8/6
f 55/5/6 57/8/6 58/9/6
f 53/3/6 56/4/6 59/6/6
f 59/6/6 56/4/6 60/7/6
f 59/6/6 60/7/6 61/4/6
f 58/9/6 57/8/6 62/2/6
f 59/6/6 61/4/6 51/3/6
f 58/9/6 62/2/6 63/5/6
f 51/3/6 61/4/6 64/1/6
f 63/5/6 62/2/6 64/1/6
f 51/3/6 64/1/6 62/2/6
f 51/3/6 62/2/6 52/1/6
f 50/2/3 41/8/7 57/8/7
f 41/8/7 50/2/3 34/2/3
f 44/3/4 59/6/8 51/3/4
f 59/6/8 44/3/4 39/6/8
f 41/8/7 62/2/9 57/8/7
f 62/2/9 41/8/7 45/2/9
f 59/6/8 35/3/10 53/3/10
f 35/3/10 59/6/8 39/6/8
f 62/2/9 48/1/5 52/1/5
f 48/1/5 62/2/9 45/2/9
f 35/3/10 49/1/2 53/3/10
f 49/1/2 35/3/10 33/1/2
f 42/9/8 55/5/4 58/9/8
f 55/5/4 42/9/8 38/5/4
f 55/5/4 36/1/5 54/1/5
f 36/1/5 55/5/4 38/5/4
f 54/1/5 37/4/9 56/4/9
f 37/4/9 54/1/5 36/1/5
f 37/4/9 60/7/7 56/4/9
f 60/7/7 37/4/9 40/7/7
f 60/7/7 46/4/3 61/4/3
f 46/4/3 60/7/7 40/7/7
f 46/4/3 64/1/2 61/4/3
f 64/1/2 46/4/3 47/1/2
f 47/1/2 63/5/10 64/1/2
f 63/5/10 47/1/2 43/5/10
f 63/5/10 42/9/8 58/9/8
f 42/9/8 63/5/10 43/5/10

usemtl material-glass

f 75/10/3 70/10/7 72/10/7
f 70/10/7 75/10/3 73/10/3
f 72/10/8 70/10/8 75/10/4
f 73/10/4 75/10/4 70/10/8
f 71/10/9 77/10/5 78/10/5
f 77/10/5 71/10/9 69/10/9
f 78/10/2 77/10/2 71/10/10
f 69/10/10 71/10/10 77/10/2
f 79/10/4 66/10/8 80/10/4
f 66/10/8 79/10/4 65/10/8
f 80/10/3 66/10/7 79/10/3
f 65/10/7 79/10/3 66/10/7
f 67/10/10 76/10/2 68/10/10
f 76/10/2 67/10/10 74/10/2
f 68/10/9 76/10/5 67/10/9
f 74/10/5 67/10/9 76/10/5
f 78/10/5 79/10/4 80/10/4
f 79/10/4 78/10/5 77/10/5
f 80/10/3 79/10/3 78/10/2
f 77/10/2 78/10/2 79/10/3
f 74/10/2 75/10/3 76/10/2
f 75/10/3 74/10/2 73/10/3
f 76/10/5 75/10/4 74/10/5
f 73/10/4 74/10/5 75/10/4
f 70/10/7 71/10/9 72/10/7
f 71/10/9 70/10/7 69/10/9
f 72/10/8 71/10/10 70/10/8
f 69/10/10 70/10/8 71/10/10
f 66/10/8 67/10/10 68/10/10
f 67/10/10 66/10/8 65/10/8
f 68/10/9 67/10/9 66/10/7
f 65/10/7 66/10/7 67/10/9

