# Created by Kenney (www.kenney.nl)

mtllib piston-thin-square.mtl

g piston-thin-square

v 0.1369766 0.7 -0.1450272 1 1 1
v 0.1369766 0.7 0.1450272 1 1 1
v -0.1691789 0.7 -0.1450272 1 1 1
v -0.1691789 0.7 0.1450272 1 1 1
v -0.1941789 0.65 -0.1700272 1 1 1
v -0.1941789 0.65 0.1700272 1 1 1
v 0.1619766 0.65 -0.1700272 1 1 1
v 0.1619766 0.65 0.1700272 1 1 1
v 0.1619766 0.6 -0.1700272 1 1 1
v 0.1619766 0.6 0.1700272 1 1 1
v -0.1941789 0.6 -0.1700272 1 1 1
v -0.1941789 0.6 0.1700272 1 1 1
v 0.175 0 0.25 1 1 1
v -0.175 0 0.25 1 1 1
v 0.175 0.55 0.25 1 1 1
v -0.175 0.55 0.25 1 1 1
v -0.25 0 -0.175 1 1 1
v -0.25 0.55 -0.175 1 1 1
v -0.25 0 0.175 1 1 1
v -0.25 0.55 0.175 1 1 1
v -0.175 0 -0.25 1 1 1
v 0.175 0 -0.25 1 1 1
v -0.175 0.55 -0.25 1 1 1
v 0.175 0.55 -0.25 1 1 1
v 0.228033 0 0.228033 1 1 1
v 0.228033 0.55 0.228033 1 1 1
v -0.228033 0 -0.228033 1 1 1
v -0.228033 0.55 -0.228033 1 1 1
v 0.228033 0 -0.228033 1 1 1
v 0.228033 0.55 -0.228033 1 1 1
v 0.25 0.55 -0.175 1 1 1
v 0.25 0 -0.175 1 1 1
v 0.25 0.55 0.175 1 1 1
v 0.25 0 0.175 1 1 1
v -0.228033 0 0.228033 1 1 1
v -0.228033 0.55 0.228033 1 1 1
v 0.1700272 0.6 0.225 1 1 1
v -0.1700272 0.6 0.225 1 1 1
v -0.2088988 0.6 -0.2088988 1 1 1
v -0.1700272 0.6 -0.225 1 1 1
v 0.225 0.6 -0.1700272 1 1 1
v 0.225 0.6 0.1700272 1 1 1
v 0.2088988 0.6 -0.2088988 1 1 1
v 0.2088988 0.6 0.2088988 1 1 1
v 0.1700272 0.6 -0.225 1 1 1
v -0.2088988 0.6 0.2088988 1 1 1
v -0.225 0.6 -0.1700272 1 1 1
v -0.225 0.6 0.1700272 1 1 1

vn 0.4247964 0.7994348 -0.4247964
vn 0.4247964 0.7994348 0.4247964
vn -0.4247964 0.7994348 -0.4247964
vn -0.4247964 0.7994348 0.4247964
vn -0.6809459 0.269491 -0.6809459
vn -0.6809459 0.269491 0.6809459
vn 0.6809459 0.269491 -0.6809459
vn 0.6809459 0.269491 0.6809459
vn 1 0 0
vn -1 0 0
vn 0 0 -1
vn 0 0 1
vn 0.1950903 0 0.9807853
vn -0.1950903 0 0.9807853
vn 0.1899876 0.2272172 0.9551319
vn -0.1899876 0.2272172 0.9551319
vn -0.9807853 0 -0.1950903
vn -0.9551319 0.2272172 -0.1899876
vn -0.9807853 0 0.1950903
vn -0.9551319 0.2272172 0.1899876
vn -0.1950903 0 -0.9807853
vn 0.1950903 0 -0.9807853
vn -0.1899876 0.2272172 -0.9551319
vn 0.1899876 0.2272172 -0.9551319
vn 0.7071068 0 0.7071068
vn 0.687757 0.2323373 0.687757
vn -0.7071068 0 -0.7071068
vn -0.687757 0.2323373 -0.687757
vn 0.7071068 0 -0.7071068
vn 0.687757 0.2323373 -0.687757
vn 0.9551319 0.2272172 -0.1899876
vn 0.9807853 0 -0.1950903
vn 0.9551319 0.2272172 0.1899876
vn 0.9807853 0 0.1950903
vn 0 -1 0
vn -0.7071068 0 0.7071068
vn -0.687757 0.2323373 0.687757
vn 0.1105569 0.8239271 0.5558068
vn -0.1105569 0.8239271 0.5558068
vn -0.4200797 0.8044041 -0.4200797
vn -0.1105569 0.8239271 -0.5558068
vn 0.5558068 0.8239271 -0.1105569
vn 0.5558068 0.8239271 0.1105569
vn 0.4200797 0.8044041 -0.4200797
vn 0.4200797 0.8044041 0.4200797
vn 0.1105569 0.8239271 -0.5558068
vn -0.4200797 0.8044041 0.4200797
vn -0.5558068 0.8239271 -0.1105569
vn -0.5558068 0.8239271 0.1105569

vt 0.34375 0.175
vt 0.34375 0.125
vt 0.34375 0.075
vt 0.59375 0.075
vt 0.59375 0.1666667
vt 0.59375 0.175

usemtl colormap

f 3/1/3 2/1/2 1/1/1
f 2/1/2 3/1/3 4/1/4
f 6/2/6 3/1/3 5/2/5
f 3/1/3 6/2/6 4/1/4
f 3/1/3 7/2/7 5/2/5
f 7/2/7 3/1/3 1/1/1
f 2/1/2 6/2/6 8/2/8
f 6/2/6 2/1/2 4/1/4
f 1/1/1 8/2/8 7/2/7
f 8/2/8 1/1/1 2/1/2
f 8/2/8 9/3/9 7/2/7
f 9/3/9 8/2/8 10/3/9
f 12/3/10 5/2/5 11/3/10
f 5/2/5 12/3/10 6/2/6
f 5/2/5 9/3/11 11/3/11
f 9/3/11 5/2/5 7/2/7
f 8/2/8 12/3/12 10/3/12
f 12/3/12 8/2/8 6/2/6
f 15/5/15 14/4/14 13/4/13
f 14/4/14 15/5/15 16/5/16
f 19/4/19 18/5/18 17/4/17
f 18/5/18 19/4/19 20/5/20
f 23/5/23 22/4/22 21/4/21
f 22/4/22 23/5/23 24/5/24
f 26/5/26 13/4/13 25/4/25
f 13/4/13 26/5/26 15/5/15
f 28/5/28 21/4/21 27/4/27
f 21/4/21 28/5/28 23/5/23
f 17/4/17 28/5/28 27/4/27
f 28/5/28 17/4/17 18/5/18
f 24/5/24 29/4/29 22/4/22
f 29/4/29 24/5/24 30/5/30
f 33/5/33 32/4/32 31/5/31
f 32/4/32 33/5/33 34/4/34
f 31/5/31 29/4/29 30/5/30
f 29/4/29 31/5/31 32/4/32
f 26/5/26 34/4/34 33/5/33
f 34/4/34 26/5/26 25/4/25
f 25/4/35 32/4/35 34/4/35
f 32/4/35 25/4/35 29/4/35
f 29/4/35 25/4/35 13/4/35
f 29/4/35 13/4/35 22/4/35
f 22/4/35 13/4/35 14/4/35
f 22/4/35 14/4/35 21/4/35
f 21/4/35 14/4/35 35/4/35
f 21/4/35 35/4/35 27/4/35
f 27/4/35 35/4/35 19/4/35
f 27/4/35 19/4/35 17/4/35
f 35/4/36 20/5/20 19/4/19
f 20/5/20 35/4/36 36/5/37
f 16/5/16 35/4/36 14/4/14
f 35/4/36 16/5/16 36/5/37
f 37/6/38 16/5/16 15/5/15
f 16/5/16 37/6/38 38/6/39
f 39/6/40 23/5/23 28/5/28
f 23/5/23 39/6/40 40/6/41
f 41/6/42 33/5/33 31/5/31
f 33/5/33 41/6/42 42/6/43
f 43/6/44 42/6/43 41/6/42
f 42/6/43 43/6/44 44/6/45
f 44/6/45 43/6/44 45/6/46
f 44/6/45 45/6/46 37/6/38
f 37/6/38 45/6/46 40/6/41
f 37/6/38 40/6/41 38/6/39
f 38/6/39 40/6/41 39/6/40
f 38/6/39 39/6/40 46/6/47
f 46/6/47 39/6/40 47/6/48
f 46/6/47 47/6/48 48/6/49
f 18/5/18 39/6/40 28/5/28
f 39/6/40 18/5/18 47/6/48
f 20/5/20 47/6/48 18/5/18
f 47/6/48 20/5/20 48/6/49
f 43/6/44 31/5/31 30/5/30
f 31/5/31 43/6/44 41/6/42
f 40/6/41 24/5/24 23/5/23
f 24/5/24 40/6/41 45/6/46
f 44/6/45 15/5/15 26/5/26
f 15/5/15 44/6/45 37/6/38
f 38/6/39 36/5/37 16/5/16
f 36/5/37 38/6/39 46/6/47
f 44/6/45 33/5/33 42/6/43
f 33/5/33 44/6/45 26/5/26
f 45/6/46 30/5/30 24/5/24
f 30/5/30 45/6/46 43/6/44
f 20/5/20 46/6/47 48/6/49
f 46/6/47 20/5/20 36/5/37

g piston-thin-square




usemtl colormap

f 3/1/3 2/1/2 1/1/1
f 2/1/2 3/1/3 4/1/4
f 6/2/6 3/1/3 5/2/5
f 3/1/3 6/2/6 4/1/4
f 3/1/3 7/2/7 5/2/5
f 7/2/7 3/1/3 1/1/1
f 2/1/2 6/2/6 8/2/8
f 6/2/6 2/1/2 4/1/4
f 1/1/1 8/2/8 7/2/7
f 8/2/8 1/1/1 2/1/2
f 8/2/8 9/3/9 7/2/7
f 9/3/9 8/2/8 10/3/9
f 12/3/10 5/2/5 11/3/10
f 5/2/5 12/3/10 6/2/6
f 5/2/5 9/3/11 11/3/11
f 9/3/11 5/2/5 7/2/7
f 8/2/8 12/3/12 10/3/12
f 12/3/12 8/2/8 6/2/6
f 15/5/15 14/4/14 13/4/13
f 14/4/14 15/5/15 16/5/16
f 19/4/19 18/5/18 17/4/17
f 18/5/18 19/4/19 20/5/20
f 23/5/23 22/4/22 21/4/21
f 22/4/22 23/5/23 24/5/24
f 26/5/26 13/4/13 25/4/25
f 13/4/13 26/5/26 15/5/15
f 28/5/28 21/4/21 27/4/27
f 21/4/21 28/5/28 23/5/23
f 17/4/17 28/5/28 27/4/27
f 28/5/28 17/4/17 18/5/18
f 24/5/24 29/4/29 22/4/22
f 29/4/29 24/5/24 30/5/30
f 33/5/33 32/4/32 31/5/31
f 32/4/32 33/5/33 34/4/34
f 31/5/31 29/4/29 30/5/30
f 29/4/29 31/5/31 32/4/32
f 26/5/26 34/4/34 33/5/33
f 34/4/34 26/5/26 25/4/25
f 25/4/35 32/4/35 34/4/35
f 32/4/35 25/4/35 29/4/35
f 29/4/35 25/4/35 13/4/35
f 29/4/35 13/4/35 22/4/35
f 22/4/35 13/4/35 14/4/35
f 22/4/35 14/4/35 21/4/35
f 21/4/35 14/4/35 35/4/35
f 21/4/35 35/4/35 27/4/35
f 27/4/35 35/4/35 19/4/35
f 27/4/35 19/4/35 17/4/35
f 35/4/36 20/5/20 19/4/19
f 20/5/20 35/4/36 36/5/37
f 16/5/16 35/4/36 14/4/14
f 35/4/36 16/5/16 36/5/37
f 37/6/38 16/5/16 15/5/15
f 16/5/16 37/6/38 38/6/39
f 39/6/40 23/5/23 28/5/28
f 23/5/23 39/6/40 40/6/41
f 41/6/42 33/5/33 31/5/31
f 33/5/33 41/6/42 42/6/43
f 43/6/44 42/6/43 41/6/42
f 42/6/43 43/6/44 44/6/45
f 44/6/45 43/6/44 45/6/46
f 44/6/45 45/6/46 37/6/38
f 37/6/38 45/6/46 40/6/41
f 37/6/38 40/6/41 38/6/39
f 38/6/39 40/6/41 39/6/40
f 38/6/39 39/6/40 46/6/47
f 46/6/47 39/6/40 47/6/48
f 46/6/47 47/6/48 48/6/49
f 18/5/18 39/6/40 28/5/28
f 39/6/40 18/5/18 47/6/48
f 20/5/20 47/6/48 18/5/18
f 47/6/48 20/5/20 48/6/49
f 43/6/44 31/5/31 30/5/30
f 31/5/31 43/6/44 41/6/42
f 40/6/41 24/5/24 23/5/23
f 24/5/24 40/6/41 45/6/46
f 44/6/45 15/5/15 26/5/26
f 15/5/15 44/6/45 37/6/38
f 38/6/39 36/5/37 16/5/16
f 36/5/37 38/6/39 46/6/47
f 44/6/45 33/5/33 42/6/43
f 33/5/33 44/6/45 26/5/26
f 45/6/46 30/5/30 24/5/24
f 30/5/30 45/6/46 43/6/44
f 20/5/20 46/6/47 48/6/49
f 46/6/47 20/5/20 36/5/37

g top

v -0.1700272 0.8 -0.225 1 1 1
v -0.175 0.85 -0.25 1 1 1
v -0.2088988 0.8 -0.2088988 1 1 1
v -0.228033 0.85 -0.228033 1 1 1
v 0.2088988 0.8 0.2088988 1 1 1
v 0.1700272 0.8 0.225 1 1 1
v 0.228033 0.85 0.228033 1 1 1
v 0.175 0.85 0.25 1 1 1
v 0.175 0.85 -0.25 1 1 1
v -0.175 1 -0.25 1 1 1
v 0.175 1 -0.25 1 1 1
v -0.1700272 0.8 0.225 1 1 1
v -0.175 0.85 0.25 1 1 1
v 0.25 1 -0.175 1 1 1
v 0.25 0.85 -0.175 1 1 1
v 0.25 1 0.175 1 1 1
v 0.25 0.85 0.175 1 1 1
v 0.228033 0.85 -0.228033 1 1 1
v 0.228033 1 -0.228033 1 1 1
v -0.25 1 -0.175 1 1 1
v -0.25 1 0.175 1 1 1
v -0.25 0.85 -0.175 1 1 1
v -0.25 0.85 0.175 1 1 1
v 0.228033 1 0.228033 1 1 1
v 0.175 1 0.25 1 1 1
v -0.175 1 0.25 1 1 1
v -0.228033 1 -0.228033 1 1 1
v -0.228033 1 0.228033 1 1 1
v 0.225 0.8 0.1700272 1 1 1
v 0.225 0.8 -0.1700272 1 1 1
v 0.2088988 0.8 -0.2088988 1 1 1
v 0.1700272 0.8 -0.225 1 1 1
v -0.2088988 0.8 0.2088988 1 1 1
v -0.225 0.8 0.1700272 1 1 1
v -0.225 0.8 -0.1700272 1 1 1
v -0.228033 0.85 0.228033 1 1 1
v -0.1691791 0.7 -0.1450272 1 1 1
v 0.1369764 0.7 -0.1450272 1 1 1
v -0.1941791 0.75 -0.1700272 1 1 1
v 0.1619764 0.75 -0.1700272 1 1 1
v -0.1941791 0.8 -0.1700272 1 1 1
v -0.1941791 0.8 0.1700272 1 1 1
v -0.1941791 0.75 0.1700272 1 1 1
v 0.1369764 0.7 0.1450272 1 1 1
v -0.1691791 0.7 0.1450272 1 1 1
v 0.1619764 0.8 -0.1700272 1 1 1
v 0.1619764 0.8 0.1700272 1 1 1
v 0.1619764 0.75 0.1700272 1 1 1

vn -0.1105569 -0.8239271 -0.5558068
vn -0.1899876 -0.2272172 -0.9551319
vn -0.4200797 -0.8044041 -0.4200797
vn -0.687757 -0.2323373 -0.687757
vn 0.4200797 -0.8044041 0.4200797
vn 0.1105569 -0.8239271 0.5558068
vn 0.687757 -0.2323373 0.687757
vn 0.1899876 -0.2272172 0.9551319
vn 0.1899876 -0.2272172 -0.9551319
vn -0.1105569 -0.8239271 0.5558068
vn -0.1899876 -0.2272172 0.9551319
vn 0.9551319 -0.2272172 -0.1899876
vn 0.9551319 -0.2272172 0.1899876
vn 0.687757 -0.2323373 -0.687757
vn -0.9551319 -0.2272172 -0.1899876
vn -0.9551319 -0.2272172 0.1899876
vn 0 1 0
vn 0.5558068 -0.8239271 0.1105569
vn 0.5558068 -0.8239271 -0.1105569
vn 0.4200797 -0.8044041 -0.4200797
vn 0.1105569 -0.8239271 -0.5558068
vn -0.4200797 -0.8044041 0.4200797
vn -0.5558068 -0.8239271 0.1105569
vn -0.5558068 -0.8239271 -0.1105569
vn -0.687757 -0.2323373 0.687757
vn -0.4247964 -0.7994348 -0.4247964
vn 0.4247964 -0.7994348 -0.4247964
vn -0.6809459 -0.269491 -0.6809459
vn 0.6809459 -0.269491 -0.6809459
vn -0.6809459 -0.269491 0.6809459
vn 0.4247964 -0.7994348 0.4247964
vn -0.4247964 -0.7994348 0.4247964
vn 0.6809459 -0.269491 0.6809459

vt 0.09375 0.075
vt 0.09375 0.1
vt 0.09375 0.175

usemtl colormap

f 51/7/52 50/8/51 49/7/50
f 50/8/51 51/7/52 52/8/53
f 55/8/56 54/7/55 53/7/54
f 54/7/55 55/8/56 56/8/57
f 58/9/21 57/8/58 50/8/51
f 57/8/58 58/9/21 59/9/22
f 56/8/57 60/7/59 54/7/55
f 60/7/59 56/8/57 61/8/60
f 64/9/34 63/8/61 62/9/32
f 63/8/61 64/9/34 65/8/62
f 59/9/22 66/8/63 57/8/58
f 66/8/63 59/9/22 67/9/29
f 70/8/64 69/9/19 68/9/17
f 69/9/19 70/8/64 71/8/65
f 67/9/66 64/9/66 62/9/66
f 64/9/66 67/9/66 72/9/66
f 72/9/66 67/9/66 59/9/66
f 72/9/66 59/9/66 73/9/66
f 73/9/66 59/9/66 58/9/66
f 73/9/66 58/9/66 74/9/66
f 74/9/66 58/9/66 75/9/66
f 74/9/66 75/9/66 76/9/66
f 76/9/66 75/9/66 68/9/66
f 76/9/66 68/9/66 69/9/66
f 53/7/54 78/7/68 77/7/67
f 78/7/68 53/7/54 79/7/69
f 79/7/69 53/7/54 54/7/55
f 79/7/69 54/7/55 80/7/70
f 80/7/70 54/7/55 60/7/59
f 80/7/70 60/7/59 49/7/50
f 49/7/50 60/7/59 81/7/71
f 49/7/50 81/7/71 51/7/52
f 51/7/52 81/7/71 82/7/72
f 51/7/52 82/7/72 83/7/73
f 50/8/51 80/7/70 49/7/50
f 80/7/70 50/8/51 57/8/58
f 71/8/65 76/9/36 69/9/19
f 76/9/36 71/8/65 84/8/74
f 73/9/13 61/8/60 56/8/57
f 61/8/60 73/9/13 74/9/14
f 81/7/71 71/8/65 82/7/72
f 71/8/65 81/7/71 84/8/74
f 83/7/73 71/8/65 70/8/64
f 71/8/65 83/7/73 82/7/72
f 61/8/60 76/9/36 84/8/74
f 76/9/36 61/8/60 74/9/14
f 52/8/53 68/9/17 75/9/27
f 68/9/17 52/8/53 70/8/64
f 65/8/62 78/7/68 63/8/61
f 78/7/68 65/8/62 77/7/67
f 52/8/53 58/9/21 50/8/51
f 58/9/21 52/8/53 75/9/27
f 72/9/25 56/8/57 55/8/56
f 56/8/57 72/9/25 73/9/13
f 60/7/59 84/8/74 81/7/71
f 84/8/74 60/7/59 61/8/60
f 63/8/61 79/7/69 66/8/63
f 79/7/69 63/8/61 78/7/68
f 57/8/58 79/7/69 80/7/70
f 79/7/69 57/8/58 66/8/63
f 72/9/25 65/8/62 64/9/34
f 65/8/62 72/9/25 55/8/56
f 51/7/52 70/8/64 52/8/53
f 70/8/64 51/7/52 83/7/73
f 65/8/62 53/7/54 77/7/67
f 53/7/54 65/8/62 55/8/56
f 62/9/32 66/8/63 67/9/29
f 66/8/63 62/9/32 63/8/61
f 87/2/77 86/3/76 85/3/75
f 86/3/76 87/2/77 88/2/78
f 87/2/77 90/1/10 89/1/10
f 90/1/10 87/2/77 91/2/79
f 93/3/81 86/3/76 92/3/80
f 86/3/76 93/3/81 85/3/75
f 85/3/75 91/2/79 87/2/77
f 91/2/79 85/3/75 93/3/81
f 95/1/9 88/2/78 94/1/9
f 88/2/78 95/1/9 96/2/82
f 95/1/12 91/2/79 96/2/82
f 91/2/79 95/1/12 90/1/12
f 96/2/82 86/3/76 88/2/78
f 86/3/76 96/2/82 92/3/80
f 96/2/82 93/3/81 92/3/80
f 93/3/81 96/2/82 91/2/79
f 89/1/11 88/2/78 87/2/77
f 88/2/78 89/1/11 94/1/11

g arm

v 0.1369766 -2.887646E-15 0.1450272 1 1 1
v -0.1691789 -2.887646E-15 0.1450272 1 1 1
v 0.1369766 1 0.1450272 1 1 1
v -0.1691789 1 0.1450272 1 1 1
v -0.1691789 -2.887646E-15 -0.1450272 1 1 1
v 0.1369766 -2.887646E-15 -0.1450272 1 1 1
v -0.1691789 1 -0.1450272 1 1 1
v 0.1369766 1 -0.1450272 1 1 1


vt 0.34375 0.145
vt 0.34375 0.225

usemtl colormap

f 99/11/12 98/10/12 97/10/12
f 98/10/12 99/11/12 100/11/12
f 103/11/11 102/10/11 101/10/11
f 102/10/11 103/11/11 104/11/11
f 98/10/10 103/11/10 101/10/10
f 103/11/10 98/10/10 100/11/10
f 99/11/9 102/10/9 104/11/9
f 102/10/9 99/11/9 97/10/9

