# Created by Kenney (www.kenney.nl)

mtllib piston-round.mtl

g piston-round

v 0.3482362 0.7 0 1 1 1
v 0.3015814 0.7 0.1741181 1 1 1
v 0.3015814 0.7 -0.1741181 1 1 1
v 0.1741181 0.7 -0.3015814 1 1 1
v 0.1741181 0.7 0.3015814 1 1 1
v -7.450631E-10 0.7 0.3482362 1 1 1
v -7.450631E-10 0.7 -0.3482362 1 1 1
v -0.1741181 0.7 -0.3015814 1 1 1
v -0.1741181 0.7 0.3015814 1 1 1
v -0.3015814 0.7 0.1741181 1 1 1
v -0.3015814 0.7 -0.1741181 1 1 1
v -0.3482362 0.7 0 1 1 1
v 0.4 0.65 0 1 1 1
v 0.3464102 0.65 0.2 1 1 1
v 0.2 0.65 0.3464102 1 1 1
v 0.3464102 0.65 -0.2 1 1 1
v -0.3464102 0.65 -0.2 1 1 1
v -0.4 0.65 0 1 1 1
v -0.2 0.65 0.3464102 1 1 1
v -0.3464102 0.65 0.2 1 1 1
v -7.450631E-10 0.65 -0.4 1 1 1
v -0.2 0.65 -0.3464102 1 1 1
v 0.2 0.65 -0.3464102 1 1 1
v -7.450631E-10 0.65 0.4 1 1 1
v -0.2 0.6 0.3464102 1 1 1
v -0.3464102 0.6 0.2 1 1 1
v -7.450631E-10 0.6 -0.4 1 1 1
v 0.2 0.6 -0.3464102 1 1 1
v 0.3464102 0.6 0.2 1 1 1
v 0.2 0.6 0.3464102 1 1 1
v -0.4 0.6 0 1 1 1
v 0.3464102 0.6 -0.2 1 1 1
v -7.450631E-10 0.6 0.4 1 1 1
v -0.2 0.6 -0.3464102 1 1 1
v -0.3464102 0.6 -0.2 1 1 1
v 0.4 0.6 0 1 1 1
v -0.3881839 0.6 0.2241181 1 1 1
v -0.4330127 0.55 0.25 1 1 1
v -0.4482362 0.6 2.165734E-15 1 1 1
v -0.5 0.55 7.219114E-16 1 1 1
v 0.4330127 0.55 -0.25 1 1 1
v 0.3881839 0.6 -0.2241181 1 1 1
v 0.25 0.55 -0.4330127 1 1 1
v 0.2241181 0.6 -0.3881839 1 1 1
v 4.331469E-15 0.55 -0.5 1 1 1
v 4.331469E-15 0.6 -0.4482362 1 1 1
v 0.475 0 -7.219114E-16 1 1 1
v 0.4113621 0 -0.2375 1 1 1
v 0.4113621 0 0.2375 1 1 1
v 0.2375 0 0.4113621 1 1 1
v 0.2375 0 -0.4113621 1 1 1
v 0 0 -0.475 1 1 1
v 0 0 0.475 1 1 1
v -0.2375 0 0.4113621 1 1 1
v -0.2375 0 -0.4113621 1 1 1
v -0.4113621 0 -0.2375 1 1 1
v -0.4113621 0 0.2375 1 1 1
v -0.475 0 -7.219114E-16 1 1 1
v 0.4330127 0.55 0.25 1 1 1
v 0.25 0.55 0.4330127 1 1 1
v 0.3881839 0.6 0.2241181 1 1 1
v 0.2241181 0.6 0.3881839 1 1 1
v 0.5 0.55 2.165734E-15 1 1 1
v 0.4482362 0.6 2.165734E-15 1 1 1
v -0.3881839 0.6 -0.2241181 1 1 1
v -0.4330127 0.55 -0.25 1 1 1
v 4.331469E-15 0.55 0.5 1 1 1
v 4.331469E-15 0.6 0.4482362 1 1 1
v -0.2241181 0.6 0.3881839 1 1 1
v -0.25 0.55 0.4330127 1 1 1
v -0.25 0.55 -0.4330127 1 1 1
v -0.2241181 0.6 -0.3881839 1 1 1

vn 0.4257298 0.9048504 0
vn 0.3686928 0.9048504 0.2128649
vn 0.3686928 0.9048504 -0.2128649
vn 0.2128649 0.9048504 -0.3686928
vn 0.2128649 0.9048504 0.3686928
vn 0 0.9048504 0.4257298
vn 0 0.9048504 -0.4257298
vn -0.2128649 0.9048504 -0.3686928
vn -0.2128649 0.9048504 0.3686928
vn -0.3686928 0.9048504 0.2128649
vn -0.3686928 0.9048504 -0.2128649
vn -0.4257298 0.9048504 0
vn 0.9293313 0.3692469 0
vn 0.8048245 0.3692469 0.4646657
vn 0.4646657 0.3692469 0.8048245
vn 0.8048245 0.3692469 -0.4646657
vn -0.8048245 0.3692469 -0.4646657
vn -0.9293313 0.3692469 0
vn -0.4646657 0.3692469 0.8048245
vn -0.8048245 0.3692469 0.4646657
vn 0 0.3692469 -0.9293313
vn -0.4646657 0.3692469 -0.8048245
vn 0.4646657 0.3692469 -0.8048245
vn 0 0.3692469 0.9293313
vn -0.5 0 0.8660254
vn -0.8660254 0 0.5
vn 0 0 -1
vn 0.5 0 -0.8660254
vn 0.8660254 0 0.5
vn 0.5 0 0.8660254
vn -1 0 0
vn 0.8660254 0 -0.5
vn 0 0 1
vn -0.5 0 -0.8660254
vn -0.8660254 0 -0.5
vn 1 0 0
vn -0.8118196 0.3482317 0.4687042
vn -0.9374085 0.3482317 0
vn 0.8118196 0.3482317 -0.4687042
vn 0.4687042 0.3482317 -0.8118196
vn 0 0.3482317 -0.9374085
vn 0 -1 0
vn 0.8118196 0.3482317 0.4687042
vn 0.4687042 0.3482317 0.8118196
vn 0.9374085 0.3482317 0
vn -0.8118196 0.3482317 -0.4687042
vn 0 0.3482317 0.9374085
vn -0.4687042 0.3482317 0.8118196
vn -0.4687042 0.3482317 -0.8118196
vn 0 -0.04540766 -0.9989685
vn 0.4994842 -0.04540766 -0.8651321
vn -0.4994842 -0.04540766 -0.8651321
vn 0.9989685 -0.04540766 0
vn 0.8651321 -0.04540766 0.4994842
vn -0.8651321 -0.04540766 -0.4994842
vn -0.9989685 -0.04540766 0
vn 0.4994842 -0.04540766 0.8651321
vn -0.8651321 -0.04540766 0.4994842
vn -0.4994842 -0.04540766 0.8651321
vn 0.8651321 -0.04540766 -0.4994842
vn 0 -0.04540766 0.9989685

vt 0.34375 0.175
vt 0.34375 0.125
vt 0.34375 0.075
vt 0.59375 0.175
vt 0.59375 0.1666667
vt 0.59375 0.075

usemtl colormap

f 3/1/3 2/1/2 1/1/1
f 2/1/2 3/1/3 4/1/4
f 2/1/2 4/1/4 5/1/5
f 5/1/5 4/1/4 6/1/6
f 6/1/6 4/1/4 7/1/7
f 6/1/6 7/1/7 8/1/8
f 6/1/6 8/1/8 9/1/9
f 9/1/9 8/1/8 10/1/10
f 10/1/10 8/1/8 11/1/11
f 10/1/10 11/1/11 12/1/12
f 1/1/1 14/2/14 13/2/13
f 14/2/14 1/1/1 2/1/2
f 2/1/2 15/2/15 14/2/14
f 15/2/15 2/1/2 5/1/5
f 16/2/16 1/1/1 13/2/13
f 1/1/1 16/2/16 3/1/3
f 17/2/17 12/1/12 11/1/11
f 12/1/12 17/2/17 18/2/18
f 10/1/10 19/2/19 9/1/9
f 19/2/19 10/1/10 20/2/20
f 22/2/22 7/1/7 21/2/21
f 7/1/7 22/2/22 8/1/8
f 21/2/21 4/1/4 23/2/23
f 4/1/4 21/2/21 7/1/7
f 23/2/23 3/1/3 16/2/16
f 3/1/3 23/2/23 4/1/4
f 22/2/22 11/1/11 8/1/8
f 11/1/11 22/2/22 17/2/17
f 5/1/5 24/2/24 15/2/15
f 24/2/24 5/1/5 6/1/6
f 9/1/9 24/2/24 6/1/6
f 24/2/24 9/1/9 19/2/19
f 12/1/12 20/2/20 10/1/10
f 20/2/20 12/1/12 18/2/18
f 19/2/19 26/3/26 25/3/25
f 26/3/26 19/2/19 20/2/20
f 21/2/21 28/3/28 27/3/27
f 28/3/28 21/2/21 23/2/23
f 14/2/14 30/3/30 29/3/29
f 30/3/30 14/2/14 15/2/15
f 26/3/26 18/2/18 31/3/31
f 18/2/18 26/3/26 20/2/20
f 23/2/23 32/3/32 28/3/28
f 32/3/32 23/2/23 16/2/16
f 24/2/24 25/3/25 33/3/33
f 25/3/25 24/2/24 19/2/19
f 35/3/35 22/2/22 34/3/34
f 22/2/22 35/3/35 17/2/17
f 15/2/15 33/3/33 30/3/30
f 33/3/33 15/2/15 24/2/24
f 22/2/22 27/3/27 34/3/34
f 27/3/27 22/2/22 21/2/21
f 13/2/13 32/3/32 16/2/16
f 32/3/32 13/2/13 36/3/36
f 35/3/35 18/2/18 17/2/17
f 18/2/18 35/3/35 31/3/31
f 14/2/14 36/3/36 13/2/13
f 36/3/36 14/2/14 29/3/29
f 39/4/12 38/5/37 37/4/10
f 38/5/37 39/4/12 40/5/38
f 43/5/40 42/4/3 41/5/39
f 42/4/3 43/5/40 44/4/4
f 45/5/41 44/4/4 43/5/40
f 44/4/4 45/5/41 46/4/7
f 49/6/42 48/6/42 47/6/42
f 48/6/42 49/6/42 50/6/42
f 48/6/42 50/6/42 51/6/42
f 51/6/42 50/6/42 52/6/42
f 52/6/42 50/6/42 53/6/42
f 52/6/42 53/6/42 54/6/42
f 52/6/42 54/6/42 55/6/42
f 55/6/42 54/6/42 56/6/42
f 56/6/42 54/6/42 57/6/42
f 56/6/42 57/6/42 58/6/42
f 61/4/2 60/5/44 59/5/43
f 60/5/44 61/4/2 62/4/5
f 41/5/39 64/4/1 63/5/45
f 64/4/1 41/5/39 42/4/3
f 66/5/46 39/4/12 65/4/11
f 39/4/12 66/5/46 40/5/38
f 62/4/5 67/5/47 60/5/44
f 67/5/47 62/4/5 68/4/6
f 37/4/10 70/5/48 69/4/9
f 70/5/48 37/4/10 38/5/37
f 69/4/9 67/5/47 68/4/6
f 67/5/47 69/4/9 70/5/48
f 64/4/1 59/5/43 63/5/45
f 59/5/43 64/4/1 61/4/2
f 71/5/49 46/4/7 45/5/41
f 46/4/7 71/5/49 72/4/8
f 71/5/49 65/4/11 72/4/8
f 65/4/11 71/5/49 66/5/46
f 42/4/3 61/4/2 64/4/1
f 61/4/2 42/4/3 44/4/4
f 61/4/2 44/4/4 62/4/5
f 62/4/5 44/4/4 46/4/7
f 62/4/5 46/4/7 68/4/6
f 68/4/6 46/4/7 72/4/8
f 68/4/6 72/4/8 69/4/9
f 69/4/9 72/4/8 65/4/11
f 69/4/9 65/4/11 37/4/10
f 37/4/10 65/4/11 39/4/12
f 45/5/41 51/6/51 52/6/50
f 51/6/51 45/5/41 43/5/40
f 71/5/49 52/6/50 55/6/52
f 52/6/50 71/5/49 45/5/41
f 63/5/45 49/6/54 47/6/53
f 49/6/54 63/5/45 59/5/43
f 56/6/55 40/5/38 66/5/46
f 40/5/38 56/6/55 58/6/56
f 59/5/43 50/6/57 49/6/54
f 50/6/57 59/5/43 60/5/44
f 54/6/59 38/5/37 57/6/58
f 38/5/37 54/6/59 70/5/48
f 43/5/40 48/6/60 51/6/51
f 48/6/60 43/5/40 41/5/39
f 57/6/58 40/5/38 58/6/56
f 40/5/38 57/6/58 38/5/37
f 63/5/45 48/6/60 41/5/39
f 48/6/60 63/5/45 47/6/53
f 55/6/52 66/5/46 71/5/49
f 66/5/46 55/6/52 56/6/55
f 67/5/47 54/6/59 53/6/61
f 54/6/59 67/5/47 70/5/48
f 60/5/44 53/6/61 50/6/57
f 53/6/61 60/5/44 67/5/47

g piston-round




usemtl colormap

f 3/1/3 2/1/2 1/1/1
f 2/1/2 3/1/3 4/1/4
f 2/1/2 4/1/4 5/1/5
f 5/1/5 4/1/4 6/1/6
f 6/1/6 4/1/4 7/1/7
f 6/1/6 7/1/7 8/1/8
f 6/1/6 8/1/8 9/1/9
f 9/1/9 8/1/8 10/1/10
f 10/1/10 8/1/8 11/1/11
f 10/1/10 11/1/11 12/1/12
f 1/1/1 14/2/14 13/2/13
f 14/2/14 1/1/1 2/1/2
f 2/1/2 15/2/15 14/2/14
f 15/2/15 2/1/2 5/1/5
f 16/2/16 1/1/1 13/2/13
f 1/1/1 16/2/16 3/1/3
f 17/2/17 12/1/12 11/1/11
f 12/1/12 17/2/17 18/2/18
f 10/1/10 19/2/19 9/1/9
f 19/2/19 10/1/10 20/2/20
f 22/2/22 7/1/7 21/2/21
f 7/1/7 22/2/22 8/1/8
f 21/2/21 4/1/4 23/2/23
f 4/1/4 21/2/21 7/1/7
f 23/2/23 3/1/3 16/2/16
f 3/1/3 23/2/23 4/1/4
f 22/2/22 11/1/11 8/1/8
f 11/1/11 22/2/22 17/2/17
f 5/1/5 24/2/24 15/2/15
f 24/2/24 5/1/5 6/1/6
f 9/1/9 24/2/24 6/1/6
f 24/2/24 9/1/9 19/2/19
f 12/1/12 20/2/20 10/1/10
f 20/2/20 12/1/12 18/2/18
f 19/2/19 26/3/26 25/3/25
f 26/3/26 19/2/19 20/2/20
f 21/2/21 28/3/28 27/3/27
f 28/3/28 21/2/21 23/2/23
f 14/2/14 30/3/30 29/3/29
f 30/3/30 14/2/14 15/2/15
f 26/3/26 18/2/18 31/3/31
f 18/2/18 26/3/26 20/2/20
f 23/2/23 32/3/32 28/3/28
f 32/3/32 23/2/23 16/2/16
f 24/2/24 25/3/25 33/3/33
f 25/3/25 24/2/24 19/2/19
f 35/3/35 22/2/22 34/3/34
f 22/2/22 35/3/35 17/2/17
f 15/2/15 33/3/33 30/3/30
f 33/3/33 15/2/15 24/2/24
f 22/2/22 27/3/27 34/3/34
f 27/3/27 22/2/22 21/2/21
f 13/2/13 32/3/32 16/2/16
f 32/3/32 13/2/13 36/3/36
f 35/3/35 18/2/18 17/2/17
f 18/2/18 35/3/35 31/3/31
f 14/2/14 36/3/36 13/2/13
f 36/3/36 14/2/14 29/3/29
f 39/4/12 38/5/37 37/4/10
f 38/5/37 39/4/12 40/5/38
f 43/5/40 42/4/3 41/5/39
f 42/4/3 43/5/40 44/4/4
f 45/5/41 44/4/4 43/5/40
f 44/4/4 45/5/41 46/4/7
f 49/6/42 48/6/42 47/6/42
f 48/6/42 49/6/42 50/6/42
f 48/6/42 50/6/42 51/6/42
f 51/6/42 50/6/42 52/6/42
f 52/6/42 50/6/42 53/6/42
f 52/6/42 53/6/42 54/6/42
f 52/6/42 54/6/42 55/6/42
f 55/6/42 54/6/42 56/6/42
f 56/6/42 54/6/42 57/6/42
f 56/6/42 57/6/42 58/6/42
f 61/4/2 60/5/44 59/5/43
f 60/5/44 61/4/2 62/4/5
f 41/5/39 64/4/1 63/5/45
f 64/4/1 41/5/39 42/4/3
f 66/5/46 39/4/12 65/4/11
f 39/4/12 66/5/46 40/5/38
f 62/4/5 67/5/47 60/5/44
f 67/5/47 62/4/5 68/4/6
f 37/4/10 70/5/48 69/4/9
f 70/5/48 37/4/10 38/5/37
f 69/4/9 67/5/47 68/4/6
f 67/5/47 69/4/9 70/5/48
f 64/4/1 59/5/43 63/5/45
f 59/5/43 64/4/1 61/4/2
f 71/5/49 46/4/7 45/5/41
f 46/4/7 71/5/49 72/4/8
f 71/5/49 65/4/11 72/4/8
f 65/4/11 71/5/49 66/5/46
f 42/4/3 61/4/2 64/4/1
f 61/4/2 42/4/3 44/4/4
f 61/4/2 44/4/4 62/4/5
f 62/4/5 44/4/4 46/4/7
f 62/4/5 46/4/7 68/4/6
f 68/4/6 46/4/7 72/4/8
f 68/4/6 72/4/8 69/4/9
f 69/4/9 72/4/8 65/4/11
f 69/4/9 65/4/11 37/4/10
f 37/4/10 65/4/11 39/4/12
f 45/5/41 51/6/51 52/6/50
f 51/6/51 45/5/41 43/5/40
f 71/5/49 52/6/50 55/6/52
f 52/6/50 71/5/49 45/5/41
f 63/5/45 49/6/54 47/6/53
f 49/6/54 63/5/45 59/5/43
f 56/6/55 40/5/38 66/5/46
f 40/5/38 56/6/55 58/6/56
f 59/5/43 50/6/57 49/6/54
f 50/6/57 59/5/43 60/5/44
f 54/6/59 38/5/37 57/6/58
f 38/5/37 54/6/59 70/5/48
f 43/5/40 48/6/60 51/6/51
f 48/6/60 43/5/40 41/5/39
f 57/6/58 40/5/38 58/6/56
f 40/5/38 57/6/58 38/5/37
f 63/5/45 48/6/60 41/5/39
f 48/6/60 63/5/45 47/6/53
f 55/6/52 66/5/46 71/5/49
f 66/5/46 55/6/52 56/6/55
f 67/5/47 54/6/59 53/6/61
f 54/6/59 67/5/47 70/5/48
f 60/5/44 53/6/61 50/6/57
f 53/6/61 60/5/44 67/5/47

g arm

v -0.15 0 -0.2598076 1 1 1
v 0 0 -0.3 1 1 1
v -0.15 1 -0.2598076 1 1 1
v 0 1 -0.3 1 1 1
v 0.2598076 1 -0.15 1 1 1
v 0.2598076 0 -0.15 1 1 1
v 0.3 1 0 1 1 1
v 0.3 0 0 1 1 1
v -0.2598076 0 -0.15 1 1 1
v -0.2598076 1 -0.15 1 1 1
v -0.3 0 0 1 1 1
v -0.3 1 0 1 1 1
v 0.2598076 1 0.15 1 1 1
v 0.2598076 0 0.15 1 1 1
v -0.2598076 0 0.15 1 1 1
v -0.2598076 1 0.15 1 1 1
v 0.15 0 -0.2598076 1 1 1
v 0.15 1 -0.2598076 1 1 1
v 0.15 0 0.2598076 1 1 1
v 0 0 0.3 1 1 1
v 0.15 1 0.2598076 1 1 1
v 0 1 0.3 1 1 1
v -0.15 0 0.2598076 1 1 1
v -0.15 1 0.2598076 1 1 1


vt 0.34375 0.145
vt 0.34375 0.225

usemtl colormap

f 75/8/34 74/7/27 73/7/34
f 74/7/27 75/8/34 76/8/27
f 79/8/36 78/7/32 77/8/32
f 78/7/32 79/8/36 80/7/36
f 83/7/31 82/8/35 81/7/35
f 82/8/35 83/7/31 84/8/31
f 85/8/29 80/7/36 79/8/36
f 80/7/36 85/8/29 86/7/29
f 87/7/26 84/8/31 83/7/31
f 84/8/31 87/7/26 88/8/26
f 76/8/27 89/7/28 74/7/27
f 89/7/28 76/8/27 90/8/28
f 93/8/30 92/7/33 91/7/30
f 92/7/33 93/8/30 94/8/33
f 96/8/25 87/7/26 95/7/25
f 87/7/26 96/8/25 88/8/26
f 90/8/28 78/7/32 89/7/28
f 78/7/32 90/8/28 77/8/32
f 81/7/35 75/8/34 73/7/34
f 75/8/34 81/7/35 82/8/35
f 93/8/30 86/7/29 85/8/29
f 86/7/29 93/8/30 91/7/30
f 94/8/33 95/7/25 92/7/33
f 95/7/25 94/8/33 96/8/25

g top

v 0.4 0.8 0 1 1 1
v 0.4 0.75 0 1 1 1
v 0.3464102 0.8 0.2 1 1 1
v 0.3464102 0.75 0.2 1 1 1
v -3.725294E-10 0.75 0.4 1 1 1
v -0.2 0.75 0.3464102 1 1 1
v 3.725308E-10 0.8 0.4 1 1 1
v -0.2 0.8 0.3464102 1 1 1
v 0.2 0.75 0.3464102 1 1 1
v 0.2 0.8 0.3464102 1 1 1
v 0.2 0.8 -0.3464102 1 1 1
v 0.2 0.75 -0.3464102 1 1 1
v 0.3464102 0.8 -0.2 1 1 1
v 0.3464102 0.75 -0.2 1 1 1
v -0.3464102 0.75 -0.2 1 1 1
v -0.3464102 0.8 -0.2 1 1 1
v -0.4 0.75 0 1 1 1
v -0.4 0.8 0 1 1 1
v -0.3464102 0.75 0.2 1 1 1
v -0.3464102 0.8 0.2 1 1 1
v -3.725294E-10 0.75 -0.4 1 1 1
v 3.725308E-10 0.8 -0.4 1 1 1
v -0.2 0.75 -0.3464102 1 1 1
v -0.2 0.8 -0.3464102 1 1 1
v 0.1741181 0.7 -0.3015814 1 1 1
v -1.11759E-09 0.7 -0.3482362 1 1 1
v 0.3482362 0.7 0 1 1 1
v 0.3015814 0.7 -0.1741181 1 1 1
v 0.3015814 0.7 0.1741181 1 1 1
v 0.1741181 0.7 0.3015814 1 1 1
v -1.11759E-09 0.7 0.3482362 1 1 1
v -0.1741181 0.7 0.3015814 1 1 1
v -0.1741181 0.7 -0.3015814 1 1 1
v -0.3015814 0.7 0.1741181 1 1 1
v -0.3015814 0.7 -0.1741181 1 1 1
v -0.3482362 0.7 0 1 1 1
v 0.5 1 -3.609557E-16 1 1 1
v 0.4330127 1 0.25 1 1 1
v 0.4330127 1 -0.25 1 1 1
v 0.25 1 0.4330127 1 1 1
v 0.25 1 -0.4330127 1 1 1
v 1.11759E-09 1 0.5 1 1 1
v 1.11759E-09 1 -0.5 1 1 1
v -0.25 1 -0.4330127 1 1 1
v -0.25 1 0.4330127 1 1 1
v -0.4330127 1 0.25 1 1 1
v -0.4330127 1 -0.25 1 1 1
v -0.5 1 -3.609557E-16 1 1 1
v 0.4330127 0.85 0.25 1 1 1
v 0.25 0.85 0.4330127 1 1 1
v -1.11759E-09 0.85 0.5 1 1 1
v -0.25 0.85 0.4330127 1 1 1
v -1.11759E-09 0.85 -0.5 1 1 1
v -0.25 0.85 -0.4330127 1 1 1
v -0.4330127 0.85 -0.25 1 1 1
v -0.5 0.85 -3.609557E-16 1 1 1
v 0.4330127 0.85 -0.25 1 1 1
v 0.5 0.85 -1.804779E-15 1 1 1
v 0.25 0.85 -0.4330127 1 1 1
v -0.4330127 0.85 0.25 1 1 1
v 0.4482362 0.8 -1.082867E-15 1 1 1
v 0.3881839 0.8 -0.2241181 1 1 1
v 0.3881839 0.8 0.2241181 1 1 1
v 0.2241181 0.8 0.3881839 1 1 1
v 0.2241181 0.8 -0.3881839 1 1 1
v -1.862652E-09 0.8 0.4482362 1 1 1
v -1.862652E-09 0.8 -0.4482362 1 1 1
v -0.2241181 0.8 0.3881839 1 1 1
v -0.2241181 0.8 -0.3881839 1 1 1
v -0.3881839 0.8 0.2241181 1 1 1
v -0.3881839 0.8 -0.2241181 1 1 1
v -0.4482362 0.8 -3.609557E-16 1 1 1

vn 0.9293313 -0.3692469 0
vn 0.8048245 -0.3692469 0.4646657
vn 0 -0.3692469 0.9293313
vn -0.4646657 -0.3692469 0.8048245
vn 0.4646657 -0.3692469 0.8048245
vn 0.4646657 -0.3692469 -0.8048245
vn 0.8048245 -0.3692469 -0.4646657
vn -0.8048245 -0.3692469 -0.4646657
vn -0.9293313 -0.3692469 0
vn -0.8048245 -0.3692469 0.4646657
vn 0 -0.3692469 -0.9293313
vn -0.4646657 -0.3692469 -0.8048245
vn 0.2128649 -0.9048504 -0.3686928
vn 0 -0.9048504 -0.4257298
vn 0.4257298 -0.9048504 0
vn 0.3686928 -0.9048504 -0.2128649
vn 0.3686928 -0.9048504 0.2128649
vn 0.2128649 -0.9048504 0.3686928
vn 0 -0.9048504 0.4257298
vn -0.2128649 -0.9048504 0.3686928
vn -0.2128649 -0.9048504 -0.3686928
vn -0.3686928 -0.9048502 0.2128649
vn -0.3686928 -0.9048502 -0.2128649
vn -0.4257298 -0.9048504 0
vn 0 1 0

vt 0.34375 0.075
vt 0.34375 0.07500001
vt 0.09375 0.175
vt 0.09375 0.1
vt 0.09375 0.075
vt 0.09375 0.075

usemtl colormap

f 99/1/29 98/2/62 97/1/36
f 98/2/62 99/1/29 100/2/63
f 103/1/33 102/2/65 101/2/64
f 102/2/65 103/1/33 104/1/25
f 99/1/29 105/2/66 100/2/63
f 105/2/66 99/1/29 106/1/30
f 109/1/32 108/2/67 107/1/28
f 108/2/67 109/1/32 110/2/68
f 113/2/70 112/1/35 111/2/69
f 112/1/35 113/2/70 114/1/31
f 106/1/30 101/2/64 105/2/66
f 101/2/64 106/1/30 103/1/33
f 102/2/65 116/1/26 115/2/71
f 116/1/26 102/2/65 104/1/25
f 97/1/36 110/2/68 109/1/32
f 110/2/68 97/1/36 98/2/62
f 119/2/73 118/1/27 117/2/72
f 118/1/27 119/2/73 120/1/34
f 111/2/69 120/1/34 119/2/73
f 120/1/34 111/2/69 112/1/35
f 117/2/72 107/1/28 108/2/67
f 107/1/28 117/2/72 118/1/27
f 115/2/71 114/1/31 113/2/70
f 114/1/31 115/2/71 116/1/26
f 121/3/74 117/2/72 108/2/67
f 117/2/72 121/3/74 122/9/75
f 125/3/78 124/3/77 123/3/76
f 124/3/77 125/3/78 126/3/79
f 124/3/77 126/3/79 121/3/74
f 121/3/74 126/3/79 127/9/80
f 121/3/74 127/9/80 122/9/75
f 122/9/75 127/9/80 128/9/81
f 122/9/75 128/9/81 129/9/82
f 129/9/82 128/9/81 130/10/83
f 129/9/82 130/10/83 131/10/84
f 131/10/84 130/10/83 132/10/85
f 115/2/71 132/10/85 130/10/83
f 132/10/85 115/2/71 113/2/70
f 101/2/64 126/3/79 105/2/66
f 126/3/79 101/2/64 127/9/80
f 102/2/65 127/9/80 101/2/64
f 127/9/80 102/2/65 128/9/81
f 123/3/76 110/2/68 98/2/62
f 110/2/68 123/3/76 124/3/77
f 122/9/75 119/2/73 117/2/72
f 119/2/73 122/9/75 129/9/82
f 131/10/84 119/2/73 129/9/82
f 119/2/73 131/10/84 111/2/69
f 102/2/65 130/10/83 128/9/81
f 130/10/83 102/2/65 115/2/71
f 105/2/66 125/3/78 100/2/63
f 125/3/78 105/2/66 126/3/79
f 100/2/63 123/3/76 98/2/62
f 123/3/76 100/2/63 125/3/78
f 124/3/77 108/2/67 110/2/68
f 108/2/67 124/3/77 121/3/74
f 132/10/85 111/2/69 131/10/84
f 111/2/69 132/10/85 113/2/70
f 135/11/86 134/11/86 133/11/86
f 134/11/86 135/11/86 136/11/86
f 136/11/86 135/11/86 137/11/86
f 136/11/86 137/11/86 138/11/86
f 138/11/86 137/11/86 139/11/86
f 138/11/86 139/11/86 140/11/86
f 138/11/86 140/11/86 141/11/86
f 141/11/86 140/11/86 142/11/86
f 142/11/86 140/11/86 143/11/86
f 142/11/86 143/11/86 144/11/86
f 134/11/29 146/12/66 145/12/63
f 146/12/66 134/11/29 136/11/30
f 138/11/33 148/12/65 147/12/64
f 148/12/65 138/11/33 141/11/25
f 136/11/30 147/12/64 146/12/66
f 147/12/64 136/11/30 138/11/33
f 150/12/73 139/11/27 149/12/72
f 139/11/27 150/12/73 140/11/34
f 151/12/69 144/11/31 143/11/35
f 144/11/31 151/12/69 152/12/70
f 133/11/36 153/12/68 135/11/32
f 153/12/68 133/11/36 154/12/62
f 135/11/32 155/12/67 137/11/28
f 155/12/67 135/11/32 153/12/68
f 151/12/69 140/11/34 150/12/73
f 140/11/34 151/12/69 143/11/35
f 149/12/72 137/11/28 155/12/67
f 137/11/28 149/12/72 139/11/27
f 141/11/25 156/12/71 148/12/65
f 156/12/71 141/11/25 142/11/26
f 156/12/71 144/11/31 152/12/70
f 144/11/31 156/12/71 142/11/26
f 159/13/78 158/13/77 157/13/76
f 158/13/77 159/13/78 160/13/79
f 158/13/77 160/13/79 161/13/74
f 161/13/74 160/13/79 162/14/80
f 161/13/74 162/14/80 163/14/75
f 163/14/75 162/14/80 164/14/81
f 163/14/75 164/14/81 165/14/82
f 165/14/82 164/14/81 166/14/83
f 165/14/82 166/14/83 167/14/84
f 167/14/84 166/14/83 168/14/85
f 167/14/84 150/12/73 165/14/82
f 150/12/73 167/14/84 151/12/69
f 133/11/36 145/12/63 154/12/62
f 145/12/63 133/11/36 134/11/29
f 148/12/65 166/14/83 164/14/81
f 166/14/83 148/12/65 156/12/71
f 146/12/66 159/13/78 145/12/63
f 159/13/78 146/12/66 160/13/79
f 148/12/65 162/14/80 147/12/64
f 162/14/80 148/12/65 164/14/81
f 147/12/64 160/13/79 146/12/66
f 160/13/79 147/12/64 162/14/80
f 156/12/71 168/14/85 166/14/83
f 168/14/85 156/12/71 152/12/70
f 168/14/85 151/12/69 167/14/84
f 151/12/69 168/14/85 152/12/70
f 163/14/75 150/12/73 149/12/72
f 150/12/73 163/14/75 165/14/82
f 161/13/74 149/12/72 155/12/67
f 149/12/72 161/13/74 163/14/75
f 158/13/77 155/12/67 153/12/68
f 155/12/67 158/13/77 161/13/74
f 145/12/63 157/13/76 154/12/62
f 157/13/76 145/12/63 159/13/78
f 157/13/76 153/12/68 154/12/62
f 153/12/68 157/13/76 158/13/77

