# Created by Kenney (www.kenney.nl)

mtllib scanner-high.mtl

g scanner-high

v -0.15 0.3 0.6 1 1 1
v 0.15 0.3 0.6 1 1 1
v -0.15 0.6 0.6 1 1 1
v 0.15 0.6 0.6 1 1 1
v -0.15 1 0.6 1 1 1
v 0.15 1 0.6 1 1 1
v 0.15 0.3 -0.6 1 1 1
v -0.15 0.3 -0.6 1 1 1
v 0.15 0.6 -0.6 1 1 1
v -0.15 0.6 -0.6 1 1 1
v 0.15 1 -0.6 1 1 1
v -0.15 1 -0.6 1 1 1
v 0.15 1.184776 -0.6765367 1 1 1
v -0.15 1.184776 -0.6765367 1 1 1
v 0.15 1.141421 -0.7414213 1 1 1
v -0.15 1.141421 -0.7414213 1 1 1
v -0.15 1 -0.8 1 1 1
v 0.15 1 -0.8 1 1 1
v -0.15 1.076537 -0.7847759 1 1 1
v 0.15 1.076537 -0.7847759 1 1 1
v 0.15 1.2 -0.6 1 1 1
v -0.15 1.2 -0.6 1 1 1
v -0.15 0.3 -0.8 1 1 1
v 0.15 0.3 -0.8 1 1 1
v 0.15 0.3 0.8 1 1 1
v 0.15 1.184776 0.6765367 1 1 1
v 0.15 1.141421 0.7414213 1 1 1
v 0.15 1.076537 0.7847759 1 1 1
v 0.15 1 0.8 1 1 1
v 0.15 1.2 0.6 1 1 1
v -0.15 1.2 0.6 1 1 1
v -0.15 0.3 0.8 1 1 1
v -0.15 1.184776 0.6765367 1 1 1
v -0.15 1.141421 0.7414213 1 1 1
v -0.15 1.076537 0.7847759 1 1 1
v -0.15 1 0.8 1 1 1
v 0.1744379 1.252556 0.3 1 1 1
v 0.1744379 1.252556 0.5 1 1 1
v 2.562785E-14 1.27 0.3 1 1 1
v 2.562785E-14 1.27 0.5 1 1 1
v -0.1744379 1.252556 0.3 1 1 1
v -0.1744379 1.252556 0.5 1 1 1
v -0.2033952 0.9754642 0.3 1 1 1
v -0.22 1.1 0.3 1 1 1
v -0.2033952 0.9754642 0.5 1 1 1
v -0.22 1.1 0.5 1 1 1
v 0.22 1.1 0.3 1 1 1
v 0.2033952 0.9754642 0.3 1 1 1
v 0.22 1.1 0.5 1 1 1
v 0.2033952 0.9754642 0.5 1 1 1
v 3.862226E-14 0.93 0.5 1 1 1
v 3.862226E-14 0.93 0.3 1 1 1
v -0.1744379 0.9474438 0.5 1 1 1
v -0.1744379 0.9474438 0.3 1 1 1
v 0.1744379 0.9474438 0.5 1 1 1
v 0.1744379 0.9474438 0.3 1 1 1
v -0.2033952 1.224536 0.3 1 1 1
v -0.2033952 1.224536 0.5 1 1 1
v 0.2033952 1.224536 0.3 1 1 1
v 0.2033952 1.224536 0.5 1 1 1
v 0.1744379 1.252556 -0.5 1 1 1
v 0.1744379 1.252556 -0.3 1 1 1
v 2.598881E-14 1.27 -0.5 1 1 1
v 2.598881E-14 1.27 -0.3 1 1 1
v -0.1744379 1.252556 -0.5 1 1 1
v -0.1744379 1.252556 -0.3 1 1 1
v -0.2033952 0.9754642 -0.5 1 1 1
v -0.22 1.1 -0.5 1 1 1
v -0.2033952 0.9754642 -0.3 1 1 1
v -0.22 1.1 -0.3 1 1 1
v 0.22 1.1 -0.5 1 1 1
v 0.2033952 0.9754642 -0.5 1 1 1
v 0.22 1.1 -0.3 1 1 1
v 0.2033952 0.9754642 -0.3 1 1 1
v 3.753939E-14 0.93 -0.3 1 1 1
v 3.753939E-14 0.93 -0.5 1 1 1
v -0.1744379 0.9474438 -0.3 1 1 1
v -0.1744379 0.9474438 -0.5 1 1 1
v 0.1744379 0.9474438 -0.3 1 1 1
v 0.1744379 0.9474438 -0.5 1 1 1
v -0.2033952 1.224536 -0.5 1 1 1
v -0.2033952 1.224536 -0.3 1 1 1
v 0.2033952 1.224536 -0.5 1 1 1
v 0.2033952 1.224536 -0.3 1 1 1
v 0.22 0.3 -0.7 1 1 1
v 0.2033952 0.3 -0.5754642 1 1 1
v 0.2033952 0.3 -0.8245358 1 1 1
v 0.1744379 0.3 -0.8525562 1 1 1
v 0.1744379 0.3 -0.5474438 1 1 1
v 0 0.3 -0.87 1 1 1
v 0 0.3 -0.53 1 1 1
v -0.174438 0.3 -0.8525562 1 1 1
v -0.174438 0.3 -0.5474438 1 1 1
v -0.2033952 0.3 -0.8245358 1 1 1
v -0.2033952 0.3 -0.5754642 1 1 1
v -0.22 0.3 -0.7 1 1 1
v 0.242 -1.263345E-15 -0.7 1 1 1
v 0.2237348 -2.707166E-16 -0.8369894 1 1 1
v 0.2237348 -2.222133E-15 -0.5630107 1 1 1
v 0.1918817 -4.511933E-17 -0.8678119 1 1 1
v 0.1918817 -2.47029E-15 -0.5321882 1 1 1
v 0 9.023908E-17 -0.887 1 1 1
v 0 -2.605649E-15 -0.513 1 1 1
v -0.1918817 -4.511933E-17 -0.8678119 1 1 1
v -0.1918817 -2.47029E-15 -0.5321882 1 1 1
v -0.2237348 -2.707166E-16 -0.8369894 1 1 1
v -0.2237348 -2.222133E-15 -0.5630107 1 1 1
v -0.242 -1.263345E-15 -0.7 1 1 1
v -0.1918817 -2.47029E-15 0.8678118 1 1 1
v -0.2237348 -2.233413E-15 0.8369893 1 1 1
v -0.174438 0.3 0.8525562 1 1 1
v -0.2033952 0.3 0.8245357 1 1 1
v 0 -2.605649E-15 0.887 1 1 1
v 0 0.3 0.8699999 1 1 1
v 0.1918817 -2.47029E-15 0.8678118 1 1 1
v 0.1744379 0.3 0.8525562 1 1 1
v 0.1918817 -4.511933E-17 0.5321881 1 1 1
v 0.1744379 0.3 0.5474437 1 1 1
v 0 9.023908E-17 0.513 1 1 1
v 0 0.3 0.53 1 1 1
v -0.242 -1.274625E-15 0.6999999 1 1 1
v -0.22 0.3 0.6999999 1 1 1
v -0.1918817 -4.511933E-17 0.5321881 1 1 1
v -0.174438 0.3 0.5474437 1 1 1
v -0.2237348 -2.819965E-16 0.5630106 1 1 1
v -0.2033952 0.3 0.5754642 1 1 1
v 0.2237348 -2.233413E-15 0.8369893 1 1 1
v 0.2033952 0.3 0.8245357 1 1 1
v 0.2237348 -2.819965E-16 0.5630106 1 1 1
v 0.2033952 0.3 0.5754642 1 1 1
v 0.242 -1.274625E-15 0.6999999 1 1 1
v 0.22 0.3 0.6999999 1 1 1

vn 0 0 -1
vn 0 0 1
vn 0 0.9238795 -0.3826834
vn 0 0.7071068 -0.7071068
vn 0 0.09801714 -0.9951847
vn 0 0.3826834 -0.9238795
vn 0 0.9951847 -0.09801714
vn 0 -1 0
vn 1 0 0
vn 0 0.9951847 0.09801714
vn -1 0 0
vn 0 0.9238795 0.3826834
vn 0 0.09801714 0.9951847
vn 0 0.3826834 0.9238795
vn 0 0.7071068 0.7071068
vn 0.420787 0.9071594 0
vn 0 1 0
vn -0.420787 0.9071594 0
vn -0.8928349 -0.4503842 0
vn 0.8928349 -0.4503842 0
vn -0.420787 -0.9071594 0
vn 0.420787 -0.9071594 0
vn -0.8928349 0.4503842 0
vn 0.8928349 0.4503842 0
vn 0.4255174 0.07062038 -0.9021905
vn 0.4136938 0.07021328 -0.9077046
vn 0 0.05657591 -0.9983982
vn -0.8894479 0.07899012 -0.4501589
vn -0.4255174 0.07062038 -0.9021905
vn -0.8906716 0.0789725 -0.447736
vn -0.4136938 0.07021328 -0.9077046
vn -0.9973219 0.07313694 0
vn -0.8894479 0.07899012 0.4501589
vn -0.8906716 0.0789725 0.447736
vn 0.9973219 0.07313694 0
vn 0.8894479 0.07899012 0.4501589
vn 0.8906716 0.0789725 0.447736
vn 0 0.05657591 0.9983982
vn -0.4255174 0.07062038 0.9021905
vn -0.4136938 0.07021328 0.9077046
vn 0.8894479 0.07899012 -0.4501589
vn 0.8906716 0.0789725 -0.447736
vn 0.4255174 0.07062038 0.9021905
vn 0.4136938 0.07021328 0.9077046

vt 0.59375 0.075
vt 0.59375 0.125
vt 0.59375 0.1916666
vt 0.59375 0.2224626
vt 0.59375 0.2152369
vt 0.59375 0.2044228
vt 0.59375 0.225
vt 0.71875 0.2147389
vt 0.71875 0.225
vt 0.71875 0.05174365
vt 0.71875 0.125
vt 0.71875 0.025
vt 0.71875 0.03526105
vt 0.71875 0.1982563
vt 0.84375 0.175
vt 0.84375 0.075

usemtl colormap

f 3/2/1 2/1/1 1/1/1
f 2/1/1 3/2/1 4/2/1
f 4/2/1 3/2/1 5/3/1
f 4/2/1 5/3/1 6/3/1
f 9/2/2 8/1/2 7/1/2
f 8/1/2 9/2/2 10/2/2
f 10/2/2 9/2/2 11/3/2
f 10/2/2 11/3/2 12/3/2
f 15/5/4 14/4/3 13/4/3
f 14/4/3 15/5/4 16/5/4
f 19/6/6 18/3/5 17/3/5
f 18/3/5 19/6/6 20/6/6
f 19/6/6 15/5/4 20/6/6
f 15/5/4 19/6/6 16/5/4
f 13/4/3 22/7/7 21/7/7
f 22/7/7 13/4/3 14/4/3
f 17/3/5 24/1/1 23/1/1
f 24/1/1 17/3/5 18/3/5
f 6/3/8 12/3/8 11/3/8
f 12/3/8 6/3/8 5/3/8
f 4/2/9 25/1/9 2/1/9
f 25/1/9 4/2/9 26/4/9
f 6/3/9 26/4/9 4/2/9
f 25/1/9 26/4/9 27/5/9
f 25/1/9 27/5/9 28/6/9
f 25/1/9 28/6/9 29/3/9
f 6/3/9 30/7/9 26/4/9
f 11/3/9 30/7/9 6/3/9
f 30/7/9 11/3/9 21/7/9
f 7/1/9 21/7/9 11/3/9
f 7/1/9 11/3/9 9/2/9
f 7/1/9 13/4/9 21/7/9
f 7/1/9 15/5/9 13/4/9
f 7/1/9 20/6/9 15/5/9
f 24/1/9 20/6/9 7/1/9
f 20/6/9 24/1/9 18/3/9
f 22/7/7 30/7/10 21/7/7
f 30/7/10 22/7/7 31/7/10
f 32/1/11 3/2/11 1/1/11
f 3/2/11 32/1/11 33/4/11
f 33/4/11 5/3/11 3/2/11
f 33/4/11 32/1/11 34/5/11
f 34/5/11 32/1/11 35/6/11
f 35/6/11 32/1/11 36/3/11
f 31/7/11 5/3/11 33/4/11
f 31/7/11 12/3/11 5/3/11
f 22/7/11 12/3/11 31/7/11
f 22/7/11 10/2/11 12/3/11
f 22/7/11 8/1/11 10/2/11
f 14/4/11 8/1/11 22/7/11
f 16/5/11 8/1/11 14/4/11
f 19/6/11 8/1/11 16/5/11
f 17/3/11 8/1/11 19/6/11
f 8/1/11 17/3/11 23/1/11
f 30/7/10 33/4/12 26/4/12
f 33/4/12 30/7/10 31/7/10
f 29/3/13 35/6/14 36/3/13
f 35/6/14 29/3/13 28/6/14
f 26/4/12 34/5/15 27/5/15
f 34/5/15 26/4/12 33/4/12
f 28/6/14 34/5/15 35/6/14
f 34/5/15 28/6/14 27/5/15
f 29/3/13 32/1/2 25/1/2
f 32/1/2 29/3/13 36/3/13
f 39/9/17 38/8/16 37/8/16
f 38/8/16 39/9/17 40/9/17
f 41/8/18 40/9/17 39/9/17
f 40/9/17 41/8/18 42/8/18
f 45/10/19 44/11/11 43/10/19
f 44/11/11 45/10/19 46/11/11
f 49/11/9 48/10/20 47/11/9
f 48/10/20 49/11/9 50/10/20
f 53/13/21 52/12/8 51/12/8
f 52/12/8 53/13/21 54/13/21
f 51/12/8 56/13/22 55/13/22
f 56/13/22 51/12/8 52/12/8
f 46/11/11 57/14/23 44/11/11
f 57/14/23 46/11/11 58/14/23
f 60/14/24 47/11/9 59/14/24
f 47/11/9 60/14/24 49/11/9
f 57/14/23 42/8/18 41/8/18
f 42/8/18 57/14/23 58/14/23
f 45/10/19 54/13/21 53/13/21
f 54/13/21 45/10/19 43/10/19
f 55/13/22 48/10/20 50/10/20
f 48/10/20 55/13/22 56/13/22
f 37/8/16 60/14/24 59/14/24
f 60/14/24 37/8/16 38/8/16
f 55/13/2 53/13/2 51/12/2
f 53/13/2 55/13/2 45/10/2
f 45/10/2 55/13/2 50/10/2
f 45/10/2 50/10/2 46/11/2
f 46/11/2 50/10/2 49/11/2
f 46/11/2 49/11/2 58/14/2
f 58/14/2 49/11/2 60/14/2
f 58/14/2 60/14/2 42/8/2
f 42/8/2 60/14/2 38/8/2
f 42/8/2 38/8/2 40/9/2
f 54/13/1 56/13/1 52/12/1
f 56/13/1 54/13/1 43/10/1
f 56/13/1 43/10/1 48/10/1
f 48/10/1 43/10/1 44/11/1
f 48/10/1 44/11/1 47/11/1
f 47/11/1 44/11/1 57/14/1
f 47/11/1 57/14/1 59/14/1
f 59/14/1 57/14/1 41/8/1
f 59/14/1 41/8/1 37/8/1
f 37/8/1 41/8/1 39/9/1
f 63/9/17 62/8/16 61/8/16
f 62/8/16 63/9/17 64/9/17
f 65/8/18 64/9/17 63/9/17
f 64/9/17 65/8/18 66/8/18
f 69/10/19 68/11/11 67/10/19
f 68/11/11 69/10/19 70/11/11
f 73/11/9 72/10/20 71/11/9
f 72/10/20 73/11/9 74/10/20
f 77/13/21 76/12/8 75/12/8
f 76/12/8 77/13/21 78/13/21
f 75/12/8 80/13/22 79/13/22
f 80/13/22 75/12/8 76/12/8
f 70/11/11 81/14/23 68/11/11
f 81/14/23 70/11/11 82/14/23
f 84/14/24 71/11/9 83/14/24
f 71/11/9 84/14/24 73/11/9
f 81/14/23 66/8/18 65/8/18
f 66/8/18 81/14/23 82/14/23
f 69/10/19 78/13/21 77/13/21
f 78/13/21 69/10/19 67/10/19
f 79/13/22 72/10/20 74/10/20
f 72/10/20 79/13/22 80/13/22
f 61/8/16 84/14/24 83/14/24
f 84/14/24 61/8/16 62/8/16
f 79/13/2 77/13/2 75/12/2
f 77/13/2 79/13/2 69/10/2
f 69/10/2 79/13/2 74/10/2
f 69/10/2 74/10/2 70/11/2
f 70/11/2 74/10/2 73/11/2
f 70/11/2 73/11/2 82/14/2
f 82/14/2 73/11/2 84/14/2
f 82/14/2 84/14/2 66/8/2
f 66/8/2 84/14/2 62/8/2
f 66/8/2 62/8/2 64/9/2
f 78/13/1 80/13/1 76/12/1
f 80/13/1 78/13/1 67/10/1
f 80/13/1 67/10/1 72/10/1
f 72/10/1 67/10/1 68/11/1
f 72/10/1 68/11/1 71/11/1
f 71/11/1 68/11/1 81/14/1
f 71/11/1 81/14/1 83/14/1
f 83/14/1 81/14/1 65/8/1
f 83/14/1 65/8/1 61/8/1
f 61/8/1 65/8/1 63/9/1
f 87/15/17 86/15/17 85/15/17
f 86/15/17 87/15/17 88/15/17
f 86/15/17 88/15/17 89/15/17
f 89/15/17 88/15/17 90/15/17
f 89/15/17 90/15/17 91/15/17
f 91/15/17 90/15/17 92/15/17
f 91/15/17 92/15/17 93/15/17
f 93/15/17 92/15/17 94/15/17
f 93/15/17 94/15/17 95/15/17
f 95/15/17 94/15/17 96/15/17
f 99/16/8 98/16/8 97/16/8
f 98/16/8 99/16/8 100/16/8
f 100/16/8 99/16/8 101/16/8
f 100/16/8 101/16/8 102/16/8
f 102/16/8 101/16/8 103/16/8
f 102/16/8 103/16/8 104/16/8
f 104/16/8 103/16/8 105/16/8
f 104/16/8 105/16/8 106/16/8
f 106/16/8 105/16/8 107/16/8
f 106/16/8 107/16/8 108/16/8
f 102/16/27 88/15/26 100/16/25
f 88/15/26 102/16/27 90/15/27
f 94/15/30 104/16/29 106/16/28
f 104/16/29 94/15/30 92/15/31
f 92/15/31 102/16/27 104/16/29
f 102/16/27 92/15/31 90/15/27
f 107/16/33 96/15/32 108/16/32
f 96/15/32 107/16/33 95/15/34
f 85/15/35 99/16/36 97/16/35
f 99/16/36 85/15/35 86/15/37
f 91/15/38 105/16/39 103/16/38
f 105/16/39 91/15/38 93/15/40
f 87/15/42 97/16/35 98/16/41
f 97/16/35 87/15/42 85/15/35
f 108/16/32 94/15/30 106/16/28
f 94/15/30 108/16/32 96/15/32
f 93/15/40 107/16/33 105/16/39
f 107/16/33 93/15/40 95/15/34
f 99/16/36 89/15/44 101/16/43
f 89/15/44 99/16/36 86/15/37
f 100/16/25 87/15/42 98/16/41
f 87/15/42 100/16/25 88/15/26
f 101/16/43 91/15/38 103/16/38
f 91/15/38 101/16/43 89/15/44
f 111/15/40 110/16/33 109/16/39
f 110/16/33 111/15/40 112/15/34
f 115/16/43 114/15/38 113/16/38
f 114/15/38 115/16/43 116/15/44
f 114/15/38 109/16/39 113/16/38
f 109/16/39 114/15/38 111/15/40
f 119/16/27 118/15/26 117/16/25
f 118/15/26 119/16/27 120/15/27
f 110/16/33 122/15/32 121/16/32
f 122/15/32 110/16/33 112/15/34
f 124/15/31 119/16/27 123/16/29
f 119/16/27 124/15/31 120/15/27
f 121/16/32 126/15/30 125/16/28
f 126/15/30 121/16/32 122/15/32
f 127/16/36 116/15/44 115/16/43
f 116/15/44 127/16/36 128/15/37
f 117/16/25 130/15/42 129/16/41
f 130/15/42 117/16/25 118/15/26
f 130/15/42 131/16/35 129/16/41
f 131/16/35 130/15/42 132/15/35
f 126/15/30 123/16/29 125/16/28
f 123/16/29 126/15/30 124/15/31
f 132/15/35 127/16/36 131/16/35
f 127/16/36 132/15/35 128/15/37
f 127/16/8 129/16/8 131/16/8
f 129/16/8 127/16/8 117/16/8
f 117/16/8 127/16/8 115/16/8
f 117/16/8 115/16/8 119/16/8
f 119/16/8 115/16/8 113/16/8
f 119/16/8 113/16/8 123/16/8
f 123/16/8 113/16/8 109/16/8
f 123/16/8 109/16/8 125/16/8
f 125/16/8 109/16/8 110/16/8
f 125/16/8 110/16/8 121/16/8
f 130/15/17 128/15/17 132/15/17
f 128/15/17 130/15/17 118/15/17
f 128/15/17 118/15/17 116/15/17
f 116/15/17 118/15/17 120/15/17
f 116/15/17 120/15/17 114/15/17
f 114/15/17 120/15/17 124/15/17
f 114/15/17 124/15/17 111/15/17
f 111/15/17 124/15/17 126/15/17
f 111/15/17 126/15/17 112/15/17
f 112/15/17 126/15/17 122/15/17

g scanner-high




usemtl colormap

f 3/2/1 2/1/1 1/1/1
f 2/1/1 3/2/1 4/2/1
f 4/2/1 3/2/1 5/3/1
f 4/2/1 5/3/1 6/3/1
f 9/2/2 8/1/2 7/1/2
f 8/1/2 9/2/2 10/2/2
f 10/2/2 9/2/2 11/3/2
f 10/2/2 11/3/2 12/3/2
f 15/5/4 14/4/3 13/4/3
f 14/4/3 15/5/4 16/5/4
f 19/6/6 18/3/5 17/3/5
f 18/3/5 19/6/6 20/6/6
f 19/6/6 15/5/4 20/6/6
f 15/5/4 19/6/6 16/5/4
f 13/4/3 22/7/7 21/7/7
f 22/7/7 13/4/3 14/4/3
f 17/3/5 24/1/1 23/1/1
f 24/1/1 17/3/5 18/3/5
f 6/3/8 12/3/8 11/3/8
f 12/3/8 6/3/8 5/3/8
f 4/2/9 25/1/9 2/1/9
f 25/1/9 4/2/9 26/4/9
f 6/3/9 26/4/9 4/2/9
f 25/1/9 26/4/9 27/5/9
f 25/1/9 27/5/9 28/6/9
f 25/1/9 28/6/9 29/3/9
f 6/3/9 30/7/9 26/4/9
f 11/3/9 30/7/9 6/3/9
f 30/7/9 11/3/9 21/7/9
f 7/1/9 21/7/9 11/3/9
f 7/1/9 11/3/9 9/2/9
f 7/1/9 13/4/9 21/7/9
f 7/1/9 15/5/9 13/4/9
f 7/1/9 20/6/9 15/5/9
f 24/1/9 20/6/9 7/1/9
f 20/6/9 24/1/9 18/3/9
f 22/7/7 30/7/10 21/7/7
f 30/7/10 22/7/7 31/7/10
f 32/1/11 3/2/11 1/1/11
f 3/2/11 32/1/11 33/4/11
f 33/4/11 5/3/11 3/2/11
f 33/4/11 32/1/11 34/5/11
f 34/5/11 32/1/11 35/6/11
f 35/6/11 32/1/11 36/3/11
f 31/7/11 5/3/11 33/4/11
f 31/7/11 12/3/11 5/3/11
f 22/7/11 12/3/11 31/7/11
f 22/7/11 10/2/11 12/3/11
f 22/7/11 8/1/11 10/2/11
f 14/4/11 8/1/11 22/7/11
f 16/5/11 8/1/11 14/4/11
f 19/6/11 8/1/11 16/5/11
f 17/3/11 8/1/11 19/6/11
f 8/1/11 17/3/11 23/1/11
f 30/7/10 33/4/12 26/4/12
f 33/4/12 30/7/10 31/7/10
f 29/3/13 35/6/14 36/3/13
f 35/6/14 29/3/13 28/6/14
f 26/4/12 34/5/15 27/5/15
f 34/5/15 26/4/12 33/4/12
f 28/6/14 34/5/15 35/6/14
f 34/5/15 28/6/14 27/5/15
f 29/3/13 32/1/2 25/1/2
f 32/1/2 29/3/13 36/3/13
f 39/9/17 38/8/16 37/8/16
f 38/8/16 39/9/17 40/9/17
f 41/8/18 40/9/17 39/9/17
f 40/9/17 41/8/18 42/8/18
f 45/10/19 44/11/11 43/10/19
f 44/11/11 45/10/19 46/11/11
f 49/11/9 48/10/20 47/11/9
f 48/10/20 49/11/9 50/10/20
f 53/13/21 52/12/8 51/12/8
f 52/12/8 53/13/21 54/13/21
f 51/12/8 56/13/22 55/13/22
f 56/13/22 51/12/8 52/12/8
f 46/11/11 57/14/23 44/11/11
f 57/14/23 46/11/11 58/14/23
f 60/14/24 47/11/9 59/14/24
f 47/11/9 60/14/24 49/11/9
f 57/14/23 42/8/18 41/8/18
f 42/8/18 57/14/23 58/14/23
f 45/10/19 54/13/21 53/13/21
f 54/13/21 45/10/19 43/10/19
f 55/13/22 48/10/20 50/10/20
f 48/10/20 55/13/22 56/13/22
f 37/8/16 60/14/24 59/14/24
f 60/14/24 37/8/16 38/8/16
f 55/13/2 53/13/2 51/12/2
f 53/13/2 55/13/2 45/10/2
f 45/10/2 55/13/2 50/10/2
f 45/10/2 50/10/2 46/11/2
f 46/11/2 50/10/2 49/11/2
f 46/11/2 49/11/2 58/14/2
f 58/14/2 49/11/2 60/14/2
f 58/14/2 60/14/2 42/8/2
f 42/8/2 60/14/2 38/8/2
f 42/8/2 38/8/2 40/9/2
f 54/13/1 56/13/1 52/12/1
f 56/13/1 54/13/1 43/10/1
f 56/13/1 43/10/1 48/10/1
f 48/10/1 43/10/1 44/11/1
f 48/10/1 44/11/1 47/11/1
f 47/11/1 44/11/1 57/14/1
f 47/11/1 57/14/1 59/14/1
f 59/14/1 57/14/1 41/8/1
f 59/14/1 41/8/1 37/8/1
f 37/8/1 41/8/1 39/9/1
f 63/9/17 62/8/16 61/8/16
f 62/8/16 63/9/17 64/9/17
f 65/8/18 64/9/17 63/9/17
f 64/9/17 65/8/18 66/8/18
f 69/10/19 68/11/11 67/10/19
f 68/11/11 69/10/19 70/11/11
f 73/11/9 72/10/20 71/11/9
f 72/10/20 73/11/9 74/10/20
f 77/13/21 76/12/8 75/12/8
f 76/12/8 77/13/21 78/13/21
f 75/12/8 80/13/22 79/13/22
f 80/13/22 75/12/8 76/12/8
f 70/11/11 81/14/23 68/11/11
f 81/14/23 70/11/11 82/14/23
f 84/14/24 71/11/9 83/14/24
f 71/11/9 84/14/24 73/11/9
f 81/14/23 66/8/18 65/8/18
f 66/8/18 81/14/23 82/14/23
f 69/10/19 78/13/21 77/13/21
f 78/13/21 69/10/19 67/10/19
f 79/13/22 72/10/20 74/10/20
f 72/10/20 79/13/22 80/13/22
f 61/8/16 84/14/24 83/14/24
f 84/14/24 61/8/16 62/8/16
f 79/13/2 77/13/2 75/12/2
f 77/13/2 79/13/2 69/10/2
f 69/10/2 79/13/2 74/10/2
f 69/10/2 74/10/2 70/11/2
f 70/11/2 74/10/2 73/11/2
f 70/11/2 73/11/2 82/14/2
f 82/14/2 73/11/2 84/14/2
f 82/14/2 84/14/2 66/8/2
f 66/8/2 84/14/2 62/8/2
f 66/8/2 62/8/2 64/9/2
f 78/13/1 80/13/1 76/12/1
f 80/13/1 78/13/1 67/10/1
f 80/13/1 67/10/1 72/10/1
f 72/10/1 67/10/1 68/11/1
f 72/10/1 68/11/1 71/11/1
f 71/11/1 68/11/1 81/14/1
f 71/11/1 81/14/1 83/14/1
f 83/14/1 81/14/1 65/8/1
f 83/14/1 65/8/1 61/8/1
f 61/8/1 65/8/1 63/9/1
f 87/15/17 86/15/17 85/15/17
f 86/15/17 87/15/17 88/15/17
f 86/15/17 88/15/17 89/15/17
f 89/15/17 88/15/17 90/15/17
f 89/15/17 90/15/17 91/15/17
f 91/15/17 90/15/17 92/15/17
f 91/15/17 92/15/17 93/15/17
f 93/15/17 92/15/17 94/15/17
f 93/15/17 94/15/17 95/15/17
f 95/15/17 94/15/17 96/15/17
f 99/16/8 98/16/8 97/16/8
f 98/16/8 99/16/8 100/16/8
f 100/16/8 99/16/8 101/16/8
f 100/16/8 101/16/8 102/16/8
f 102/16/8 101/16/8 103/16/8
f 102/16/8 103/16/8 104/16/8
f 104/16/8 103/16/8 105/16/8
f 104/16/8 105/16/8 106/16/8
f 106/16/8 105/16/8 107/16/8
f 106/16/8 107/16/8 108/16/8
f 102/16/27 88/15/26 100/16/25
f 88/15/26 102/16/27 90/15/27
f 94/15/30 104/16/29 106/16/28
f 104/16/29 94/15/30 92/15/31
f 92/15/31 102/16/27 104/16/29
f 102/16/27 92/15/31 90/15/27
f 107/16/33 96/15/32 108/16/32
f 96/15/32 107/16/33 95/15/34
f 85/15/35 99/16/36 97/16/35
f 99/16/36 85/15/35 86/15/37
f 91/15/38 105/16/39 103/16/38
f 105/16/39 91/15/38 93/15/40
f 87/15/42 97/16/35 98/16/41
f 97/16/35 87/15/42 85/15/35
f 108/16/32 94/15/30 106/16/28
f 94/15/30 108/16/32 96/15/32
f 93/15/40 107/16/33 105/16/39
f 107/16/33 93/15/40 95/15/34
f 99/16/36 89/15/44 101/16/43
f 89/15/44 99/16/36 86/15/37
f 100/16/25 87/15/42 98/16/41
f 87/15/42 100/16/25 88/15/26
f 101/16/43 91/15/38 103/16/38
f 91/15/38 101/16/43 89/15/44
f 111/15/40 110/16/33 109/16/39
f 110/16/33 111/15/40 112/15/34
f 115/16/43 114/15/38 113/16/38
f 114/15/38 115/16/43 116/15/44
f 114/15/38 109/16/39 113/16/38
f 109/16/39 114/15/38 111/15/40
f 119/16/27 118/15/26 117/16/25
f 118/15/26 119/16/27 120/15/27
f 110/16/33 122/15/32 121/16/32
f 122/15/32 110/16/33 112/15/34
f 124/15/31 119/16/27 123/16/29
f 119/16/27 124/15/31 120/15/27
f 121/16/32 126/15/30 125/16/28
f 126/15/30 121/16/32 122/15/32
f 127/16/36 116/15/44 115/16/43
f 116/15/44 127/16/36 128/15/37
f 117/16/25 130/15/42 129/16/41
f 130/15/42 117/16/25 118/15/26
f 130/15/42 131/16/35 129/16/41
f 131/16/35 130/15/42 132/15/35
f 126/15/30 123/16/29 125/16/28
f 123/16/29 126/15/30 124/15/31
f 132/15/35 127/16/36 131/16/35
f 127/16/36 132/15/35 128/15/37
f 127/16/8 129/16/8 131/16/8
f 129/16/8 127/16/8 117/16/8
f 117/16/8 127/16/8 115/16/8
f 117/16/8 115/16/8 119/16/8
f 119/16/8 115/16/8 113/16/8
f 119/16/8 113/16/8 123/16/8
f 123/16/8 113/16/8 109/16/8
f 123/16/8 109/16/8 125/16/8
f 125/16/8 109/16/8 110/16/8
f 125/16/8 110/16/8 121/16/8
f 130/15/17 128/15/17 132/15/17
f 128/15/17 130/15/17 118/15/17
f 128/15/17 118/15/17 116/15/17
f 116/15/17 118/15/17 120/15/17
f 116/15/17 120/15/17 114/15/17
f 114/15/17 120/15/17 124/15/17
f 114/15/17 124/15/17 111/15/17
f 111/15/17 124/15/17 126/15/17
f 111/15/17 126/15/17 112/15/17
f 112/15/17 126/15/17 122/15/17

