# Created by Kenney (www.kenney.nl)

mtllib scanner-low.mtl

g scanner-low

v 0.15 4.511946E-17 0.8 1 1 1
v 0.15 2.465655E-14 0.7 1 1 1
v -0.15 4.511946E-17 0.8 1 1 1
v -0.15 2.465655E-14 0.7 1 1 1
v -0.35 3.275673E-14 0.55 1 1 1
v 0.35 3.311768E-14 0.55 1 1 1
v -0.35 0.2 0.55 1 1 1
v 0.35 0.2 0.55 1 1 1
v -0.15 0.3 0.55 1 1 1
v 0.15 0.3 0.55 1 1 1
v -0.35 3.275673E-14 0.7 1 1 1
v -0.35 0.2 0.7 1 1 1
v 0.35 3.311768E-14 0.7 1 1 1
v 0.35 0.2 0.7 1 1 1
v -0.15 0.3 0.7 1 1 1
v 0.15 0.3 0.7 1 1 1
v -0.35 -4.511946E-17 -0.7 1 1 1
v 0.35 3.158362E-16 -0.7 1 1 1
v -0.35 0.2 -0.7 1 1 1
v 0.35 0.2 -0.7 1 1 1
v -0.15 0.3 -0.7 1 1 1
v 0.15 0.3 -0.7 1 1 1
v -0.35 -4.511946E-17 -0.55 1 1 1
v -0.35 0.2 -0.55 1 1 1
v 0.35 3.158362E-16 -0.55 1 1 1
v 0.35 0.2 -0.55 1 1 1
v -0.15 0.3 -0.55 1 1 1
v 0.15 0.3 -0.55 1 1 1
v 0.15 3.280879E-14 0.6 1 1 1
v 0.15 0.3 0.6 1 1 1
v -0.15 3.280879E-14 0.6 1 1 1
v -0.15 0.3 0.6 1 1 1
v -0.15 0.8 0.6 1 1 1
v 0.15 0.8 0.6 1 1 1
v 0.15 2.007714E-29 -0.6 1 1 1
v -0.15 3.468416E-29 -0.6 1 1 1
v 0.15 0.3 -0.6 1 1 1
v -0.15 0.3 -0.6 1 1 1
v 0.15 0.8 -0.6 1 1 1
v -0.15 0.8 -0.6 1 1 1
v 0.15 0 -0.8 1 1 1
v -0.15 0 -0.8 1 1 1
v 0.15 -3.52031E-17 -0.7 1 1 1
v -0.15 -3.52031E-17 -0.7 1 1 1
v 0.15 0.9847759 -0.6765367 1 1 1
v -0.15 0.9847759 -0.6765367 1 1 1
v 0.15 0.9414213 -0.7414213 1 1 1
v -0.15 0.9414213 -0.7414213 1 1 1
v -0.15 0.8 -0.8 1 1 1
v 0.15 0.8 -0.8 1 1 1
v -0.15 0.8765367 -0.7847759 1 1 1
v 0.15 0.8765367 -0.7847759 1 1 1
v 0.15 1 -0.6 1 1 1
v -0.15 1 -0.6 1 1 1
v 0.15 0.9847759 0.6765367 1 1 1
v 0.15 0.9414213 0.7414213 1 1 1
v 0.15 1 0.6 1 1 1
v 0.15 0.8765367 0.7847759 1 1 1
v 0.15 0.8 0.8 1 1 1
v -0.15 1 0.6 1 1 1
v -0.15 0.9847759 0.6765367 1 1 1
v -0.15 0.9414213 0.7414213 1 1 1
v -0.15 0.8765367 0.7847759 1 1 1
v -0.15 0.8 0.8 1 1 1
v 0.1744379 1.052556 0.3 1 1 1
v 0.1744379 1.052556 0.5 1 1 1
v 2.562785E-14 1.07 0.3 1 1 1
v 2.562785E-14 1.07 0.5 1 1 1
v -0.1744379 1.052556 0.3 1 1 1
v -0.1744379 1.052556 0.5 1 1 1
v -0.2033952 0.7754642 0.3 1 1 1
v -0.22 0.9 0.3 1 1 1
v -0.2033952 0.7754642 0.5 1 1 1
v -0.22 0.9 0.5 1 1 1
v 0.22 0.9 0.3 1 1 1
v 0.2033952 0.7754642 0.3 1 1 1
v 0.22 0.9 0.5 1 1 1
v 0.2033952 0.7754642 0.5 1 1 1
v 3.862226E-14 0.73 0.5 1 1 1
v 3.862226E-14 0.73 0.3 1 1 1
v -0.1744379 0.7474438 0.5 1 1 1
v -0.1744379 0.7474438 0.3 1 1 1
v 0.1744379 0.7474438 0.5 1 1 1
v 0.1744379 0.7474438 0.3 1 1 1
v -0.2033952 1.024536 0.3 1 1 1
v -0.2033952 1.024536 0.5 1 1 1
v 0.2033952 1.024536 0.3 1 1 1
v 0.2033952 1.024536 0.5 1 1 1
v 0.1744379 1.052556 -0.5 1 1 1
v 0.1744379 1.052556 -0.3 1 1 1
v 2.562785E-14 1.07 -0.5 1 1 1
v 2.562785E-14 1.07 -0.3 1 1 1
v -0.1744379 1.052556 -0.5 1 1 1
v -0.1744379 1.052556 -0.3 1 1 1
v -0.2033952 0.7754642 -0.5 1 1 1
v -0.22 0.9 -0.5 1 1 1
v -0.2033952 0.7754642 -0.3 1 1 1
v -0.22 0.9 -0.3 1 1 1
v 0.22 0.9 -0.5 1 1 1
v 0.2033952 0.7754642 -0.5 1 1 1
v 0.22 0.9 -0.3 1 1 1
v 0.2033952 0.7754642 -0.3 1 1 1
v 3.862226E-14 0.73 -0.3 1 1 1
v 3.862226E-14 0.73 -0.5 1 1 1
v -0.1744379 0.7474438 -0.3 1 1 1
v -0.1744379 0.7474438 -0.5 1 1 1
v 0.1744379 0.7474438 -0.3 1 1 1
v 0.1744379 0.7474438 -0.5 1 1 1
v -0.2033952 1.024536 -0.5 1 1 1
v -0.2033952 1.024536 -0.3 1 1 1
v 0.2033952 1.024536 -0.5 1 1 1
v 0.2033952 1.024536 -0.3 1 1 1

vn 0 -1 0
vn 0 0 -1
vn 0 0 1
vn -0.4472136 0.8944272 0
vn -0.8506508 0.5257311 0
vn 0.8506508 -0.5257311 0
vn 0.4472136 -0.8944272 0
vn 0 1 0
vn 0.8506508 0.5257311 0
vn 0.4472136 0.8944272 0
vn -0.4472136 -0.8944272 0
vn -0.8506508 -0.5257311 0
vn 1 0 0
vn -1 0 0
vn 0 0.9238795 -0.3826834
vn 0 0.7071068 -0.7071068
vn 0 0.09801714 -0.9951847
vn 0 0.3826834 -0.9238795
vn 0 0.9951847 -0.09801714
vn 0 0.9951847 0.09801714
vn 0 0.9238795 0.3826834
vn 0 0.09801714 0.9951847
vn 0 0.3826834 0.9238795
vn 0 0.7071068 0.7071068
vn 0.420787 0.9071594 0
vn -0.420787 0.9071594 0
vn -0.8928349 -0.4503842 0
vn 0.8928349 -0.4503842 0
vn -0.420787 -0.9071594 0
vn 0.420787 -0.9071594 0
vn -0.8928349 0.4503842 0
vn 0.8928349 0.4503842 0

vt 0.34375 0.025
vt 0.34375 0.075
vt 0.34375 0.1416667
vt 0.34375 0.175
vt 0.09375 0.025
vt 0.09375 0.085
vt 0.09375 0.185
vt 0.09375 0.2219552
vt 0.09375 0.2132843
vt 0.09375 0.2003073
vt 0.09375 0.225
vt 0.09375 0.2147389
vt 0.09375 0.05174365
vt 0.09375 0.125
vt 0.09375 0.03526105
vt 0.09375 0.1982563

usemtl colormap

f 3/1/1 2/1/1 1/1/1
f 2/1/1 3/1/1 4/1/1
f 7/3/2 6/2/2 5/2/2
f 6/2/2 7/3/2 8/3/2
f 8/3/2 7/3/2 9/4/2
f 8/3/2 9/4/2 10/4/2
f 5/2/3 6/2/3 7/3/3
f 8/3/3 7/3/3 6/2/3
f 9/4/3 7/3/3 8/3/3
f 10/4/3 9/4/3 8/3/3
f 13/2/3 12/3/3 11/2/3
f 12/3/3 13/2/3 14/3/3
f 12/3/3 14/3/3 15/4/3
f 15/4/3 14/3/3 16/4/3
f 11/2/2 12/3/2 13/2/2
f 14/3/2 13/2/2 12/3/2
f 15/4/2 14/3/2 12/3/2
f 16/4/2 14/3/2 15/4/2
f 7/3/5 15/4/4 9/4/4
f 15/4/4 7/3/5 12/3/5
f 9/4/7 15/4/7 7/3/6
f 12/3/6 7/3/6 15/4/7
f 9/4/8 16/4/8 10/4/8
f 16/4/8 9/4/8 15/4/8
f 10/4/1 16/4/1 9/4/1
f 15/4/1 9/4/1 16/4/1
f 10/4/10 14/3/9 8/3/9
f 14/3/9 10/4/10 16/4/10
f 8/3/12 14/3/12 10/4/11
f 16/4/11 10/4/11 14/3/12
f 14/3/9 6/2/13 8/3/9
f 6/2/13 14/3/9 13/2/13
f 8/3/12 6/2/14 14/3/12
f 13/2/14 14/3/12 6/2/14
f 11/2/1 6/2/1 13/2/1
f 6/2/1 11/2/1 5/2/1
f 13/2/8 6/2/8 11/2/8
f 5/2/8 11/2/8 6/2/8
f 11/2/14 7/3/5 5/2/14
f 7/3/5 11/2/14 12/3/5
f 5/2/13 7/3/6 11/2/13
f 12/3/6 11/2/13 7/3/6
f 19/3/2 18/2/2 17/2/2
f 18/2/2 19/3/2 20/3/2
f 20/3/2 19/3/2 21/4/2
f 20/3/2 21/4/2 22/4/2
f 17/2/3 18/2/3 19/3/3
f 20/3/3 19/3/3 18/2/3
f 21/4/3 19/3/3 20/3/3
f 22/4/3 21/4/3 20/3/3
f 25/2/3 24/3/3 23/2/3
f 24/3/3 25/2/3 26/3/3
f 24/3/3 26/3/3 27/4/3
f 27/4/3 26/3/3 28/4/3
f 23/2/2 24/3/2 25/2/2
f 26/3/2 25/2/2 24/3/2
f 27/4/2 26/3/2 24/3/2
f 28/4/2 26/3/2 27/4/2
f 19/3/5 27/4/4 21/4/4
f 27/4/4 19/3/5 24/3/5
f 21/4/7 27/4/7 19/3/6
f 24/3/6 19/3/6 27/4/7
f 21/4/8 28/4/8 22/4/8
f 28/4/8 21/4/8 27/4/8
f 22/4/1 28/4/1 21/4/1
f 27/4/1 21/4/1 28/4/1
f 22/4/10 26/3/9 20/3/9
f 26/3/9 22/4/10 28/4/10
f 20/3/12 26/3/12 22/4/11
f 28/4/11 22/4/11 26/3/12
f 26/3/9 18/2/13 20/3/9
f 18/2/13 26/3/9 25/2/13
f 20/3/12 18/2/14 26/3/12
f 25/2/14 26/3/12 18/2/14
f 23/2/1 18/2/1 25/2/1
f 18/2/1 23/2/1 17/2/1
f 25/2/8 18/2/8 23/2/8
f 17/2/8 23/2/8 18/2/8
f 23/2/14 19/3/5 17/2/14
f 19/3/5 23/2/14 24/3/5
f 17/2/13 19/3/6 23/2/13
f 24/3/6 23/2/13 19/3/6
f 31/5/2 30/6/2 29/5/2
f 30/6/2 31/5/2 32/6/2
f 30/6/2 32/6/2 33/7/2
f 30/6/2 33/7/2 34/7/2
f 37/6/3 36/5/3 35/5/3
f 36/5/3 37/6/3 38/6/3
f 38/6/3 37/6/3 39/7/3
f 38/6/3 39/7/3 40/7/3
f 43/5/1 42/5/1 41/5/1
f 42/5/1 43/5/1 44/5/1
f 47/9/16 46/8/15 45/8/15
f 46/8/15 47/9/16 48/9/16
f 51/10/18 50/7/17 49/7/17
f 50/7/17 51/10/18 52/10/18
f 51/10/18 47/9/16 52/10/18
f 47/9/16 51/10/18 48/9/16
f 45/8/15 54/11/19 53/11/19
f 54/11/19 45/8/15 46/8/15
f 49/7/17 41/5/2 42/5/2
f 41/5/2 49/7/17 50/7/17
f 34/7/1 40/7/1 39/7/1
f 40/7/1 34/7/1 33/7/1
f 30/6/13 2/5/13 29/5/13
f 2/5/13 30/6/13 55/8/13
f 34/7/13 55/8/13 30/6/13
f 2/5/13 55/8/13 56/9/13
f 34/7/13 57/11/13 55/8/13
f 2/5/13 56/9/13 1/5/13
f 1/5/13 56/9/13 58/10/13
f 1/5/13 58/10/13 59/7/13
f 39/7/13 57/11/13 34/7/13
f 57/11/13 39/7/13 53/11/13
f 35/5/13 53/11/13 39/7/13
f 35/5/13 39/7/13 37/6/13
f 35/5/13 45/8/13 53/11/13
f 43/5/13 45/8/13 35/5/13
f 43/5/13 47/9/13 45/8/13
f 43/5/13 52/10/13 47/9/13
f 41/5/13 52/10/13 43/5/13
f 52/10/13 41/5/13 50/7/13
f 54/11/19 57/11/20 53/11/19
f 57/11/20 54/11/19 60/11/20
f 4/5/14 32/6/14 31/5/14
f 32/6/14 4/5/14 61/8/14
f 61/8/14 33/7/14 32/6/14
f 61/8/14 4/5/14 62/9/14
f 60/11/14 33/7/14 61/8/14
f 62/9/14 4/5/14 3/5/14
f 62/9/14 3/5/14 63/10/14
f 63/10/14 3/5/14 64/7/14
f 60/11/14 40/7/14 33/7/14
f 54/11/14 40/7/14 60/11/14
f 54/11/14 38/6/14 40/7/14
f 54/11/14 36/5/14 38/6/14
f 46/8/14 36/5/14 54/11/14
f 46/8/14 44/5/14 36/5/14
f 48/9/14 44/5/14 46/8/14
f 51/10/14 44/5/14 48/9/14
f 49/7/14 44/5/14 51/10/14
f 44/5/14 49/7/14 42/5/14
f 57/11/20 61/8/21 55/8/21
f 61/8/21 57/11/20 60/11/20
f 59/7/22 63/10/23 64/7/22
f 63/10/23 59/7/22 58/10/23
f 55/8/21 62/9/24 56/9/24
f 62/9/24 55/8/21 61/8/21
f 58/10/23 62/9/24 63/10/23
f 62/9/24 58/10/23 56/9/24
f 59/7/22 3/5/3 1/5/3
f 3/5/3 59/7/22 64/7/22
f 67/11/8 66/12/25 65/12/25
f 66/12/25 67/11/8 68/11/8
f 69/12/26 68/11/8 67/11/8
f 68/11/8 69/12/26 70/12/26
f 73/13/27 72/14/14 71/13/27
f 72/14/14 73/13/27 74/14/14
f 77/14/13 76/13/28 75/14/13
f 76/13/28 77/14/13 78/13/28
f 81/15/29 80/5/1 79/5/1
f 80/5/1 81/15/29 82/15/29
f 79/5/1 84/15/30 83/15/30
f 84/15/30 79/5/1 80/5/1
f 74/14/14 85/16/31 72/14/14
f 85/16/31 74/14/14 86/16/31
f 88/16/32 75/14/13 87/16/32
f 75/14/13 88/16/32 77/14/13
f 85/16/31 70/12/26 69/12/26
f 70/12/26 85/16/31 86/16/31
f 73/13/27 82/15/29 81/15/29
f 82/15/29 73/13/27 71/13/27
f 83/15/30 76/13/28 78/13/28
f 76/13/28 83/15/30 84/15/30
f 65/12/25 88/16/32 87/16/32
f 88/16/32 65/12/25 66/12/25
f 83/15/3 81/15/3 79/5/3
f 81/15/3 83/15/3 73/13/3
f 73/13/3 83/15/3 78/13/3
f 73/13/3 78/13/3 74/14/3
f 74/14/3 78/13/3 77/14/3
f 74/14/3 77/14/3 86/16/3
f 86/16/3 77/14/3 88/16/3
f 86/16/3 88/16/3 70/12/3
f 70/12/3 88/16/3 66/12/3
f 70/12/3 66/12/3 68/11/3
f 82/15/2 84/15/2 80/5/2
f 84/15/2 82/15/2 71/13/2
f 84/15/2 71/13/2 76/13/2
f 76/13/2 71/13/2 72/14/2
f 76/13/2 72/14/2 75/14/2
f 75/14/2 72/14/2 85/16/2
f 75/14/2 85/16/2 87/16/2
f 87/16/2 85/16/2 69/12/2
f 87/16/2 69/12/2 65/12/2
f 65/12/2 69/12/2 67/11/2
f 91/11/8 90/12/25 89/12/25
f 90/12/25 91/11/8 92/11/8
f 93/12/26 92/11/8 91/11/8
f 92/11/8 93/12/26 94/12/26
f 97/13/27 96/14/14 95/13/27
f 96/14/14 97/13/27 98/14/14
f 101/14/13 100/13/28 99/14/13
f 100/13/28 101/14/13 102/13/28
f 105/15/29 104/5/1 103/5/1
f 104/5/1 105/15/29 106/15/29
f 103/5/1 108/15/30 107/15/30
f 108/15/30 103/5/1 104/5/1
f 98/14/14 109/16/31 96/14/14
f 109/16/31 98/14/14 110/16/31
f 112/16/32 99/14/13 111/16/32
f 99/14/13 112/16/32 101/14/13
f 109/16/31 94/12/26 93/12/26
f 94/12/26 109/16/31 110/16/31
f 97/13/27 106/15/29 105/15/29
f 106/15/29 97/13/27 95/13/27
f 107/15/30 100/13/28 102/13/28
f 100/13/28 107/15/30 108/15/30
f 89/12/25 112/16/32 111/16/32
f 112/16/32 89/12/25 90/12/25
f 107/15/3 105/15/3 103/5/3
f 105/15/3 107/15/3 97/13/3
f 97/13/3 107/15/3 102/13/3
f 97/13/3 102/13/3 98/14/3
f 98/14/3 102/13/3 101/14/3
f 98/14/3 101/14/3 110/16/3
f 110/16/3 101/14/3 112/16/3
f 110/16/3 112/16/3 94/12/3
f 94/12/3 112/16/3 90/12/3
f 94/12/3 90/12/3 92/11/3
f 106/15/2 108/15/2 104/5/2
f 108/15/2 106/15/2 95/13/2
f 108/15/2 95/13/2 100/13/2
f 100/13/2 95/13/2 96/14/2
f 100/13/2 96/14/2 99/14/2
f 99/14/2 96/14/2 109/16/2
f 99/14/2 109/16/2 111/16/2
f 111/16/2 109/16/2 93/12/2
f 111/16/2 93/12/2 89/12/2
f 89/12/2 93/12/2 91/11/2

g scanner-low




usemtl colormap

f 3/1/1 2/1/1 1/1/1
f 2/1/1 3/1/1 4/1/1
f 7/3/2 6/2/2 5/2/2
f 6/2/2 7/3/2 8/3/2
f 8/3/2 7/3/2 9/4/2
f 8/3/2 9/4/2 10/4/2
f 5/2/3 6/2/3 7/3/3
f 8/3/3 7/3/3 6/2/3
f 9/4/3 7/3/3 8/3/3
f 10/4/3 9/4/3 8/3/3
f 13/2/3 12/3/3 11/2/3
f 12/3/3 13/2/3 14/3/3
f 12/3/3 14/3/3 15/4/3
f 15/4/3 14/3/3 16/4/3
f 11/2/2 12/3/2 13/2/2
f 14/3/2 13/2/2 12/3/2
f 15/4/2 14/3/2 12/3/2
f 16/4/2 14/3/2 15/4/2
f 7/3/5 15/4/4 9/4/4
f 15/4/4 7/3/5 12/3/5
f 9/4/7 15/4/7 7/3/6
f 12/3/6 7/3/6 15/4/7
f 9/4/8 16/4/8 10/4/8
f 16/4/8 9/4/8 15/4/8
f 10/4/1 16/4/1 9/4/1
f 15/4/1 9/4/1 16/4/1
f 10/4/10 14/3/9 8/3/9
f 14/3/9 10/4/10 16/4/10
f 8/3/12 14/3/12 10/4/11
f 16/4/11 10/4/11 14/3/12
f 14/3/9 6/2/13 8/3/9
f 6/2/13 14/3/9 13/2/13
f 8/3/12 6/2/14 14/3/12
f 13/2/14 14/3/12 6/2/14
f 11/2/1 6/2/1 13/2/1
f 6/2/1 11/2/1 5/2/1
f 13/2/8 6/2/8 11/2/8
f 5/2/8 11/2/8 6/2/8
f 11/2/14 7/3/5 5/2/14
f 7/3/5 11/2/14 12/3/5
f 5/2/13 7/3/6 11/2/13
f 12/3/6 11/2/13 7/3/6
f 19/3/2 18/2/2 17/2/2
f 18/2/2 19/3/2 20/3/2
f 20/3/2 19/3/2 21/4/2
f 20/3/2 21/4/2 22/4/2
f 17/2/3 18/2/3 19/3/3
f 20/3/3 19/3/3 18/2/3
f 21/4/3 19/3/3 20/3/3
f 22/4/3 21/4/3 20/3/3
f 25/2/3 24/3/3 23/2/3
f 24/3/3 25/2/3 26/3/3
f 24/3/3 26/3/3 27/4/3
f 27/4/3 26/3/3 28/4/3
f 23/2/2 24/3/2 25/2/2
f 26/3/2 25/2/2 24/3/2
f 27/4/2 26/3/2 24/3/2
f 28/4/2 26/3/2 27/4/2
f 19/3/5 27/4/4 21/4/4
f 27/4/4 19/3/5 24/3/5
f 21/4/7 27/4/7 19/3/6
f 24/3/6 19/3/6 27/4/7
f 21/4/8 28/4/8 22/4/8
f 28/4/8 21/4/8 27/4/8
f 22/4/1 28/4/1 21/4/1
f 27/4/1 21/4/1 28/4/1
f 22/4/10 26/3/9 20/3/9
f 26/3/9 22/4/10 28/4/10
f 20/3/12 26/3/12 22/4/11
f 28/4/11 22/4/11 26/3/12
f 26/3/9 18/2/13 20/3/9
f 18/2/13 26/3/9 25/2/13
f 20/3/12 18/2/14 26/3/12
f 25/2/14 26/3/12 18/2/14
f 23/2/1 18/2/1 25/2/1
f 18/2/1 23/2/1 17/2/1
f 25/2/8 18/2/8 23/2/8
f 17/2/8 23/2/8 18/2/8
f 23/2/14 19/3/5 17/2/14
f 19/3/5 23/2/14 24/3/5
f 17/2/13 19/3/6 23/2/13
f 24/3/6 23/2/13 19/3/6
f 31/5/2 30/6/2 29/5/2
f 30/6/2 31/5/2 32/6/2
f 30/6/2 32/6/2 33/7/2
f 30/6/2 33/7/2 34/7/2
f 37/6/3 36/5/3 35/5/3
f 36/5/3 37/6/3 38/6/3
f 38/6/3 37/6/3 39/7/3
f 38/6/3 39/7/3 40/7/3
f 43/5/1 42/5/1 41/5/1
f 42/5/1 43/5/1 44/5/1
f 47/9/16 46/8/15 45/8/15
f 46/8/15 47/9/16 48/9/16
f 51/10/18 50/7/17 49/7/17
f 50/7/17 51/10/18 52/10/18
f 51/10/18 47/9/16 52/10/18
f 47/9/16 51/10/18 48/9/16
f 45/8/15 54/11/19 53/11/19
f 54/11/19 45/8/15 46/8/15
f 49/7/17 41/5/2 42/5/2
f 41/5/2 49/7/17 50/7/17
f 34/7/1 40/7/1 39/7/1
f 40/7/1 34/7/1 33/7/1
f 30/6/13 2/5/13 29/5/13
f 2/5/13 30/6/13 55/8/13
f 34/7/13 55/8/13 30/6/13
f 2/5/13 55/8/13 56/9/13
f 34/7/13 57/11/13 55/8/13
f 2/5/13 56/9/13 1/5/13
f 1/5/13 56/9/13 58/10/13
f 1/5/13 58/10/13 59/7/13
f 39/7/13 57/11/13 34/7/13
f 57/11/13 39/7/13 53/11/13
f 35/5/13 53/11/13 39/7/13
f 35/5/13 39/7/13 37/6/13
f 35/5/13 45/8/13 53/11/13
f 43/5/13 45/8/13 35/5/13
f 43/5/13 47/9/13 45/8/13
f 43/5/13 52/10/13 47/9/13
f 41/5/13 52/10/13 43/5/13
f 52/10/13 41/5/13 50/7/13
f 54/11/19 57/11/20 53/11/19
f 57/11/20 54/11/19 60/11/20
f 4/5/14 32/6/14 31/5/14
f 32/6/14 4/5/14 61/8/14
f 61/8/14 33/7/14 32/6/14
f 61/8/14 4/5/14 62/9/14
f 60/11/14 33/7/14 61/8/14
f 62/9/14 4/5/14 3/5/14
f 62/9/14 3/5/14 63/10/14
f 63/10/14 3/5/14 64/7/14
f 60/11/14 40/7/14 33/7/14
f 54/11/14 40/7/14 60/11/14
f 54/11/14 38/6/14 40/7/14
f 54/11/14 36/5/14 38/6/14
f 46/8/14 36/5/14 54/11/14
f 46/8/14 44/5/14 36/5/14
f 48/9/14 44/5/14 46/8/14
f 51/10/14 44/5/14 48/9/14
f 49/7/14 44/5/14 51/10/14
f 44/5/14 49/7/14 42/5/14
f 57/11/20 61/8/21 55/8/21
f 61/8/21 57/11/20 60/11/20
f 59/7/22 63/10/23 64/7/22
f 63/10/23 59/7/22 58/10/23
f 55/8/21 62/9/24 56/9/24
f 62/9/24 55/8/21 61/8/21
f 58/10/23 62/9/24 63/10/23
f 62/9/24 58/10/23 56/9/24
f 59/7/22 3/5/3 1/5/3
f 3/5/3 59/7/22 64/7/22
f 67/11/8 66/12/25 65/12/25
f 66/12/25 67/11/8 68/11/8
f 69/12/26 68/11/8 67/11/8
f 68/11/8 69/12/26 70/12/26
f 73/13/27 72/14/14 71/13/27
f 72/14/14 73/13/27 74/14/14
f 77/14/13 76/13/28 75/14/13
f 76/13/28 77/14/13 78/13/28
f 81/15/29 80/5/1 79/5/1
f 80/5/1 81/15/29 82/15/29
f 79/5/1 84/15/30 83/15/30
f 84/15/30 79/5/1 80/5/1
f 74/14/14 85/16/31 72/14/14
f 85/16/31 74/14/14 86/16/31
f 88/16/32 75/14/13 87/16/32
f 75/14/13 88/16/32 77/14/13
f 85/16/31 70/12/26 69/12/26
f 70/12/26 85/16/31 86/16/31
f 73/13/27 82/15/29 81/15/29
f 82/15/29 73/13/27 71/13/27
f 83/15/30 76/13/28 78/13/28
f 76/13/28 83/15/30 84/15/30
f 65/12/25 88/16/32 87/16/32
f 88/16/32 65/12/25 66/12/25
f 83/15/3 81/15/3 79/5/3
f 81/15/3 83/15/3 73/13/3
f 73/13/3 83/15/3 78/13/3
f 73/13/3 78/13/3 74/14/3
f 74/14/3 78/13/3 77/14/3
f 74/14/3 77/14/3 86/16/3
f 86/16/3 77/14/3 88/16/3
f 86/16/3 88/16/3 70/12/3
f 70/12/3 88/16/3 66/12/3
f 70/12/3 66/12/3 68/11/3
f 82/15/2 84/15/2 80/5/2
f 84/15/2 82/15/2 71/13/2
f 84/15/2 71/13/2 76/13/2
f 76/13/2 71/13/2 72/14/2
f 76/13/2 72/14/2 75/14/2
f 75/14/2 72/14/2 85/16/2
f 75/14/2 85/16/2 87/16/2
f 87/16/2 85/16/2 69/12/2
f 87/16/2 69/12/2 65/12/2
f 65/12/2 69/12/2 67/11/2
f 91/11/8 90/12/25 89/12/25
f 90/12/25 91/11/8 92/11/8
f 93/12/26 92/11/8 91/11/8
f 92/11/8 93/12/26 94/12/26
f 97/13/27 96/14/14 95/13/27
f 96/14/14 97/13/27 98/14/14
f 101/14/13 100/13/28 99/14/13
f 100/13/28 101/14/13 102/13/28
f 105/15/29 104/5/1 103/5/1
f 104/5/1 105/15/29 106/15/29
f 103/5/1 108/15/30 107/15/30
f 108/15/30 103/5/1 104/5/1
f 98/14/14 109/16/31 96/14/14
f 109/16/31 98/14/14 110/16/31
f 112/16/32 99/14/13 111/16/32
f 99/14/13 112/16/32 101/14/13
f 109/16/31 94/12/26 93/12/26
f 94/12/26 109/16/31 110/16/31
f 97/13/27 106/15/29 105/15/29
f 106/15/29 97/13/27 95/13/27
f 107/15/30 100/13/28 102/13/28
f 100/13/28 107/15/30 108/15/30
f 89/12/25 112/16/32 111/16/32
f 112/16/32 89/12/25 90/12/25
f 107/15/3 105/15/3 103/5/3
f 105/15/3 107/15/3 97/13/3
f 97/13/3 107/15/3 102/13/3
f 97/13/3 102/13/3 98/14/3
f 98/14/3 102/13/3 101/14/3
f 98/14/3 101/14/3 110/16/3
f 110/16/3 101/14/3 112/16/3
f 110/16/3 112/16/3 94/12/3
f 94/12/3 112/16/3 90/12/3
f 94/12/3 90/12/3 92/11/3
f 106/15/2 108/15/2 104/5/2
f 108/15/2 106/15/2 95/13/2
f 108/15/2 95/13/2 100/13/2
f 100/13/2 95/13/2 96/14/2
f 100/13/2 96/14/2 99/14/2
f 99/14/2 96/14/2 109/16/2
f 99/14/2 109/16/2 111/16/2
f 111/16/2 109/16/2 93/12/2
f 111/16/2 93/12/2 89/12/2
f 89/12/2 93/12/2 91/11/2

