# Created by Kenney (www.kenney.nl)

mtllib screen-panel-small.mtl

g screen-panel-small

v 0.2625 0.525 0.2911059 1 1 1
v 0.2625 0.675 0.2911059 1 1 1
v 0.2625 0.525 0.06610586 1 1 1
v 0.2625 0.675 0.06610586 1 1 1
v 0.225 0.525 0.3286058 1 1 1
v 0.225 0.675 0.3286058 1 1 1
v -0.2625 0.675 0.2911059 1 1 1
v -0.2625 0.675 0.06610586 1 1 1
v -0.225 0.675 0.3286058 1 1 1
v -0.2625 0.525 0.06610586 1 1 1
v -0.2625 0.525 0.2911059 1 1 1
v -0.225 0.525 0.3286058 1 1 1
v -0.225 0.3294174 -0.1259813 1 1 1
v -0.225 0.3 0.02110585 1 1 1
v 0.225 0.3294174 -0.1259813 1 1 1
v 0.225 0.3 0.02110585 1 1 1
v 0.3 0.8883484 0.1387755 1 1 1
v 0.3 0.9177659 -0.008311571 1 1 1
v 0.3 0.3735436 0.03581456 1 1 1
v 0.3 0.402961 -0.1112725 1 1 1
v -0.3 0.8883484 0.1387755 1 1 1
v -0.3 0.3735436 0.03581456 1 1 1
v -0.3 0.9177659 -0.008311571 1 1 1
v -0.3 0.402961 -0.1112725 1 1 1
v -0.225 0.9618919 0.1534842 1 1 1
v -0.225 0.9913094 0.006397139 1 1 1
v 0.225 0.9618919 0.1534842 1 1 1
v 0.225 0.9913094 0.006397139 1 1 1
v -0.193934 0.402961 -0.1112725 1 1 1
v -0.225 0.4334237 -0.10518 1 1 1
v 0.193934 0.402961 -0.1112725 1 1 1
v 0.225 0.4334237 -0.10518 1 1 1
v -0.225 0.8873031 -0.01440412 1 1 1
v -0.193934 0.9177659 -0.008311571 1 1 1
v 0.225 0.8873031 -0.01440412 1 1 1
v 0.193934 0.9177659 -0.008311571 1 1 1
v -0.193934 0.3882523 -0.03772898 1 1 1
v 0.193934 0.3882523 -0.03772898 1 1 1
v -0.225 0.8725944 0.05913943 1 1 1
v -0.225 0.418715 -0.03163644 1 1 1
v 0.225 0.8725944 0.05913943 1 1 1
v 0.225 0.418715 -0.03163644 1 1 1
v 0.193934 0.9030571 0.06523197 1 1 1
v -0.193934 0.9030571 0.06523197 1 1 1
v -0.193934 0.3641381 -0.2561614 1 1 1
v -0.118934 0.3447267 -0.3286058 1 1 1
v 0.118934 0.3447267 -0.3286058 1 1 1
v 0.193934 0.3641381 -0.2561614 1 1 1
v 0.193934 0.3305165 -0.09186111 1 1 1
v 0.193934 0.2916937 -0.23675 1 1 1
v 0.118934 0.2722822 -0.3091944 1 1 1
v -0.193934 0.2916937 -0.23675 1 1 1
v -0.193934 0.3305165 -0.09186111 1 1 1
v -0.118934 0.2722822 -0.3091944 1 1 1
v 0.1642102 0 0.3028505 1 1 1
v 0.2806787 0 -0.131816 1 1 1
v 0.01932129 0 0.2640277 1 1 1
v 0.1357899 0 -0.1706389 1 1 1
v 0.1642102 0.86921 0.3028505 1 1 1
v 0.01932129 0.86921 0.2640277 1 1 1
v 0.1357899 0.075 -0.1706389 1 1 1
v 0.2806787 0.075 -0.131816 1 1 1
v 0.096967 0.15 -0.02575003 1 1 1
v 0.2418559 0.15 0.01307283 1 1 1
v 0.05814414 0.9 0.1191388 1 1 1
v 0.203033 0.9 0.1579617 1 1 1
v 0.2612673 0.15 -0.0593716 1 1 1
v 0.1163784 0.15 -0.09819446 1 1 1
v -0.01932128 0 0.2640277 1 1 1
v -0.1357898 0 -0.1706389 1 1 1
v -0.1642101 0 0.3028505 1 1 1
v -0.2806787 0 -0.131816 1 1 1
v -0.01932128 0.86921 0.2640277 1 1 1
v -0.1642101 0.86921 0.3028505 1 1 1
v -0.2806787 0.075 -0.131816 1 1 1
v -0.1357898 0.075 -0.1706389 1 1 1
v -0.2418558 0.15 0.01307283 1 1 1
v -0.09696698 0.15 -0.02575003 1 1 1
v -0.203033 0.9 0.1579617 1 1 1
v -0.05814412 0.9 0.1191388 1 1 1
v -0.1163784 0.15 -0.09819446 1 1 1
v -0.2612673 0.15 -0.0593716 1 1 1

vn 0.9238795 0 0.3826834
vn 1 0 -9.306445E-14
vn 0.3826834 0 0.9238795
vn 0 1 0
vn 0 -1 0
vn -0.9238795 0 0.3826834
vn -1 0 9.306445E-14
vn -0.3826834 0 0.9238795
vn -0.3826834 -0.9059384 -0.1811877
vn 0.3826834 -0.9059384 -0.1811877
vn 0.9238795 0.3752519 0.07505039
vn 0.9238795 -0.3752519 -0.07505039
vn -0.9238795 0.3752519 0.07505039
vn -0.9238795 -0.3752519 -0.07505039
vn -0.3826834 0.9059384 0.1811877
vn 9.12572E-14 -0.1961161 0.9805807
vn 0.3826834 0.9059384 0.1811877
vn -9.12572E-14 0.1961161 -0.9805807
vn -2.408685E-14 0.9659258 -0.258819
vn 0.9238795 -0.09904575 -0.3696438
vn 0.3826835 -0.2391177 -0.8923991
vn 2.408685E-14 -0.9659258 0.258819
vn -0.3826835 -0.2391177 -0.8923991
vn -0.9238795 -0.09904575 -0.3696438
vn -0.258819 0 0.9659258
vn -0.2005701 0.6320308 0.7485376
vn 0.258819 0 -0.9659258
vn 0.2391176 0.3826834 -0.892399
vn 0.2537929 0.1961161 -0.9471681
vn 0.09904576 0.9238795 -0.3696438
vn 0.9659258 0 0.258819
vn -0.9659258 0 -0.258819
vn -0.05204179 0.979576 0.1942226
vn 0.258819 0 0.9659258
vn 0.2005701 0.6320308 0.7485376
vn -0.258819 0 -0.9659258
vn -0.2391176 0.3826834 -0.892399
vn -0.2537929 0.1961161 -0.9471681
vn -0.09904576 0.9238795 -0.3696438
vn 0.9659258 0 -0.258819
vn -0.9659258 0 0.258819
vn 0.05204179 0.979576 0.1942226

vt 0.09375 0.025
vt 0.09375 0.225
vt 0.09375 0.03351064
vt 0.09375 0.1952128
vt 0.09375 0.2037234
vt 0.09375 0.0462766
vt 0.09375 0.05478723
vt 0.09375 0.2164893
vt 0.09375 0.06360029
vt 0.09375 0.1949103
vt 0.46875 0.05053191
vt 0.46875 0.05478723
vt 0.46875 0.190655
vt 0.46875 0.1949103
vt 0.46875 0.05934497
vt 0.46875 0.06360029
vt 0.46875 0.1994681
vt 0.46875 0.2037234
vt 0.34375 0.225
vt 0.34375 0.1655827
vt 0.34375 0.1358741
vt 0.34375 0.1141259
vt 0.34375 0.05470863
vt 0.34375 0.025
vt 0.34375 0.2181578
vt 0.34375 0.04166667
vt 0.34375 0.05833334

usemtl colormap

f 3/1/2 2/2/1 1/1/1
f 2/2/1 3/1/2 4/2/2
f 1/1/1 6/2/3 5/1/3
f 6/2/3 1/1/1 2/2/1
f 9/2/4 8/2/4 7/2/4
f 8/2/4 9/2/4 4/2/4
f 4/2/4 9/2/4 6/2/4
f 4/2/4 6/2/4 2/2/4
f 3/1/5 11/1/5 10/1/5
f 11/1/5 3/1/5 12/1/5
f 12/1/5 3/1/5 5/1/5
f 5/1/5 3/1/5 1/1/5
f 8/2/7 11/1/6 7/2/6
f 11/1/6 8/2/7 10/1/7
f 7/2/6 12/1/8 9/2/8
f 12/1/8 7/2/6 11/1/6
f 6/2/3 12/1/8 5/1/3
f 12/1/8 6/2/3 9/2/8
f 15/3/10 14/1/9 13/3/9
f 14/1/9 15/3/10 16/1/10
f 19/6/12 18/5/11 17/4/11
f 18/5/11 19/6/12 20/7/12
f 23/5/13 22/6/14 21/4/13
f 22/6/14 23/5/13 24/7/14
f 24/7/14 14/1/9 22/6/14
f 14/1/9 24/7/14 13/3/9
f 26/2/15 21/4/13 25/8/15
f 21/4/13 26/2/15 23/5/13
f 19/6/16 14/1/16 16/1/16
f 14/1/16 19/6/16 22/6/16
f 22/6/16 19/6/16 17/4/16
f 22/6/16 17/4/16 21/4/16
f 21/4/16 17/4/16 27/8/16
f 21/4/16 27/8/16 25/8/16
f 17/4/11 28/2/17 27/8/17
f 28/2/17 17/4/11 18/5/11
f 27/8/17 26/2/15 25/8/15
f 26/2/15 27/8/17 28/2/17
f 24/7/18 15/3/18 13/3/18
f 15/3/18 24/7/18 20/7/18
f 20/7/18 24/7/18 29/7/18
f 29/7/18 24/7/18 30/9/18
f 31/7/18 20/7/18 29/7/18
f 32/9/18 20/7/18 31/7/18
f 30/9/18 24/7/18 23/5/18
f 30/9/18 23/5/18 33/10/18
f 33/10/18 23/5/18 34/5/18
f 34/5/18 23/5/18 26/2/18
f 20/7/18 32/9/18 18/5/18
f 18/5/18 32/9/18 35/10/18
f 34/5/18 26/2/18 36/5/18
f 18/5/18 35/10/18 36/5/18
f 28/2/18 36/5/18 26/2/18
f 18/5/18 36/5/18 28/2/18
f 16/1/10 20/7/12 19/6/12
f 20/7/12 16/1/10 15/3/10
f 38/11/15 29/12/17 37/11/17
f 29/12/17 38/11/15 31/12/15
f 40/15/11 33/14/12 39/13/12
f 33/14/12 40/15/11 30/16/11
f 35/14/14 42/15/13 41/13/14
f 42/15/13 35/14/14 32/16/13
f 36/18/9 41/13/14 43/17/9
f 41/13/14 36/18/9 35/14/14
f 39/13/12 34/18/10 44/17/10
f 34/18/10 39/13/12 33/14/12
f 32/16/13 38/11/15 42/15/13
f 38/11/15 32/16/13 31/12/15
f 37/11/17 30/16/11 40/15/11
f 30/16/11 37/11/17 29/12/17
f 37/11/18 42/15/18 38/11/18
f 42/15/18 37/11/18 40/15/18
f 42/15/18 40/15/18 41/13/18
f 41/13/18 40/15/18 39/13/18
f 41/13/18 39/13/18 44/17/18
f 41/13/18 44/17/18 43/17/18
f 36/18/9 44/17/10 34/18/10
f 44/17/10 36/18/9 43/17/9
f 31/19/19 45/20/19 29/19/19
f 45/20/19 31/19/19 46/21/19
f 46/21/19 31/19/19 47/21/19
f 47/21/19 31/19/19 48/20/19
f 50/23/20 31/19/2 49/22/2
f 31/19/2 50/23/20 48/20/20
f 51/24/21 48/20/20 50/23/20
f 48/20/20 51/24/21 47/21/21
f 54/24/22 53/22/22 52/23/22
f 53/22/22 54/24/22 49/22/22
f 49/22/22 54/24/22 51/24/22
f 49/22/22 51/24/22 50/23/22
f 46/21/23 51/24/21 54/24/23
f 51/24/21 46/21/23 47/21/21
f 29/19/7 52/23/24 53/22/7
f 52/23/24 29/19/7 45/20/24
f 45/20/24 54/24/23 52/23/24
f 54/24/23 45/20/24 46/21/23
f 57/24/5 56/24/5 55/24/5
f 56/24/5 57/24/5 58/24/5
f 59/25/26 57/24/25 55/24/25
f 57/24/25 59/25/26 60/25/26
f 61/26/28 56/24/27 58/24/27
f 56/24/27 61/26/28 62/26/28
f 65/19/29 64/27/29 63/27/29
f 64/27/29 65/19/29 66/19/29
f 67/27/30 63/27/4 64/27/4
f 63/27/4 67/27/30 68/27/30
f 67/27/31 56/24/31 62/26/31
f 56/24/31 67/27/31 55/24/31
f 55/24/31 67/27/31 64/27/31
f 55/24/31 64/27/31 66/19/31
f 55/24/31 66/19/31 59/25/31
f 62/26/28 68/27/30 67/27/30
f 68/27/30 62/26/28 61/26/28
f 57/24/32 61/26/32 58/24/32
f 61/26/32 57/24/32 68/27/32
f 68/27/32 57/24/32 63/27/32
f 63/27/32 57/24/32 65/19/32
f 65/19/32 57/24/32 60/25/32
f 66/19/33 60/25/26 59/25/26
f 60/25/26 66/19/33 65/19/33
f 71/24/5 70/24/5 69/24/5
f 70/24/5 71/24/5 72/24/5
f 73/25/35 71/24/34 69/24/34
f 71/24/34 73/25/35 74/25/35
f 75/26/37 70/24/36 72/24/36
f 70/24/36 75/26/37 76/26/37
f 79/19/38 78/27/38 77/27/38
f 78/27/38 79/19/38 80/19/38
f 81/27/39 77/27/4 78/27/4
f 77/27/4 81/27/39 82/27/39
f 81/27/40 70/24/40 76/26/40
f 70/24/40 81/27/40 69/24/40
f 69/24/40 81/27/40 78/27/40
f 69/24/40 78/27/40 80/19/40
f 69/24/40 80/19/40 73/25/40
f 76/26/37 82/27/39 81/27/39
f 82/27/39 76/26/37 75/26/37
f 71/24/41 75/26/41 72/24/41
f 75/26/41 71/24/41 82/27/41
f 82/27/41 71/24/41 77/27/41
f 77/27/41 71/24/41 79/19/41
f 79/19/41 71/24/41 74/25/41
f 80/19/42 74/25/35 73/25/35
f 74/25/35 80/19/42 79/19/42

g screen-panel-small




usemtl colormap

f 3/1/2 2/2/1 1/1/1
f 2/2/1 3/1/2 4/2/2
f 1/1/1 6/2/3 5/1/3
f 6/2/3 1/1/1 2/2/1
f 9/2/4 8/2/4 7/2/4
f 8/2/4 9/2/4 4/2/4
f 4/2/4 9/2/4 6/2/4
f 4/2/4 6/2/4 2/2/4
f 3/1/5 11/1/5 10/1/5
f 11/1/5 3/1/5 12/1/5
f 12/1/5 3/1/5 5/1/5
f 5/1/5 3/1/5 1/1/5
f 8/2/7 11/1/6 7/2/6
f 11/1/6 8/2/7 10/1/7
f 7/2/6 12/1/8 9/2/8
f 12/1/8 7/2/6 11/1/6
f 6/2/3 12/1/8 5/1/3
f 12/1/8 6/2/3 9/2/8
f 15/3/10 14/1/9 13/3/9
f 14/1/9 15/3/10 16/1/10
f 19/6/12 18/5/11 17/4/11
f 18/5/11 19/6/12 20/7/12
f 23/5/13 22/6/14 21/4/13
f 22/6/14 23/5/13 24/7/14
f 24/7/14 14/1/9 22/6/14
f 14/1/9 24/7/14 13/3/9
f 26/2/15 21/4/13 25/8/15
f 21/4/13 26/2/15 23/5/13
f 19/6/16 14/1/16 16/1/16
f 14/1/16 19/6/16 22/6/16
f 22/6/16 19/6/16 17/4/16
f 22/6/16 17/4/16 21/4/16
f 21/4/16 17/4/16 27/8/16
f 21/4/16 27/8/16 25/8/16
f 17/4/11 28/2/17 27/8/17
f 28/2/17 17/4/11 18/5/11
f 27/8/17 26/2/15 25/8/15
f 26/2/15 27/8/17 28/2/17
f 24/7/18 15/3/18 13/3/18
f 15/3/18 24/7/18 20/7/18
f 20/7/18 24/7/18 29/7/18
f 29/7/18 24/7/18 30/9/18
f 31/7/18 20/7/18 29/7/18
f 32/9/18 20/7/18 31/7/18
f 30/9/18 24/7/18 23/5/18
f 30/9/18 23/5/18 33/10/18
f 33/10/18 23/5/18 34/5/18
f 34/5/18 23/5/18 26/2/18
f 20/7/18 32/9/18 18/5/18
f 18/5/18 32/9/18 35/10/18
f 34/5/18 26/2/18 36/5/18
f 18/5/18 35/10/18 36/5/18
f 28/2/18 36/5/18 26/2/18
f 18/5/18 36/5/18 28/2/18
f 16/1/10 20/7/12 19/6/12
f 20/7/12 16/1/10 15/3/10
f 38/11/15 29/12/17 37/11/17
f 29/12/17 38/11/15 31/12/15
f 40/15/11 33/14/12 39/13/12
f 33/14/12 40/15/11 30/16/11
f 35/14/14 42/15/13 41/13/14
f 42/15/13 35/14/14 32/16/13
f 36/18/9 41/13/14 43/17/9
f 41/13/14 36/18/9 35/14/14
f 39/13/12 34/18/10 44/17/10
f 34/18/10 39/13/12 33/14/12
f 32/16/13 38/11/15 42/15/13
f 38/11/15 32/16/13 31/12/15
f 37/11/17 30/16/11 40/15/11
f 30/16/11 37/11/17 29/12/17
f 37/11/18 42/15/18 38/11/18
f 42/15/18 37/11/18 40/15/18
f 42/15/18 40/15/18 41/13/18
f 41/13/18 40/15/18 39/13/18
f 41/13/18 39/13/18 44/17/18
f 41/13/18 44/17/18 43/17/18
f 36/18/9 44/17/10 34/18/10
f 44/17/10 36/18/9 43/17/9
f 31/19/19 45/20/19 29/19/19
f 45/20/19 31/19/19 46/21/19
f 46/21/19 31/19/19 47/21/19
f 47/21/19 31/19/19 48/20/19
f 50/23/20 31/19/2 49/22/2
f 31/19/2 50/23/20 48/20/20
f 51/24/21 48/20/20 50/23/20
f 48/20/20 51/24/21 47/21/21
f 54/24/22 53/22/22 52/23/22
f 53/22/22 54/24/22 49/22/22
f 49/22/22 54/24/22 51/24/22
f 49/22/22 51/24/22 50/23/22
f 46/21/23 51/24/21 54/24/23
f 51/24/21 46/21/23 47/21/21
f 29/19/7 52/23/24 53/22/7
f 52/23/24 29/19/7 45/20/24
f 45/20/24 54/24/23 52/23/24
f 54/24/23 45/20/24 46/21/23
f 57/24/5 56/24/5 55/24/5
f 56/24/5 57/24/5 58/24/5
f 59/25/26 57/24/25 55/24/25
f 57/24/25 59/25/26 60/25/26
f 61/26/28 56/24/27 58/24/27
f 56/24/27 61/26/28 62/26/28
f 65/19/29 64/27/29 63/27/29
f 64/27/29 65/19/29 66/19/29
f 67/27/30 63/27/4 64/27/4
f 63/27/4 67/27/30 68/27/30
f 67/27/31 56/24/31 62/26/31
f 56/24/31 67/27/31 55/24/31
f 55/24/31 67/27/31 64/27/31
f 55/24/31 64/27/31 66/19/31
f 55/24/31 66/19/31 59/25/31
f 62/26/28 68/27/30 67/27/30
f 68/27/30 62/26/28 61/26/28
f 57/24/32 61/26/32 58/24/32
f 61/26/32 57/24/32 68/27/32
f 68/27/32 57/24/32 63/27/32
f 63/27/32 57/24/32 65/19/32
f 65/19/32 57/24/32 60/25/32
f 66/19/33 60/25/26 59/25/26
f 60/25/26 66/19/33 65/19/33
f 71/24/5 70/24/5 69/24/5
f 70/24/5 71/24/5 72/24/5
f 73/25/35 71/24/34 69/24/34
f 71/24/34 73/25/35 74/25/35
f 75/26/37 70/24/36 72/24/36
f 70/24/36 75/26/37 76/26/37
f 79/19/38 78/27/38 77/27/38
f 78/27/38 79/19/38 80/19/38
f 81/27/39 77/27/4 78/27/4
f 77/27/4 81/27/39 82/27/39
f 81/27/40 70/24/40 76/26/40
f 70/24/40 81/27/40 69/24/40
f 69/24/40 81/27/40 78/27/40
f 69/24/40 78/27/40 80/19/40
f 69/24/40 80/19/40 73/25/40
f 76/26/37 82/27/39 81/27/39
f 82/27/39 76/26/37 75/26/37
f 71/24/41 75/26/41 72/24/41
f 75/26/41 71/24/41 82/27/41
f 82/27/41 71/24/41 77/27/41
f 77/27/41 71/24/41 79/19/41
f 79/19/41 71/24/41 74/25/41
f 80/19/42 74/25/35 73/25/35
f 74/25/35 80/19/42 79/19/42

