# Created by Kenney (www.kenney.nl)

mtllib screen-wide.mtl

g screen-wide

v -0.3 0.86921 0.2911058 1 1 1
v -0.45 0.86921 0.2911058 1 1 1
v -0.3 0.9 0.1411058 1 1 1
v -0.45 0.9 0.1411059 1 1 1
v -0.3 0.15 -0.08389415 1 1 1
v -0.45 0.15 -0.08389414 1 1 1
v -0.3 0.075 -0.1588941 1 1 1
v -0.45 0.075 -0.1588941 1 1 1
v -0.45 0 -0.1588941 1 1 1
v -0.3 0 -0.1588941 1 1 1
v -0.3 0.15 -0.008894145 1 1 1
v -0.45 0.15 -0.008894144 1 1 1
v -0.3 0 0.2911058 1 1 1
v -0.45 0 0.2911058 1 1 1
v 0.3 0 -0.1588942 1 1 1
v 0.45 0 -0.1588942 1 1 1
v 0.3 0.075 -0.1588942 1 1 1
v 0.45 0.075 -0.1588942 1 1 1
v 0.45 0 0.2911058 1 1 1
v 0.3 0 0.2911058 1 1 1
v 0.45 0.86921 0.2911058 1 1 1
v 0.3 0.86921 0.2911058 1 1 1
v 0.3 0.15 -0.08389415 1 1 1
v 0.3 0.15 -0.008894154 1 1 1
v 0.3 0.9 0.1411058 1 1 1
v 0.45 0.15 -0.008894157 1 1 1
v 0.45 0.15 -0.08389416 1 1 1
v 0.45 0.9 0.1411058 1 1 1
v -0.6 0.8883484 0.1387755 1 1 1
v -0.6 0.3735436 0.03581457 1 1 1
v -0.6 0.9177659 -0.008311562 1 1 1
v -0.6 0.402961 -0.1112725 1 1 1
v -0.525 0.3 0.02110586 1 1 1
v -0.525 0.3294174 -0.1259812 1 1 1
v -0.525 0.9618919 0.1534843 1 1 1
v -0.525 0.9913094 0.006397147 1 1 1
v 0.6 0.3735436 0.03581455 1 1 1
v 0.6 0.402961 -0.1112726 1 1 1
v 0.525 0.3 0.02110584 1 1 1
v 0.525 0.3294174 -0.1259813 1 1 1
v 0.6 0.8883484 0.1387755 1 1 1
v 0.525 0.9618919 0.1534842 1 1 1
v 0.6 0.9177659 -0.008311579 1 1 1
v 0.525 0.9913094 0.006397132 1 1 1
v -0.493934 0.402961 -0.1112725 1 1 1
v -0.525 0.4334237 -0.10518 1 1 1
v 0.493934 0.402961 -0.1112726 1 1 1
v 0.525 0.4334237 -0.10518 1 1 1
v -0.525 0.8873031 -0.01440411 1 1 1
v -0.493934 0.9177659 -0.008311562 1 1 1
v 0.525 0.8873031 -0.01440413 1 1 1
v 0.493934 0.9177659 -0.008311577 1 1 1
v -0.4875 0.525 0.06610586 1 1 1
v -0.4875 0.525 0.2911059 1 1 1
v -0.2625 0.525 0.06610586 1 1 1
v -0.45 0.525 0.3286058 1 1 1
v -0.3 0.525 0.3286058 1 1 1
v -0.2625 0.525 0.2911059 1 1 1
v -0.4875 0.675 0.2911059 1 1 1
v -0.4875 0.675 0.06610586 1 1 1
v -0.45 0.675 0.3286058 1 1 1
v -0.2625 0.675 0.06610586 1 1 1
v -0.3 0.675 0.3286058 1 1 1
v -0.2625 0.675 0.2911059 1 1 1
v 0.2625 0.525 0.06610584 1 1 1
v 0.2625 0.525 0.2911058 1 1 1
v 0.4875 0.525 0.06610584 1 1 1
v 0.3 0.525 0.3286058 1 1 1
v 0.45 0.525 0.3286058 1 1 1
v 0.4875 0.525 0.2911058 1 1 1
v 0.2625 0.675 0.2911058 1 1 1
v 0.2625 0.675 0.06610584 1 1 1
v 0.3 0.675 0.3286058 1 1 1
v 0.4875 0.675 0.06610584 1 1 1
v 0.45 0.675 0.3286058 1 1 1
v 0.4875 0.675 0.2911058 1 1 1
v -0.525 0.8725944 0.05913944 1 1 1
v -0.525 0.418715 -0.03163643 1 1 1
v -0.493934 0.9030571 0.06523198 1 1 1
v -0.493934 0.3882523 -0.03772898 1 1 1
v 0.493934 0.3882523 -0.03772899 1 1 1
v 0.525 0.8725944 0.05913942 1 1 1
v 0.525 0.418715 -0.03163645 1 1 1
v 0.493934 0.9030571 0.06523196 1 1 1

vn 0 0.6320308 0.7749432
vn 0 0.979576 0.201074
vn 0 0.9238795 -0.3826834
vn 0 0.3826834 -0.9238795
vn 0 0 -1
vn 0 1 0
vn 0 0 1
vn 0 0.1961161 -0.9805807
vn -1 0 0
vn 0 -1 0
vn 1 0 0
vn -0.9238795 0.3752519 0.07505041
vn -0.9238795 -0.3752519 -0.07505038
vn -0.3826834 -0.9059384 -0.1811877
vn -0.3826834 0.9059384 0.1811877
vn 0.9238795 -0.3752519 -0.07505041
vn 0.3826834 -0.9059384 -0.1811877
vn 1.461146E-08 -0.1961161 0.9805807
vn 0.9238795 0.3752519 0.07505038
vn 0.3826834 0.9059384 0.1811877
vn -1.461146E-08 0.1961161 -0.9805807
vn -0.9238795 0 0.3826834
vn -1 0 1.490083E-08
vn 0.9238795 0 0.3826834
vn 1 0 -1.490083E-08
vn 0.3826834 0 0.9238795
vn -0.3826834 0 0.9238795

vt 0.34375 0.2181578
vt 0.34375 0.225
vt 0.34375 0.05833334
vt 0.34375 0.04166667
vt 0.34375 0.025
vt 0.09375 0.1952128
vt 0.09375 0.0462766
vt 0.09375 0.2037234
vt 0.09375 0.05478723
vt 0.09375 0.025
vt 0.09375 0.03351064
vt 0.09375 0.2164893
vt 0.09375 0.225
vt 0.09375 0.06360029
vt 0.09375 0.1949103
vt 0.46875 0.190655
vt 0.46875 0.1949103
vt 0.46875 0.05934497
vt 0.46875 0.06360029
vt 0.46875 0.1994681
vt 0.46875 0.2037234
vt 0.46875 0.05053191
vt 0.46875 0.05478723

usemtl colormap

f 3/2/2 2/1/1 1/1/1
f 2/1/1 3/2/2 4/2/2
f 7/4/4 6/3/3 5/3/3
f 6/3/3 7/4/4 8/4/4
f 8/4/4 10/5/5 9/5/5
f 10/5/5 8/4/4 7/4/4
f 5/3/3 12/3/6 11/3/6
f 12/3/6 5/3/3 6/3/3
f 1/1/1 14/5/7 13/5/7
f 14/5/7 1/1/1 2/1/1
f 4/2/8 11/3/8 12/3/8
f 11/3/8 4/2/8 3/2/8
f 14/5/9 8/4/9 9/5/9
f 8/4/9 14/5/9 6/3/9
f 6/3/9 14/5/9 12/3/9
f 12/3/9 14/5/9 4/2/9
f 4/2/9 14/5/9 2/1/9
f 17/4/4 16/5/5 15/5/5
f 16/5/5 17/4/4 18/4/4
f 21/1/1 20/5/7 19/5/7
f 20/5/7 21/1/1 22/1/1
f 20/5/9 17/4/9 15/5/9
f 17/4/9 20/5/9 23/3/9
f 23/3/9 20/5/9 24/3/9
f 24/3/9 20/5/9 25/2/9
f 25/2/9 20/5/9 22/1/9
f 27/3/3 24/3/6 26/3/6
f 24/3/6 27/3/3 23/3/3
f 25/2/8 26/3/8 24/3/8
f 26/3/8 25/2/8 28/2/8
f 20/5/10 16/5/10 19/5/10
f 16/5/10 20/5/10 15/5/10
f 18/4/4 23/3/3 27/3/3
f 23/3/3 18/4/4 17/4/4
f 27/3/11 16/5/11 18/4/11
f 16/5/11 27/3/11 19/5/11
f 19/5/11 27/3/11 26/3/11
f 19/5/11 26/3/11 28/2/11
f 19/5/11 28/2/11 21/1/11
f 28/2/2 22/1/1 21/1/1
f 22/1/1 28/2/2 25/2/2
f 14/5/10 10/5/10 13/5/10
f 10/5/10 14/5/10 9/5/10
f 5/3/11 10/5/11 7/4/11
f 10/5/11 5/3/11 13/5/11
f 13/5/11 5/3/11 11/3/11
f 13/5/11 11/3/11 3/2/11
f 13/5/11 3/2/11 1/1/11
f 31/8/12 30/7/13 29/6/12
f 30/7/13 31/8/12 32/9/13
f 32/9/13 33/10/14 30/7/13
f 33/10/14 32/9/13 34/11/14
f 36/13/15 29/6/12 35/12/15
f 29/6/12 36/13/15 31/8/12
f 39/10/17 38/9/16 37/7/16
f 38/9/16 39/10/17 40/11/17
f 37/7/18 33/10/18 39/10/18
f 33/10/18 37/7/18 30/7/18
f 30/7/18 37/7/18 41/6/18
f 30/7/18 41/6/18 29/6/18
f 29/6/18 41/6/18 42/12/18
f 29/6/18 42/12/18 35/12/18
f 37/7/16 43/8/19 41/6/19
f 43/8/19 37/7/16 38/9/16
f 40/11/17 33/10/14 34/11/14
f 33/10/14 40/11/17 39/10/17
f 41/6/19 44/13/20 42/12/20
f 44/13/20 41/6/19 43/8/19
f 32/9/21 40/11/21 34/11/21
f 40/11/21 32/9/21 38/9/21
f 38/9/21 32/9/21 45/9/21
f 45/9/21 32/9/21 46/14/21
f 47/9/21 38/9/21 45/9/21
f 48/14/21 38/9/21 47/9/21
f 46/14/21 32/9/21 31/8/21
f 46/14/21 31/8/21 49/15/21
f 49/15/21 31/8/21 50/8/21
f 50/8/21 31/8/21 36/13/21
f 38/9/21 48/14/21 43/8/21
f 43/8/21 48/14/21 51/15/21
f 50/8/21 36/13/21 52/8/21
f 43/8/21 51/15/21 52/8/21
f 44/13/21 52/8/21 36/13/21
f 43/8/21 52/8/21 44/13/21
f 42/12/20 36/13/15 35/12/15
f 36/13/15 42/12/20 44/13/20
f 55/10/10 54/10/10 53/10/10
f 54/10/10 55/10/10 56/10/10
f 56/10/10 55/10/10 57/10/10
f 57/10/10 55/10/10 58/10/10
f 61/13/6 60/13/6 59/13/6
f 60/13/6 61/13/6 62/13/6
f 62/13/6 61/13/6 63/13/6
f 62/13/6 63/13/6 64/13/6
f 60/13/23 54/10/22 59/13/22
f 54/10/22 60/13/23 53/10/23
f 55/10/25 64/13/24 58/10/24
f 64/13/24 55/10/25 62/13/25
f 58/10/24 63/13/26 57/10/26
f 63/13/26 58/10/24 64/13/24
f 63/13/26 56/10/27 57/10/26
f 56/10/27 63/13/26 61/13/27
f 59/13/22 56/10/27 61/13/27
f 56/10/27 59/13/22 54/10/22
f 67/10/10 66/10/10 65/10/10
f 66/10/10 67/10/10 68/10/10
f 68/10/10 67/10/10 69/10/10
f 69/10/10 67/10/10 70/10/10
f 73/13/6 72/13/6 71/13/6
f 72/13/6 73/13/6 74/13/6
f 74/13/6 73/13/6 75/13/6
f 74/13/6 75/13/6 76/13/6
f 72/13/23 66/10/22 71/13/22
f 66/10/22 72/13/23 65/10/23
f 67/10/25 76/13/24 70/10/24
f 76/13/24 67/10/25 74/13/25
f 70/10/24 75/13/26 69/10/26
f 75/13/26 70/10/24 76/13/24
f 75/13/26 68/10/27 69/10/26
f 68/10/27 75/13/26 73/13/27
f 71/13/22 68/10/27 73/13/27
f 68/10/27 71/13/22 66/10/22
f 78/18/19 49/17/16 77/16/16
f 49/17/16 78/18/19 46/19/19
f 77/16/16 50/21/17 79/20/17
f 50/21/17 77/16/16 49/17/16
f 80/22/20 46/19/19 78/18/19
f 46/19/19 80/22/20 45/23/20
f 80/22/20 47/23/15 45/23/20
f 47/23/15 80/22/20 81/22/15
f 51/17/13 83/18/12 82/16/13
f 83/18/12 51/17/13 48/19/12
f 80/22/21 83/18/21 81/22/21
f 83/18/21 80/22/21 78/18/21
f 83/18/21 78/18/21 82/16/21
f 82/16/21 78/18/21 77/16/21
f 82/16/21 77/16/21 79/20/21
f 82/16/21 79/20/21 84/20/21
f 48/19/12 81/22/15 83/18/12
f 81/22/15 48/19/12 47/23/15
f 52/21/14 82/16/13 84/20/14
f 82/16/13 52/21/14 51/17/13
f 50/21/17 84/20/14 79/20/17
f 84/20/14 50/21/17 52/21/14

g screen-wide




usemtl colormap

f 3/2/2 2/1/1 1/1/1
f 2/1/1 3/2/2 4/2/2
f 7/4/4 6/3/3 5/3/3
f 6/3/3 7/4/4 8/4/4
f 8/4/4 10/5/5 9/5/5
f 10/5/5 8/4/4 7/4/4
f 5/3/3 12/3/6 11/3/6
f 12/3/6 5/3/3 6/3/3
f 1/1/1 14/5/7 13/5/7
f 14/5/7 1/1/1 2/1/1
f 4/2/8 11/3/8 12/3/8
f 11/3/8 4/2/8 3/2/8
f 14/5/9 8/4/9 9/5/9
f 8/4/9 14/5/9 6/3/9
f 6/3/9 14/5/9 12/3/9
f 12/3/9 14/5/9 4/2/9
f 4/2/9 14/5/9 2/1/9
f 17/4/4 16/5/5 15/5/5
f 16/5/5 17/4/4 18/4/4
f 21/1/1 20/5/7 19/5/7
f 20/5/7 21/1/1 22/1/1
f 20/5/9 17/4/9 15/5/9
f 17/4/9 20/5/9 23/3/9
f 23/3/9 20/5/9 24/3/9
f 24/3/9 20/5/9 25/2/9
f 25/2/9 20/5/9 22/1/9
f 27/3/3 24/3/6 26/3/6
f 24/3/6 27/3/3 23/3/3
f 25/2/8 26/3/8 24/3/8
f 26/3/8 25/2/8 28/2/8
f 20/5/10 16/5/10 19/5/10
f 16/5/10 20/5/10 15/5/10
f 18/4/4 23/3/3 27/3/3
f 23/3/3 18/4/4 17/4/4
f 27/3/11 16/5/11 18/4/11
f 16/5/11 27/3/11 19/5/11
f 19/5/11 27/3/11 26/3/11
f 19/5/11 26/3/11 28/2/11
f 19/5/11 28/2/11 21/1/11
f 28/2/2 22/1/1 21/1/1
f 22/1/1 28/2/2 25/2/2
f 14/5/10 10/5/10 13/5/10
f 10/5/10 14/5/10 9/5/10
f 5/3/11 10/5/11 7/4/11
f 10/5/11 5/3/11 13/5/11
f 13/5/11 5/3/11 11/3/11
f 13/5/11 11/3/11 3/2/11
f 13/5/11 3/2/11 1/1/11
f 31/8/12 30/7/13 29/6/12
f 30/7/13 31/8/12 32/9/13
f 32/9/13 33/10/14 30/7/13
f 33/10/14 32/9/13 34/11/14
f 36/13/15 29/6/12 35/12/15
f 29/6/12 36/13/15 31/8/12
f 39/10/17 38/9/16 37/7/16
f 38/9/16 39/10/17 40/11/17
f 37/7/18 33/10/18 39/10/18
f 33/10/18 37/7/18 30/7/18
f 30/7/18 37/7/18 41/6/18
f 30/7/18 41/6/18 29/6/18
f 29/6/18 41/6/18 42/12/18
f 29/6/18 42/12/18 35/12/18
f 37/7/16 43/8/19 41/6/19
f 43/8/19 37/7/16 38/9/16
f 40/11/17 33/10/14 34/11/14
f 33/10/14 40/11/17 39/10/17
f 41/6/19 44/13/20 42/12/20
f 44/13/20 41/6/19 43/8/19
f 32/9/21 40/11/21 34/11/21
f 40/11/21 32/9/21 38/9/21
f 38/9/21 32/9/21 45/9/21
f 45/9/21 32/9/21 46/14/21
f 47/9/21 38/9/21 45/9/21
f 48/14/21 38/9/21 47/9/21
f 46/14/21 32/9/21 31/8/21
f 46/14/21 31/8/21 49/15/21
f 49/15/21 31/8/21 50/8/21
f 50/8/21 31/8/21 36/13/21
f 38/9/21 48/14/21 43/8/21
f 43/8/21 48/14/21 51/15/21
f 50/8/21 36/13/21 52/8/21
f 43/8/21 51/15/21 52/8/21
f 44/13/21 52/8/21 36/13/21
f 43/8/21 52/8/21 44/13/21
f 42/12/20 36/13/15 35/12/15
f 36/13/15 42/12/20 44/13/20
f 55/10/10 54/10/10 53/10/10
f 54/10/10 55/10/10 56/10/10
f 56/10/10 55/10/10 57/10/10
f 57/10/10 55/10/10 58/10/10
f 61/13/6 60/13/6 59/13/6
f 60/13/6 61/13/6 62/13/6
f 62/13/6 61/13/6 63/13/6
f 62/13/6 63/13/6 64/13/6
f 60/13/23 54/10/22 59/13/22
f 54/10/22 60/13/23 53/10/23
f 55/10/25 64/13/24 58/10/24
f 64/13/24 55/10/25 62/13/25
f 58/10/24 63/13/26 57/10/26
f 63/13/26 58/10/24 64/13/24
f 63/13/26 56/10/27 57/10/26
f 56/10/27 63/13/26 61/13/27
f 59/13/22 56/10/27 61/13/27
f 56/10/27 59/13/22 54/10/22
f 67/10/10 66/10/10 65/10/10
f 66/10/10 67/10/10 68/10/10
f 68/10/10 67/10/10 69/10/10
f 69/10/10 67/10/10 70/10/10
f 73/13/6 72/13/6 71/13/6
f 72/13/6 73/13/6 74/13/6
f 74/13/6 73/13/6 75/13/6
f 74/13/6 75/13/6 76/13/6
f 72/13/23 66/10/22 71/13/22
f 66/10/22 72/13/23 65/10/23
f 67/10/25 76/13/24 70/10/24
f 76/13/24 67/10/25 74/13/25
f 70/10/24 75/13/26 69/10/26
f 75/13/26 70/10/24 76/13/24
f 75/13/26 68/10/27 69/10/26
f 68/10/27 75/13/26 73/13/27
f 71/13/22 68/10/27 73/13/27
f 68/10/27 71/13/22 66/10/22
f 78/18/19 49/17/16 77/16/16
f 49/17/16 78/18/19 46/19/19
f 77/16/16 50/21/17 79/20/17
f 50/21/17 77/16/16 49/17/16
f 80/22/20 46/19/19 78/18/19
f 46/19/19 80/22/20 45/23/20
f 80/22/20 47/23/15 45/23/20
f 47/23/15 80/22/20 81/22/15
f 51/17/13 83/18/12 82/16/13
f 83/18/12 51/17/13 48/19/12
f 80/22/21 83/18/21 81/22/21
f 83/18/21 80/22/21 78/18/21
f 83/18/21 78/18/21 82/16/21
f 82/16/21 78/18/21 77/16/21
f 82/16/21 77/16/21 79/20/21
f 82/16/21 79/20/21 84/20/21
f 48/19/12 81/22/15 83/18/12
f 81/22/15 48/19/12 47/23/15
f 52/21/14 82/16/13 84/20/14
f 82/16/13 52/21/14 51/17/13
f 50/21/17 84/20/14 79/20/17
f 84/20/14 50/21/17 52/21/14

