# Created by Kenney (www.kenney.nl)

mtllib screen-hanging-wide.mtl

g screen-hanging-wide

v -0.375 0.5725943 -0.1203879 1 1 1
v -0.343934 0.6030571 -0.1264805 1 1 1
v -0.375 0.5284683 -0.3410186 1 1 1
v -0.343934 0.558931 -0.3471111 1 1 1
v -0.375 0.118715 -0.02961207 1 1 1
v -0.375 0.1040063 -0.1031556 1 1 1
v -0.375 0.330946 -0.1485436 1 1 1
v -0.375 0.4302298 -0.3213709 1 1 1
v -0.343934 0.08825226 -0.02351952 1 1 1
v -0.343934 0.07354355 -0.09706306 1 1 1
v 0.343934 0.08825226 -0.02351952 1 1 1
v 0.343934 0.07354355 -0.09706306 1 1 1
v 0.375 0.118715 -0.02961207 1 1 1
v 0.375 0.1040063 -0.1031556 1 1 1
v 0.375 0.5725943 -0.1203879 1 1 1
v 0.375 0.5284683 -0.3410186 1 1 1
v 0.343934 0.6030571 -0.1264805 1 1 1
v 0.343934 0.558931 -0.3471111 1 1 1
v 0.375 0.330946 -0.1485436 1 1 1
v 0.375 0.4302298 -0.3213709 1 1 1
v -0.45 0.6177658 -0.05293694 1 1 1
v -0.45 0.558931 -0.3471111 1 1 1
v -0.375 0.6913094 -0.06764565 1 1 1
v -0.375 0.6324745 -0.3618199 1 1 1
v -0.375 0.02941742 0.06473275 1 1 1
v -0.375 0 -0.08235436 1 1 1
v -0.45 0.102961 0.05002403 1 1 1
v -0.45 0.07354355 -0.09706306 1 1 1
v -0.45 0.330946 -0.1485436 1 1 1
v -0.45 0.4302298 -0.3213709 1 1 1
v 0.375 0.02941742 0.06473275 1 1 1
v 0.45 0.102961 0.05002403 1 1 1
v 0.375 0 -0.08235436 1 1 1
v 0.45 0.07354355 -0.09706306 1 1 1
v 0.45 0.6177658 -0.05293694 1 1 1
v 0.45 0.330946 -0.1485436 1 1 1
v 0.45 0.558931 -0.3471111 1 1 1
v 0.45 0.4302298 -0.3213709 1 1 1
v 0.375 0.6913094 -0.06764565 1 1 1
v 0.375 0.6324745 -0.3618199 1 1 1
v 0.15 0.02941742 0.06473275 1 1 1
v 0.15 0.02941742 0.2147327 1 1 1
v 0.3 0.02941742 0.06473275 1 1 1
v 0.3 0.02941742 0.2147327 1 1 1
v 0.3 0.6177658 0.2147327 1 1 1
v 0.3 0.6177658 -0.05293693 1 1 1
v 0.15 0.6177658 0.2147327 1 1 1
v 0.15 0.6177658 -0.05293693 1 1 1
v -0.3 0.02941742 0.06473275 1 1 1
v -0.3 0.02941742 0.2147327 1 1 1
v -0.15 0.02941742 0.06473275 1 1 1
v -0.15 0.02941742 0.2147327 1 1 1
v -0.15 0.6177658 0.2147327 1 1 1
v -0.15 0.6177658 -0.05293693 1 1 1
v -0.3 0.6177658 0.2147327 1 1 1
v -0.3 0.6177658 -0.05293693 1 1 1

vn 0.9238795 -0.3752519 0.07505039
vn 0.3826834 -0.9059384 0.1811877
vn 0.9238795 0.3752519 -0.07505039
vn 1 0 1.565414E-14
vn 0.3826834 0.9059384 -0.1811877
vn -0.3826834 0.9059384 -0.1811877
vn -0.9238795 0.3752519 -0.07505039
vn -0.9238795 -0.3752519 0.07505039
vn -0.3826834 -0.9059384 0.1811877
vn 1.535015E-14 -0.1961161 -0.9805807
vn -1 0 -1.565414E-14
vn 1.270977E-14 -0.5837817 -0.8119106
vn -1.535015E-14 0.1961161 0.9805807
vn 0 -1 0
vn 0 1 0
vn -1.565414E-14 0 1

vt 0.46875 0.190655
vt 0.46875 0.1994681
vt 0.46875 0.1778891
vt 0.46875 0.1867021
vt 0.46875 0.05934497
vt 0.46875 0.05508965
vt 0.46875 0.1207447
vt 0.46875 0.1494681
vt 0.46875 0.05053191
vt 0.46875 0.0462766
vt 0.09375 0.2037234
vt 0.09375 0.1867021
vt 0.09375 0.225
vt 0.09375 0.2079787
vt 0.09375 0.03351064
vt 0.09375 0.025
vt 0.09375 0.05478723
vt 0.09375 0.0462766
vt 0.09375 0.1207447
vt 0.09375 0.1494681
vt 0.09375 0.1778891
vt 0.09375 0.05508965
vt 0.34375 0.025
vt 0.34375 0.225

usemtl colormap

f 3/3/1 2/2/2 1/1/1
f 2/2/2 3/3/1 4/4/2
f 6/6/3 1/1/1 5/5/3
f 1/1/1 6/6/3 7/7/4
f 1/1/1 7/7/4 3/3/1
f 3/3/1 7/7/4 8/8/4
f 10/10/5 5/5/3 9/9/5
f 5/5/3 10/10/5 6/6/3
f 13/5/7 12/10/6 11/9/6
f 12/10/6 13/5/7 14/6/7
f 17/2/9 16/3/8 15/1/8
f 16/3/8 17/2/9 18/4/9
f 18/4/9 2/2/2 4/4/2
f 2/2/2 18/4/9 17/2/9
f 5/5/10 11/9/10 9/9/10
f 11/9/10 5/5/10 13/5/10
f 13/5/10 5/5/10 1/1/10
f 13/5/10 1/1/10 15/1/10
f 15/1/10 1/1/10 2/2/10
f 15/1/10 2/2/10 17/2/10
f 11/9/6 10/10/5 9/9/5
f 10/10/5 11/9/6 12/10/6
f 15/1/8 14/6/7 13/5/7
f 14/6/7 15/1/8 19/7/11
f 19/7/11 15/1/8 16/3/8
f 19/7/11 16/3/8 20/8/11
f 23/13/6 22/12/7 21/11/7
f 22/12/7 23/13/6 24/14/6
f 27/17/8 26/16/9 25/15/9
f 26/16/9 27/17/8 28/18/8
f 21/11/7 28/18/8 27/17/8
f 28/18/8 21/11/7 29/19/11
f 29/19/11 21/11/7 22/12/7
f 29/19/11 22/12/7 30/20/11
f 8/20/12 29/19/12 30/20/12
f 29/19/12 8/20/12 7/19/12
f 33/16/2 32/17/1 31/15/2
f 32/17/1 33/16/2 34/18/1
f 34/18/1 35/11/3 32/17/1
f 35/11/3 34/18/1 36/19/4
f 35/11/3 36/19/4 37/12/3
f 37/12/3 36/19/4 38/20/4
f 37/12/3 39/13/5 35/11/3
f 39/13/5 37/12/3 40/14/5
f 39/13/5 24/14/6 23/13/6
f 24/14/6 39/13/5 40/14/5
f 32/17/13 25/15/13 31/15/13
f 25/15/13 32/17/13 27/17/13
f 27/17/13 32/17/13 35/11/13
f 27/17/13 35/11/13 21/11/13
f 21/11/13 35/11/13 39/13/13
f 21/11/13 39/13/13 23/13/13
f 22/12/10 8/20/12 30/20/12
f 8/20/12 22/12/10 3/21/10
f 3/21/10 22/12/10 4/12/10
f 4/12/10 22/12/10 24/14/10
f 4/12/10 24/14/10 18/12/10
f 18/12/10 24/14/10 37/12/10
f 37/12/10 24/14/10 40/14/10
f 37/12/10 16/21/10 18/12/10
f 38/20/12 16/21/10 37/12/10
f 16/21/10 38/20/12 20/20/12
f 28/18/10 33/16/10 26/16/10
f 33/16/10 28/18/10 10/18/10
f 10/18/10 28/18/10 6/22/10
f 6/22/10 28/18/10 29/19/12
f 6/22/10 29/19/12 7/19/12
f 12/18/10 33/16/10 10/18/10
f 33/16/10 12/18/10 34/18/10
f 34/18/10 12/18/10 14/22/10
f 34/18/10 14/22/10 36/19/12
f 36/19/12 14/22/10 19/19/12
f 38/20/12 19/19/12 20/20/12
f 19/19/12 38/20/12 36/19/12
f 33/16/2 25/15/9 26/16/9
f 25/15/9 33/16/2 31/15/2
f 43/23/14 42/23/14 41/23/14
f 42/23/14 43/23/14 44/23/14
f 43/23/4 45/24/4 44/23/4
f 45/24/4 43/23/4 46/24/4
f 45/24/15 48/24/15 47/24/15
f 48/24/15 45/24/15 46/24/15
f 45/24/16 42/23/16 44/23/16
f 42/23/16 45/24/16 47/24/16
f 48/24/11 42/23/11 47/24/11
f 42/23/11 48/24/11 41/23/11
f 51/23/14 50/23/14 49/23/14
f 50/23/14 51/23/14 52/23/14
f 51/23/4 53/24/4 52/23/4
f 53/24/4 51/23/4 54/24/4
f 53/24/15 56/24/15 55/24/15
f 56/24/15 53/24/15 54/24/15
f 53/24/16 50/23/16 52/23/16
f 50/23/16 53/24/16 55/24/16
f 56/24/11 50/23/11 55/24/11
f 50/23/11 56/24/11 49/23/11

g screen-hanging-wide




usemtl colormap

f 3/3/1 2/2/2 1/1/1
f 2/2/2 3/3/1 4/4/2
f 6/6/3 1/1/1 5/5/3
f 1/1/1 6/6/3 7/7/4
f 1/1/1 7/7/4 3/3/1
f 3/3/1 7/7/4 8/8/4
f 10/10/5 5/5/3 9/9/5
f 5/5/3 10/10/5 6/6/3
f 13/5/7 12/10/6 11/9/6
f 12/10/6 13/5/7 14/6/7
f 17/2/9 16/3/8 15/1/8
f 16/3/8 17/2/9 18/4/9
f 18/4/9 2/2/2 4/4/2
f 2/2/2 18/4/9 17/2/9
f 5/5/10 11/9/10 9/9/10
f 11/9/10 5/5/10 13/5/10
f 13/5/10 5/5/10 1/1/10
f 13/5/10 1/1/10 15/1/10
f 15/1/10 1/1/10 2/2/10
f 15/1/10 2/2/10 17/2/10
f 11/9/6 10/10/5 9/9/5
f 10/10/5 11/9/6 12/10/6
f 15/1/8 14/6/7 13/5/7
f 14/6/7 15/1/8 19/7/11
f 19/7/11 15/1/8 16/3/8
f 19/7/11 16/3/8 20/8/11
f 23/13/6 22/12/7 21/11/7
f 22/12/7 23/13/6 24/14/6
f 27/17/8 26/16/9 25/15/9
f 26/16/9 27/17/8 28/18/8
f 21/11/7 28/18/8 27/17/8
f 28/18/8 21/11/7 29/19/11
f 29/19/11 21/11/7 22/12/7
f 29/19/11 22/12/7 30/20/11
f 8/20/12 29/19/12 30/20/12
f 29/19/12 8/20/12 7/19/12
f 33/16/2 32/17/1 31/15/2
f 32/17/1 33/16/2 34/18/1
f 34/18/1 35/11/3 32/17/1
f 35/11/3 34/18/1 36/19/4
f 35/11/3 36/19/4 37/12/3
f 37/12/3 36/19/4 38/20/4
f 37/12/3 39/13/5 35/11/3
f 39/13/5 37/12/3 40/14/5
f 39/13/5 24/14/6 23/13/6
f 24/14/6 39/13/5 40/14/5
f 32/17/13 25/15/13 31/15/13
f 25/15/13 32/17/13 27/17/13
f 27/17/13 32/17/13 35/11/13
f 27/17/13 35/11/13 21/11/13
f 21/11/13 35/11/13 39/13/13
f 21/11/13 39/13/13 23/13/13
f 22/12/10 8/20/12 30/20/12
f 8/20/12 22/12/10 3/21/10
f 3/21/10 22/12/10 4/12/10
f 4/12/10 22/12/10 24/14/10
f 4/12/10 24/14/10 18/12/10
f 18/12/10 24/14/10 37/12/10
f 37/12/10 24/14/10 40/14/10
f 37/12/10 16/21/10 18/12/10
f 38/20/12 16/21/10 37/12/10
f 16/21/10 38/20/12 20/20/12
f 28/18/10 33/16/10 26/16/10
f 33/16/10 28/18/10 10/18/10
f 10/18/10 28/18/10 6/22/10
f 6/22/10 28/18/10 29/19/12
f 6/22/10 29/19/12 7/19/12
f 12/18/10 33/16/10 10/18/10
f 33/16/10 12/18/10 34/18/10
f 34/18/10 12/18/10 14/22/10
f 34/18/10 14/22/10 36/19/12
f 36/19/12 14/22/10 19/19/12
f 38/20/12 19/19/12 20/20/12
f 19/19/12 38/20/12 36/19/12
f 33/16/2 25/15/9 26/16/9
f 25/15/9 33/16/2 31/15/2
f 43/23/14 42/23/14 41/23/14
f 42/23/14 43/23/14 44/23/14
f 43/23/4 45/24/4 44/23/4
f 45/24/4 43/23/4 46/24/4
f 45/24/15 48/24/15 47/24/15
f 48/24/15 45/24/15 46/24/15
f 45/24/16 42/23/16 44/23/16
f 42/23/16 45/24/16 47/24/16
f 48/24/11 42/23/11 47/24/11
f 42/23/11 48/24/11 41/23/11
f 51/23/14 50/23/14 49/23/14
f 50/23/14 51/23/14 52/23/14
f 51/23/4 53/24/4 52/23/4
f 53/24/4 51/23/4 54/24/4
f 53/24/15 56/24/15 55/24/15
f 56/24/15 53/24/15 54/24/15
f 53/24/16 50/23/16 52/23/16
f 50/23/16 53/24/16 55/24/16
f 56/24/11 50/23/11 55/24/11
f 50/23/11 56/24/11 49/23/11

