# Created by Kenney (www.kenney.nl)

mtllib screen-panel-wide.mtl

g screen-panel-wide

v -0.3 0.86921 0.2911058 1 1 1
v -0.45 0.86921 0.2911058 1 1 1
v -0.3 0.9 0.1411058 1 1 1
v -0.45 0.9 0.1411059 1 1 1
v -0.3 0.15 -0.08389415 1 1 1
v -0.45 0.15 -0.08389414 1 1 1
v -0.3 0.075 -0.1588941 1 1 1
v -0.45 0.075 -0.1588941 1 1 1
v -0.45 0 -0.1588941 1 1 1
v -0.3 0 -0.1588941 1 1 1
v -0.3 0.15 -0.008894145 1 1 1
v -0.45 0.15 -0.008894144 1 1 1
v -0.3 0 0.2911058 1 1 1
v -0.45 0 0.2911058 1 1 1
v 0.3 0 -0.1588942 1 1 1
v 0.45 0 -0.1588942 1 1 1
v 0.3 0.075 -0.1588942 1 1 1
v 0.45 0.075 -0.1588942 1 1 1
v 0.45 0 0.2911058 1 1 1
v 0.3 0 0.2911058 1 1 1
v 0.45 0.86921 0.2911058 1 1 1
v 0.3 0.86921 0.2911058 1 1 1
v 0.3 0.15 -0.08389415 1 1 1
v 0.3 0.15 -0.008894154 1 1 1
v 0.3 0.9 0.1411058 1 1 1
v 0.45 0.15 -0.008894157 1 1 1
v 0.45 0.15 -0.08389416 1 1 1
v 0.45 0.9 0.1411058 1 1 1
v 0.3439339 0.2916937 -0.23675 1 1 1
v 0.3439339 0.3641381 -0.2561614 1 1 1
v 0.268934 0.2722822 -0.3091944 1 1 1
v 0.268934 0.3447267 -0.3286059 1 1 1
v 0.3439339 0.3305165 -0.09186112 1 1 1
v 0.3439339 0.402961 -0.1112726 1 1 1
v -0.343934 0.2916937 -0.23675 1 1 1
v -0.343934 0.3305165 -0.09186111 1 1 1
v -0.268934 0.2722822 -0.3091944 1 1 1
v -0.268934 0.3447267 -0.3286058 1 1 1
v -0.343934 0.402961 -0.1112725 1 1 1
v -0.343934 0.3641381 -0.2561614 1 1 1
v -0.6 0.8883484 0.1387755 1 1 1
v -0.6 0.3735436 0.03581457 1 1 1
v -0.6 0.9177659 -0.008311562 1 1 1
v -0.6 0.402961 -0.1112725 1 1 1
v -0.525 0.3 0.02110586 1 1 1
v -0.525 0.3294174 -0.1259812 1 1 1
v -0.525 0.9618919 0.1534843 1 1 1
v -0.525 0.9913094 0.006397147 1 1 1
v 0.6 0.3735436 0.03581455 1 1 1
v 0.6 0.402961 -0.1112726 1 1 1
v 0.525 0.3 0.02110584 1 1 1
v 0.525 0.3294174 -0.1259813 1 1 1
v 0.6 0.8883484 0.1387755 1 1 1
v 0.525 0.9618919 0.1534842 1 1 1
v 0.6 0.9177659 -0.008311579 1 1 1
v 0.525 0.9913094 0.006397132 1 1 1
v -0.493934 0.402961 -0.1112725 1 1 1
v -0.525 0.4334237 -0.10518 1 1 1
v 0.493934 0.402961 -0.1112726 1 1 1
v 0.525 0.4334237 -0.10518 1 1 1
v -0.525 0.8873031 -0.01440411 1 1 1
v -0.493934 0.9177659 -0.008311562 1 1 1
v 0.525 0.8873031 -0.01440413 1 1 1
v 0.493934 0.9177659 -0.008311577 1 1 1
v -0.4875 0.525 0.06610586 1 1 1
v -0.4875 0.525 0.2911059 1 1 1
v -0.2625 0.525 0.06610586 1 1 1
v -0.45 0.525 0.3286058 1 1 1
v -0.3 0.525 0.3286058 1 1 1
v -0.2625 0.525 0.2911059 1 1 1
v -0.4875 0.675 0.2911059 1 1 1
v -0.4875 0.675 0.06610586 1 1 1
v -0.45 0.675 0.3286058 1 1 1
v -0.2625 0.675 0.06610586 1 1 1
v -0.3 0.675 0.3286058 1 1 1
v -0.2625 0.675 0.2911059 1 1 1
v 0.2625 0.525 0.06610584 1 1 1
v 0.2625 0.525 0.2911058 1 1 1
v 0.4875 0.525 0.06610584 1 1 1
v 0.3 0.525 0.3286058 1 1 1
v 0.45 0.525 0.3286058 1 1 1
v 0.4875 0.525 0.2911058 1 1 1
v 0.2625 0.675 0.2911058 1 1 1
v 0.2625 0.675 0.06610584 1 1 1
v 0.3 0.675 0.3286058 1 1 1
v 0.4875 0.675 0.06610584 1 1 1
v 0.45 0.675 0.3286058 1 1 1
v 0.4875 0.675 0.2911058 1 1 1
v -0.525 0.8725944 0.05913944 1 1 1
v -0.525 0.418715 -0.03163643 1 1 1
v -0.493934 0.9030571 0.06523198 1 1 1
v -0.493934 0.3882523 -0.03772898 1 1 1
v 0.493934 0.3882523 -0.03772899 1 1 1
v 0.525 0.8725944 0.05913942 1 1 1
v 0.525 0.418715 -0.03163645 1 1 1
v 0.493934 0.9030571 0.06523196 1 1 1

vn 0 0.6320308 0.7749432
vn 0 0.979576 0.201074
vn 0 0.9238795 -0.3826834
vn 0 0.3826834 -0.9238795
vn 0 0 -1
vn 0 1 0
vn 0 0 1
vn 0 0.1961161 -0.9805807
vn -1 0 0
vn 0 -1 0
vn 1 0 0
vn 0.9238795 -0.09904575 -0.3696438
vn 0.3826835 -0.2391177 -0.8923991
vn 1 0 -1.490083E-08
vn 3.856618E-09 -0.9659258 0.258819
vn -0.3826835 -0.2391177 -0.8923991
vn -3.856618E-09 0.9659258 -0.258819
vn -0.9238795 -0.09904575 -0.3696438
vn -1 0 1.490083E-08
vn -0.9238795 0.3752519 0.07505041
vn -0.9238795 -0.3752519 -0.07505038
vn -0.3826834 -0.9059384 -0.1811877
vn -0.3826834 0.9059384 0.1811877
vn 0.9238795 -0.3752519 -0.07505041
vn 0.3826834 -0.9059384 -0.1811877
vn 1.461146E-08 -0.1961161 0.9805807
vn 0.9238795 0.3752519 0.07505038
vn 0.3826834 0.9059384 0.1811877
vn -1.461146E-08 0.1961161 -0.9805807
vn -0.9238795 0 0.3826834
vn 0.9238795 0 0.3826834
vn 0.3826834 0 0.9238795
vn -0.3826834 0 0.9238795

vt 0.34375 0.2181578
vt 0.34375 0.225
vt 0.34375 0.05833334
vt 0.34375 0.04166667
vt 0.34375 0.025
vt 0.34375 0.05470863
vt 0.34375 0.1655827
vt 0.34375 0.1358741
vt 0.34375 0.1141259
vt 0.09375 0.1952128
vt 0.09375 0.0462766
vt 0.09375 0.2037234
vt 0.09375 0.05478723
vt 0.09375 0.025
vt 0.09375 0.03351064
vt 0.09375 0.2164893
vt 0.09375 0.225
vt 0.09375 0.06360029
vt 0.09375 0.1949103
vt 0.46875 0.190655
vt 0.46875 0.1949103
vt 0.46875 0.05934497
vt 0.46875 0.06360029
vt 0.46875 0.1994681
vt 0.46875 0.2037234
vt 0.46875 0.05053191
vt 0.46875 0.05478723

usemtl colormap

f 3/2/2 2/1/1 1/1/1
f 2/1/1 3/2/2 4/2/2
f 7/4/4 6/3/3 5/3/3
f 6/3/3 7/4/4 8/4/4
f 8/4/4 10/5/5 9/5/5
f 10/5/5 8/4/4 7/4/4
f 5/3/3 12/3/6 11/3/6
f 12/3/6 5/3/3 6/3/3
f 1/1/1 14/5/7 13/5/7
f 14/5/7 1/1/1 2/1/1
f 4/2/8 11/3/8 12/3/8
f 11/3/8 4/2/8 3/2/8
f 14/5/9 8/4/9 9/5/9
f 8/4/9 14/5/9 6/3/9
f 6/3/9 14/5/9 12/3/9
f 12/3/9 14/5/9 4/2/9
f 4/2/9 14/5/9 2/1/9
f 17/4/4 16/5/5 15/5/5
f 16/5/5 17/4/4 18/4/4
f 21/1/1 20/5/7 19/5/7
f 20/5/7 21/1/1 22/1/1
f 20/5/9 17/4/9 15/5/9
f 17/4/9 20/5/9 23/3/9
f 23/3/9 20/5/9 24/3/9
f 24/3/9 20/5/9 25/2/9
f 25/2/9 20/5/9 22/1/9
f 27/3/3 24/3/6 26/3/6
f 24/3/6 27/3/3 23/3/3
f 25/2/8 26/3/8 24/3/8
f 26/3/8 25/2/8 28/2/8
f 20/5/10 16/5/10 19/5/10
f 16/5/10 20/5/10 15/5/10
f 18/4/4 23/3/3 27/3/3
f 23/3/3 18/4/4 17/4/4
f 27/3/11 16/5/11 18/4/11
f 16/5/11 27/3/11 19/5/11
f 19/5/11 27/3/11 26/3/11
f 19/5/11 26/3/11 28/2/11
f 19/5/11 28/2/11 21/1/11
f 28/2/2 22/1/1 21/1/1
f 22/1/1 28/2/2 25/2/2
f 14/5/10 10/5/10 13/5/10
f 10/5/10 14/5/10 9/5/10
f 5/3/11 10/5/11 7/4/11
f 10/5/11 5/3/11 13/5/11
f 13/5/11 5/3/11 11/3/11
f 13/5/11 11/3/11 3/2/11
f 13/5/11 3/2/11 1/1/11
f 31/5/13 30/7/12 29/6/12
f 30/7/12 31/5/13 32/8/13
f 29/6/12 34/2/14 33/9/14
f 34/2/14 29/6/12 30/7/12
f 37/5/15 36/9/15 35/6/15
f 36/9/15 37/5/15 33/9/15
f 33/9/15 37/5/15 31/5/15
f 33/9/15 31/5/15 29/6/15
f 38/8/16 31/5/13 37/5/16
f 31/5/13 38/8/16 32/8/13
f 34/2/17 40/7/17 39/2/17
f 40/7/17 34/2/17 38/8/17
f 38/8/17 34/2/17 32/8/17
f 32/8/17 34/2/17 30/7/17
f 40/7/18 37/5/16 35/6/18
f 37/5/16 40/7/18 38/8/16
f 39/2/19 35/6/18 36/9/19
f 35/6/18 39/2/19 40/7/18
f 43/12/20 42/11/21 41/10/20
f 42/11/21 43/12/20 44/13/21
f 44/13/21 45/14/22 42/11/21
f 45/14/22 44/13/21 46/15/22
f 48/17/23 41/10/20 47/16/23
f 41/10/20 48/17/23 43/12/20
f 51/14/25 50/13/24 49/11/24
f 50/13/24 51/14/25 52/15/25
f 49/11/26 45/14/26 51/14/26
f 45/14/26 49/11/26 42/11/26
f 42/11/26 49/11/26 53/10/26
f 42/11/26 53/10/26 41/10/26
f 41/10/26 53/10/26 54/16/26
f 41/10/26 54/16/26 47/16/26
f 49/11/24 55/12/27 53/10/27
f 55/12/27 49/11/24 50/13/24
f 52/15/25 45/14/22 46/15/22
f 45/14/22 52/15/25 51/14/25
f 53/10/27 56/17/28 54/16/28
f 56/17/28 53/10/27 55/12/27
f 44/13/29 52/15/29 46/15/29
f 52/15/29 44/13/29 50/13/29
f 50/13/29 44/13/29 57/13/29
f 57/13/29 44/13/29 58/18/29
f 59/13/29 50/13/29 57/13/29
f 60/18/29 50/13/29 59/13/29
f 58/18/29 44/13/29 43/12/29
f 58/18/29 43/12/29 61/19/29
f 61/19/29 43/12/29 62/12/29
f 62/12/29 43/12/29 48/17/29
f 50/13/29 60/18/29 55/12/29
f 55/12/29 60/18/29 63/19/29
f 62/12/29 48/17/29 64/12/29
f 55/12/29 63/19/29 64/12/29
f 56/17/29 64/12/29 48/17/29
f 55/12/29 64/12/29 56/17/29
f 54/16/28 48/17/23 47/16/23
f 48/17/23 54/16/28 56/17/28
f 67/14/10 66/14/10 65/14/10
f 66/14/10 67/14/10 68/14/10
f 68/14/10 67/14/10 69/14/10
f 69/14/10 67/14/10 70/14/10
f 73/17/6 72/17/6 71/17/6
f 72/17/6 73/17/6 74/17/6
f 74/17/6 73/17/6 75/17/6
f 74/17/6 75/17/6 76/17/6
f 72/17/19 66/14/30 71/17/30
f 66/14/30 72/17/19 65/14/19
f 67/14/14 76/17/31 70/14/31
f 76/17/31 67/14/14 74/17/14
f 70/14/31 75/17/32 69/14/32
f 75/17/32 70/14/31 76/17/31
f 75/17/32 68/14/33 69/14/32
f 68/14/33 75/17/32 73/17/33
f 71/17/30 68/14/33 73/17/33
f 68/14/33 71/17/30 66/14/30
f 79/14/10 78/14/10 77/14/10
f 78/14/10 79/14/10 80/14/10
f 80/14/10 79/14/10 81/14/10
f 81/14/10 79/14/10 82/14/10
f 85/17/6 84/17/6 83/17/6
f 84/17/6 85/17/6 86/17/6
f 86/17/6 85/17/6 87/17/6
f 86/17/6 87/17/6 88/17/6
f 84/17/19 78/14/30 83/17/30
f 78/14/30 84/17/19 77/14/19
f 79/14/14 88/17/31 82/14/31
f 88/17/31 79/14/14 86/17/14
f 82/14/31 87/17/32 81/14/32
f 87/17/32 82/14/31 88/17/31
f 87/17/32 80/14/33 81/14/32
f 80/14/33 87/17/32 85/17/33
f 83/17/30 80/14/33 85/17/33
f 80/14/33 83/17/30 78/14/30
f 90/22/27 61/21/24 89/20/24
f 61/21/24 90/22/27 58/23/27
f 89/20/24 62/25/25 91/24/25
f 62/25/25 89/20/24 61/21/24
f 92/26/28 58/23/27 90/22/27
f 58/23/27 92/26/28 57/27/28
f 92/26/28 59/27/23 57/27/28
f 59/27/23 92/26/28 93/26/23
f 63/21/21 95/22/20 94/20/21
f 95/22/20 63/21/21 60/23/20
f 92/26/29 95/22/29 93/26/29
f 95/22/29 92/26/29 90/22/29
f 95/22/29 90/22/29 94/20/29
f 94/20/29 90/22/29 89/20/29
f 94/20/29 89/20/29 91/24/29
f 94/20/29 91/24/29 96/24/29
f 60/23/20 93/26/23 95/22/20
f 93/26/23 60/23/20 59/27/23
f 64/25/22 94/20/21 96/24/22
f 94/20/21 64/25/22 63/21/21
f 62/25/25 96/24/22 91/24/25
f 96/24/22 62/25/25 64/25/22

g screen-panel-wide




usemtl colormap

f 3/2/2 2/1/1 1/1/1
f 2/1/1 3/2/2 4/2/2
f 7/4/4 6/3/3 5/3/3
f 6/3/3 7/4/4 8/4/4
f 8/4/4 10/5/5 9/5/5
f 10/5/5 8/4/4 7/4/4
f 5/3/3 12/3/6 11/3/6
f 12/3/6 5/3/3 6/3/3
f 1/1/1 14/5/7 13/5/7
f 14/5/7 1/1/1 2/1/1
f 4/2/8 11/3/8 12/3/8
f 11/3/8 4/2/8 3/2/8
f 14/5/9 8/4/9 9/5/9
f 8/4/9 14/5/9 6/3/9
f 6/3/9 14/5/9 12/3/9
f 12/3/9 14/5/9 4/2/9
f 4/2/9 14/5/9 2/1/9
f 17/4/4 16/5/5 15/5/5
f 16/5/5 17/4/4 18/4/4
f 21/1/1 20/5/7 19/5/7
f 20/5/7 21/1/1 22/1/1
f 20/5/9 17/4/9 15/5/9
f 17/4/9 20/5/9 23/3/9
f 23/3/9 20/5/9 24/3/9
f 24/3/9 20/5/9 25/2/9
f 25/2/9 20/5/9 22/1/9
f 27/3/3 24/3/6 26/3/6
f 24/3/6 27/3/3 23/3/3
f 25/2/8 26/3/8 24/3/8
f 26/3/8 25/2/8 28/2/8
f 20/5/10 16/5/10 19/5/10
f 16/5/10 20/5/10 15/5/10
f 18/4/4 23/3/3 27/3/3
f 23/3/3 18/4/4 17/4/4
f 27/3/11 16/5/11 18/4/11
f 16/5/11 27/3/11 19/5/11
f 19/5/11 27/3/11 26/3/11
f 19/5/11 26/3/11 28/2/11
f 19/5/11 28/2/11 21/1/11
f 28/2/2 22/1/1 21/1/1
f 22/1/1 28/2/2 25/2/2
f 14/5/10 10/5/10 13/5/10
f 10/5/10 14/5/10 9/5/10
f 5/3/11 10/5/11 7/4/11
f 10/5/11 5/3/11 13/5/11
f 13/5/11 5/3/11 11/3/11
f 13/5/11 11/3/11 3/2/11
f 13/5/11 3/2/11 1/1/11
f 31/5/13 30/7/12 29/6/12
f 30/7/12 31/5/13 32/8/13
f 29/6/12 34/2/14 33/9/14
f 34/2/14 29/6/12 30/7/12
f 37/5/15 36/9/15 35/6/15
f 36/9/15 37/5/15 33/9/15
f 33/9/15 37/5/15 31/5/15
f 33/9/15 31/5/15 29/6/15
f 38/8/16 31/5/13 37/5/16
f 31/5/13 38/8/16 32/8/13
f 34/2/17 40/7/17 39/2/17
f 40/7/17 34/2/17 38/8/17
f 38/8/17 34/2/17 32/8/17
f 32/8/17 34/2/17 30/7/17
f 40/7/18 37/5/16 35/6/18
f 37/5/16 40/7/18 38/8/16
f 39/2/19 35/6/18 36/9/19
f 35/6/18 39/2/19 40/7/18
f 43/12/20 42/11/21 41/10/20
f 42/11/21 43/12/20 44/13/21
f 44/13/21 45/14/22 42/11/21
f 45/14/22 44/13/21 46/15/22
f 48/17/23 41/10/20 47/16/23
f 41/10/20 48/17/23 43/12/20
f 51/14/25 50/13/24 49/11/24
f 50/13/24 51/14/25 52/15/25
f 49/11/26 45/14/26 51/14/26
f 45/14/26 49/11/26 42/11/26
f 42/11/26 49/11/26 53/10/26
f 42/11/26 53/10/26 41/10/26
f 41/10/26 53/10/26 54/16/26
f 41/10/26 54/16/26 47/16/26
f 49/11/24 55/12/27 53/10/27
f 55/12/27 49/11/24 50/13/24
f 52/15/25 45/14/22 46/15/22
f 45/14/22 52/15/25 51/14/25
f 53/10/27 56/17/28 54/16/28
f 56/17/28 53/10/27 55/12/27
f 44/13/29 52/15/29 46/15/29
f 52/15/29 44/13/29 50/13/29
f 50/13/29 44/13/29 57/13/29
f 57/13/29 44/13/29 58/18/29
f 59/13/29 50/13/29 57/13/29
f 60/18/29 50/13/29 59/13/29
f 58/18/29 44/13/29 43/12/29
f 58/18/29 43/12/29 61/19/29
f 61/19/29 43/12/29 62/12/29
f 62/12/29 43/12/29 48/17/29
f 50/13/29 60/18/29 55/12/29
f 55/12/29 60/18/29 63/19/29
f 62/12/29 48/17/29 64/12/29
f 55/12/29 63/19/29 64/12/29
f 56/17/29 64/12/29 48/17/29
f 55/12/29 64/12/29 56/17/29
f 54/16/28 48/17/23 47/16/23
f 48/17/23 54/16/28 56/17/28
f 67/14/10 66/14/10 65/14/10
f 66/14/10 67/14/10 68/14/10
f 68/14/10 67/14/10 69/14/10
f 69/14/10 67/14/10 70/14/10
f 73/17/6 72/17/6 71/17/6
f 72/17/6 73/17/6 74/17/6
f 74/17/6 73/17/6 75/17/6
f 74/17/6 75/17/6 76/17/6
f 72/17/19 66/14/30 71/17/30
f 66/14/30 72/17/19 65/14/19
f 67/14/14 76/17/31 70/14/31
f 76/17/31 67/14/14 74/17/14
f 70/14/31 75/17/32 69/14/32
f 75/17/32 70/14/31 76/17/31
f 75/17/32 68/14/33 69/14/32
f 68/14/33 75/17/32 73/17/33
f 71/17/30 68/14/33 73/17/33
f 68/14/33 71/17/30 66/14/30
f 79/14/10 78/14/10 77/14/10
f 78/14/10 79/14/10 80/14/10
f 80/14/10 79/14/10 81/14/10
f 81/14/10 79/14/10 82/14/10
f 85/17/6 84/17/6 83/17/6
f 84/17/6 85/17/6 86/17/6
f 86/17/6 85/17/6 87/17/6
f 86/17/6 87/17/6 88/17/6
f 84/17/19 78/14/30 83/17/30
f 78/14/30 84/17/19 77/14/19
f 79/14/14 88/17/31 82/14/31
f 88/17/31 79/14/14 86/17/14
f 82/14/31 87/17/32 81/14/32
f 87/17/32 82/14/31 88/17/31
f 87/17/32 80/14/33 81/14/32
f 80/14/33 87/17/32 85/17/33
f 83/17/30 80/14/33 85/17/33
f 80/14/33 83/17/30 78/14/30
f 90/22/27 61/21/24 89/20/24
f 61/21/24 90/22/27 58/23/27
f 89/20/24 62/25/25 91/24/25
f 62/25/25 89/20/24 61/21/24
f 92/26/28 58/23/27 90/22/27
f 58/23/27 92/26/28 57/27/28
f 92/26/28 59/27/23 57/27/28
f 59/27/23 92/26/28 93/26/23
f 63/21/21 95/22/20 94/20/21
f 95/22/20 63/21/21 60/23/20
f 92/26/29 95/22/29 93/26/29
f 95/22/29 92/26/29 90/22/29
f 95/22/29 90/22/29 94/20/29
f 94/20/29 90/22/29 89/20/29
f 94/20/29 89/20/29 91/24/29
f 94/20/29 91/24/29 96/24/29
f 60/23/20 93/26/23 95/22/20
f 93/26/23 60/23/20 59/27/23
f 64/25/22 94/20/21 96/24/22
f 94/20/21 64/25/22 63/21/21
f 62/25/25 96/24/22 91/24/25
f 96/24/22 62/25/25 64/25/22

