# Created by Kenney (www.kenney.nl)

mtllib screen-small.mtl

g screen-small

v 0.2625 0.525 0.2911059 1 1 1
v 0.2625 0.675 0.2911059 1 1 1
v 0.2625 0.525 0.06610586 1 1 1
v 0.2625 0.675 0.06610586 1 1 1
v 0.225 0.525 0.3286058 1 1 1
v 0.225 0.675 0.3286058 1 1 1
v -0.2625 0.675 0.2911059 1 1 1
v -0.2625 0.675 0.06610586 1 1 1
v -0.225 0.675 0.3286058 1 1 1
v -0.2625 0.525 0.06610586 1 1 1
v -0.2625 0.525 0.2911059 1 1 1
v -0.225 0.525 0.3286058 1 1 1
v -0.225 0.3294174 -0.1259813 1 1 1
v -0.225 0.3 0.02110585 1 1 1
v 0.225 0.3294174 -0.1259813 1 1 1
v 0.225 0.3 0.02110585 1 1 1
v 0.3 0.8883484 0.1387755 1 1 1
v 0.3 0.9177659 -0.008311571 1 1 1
v 0.3 0.3735436 0.03581456 1 1 1
v 0.3 0.402961 -0.1112725 1 1 1
v -0.3 0.8883484 0.1387755 1 1 1
v -0.3 0.3735436 0.03581456 1 1 1
v -0.3 0.9177659 -0.008311571 1 1 1
v -0.3 0.402961 -0.1112725 1 1 1
v -0.225 0.9618919 0.1534842 1 1 1
v -0.225 0.9913094 0.006397139 1 1 1
v 0.225 0.9618919 0.1534842 1 1 1
v 0.225 0.9913094 0.006397139 1 1 1
v -0.193934 0.402961 -0.1112725 1 1 1
v -0.225 0.4334237 -0.10518 1 1 1
v 0.193934 0.402961 -0.1112725 1 1 1
v 0.225 0.4334237 -0.10518 1 1 1
v -0.225 0.8873031 -0.01440412 1 1 1
v -0.193934 0.9177659 -0.008311571 1 1 1
v 0.225 0.8873031 -0.01440412 1 1 1
v 0.193934 0.9177659 -0.008311571 1 1 1
v 0.1642102 0 0.3028505 1 1 1
v 0.2806787 0 -0.131816 1 1 1
v 0.01932129 0 0.2640277 1 1 1
v 0.1357899 0 -0.1706389 1 1 1
v 0.1642102 0.86921 0.3028505 1 1 1
v 0.01932129 0.86921 0.2640277 1 1 1
v 0.1357899 0.075 -0.1706389 1 1 1
v 0.2806787 0.075 -0.131816 1 1 1
v 0.096967 0.15 -0.02575003 1 1 1
v 0.2418559 0.15 0.01307283 1 1 1
v 0.05814414 0.9 0.1191388 1 1 1
v 0.203033 0.9 0.1579617 1 1 1
v 0.2612673 0.15 -0.0593716 1 1 1
v 0.1163784 0.15 -0.09819446 1 1 1
v -0.01932128 0 0.2640277 1 1 1
v -0.1357898 0 -0.1706389 1 1 1
v -0.1642101 0 0.3028505 1 1 1
v -0.2806787 0 -0.131816 1 1 1
v -0.01932128 0.86921 0.2640277 1 1 1
v -0.1642101 0.86921 0.3028505 1 1 1
v -0.2806787 0.075 -0.131816 1 1 1
v -0.1357898 0.075 -0.1706389 1 1 1
v -0.2418558 0.15 0.01307283 1 1 1
v -0.09696698 0.15 -0.02575003 1 1 1
v -0.203033 0.9 0.1579617 1 1 1
v -0.05814412 0.9 0.1191388 1 1 1
v -0.1163784 0.15 -0.09819446 1 1 1
v -0.2612673 0.15 -0.0593716 1 1 1
v -0.193934 0.3882523 -0.03772898 1 1 1
v 0.193934 0.3882523 -0.03772898 1 1 1
v -0.225 0.8725944 0.05913943 1 1 1
v -0.225 0.418715 -0.03163644 1 1 1
v 0.225 0.8725944 0.05913943 1 1 1
v 0.225 0.418715 -0.03163644 1 1 1
v 0.193934 0.9030571 0.06523197 1 1 1
v -0.193934 0.9030571 0.06523197 1 1 1

vn 0.9238795 0 0.3826834
vn 1 0 -9.306445E-14
vn 0.3826834 0 0.9238795
vn 0 1 0
vn 0 -1 0
vn -0.9238795 0 0.3826834
vn -1 0 9.306445E-14
vn -0.3826834 0 0.9238795
vn -0.3826834 -0.9059384 -0.1811877
vn 0.3826834 -0.9059384 -0.1811877
vn 0.9238795 0.3752519 0.07505039
vn 0.9238795 -0.3752519 -0.07505039
vn -0.9238795 0.3752519 0.07505039
vn -0.9238795 -0.3752519 -0.07505039
vn -0.3826834 0.9059384 0.1811877
vn 9.12572E-14 -0.1961161 0.9805807
vn 0.3826834 0.9059384 0.1811877
vn -9.12572E-14 0.1961161 -0.9805807
vn -0.258819 0 0.9659258
vn -0.2005701 0.6320308 0.7485376
vn 0.258819 0 -0.9659258
vn 0.2391176 0.3826834 -0.892399
vn 0.2537929 0.1961161 -0.9471681
vn 0.09904576 0.9238795 -0.3696438
vn 0.9659258 0 0.258819
vn -0.9659258 0 -0.258819
vn -0.05204179 0.979576 0.1942226
vn 0.258819 0 0.9659258
vn 0.2005701 0.6320308 0.7485376
vn -0.258819 0 -0.9659258
vn -0.2391176 0.3826834 -0.892399
vn -0.2537929 0.1961161 -0.9471681
vn -0.09904576 0.9238795 -0.3696438
vn 0.9659258 0 -0.258819
vn -0.9659258 0 0.258819
vn 0.05204179 0.979576 0.1942226

vt 0.09375 0.025
vt 0.09375 0.225
vt 0.09375 0.03351064
vt 0.09375 0.1952128
vt 0.09375 0.2037234
vt 0.09375 0.0462766
vt 0.09375 0.05478723
vt 0.09375 0.2164893
vt 0.09375 0.06360029
vt 0.09375 0.1949103
vt 0.34375 0.025
vt 0.34375 0.2181578
vt 0.34375 0.04166667
vt 0.34375 0.05833334
vt 0.34375 0.225
vt 0.46875 0.05053191
vt 0.46875 0.05478723
vt 0.46875 0.190655
vt 0.46875 0.1949103
vt 0.46875 0.05934497
vt 0.46875 0.06360029
vt 0.46875 0.1994681
vt 0.46875 0.2037234

usemtl colormap

f 3/1/2 2/2/1 1/1/1
f 2/2/1 3/1/2 4/2/2
f 1/1/1 6/2/3 5/1/3
f 6/2/3 1/1/1 2/2/1
f 9/2/4 8/2/4 7/2/4
f 8/2/4 9/2/4 4/2/4
f 4/2/4 9/2/4 6/2/4
f 4/2/4 6/2/4 2/2/4
f 3/1/5 11/1/5 10/1/5
f 11/1/5 3/1/5 12/1/5
f 12/1/5 3/1/5 5/1/5
f 5/1/5 3/1/5 1/1/5
f 8/2/7 11/1/6 7/2/6
f 11/1/6 8/2/7 10/1/7
f 7/2/6 12/1/8 9/2/8
f 12/1/8 7/2/6 11/1/6
f 6/2/3 12/1/8 5/1/3
f 12/1/8 6/2/3 9/2/8
f 15/3/10 14/1/9 13/3/9
f 14/1/9 15/3/10 16/1/10
f 19/6/12 18/5/11 17/4/11
f 18/5/11 19/6/12 20/7/12
f 23/5/13 22/6/14 21/4/13
f 22/6/14 23/5/13 24/7/14
f 24/7/14 14/1/9 22/6/14
f 14/1/9 24/7/14 13/3/9
f 26/2/15 21/4/13 25/8/15
f 21/4/13 26/2/15 23/5/13
f 19/6/16 14/1/16 16/1/16
f 14/1/16 19/6/16 22/6/16
f 22/6/16 19/6/16 17/4/16
f 22/6/16 17/4/16 21/4/16
f 21/4/16 17/4/16 27/8/16
f 21/4/16 27/8/16 25/8/16
f 17/4/11 28/2/17 27/8/17
f 28/2/17 17/4/11 18/5/11
f 27/8/17 26/2/15 25/8/15
f 26/2/15 27/8/17 28/2/17
f 24/7/18 15/3/18 13/3/18
f 15/3/18 24/7/18 20/7/18
f 20/7/18 24/7/18 29/7/18
f 29/7/18 24/7/18 30/9/18
f 31/7/18 20/7/18 29/7/18
f 32/9/18 20/7/18 31/7/18
f 30/9/18 24/7/18 23/5/18
f 30/9/18 23/5/18 33/10/18
f 33/10/18 23/5/18 34/5/18
f 34/5/18 23/5/18 26/2/18
f 20/7/18 32/9/18 18/5/18
f 18/5/18 32/9/18 35/10/18
f 34/5/18 26/2/18 36/5/18
f 18/5/18 35/10/18 36/5/18
f 28/2/18 36/5/18 26/2/18
f 18/5/18 36/5/18 28/2/18
f 16/1/10 20/7/12 19/6/12
f 20/7/12 16/1/10 15/3/10
f 39/11/5 38/11/5 37/11/5
f 38/11/5 39/11/5 40/11/5
f 41/12/20 39/11/19 37/11/19
f 39/11/19 41/12/20 42/12/20
f 43/13/22 38/11/21 40/11/21
f 38/11/21 43/13/22 44/13/22
f 47/15/23 46/14/23 45/14/23
f 46/14/23 47/15/23 48/15/23
f 49/14/24 45/14/4 46/14/4
f 45/14/4 49/14/24 50/14/24
f 49/14/25 38/11/25 44/13/25
f 38/11/25 49/14/25 37/11/25
f 37/11/25 49/14/25 46/14/25
f 37/11/25 46/14/25 48/15/25
f 37/11/25 48/15/25 41/12/25
f 44/13/22 50/14/24 49/14/24
f 50/14/24 44/13/22 43/13/22
f 39/11/26 43/13/26 40/11/26
f 43/13/26 39/11/26 50/14/26
f 50/14/26 39/11/26 45/14/26
f 45/14/26 39/11/26 47/15/26
f 47/15/26 39/11/26 42/12/26
f 48/15/27 42/12/20 41/12/20
f 42/12/20 48/15/27 47/15/27
f 53/11/5 52/11/5 51/11/5
f 52/11/5 53/11/5 54/11/5
f 55/12/29 53/11/28 51/11/28
f 53/11/28 55/12/29 56/12/29
f 57/13/31 52/11/30 54/11/30
f 52/11/30 57/13/31 58/13/31
f 61/15/32 60/14/32 59/14/32
f 60/14/32 61/15/32 62/15/32
f 63/14/33 59/14/4 60/14/4
f 59/14/4 63/14/33 64/14/33
f 63/14/34 52/11/34 58/13/34
f 52/11/34 63/14/34 51/11/34
f 51/11/34 63/14/34 60/14/34
f 51/11/34 60/14/34 62/15/34
f 51/11/34 62/15/34 55/12/34
f 58/13/31 64/14/33 63/14/33
f 64/14/33 58/13/31 57/13/31
f 53/11/35 57/13/35 54/11/35
f 57/13/35 53/11/35 64/14/35
f 64/14/35 53/11/35 59/14/35
f 59/14/35 53/11/35 61/15/35
f 61/15/35 53/11/35 56/12/35
f 62/15/36 56/12/29 55/12/29
f 56/12/29 62/15/36 61/15/36
f 66/16/15 29/17/17 65/16/17
f 29/17/17 66/16/15 31/17/15
f 68/20/11 33/19/12 67/18/12
f 33/19/12 68/20/11 30/21/11
f 35/19/14 70/20/13 69/18/14
f 70/20/13 35/19/14 32/21/13
f 36/23/9 69/18/14 71/22/9
f 69/18/14 36/23/9 35/19/14
f 67/18/12 34/23/10 72/22/10
f 34/23/10 67/18/12 33/19/12
f 32/21/13 66/16/15 70/20/13
f 66/16/15 32/21/13 31/17/15
f 65/16/17 30/21/11 68/20/11
f 30/21/11 65/16/17 29/17/17
f 65/16/18 70/20/18 66/16/18
f 70/20/18 65/16/18 68/20/18
f 70/20/18 68/20/18 69/18/18
f 69/18/18 68/20/18 67/18/18
f 69/18/18 67/18/18 72/22/18
f 69/18/18 72/22/18 71/22/18
f 36/23/9 72/22/10 34/23/10
f 72/22/10 36/23/9 71/22/9

g screen-small




usemtl colormap

f 3/1/2 2/2/1 1/1/1
f 2/2/1 3/1/2 4/2/2
f 1/1/1 6/2/3 5/1/3
f 6/2/3 1/1/1 2/2/1
f 9/2/4 8/2/4 7/2/4
f 8/2/4 9/2/4 4/2/4
f 4/2/4 9/2/4 6/2/4
f 4/2/4 6/2/4 2/2/4
f 3/1/5 11/1/5 10/1/5
f 11/1/5 3/1/5 12/1/5
f 12/1/5 3/1/5 5/1/5
f 5/1/5 3/1/5 1/1/5
f 8/2/7 11/1/6 7/2/6
f 11/1/6 8/2/7 10/1/7
f 7/2/6 12/1/8 9/2/8
f 12/1/8 7/2/6 11/1/6
f 6/2/3 12/1/8 5/1/3
f 12/1/8 6/2/3 9/2/8
f 15/3/10 14/1/9 13/3/9
f 14/1/9 15/3/10 16/1/10
f 19/6/12 18/5/11 17/4/11
f 18/5/11 19/6/12 20/7/12
f 23/5/13 22/6/14 21/4/13
f 22/6/14 23/5/13 24/7/14
f 24/7/14 14/1/9 22/6/14
f 14/1/9 24/7/14 13/3/9
f 26/2/15 21/4/13 25/8/15
f 21/4/13 26/2/15 23/5/13
f 19/6/16 14/1/16 16/1/16
f 14/1/16 19/6/16 22/6/16
f 22/6/16 19/6/16 17/4/16
f 22/6/16 17/4/16 21/4/16
f 21/4/16 17/4/16 27/8/16
f 21/4/16 27/8/16 25/8/16
f 17/4/11 28/2/17 27/8/17
f 28/2/17 17/4/11 18/5/11
f 27/8/17 26/2/15 25/8/15
f 26/2/15 27/8/17 28/2/17
f 24/7/18 15/3/18 13/3/18
f 15/3/18 24/7/18 20/7/18
f 20/7/18 24/7/18 29/7/18
f 29/7/18 24/7/18 30/9/18
f 31/7/18 20/7/18 29/7/18
f 32/9/18 20/7/18 31/7/18
f 30/9/18 24/7/18 23/5/18
f 30/9/18 23/5/18 33/10/18
f 33/10/18 23/5/18 34/5/18
f 34/5/18 23/5/18 26/2/18
f 20/7/18 32/9/18 18/5/18
f 18/5/18 32/9/18 35/10/18
f 34/5/18 26/2/18 36/5/18
f 18/5/18 35/10/18 36/5/18
f 28/2/18 36/5/18 26/2/18
f 18/5/18 36/5/18 28/2/18
f 16/1/10 20/7/12 19/6/12
f 20/7/12 16/1/10 15/3/10
f 39/11/5 38/11/5 37/11/5
f 38/11/5 39/11/5 40/11/5
f 41/12/20 39/11/19 37/11/19
f 39/11/19 41/12/20 42/12/20
f 43/13/22 38/11/21 40/11/21
f 38/11/21 43/13/22 44/13/22
f 47/15/23 46/14/23 45/14/23
f 46/14/23 47/15/23 48/15/23
f 49/14/24 45/14/4 46/14/4
f 45/14/4 49/14/24 50/14/24
f 49/14/25 38/11/25 44/13/25
f 38/11/25 49/14/25 37/11/25
f 37/11/25 49/14/25 46/14/25
f 37/11/25 46/14/25 48/15/25
f 37/11/25 48/15/25 41/12/25
f 44/13/22 50/14/24 49/14/24
f 50/14/24 44/13/22 43/13/22
f 39/11/26 43/13/26 40/11/26
f 43/13/26 39/11/26 50/14/26
f 50/14/26 39/11/26 45/14/26
f 45/14/26 39/11/26 47/15/26
f 47/15/26 39/11/26 42/12/26
f 48/15/27 42/12/20 41/12/20
f 42/12/20 48/15/27 47/15/27
f 53/11/5 52/11/5 51/11/5
f 52/11/5 53/11/5 54/11/5
f 55/12/29 53/11/28 51/11/28
f 53/11/28 55/12/29 56/12/29
f 57/13/31 52/11/30 54/11/30
f 52/11/30 57/13/31 58/13/31
f 61/15/32 60/14/32 59/14/32
f 60/14/32 61/15/32 62/15/32
f 63/14/33 59/14/4 60/14/4
f 59/14/4 63/14/33 64/14/33
f 63/14/34 52/11/34 58/13/34
f 52/11/34 63/14/34 51/11/34
f 51/11/34 63/14/34 60/14/34
f 51/11/34 60/14/34 62/15/34
f 51/11/34 62/15/34 55/12/34
f 58/13/31 64/14/33 63/14/33
f 64/14/33 58/13/31 57/13/31
f 53/11/35 57/13/35 54/11/35
f 57/13/35 53/11/35 64/14/35
f 64/14/35 53/11/35 59/14/35
f 59/14/35 53/11/35 61/15/35
f 61/15/35 53/11/35 56/12/35
f 62/15/36 56/12/29 55/12/29
f 56/12/29 62/15/36 61/15/36
f 66/16/15 29/17/17 65/16/17
f 29/17/17 66/16/15 31/17/15
f 68/20/11 33/19/12 67/18/12
f 33/19/12 68/20/11 30/21/11
f 35/19/14 70/20/13 69/18/14
f 70/20/13 35/19/14 32/21/13
f 36/23/9 69/18/14 71/22/9
f 69/18/14 36/23/9 35/19/14
f 67/18/12 34/23/10 72/22/10
f 34/23/10 67/18/12 33/19/12
f 32/21/13 66/16/15 70/20/13
f 66/16/15 32/21/13 31/17/15
f 65/16/17 30/21/11 68/20/11
f 30/21/11 65/16/17 29/17/17
f 65/16/18 70/20/18 66/16/18
f 70/20/18 65/16/18 68/20/18
f 70/20/18 68/20/18 69/18/18
f 69/18/18 68/20/18 67/18/18
f 69/18/18 67/18/18 72/22/18
f 69/18/18 72/22/18 71/22/18
f 36/23/9 72/22/10 34/23/10
f 72/22/10 36/23/9 71/22/9

