# Created by Kenney (www.kenney.nl)

mtllib screen-hanging-small.mtl

g screen-hanging-small

v -0.193934 0.08825226 -0.02351952 1 1 1
v -0.193934 0.07354355 -0.09706306 1 1 1
v 0.193934 0.08825226 -0.02351952 1 1 1
v 0.193934 0.07354355 -0.09706306 1 1 1
v -0.193934 0.6030571 -0.1264805 1 1 1
v 0.193934 0.6030571 -0.1264805 1 1 1
v -0.193934 0.558931 -0.3471111 1 1 1
v 0.193934 0.558931 -0.3471111 1 1 1
v 0.225 0.5725943 -0.1203879 1 1 1
v 0.225 0.5284683 -0.3410186 1 1 1
v -0.225 0.118715 -0.02961207 1 1 1
v -0.225 0.5725943 -0.1203879 1 1 1
v -0.225 0.1040063 -0.1031556 1 1 1
v -0.225 0.330946 -0.1485436 1 1 1
v -0.225 0.5284683 -0.3410186 1 1 1
v -0.225 0.4302298 -0.3213709 1 1 1
v 0.225 0.118715 -0.02961207 1 1 1
v 0.225 0.1040063 -0.1031556 1 1 1
v 0.225 0.330946 -0.1485436 1 1 1
v 0.225 0.4302298 -0.3213709 1 1 1
v -0.225 0.6913094 -0.06764565 1 1 1
v -0.225 0.6324745 -0.3618199 1 1 1
v 0.225 0.6913094 -0.06764565 1 1 1
v 0.225 0.6324745 -0.3618199 1 1 1
v -0.3 0.6177658 -0.05293694 1 1 1
v -0.3 0.558931 -0.3471111 1 1 1
v 0.3 0.102961 0.05002403 1 1 1
v 0.3 0.6177658 -0.05293694 1 1 1
v 0.3 0.07354355 -0.09706306 1 1 1
v 0.3 0.330946 -0.1485436 1 1 1
v 0.3 0.558931 -0.3471111 1 1 1
v 0.3 0.4302298 -0.3213709 1 1 1
v 0.225 0.02941742 0.06473275 1 1 1
v 0.225 0 -0.08235436 1 1 1
v -0.225 0.02941742 0.06473275 1 1 1
v -0.225 0 -0.08235436 1 1 1
v -0.3 0.102961 0.05002403 1 1 1
v -0.3 0.07354355 -0.09706306 1 1 1
v -0.3 0.330946 -0.1485436 1 1 1
v -0.3 0.4302298 -0.3213709 1 1 1
v -0.075 0.02941742 0.06473275 1 1 1
v -0.075 0.02941742 0.2147327 1 1 1
v 0.075 0.02941742 0.06473275 1 1 1
v 0.075 0.02941742 0.2147327 1 1 1
v 0.075 0.6177658 0.2147327 1 1 1
v 0.075 0.6177658 -0.05293693 1 1 1
v -0.075 0.6177658 0.2147327 1 1 1
v -0.075 0.6177658 -0.05293693 1 1 1

vn 0.3826834 0.9059384 -0.1811877
vn -0.3826834 0.9059384 -0.1811877
vn 0.3826834 -0.9059384 0.1811877
vn -0.3826834 -0.9059384 0.1811877
vn -0.9238795 -0.3752519 0.07505039
vn 0.9238795 0.3752519 -0.07505039
vn 0.9238795 -0.3752519 0.07505039
vn 1 0 1.565414E-14
vn 1.535015E-14 -0.1961161 -0.9805807
vn -0.9238795 0.3752519 -0.07505039
vn -1 0 -1.565414E-14
vn -1.535015E-14 0.1961161 0.9805807
vn 1.270977E-14 -0.5837817 -0.8119106
vn 0 -1 0
vn 0 1 0
vn -1.565414E-14 0 1

vt 0.46875 0.05053191
vt 0.46875 0.0462766
vt 0.46875 0.1994681
vt 0.46875 0.1867021
vt 0.46875 0.190655
vt 0.46875 0.1778891
vt 0.46875 0.05934497
vt 0.46875 0.05508965
vt 0.46875 0.1207447
vt 0.46875 0.1494681
vt 0.09375 0.225
vt 0.09375 0.2079787
vt 0.09375 0.2037234
vt 0.09375 0.1867021
vt 0.09375 0.05478723
vt 0.09375 0.0462766
vt 0.09375 0.1207447
vt 0.09375 0.1494681
vt 0.09375 0.03351064
vt 0.09375 0.025
vt 0.09375 0.05508965
vt 0.09375 0.1778891
vt 0.34375 0.025
vt 0.34375 0.225

usemtl colormap

f 3/1/2 2/2/1 1/1/1
f 2/2/1 3/1/2 4/2/2
f 7/4/3 6/3/4 5/3/3
f 6/3/4 7/4/3 8/4/4
f 6/3/4 10/6/5 9/5/5
f 10/6/5 6/3/4 8/4/4
f 13/8/6 12/5/7 11/7/6
f 12/5/7 13/8/6 14/9/8
f 12/5/7 14/9/8 15/6/7
f 15/6/7 14/9/8 16/10/8
f 15/6/7 5/3/3 12/5/7
f 5/3/3 15/6/7 7/4/3
f 2/2/1 11/7/6 1/1/1
f 11/7/6 2/2/1 13/8/6
f 11/7/9 3/1/9 1/1/9
f 3/1/9 11/7/9 17/7/9
f 17/7/9 11/7/9 12/5/9
f 17/7/9 12/5/9 9/5/9
f 9/5/9 12/5/9 5/3/9
f 9/5/9 5/3/9 6/3/9
f 17/7/10 4/2/2 3/1/2
f 4/2/2 17/7/10 18/8/10
f 9/5/5 18/8/10 17/7/10
f 18/8/10 9/5/5 19/9/11
f 19/9/11 9/5/5 10/6/5
f 19/9/11 10/6/5 20/10/11
f 23/11/1 22/12/2 21/11/2
f 22/12/2 23/11/1 24/12/1
f 21/11/2 26/14/10 25/13/10
f 26/14/10 21/11/2 22/12/2
f 29/16/7 28/13/6 27/15/7
f 28/13/6 29/16/7 30/17/8
f 28/13/6 30/17/8 31/14/6
f 31/14/6 30/17/8 32/18/8
f 34/20/3 27/15/7 33/19/3
f 27/15/7 34/20/3 29/16/7
f 36/20/4 33/19/3 35/19/4
f 33/19/3 36/20/4 34/20/3
f 31/14/6 23/11/1 28/13/6
f 23/11/1 31/14/6 24/12/1
f 37/15/5 36/20/4 35/19/4
f 36/20/4 37/15/5 38/16/5
f 27/15/12 35/19/12 33/19/12
f 35/19/12 27/15/12 37/15/12
f 37/15/12 27/15/12 28/13/12
f 37/15/12 28/13/12 25/13/12
f 25/13/12 28/13/12 23/11/12
f 25/13/12 23/11/12 21/11/12
f 38/16/9 34/20/9 36/20/9
f 34/20/9 38/16/9 2/16/9
f 2/16/9 38/16/9 13/21/9
f 13/21/9 38/16/9 39/17/13
f 13/21/9 39/17/13 14/17/13
f 4/16/9 34/20/9 2/16/9
f 34/20/9 4/16/9 29/16/9
f 29/16/9 4/16/9 18/21/9
f 29/16/9 18/21/9 30/17/13
f 30/17/13 18/21/9 19/17/13
f 26/14/9 16/18/13 40/18/13
f 16/18/13 26/14/9 15/22/9
f 15/22/9 26/14/9 7/14/9
f 7/14/9 26/14/9 22/12/9
f 7/14/9 22/12/9 8/14/9
f 8/14/9 22/12/9 31/14/9
f 31/14/9 22/12/9 24/12/9
f 31/14/9 10/22/9 8/14/9
f 32/18/13 10/22/9 31/14/9
f 10/22/9 32/18/13 20/18/13
f 25/13/10 38/16/5 37/15/5
f 38/16/5 25/13/10 39/17/11
f 39/17/11 25/13/10 26/14/10
f 39/17/11 26/14/10 40/18/11
f 32/18/13 19/17/13 20/18/13
f 19/17/13 32/18/13 30/17/13
f 16/18/13 39/17/13 40/18/13
f 39/17/13 16/18/13 14/17/13
f 43/23/14 42/23/14 41/23/14
f 42/23/14 43/23/14 44/23/14
f 43/23/8 45/24/8 44/23/8
f 45/24/8 43/23/8 46/24/8
f 45/24/15 48/24/15 47/24/15
f 48/24/15 45/24/15 46/24/15
f 45/24/16 42/23/16 44/23/16
f 42/23/16 45/24/16 47/24/16
f 48/24/11 42/23/11 47/24/11
f 42/23/11 48/24/11 41/23/11

g screen-hanging-small




usemtl colormap

f 3/1/2 2/2/1 1/1/1
f 2/2/1 3/1/2 4/2/2
f 7/4/3 6/3/4 5/3/3
f 6/3/4 7/4/3 8/4/4
f 6/3/4 10/6/5 9/5/5
f 10/6/5 6/3/4 8/4/4
f 13/8/6 12/5/7 11/7/6
f 12/5/7 13/8/6 14/9/8
f 12/5/7 14/9/8 15/6/7
f 15/6/7 14/9/8 16/10/8
f 15/6/7 5/3/3 12/5/7
f 5/3/3 15/6/7 7/4/3
f 2/2/1 11/7/6 1/1/1
f 11/7/6 2/2/1 13/8/6
f 11/7/9 3/1/9 1/1/9
f 3/1/9 11/7/9 17/7/9
f 17/7/9 11/7/9 12/5/9
f 17/7/9 12/5/9 9/5/9
f 9/5/9 12/5/9 5/3/9
f 9/5/9 5/3/9 6/3/9
f 17/7/10 4/2/2 3/1/2
f 4/2/2 17/7/10 18/8/10
f 9/5/5 18/8/10 17/7/10
f 18/8/10 9/5/5 19/9/11
f 19/9/11 9/5/5 10/6/5
f 19/9/11 10/6/5 20/10/11
f 23/11/1 22/12/2 21/11/2
f 22/12/2 23/11/1 24/12/1
f 21/11/2 26/14/10 25/13/10
f 26/14/10 21/11/2 22/12/2
f 29/16/7 28/13/6 27/15/7
f 28/13/6 29/16/7 30/17/8
f 28/13/6 30/17/8 31/14/6
f 31/14/6 30/17/8 32/18/8
f 34/20/3 27/15/7 33/19/3
f 27/15/7 34/20/3 29/16/7
f 36/20/4 33/19/3 35/19/4
f 33/19/3 36/20/4 34/20/3
f 31/14/6 23/11/1 28/13/6
f 23/11/1 31/14/6 24/12/1
f 37/15/5 36/20/4 35/19/4
f 36/20/4 37/15/5 38/16/5
f 27/15/12 35/19/12 33/19/12
f 35/19/12 27/15/12 37/15/12
f 37/15/12 27/15/12 28/13/12
f 37/15/12 28/13/12 25/13/12
f 25/13/12 28/13/12 23/11/12
f 25/13/12 23/11/12 21/11/12
f 38/16/9 34/20/9 36/20/9
f 34/20/9 38/16/9 2/16/9
f 2/16/9 38/16/9 13/21/9
f 13/21/9 38/16/9 39/17/13
f 13/21/9 39/17/13 14/17/13
f 4/16/9 34/20/9 2/16/9
f 34/20/9 4/16/9 29/16/9
f 29/16/9 4/16/9 18/21/9
f 29/16/9 18/21/9 30/17/13
f 30/17/13 18/21/9 19/17/13
f 26/14/9 16/18/13 40/18/13
f 16/18/13 26/14/9 15/22/9
f 15/22/9 26/14/9 7/14/9
f 7/14/9 26/14/9 22/12/9
f 7/14/9 22/12/9 8/14/9
f 8/14/9 22/12/9 31/14/9
f 31/14/9 22/12/9 24/12/9
f 31/14/9 10/22/9 8/14/9
f 32/18/13 10/22/9 31/14/9
f 10/22/9 32/18/13 20/18/13
f 25/13/10 38/16/5 37/15/5
f 38/16/5 25/13/10 39/17/11
f 39/17/11 25/13/10 26/14/10
f 39/17/11 26/14/10 40/18/11
f 32/18/13 19/17/13 20/18/13
f 19/17/13 32/18/13 30/17/13
f 16/18/13 39/17/13 40/18/13
f 39/17/13 16/18/13 14/17/13
f 43/23/14 42/23/14 41/23/14
f 42/23/14 43/23/14 44/23/14
f 43/23/8 45/24/8 44/23/8
f 45/24/8 43/23/8 46/24/8
f 45/24/15 48/24/15 47/24/15
f 48/24/15 45/24/15 46/24/15
f 45/24/16 42/23/16 44/23/16
f 42/23/16 45/24/16 47/24/16
f 48/24/11 42/23/11 47/24/11
f 42/23/11 48/24/11 41/23/11

