# Created by Kenney (www.kenney.nl)

mtllib structure-yellow-high.mtl

g structure-yellow-high

v 0.1 0.15 -0.4 1 1 1
v 0.07071068 0.15 -0.4707107 1 1 1
v 0.07071068 0.15 -0.3292893 1 1 1
v 0 0.15 -0.3 1 1 1
v 0 0.15 -0.5 1 1 1
v -0.07071068 0.15 -0.3292893 1 1 1
v -0.07071068 0.15 -0.4707107 1 1 1
v -0.1 0.15 -0.4 1 1 1
v 0.1 1.5 -0.4 1 1 1
v 0.07071068 1.5 -0.3292893 1 1 1
v 0.07071068 1.5 -0.4707107 1 1 1
v 0 1.5 -0.5 1 1 1
v 0 1.5 -0.3 1 1 1
v -0.07071068 1.5 -0.4707107 1 1 1
v -0.07071068 1.5 -0.3292893 1 1 1
v -0.1 1.5 -0.4 1 1 1
v 0.1 0.15 0.4 1 1 1
v 0.07071068 0.15 0.3292893 1 1 1
v 0.07071068 0.15 0.4707107 1 1 1
v 0 0.15 0.5 1 1 1
v 0 0.15 0.3 1 1 1
v -0.07071068 0.15 0.4707107 1 1 1
v -0.07071068 0.15 0.3292893 1 1 1
v -0.1 0.15 0.4 1 1 1
v 0.1 1.5 0.4 1 1 1
v 0.07071068 1.5 0.4707107 1 1 1
v 0.07071068 1.5 0.3292893 1 1 1
v 0 1.5 0.3 1 1 1
v 0 1.5 0.5 1 1 1
v -0.07071068 1.5 0.3292893 1 1 1
v -0.07071068 1.5 0.4707107 1 1 1
v -0.1 1.5 0.4 1 1 1
v 0.106066 1.35 -0.506066 1 1 1
v 0.106066 1.35 -0.293934 1 1 1
v 0.15 1.35 -0.4 1 1 1
v 0 1.35 -0.55 1 1 1
v 0 1.35 -0.25 1 1 1
v -0.106066 1.35 -0.506066 1 1 1
v -0.106066 1.35 -0.293934 1 1 1
v -0.15 1.35 -0.4 1 1 1
v 0.106066 1.2 -0.293934 1 1 1
v 0.106066 1.2 -0.506066 1 1 1
v 0.15 1.2 -0.4 1 1 1
v 0 1.2 -0.25 1 1 1
v 0 1.2 -0.55 1 1 1
v -0.106066 1.2 -0.293934 1 1 1
v -0.106066 1.2 -0.506066 1 1 1
v -0.15 1.2 -0.4 1 1 1
v 0.15 1.35 0.4 1 1 1
v 0.106066 1.2 0.293934 1 1 1
v 0.106066 1.35 0.293934 1 1 1
v 0.15 1.2 0.4 1 1 1
v 0 1.35 0.25 1 1 1
v 0 1.2 0.25 1 1 1
v -0.15 1.2 0.4 1 1 1
v -0.106066 1.35 0.293934 1 1 1
v -0.106066 1.2 0.293934 1 1 1
v -0.15 1.35 0.4 1 1 1
v 0 1.35 0.55 1 1 1
v -0.106066 1.2 0.506066 1 1 1
v 0 1.2 0.55 1 1 1
v -0.106066 1.35 0.506066 1 1 1
v 0.106066 1.35 0.506066 1 1 1
v 0.106066 1.2 0.506066 1 1 1
v 0.15 0.45 0.4 1 1 1
v 0.106066 0.3 0.293934 1 1 1
v 0.106066 0.45 0.293934 1 1 1
v 0.15 0.3 0.4 1 1 1
v 0 0.45 0.25 1 1 1
v 0 0.3 0.25 1 1 1
v -0.15 0.3 0.4 1 1 1
v -0.106066 0.45 0.293934 1 1 1
v -0.106066 0.3 0.293934 1 1 1
v -0.15 0.45 0.4 1 1 1
v 0 0.45 0.55 1 1 1
v -0.106066 0.3 0.506066 1 1 1
v 0 0.3 0.55 1 1 1
v -0.106066 0.45 0.506066 1 1 1
v 0.106066 0.45 0.506066 1 1 1
v 0.106066 0.3 0.506066 1 1 1
v 0.106066 0.45 -0.506066 1 1 1
v 0.106066 0.45 -0.293934 1 1 1
v 0.15 0.45 -0.4 1 1 1
v 0 0.45 -0.55 1 1 1
v 0 0.45 -0.25 1 1 1
v -0.106066 0.45 -0.506066 1 1 1
v -0.106066 0.45 -0.293934 1 1 1
v -0.15 0.45 -0.4 1 1 1
v 0.106066 0.3 -0.293934 1 1 1
v 0.106066 0.3 -0.506066 1 1 1
v 0.15 0.3 -0.4 1 1 1
v 0 0.3 -0.25 1 1 1
v 0 0.3 -0.55 1 1 1
v -0.106066 0.3 -0.293934 1 1 1
v -0.106066 0.3 -0.506066 1 1 1
v -0.15 0.3 -0.4 1 1 1
v 0.1 -1.274263E-18 0.4 1 1 1
v 0.07071068 -1.274263E-18 0.3292893 1 1 1
v 0.07071068 -1.274263E-18 0.4707107 1 1 1
v 0 -1.274263E-18 0.5 1 1 1
v 0 -1.274263E-18 0.3 1 1 1
v -0.07071068 -1.274263E-18 0.4707107 1 1 1
v -0.07071068 -1.274263E-18 0.3292893 1 1 1
v -0.1 -1.274263E-18 0.4 1 1 1
v 0 0.075 0.5 1 1 1
v -0.07071068 0.075 0.4707107 1 1 1
v -0.1 0.075 0.4 1 1 1
v -0.07071068 0.075 0.3292893 1 1 1
v 0 0.075 0.3 1 1 1
v 0.07071068 0.075 0.3292893 1 1 1
v 0.1 0.075 0.4 1 1 1
v 0.07071068 0.075 0.4707107 1 1 1
v 0.075 0.15 0.4 1 1 1
v 0.05303301 0.15 0.453033 1 1 1
v 0.05303301 0.15 0.346967 1 1 1
v -1.804779E-16 0.15 0.325 1 1 1
v -1.804779E-16 0.15 0.475 1 1 1
v -0.05303301 0.15 0.346967 1 1 1
v -0.05303301 0.15 0.453033 1 1 1
v -0.075 0.15 0.4 1 1 1
v 0.1 -1.274263E-18 -0.4 1 1 1
v 0.07071068 -1.274263E-18 -0.4707107 1 1 1
v 0.07071068 -1.274263E-18 -0.3292893 1 1 1
v 0 -1.274263E-18 -0.3 1 1 1
v 0 -1.274263E-18 -0.5 1 1 1
v -0.07071068 -1.274263E-18 -0.3292893 1 1 1
v -0.07071068 -1.274263E-18 -0.4707107 1 1 1
v -0.1 -1.274263E-18 -0.4 1 1 1
v 0 0.075 -0.3 1 1 1
v -0.07071068 0.075 -0.3292893 1 1 1
v -0.1 0.075 -0.4 1 1 1
v -0.07071068 0.075 -0.4707107 1 1 1
v 0 0.075 -0.5 1 1 1
v 0.07071068 0.075 -0.4707107 1 1 1
v 0.1 0.075 -0.4 1 1 1
v 0.07071068 0.075 -0.3292893 1 1 1
v 0.075 0.15 -0.4 1 1 1
v 0.05303301 0.15 -0.346967 1 1 1
v 0.05303301 0.15 -0.453033 1 1 1
v -1.804779E-16 0.15 -0.475 1 1 1
v -1.804779E-16 0.15 -0.325 1 1 1
v -0.05303301 0.15 -0.453033 1 1 1
v -0.05303301 0.15 -0.346967 1 1 1
v -0.075 0.15 -0.4 1 1 1
v 0.0375 1.35 -0.265533 1 1 1
v 0.0375 1.2 -0.265533 1 1 1
v 0.0375 1.35 0.265533 1 1 1
v 0.0375 1.2 0.265533 1 1 1
v -0.0375 1.35 -0.265533 1 1 1
v -0.0375 1.35 0.265533 1 1 1
v -0.0375 1.2 0.265533 1 1 1
v -0.0375 1.2 -0.265533 1 1 1
v 0.0375 0.45 -0.265533 1 1 1
v 0.0375 0.3 -0.265533 1 1 1
v 0.0375 0.45 0.265533 1 1 1
v 0.0375 0.3 0.265533 1 1 1
v -0.0375 0.45 -0.265533 1 1 1
v -0.0375 0.45 0.265533 1 1 1
v -0.0375 0.3 0.265533 1 1 1
v -0.0375 0.3 -0.265533 1 1 1

vn 0 -1 0
vn 0 1 0
vn 0 0 1
vn -0.7071068 0 0.7071068
vn -1 0 0
vn -0.7071068 0 -0.7071068
vn 0 0 -1
vn 0.7071068 0 -0.7071068
vn 1 0 0
vn 0.7071068 0 0.7071068
vn 0 0.1543356 0.9880185
vn -0.6986346 0.1543356 0.6986346
vn -0.9880185 0.1543356 0
vn -0.6986346 0.1543356 -0.6986346
vn 0 0.1543356 -0.9880185
vn 0.6986346 0.1543356 -0.6986346
vn 0.9880185 0.1543356 0
vn 0.6986346 0.1543356 0.6986346
vn 0 0.3162278 -0.9486833
vn 0.6708204 0.3162277 -0.6708204
vn 0 0.3162278 0.9486833
vn -0.6708204 0.3162277 0.6708204
vn 0.6708204 0.3162277 0.6708204
vn 0.9486833 0.3162278 0
vn -0.6708204 0.3162277 -0.6708204
vn -0.9486833 0.3162278 0
vn 0.8325171 0.5539994 0
vn -0.8325171 0.5539994 0

vt 0.34375 0.025
vt 0.34375 0.225
vt 0.34375 0.175
vt 0.34375 0.075
vt 0.46875 0.225
vt 0.46875 0.125
vt 0.46875 0.025
vt 0.84375 0.175
vt 0.84375 0.075

usemtl colormap

f 3/1/1 2/1/1 1/1/1
f 2/1/1 3/1/1 4/1/1
f 2/1/1 4/1/1 5/1/1
f 5/1/1 4/1/1 6/1/1
f 5/1/1 6/1/1 7/1/1
f 7/1/1 6/1/1 8/1/1
f 11/2/2 10/2/2 9/2/2
f 10/2/2 11/2/2 12/2/2
f 10/2/2 12/2/2 13/2/2
f 13/2/2 12/2/2 14/2/2
f 13/2/2 14/2/2 15/2/2
f 15/2/2 14/2/2 16/2/2
f 13/2/3 6/1/4 4/1/3
f 6/1/4 13/2/3 15/2/4
f 6/1/4 16/2/5 8/1/5
f 16/2/5 6/1/4 15/2/4
f 8/1/5 14/2/6 7/1/6
f 14/2/6 8/1/5 16/2/5
f 14/2/6 5/1/7 7/1/6
f 5/1/7 14/2/6 12/2/7
f 12/2/7 2/1/8 5/1/7
f 2/1/8 12/2/7 11/2/8
f 9/2/9 2/1/8 11/2/8
f 2/1/8 9/2/9 1/1/9
f 10/2/10 1/1/9 9/2/9
f 1/1/9 10/2/10 3/1/10
f 10/2/10 4/1/3 3/1/10
f 4/1/3 10/2/10 13/2/3
f 19/1/1 18/1/1 17/1/1
f 18/1/1 19/1/1 20/1/1
f 18/1/1 20/1/1 21/1/1
f 21/1/1 20/1/1 22/1/1
f 21/1/1 22/1/1 23/1/1
f 23/1/1 22/1/1 24/1/1
f 27/2/2 26/2/2 25/2/2
f 26/2/2 27/2/2 28/2/2
f 26/2/2 28/2/2 29/2/2
f 29/2/2 28/2/2 30/2/2
f 29/2/2 30/2/2 31/2/2
f 31/2/2 30/2/2 32/2/2
f 29/2/3 22/1/4 20/1/3
f 22/1/4 29/2/3 31/2/4
f 22/1/4 32/2/5 24/1/5
f 32/2/5 22/1/4 31/2/4
f 24/1/5 30/2/6 23/1/6
f 30/2/6 24/1/5 32/2/5
f 30/2/6 21/1/7 23/1/6
f 21/1/7 30/2/6 28/2/7
f 28/2/7 18/1/8 21/1/7
f 18/1/8 28/2/7 27/2/8
f 25/2/9 18/1/8 27/2/8
f 18/1/8 25/2/9 17/1/9
f 26/2/10 17/1/9 25/2/9
f 17/1/9 26/2/10 19/1/10
f 26/2/10 20/1/3 19/1/10
f 20/1/3 26/2/10 29/2/3
f 35/3/1 34/3/1 33/3/1
f 36/3/1 33/3/1 34/3/1
f 37/3/1 36/3/1 34/3/1
f 38/3/1 36/3/1 37/3/1
f 39/3/1 38/3/1 37/3/1
f 40/3/1 38/3/1 39/3/1
f 43/4/2 42/4/2 41/4/2
f 44/4/2 41/4/2 42/4/2
f 45/4/2 44/4/2 42/4/2
f 46/4/2 44/4/2 45/4/2
f 47/4/2 46/4/2 45/4/2
f 48/4/2 46/4/2 47/4/2
f 47/4/10 45/4/3 38/3/10
f 36/3/3 38/3/10 45/4/3
f 47/4/10 38/3/10 48/4/9
f 40/3/9 48/4/9 38/3/10
f 45/4/3 42/4/4 36/3/3
f 33/3/4 36/3/3 42/4/4
f 35/3/5 43/4/5 34/3/6
f 41/4/6 34/3/6 43/4/5
f 33/3/4 42/4/4 35/3/5
f 43/4/5 35/3/5 42/4/4
f 44/4/7 46/4/8 37/3/7
f 39/3/8 37/3/7 46/4/8
f 41/4/6 44/4/7 34/3/6
f 37/3/7 34/3/6 44/4/7
f 48/4/9 40/3/9 46/4/8
f 39/3/8 46/4/8 40/3/9
f 51/3/4 50/4/4 49/3/5
f 52/4/5 49/3/5 50/4/4
f 54/4/3 50/4/4 53/3/3
f 51/3/4 53/3/3 50/4/4
f 57/4/10 56/3/10 55/4/9
f 58/3/9 55/4/9 56/3/10
f 61/4/7 60/4/8 59/3/7
f 62/3/8 59/3/7 60/4/8
f 64/4/6 61/4/7 63/3/6
f 59/3/7 63/3/6 61/4/7
f 49/3/5 52/4/5 63/3/6
f 64/4/6 63/3/6 52/4/5
f 55/4/9 58/3/9 60/4/8
f 62/3/8 60/4/8 58/3/9
f 49/3/1 63/3/1 51/3/1
f 53/3/1 51/3/1 63/3/1
f 59/3/1 53/3/1 63/3/1
f 56/3/1 53/3/1 59/3/1
f 62/3/1 56/3/1 59/3/1
f 58/3/1 56/3/1 62/3/1
f 57/4/10 54/4/3 56/3/10
f 53/3/3 56/3/10 54/4/3
f 52/4/2 50/4/2 64/4/2
f 61/4/2 64/4/2 50/4/2
f 54/4/2 61/4/2 50/4/2
f 60/4/2 61/4/2 54/4/2
f 57/4/2 60/4/2 54/4/2
f 55/4/2 60/4/2 57/4/2
f 67/3/4 66/4/4 65/3/5
f 68/4/5 65/3/5 66/4/4
f 70/4/3 66/4/4 69/3/3
f 67/3/4 69/3/3 66/4/4
f 73/4/10 72/3/10 71/4/9
f 74/3/9 71/4/9 72/3/10
f 77/4/7 76/4/8 75/3/7
f 78/3/8 75/3/7 76/4/8
f 80/4/6 77/4/7 79/3/6
f 75/3/7 79/3/6 77/4/7
f 65/3/5 68/4/5 79/3/6
f 80/4/6 79/3/6 68/4/5
f 71/4/9 74/3/9 76/4/8
f 78/3/8 76/4/8 74/3/9
f 65/3/1 79/3/1 67/3/1
f 69/3/1 67/3/1 79/3/1
f 75/3/1 69/3/1 79/3/1
f 72/3/1 69/3/1 75/3/1
f 78/3/1 72/3/1 75/3/1
f 74/3/1 72/3/1 78/3/1
f 73/4/10 70/4/3 72/3/10
f 69/3/3 72/3/10 70/4/3
f 68/4/2 66/4/2 80/4/2
f 77/4/2 80/4/2 66/4/2
f 70/4/2 77/4/2 66/4/2
f 76/4/2 77/4/2 70/4/2
f 73/4/2 76/4/2 70/4/2
f 71/4/2 76/4/2 73/4/2
f 83/3/1 82/3/1 81/3/1
f 84/3/1 81/3/1 82/3/1
f 85/3/1 84/3/1 82/3/1
f 86/3/1 84/3/1 85/3/1
f 87/3/1 86/3/1 85/3/1
f 88/3/1 86/3/1 87/3/1
f 91/4/2 90/4/2 89/4/2
f 92/4/2 89/4/2 90/4/2
f 93/4/2 92/4/2 90/4/2
f 94/4/2 92/4/2 93/4/2
f 95/4/2 94/4/2 93/4/2
f 96/4/2 94/4/2 95/4/2
f 95/4/10 93/4/3 86/3/10
f 84/3/3 86/3/10 93/4/3
f 95/4/10 86/3/10 96/4/9
f 88/3/9 96/4/9 86/3/10
f 93/4/3 90/4/4 84/3/3
f 81/3/4 84/3/3 90/4/4
f 83/3/5 91/4/5 82/3/6
f 89/4/6 82/3/6 91/4/5
f 81/3/4 90/4/4 83/3/5
f 91/4/5 83/3/5 90/4/4
f 92/4/7 94/4/8 85/3/7
f 87/3/8 85/3/7 94/4/8
f 89/4/6 92/4/7 82/3/6
f 85/3/7 82/3/6 92/4/7
f 96/4/9 88/3/9 94/4/8
f 87/3/8 94/4/8 88/3/9
f 99/5/1 98/5/1 97/5/1
f 98/5/1 99/5/1 100/5/1
f 98/5/1 100/5/1 101/5/1
f 101/5/1 100/5/1 102/5/1
f 101/5/1 102/5/1 103/5/1
f 103/5/1 102/5/1 104/5/1
f 105/6/11 102/5/4 100/5/3
f 102/5/4 105/6/11 106/6/12
f 102/5/4 107/6/13 104/5/5
f 107/6/13 102/5/4 106/6/12
f 104/5/5 108/6/14 103/5/6
f 108/6/14 104/5/5 107/6/13
f 108/6/14 101/5/7 103/5/6
f 101/5/7 108/6/14 109/6/15
f 109/6/15 98/5/8 101/5/7
f 98/5/8 109/6/15 110/6/16
f 111/6/17 98/5/8 110/6/16
f 98/5/8 111/6/17 97/5/9
f 112/6/18 97/5/9 111/6/17
f 97/5/9 112/6/18 99/5/10
f 112/6/18 100/5/3 99/5/10
f 100/5/3 112/6/18 105/6/11
f 115/7/2 114/7/2 113/7/2
f 114/7/2 115/7/2 116/7/2
f 114/7/2 116/7/2 117/7/2
f 117/7/2 116/7/2 118/7/2
f 117/7/2 118/7/2 119/7/2
f 119/7/2 118/7/2 120/7/2
f 116/7/19 110/6/16 109/6/15
f 110/6/16 116/7/19 115/7/20
f 117/7/21 106/6/12 105/6/11
f 106/6/12 117/7/21 119/7/22
f 114/7/23 105/6/11 112/6/18
f 105/6/11 114/7/23 117/7/21
f 115/7/20 111/6/17 110/6/16
f 111/6/17 115/7/20 113/7/24
f 118/7/25 109/6/15 108/6/14
f 109/6/15 118/7/25 116/7/19
f 107/6/13 118/7/25 108/6/14
f 118/7/25 107/6/13 120/7/26
f 113/7/24 112/6/18 111/6/17
f 112/6/18 113/7/24 114/7/23
f 106/6/12 120/7/26 107/6/13
f 120/7/26 106/6/12 119/7/22
f 123/5/1 122/5/1 121/5/1
f 122/5/1 123/5/1 124/5/1
f 122/5/1 124/5/1 125/5/1
f 125/5/1 124/5/1 126/5/1
f 125/5/1 126/5/1 127/5/1
f 127/5/1 126/5/1 128/5/1
f 129/6/11 126/5/4 124/5/3
f 126/5/4 129/6/11 130/6/12
f 126/5/4 131/6/13 128/5/5
f 131/6/13 126/5/4 130/6/12
f 128/5/5 132/6/14 127/5/6
f 132/6/14 128/5/5 131/6/13
f 132/6/14 125/5/7 127/5/6
f 125/5/7 132/6/14 133/6/15
f 133/6/15 122/5/8 125/5/7
f 122/5/8 133/6/15 134/6/16
f 135/6/17 122/5/8 134/6/16
f 122/5/8 135/6/17 121/5/9
f 136/6/18 121/5/9 135/6/17
f 121/5/9 136/6/18 123/5/10
f 136/6/18 124/5/3 123/5/10
f 124/5/3 136/6/18 129/6/11
f 139/7/2 138/7/2 137/7/2
f 138/7/2 139/7/2 140/7/2
f 138/7/2 140/7/2 141/7/2
f 141/7/2 140/7/2 142/7/2
f 141/7/2 142/7/2 143/7/2
f 143/7/2 142/7/2 144/7/2
f 140/7/19 134/6/16 133/6/15
f 134/6/16 140/7/19 139/7/20
f 141/7/21 130/6/12 129/6/11
f 130/6/12 141/7/21 143/7/22
f 138/7/23 129/6/11 136/6/18
f 129/6/11 138/7/23 141/7/21
f 139/7/20 135/6/17 134/6/16
f 135/6/17 139/7/20 137/7/24
f 142/7/25 133/6/15 132/6/14
f 133/6/15 142/7/25 140/7/19
f 131/6/13 142/7/25 132/6/14
f 142/7/25 131/6/13 144/7/26
f 137/7/24 136/6/18 135/6/17
f 136/6/18 137/7/24 138/7/23
f 130/6/12 144/7/26 131/6/13
f 144/7/26 130/6/12 143/7/22
f 33/8/2 34/8/2 35/8/2
f 34/8/2 33/8/2 36/8/2
f 34/8/2 36/8/2 37/8/2
f 37/8/2 36/8/2 38/8/2
f 37/8/2 38/8/2 39/8/2
f 39/8/2 38/8/2 40/8/2
f 41/9/1 42/9/1 43/9/1
f 42/9/1 41/9/1 44/9/1
f 42/9/1 44/9/1 45/9/1
f 45/9/1 44/9/1 46/9/1
f 45/9/1 46/9/1 47/9/1
f 47/9/1 46/9/1 48/9/1
f 38/8/6 45/9/7 47/9/6
f 45/9/7 38/8/6 36/8/7
f 48/9/5 38/8/6 47/9/6
f 38/8/6 48/9/5 40/8/5
f 36/8/7 42/9/8 45/9/7
f 42/9/8 36/8/7 33/8/8
f 34/8/10 43/9/9 35/8/9
f 43/9/9 34/8/10 41/9/10
f 35/8/9 42/9/8 33/8/8
f 42/9/8 35/8/9 43/9/9
f 37/8/3 46/9/4 44/9/3
f 46/9/4 37/8/3 39/8/4
f 34/8/10 44/9/3 41/9/10
f 44/9/3 34/8/10 37/8/3
f 46/9/4 40/8/5 48/9/5
f 40/8/5 46/9/4 39/8/4
f 147/8/27 146/9/9 145/8/27
f 146/9/9 147/8/27 148/9/9
f 37/8/2 147/8/27 145/8/27
f 147/8/27 37/8/2 53/8/2
f 53/8/2 37/8/2 149/8/28
f 53/8/2 149/8/28 150/8/28
f 54/9/1 146/9/1 148/9/1
f 146/9/1 54/9/1 44/9/1
f 44/9/1 54/9/1 151/9/1
f 44/9/1 151/9/1 152/9/1
f 152/9/5 150/8/28 149/8/28
f 150/8/28 152/9/5 151/9/5
f 49/8/9 50/9/8 51/8/8
f 50/9/8 49/8/9 52/9/9
f 53/8/7 50/9/8 54/9/7
f 50/9/8 53/8/7 51/8/8
f 55/9/5 56/8/6 57/9/6
f 56/8/6 55/9/5 58/8/5
f 59/8/3 60/9/4 61/9/3
f 60/9/4 59/8/3 62/8/4
f 63/8/10 61/9/3 64/9/10
f 61/9/3 63/8/10 59/8/3
f 63/8/10 52/9/9 49/8/9
f 52/9/9 63/8/10 64/9/10
f 60/9/4 58/8/5 55/9/5
f 58/8/5 60/9/4 62/8/4
f 51/8/2 63/8/2 49/8/2
f 63/8/2 51/8/2 53/8/2
f 63/8/2 53/8/2 59/8/2
f 59/8/2 53/8/2 56/8/2
f 59/8/2 56/8/2 62/8/2
f 62/8/2 56/8/2 58/8/2
f 56/8/6 54/9/7 57/9/6
f 54/9/7 56/8/6 53/8/7
f 64/9/1 50/9/1 52/9/1
f 50/9/1 64/9/1 61/9/1
f 50/9/1 61/9/1 54/9/1
f 54/9/1 61/9/1 60/9/1
f 54/9/1 60/9/1 57/9/1
f 57/9/1 60/9/1 55/9/1
f 65/8/9 66/9/8 67/8/8
f 66/9/8 65/8/9 68/9/9
f 69/8/7 66/9/8 70/9/7
f 66/9/8 69/8/7 67/8/8
f 71/9/5 72/8/6 73/9/6
f 72/8/6 71/9/5 74/8/5
f 75/8/3 76/9/4 77/9/3
f 76/9/4 75/8/3 78/8/4
f 79/8/10 77/9/3 80/9/10
f 77/9/3 79/8/10 75/8/3
f 79/8/10 68/9/9 65/8/9
f 68/9/9 79/8/10 80/9/10
f 76/9/4 74/8/5 71/9/5
f 74/8/5 76/9/4 78/8/4
f 67/8/2 79/8/2 65/8/2
f 79/8/2 67/8/2 69/8/2
f 79/8/2 69/8/2 75/8/2
f 75/8/2 69/8/2 72/8/2
f 75/8/2 72/8/2 78/8/2
f 78/8/2 72/8/2 74/8/2
f 72/8/6 70/9/7 73/9/6
f 70/9/7 72/8/6 69/8/7
f 80/9/1 66/9/1 68/9/1
f 66/9/1 80/9/1 77/9/1
f 66/9/1 77/9/1 70/9/1
f 70/9/1 77/9/1 76/9/1
f 70/9/1 76/9/1 73/9/1
f 73/9/1 76/9/1 71/9/1
f 81/8/2 82/8/2 83/8/2
f 82/8/2 81/8/2 84/8/2
f 82/8/2 84/8/2 85/8/2
f 85/8/2 84/8/2 86/8/2
f 85/8/2 86/8/2 87/8/2
f 87/8/2 86/8/2 88/8/2
f 89/9/1 90/9/1 91/9/1
f 90/9/1 89/9/1 92/9/1
f 90/9/1 92/9/1 93/9/1
f 93/9/1 92/9/1 94/9/1
f 93/9/1 94/9/1 95/9/1
f 95/9/1 94/9/1 96/9/1
f 86/8/6 93/9/7 95/9/6
f 93/9/7 86/8/6 84/8/7
f 96/9/5 86/8/6 95/9/6
f 86/8/6 96/9/5 88/8/5
f 84/8/7 90/9/8 93/9/7
f 90/9/8 84/8/7 81/8/8
f 82/8/10 91/9/9 83/8/9
f 91/9/9 82/8/10 89/9/10
f 83/8/9 90/9/8 81/8/8
f 90/9/8 83/8/9 91/9/9
f 85/8/3 94/9/4 92/9/3
f 94/9/4 85/8/3 87/8/4
f 82/8/10 92/9/3 89/9/10
f 92/9/3 82/8/10 85/8/3
f 94/9/4 88/8/5 96/9/5
f 88/8/5 94/9/4 87/8/4
f 155/8/27 154/9/9 153/8/27
f 154/9/9 155/8/27 156/9/9
f 85/8/2 155/8/27 153/8/27
f 155/8/27 85/8/2 69/8/2
f 69/8/2 85/8/2 157/8/28
f 69/8/2 157/8/28 158/8/28
f 70/9/1 154/9/1 156/9/1
f 154/9/1 70/9/1 92/9/1
f 92/9/1 70/9/1 159/9/1
f 92/9/1 159/9/1 160/9/1
f 160/9/5 158/8/28 157/8/28
f 158/8/28 160/9/5 159/9/5

g structure-yellow-high




usemtl colormap

f 3/1/1 2/1/1 1/1/1
f 2/1/1 3/1/1 4/1/1
f 2/1/1 4/1/1 5/1/1
f 5/1/1 4/1/1 6/1/1
f 5/1/1 6/1/1 7/1/1
f 7/1/1 6/1/1 8/1/1
f 11/2/2 10/2/2 9/2/2
f 10/2/2 11/2/2 12/2/2
f 10/2/2 12/2/2 13/2/2
f 13/2/2 12/2/2 14/2/2
f 13/2/2 14/2/2 15/2/2
f 15/2/2 14/2/2 16/2/2
f 13/2/3 6/1/4 4/1/3
f 6/1/4 13/2/3 15/2/4
f 6/1/4 16/2/5 8/1/5
f 16/2/5 6/1/4 15/2/4
f 8/1/5 14/2/6 7/1/6
f 14/2/6 8/1/5 16/2/5
f 14/2/6 5/1/7 7/1/6
f 5/1/7 14/2/6 12/2/7
f 12/2/7 2/1/8 5/1/7
f 2/1/8 12/2/7 11/2/8
f 9/2/9 2/1/8 11/2/8
f 2/1/8 9/2/9 1/1/9
f 10/2/10 1/1/9 9/2/9
f 1/1/9 10/2/10 3/1/10
f 10/2/10 4/1/3 3/1/10
f 4/1/3 10/2/10 13/2/3
f 19/1/1 18/1/1 17/1/1
f 18/1/1 19/1/1 20/1/1
f 18/1/1 20/1/1 21/1/1
f 21/1/1 20/1/1 22/1/1
f 21/1/1 22/1/1 23/1/1
f 23/1/1 22/1/1 24/1/1
f 27/2/2 26/2/2 25/2/2
f 26/2/2 27/2/2 28/2/2
f 26/2/2 28/2/2 29/2/2
f 29/2/2 28/2/2 30/2/2
f 29/2/2 30/2/2 31/2/2
f 31/2/2 30/2/2 32/2/2
f 29/2/3 22/1/4 20/1/3
f 22/1/4 29/2/3 31/2/4
f 22/1/4 32/2/5 24/1/5
f 32/2/5 22/1/4 31/2/4
f 24/1/5 30/2/6 23/1/6
f 30/2/6 24/1/5 32/2/5
f 30/2/6 21/1/7 23/1/6
f 21/1/7 30/2/6 28/2/7
f 28/2/7 18/1/8 21/1/7
f 18/1/8 28/2/7 27/2/8
f 25/2/9 18/1/8 27/2/8
f 18/1/8 25/2/9 17/1/9
f 26/2/10 17/1/9 25/2/9
f 17/1/9 26/2/10 19/1/10
f 26/2/10 20/1/3 19/1/10
f 20/1/3 26/2/10 29/2/3
f 35/3/1 34/3/1 33/3/1
f 36/3/1 33/3/1 34/3/1
f 37/3/1 36/3/1 34/3/1
f 38/3/1 36/3/1 37/3/1
f 39/3/1 38/3/1 37/3/1
f 40/3/1 38/3/1 39/3/1
f 43/4/2 42/4/2 41/4/2
f 44/4/2 41/4/2 42/4/2
f 45/4/2 44/4/2 42/4/2
f 46/4/2 44/4/2 45/4/2
f 47/4/2 46/4/2 45/4/2
f 48/4/2 46/4/2 47/4/2
f 47/4/10 45/4/3 38/3/10
f 36/3/3 38/3/10 45/4/3
f 47/4/10 38/3/10 48/4/9
f 40/3/9 48/4/9 38/3/10
f 45/4/3 42/4/4 36/3/3
f 33/3/4 36/3/3 42/4/4
f 35/3/5 43/4/5 34/3/6
f 41/4/6 34/3/6 43/4/5
f 33/3/4 42/4/4 35/3/5
f 43/4/5 35/3/5 42/4/4
f 44/4/7 46/4/8 37/3/7
f 39/3/8 37/3/7 46/4/8
f 41/4/6 44/4/7 34/3/6
f 37/3/7 34/3/6 44/4/7
f 48/4/9 40/3/9 46/4/8
f 39/3/8 46/4/8 40/3/9
f 51/3/4 50/4/4 49/3/5
f 52/4/5 49/3/5 50/4/4
f 54/4/3 50/4/4 53/3/3
f 51/3/4 53/3/3 50/4/4
f 57/4/10 56/3/10 55/4/9
f 58/3/9 55/4/9 56/3/10
f 61/4/7 60/4/8 59/3/7
f 62/3/8 59/3/7 60/4/8
f 64/4/6 61/4/7 63/3/6
f 59/3/7 63/3/6 61/4/7
f 49/3/5 52/4/5 63/3/6
f 64/4/6 63/3/6 52/4/5
f 55/4/9 58/3/9 60/4/8
f 62/3/8 60/4/8 58/3/9
f 49/3/1 63/3/1 51/3/1
f 53/3/1 51/3/1 63/3/1
f 59/3/1 53/3/1 63/3/1
f 56/3/1 53/3/1 59/3/1
f 62/3/1 56/3/1 59/3/1
f 58/3/1 56/3/1 62/3/1
f 57/4/10 54/4/3 56/3/10
f 53/3/3 56/3/10 54/4/3
f 52/4/2 50/4/2 64/4/2
f 61/4/2 64/4/2 50/4/2
f 54/4/2 61/4/2 50/4/2
f 60/4/2 61/4/2 54/4/2
f 57/4/2 60/4/2 54/4/2
f 55/4/2 60/4/2 57/4/2
f 67/3/4 66/4/4 65/3/5
f 68/4/5 65/3/5 66/4/4
f 70/4/3 66/4/4 69/3/3
f 67/3/4 69/3/3 66/4/4
f 73/4/10 72/3/10 71/4/9
f 74/3/9 71/4/9 72/3/10
f 77/4/7 76/4/8 75/3/7
f 78/3/8 75/3/7 76/4/8
f 80/4/6 77/4/7 79/3/6
f 75/3/7 79/3/6 77/4/7
f 65/3/5 68/4/5 79/3/6
f 80/4/6 79/3/6 68/4/5
f 71/4/9 74/3/9 76/4/8
f 78/3/8 76/4/8 74/3/9
f 65/3/1 79/3/1 67/3/1
f 69/3/1 67/3/1 79/3/1
f 75/3/1 69/3/1 79/3/1
f 72/3/1 69/3/1 75/3/1
f 78/3/1 72/3/1 75/3/1
f 74/3/1 72/3/1 78/3/1
f 73/4/10 70/4/3 72/3/10
f 69/3/3 72/3/10 70/4/3
f 68/4/2 66/4/2 80/4/2
f 77/4/2 80/4/2 66/4/2
f 70/4/2 77/4/2 66/4/2
f 76/4/2 77/4/2 70/4/2
f 73/4/2 76/4/2 70/4/2
f 71/4/2 76/4/2 73/4/2
f 83/3/1 82/3/1 81/3/1
f 84/3/1 81/3/1 82/3/1
f 85/3/1 84/3/1 82/3/1
f 86/3/1 84/3/1 85/3/1
f 87/3/1 86/3/1 85/3/1
f 88/3/1 86/3/1 87/3/1
f 91/4/2 90/4/2 89/4/2
f 92/4/2 89/4/2 90/4/2
f 93/4/2 92/4/2 90/4/2
f 94/4/2 92/4/2 93/4/2
f 95/4/2 94/4/2 93/4/2
f 96/4/2 94/4/2 95/4/2
f 95/4/10 93/4/3 86/3/10
f 84/3/3 86/3/10 93/4/3
f 95/4/10 86/3/10 96/4/9
f 88/3/9 96/4/9 86/3/10
f 93/4/3 90/4/4 84/3/3
f 81/3/4 84/3/3 90/4/4
f 83/3/5 91/4/5 82/3/6
f 89/4/6 82/3/6 91/4/5
f 81/3/4 90/4/4 83/3/5
f 91/4/5 83/3/5 90/4/4
f 92/4/7 94/4/8 85/3/7
f 87/3/8 85/3/7 94/4/8
f 89/4/6 92/4/7 82/3/6
f 85/3/7 82/3/6 92/4/7
f 96/4/9 88/3/9 94/4/8
f 87/3/8 94/4/8 88/3/9
f 99/5/1 98/5/1 97/5/1
f 98/5/1 99/5/1 100/5/1
f 98/5/1 100/5/1 101/5/1
f 101/5/1 100/5/1 102/5/1
f 101/5/1 102/5/1 103/5/1
f 103/5/1 102/5/1 104/5/1
f 105/6/11 102/5/4 100/5/3
f 102/5/4 105/6/11 106/6/12
f 102/5/4 107/6/13 104/5/5
f 107/6/13 102/5/4 106/6/12
f 104/5/5 108/6/14 103/5/6
f 108/6/14 104/5/5 107/6/13
f 108/6/14 101/5/7 103/5/6
f 101/5/7 108/6/14 109/6/15
f 109/6/15 98/5/8 101/5/7
f 98/5/8 109/6/15 110/6/16
f 111/6/17 98/5/8 110/6/16
f 98/5/8 111/6/17 97/5/9
f 112/6/18 97/5/9 111/6/17
f 97/5/9 112/6/18 99/5/10
f 112/6/18 100/5/3 99/5/10
f 100/5/3 112/6/18 105/6/11
f 115/7/2 114/7/2 113/7/2
f 114/7/2 115/7/2 116/7/2
f 114/7/2 116/7/2 117/7/2
f 117/7/2 116/7/2 118/7/2
f 117/7/2 118/7/2 119/7/2
f 119/7/2 118/7/2 120/7/2
f 116/7/19 110/6/16 109/6/15
f 110/6/16 116/7/19 115/7/20
f 117/7/21 106/6/12 105/6/11
f 106/6/12 117/7/21 119/7/22
f 114/7/23 105/6/11 112/6/18
f 105/6/11 114/7/23 117/7/21
f 115/7/20 111/6/17 110/6/16
f 111/6/17 115/7/20 113/7/24
f 118/7/25 109/6/15 108/6/14
f 109/6/15 118/7/25 116/7/19
f 107/6/13 118/7/25 108/6/14
f 118/7/25 107/6/13 120/7/26
f 113/7/24 112/6/18 111/6/17
f 112/6/18 113/7/24 114/7/23
f 106/6/12 120/7/26 107/6/13
f 120/7/26 106/6/12 119/7/22
f 123/5/1 122/5/1 121/5/1
f 122/5/1 123/5/1 124/5/1
f 122/5/1 124/5/1 125/5/1
f 125/5/1 124/5/1 126/5/1
f 125/5/1 126/5/1 127/5/1
f 127/5/1 126/5/1 128/5/1
f 129/6/11 126/5/4 124/5/3
f 126/5/4 129/6/11 130/6/12
f 126/5/4 131/6/13 128/5/5
f 131/6/13 126/5/4 130/6/12
f 128/5/5 132/6/14 127/5/6
f 132/6/14 128/5/5 131/6/13
f 132/6/14 125/5/7 127/5/6
f 125/5/7 132/6/14 133/6/15
f 133/6/15 122/5/8 125/5/7
f 122/5/8 133/6/15 134/6/16
f 135/6/17 122/5/8 134/6/16
f 122/5/8 135/6/17 121/5/9
f 136/6/18 121/5/9 135/6/17
f 121/5/9 136/6/18 123/5/10
f 136/6/18 124/5/3 123/5/10
f 124/5/3 136/6/18 129/6/11
f 139/7/2 138/7/2 137/7/2
f 138/7/2 139/7/2 140/7/2
f 138/7/2 140/7/2 141/7/2
f 141/7/2 140/7/2 142/7/2
f 141/7/2 142/7/2 143/7/2
f 143/7/2 142/7/2 144/7/2
f 140/7/19 134/6/16 133/6/15
f 134/6/16 140/7/19 139/7/20
f 141/7/21 130/6/12 129/6/11
f 130/6/12 141/7/21 143/7/22
f 138/7/23 129/6/11 136/6/18
f 129/6/11 138/7/23 141/7/21
f 139/7/20 135/6/17 134/6/16
f 135/6/17 139/7/20 137/7/24
f 142/7/25 133/6/15 132/6/14
f 133/6/15 142/7/25 140/7/19
f 131/6/13 142/7/25 132/6/14
f 142/7/25 131/6/13 144/7/26
f 137/7/24 136/6/18 135/6/17
f 136/6/18 137/7/24 138/7/23
f 130/6/12 144/7/26 131/6/13
f 144/7/26 130/6/12 143/7/22
f 33/8/2 34/8/2 35/8/2
f 34/8/2 33/8/2 36/8/2
f 34/8/2 36/8/2 37/8/2
f 37/8/2 36/8/2 38/8/2
f 37/8/2 38/8/2 39/8/2
f 39/8/2 38/8/2 40/8/2
f 41/9/1 42/9/1 43/9/1
f 42/9/1 41/9/1 44/9/1
f 42/9/1 44/9/1 45/9/1
f 45/9/1 44/9/1 46/9/1
f 45/9/1 46/9/1 47/9/1
f 47/9/1 46/9/1 48/9/1
f 38/8/6 45/9/7 47/9/6
f 45/9/7 38/8/6 36/8/7
f 48/9/5 38/8/6 47/9/6
f 38/8/6 48/9/5 40/8/5
f 36/8/7 42/9/8 45/9/7
f 42/9/8 36/8/7 33/8/8
f 34/8/10 43/9/9 35/8/9
f 43/9/9 34/8/10 41/9/10
f 35/8/9 42/9/8 33/8/8
f 42/9/8 35/8/9 43/9/9
f 37/8/3 46/9/4 44/9/3
f 46/9/4 37/8/3 39/8/4
f 34/8/10 44/9/3 41/9/10
f 44/9/3 34/8/10 37/8/3
f 46/9/4 40/8/5 48/9/5
f 40/8/5 46/9/4 39/8/4
f 147/8/27 146/9/9 145/8/27
f 146/9/9 147/8/27 148/9/9
f 37/8/2 147/8/27 145/8/27
f 147/8/27 37/8/2 53/8/2
f 53/8/2 37/8/2 149/8/28
f 53/8/2 149/8/28 150/8/28
f 54/9/1 146/9/1 148/9/1
f 146/9/1 54/9/1 44/9/1
f 44/9/1 54/9/1 151/9/1
f 44/9/1 151/9/1 152/9/1
f 152/9/5 150/8/28 149/8/28
f 150/8/28 152/9/5 151/9/5
f 49/8/9 50/9/8 51/8/8
f 50/9/8 49/8/9 52/9/9
f 53/8/7 50/9/8 54/9/7
f 50/9/8 53/8/7 51/8/8
f 55/9/5 56/8/6 57/9/6
f 56/8/6 55/9/5 58/8/5
f 59/8/3 60/9/4 61/9/3
f 60/9/4 59/8/3 62/8/4
f 63/8/10 61/9/3 64/9/10
f 61/9/3 63/8/10 59/8/3
f 63/8/10 52/9/9 49/8/9
f 52/9/9 63/8/10 64/9/10
f 60/9/4 58/8/5 55/9/5
f 58/8/5 60/9/4 62/8/4
f 51/8/2 63/8/2 49/8/2
f 63/8/2 51/8/2 53/8/2
f 63/8/2 53/8/2 59/8/2
f 59/8/2 53/8/2 56/8/2
f 59/8/2 56/8/2 62/8/2
f 62/8/2 56/8/2 58/8/2
f 56/8/6 54/9/7 57/9/6
f 54/9/7 56/8/6 53/8/7
f 64/9/1 50/9/1 52/9/1
f 50/9/1 64/9/1 61/9/1
f 50/9/1 61/9/1 54/9/1
f 54/9/1 61/9/1 60/9/1
f 54/9/1 60/9/1 57/9/1
f 57/9/1 60/9/1 55/9/1
f 65/8/9 66/9/8 67/8/8
f 66/9/8 65/8/9 68/9/9
f 69/8/7 66/9/8 70/9/7
f 66/9/8 69/8/7 67/8/8
f 71/9/5 72/8/6 73/9/6
f 72/8/6 71/9/5 74/8/5
f 75/8/3 76/9/4 77/9/3
f 76/9/4 75/8/3 78/8/4
f 79/8/10 77/9/3 80/9/10
f 77/9/3 79/8/10 75/8/3
f 79/8/10 68/9/9 65/8/9
f 68/9/9 79/8/10 80/9/10
f 76/9/4 74/8/5 71/9/5
f 74/8/5 76/9/4 78/8/4
f 67/8/2 79/8/2 65/8/2
f 79/8/2 67/8/2 69/8/2
f 79/8/2 69/8/2 75/8/2
f 75/8/2 69/8/2 72/8/2
f 75/8/2 72/8/2 78/8/2
f 78/8/2 72/8/2 74/8/2
f 72/8/6 70/9/7 73/9/6
f 70/9/7 72/8/6 69/8/7
f 80/9/1 66/9/1 68/9/1
f 66/9/1 80/9/1 77/9/1
f 66/9/1 77/9/1 70/9/1
f 70/9/1 77/9/1 76/9/1
f 70/9/1 76/9/1 73/9/1
f 73/9/1 76/9/1 71/9/1
f 81/8/2 82/8/2 83/8/2
f 82/8/2 81/8/2 84/8/2
f 82/8/2 84/8/2 85/8/2
f 85/8/2 84/8/2 86/8/2
f 85/8/2 86/8/2 87/8/2
f 87/8/2 86/8/2 88/8/2
f 89/9/1 90/9/1 91/9/1
f 90/9/1 89/9/1 92/9/1
f 90/9/1 92/9/1 93/9/1
f 93/9/1 92/9/1 94/9/1
f 93/9/1 94/9/1 95/9/1
f 95/9/1 94/9/1 96/9/1
f 86/8/6 93/9/7 95/9/6
f 93/9/7 86/8/6 84/8/7
f 96/9/5 86/8/6 95/9/6
f 86/8/6 96/9/5 88/8/5
f 84/8/7 90/9/8 93/9/7
f 90/9/8 84/8/7 81/8/8
f 82/8/10 91/9/9 83/8/9
f 91/9/9 82/8/10 89/9/10
f 83/8/9 90/9/8 81/8/8
f 90/9/8 83/8/9 91/9/9
f 85/8/3 94/9/4 92/9/3
f 94/9/4 85/8/3 87/8/4
f 82/8/10 92/9/3 89/9/10
f 92/9/3 82/8/10 85/8/3
f 94/9/4 88/8/5 96/9/5
f 88/8/5 94/9/4 87/8/4
f 155/8/27 154/9/9 153/8/27
f 154/9/9 155/8/27 156/9/9
f 85/8/2 155/8/27 153/8/27
f 155/8/27 85/8/2 69/8/2
f 69/8/2 85/8/2 157/8/28
f 69/8/2 157/8/28 158/8/28
f 70/9/1 154/9/1 156/9/1
f 154/9/1 70/9/1 92/9/1
f 92/9/1 70/9/1 159/9/1
f 92/9/1 159/9/1 160/9/1
f 160/9/5 158/8/28 157/8/28
f 158/8/28 160/9/5 159/9/5

