# Created by Kenney (www.kenney.nl)

mtllib structure-doorway.mtl

g structure-doorway

v 0.4 1.7 0.3 1 1 1
v 0.4 1.7 1.5 1 1 1
v -0.4 1.7 0.3 1 1 1
v -0.4 1.7 1.5 1 1 1
v 0.4 1.6 1.5 1 1 1
v 0.4 1.6 0.3 1 1 1
v -0.4 1.6 1.5 1 1 1
v -0.4 1.6 0.3 1 1 1
v -0.4 3.946726E-15 0.3 1 1 1
v -0.4 3.997862E-15 0.7 1 1 1
v -0.4 3.997862E-15 1.5 1 1 1
v -0.5 1.950165E-16 0.3 1 1 1
v -0.5 1.6 0.3 1 1 1
v -0.5 2.461519E-16 0.7 1 1 1
v -0.5 1.6 1.5 1 1 1
v -0.5 2.461519E-16 1.5 1 1 1
v 0.5 3 0.5 1 1 1
v 0.5 3 1.5 1 1 1
v -0.5 3 0.5 1 1 1
v -0.5 3 1.5 1 1 1
v 0.5 1.6 0.3 1 1 1
v 0.5 1.918205E-16 0.3 1 1 1
v 0.5 1.6 1.5 1 1 1
v 0.5 2.429559E-16 0.7 1 1 1
v 0.5 2.429559E-16 1.5 1 1 1
v 0.4 4.824318E-15 0.3 1 1 1
v 0.4 4.875453E-15 0.7 1 1 1
v 0.4 4.875453E-15 1.5 1 1 1
v -0.5 2.7 0.6 1 1 1
v 0.5 2.7 0.6 1 1 1
v -0.5 2.8 0.6 1 1 1
v 0.5 2.8 0.6 1 1 1
v 0.5 2.8 0.5 1 1 1
v -0.5 2.8 0.5 1 1 1
v -0.5 1.6 0.6 1 1 1
v -0.4 1.7 0.6 1 1 1
v -0.5 2.7 0.6 1 1 1
v 0.4 1.7 0.6 1 1 1
v 0.5 2.7 0.6 1 1 1
v 0.5 1.6 0.6 1 1 1
v -0.4 3.997861E-15 0.7 1 1 1
v -0.4 3.946726E-15 0.3 1 1 1
v -0.4 3.997861E-15 1.5 1 1 1
v -0.5 4.743824E-17 -0.5 1 1 1
v -0.5 1.950165E-16 0.3 1 1 1
v 0.4 4.875453E-15 0.7 1 1 1
v 0.4 4.824317E-15 0.3 1 1 1
v 0.5 4.743824E-17 -0.5 1 1 1

vn 0 1 0
vn 0 -1 0
vn 1 0 0
vn -1 0 0
vn 0.7071068 0.7071068 0
vn 0 0 -1
vn -0.7071068 0.7071068 0
vn 0 0 1

vt 0.09375 0.1383333
vt 0.09375 0.1316667
vt 0.09375 0.025
vt 0.09375 0.225
vt 0.09375 0.205
vt 0.09375 0.2116666
vt 0.34375 0.025
vt 0.34375 0.04318182
vt 0.34375 0.225
vt 0.28125 0.125

usemtl colormap

f 3/1/1 2/1/1 1/1/1
f 2/1/1 3/1/1 4/1/1
f 7/2/2 6/2/2 5/2/2
f 6/2/2 7/2/2 8/2/2
f 7/2/3 9/3/3 8/2/3
f 9/3/3 7/2/3 10/3/3
f 10/3/3 7/2/3 11/3/3
f 14/3/4 13/2/4 12/3/4
f 13/2/4 14/3/4 15/2/4
f 15/2/4 14/3/4 16/3/4
f 19/4/1 18/4/1 17/4/1
f 18/4/1 19/4/1 20/4/1
f 23/2/3 22/3/3 21/2/3
f 22/3/3 23/2/3 24/3/3
f 24/3/3 23/2/3 25/3/3
f 27/3/4 6/2/4 26/3/4
f 6/2/4 27/3/4 5/2/4
f 5/2/4 27/3/4 28/3/4
f 2/1/5 21/2/5 1/1/5
f 21/2/5 2/1/5 23/2/5
f 13/2/6 9/3/6 12/3/6
f 9/3/6 13/2/6 8/2/6
f 8/2/6 13/2/6 3/1/6
f 1/1/6 8/2/6 3/1/6
f 21/2/6 8/2/6 1/1/6
f 21/2/6 6/2/6 8/2/6
f 21/2/6 26/3/6 6/2/6
f 26/3/6 21/2/6 22/3/6
f 31/6/6 30/5/6 29/5/6
f 30/5/6 31/6/6 32/6/6
f 15/2/7 3/1/7 13/2/7
f 3/1/7 15/2/7 4/1/7
f 31/6/2 33/6/2 32/6/2
f 33/6/2 31/6/2 34/6/2
f 19/4/6 33/6/6 34/6/6
f 33/6/6 19/4/6 17/4/6
f 23/2/8 28/3/8 25/3/8
f 28/3/8 23/2/8 5/2/8
f 5/2/8 23/2/8 7/2/8
f 7/2/8 23/2/8 2/1/8
f 4/1/8 7/2/8 2/1/8
f 15/2/8 7/2/8 4/1/8
f 15/2/8 11/3/8 7/2/8
f 11/3/8 15/2/8 16/3/8
f 16/3/2 10/3/2 11/3/2
f 10/3/2 16/3/2 14/3/2
f 28/3/2 24/3/2 25/3/2
f 24/3/2 28/3/2 27/3/2
f 37/9/6 36/8/6 35/7/6
f 36/8/6 37/9/6 38/8/6
f 39/9/6 38/8/6 37/9/6
f 38/8/6 39/9/6 40/7/6
f 43/10/1 42/10/1 41/10/1
f 42/10/1 43/10/1 28/10/1
f 28/10/1 44/10/1 42/10/1
f 42/10/1 44/10/1 45/10/1
f 46/10/1 44/10/1 28/10/1
f 47/10/1 44/10/1 46/10/1
f 22/10/1 44/10/1 47/10/1
f 44/10/1 22/10/1 48/10/1

g structure-doorway




usemtl colormap

f 3/1/1 2/1/1 1/1/1
f 2/1/1 3/1/1 4/1/1
f 7/2/2 6/2/2 5/2/2
f 6/2/2 7/2/2 8/2/2
f 7/2/3 9/3/3 8/2/3
f 9/3/3 7/2/3 10/3/3
f 10/3/3 7/2/3 11/3/3
f 14/3/4 13/2/4 12/3/4
f 13/2/4 14/3/4 15/2/4
f 15/2/4 14/3/4 16/3/4
f 19/4/1 18/4/1 17/4/1
f 18/4/1 19/4/1 20/4/1
f 23/2/3 22/3/3 21/2/3
f 22/3/3 23/2/3 24/3/3
f 24/3/3 23/2/3 25/3/3
f 27/3/4 6/2/4 26/3/4
f 6/2/4 27/3/4 5/2/4
f 5/2/4 27/3/4 28/3/4
f 2/1/5 21/2/5 1/1/5
f 21/2/5 2/1/5 23/2/5
f 13/2/6 9/3/6 12/3/6
f 9/3/6 13/2/6 8/2/6
f 8/2/6 13/2/6 3/1/6
f 1/1/6 8/2/6 3/1/6
f 21/2/6 8/2/6 1/1/6
f 21/2/6 6/2/6 8/2/6
f 21/2/6 26/3/6 6/2/6
f 26/3/6 21/2/6 22/3/6
f 31/6/6 30/5/6 29/5/6
f 30/5/6 31/6/6 32/6/6
f 15/2/7 3/1/7 13/2/7
f 3/1/7 15/2/7 4/1/7
f 31/6/2 33/6/2 32/6/2
f 33/6/2 31/6/2 34/6/2
f 19/4/6 33/6/6 34/6/6
f 33/6/6 19/4/6 17/4/6
f 23/2/8 28/3/8 25/3/8
f 28/3/8 23/2/8 5/2/8
f 5/2/8 23/2/8 7/2/8
f 7/2/8 23/2/8 2/1/8
f 4/1/8 7/2/8 2/1/8
f 15/2/8 7/2/8 4/1/8
f 15/2/8 11/3/8 7/2/8
f 11/3/8 15/2/8 16/3/8
f 16/3/2 10/3/2 11/3/2
f 10/3/2 16/3/2 14/3/2
f 28/3/2 24/3/2 25/3/2
f 24/3/2 28/3/2 27/3/2
f 37/9/6 36/8/6 35/7/6
f 36/8/6 37/9/6 38/8/6
f 39/9/6 38/8/6 37/9/6
f 38/8/6 39/9/6 40/7/6
f 43/10/1 42/10/1 41/10/1
f 42/10/1 43/10/1 28/10/1
f 28/10/1 44/10/1 42/10/1
f 42/10/1 44/10/1 45/10/1
f 46/10/1 44/10/1 28/10/1
f 47/10/1 44/10/1 46/10/1
f 22/10/1 44/10/1 47/10/1
f 44/10/1 22/10/1 48/10/1

