# Created by Kenney (www.kenney.nl)

mtllib structure-yellow-medium.mtl

g structure-yellow-medium

v 0.1 0.15 0.4 1 1 1
v 0.07071068 0.15 0.3292893 1 1 1
v 0.07071068 0.15 0.4707107 1 1 1
v 0 0.15 0.5 1 1 1
v 0 0.15 0.3 1 1 1
v -0.07071068 0.15 0.4707107 1 1 1
v -0.07071068 0.15 0.3292893 1 1 1
v -0.1 0.15 0.4 1 1 1
v 0.1 1 0.4 1 1 1
v 0.07071068 1 0.4707107 1 1 1
v 0.07071068 1 0.3292893 1 1 1
v 0 1 0.3 1 1 1
v 0 1 0.5 1 1 1
v -0.07071068 1 0.3292893 1 1 1
v -0.07071068 1 0.4707107 1 1 1
v -0.1 1 0.4 1 1 1
v 0.1 0.15 -0.4 1 1 1
v 0.07071068 0.15 -0.4707107 1 1 1
v 0.07071068 0.15 -0.3292893 1 1 1
v 0 0.15 -0.3 1 1 1
v 0 0.15 -0.5 1 1 1
v -0.07071068 0.15 -0.3292893 1 1 1
v -0.07071068 0.15 -0.4707107 1 1 1
v -0.1 0.15 -0.4 1 1 1
v 0.1 1 -0.4 1 1 1
v 0.07071068 1 -0.3292893 1 1 1
v 0.07071068 1 -0.4707107 1 1 1
v 0 1 -0.5 1 1 1
v 0 1 -0.3 1 1 1
v -0.07071068 1 -0.4707107 1 1 1
v -0.07071068 1 -0.3292893 1 1 1
v -0.1 1 -0.4 1 1 1
v 0.15 0.85 0.4 1 1 1
v 0.106066 0.7 0.293934 1 1 1
v 0.106066 0.85 0.293934 1 1 1
v 0.15 0.7 0.4 1 1 1
v 0 0.85 0.25 1 1 1
v 0 0.7 0.25 1 1 1
v -0.15 0.7 0.4 1 1 1
v -0.106066 0.85 0.293934 1 1 1
v -0.106066 0.7 0.293934 1 1 1
v -0.15 0.85 0.4 1 1 1
v 0 0.85 0.55 1 1 1
v -0.106066 0.7 0.506066 1 1 1
v 0 0.7 0.55 1 1 1
v -0.106066 0.85 0.506066 1 1 1
v 0.106066 0.85 0.506066 1 1 1
v 0.106066 0.7 0.506066 1 1 1
v 0.106066 0.85 -0.506066 1 1 1
v 0.106066 0.85 -0.293934 1 1 1
v 0.15 0.85 -0.4 1 1 1
v 0 0.85 -0.55 1 1 1
v 0 0.85 -0.25 1 1 1
v -0.106066 0.85 -0.506066 1 1 1
v -0.106066 0.85 -0.293934 1 1 1
v -0.15 0.85 -0.4 1 1 1
v 0.106066 0.7 -0.293934 1 1 1
v 0.106066 0.7 -0.506066 1 1 1
v 0.15 0.7 -0.4 1 1 1
v 0 0.7 -0.25 1 1 1
v 0 0.7 -0.55 1 1 1
v -0.106066 0.7 -0.293934 1 1 1
v -0.106066 0.7 -0.506066 1 1 1
v -0.15 0.7 -0.4 1 1 1
v 0.106066 0.45 -0.506066 1 1 1
v 0.106066 0.45 -0.293934 1 1 1
v 0.15 0.45 -0.4 1 1 1
v 0 0.45 -0.55 1 1 1
v 0 0.45 -0.25 1 1 1
v -0.106066 0.45 -0.506066 1 1 1
v -0.106066 0.45 -0.293934 1 1 1
v -0.15 0.45 -0.4 1 1 1
v 0.106066 0.3 -0.293934 1 1 1
v 0.106066 0.3 -0.506066 1 1 1
v 0.15 0.3 -0.4 1 1 1
v 0 0.3 -0.25 1 1 1
v 0 0.3 -0.55 1 1 1
v -0.106066 0.3 -0.293934 1 1 1
v -0.106066 0.3 -0.506066 1 1 1
v -0.15 0.3 -0.4 1 1 1
v 0.15 0.45 0.4 1 1 1
v 0.106066 0.3 0.293934 1 1 1
v 0.106066 0.45 0.293934 1 1 1
v 0.15 0.3 0.4 1 1 1
v 0 0.45 0.25 1 1 1
v 0 0.3 0.25 1 1 1
v -0.15 0.3 0.4 1 1 1
v -0.106066 0.45 0.293934 1 1 1
v -0.106066 0.3 0.293934 1 1 1
v -0.15 0.45 0.4 1 1 1
v 0 0.45 0.55 1 1 1
v -0.106066 0.3 0.506066 1 1 1
v 0 0.3 0.55 1 1 1
v -0.106066 0.45 0.506066 1 1 1
v 0.106066 0.45 0.506066 1 1 1
v 0.106066 0.3 0.506066 1 1 1
v 0.1 -1.274263E-18 0.4 1 1 1
v 0.07071068 -1.274263E-18 0.3292893 1 1 1
v 0.07071068 -1.274263E-18 0.4707107 1 1 1
v 0 -1.274263E-18 0.5 1 1 1
v 0 -1.274263E-18 0.3 1 1 1
v -0.07071068 -1.274263E-18 0.4707107 1 1 1
v -0.07071068 -1.274263E-18 0.3292893 1 1 1
v -0.1 -1.274263E-18 0.4 1 1 1
v 0 0.075 0.5 1 1 1
v -0.07071068 0.075 0.4707107 1 1 1
v -0.1 0.075 0.4 1 1 1
v -0.07071068 0.075 0.3292893 1 1 1
v 0 0.075 0.3 1 1 1
v 0.07071068 0.075 0.3292893 1 1 1
v 0.1 0.075 0.4 1 1 1
v 0.07071068 0.075 0.4707107 1 1 1
v 0.075 0.15 0.4 1 1 1
v 0.05303301 0.15 0.453033 1 1 1
v 0.05303301 0.15 0.346967 1 1 1
v -1.804779E-16 0.15 0.325 1 1 1
v -1.804779E-16 0.15 0.475 1 1 1
v -0.05303301 0.15 0.346967 1 1 1
v -0.05303301 0.15 0.453033 1 1 1
v -0.075 0.15 0.4 1 1 1
v 0.1 -1.274263E-18 -0.4 1 1 1
v 0.07071068 -1.274263E-18 -0.4707107 1 1 1
v 0.07071068 -1.274263E-18 -0.3292893 1 1 1
v 0 -1.274263E-18 -0.3 1 1 1
v 0 -1.274263E-18 -0.5 1 1 1
v -0.07071068 -1.274263E-18 -0.3292893 1 1 1
v -0.07071068 -1.274263E-18 -0.4707107 1 1 1
v -0.1 -1.274263E-18 -0.4 1 1 1
v 0 0.075 -0.3 1 1 1
v -0.07071068 0.075 -0.3292893 1 1 1
v -0.1 0.075 -0.4 1 1 1
v -0.07071068 0.075 -0.4707107 1 1 1
v 0 0.075 -0.5 1 1 1
v 0.07071068 0.075 -0.4707107 1 1 1
v 0.1 0.075 -0.4 1 1 1
v 0.07071068 0.075 -0.3292893 1 1 1
v 0.075 0.15 -0.4 1 1 1
v 0.05303301 0.15 -0.346967 1 1 1
v 0.05303301 0.15 -0.453033 1 1 1
v -1.804779E-16 0.15 -0.475 1 1 1
v -1.804779E-16 0.15 -0.325 1 1 1
v -0.05303301 0.15 -0.453033 1 1 1
v -0.05303301 0.15 -0.346967 1 1 1
v -0.075 0.15 -0.4 1 1 1
v 0.0375 0.85 -0.265533 1 1 1
v 0.0375 0.7 -0.265533 1 1 1
v 0.0375 0.85 0.265533 1 1 1
v 0.0375 0.7 0.265533 1 1 1
v -0.0375 0.85 -0.265533 1 1 1
v -0.0375 0.85 0.265533 1 1 1
v -0.0375 0.7 0.265533 1 1 1
v -0.0375 0.7 -0.265533 1 1 1
v 0.0375 0.45 -0.265533 1 1 1
v 0.0375 0.3 -0.265533 1 1 1
v 0.0375 0.45 0.265533 1 1 1
v 0.0375 0.3 0.265533 1 1 1
v -0.0375 0.45 -0.265533 1 1 1
v -0.0375 0.45 0.265533 1 1 1
v -0.0375 0.3 0.265533 1 1 1
v -0.0375 0.3 -0.265533 1 1 1

vn 0 -1 0
vn 0 1 0
vn 0 0 1
vn -0.7071068 0 0.7071068
vn -1 0 0
vn -0.7071068 0 -0.7071068
vn 0 0 -1
vn 0.7071068 0 -0.7071068
vn 1 0 0
vn 0.7071068 0 0.7071068
vn 0 0.1543356 0.9880185
vn -0.6986346 0.1543356 0.6986346
vn -0.9880185 0.1543356 0
vn -0.6986346 0.1543356 -0.6986346
vn 0 0.1543356 -0.9880185
vn 0.6986346 0.1543356 -0.6986346
vn 0.9880185 0.1543356 0
vn 0.6986346 0.1543356 0.6986346
vn 0 0.3162278 -0.9486833
vn 0.6708204 0.3162277 -0.6708204
vn 0 0.3162278 0.9486833
vn -0.6708204 0.3162277 0.6708204
vn 0.6708204 0.3162277 0.6708204
vn 0.9486833 0.3162278 0
vn -0.6708204 0.3162277 -0.6708204
vn -0.9486833 0.3162278 0
vn 0.8325171 0.5539994 0
vn -0.8325171 0.5539994 0

vt 0.34375 0.025
vt 0.34375 0.225
vt 0.34375 0.175
vt 0.34375 0.075
vt 0.46875 0.225
vt 0.46875 0.125
vt 0.46875 0.025
vt 0.84375 0.175
vt 0.84375 0.075

usemtl colormap

f 3/1/1 2/1/1 1/1/1
f 2/1/1 3/1/1 4/1/1
f 2/1/1 4/1/1 5/1/1
f 5/1/1 4/1/1 6/1/1
f 5/1/1 6/1/1 7/1/1
f 7/1/1 6/1/1 8/1/1
f 11/2/2 10/2/2 9/2/2
f 10/2/2 11/2/2 12/2/2
f 10/2/2 12/2/2 13/2/2
f 13/2/2 12/2/2 14/2/2
f 13/2/2 14/2/2 15/2/2
f 15/2/2 14/2/2 16/2/2
f 13/2/3 6/1/4 4/1/3
f 6/1/4 13/2/3 15/2/4
f 6/1/4 16/2/5 8/1/5
f 16/2/5 6/1/4 15/2/4
f 8/1/5 14/2/6 7/1/6
f 14/2/6 8/1/5 16/2/5
f 14/2/6 5/1/7 7/1/6
f 5/1/7 14/2/6 12/2/7
f 12/2/7 2/1/8 5/1/7
f 2/1/8 12/2/7 11/2/8
f 9/2/9 2/1/8 11/2/8
f 2/1/8 9/2/9 1/1/9
f 10/2/10 1/1/9 9/2/9
f 1/1/9 10/2/10 3/1/10
f 10/2/10 4/1/3 3/1/10
f 4/1/3 10/2/10 13/2/3
f 19/1/1 18/1/1 17/1/1
f 18/1/1 19/1/1 20/1/1
f 18/1/1 20/1/1 21/1/1
f 21/1/1 20/1/1 22/1/1
f 21/1/1 22/1/1 23/1/1
f 23/1/1 22/1/1 24/1/1
f 27/2/2 26/2/2 25/2/2
f 26/2/2 27/2/2 28/2/2
f 26/2/2 28/2/2 29/2/2
f 29/2/2 28/2/2 30/2/2
f 29/2/2 30/2/2 31/2/2
f 31/2/2 30/2/2 32/2/2
f 29/2/3 22/1/4 20/1/3
f 22/1/4 29/2/3 31/2/4
f 22/1/4 32/2/5 24/1/5
f 32/2/5 22/1/4 31/2/4
f 24/1/5 30/2/6 23/1/6
f 30/2/6 24/1/5 32/2/5
f 30/2/6 21/1/7 23/1/6
f 21/1/7 30/2/6 28/2/7
f 28/2/7 18/1/8 21/1/7
f 18/1/8 28/2/7 27/2/8
f 25/2/9 18/1/8 27/2/8
f 18/1/8 25/2/9 17/1/9
f 26/2/10 17/1/9 25/2/9
f 17/1/9 26/2/10 19/1/10
f 26/2/10 20/1/3 19/1/10
f 20/1/3 26/2/10 29/2/3
f 35/3/4 34/4/4 33/3/5
f 36/4/5 33/3/5 34/4/4
f 38/4/3 34/4/4 37/3/3
f 35/3/4 37/3/3 34/4/4
f 41/4/10 40/3/10 39/4/9
f 42/3/9 39/4/9 40/3/10
f 45/4/7 44/4/8 43/3/7
f 46/3/8 43/3/7 44/4/8
f 48/4/6 45/4/7 47/3/6
f 43/3/7 47/3/6 45/4/7
f 33/3/5 36/4/5 47/3/6
f 48/4/6 47/3/6 36/4/5
f 39/4/9 42/3/9 44/4/8
f 46/3/8 44/4/8 42/3/9
f 33/3/1 47/3/1 35/3/1
f 37/3/1 35/3/1 47/3/1
f 43/3/1 37/3/1 47/3/1
f 40/3/1 37/3/1 43/3/1
f 46/3/1 40/3/1 43/3/1
f 42/3/1 40/3/1 46/3/1
f 41/4/10 38/4/3 40/3/10
f 37/3/3 40/3/10 38/4/3
f 36/4/2 34/4/2 48/4/2
f 45/4/2 48/4/2 34/4/2
f 38/4/2 45/4/2 34/4/2
f 44/4/2 45/4/2 38/4/2
f 41/4/2 44/4/2 38/4/2
f 39/4/2 44/4/2 41/4/2
f 51/3/1 50/3/1 49/3/1
f 52/3/1 49/3/1 50/3/1
f 53/3/1 52/3/1 50/3/1
f 54/3/1 52/3/1 53/3/1
f 55/3/1 54/3/1 53/3/1
f 56/3/1 54/3/1 55/3/1
f 59/4/2 58/4/2 57/4/2
f 60/4/2 57/4/2 58/4/2
f 61/4/2 60/4/2 58/4/2
f 62/4/2 60/4/2 61/4/2
f 63/4/2 62/4/2 61/4/2
f 64/4/2 62/4/2 63/4/2
f 63/4/10 61/4/3 54/3/10
f 52/3/3 54/3/10 61/4/3
f 63/4/10 54/3/10 64/4/9
f 56/3/9 64/4/9 54/3/10
f 61/4/3 58/4/4 52/3/3
f 49/3/4 52/3/3 58/4/4
f 51/3/5 59/4/5 50/3/6
f 57/4/6 50/3/6 59/4/5
f 49/3/4 58/4/4 51/3/5
f 59/4/5 51/3/5 58/4/4
f 60/4/7 62/4/8 53/3/7
f 55/3/8 53/3/7 62/4/8
f 57/4/6 60/4/7 50/3/6
f 53/3/7 50/3/6 60/4/7
f 64/4/9 56/3/9 62/4/8
f 55/3/8 62/4/8 56/3/9
f 67/3/1 66/3/1 65/3/1
f 68/3/1 65/3/1 66/3/1
f 69/3/1 68/3/1 66/3/1
f 70/3/1 68/3/1 69/3/1
f 71/3/1 70/3/1 69/3/1
f 72/3/1 70/3/1 71/3/1
f 75/4/2 74/4/2 73/4/2
f 76/4/2 73/4/2 74/4/2
f 77/4/2 76/4/2 74/4/2
f 78/4/2 76/4/2 77/4/2
f 79/4/2 78/4/2 77/4/2
f 80/4/2 78/4/2 79/4/2
f 79/4/10 77/4/3 70/3/10
f 68/3/3 70/3/10 77/4/3
f 79/4/10 70/3/10 80/4/9
f 72/3/9 80/4/9 70/3/10
f 77/4/3 74/4/4 68/3/3
f 65/3/4 68/3/3 74/4/4
f 67/3/5 75/4/5 66/3/6
f 73/4/6 66/3/6 75/4/5
f 65/3/4 74/4/4 67/3/5
f 75/4/5 67/3/5 74/4/4
f 76/4/7 78/4/8 69/3/7
f 71/3/8 69/3/7 78/4/8
f 73/4/6 76/4/7 66/3/6
f 69/3/7 66/3/6 76/4/7
f 80/4/9 72/3/9 78/4/8
f 71/3/8 78/4/8 72/3/9
f 83/3/4 82/4/4 81/3/5
f 84/4/5 81/3/5 82/4/4
f 86/4/3 82/4/4 85/3/3
f 83/3/4 85/3/3 82/4/4
f 89/4/10 88/3/10 87/4/9
f 90/3/9 87/4/9 88/3/10
f 93/4/7 92/4/8 91/3/7
f 94/3/8 91/3/7 92/4/8
f 96/4/6 93/4/7 95/3/6
f 91/3/7 95/3/6 93/4/7
f 81/3/5 84/4/5 95/3/6
f 96/4/6 95/3/6 84/4/5
f 87/4/9 90/3/9 92/4/8
f 94/3/8 92/4/8 90/3/9
f 81/3/1 95/3/1 83/3/1
f 85/3/1 83/3/1 95/3/1
f 91/3/1 85/3/1 95/3/1
f 88/3/1 85/3/1 91/3/1
f 94/3/1 88/3/1 91/3/1
f 90/3/1 88/3/1 94/3/1
f 89/4/10 86/4/3 88/3/10
f 85/3/3 88/3/10 86/4/3
f 84/4/2 82/4/2 96/4/2
f 93/4/2 96/4/2 82/4/2
f 86/4/2 93/4/2 82/4/2
f 92/4/2 93/4/2 86/4/2
f 89/4/2 92/4/2 86/4/2
f 87/4/2 92/4/2 89/4/2
f 99/5/1 98/5/1 97/5/1
f 98/5/1 99/5/1 100/5/1
f 98/5/1 100/5/1 101/5/1
f 101/5/1 100/5/1 102/5/1
f 101/5/1 102/5/1 103/5/1
f 103/5/1 102/5/1 104/5/1
f 105/6/11 102/5/4 100/5/3
f 102/5/4 105/6/11 106/6/12
f 102/5/4 107/6/13 104/5/5
f 107/6/13 102/5/4 106/6/12
f 104/5/5 108/6/14 103/5/6
f 108/6/14 104/5/5 107/6/13
f 108/6/14 101/5/7 103/5/6
f 101/5/7 108/6/14 109/6/15
f 109/6/15 98/5/8 101/5/7
f 98/5/8 109/6/15 110/6/16
f 111/6/17 98/5/8 110/6/16
f 98/5/8 111/6/17 97/5/9
f 112/6/18 97/5/9 111/6/17
f 97/5/9 112/6/18 99/5/10
f 112/6/18 100/5/3 99/5/10
f 100/5/3 112/6/18 105/6/11
f 115/7/2 114/7/2 113/7/2
f 114/7/2 115/7/2 116/7/2
f 114/7/2 116/7/2 117/7/2
f 117/7/2 116/7/2 118/7/2
f 117/7/2 118/7/2 119/7/2
f 119/7/2 118/7/2 120/7/2
f 116/7/19 110/6/16 109/6/15
f 110/6/16 116/7/19 115/7/20
f 117/7/21 106/6/12 105/6/11
f 106/6/12 117/7/21 119/7/22
f 114/7/23 105/6/11 112/6/18
f 105/6/11 114/7/23 117/7/21
f 115/7/20 111/6/17 110/6/16
f 111/6/17 115/7/20 113/7/24
f 118/7/25 109/6/15 108/6/14
f 109/6/15 118/7/25 116/7/19
f 107/6/13 118/7/25 108/6/14
f 118/7/25 107/6/13 120/7/26
f 113/7/24 112/6/18 111/6/17
f 112/6/18 113/7/24 114/7/23
f 106/6/12 120/7/26 107/6/13
f 120/7/26 106/6/12 119/7/22
f 123/5/1 122/5/1 121/5/1
f 122/5/1 123/5/1 124/5/1
f 122/5/1 124/5/1 125/5/1
f 125/5/1 124/5/1 126/5/1
f 125/5/1 126/5/1 127/5/1
f 127/5/1 126/5/1 128/5/1
f 129/6/11 126/5/4 124/5/3
f 126/5/4 129/6/11 130/6/12
f 126/5/4 131/6/13 128/5/5
f 131/6/13 126/5/4 130/6/12
f 128/5/5 132/6/14 127/5/6
f 132/6/14 128/5/5 131/6/13
f 132/6/14 125/5/7 127/5/6
f 125/5/7 132/6/14 133/6/15
f 133/6/15 122/5/8 125/5/7
f 122/5/8 133/6/15 134/6/16
f 135/6/17 122/5/8 134/6/16
f 122/5/8 135/6/17 121/5/9
f 136/6/18 121/5/9 135/6/17
f 121/5/9 136/6/18 123/5/10
f 136/6/18 124/5/3 123/5/10
f 124/5/3 136/6/18 129/6/11
f 139/7/2 138/7/2 137/7/2
f 138/7/2 139/7/2 140/7/2
f 138/7/2 140/7/2 141/7/2
f 141/7/2 140/7/2 142/7/2
f 141/7/2 142/7/2 143/7/2
f 143/7/2 142/7/2 144/7/2
f 140/7/19 134/6/16 133/6/15
f 134/6/16 140/7/19 139/7/20
f 141/7/21 130/6/12 129/6/11
f 130/6/12 141/7/21 143/7/22
f 138/7/23 129/6/11 136/6/18
f 129/6/11 138/7/23 141/7/21
f 139/7/20 135/6/17 134/6/16
f 135/6/17 139/7/20 137/7/24
f 142/7/25 133/6/15 132/6/14
f 133/6/15 142/7/25 140/7/19
f 131/6/13 142/7/25 132/6/14
f 142/7/25 131/6/13 144/7/26
f 137/7/24 136/6/18 135/6/17
f 136/6/18 137/7/24 138/7/23
f 130/6/12 144/7/26 131/6/13
f 144/7/26 130/6/12 143/7/22
f 33/8/9 34/9/8 35/8/8
f 34/9/8 33/8/9 36/9/9
f 37/8/7 34/9/8 38/9/7
f 34/9/8 37/8/7 35/8/8
f 39/9/5 40/8/6 41/9/6
f 40/8/6 39/9/5 42/8/5
f 43/8/3 44/9/4 45/9/3
f 44/9/4 43/8/3 46/8/4
f 47/8/10 45/9/3 48/9/10
f 45/9/3 47/8/10 43/8/3
f 47/8/10 36/9/9 33/8/9
f 36/9/9 47/8/10 48/9/10
f 44/9/4 42/8/5 39/9/5
f 42/8/5 44/9/4 46/8/4
f 35/8/2 47/8/2 33/8/2
f 47/8/2 35/8/2 37/8/2
f 47/8/2 37/8/2 43/8/2
f 43/8/2 37/8/2 40/8/2
f 43/8/2 40/8/2 46/8/2
f 46/8/2 40/8/2 42/8/2
f 40/8/6 38/9/7 41/9/6
f 38/9/7 40/8/6 37/8/7
f 48/9/1 34/9/1 36/9/1
f 34/9/1 48/9/1 45/9/1
f 34/9/1 45/9/1 38/9/1
f 38/9/1 45/9/1 44/9/1
f 38/9/1 44/9/1 41/9/1
f 41/9/1 44/9/1 39/9/1
f 147/8/27 146/9/9 145/8/27
f 146/9/9 147/8/27 148/9/9
f 53/8/2 147/8/27 145/8/27
f 147/8/27 53/8/2 37/8/2
f 37/8/2 53/8/2 149/8/28
f 37/8/2 149/8/28 150/8/28
f 38/9/1 146/9/1 148/9/1
f 146/9/1 38/9/1 60/9/1
f 60/9/1 38/9/1 151/9/1
f 60/9/1 151/9/1 152/9/1
f 152/9/5 150/8/28 149/8/28
f 150/8/28 152/9/5 151/9/5
f 49/8/2 50/8/2 51/8/2
f 50/8/2 49/8/2 52/8/2
f 50/8/2 52/8/2 53/8/2
f 53/8/2 52/8/2 54/8/2
f 53/8/2 54/8/2 55/8/2
f 55/8/2 54/8/2 56/8/2
f 57/9/1 58/9/1 59/9/1
f 58/9/1 57/9/1 60/9/1
f 58/9/1 60/9/1 61/9/1
f 61/9/1 60/9/1 62/9/1
f 61/9/1 62/9/1 63/9/1
f 63/9/1 62/9/1 64/9/1
f 54/8/6 61/9/7 63/9/6
f 61/9/7 54/8/6 52/8/7
f 64/9/5 54/8/6 63/9/6
f 54/8/6 64/9/5 56/8/5
f 52/8/7 58/9/8 61/9/7
f 58/9/8 52/8/7 49/8/8
f 50/8/10 59/9/9 51/8/9
f 59/9/9 50/8/10 57/9/10
f 51/8/9 58/9/8 49/8/8
f 58/9/8 51/8/9 59/9/9
f 53/8/3 62/9/4 60/9/3
f 62/9/4 53/8/3 55/8/4
f 50/8/10 60/9/3 57/9/10
f 60/9/3 50/8/10 53/8/3
f 62/9/4 56/8/5 64/9/5
f 56/8/5 62/9/4 55/8/4
f 155/8/27 154/9/9 153/8/27
f 154/9/9 155/8/27 156/9/9
f 69/8/2 155/8/27 153/8/27
f 155/8/27 69/8/2 85/8/2
f 85/8/2 69/8/2 157/8/28
f 85/8/2 157/8/28 158/8/28
f 86/9/1 154/9/1 156/9/1
f 154/9/1 86/9/1 76/9/1
f 76/9/1 86/9/1 159/9/1
f 76/9/1 159/9/1 160/9/1
f 160/9/5 158/8/28 157/8/28
f 158/8/28 160/9/5 159/9/5
f 65/8/2 66/8/2 67/8/2
f 66/8/2 65/8/2 68/8/2
f 66/8/2 68/8/2 69/8/2
f 69/8/2 68/8/2 70/8/2
f 69/8/2 70/8/2 71/8/2
f 71/8/2 70/8/2 72/8/2
f 73/9/1 74/9/1 75/9/1
f 74/9/1 73/9/1 76/9/1
f 74/9/1 76/9/1 77/9/1
f 77/9/1 76/9/1 78/9/1
f 77/9/1 78/9/1 79/9/1
f 79/9/1 78/9/1 80/9/1
f 70/8/6 77/9/7 79/9/6
f 77/9/7 70/8/6 68/8/7
f 80/9/5 70/8/6 79/9/6
f 70/8/6 80/9/5 72/8/5
f 68/8/7 74/9/8 77/9/7
f 74/9/8 68/8/7 65/8/8
f 66/8/10 75/9/9 67/8/9
f 75/9/9 66/8/10 73/9/10
f 67/8/9 74/9/8 65/8/8
f 74/9/8 67/8/9 75/9/9
f 69/8/3 78/9/4 76/9/3
f 78/9/4 69/8/3 71/8/4
f 66/8/10 76/9/3 73/9/10
f 76/9/3 66/8/10 69/8/3
f 78/9/4 72/8/5 80/9/5
f 72/8/5 78/9/4 71/8/4
f 81/8/9 82/9/8 83/8/8
f 82/9/8 81/8/9 84/9/9
f 85/8/7 82/9/8 86/9/7
f 82/9/8 85/8/7 83/8/8
f 87/9/5 88/8/6 89/9/6
f 88/8/6 87/9/5 90/8/5
f 91/8/3 92/9/4 93/9/3
f 92/9/4 91/8/3 94/8/4
f 95/8/10 93/9/3 96/9/10
f 93/9/3 95/8/10 91/8/3
f 95/8/10 84/9/9 81/8/9
f 84/9/9 95/8/10 96/9/10
f 92/9/4 90/8/5 87/9/5
f 90/8/5 92/9/4 94/8/4
f 83/8/2 95/8/2 81/8/2
f 95/8/2 83/8/2 85/8/2
f 95/8/2 85/8/2 91/8/2
f 91/8/2 85/8/2 88/8/2
f 91/8/2 88/8/2 94/8/2
f 94/8/2 88/8/2 90/8/2
f 88/8/6 86/9/7 89/9/6
f 86/9/7 88/8/6 85/8/7
f 96/9/1 82/9/1 84/9/1
f 82/9/1 96/9/1 93/9/1
f 82/9/1 93/9/1 86/9/1
f 86/9/1 93/9/1 92/9/1
f 86/9/1 92/9/1 89/9/1
f 89/9/1 92/9/1 87/9/1

g structure-yellow-medium




usemtl colormap

f 3/1/1 2/1/1 1/1/1
f 2/1/1 3/1/1 4/1/1
f 2/1/1 4/1/1 5/1/1
f 5/1/1 4/1/1 6/1/1
f 5/1/1 6/1/1 7/1/1
f 7/1/1 6/1/1 8/1/1
f 11/2/2 10/2/2 9/2/2
f 10/2/2 11/2/2 12/2/2
f 10/2/2 12/2/2 13/2/2
f 13/2/2 12/2/2 14/2/2
f 13/2/2 14/2/2 15/2/2
f 15/2/2 14/2/2 16/2/2
f 13/2/3 6/1/4 4/1/3
f 6/1/4 13/2/3 15/2/4
f 6/1/4 16/2/5 8/1/5
f 16/2/5 6/1/4 15/2/4
f 8/1/5 14/2/6 7/1/6
f 14/2/6 8/1/5 16/2/5
f 14/2/6 5/1/7 7/1/6
f 5/1/7 14/2/6 12/2/7
f 12/2/7 2/1/8 5/1/7
f 2/1/8 12/2/7 11/2/8
f 9/2/9 2/1/8 11/2/8
f 2/1/8 9/2/9 1/1/9
f 10/2/10 1/1/9 9/2/9
f 1/1/9 10/2/10 3/1/10
f 10/2/10 4/1/3 3/1/10
f 4/1/3 10/2/10 13/2/3
f 19/1/1 18/1/1 17/1/1
f 18/1/1 19/1/1 20/1/1
f 18/1/1 20/1/1 21/1/1
f 21/1/1 20/1/1 22/1/1
f 21/1/1 22/1/1 23/1/1
f 23/1/1 22/1/1 24/1/1
f 27/2/2 26/2/2 25/2/2
f 26/2/2 27/2/2 28/2/2
f 26/2/2 28/2/2 29/2/2
f 29/2/2 28/2/2 30/2/2
f 29/2/2 30/2/2 31/2/2
f 31/2/2 30/2/2 32/2/2
f 29/2/3 22/1/4 20/1/3
f 22/1/4 29/2/3 31/2/4
f 22/1/4 32/2/5 24/1/5
f 32/2/5 22/1/4 31/2/4
f 24/1/5 30/2/6 23/1/6
f 30/2/6 24/1/5 32/2/5
f 30/2/6 21/1/7 23/1/6
f 21/1/7 30/2/6 28/2/7
f 28/2/7 18/1/8 21/1/7
f 18/1/8 28/2/7 27/2/8
f 25/2/9 18/1/8 27/2/8
f 18/1/8 25/2/9 17/1/9
f 26/2/10 17/1/9 25/2/9
f 17/1/9 26/2/10 19/1/10
f 26/2/10 20/1/3 19/1/10
f 20/1/3 26/2/10 29/2/3
f 35/3/4 34/4/4 33/3/5
f 36/4/5 33/3/5 34/4/4
f 38/4/3 34/4/4 37/3/3
f 35/3/4 37/3/3 34/4/4
f 41/4/10 40/3/10 39/4/9
f 42/3/9 39/4/9 40/3/10
f 45/4/7 44/4/8 43/3/7
f 46/3/8 43/3/7 44/4/8
f 48/4/6 45/4/7 47/3/6
f 43/3/7 47/3/6 45/4/7
f 33/3/5 36/4/5 47/3/6
f 48/4/6 47/3/6 36/4/5
f 39/4/9 42/3/9 44/4/8
f 46/3/8 44/4/8 42/3/9
f 33/3/1 47/3/1 35/3/1
f 37/3/1 35/3/1 47/3/1
f 43/3/1 37/3/1 47/3/1
f 40/3/1 37/3/1 43/3/1
f 46/3/1 40/3/1 43/3/1
f 42/3/1 40/3/1 46/3/1
f 41/4/10 38/4/3 40/3/10
f 37/3/3 40/3/10 38/4/3
f 36/4/2 34/4/2 48/4/2
f 45/4/2 48/4/2 34/4/2
f 38/4/2 45/4/2 34/4/2
f 44/4/2 45/4/2 38/4/2
f 41/4/2 44/4/2 38/4/2
f 39/4/2 44/4/2 41/4/2
f 51/3/1 50/3/1 49/3/1
f 52/3/1 49/3/1 50/3/1
f 53/3/1 52/3/1 50/3/1
f 54/3/1 52/3/1 53/3/1
f 55/3/1 54/3/1 53/3/1
f 56/3/1 54/3/1 55/3/1
f 59/4/2 58/4/2 57/4/2
f 60/4/2 57/4/2 58/4/2
f 61/4/2 60/4/2 58/4/2
f 62/4/2 60/4/2 61/4/2
f 63/4/2 62/4/2 61/4/2
f 64/4/2 62/4/2 63/4/2
f 63/4/10 61/4/3 54/3/10
f 52/3/3 54/3/10 61/4/3
f 63/4/10 54/3/10 64/4/9
f 56/3/9 64/4/9 54/3/10
f 61/4/3 58/4/4 52/3/3
f 49/3/4 52/3/3 58/4/4
f 51/3/5 59/4/5 50/3/6
f 57/4/6 50/3/6 59/4/5
f 49/3/4 58/4/4 51/3/5
f 59/4/5 51/3/5 58/4/4
f 60/4/7 62/4/8 53/3/7
f 55/3/8 53/3/7 62/4/8
f 57/4/6 60/4/7 50/3/6
f 53/3/7 50/3/6 60/4/7
f 64/4/9 56/3/9 62/4/8
f 55/3/8 62/4/8 56/3/9
f 67/3/1 66/3/1 65/3/1
f 68/3/1 65/3/1 66/3/1
f 69/3/1 68/3/1 66/3/1
f 70/3/1 68/3/1 69/3/1
f 71/3/1 70/3/1 69/3/1
f 72/3/1 70/3/1 71/3/1
f 75/4/2 74/4/2 73/4/2
f 76/4/2 73/4/2 74/4/2
f 77/4/2 76/4/2 74/4/2
f 78/4/2 76/4/2 77/4/2
f 79/4/2 78/4/2 77/4/2
f 80/4/2 78/4/2 79/4/2
f 79/4/10 77/4/3 70/3/10
f 68/3/3 70/3/10 77/4/3
f 79/4/10 70/3/10 80/4/9
f 72/3/9 80/4/9 70/3/10
f 77/4/3 74/4/4 68/3/3
f 65/3/4 68/3/3 74/4/4
f 67/3/5 75/4/5 66/3/6
f 73/4/6 66/3/6 75/4/5
f 65/3/4 74/4/4 67/3/5
f 75/4/5 67/3/5 74/4/4
f 76/4/7 78/4/8 69/3/7
f 71/3/8 69/3/7 78/4/8
f 73/4/6 76/4/7 66/3/6
f 69/3/7 66/3/6 76/4/7
f 80/4/9 72/3/9 78/4/8
f 71/3/8 78/4/8 72/3/9
f 83/3/4 82/4/4 81/3/5
f 84/4/5 81/3/5 82/4/4
f 86/4/3 82/4/4 85/3/3
f 83/3/4 85/3/3 82/4/4
f 89/4/10 88/3/10 87/4/9
f 90/3/9 87/4/9 88/3/10
f 93/4/7 92/4/8 91/3/7
f 94/3/8 91/3/7 92/4/8
f 96/4/6 93/4/7 95/3/6
f 91/3/7 95/3/6 93/4/7
f 81/3/5 84/4/5 95/3/6
f 96/4/6 95/3/6 84/4/5
f 87/4/9 90/3/9 92/4/8
f 94/3/8 92/4/8 90/3/9
f 81/3/1 95/3/1 83/3/1
f 85/3/1 83/3/1 95/3/1
f 91/3/1 85/3/1 95/3/1
f 88/3/1 85/3/1 91/3/1
f 94/3/1 88/3/1 91/3/1
f 90/3/1 88/3/1 94/3/1
f 89/4/10 86/4/3 88/3/10
f 85/3/3 88/3/10 86/4/3
f 84/4/2 82/4/2 96/4/2
f 93/4/2 96/4/2 82/4/2
f 86/4/2 93/4/2 82/4/2
f 92/4/2 93/4/2 86/4/2
f 89/4/2 92/4/2 86/4/2
f 87/4/2 92/4/2 89/4/2
f 99/5/1 98/5/1 97/5/1
f 98/5/1 99/5/1 100/5/1
f 98/5/1 100/5/1 101/5/1
f 101/5/1 100/5/1 102/5/1
f 101/5/1 102/5/1 103/5/1
f 103/5/1 102/5/1 104/5/1
f 105/6/11 102/5/4 100/5/3
f 102/5/4 105/6/11 106/6/12
f 102/5/4 107/6/13 104/5/5
f 107/6/13 102/5/4 106/6/12
f 104/5/5 108/6/14 103/5/6
f 108/6/14 104/5/5 107/6/13
f 108/6/14 101/5/7 103/5/6
f 101/5/7 108/6/14 109/6/15
f 109/6/15 98/5/8 101/5/7
f 98/5/8 109/6/15 110/6/16
f 111/6/17 98/5/8 110/6/16
f 98/5/8 111/6/17 97/5/9
f 112/6/18 97/5/9 111/6/17
f 97/5/9 112/6/18 99/5/10
f 112/6/18 100/5/3 99/5/10
f 100/5/3 112/6/18 105/6/11
f 115/7/2 114/7/2 113/7/2
f 114/7/2 115/7/2 116/7/2
f 114/7/2 116/7/2 117/7/2
f 117/7/2 116/7/2 118/7/2
f 117/7/2 118/7/2 119/7/2
f 119/7/2 118/7/2 120/7/2
f 116/7/19 110/6/16 109/6/15
f 110/6/16 116/7/19 115/7/20
f 117/7/21 106/6/12 105/6/11
f 106/6/12 117/7/21 119/7/22
f 114/7/23 105/6/11 112/6/18
f 105/6/11 114/7/23 117/7/21
f 115/7/20 111/6/17 110/6/16
f 111/6/17 115/7/20 113/7/24
f 118/7/25 109/6/15 108/6/14
f 109/6/15 118/7/25 116/7/19
f 107/6/13 118/7/25 108/6/14
f 118/7/25 107/6/13 120/7/26
f 113/7/24 112/6/18 111/6/17
f 112/6/18 113/7/24 114/7/23
f 106/6/12 120/7/26 107/6/13
f 120/7/26 106/6/12 119/7/22
f 123/5/1 122/5/1 121/5/1
f 122/5/1 123/5/1 124/5/1
f 122/5/1 124/5/1 125/5/1
f 125/5/1 124/5/1 126/5/1
f 125/5/1 126/5/1 127/5/1
f 127/5/1 126/5/1 128/5/1
f 129/6/11 126/5/4 124/5/3
f 126/5/4 129/6/11 130/6/12
f 126/5/4 131/6/13 128/5/5
f 131/6/13 126/5/4 130/6/12
f 128/5/5 132/6/14 127/5/6
f 132/6/14 128/5/5 131/6/13
f 132/6/14 125/5/7 127/5/6
f 125/5/7 132/6/14 133/6/15
f 133/6/15 122/5/8 125/5/7
f 122/5/8 133/6/15 134/6/16
f 135/6/17 122/5/8 134/6/16
f 122/5/8 135/6/17 121/5/9
f 136/6/18 121/5/9 135/6/17
f 121/5/9 136/6/18 123/5/10
f 136/6/18 124/5/3 123/5/10
f 124/5/3 136/6/18 129/6/11
f 139/7/2 138/7/2 137/7/2
f 138/7/2 139/7/2 140/7/2
f 138/7/2 140/7/2 141/7/2
f 141/7/2 140/7/2 142/7/2
f 141/7/2 142/7/2 143/7/2
f 143/7/2 142/7/2 144/7/2
f 140/7/19 134/6/16 133/6/15
f 134/6/16 140/7/19 139/7/20
f 141/7/21 130/6/12 129/6/11
f 130/6/12 141/7/21 143/7/22
f 138/7/23 129/6/11 136/6/18
f 129/6/11 138/7/23 141/7/21
f 139/7/20 135/6/17 134/6/16
f 135/6/17 139/7/20 137/7/24
f 142/7/25 133/6/15 132/6/14
f 133/6/15 142/7/25 140/7/19
f 131/6/13 142/7/25 132/6/14
f 142/7/25 131/6/13 144/7/26
f 137/7/24 136/6/18 135/6/17
f 136/6/18 137/7/24 138/7/23
f 130/6/12 144/7/26 131/6/13
f 144/7/26 130/6/12 143/7/22
f 33/8/9 34/9/8 35/8/8
f 34/9/8 33/8/9 36/9/9
f 37/8/7 34/9/8 38/9/7
f 34/9/8 37/8/7 35/8/8
f 39/9/5 40/8/6 41/9/6
f 40/8/6 39/9/5 42/8/5
f 43/8/3 44/9/4 45/9/3
f 44/9/4 43/8/3 46/8/4
f 47/8/10 45/9/3 48/9/10
f 45/9/3 47/8/10 43/8/3
f 47/8/10 36/9/9 33/8/9
f 36/9/9 47/8/10 48/9/10
f 44/9/4 42/8/5 39/9/5
f 42/8/5 44/9/4 46/8/4
f 35/8/2 47/8/2 33/8/2
f 47/8/2 35/8/2 37/8/2
f 47/8/2 37/8/2 43/8/2
f 43/8/2 37/8/2 40/8/2
f 43/8/2 40/8/2 46/8/2
f 46/8/2 40/8/2 42/8/2
f 40/8/6 38/9/7 41/9/6
f 38/9/7 40/8/6 37/8/7
f 48/9/1 34/9/1 36/9/1
f 34/9/1 48/9/1 45/9/1
f 34/9/1 45/9/1 38/9/1
f 38/9/1 45/9/1 44/9/1
f 38/9/1 44/9/1 41/9/1
f 41/9/1 44/9/1 39/9/1
f 147/8/27 146/9/9 145/8/27
f 146/9/9 147/8/27 148/9/9
f 53/8/2 147/8/27 145/8/27
f 147/8/27 53/8/2 37/8/2
f 37/8/2 53/8/2 149/8/28
f 37/8/2 149/8/28 150/8/28
f 38/9/1 146/9/1 148/9/1
f 146/9/1 38/9/1 60/9/1
f 60/9/1 38/9/1 151/9/1
f 60/9/1 151/9/1 152/9/1
f 152/9/5 150/8/28 149/8/28
f 150/8/28 152/9/5 151/9/5
f 49/8/2 50/8/2 51/8/2
f 50/8/2 49/8/2 52/8/2
f 50/8/2 52/8/2 53/8/2
f 53/8/2 52/8/2 54/8/2
f 53/8/2 54/8/2 55/8/2
f 55/8/2 54/8/2 56/8/2
f 57/9/1 58/9/1 59/9/1
f 58/9/1 57/9/1 60/9/1
f 58/9/1 60/9/1 61/9/1
f 61/9/1 60/9/1 62/9/1
f 61/9/1 62/9/1 63/9/1
f 63/9/1 62/9/1 64/9/1
f 54/8/6 61/9/7 63/9/6
f 61/9/7 54/8/6 52/8/7
f 64/9/5 54/8/6 63/9/6
f 54/8/6 64/9/5 56/8/5
f 52/8/7 58/9/8 61/9/7
f 58/9/8 52/8/7 49/8/8
f 50/8/10 59/9/9 51/8/9
f 59/9/9 50/8/10 57/9/10
f 51/8/9 58/9/8 49/8/8
f 58/9/8 51/8/9 59/9/9
f 53/8/3 62/9/4 60/9/3
f 62/9/4 53/8/3 55/8/4
f 50/8/10 60/9/3 57/9/10
f 60/9/3 50/8/10 53/8/3
f 62/9/4 56/8/5 64/9/5
f 56/8/5 62/9/4 55/8/4
f 155/8/27 154/9/9 153/8/27
f 154/9/9 155/8/27 156/9/9
f 69/8/2 155/8/27 153/8/27
f 155/8/27 69/8/2 85/8/2
f 85/8/2 69/8/2 157/8/28
f 85/8/2 157/8/28 158/8/28
f 86/9/1 154/9/1 156/9/1
f 154/9/1 86/9/1 76/9/1
f 76/9/1 86/9/1 159/9/1
f 76/9/1 159/9/1 160/9/1
f 160/9/5 158/8/28 157/8/28
f 158/8/28 160/9/5 159/9/5
f 65/8/2 66/8/2 67/8/2
f 66/8/2 65/8/2 68/8/2
f 66/8/2 68/8/2 69/8/2
f 69/8/2 68/8/2 70/8/2
f 69/8/2 70/8/2 71/8/2
f 71/8/2 70/8/2 72/8/2
f 73/9/1 74/9/1 75/9/1
f 74/9/1 73/9/1 76/9/1
f 74/9/1 76/9/1 77/9/1
f 77/9/1 76/9/1 78/9/1
f 77/9/1 78/9/1 79/9/1
f 79/9/1 78/9/1 80/9/1
f 70/8/6 77/9/7 79/9/6
f 77/9/7 70/8/6 68/8/7
f 80/9/5 70/8/6 79/9/6
f 70/8/6 80/9/5 72/8/5
f 68/8/7 74/9/8 77/9/7
f 74/9/8 68/8/7 65/8/8
f 66/8/10 75/9/9 67/8/9
f 75/9/9 66/8/10 73/9/10
f 67/8/9 74/9/8 65/8/8
f 74/9/8 67/8/9 75/9/9
f 69/8/3 78/9/4 76/9/3
f 78/9/4 69/8/3 71/8/4
f 66/8/10 76/9/3 73/9/10
f 76/9/3 66/8/10 69/8/3
f 78/9/4 72/8/5 80/9/5
f 72/8/5 78/9/4 71/8/4
f 81/8/9 82/9/8 83/8/8
f 82/9/8 81/8/9 84/9/9
f 85/8/7 82/9/8 86/9/7
f 82/9/8 85/8/7 83/8/8
f 87/9/5 88/8/6 89/9/6
f 88/8/6 87/9/5 90/8/5
f 91/8/3 92/9/4 93/9/3
f 92/9/4 91/8/3 94/8/4
f 95/8/10 93/9/3 96/9/10
f 93/9/3 95/8/10 91/8/3
f 95/8/10 84/9/9 81/8/9
f 84/9/9 95/8/10 96/9/10
f 92/9/4 90/8/5 87/9/5
f 90/8/5 92/9/4 94/8/4
f 83/8/2 95/8/2 81/8/2
f 95/8/2 83/8/2 85/8/2
f 95/8/2 85/8/2 91/8/2
f 91/8/2 85/8/2 88/8/2
f 91/8/2 88/8/2 94/8/2
f 94/8/2 88/8/2 90/8/2
f 88/8/6 86/9/7 89/9/6
f 86/9/7 88/8/6 85/8/7
f 96/9/1 82/9/1 84/9/1
f 82/9/1 96/9/1 93/9/1
f 82/9/1 93/9/1 86/9/1
f 86/9/1 93/9/1 92/9/1
f 86/9/1 92/9/1 89/9/1
f 89/9/1 92/9/1 87/9/1

