# Created by Kenney (www.kenney.nl)

mtllib structure-window-wide.mtl

g structure-window-wide

v 1 3 0.5 1 1 1
v 1 3 1.5 1 1 1
v -1 3 0.5 1 1 1
v -1 3 1.5 1 1 1
v -1 2.279161E-16 0.5 1 1 1
v 1 2.279161E-16 0.5 1 1 1
v -1 0.6 0.5 1 1 1
v 1 0.6 0.5 1 1 1
v -1 0.9 0.6 1 1 1
v 1 0.9 0.6 1 1 1
v -1 1.5 0.6 1 1 1
v 1 1.5 0.6 1 1 1
v -1 1.6 0.6 1 1 1
v 1 1.6 0.6 1 1 1
v -1 2.7 0.6 1 1 1
v 1 2.7 0.6 1 1 1
v -1 2.8 0.6 1 1 1
v 1 2.8 0.6 1 1 1
v 1 2.8 0.5 1 1 1
v -1 2.8 0.5 1 1 1
v -0.7531623 2.419269 0.55 1 1 1
v -0.7531623 2.419269 0.6 1 1 1
v -0.744689 2.444689 0.55 1 1 1
v -0.744689 2.444689 0.6 1 1 1
v -0.7531623 2.419269 0.7 1 1 1
v -0.744689 2.444689 0.7 1 1 1
v -0.7531623 1.880731 0.55 1 1 1
v -0.7531623 1.880731 0.6 1 1 1
v -0.7531623 1.880731 0.7 1 1 1
v -0.719269 2.453162 0.7 1 1 1
v -0.719269 2.453162 0.6 1 1 1
v -0.719269 2.453162 0.55 1 1 1
v 0.7320747 1.767925 0.6 1 1 1
v -0.7320746 1.767925 0.6 1 1 1
v 0.8070747 1.792925 0.6 1 1 1
v -0.8070746 1.792925 0.6 1 1 1
v 0.719269 1.846838 0.6 1 1 1
v 0.8320747 1.867925 0.6 1 1 1
v -0.719269 1.846838 0.6 1 1 1
v 0.7446891 1.855311 0.6 1 1 1
v 0.7531625 1.880731 0.6 1 1 1
v -0.8320747 1.867925 0.6 1 1 1
v -0.744689 1.855311 0.6 1 1 1
v 0.8320747 2.432075 0.6 1 1 1
v 0.7531625 2.419269 0.6 1 1 1
v 0.7446891 2.444689 0.6 1 1 1
v -0.8320747 2.432075 0.6 1 1 1
v 0.8070747 2.507075 0.6 1 1 1
v -0.8070746 2.507075 0.6 1 1 1
v 0.719269 2.453162 0.6 1 1 1
v 0.7320747 2.532075 0.6 1 1 1
v -0.7320746 2.532075 0.6 1 1 1
v -0.719269 1.846838 0.7 1 1 1
v 0.719269 1.846838 0.7 1 1 1
v -0.744689 1.855311 0.7 1 1 1
v 0.7446891 1.855311 0.7 1 1 1
v 0.7531625 1.880731 0.7 1 1 1
v -0.6895458 1.910454 0.7 1 1 1
v 0.6895459 1.910454 0.7 1 1 1
v -0.6895458 2.389546 0.7 1 1 1
v 0.7531625 2.419269 0.7 1 1 1
v 0.6895459 2.389546 0.7 1 1 1
v 0.7446891 2.444689 0.7 1 1 1
v 0.719269 2.453162 0.7 1 1 1
v 0.7446891 2.444689 0.55 1 1 1
v 0.719269 2.453162 0.55 1 1 1
v 0.7446891 1.855311 0.55 1 1 1
v 0.719269 1.846838 0.55 1 1 1
v -0.719269 1.846838 0.55 1 1 1
v -0.744689 1.855311 0.55 1 1 1
v 0.7531625 1.880731 0.55 1 1 1
v 0.7531625 2.419269 0.55 1 1 1
v -0.7320746 1.767925 0.55 1 1 1
v 0.7320747 1.767925 0.55 1 1 1
v -0.8070746 1.792925 0.55 1 1 1
v 0.8070747 1.792925 0.55 1 1 1
v -0.8320747 1.867925 0.55 1 1 1
v 0.8320747 1.867925 0.55 1 1 1
v -0.8320747 2.432075 0.55 1 1 1
v 0.8320747 2.432075 0.55 1 1 1
v -0.8070746 2.507075 0.55 1 1 1
v 0.8070747 2.507075 0.55 1 1 1
v -0.7320746 2.532075 0.55 1 1 1
v 0.7320747 2.532075 0.55 1 1 1
v 0.65 1.1 0.5525658 1 1 1
v 0.7 1.05 0.5525658 1 1 1
v 0.65 1.1 0.6 1 1 1
v 0.7 1.05 0.6 1 1 1
v 0.7 0.6 0.5 1 1 1
v 0.7 2.279161E-16 0.4472954 1 1 1
v 0.7 2.279161E-16 0.5 1 1 1
v 0.7 0.6 0.4472954 1 1 1
v 0.7 0.9158114 0.5525658 1 1 1
v 0.7 0.9 0.6 1 1 1
v 0.45 1.1 0.6 1 1 1
v 0.45 1.1 0.5525658 1 1 1
v 0.4 1.05 0.5525658 1 1 1
v 0.4 1.05 0.6 1 1 1
v 0.4 4.511946E-17 0.4472954 1 1 1
v 0.4 0.6 0.4472954 1 1 1
v 0.4 4.511946E-17 0.5 1 1 1
v 0.4 0.6 0.5 1 1 1
v 0.4 0.9158114 0.5525658 1 1 1
v 0.4 0.9 0.6 1 1 1
v -0.45 1.1 0.5525658 1 1 1
v -0.4 1.05 0.5525658 1 1 1
v -0.45 1.1 0.6 1 1 1
v -0.4 1.05 0.6 1 1 1
v -0.4 0.6 0.5 1 1 1
v -0.4 3.145584E-16 0.4472954 1 1 1
v -0.4 3.145584E-16 0.5 1 1 1
v -0.4 0.6 0.4472954 1 1 1
v -0.4 0.9158114 0.5525658 1 1 1
v -0.4 0.9 0.6 1 1 1
v -0.65 1.1 0.6 1 1 1
v -0.65 1.1 0.5525658 1 1 1
v -0.7 1.05 0.5525658 1 1 1
v -0.7 1.05 0.6 1 1 1
v -0.7 1.317618E-16 0.4472954 1 1 1
v -0.7 0.6 0.4472954 1 1 1
v -0.7 1.317618E-16 0.5 1 1 1
v -0.7 0.6 0.5 1 1 1
v -0.7 0.9158114 0.5525658 1 1 1
v -0.7 0.9 0.6 1 1 1
v -1 1.2 0.6 1 1 1
v 1 1.2 0.6 1 1 1
v 0.8070747 2.507075 0.6 1 1 1
v 1 2.7 0.6 1 1 1
v 0.7320746 2.532075 0.6 1 1 1
v -1 2.7 0.6 1 1 1
v -0.7320746 2.532075 0.6 1 1 1
v 0.8070747 1.792925 0.6 1 1 1
v 0.7320746 1.767925 0.6 1 1 1
v -0.7320746 1.767925 0.6 1 1 1
v -0.8070747 2.507075 0.6 1 1 1
v -0.8070747 1.792925 0.6 1 1 1
v 0.512512 0.9626713 0.5170833 1 1 1
v 0.523492 0.9891794 0.5170833 1 1 1
v 0.50314 0.9626714 0.5525658 1 1 1
v 0.516865 0.9958064 0.5525658 1 1 1
v 0.516865 0.9295363 0.5525658 1 1 1
v 0.55 0.9158114 0.5525658 1 1 1
v 0.523492 0.9361634 0.5170833 1 1 1
v 0.55 0.9251834 0.5170833 1 1 1
v 0.583135 0.9295363 0.5525658 1 1 1
v 0.59686 0.9626714 0.5525658 1 1 1
v 0.576508 0.9361634 0.5170833 1 1 1
v 0.587488 0.9626713 0.5170833 1 1 1
v 0.576508 0.9891794 0.5170833 1 1 1
v 0.583135 0.9958064 0.5525658 1 1 1
v 0.55 1.009531 0.5525658 1 1 1
v 0.55 1.000159 0.5170833 1 1 1
v -0.587488 0.9626713 0.5170833 1 1 1
v -0.576508 0.9891794 0.5170833 1 1 1
v -0.59686 0.9626714 0.5525658 1 1 1
v -0.583135 0.9958064 0.5525658 1 1 1
v -0.583135 0.9295363 0.5525658 1 1 1
v -0.55 0.9158114 0.5525658 1 1 1
v -0.576508 0.9361634 0.5170833 1 1 1
v -0.55 0.9251834 0.5170833 1 1 1
v -0.516865 0.9295363 0.5525658 1 1 1
v -0.50314 0.9626714 0.5525658 1 1 1
v -0.523492 0.9361634 0.5170833 1 1 1
v -0.512512 0.9626713 0.5170833 1 1 1
v -0.523492 0.9891794 0.5170833 1 1 1
v -0.516865 0.9958064 0.5525658 1 1 1
v -0.55 1.009531 0.5525658 1 1 1
v -0.55 1.000159 0.5170833 1 1 1
v 1 4.743824E-17 -0.5 1 1 1
v -1 4.743824E-17 -0.5 1 1 1
v -1 1.2 0.7 1 1 1
v 1 1.2 0.7 1 1 1
v -1 1.5 0.7 1 1 1
v 1 1.5 0.7 1 1 1
v 0.6895458 2.389546 0.7 1 1 1
v -0.6895458 2.389546 0.7 1 1 1
v 0.6895458 1.910454 0.7 1 1 1
v -0.6895458 1.910454 0.7 1 1 1

vn 0 1 0
vn 0 0 -1
vn 0 0.1601822 -0.9870875
vn 0 0.3162278 -0.9486833
vn 0 -1 0
vn 0 -0.7071068 -0.7071068
vn 0.9870875 -0.1601822 0
vn 0.7071068 -0.7071068 0
vn 0.9870875 0.1601822 0
vn 0.1601822 -0.9870875 0
vn 0 0 1
vn -0.7071068 -0.7071068 0
vn -0.1601822 -0.9870875 0
vn -0.7071068 0.7071068 0
vn -0.1601822 0.9870875 0
vn 0.1601822 0.9870875 0
vn 0.7071068 0.7071068 0
vn -0.9870875 0.1601822 0
vn -0.9870875 -0.1601822 0
vn 0.3826834 0.9238795 0
vn 0.9238795 0.3826834 0
vn 1 0 0
vn -0.3826834 0.9238795 0
vn -0.9238795 0.3826834 0
vn -1 0 0
vn -0.7465897 -7.930812E-08 -0.6652848
vn -0.5279186 0.5279185 -0.6652849
vn -0.9668428 -3.044276E-08 -0.2553724
vn -0.6836611 0.683661 -0.2553724
vn -0.6836612 -0.683661 -0.2553723
vn 0 -0.9668428 -0.2553723
vn -0.5279186 -0.5279186 -0.6652848
vn 0 -0.7465897 -0.6652848
vn 0.6836612 -0.683661 -0.2553723
vn 0.9668428 -3.044276E-08 -0.2553724
vn 0.5279186 -0.5279186 -0.6652848
vn 0.7465897 -7.930812E-08 -0.6652848
vn 0.5279186 0.5279185 -0.6652849
vn 0.6836611 0.683661 -0.2553724
vn 0 0.9668427 -0.2553725
vn 0 0.7465895 -0.665285
vn 0 0.7071068 -0.7071068
vn -3.574105E-15 -1.192093E-07 -1

vt 0.09375 0.225
vt 0.09375 0.025
vt 0.09375 0.065
vt 0.09375 0.085
vt 0.09375 0.125
vt 0.09375 0.1316667
vt 0.09375 0.205
vt 0.09375 0.2116666
vt 0.09375 0.1954755
vt 0.09375 0.2021286
vt 0.09375 0.05452451
vt 0.09375 0.2043464
vt 0.09375 0.03154323
vt 0.09375 0.04565362
vt 0.09375 0.05117289
vt 0.09375 0.04787134
vt 0.09375 0.1988271
vt 0.09375 0.2184568
vt 0.09375 0.06230392
vt 0.09375 0.1876961
vt 0.09375 0.2159091
vt 0.09375 0.1340909
vt 0.09375 0.1915112
vt 0.09375 0.1886363
vt 0.34375 0.085
vt 0.34375 0.105
vt 0.34375 0.1899227
vt 0.34375 0.1762863
vt 0.34375 0.225
vt 0.34375 0.1944681
vt 0.34375 0.0737137
vt 0.34375 0.025
vt 0.34375 0.06007733
vt 0.34375 0.05553188
vt 0.28125 0.125
vt 0.84375 0.105
vt 0.84375 0.125
vt 0.53125 0.375

usemtl colormap

f 3/1/1 2/1/1 1/1/1
f 2/1/1 3/1/1 4/1/1
f 7/3/3 6/2/2 5/2/2
f 6/2/2 7/3/3 8/3/3
f 9/4/4 8/3/3 7/3/3
f 8/3/3 9/4/4 10/4/4
f 13/6/2 12/5/2 11/5/2
f 12/5/2 13/6/2 14/6/2
f 17/8/2 16/7/2 15/7/2
f 16/7/2 17/8/2 18/8/2
f 17/8/5 19/8/6 18/8/5
f 19/8/6 17/8/5 20/8/6
f 3/1/2 19/8/6 20/8/6
f 19/8/6 3/1/2 1/1/2
f 23/10/8 22/9/7 21/9/7
f 22/9/7 23/10/8 24/10/8
f 22/9/7 24/10/8 25/9/7
f 25/9/7 24/10/8 26/10/8
f 21/9/7 28/11/9 27/11/9
f 28/11/9 21/9/7 22/9/7
f 28/11/9 22/9/7 29/11/9
f 29/11/9 22/9/7 25/9/7
f 26/10/8 31/12/10 30/12/10
f 31/12/10 26/10/8 32/12/10
f 32/12/10 26/10/8 24/10/8
f 32/12/10 24/10/8 23/10/8
f 35/13/11 34/2/11 33/2/11
f 34/2/11 35/13/11 36/13/11
f 36/13/11 35/13/11 37/14/11
f 37/14/11 35/13/11 38/15/11
f 39/14/11 36/13/11 37/14/11
f 37/14/11 38/15/11 40/16/11
f 40/16/11 38/15/11 41/11/11
f 36/13/11 39/14/11 42/15/11
f 42/15/11 39/14/11 43/16/11
f 42/15/11 43/16/11 28/11/11
f 41/11/11 38/15/11 44/17/11
f 41/11/11 44/17/11 45/9/11
f 45/9/11 44/17/11 46/10/11
f 42/15/11 28/11/11 47/17/11
f 47/17/11 28/11/11 22/9/11
f 47/17/11 22/9/11 24/10/11
f 46/10/11 44/17/11 48/18/11
f 47/17/11 24/10/11 49/18/11
f 46/10/11 48/18/11 50/12/11
f 50/12/11 48/18/11 31/12/11
f 49/18/11 24/10/11 31/12/11
f 49/18/11 31/12/11 48/18/11
f 49/18/11 48/18/11 51/1/11
f 49/18/11 51/1/11 52/1/11
f 55/16/2 54/14/2 53/14/2
f 54/14/2 55/16/2 56/16/2
f 56/16/2 55/16/2 29/11/2
f 56/16/2 29/11/2 57/11/2
f 57/11/2 29/11/2 58/19/2
f 58/19/2 29/11/2 25/9/2
f 59/19/2 57/11/2 58/19/2
f 58/19/2 25/9/2 60/20/2
f 57/11/2 59/19/2 61/9/2
f 60/20/2 25/9/2 62/20/2
f 61/9/2 59/19/2 62/20/2
f 61/9/2 62/20/2 25/9/2
f 61/9/2 25/9/2 26/10/2
f 61/9/2 26/10/2 63/10/2
f 63/10/2 26/10/2 30/12/2
f 63/10/2 30/12/2 64/12/2
f 64/12/13 46/10/12 63/10/12
f 46/10/12 64/12/13 65/10/12
f 65/10/12 64/12/13 50/12/13
f 65/10/12 50/12/13 66/12/13
f 68/14/15 37/14/15 67/16/14
f 54/14/15 67/16/14 37/14/15
f 56/16/14 67/16/14 54/14/15
f 67/16/14 56/16/14 40/16/14
f 70/16/17 43/16/17 69/14/16
f 55/16/17 69/14/16 43/16/17
f 53/14/16 69/14/16 55/16/17
f 69/14/16 53/14/16 39/14/16
f 40/16/14 71/11/18 67/16/14
f 71/11/18 40/16/14 41/11/18
f 41/11/18 40/16/14 56/16/14
f 41/11/18 56/16/14 57/11/18
f 28/11/9 70/16/17 27/11/9
f 70/16/17 28/11/9 43/16/17
f 43/16/17 28/11/9 29/11/9
f 43/16/17 29/11/9 55/16/17
f 30/12/10 50/12/13 64/12/13
f 50/12/13 30/12/10 66/12/13
f 66/12/13 30/12/10 31/12/10
f 66/12/13 31/12/10 32/12/10
f 41/11/18 72/9/19 71/11/18
f 72/9/19 41/11/18 45/9/19
f 45/9/19 41/11/18 57/11/18
f 45/9/19 57/11/18 61/9/19
f 45/9/19 65/10/12 72/9/19
f 65/10/12 45/9/19 46/10/12
f 46/10/12 45/9/19 61/9/19
f 46/10/12 61/9/19 63/10/12
f 69/14/16 39/14/16 68/14/15
f 53/14/16 68/14/15 39/14/16
f 54/14/15 68/14/15 53/14/16
f 68/14/15 54/14/15 37/14/15
f 75/13/2 74/2/2 73/2/2
f 74/2/2 75/13/2 76/13/2
f 76/13/2 75/13/2 69/14/2
f 69/14/2 75/13/2 77/15/2
f 68/14/2 76/13/2 69/14/2
f 69/14/2 77/15/2 70/16/2
f 70/16/2 77/15/2 27/11/2
f 76/13/2 68/14/2 78/15/2
f 78/15/2 68/14/2 67/16/2
f 78/15/2 67/16/2 71/11/2
f 27/11/2 77/15/2 79/17/2
f 27/11/2 79/17/2 21/9/2
f 21/9/2 79/17/2 23/10/2
f 78/15/2 71/11/2 80/17/2
f 80/17/2 71/11/2 72/9/2
f 80/17/2 72/9/2 65/10/2
f 23/10/2 79/17/2 81/18/2
f 80/17/2 65/10/2 82/18/2
f 23/10/2 81/18/2 32/12/2
f 32/12/2 81/18/2 66/12/2
f 82/18/2 65/10/2 66/12/2
f 82/18/2 66/12/2 81/18/2
f 82/18/2 81/18/2 83/1/2
f 82/18/2 83/1/2 84/1/2
f 84/1/16 52/1/15 51/1/16
f 52/1/15 84/1/16 83/1/15
f 82/18/17 51/1/16 48/18/17
f 51/1/16 82/18/17 84/1/16
f 48/18/17 80/17/9 82/18/17
f 80/17/9 48/18/17 44/17/9
f 80/17/9 38/15/7 78/15/7
f 38/15/7 80/17/9 44/17/9
f 38/15/7 76/13/8 78/15/7
f 76/13/8 38/15/7 35/13/8
f 33/2/10 76/13/8 35/13/8
f 76/13/8 33/2/10 74/2/10
f 34/2/13 74/2/10 33/2/10
f 74/2/10 34/2/13 73/2/13
f 36/13/12 73/2/13 34/2/13
f 73/2/13 36/13/12 75/13/12
f 36/13/12 77/15/19 75/13/12
f 77/15/19 36/13/12 42/15/19
f 42/15/19 79/17/18 77/15/19
f 79/17/18 42/15/19 47/17/18
f 47/17/18 81/18/14 79/17/18
f 81/18/14 47/17/18 49/18/14
f 83/1/15 49/18/14 52/1/15
f 49/18/14 83/1/15 81/18/14
f 87/1/20 86/21/21 85/1/20
f 86/21/21 87/1/20 88/21/21
f 91/2/22 90/2/22 89/22/22
f 92/22/22 89/22/22 90/2/22
f 89/22/22 92/22/22 93/23/22
f 89/22/22 93/23/22 94/24/22
f 94/24/22 93/23/22 88/21/21
f 88/21/21 93/23/22 86/21/21
f 85/1/20 95/1/23 87/1/20
f 95/1/23 85/1/20 96/1/23
f 98/21/24 96/1/23 97/21/24
f 96/1/23 98/21/24 95/1/23
f 100/22/3 90/2/2 99/2/2
f 90/2/2 100/22/3 92/22/3
f 101/2/25 100/22/25 99/2/25
f 100/22/25 101/2/25 102/22/25
f 100/22/25 102/22/25 103/23/25
f 103/23/25 102/22/25 104/24/25
f 103/23/25 104/24/25 97/21/24
f 97/21/24 104/24/25 98/21/24
f 100/22/3 93/23/3 92/22/3
f 93/23/3 100/22/3 103/23/3
f 97/21/2 93/23/3 103/23/3
f 93/23/3 97/21/2 86/21/2
f 86/21/2 97/21/2 96/1/2
f 86/21/2 96/1/2 85/1/2
f 107/1/20 106/21/21 105/1/20
f 106/21/21 107/1/20 108/21/21
f 111/2/22 110/2/22 109/22/22
f 112/22/22 109/22/22 110/2/22
f 109/22/22 112/22/22 113/23/22
f 109/22/22 113/23/22 114/24/22
f 114/24/22 113/23/22 108/21/21
f 108/21/21 113/23/22 106/21/21
f 105/1/20 115/1/23 107/1/20
f 115/1/23 105/1/20 116/1/23
f 118/21/24 116/1/23 117/21/24
f 116/1/23 118/21/24 115/1/23
f 120/22/3 110/2/2 119/2/2
f 110/2/2 120/22/3 112/22/3
f 121/2/25 120/22/25 119/2/25
f 120/22/25 121/2/25 122/22/25
f 120/22/25 122/22/25 123/23/25
f 123/23/25 122/22/25 124/24/25
f 123/23/25 124/24/25 117/21/24
f 117/21/24 124/24/25 118/21/24
f 120/22/3 113/23/3 112/22/3
f 113/23/3 120/22/3 123/23/3
f 117/21/2 113/23/3 123/23/3
f 113/23/3 117/21/2 106/21/2
f 106/21/2 117/21/2 116/1/2
f 106/21/2 116/1/2 105/1/2
f 125/26/2 10/25/2 9/25/2
f 10/25/2 125/26/2 126/26/2
f 128/29/2 44/28/2 127/27/2
f 128/29/2 127/27/2 129/30/2
f 128/29/2 38/31/2 44/28/2
f 128/29/2 129/30/2 130/29/2
f 14/32/2 38/31/2 128/29/2
f 131/30/2 130/29/2 129/30/2
f 38/31/2 14/32/2 132/33/2
f 132/33/2 14/32/2 133/34/2
f 133/34/2 14/32/2 134/34/2
f 135/27/2 130/29/2 131/30/2
f 47/28/2 130/29/2 135/27/2
f 42/31/2 130/29/2 47/28/2
f 13/32/2 134/34/2 14/32/2
f 42/31/2 13/32/2 130/29/2
f 134/34/2 13/32/2 136/33/2
f 136/33/2 13/32/2 42/31/2
f 139/32/28 138/29/27 137/29/26
f 138/29/27 139/32/28 140/32/29
f 143/29/32 142/32/31 141/32/30
f 142/32/31 143/29/32 144/29/33
f 147/29/36 146/32/35 145/32/34
f 146/32/35 147/29/36 148/29/37
f 149/29/38 146/32/35 148/29/37
f 146/32/35 149/29/38 150/32/39
f 139/32/28 143/29/32 141/32/30
f 143/29/32 139/32/28 137/29/26
f 152/29/41 140/32/29 151/32/40
f 140/32/29 152/29/41 138/29/27
f 150/32/39 152/29/41 151/32/40
f 152/29/41 150/32/39 149/29/38
f 142/32/31 147/29/36 145/32/34
f 147/29/36 142/32/31 144/29/33
f 147/29/36 149/29/38 148/29/37
f 149/29/38 147/29/36 144/29/33
f 149/29/38 144/29/33 152/29/41
f 152/29/41 144/29/33 143/29/32
f 152/29/41 143/29/32 138/29/27
f 138/29/27 143/29/32 137/29/26
f 155/32/28 154/29/27 153/29/26
f 154/29/27 155/32/28 156/32/29
f 159/29/32 158/32/31 157/32/30
f 158/32/31 159/29/32 160/29/33
f 163/29/36 162/32/35 161/32/34
f 162/32/35 163/29/36 164/29/37
f 165/29/38 162/32/35 164/29/37
f 162/32/35 165/29/38 166/32/39
f 155/32/28 159/29/32 157/32/30
f 159/29/32 155/32/28 153/29/26
f 168/29/41 156/32/29 167/32/40
f 156/32/29 168/29/41 154/29/27
f 166/32/39 168/29/41 167/32/40
f 168/29/41 166/32/39 165/29/38
f 158/32/31 163/29/36 161/32/34
f 163/29/36 158/32/31 160/29/33
f 163/29/36 165/29/38 164/29/37
f 165/29/38 163/29/36 160/29/33
f 165/29/38 160/29/33 168/29/41
f 168/29/41 160/29/33 159/29/32
f 168/29/41 159/29/32 154/29/27
f 154/29/27 159/29/32 153/29/26
f 170/35/1 6/35/1 169/35/1
f 6/35/1 170/35/1 5/35/1
f 173/37/6 172/36/42 171/36/42
f 172/36/42 173/37/6 174/37/6
f 125/36/1 172/36/42 126/36/1
f 172/36/42 125/36/1 171/36/42
f 173/37/6 12/37/5 174/37/6
f 12/37/5 173/37/6 11/37/5
f 177/38/43 176/38/43 175/38/43
f 176/38/43 177/38/43 178/38/43

g structure-window-wide




usemtl colormap

f 3/1/1 2/1/1 1/1/1
f 2/1/1 3/1/1 4/1/1
f 7/3/3 6/2/2 5/2/2
f 6/2/2 7/3/3 8/3/3
f 9/4/4 8/3/3 7/3/3
f 8/3/3 9/4/4 10/4/4
f 13/6/2 12/5/2 11/5/2
f 12/5/2 13/6/2 14/6/2
f 17/8/2 16/7/2 15/7/2
f 16/7/2 17/8/2 18/8/2
f 17/8/5 19/8/6 18/8/5
f 19/8/6 17/8/5 20/8/6
f 3/1/2 19/8/6 20/8/6
f 19/8/6 3/1/2 1/1/2
f 23/10/8 22/9/7 21/9/7
f 22/9/7 23/10/8 24/10/8
f 22/9/7 24/10/8 25/9/7
f 25/9/7 24/10/8 26/10/8
f 21/9/7 28/11/9 27/11/9
f 28/11/9 21/9/7 22/9/7
f 28/11/9 22/9/7 29/11/9
f 29/11/9 22/9/7 25/9/7
f 26/10/8 31/12/10 30/12/10
f 31/12/10 26/10/8 32/12/10
f 32/12/10 26/10/8 24/10/8
f 32/12/10 24/10/8 23/10/8
f 35/13/11 34/2/11 33/2/11
f 34/2/11 35/13/11 36/13/11
f 36/13/11 35/13/11 37/14/11
f 37/14/11 35/13/11 38/15/11
f 39/14/11 36/13/11 37/14/11
f 37/14/11 38/15/11 40/16/11
f 40/16/11 38/15/11 41/11/11
f 36/13/11 39/14/11 42/15/11
f 42/15/11 39/14/11 43/16/11
f 42/15/11 43/16/11 28/11/11
f 41/11/11 38/15/11 44/17/11
f 41/11/11 44/17/11 45/9/11
f 45/9/11 44/17/11 46/10/11
f 42/15/11 28/11/11 47/17/11
f 47/17/11 28/11/11 22/9/11
f 47/17/11 22/9/11 24/10/11
f 46/10/11 44/17/11 48/18/11
f 47/17/11 24/10/11 49/18/11
f 46/10/11 48/18/11 50/12/11
f 50/12/11 48/18/11 31/12/11
f 49/18/11 24/10/11 31/12/11
f 49/18/11 31/12/11 48/18/11
f 49/18/11 48/18/11 51/1/11
f 49/18/11 51/1/11 52/1/11
f 55/16/2 54/14/2 53/14/2
f 54/14/2 55/16/2 56/16/2
f 56/16/2 55/16/2 29/11/2
f 56/16/2 29/11/2 57/11/2
f 57/11/2 29/11/2 58/19/2
f 58/19/2 29/11/2 25/9/2
f 59/19/2 57/11/2 58/19/2
f 58/19/2 25/9/2 60/20/2
f 57/11/2 59/19/2 61/9/2
f 60/20/2 25/9/2 62/20/2
f 61/9/2 59/19/2 62/20/2
f 61/9/2 62/20/2 25/9/2
f 61/9/2 25/9/2 26/10/2
f 61/9/2 26/10/2 63/10/2
f 63/10/2 26/10/2 30/12/2
f 63/10/2 30/12/2 64/12/2
f 64/12/13 46/10/12 63/10/12
f 46/10/12 64/12/13 65/10/12
f 65/10/12 64/12/13 50/12/13
f 65/10/12 50/12/13 66/12/13
f 68/14/15 37/14/15 67/16/14
f 54/14/15 67/16/14 37/14/15
f 56/16/14 67/16/14 54/14/15
f 67/16/14 56/16/14 40/16/14
f 70/16/17 43/16/17 69/14/16
f 55/16/17 69/14/16 43/16/17
f 53/14/16 69/14/16 55/16/17
f 69/14/16 53/14/16 39/14/16
f 40/16/14 71/11/18 67/16/14
f 71/11/18 40/16/14 41/11/18
f 41/11/18 40/16/14 56/16/14
f 41/11/18 56/16/14 57/11/18
f 28/11/9 70/16/17 27/11/9
f 70/16/17 28/11/9 43/16/17
f 43/16/17 28/11/9 29/11/9
f 43/16/17 29/11/9 55/16/17
f 30/12/10 50/12/13 64/12/13
f 50/12/13 30/12/10 66/12/13
f 66/12/13 30/12/10 31/12/10
f 66/12/13 31/12/10 32/12/10
f 41/11/18 72/9/19 71/11/18
f 72/9/19 41/11/18 45/9/19
f 45/9/19 41/11/18 57/11/18
f 45/9/19 57/11/18 61/9/19
f 45/9/19 65/10/12 72/9/19
f 65/10/12 45/9/19 46/10/12
f 46/10/12 45/9/19 61/9/19
f 46/10/12 61/9/19 63/10/12
f 69/14/16 39/14/16 68/14/15
f 53/14/16 68/14/15 39/14/16
f 54/14/15 68/14/15 53/14/16
f 68/14/15 54/14/15 37/14/15
f 75/13/2 74/2/2 73/2/2
f 74/2/2 75/13/2 76/13/2
f 76/13/2 75/13/2 69/14/2
f 69/14/2 75/13/2 77/15/2
f 68/14/2 76/13/2 69/14/2
f 69/14/2 77/15/2 70/16/2
f 70/16/2 77/15/2 27/11/2
f 76/13/2 68/14/2 78/15/2
f 78/15/2 68/14/2 67/16/2
f 78/15/2 67/16/2 71/11/2
f 27/11/2 77/15/2 79/17/2
f 27/11/2 79/17/2 21/9/2
f 21/9/2 79/17/2 23/10/2
f 78/15/2 71/11/2 80/17/2
f 80/17/2 71/11/2 72/9/2
f 80/17/2 72/9/2 65/10/2
f 23/10/2 79/17/2 81/18/2
f 80/17/2 65/10/2 82/18/2
f 23/10/2 81/18/2 32/12/2
f 32/12/2 81/18/2 66/12/2
f 82/18/2 65/10/2 66/12/2
f 82/18/2 66/12/2 81/18/2
f 82/18/2 81/18/2 83/1/2
f 82/18/2 83/1/2 84/1/2
f 84/1/16 52/1/15 51/1/16
f 52/1/15 84/1/16 83/1/15
f 82/18/17 51/1/16 48/18/17
f 51/1/16 82/18/17 84/1/16
f 48/18/17 80/17/9 82/18/17
f 80/17/9 48/18/17 44/17/9
f 80/17/9 38/15/7 78/15/7
f 38/15/7 80/17/9 44/17/9
f 38/15/7 76/13/8 78/15/7
f 76/13/8 38/15/7 35/13/8
f 33/2/10 76/13/8 35/13/8
f 76/13/8 33/2/10 74/2/10
f 34/2/13 74/2/10 33/2/10
f 74/2/10 34/2/13 73/2/13
f 36/13/12 73/2/13 34/2/13
f 73/2/13 36/13/12 75/13/12
f 36/13/12 77/15/19 75/13/12
f 77/15/19 36/13/12 42/15/19
f 42/15/19 79/17/18 77/15/19
f 79/17/18 42/15/19 47/17/18
f 47/17/18 81/18/14 79/17/18
f 81/18/14 47/17/18 49/18/14
f 83/1/15 49/18/14 52/1/15
f 49/18/14 83/1/15 81/18/14
f 87/1/20 86/21/21 85/1/20
f 86/21/21 87/1/20 88/21/21
f 91/2/22 90/2/22 89/22/22
f 92/22/22 89/22/22 90/2/22
f 89/22/22 92/22/22 93/23/22
f 89/22/22 93/23/22 94/24/22
f 94/24/22 93/23/22 88/21/21
f 88/21/21 93/23/22 86/21/21
f 85/1/20 95/1/23 87/1/20
f 95/1/23 85/1/20 96/1/23
f 98/21/24 96/1/23 97/21/24
f 96/1/23 98/21/24 95/1/23
f 100/22/3 90/2/2 99/2/2
f 90/2/2 100/22/3 92/22/3
f 101/2/25 100/22/25 99/2/25
f 100/22/25 101/2/25 102/22/25
f 100/22/25 102/22/25 103/23/25
f 103/23/25 102/22/25 104/24/25
f 103/23/25 104/24/25 97/21/24
f 97/21/24 104/24/25 98/21/24
f 100/22/3 93/23/3 92/22/3
f 93/23/3 100/22/3 103/23/3
f 97/21/2 93/23/3 103/23/3
f 93/23/3 97/21/2 86/21/2
f 86/21/2 97/21/2 96/1/2
f 86/21/2 96/1/2 85/1/2
f 107/1/20 106/21/21 105/1/20
f 106/21/21 107/1/20 108/21/21
f 111/2/22 110/2/22 109/22/22
f 112/22/22 109/22/22 110/2/22
f 109/22/22 112/22/22 113/23/22
f 109/22/22 113/23/22 114/24/22
f 114/24/22 113/23/22 108/21/21
f 108/21/21 113/23/22 106/21/21
f 105/1/20 115/1/23 107/1/20
f 115/1/23 105/1/20 116/1/23
f 118/21/24 116/1/23 117/21/24
f 116/1/23 118/21/24 115/1/23
f 120/22/3 110/2/2 119/2/2
f 110/2/2 120/22/3 112/22/3
f 121/2/25 120/22/25 119/2/25
f 120/22/25 121/2/25 122/22/25
f 120/22/25 122/22/25 123/23/25
f 123/23/25 122/22/25 124/24/25
f 123/23/25 124/24/25 117/21/24
f 117/21/24 124/24/25 118/21/24
f 120/22/3 113/23/3 112/22/3
f 113/23/3 120/22/3 123/23/3
f 117/21/2 113/23/3 123/23/3
f 113/23/3 117/21/2 106/21/2
f 106/21/2 117/21/2 116/1/2
f 106/21/2 116/1/2 105/1/2
f 125/26/2 10/25/2 9/25/2
f 10/25/2 125/26/2 126/26/2
f 128/29/2 44/28/2 127/27/2
f 128/29/2 127/27/2 129/30/2
f 128/29/2 38/31/2 44/28/2
f 128/29/2 129/30/2 130/29/2
f 14/32/2 38/31/2 128/29/2
f 131/30/2 130/29/2 129/30/2
f 38/31/2 14/32/2 132/33/2
f 132/33/2 14/32/2 133/34/2
f 133/34/2 14/32/2 134/34/2
f 135/27/2 130/29/2 131/30/2
f 47/28/2 130/29/2 135/27/2
f 42/31/2 130/29/2 47/28/2
f 13/32/2 134/34/2 14/32/2
f 42/31/2 13/32/2 130/29/2
f 134/34/2 13/32/2 136/33/2
f 136/33/2 13/32/2 42/31/2
f 139/32/28 138/29/27 137/29/26
f 138/29/27 139/32/28 140/32/29
f 143/29/32 142/32/31 141/32/30
f 142/32/31 143/29/32 144/29/33
f 147/29/36 146/32/35 145/32/34
f 146/32/35 147/29/36 148/29/37
f 149/29/38 146/32/35 148/29/37
f 146/32/35 149/29/38 150/32/39
f 139/32/28 143/29/32 141/32/30
f 143/29/32 139/32/28 137/29/26
f 152/29/41 140/32/29 151/32/40
f 140/32/29 152/29/41 138/29/27
f 150/32/39 152/29/41 151/32/40
f 152/29/41 150/32/39 149/29/38
f 142/32/31 147/29/36 145/32/34
f 147/29/36 142/32/31 144/29/33
f 147/29/36 149/29/38 148/29/37
f 149/29/38 147/29/36 144/29/33
f 149/29/38 144/29/33 152/29/41
f 152/29/41 144/29/33 143/29/32
f 152/29/41 143/29/32 138/29/27
f 138/29/27 143/29/32 137/29/26
f 155/32/28 154/29/27 153/29/26
f 154/29/27 155/32/28 156/32/29
f 159/29/32 158/32/31 157/32/30
f 158/32/31 159/29/32 160/29/33
f 163/29/36 162/32/35 161/32/34
f 162/32/35 163/29/36 164/29/37
f 165/29/38 162/32/35 164/29/37
f 162/32/35 165/29/38 166/32/39
f 155/32/28 159/29/32 157/32/30
f 159/29/32 155/32/28 153/29/26
f 168/29/41 156/32/29 167/32/40
f 156/32/29 168/29/41 154/29/27
f 166/32/39 168/29/41 167/32/40
f 168/29/41 166/32/39 165/29/38
f 158/32/31 163/29/36 161/32/34
f 163/29/36 158/32/31 160/29/33
f 163/29/36 165/29/38 164/29/37
f 165/29/38 163/29/36 160/29/33
f 165/29/38 160/29/33 168/29/41
f 168/29/41 160/29/33 159/29/32
f 168/29/41 159/29/32 154/29/27
f 154/29/27 159/29/32 153/29/26
f 170/35/1 6/35/1 169/35/1
f 6/35/1 170/35/1 5/35/1
f 173/37/6 172/36/42 171/36/42
f 172/36/42 173/37/6 174/37/6
f 125/36/1 172/36/42 126/36/1
f 172/36/42 125/36/1 171/36/42
f 173/37/6 12/37/5 174/37/6
f 12/37/5 173/37/6 11/37/5
f 177/38/43 176/38/43 175/38/43
f 176/38/43 177/38/43 178/38/43

