# Created by Kenney (www.kenney.nl)

mtllib top-large-checkerboard.mtl

g top-large-checkerboard

v 1 0 -1 1 1 1
v 1 2.406371E-16 0 1 1 1
v 0 0 -1 1 1 1
v 0 2.406371E-16 0 1 1 1
v 0 0 0 1 1 1
v 0 2.406371E-16 1 1 1 1
v -1 0 0 1 1 1
v -1 2.406371E-16 1 1 1 1
v 1 4.812743E-16 1 1 1 1
v 0 4.812743E-16 1 1 1 1
v -1 0 -1 1 1 1
v -1 2.406371E-16 0 1 1 1

vn 0 1 0

vt 0.28125 0.125
vt 0.03125 0.125

usemtl colormap

f 3/1/1 2/1/1 1/1/1
f 2/1/1 3/1/1 4/1/1
f 7/1/1 6/1/1 5/1/1
f 6/1/1 7/1/1 8/1/1
f 4/2/1 9/2/1 2/2/1
f 9/2/1 4/2/1 10/2/1
f 11/2/1 4/2/1 3/2/1
f 4/2/1 11/2/1 12/2/1

g top-large-checkerboard




usemtl colormap

f 3/1/1 2/1/1 1/1/1
f 2/1/1 3/1/1 4/1/1
f 7/1/1 6/1/1 5/1/1
f 6/1/1 7/1/1 8/1/1
f 4/2/1 9/2/1 2/2/1
f 9/2/1 4/2/1 10/2/1
f 11/2/1 4/2/1 3/2/1
f 4/2/1 11/2/1 12/2/1

